<svg xmlns="http://www.w3.org/2000/svg" xmlns:xlink="http://www.w3.org/1999/xlink" viewBox="0 0 3710 3710"><defs><style>.cls-1{mask:url(#mask);filter:url(#luminosity-noclip-3);}.cls-11,.cls-2,.cls-20,.cls-4{mix-blend-mode:multiply;}.cls-2{fill:url(#linear-gradient);}.cls-3{mask:url(#mask-2);filter:url(#luminosity-noclip-4);}.cls-4{fill:url(#linear-gradient-2);}.cls-5{isolation:isolate;}.cls-6{mask:url(#mask-3);}.cls-7,.cls-9{opacity:0.71;}.cls-7{fill:url(#linear-gradient-3);}.cls-8{mask:url(#mask-4);}.cls-9{fill:url(#linear-gradient-4);}.cls-10{fill:url(#linear-gradient-5);}.cls-11{opacity:0.21;}.cls-12{fill:url(#linear-gradient-6);}.cls-13{font-size:348.53px;}.cls-13,.cls-17{fill:#fff;font-family:Nunito-Regular, Nunito;}.cls-14{letter-spacing:0em;}.cls-15{letter-spacing:-0.01em;}.cls-16{fill:url(#linear-gradient-7);}.cls-17{font-size:194.79px;}.cls-18{letter-spacing:0em;}.cls-19{fill:url(#linear-gradient-8);}.cls-20{fill:#ff7200;opacity:0.6;}.cls-21{fill:url(#linear-gradient-9);}.cls-22{fill:url(#linear-gradient-10);}.cls-23{fill:url(#linear-gradient-11);}.cls-24{filter:url(#luminosity-noclip-2);}.cls-25{filter:url(#luminosity-noclip);}</style><filter id="luminosity-noclip" x="2197.8" y="-10046" width="790.51" height="32766" filterUnits="userSpaceOnUse" color-interpolation-filters="sRGB"><feFlood flood-color="#fff" result="bg"/><feBlend in="SourceGraphic" in2="bg"/></filter><mask id="mask" x="2197.8" y="-10046" width="790.51" height="32766" maskUnits="userSpaceOnUse"><g class="cls-25"/></mask><linearGradient id="linear-gradient" x1="7097.14" y1="1639.67" x2="5670.69" y2="3506.98" gradientTransform="matrix(-1, 0, 0, 1, 9276.22, 0)" gradientUnits="userSpaceOnUse"><stop offset="0" stop-color="#fff"/><stop offset="1"/></linearGradient><filter id="luminosity-noclip-2" x="1382.24" y="-10046" width="780.48" height="32766" filterUnits="userSpaceOnUse" color-interpolation-filters="sRGB"><feFlood flood-color="#fff" result="bg"/><feBlend in="SourceGraphic" in2="bg"/></filter><mask id="mask-2" x="1382.24" y="-10046" width="780.48" height="32766" maskUnits="userSpaceOnUse"><g class="cls-24"/></mask><linearGradient id="linear-gradient-2" x1="7962.25" y1="1665.35" x2="6571.8" y2="3262.71" xlink:href="#linear-gradient"/><filter id="luminosity-noclip-3" x="2197.8" y="1579.01" width="790.51" height="1169.15" filterUnits="userSpaceOnUse" color-interpolation-filters="sRGB"><feFlood flood-color="#fff" result="bg"/><feBlend in="SourceGraphic" in2="bg"/></filter><mask id="mask-3" x="2197.8" y="1579.01" width="790.51" height="1169.15" maskUnits="userSpaceOnUse"><g class="cls-1"><path class="cls-2" d="M2197.8,1635.11c311.07-108.89,468.44-27.83,790.51-16V2748.16c-278.85-23.5-544.45-27.87-790.51-4.06Z"/></g></mask><linearGradient id="linear-gradient-3" x1="7097.14" y1="1639.67" x2="5670.69" y2="3506.98" gradientTransform="matrix(-1, 0, 0, 1, 9276.22, 0)" gradientUnits="userSpaceOnUse"><stop offset="0" stop-color="#fff"/><stop offset="1" stop-color="#fff"/></linearGradient><filter id="luminosity-noclip-4" x="1382.24" y="1592.4" width="780.48" height="1155.76" filterUnits="userSpaceOnUse" color-interpolation-filters="sRGB"><feFlood flood-color="#fff" result="bg"/><feBlend in="SourceGraphic" in2="bg"/></filter><mask id="mask-4" x="1382.24" y="1592.4" width="780.48" height="1155.76" maskUnits="userSpaceOnUse"><g class="cls-3"><path class="cls-4" d="M2162.73,1636.05V2747.69l-4.43.47c-258.46-10-515.3-20.37-776.06,0V1623C1691,1612.76,1953.2,1552.47,2162.73,1636.05Z"/></g></mask><linearGradient id="linear-gradient-4" x1="7962.25" y1="1665.35" x2="6571.8" y2="3262.71" xlink:href="#linear-gradient-3"/><linearGradient id="linear-gradient-5" x1="1974.26" y1="769.91" x2="1546.48" y2="3764.39" gradientTransform="translate(-251.78 297.21) rotate(-8.57)" gradientUnits="userSpaceOnUse"><stop offset="0" stop-color="#ff9085"/><stop offset="1" stop-color="#fb6fbb"/></linearGradient><linearGradient id="linear-gradient-6" x1="427.25" y1="2548.64" x2="3788.96" y2="1019.6" gradientUnits="userSpaceOnUse"><stop offset="0" stop-color="#aa80f9"/><stop offset="1" stop-color="#6165d7"/></linearGradient><linearGradient id="linear-gradient-7" x1="268.29" y1="1650.16" x2="1321.29" y2="1650.16" gradientUnits="userSpaceOnUse"><stop offset="0" stop-color="#ffc444"/><stop offset="1" stop-color="#f36f56"/></linearGradient><linearGradient id="linear-gradient-8" x1="2790.75" y1="1148.65" x2="3131.79" y2="718.12" gradientUnits="userSpaceOnUse"><stop offset="0" stop-color="#444b8c"/><stop offset="1" stop-color="#26264f"/></linearGradient><linearGradient id="linear-gradient-9" x1="1075.72" y1="919.81" x2="1334.73" y2="592.83" gradientTransform="translate(-637.76 2785.51) rotate(-69.56)" xlink:href="#linear-gradient-8"/><linearGradient id="linear-gradient-10" x1="3262.52" y1="1175.69" x2="3390.6" y2="1657.09" xlink:href="#linear-gradient-8"/><linearGradient id="linear-gradient-11" x1="789.86" y1="2268.88" x2="948.02" y2="2863.35" xlink:href="#linear-gradient-8"/></defs><g class="cls-5"><g id="Layer_1" data-name="Layer 1"><g class="cls-6"><path class="cls-7" d="M2197.8,1635.11c311.07-108.89,468.44-27.83,790.51-16V2748.16c-278.85-23.5-544.45-27.87-790.51-4.06Z"/></g><g class="cls-8"><path class="cls-9" d="M2162.73,1636.05V2747.69l-4.43.47c-258.46-10-515.3-20.37-776.06,0V1623C1691,1612.76,1953.2,1552.47,2162.73,1636.05Z"/></g><path class="cls-10" d="M694.82,1408.12C3217,532,2789.19-63.77,2973.92,2230.24A172.12,172.12,0,0,1,2833.61,2406L1635.82,3078.2a172.19,172.19,0,0,1-194.28-112.5L672.09,1375.82"/><path class="cls-11" d="M2925.22,2267.16l-1808.84,26.68,215,444.31L2498,2594.32,2833.61,2406a171.57,171.57,0,0,0,94.85-52.64Z"/><path class="cls-12" d="M804.64,1263.89,3031.79,956c183.5-25.37,340.27,131.93,314.29,315.34L3204.66,2269.6a278.85,278.85,0,0,1-259.46,239.24l-1957.82,117c-143.25,8.56-269.61-93-292.06-234.73L567.41,1583.75C543,1429.52,650,1285.28,804.64,1263.89Z"/><text class="cls-13" transform="matrix(1, -0.08, 0.08, 1, 1343.69, 1629.12)">10% OFF<tspan x="-16.56" y="418.24">S</tspan><tspan class="cls-14" x="198.48" y="418.24">E</tspan><tspan class="cls-15" x="399.93" y="418.24">C</tspan><tspan x="632.05" y="418.24">OND </tspan><tspan x="225.84" y="836.47">CHILD</tspan></text><path class="cls-11" d="M804.64,1263.89C650,1285.28,543,1429.52,567.41,1583.75L682.3,2309l28.06,73.86c10.28,27.06,50.65,18,48.4-10.84l-20.29-260.38A25.05,25.05,0,0,1,755,2086.11l364.24-130.47a25,25,0,0,0,15.72-17L1339.13,1190Z"/><path class="cls-16" d="M1320.38,1009.47l-232.53,852.62a25.06,25.06,0,0,1-15.72,17L707.89,2009.56a25,25,0,0,0-16.53,25.53l20.29,260.38c2.25,28.87-38.12,37.91-48.4,10.85L269.93,1270.75a25,25,0,0,1,17.16-33.15l1002.85-259A25.05,25.05,0,0,1,1320.38,1009.47Z"/><text class="cls-17" transform="translate(465.09 1509) rotate(-16.24)">SP<tspan class="cls-18" x="245.82" y="0">E</tspan><tspan x="358.41" y="0">CIAL</tspan><tspan x="0" y="202.24">OFFER</tspan></text><path class="cls-11" d="M2961.83,1110.83,2923.11,971,2654,1008.22l267.74,135.44C2943.7,1154.76,2968.39,1134.53,2961.83,1110.83Z"/><path class="cls-19" d="M2706.55,961.91l341.81,172.92c21.95,11.1,46.64-9.13,40.08-32.83l-72.39-261.38a28.31,28.31,0,0,0-36.12-19.35L2710.5,909.74C2686.54,917.61,2684,950.52,2706.55,961.91Z"/><path class="cls-20" d="M641.09,1932,517,1921.18l49,129.11,87.81-81.11C667.55,1956.51,659.7,1933.58,641.09,1932Z"/><path class="cls-21" d="M444.53,2109.15l213.71-197.38c13.72-12.67,5.88-35.61-12.73-37.23L440.3,1856.73A21.5,21.5,0,0,0,417,1877.31l-8.5,215.2C407.69,2111.65,430.45,2122.15,444.53,2109.15Z"/><path class="cls-11" d="M3236.5,1391.5a20.62,20.62,0,0,0-20,17.56l-8.41,56.06a20.62,20.62,0,0,0,11.43,21.63l89.91,43.41,19.88-140.32Z"/><path class="cls-22" d="M3224.72,1341.45c276.17,1.87,247.46-56.14,140.05,204.46-8.56,19.88-38.07,14.81-39.51-6.79-2.48-13.67,2.88-46-14-52.42l-103.59-50a20.6,20.6,0,0,1-11.43-21.62l8.41-56.07A20.62,20.62,0,0,1,3224.72,1341.45Z"/><path class="cls-11" d="M1027,2426.56,802.9,2570.14a278.13,278.13,0,0,0,185.77,55.67l68.75-174.23C1064.79,2432.91,1043.91,2415.73,1027,2426.56Z"/><path class="cls-23" d="M659.65,2509.57l357.66-109.69c19.2-5.88,34.69,16.27,22.57,32.28L787.13,2766a20.69,20.69,0,0,1-35.24-3.72L647,2538.13A20.7,20.7,0,0,1,659.65,2509.57Z"/></g></g></svg>