<svg xmlns="http://www.w3.org/2000/svg" xmlns:xlink="http://www.w3.org/1999/xlink" viewBox="0 0 3710 3710"><defs><style>.cls-1{fill:url(#linear-gradient);}.cls-2{isolation:isolate;}.cls-3{fill:#f4f7fa;}.cls-4{fill:#eaedf3;}.cls-5{fill:#97a6b7;}.cls-6{fill:#d8dee8;}.cls-7{fill:url(#linear-gradient-2);}.cls-8{fill:url(#linear-gradient-3);}.cls-9{fill:url(#linear-gradient-4);}.cls-10{fill:url(#linear-gradient-5);}.cls-11{fill:url(#linear-gradient-6);}.cls-12{fill:url(#linear-gradient-7);}.cls-13{fill:url(#linear-gradient-8);}.cls-14{fill:url(#linear-gradient-9);}.cls-15,.cls-17,.cls-19{opacity:0.6;}.cls-15,.cls-17,.cls-19,.cls-24,.cls-41,.cls-44,.cls-47,.cls-50,.cls-53{mix-blend-mode:multiply;}.cls-15{fill:url(#linear-gradient-10);}.cls-16{fill:url(#linear-gradient-11);}.cls-17{fill:url(#linear-gradient-12);}.cls-18{fill:url(#linear-gradient-13);}.cls-19{fill:url(#linear-gradient-14);}.cls-20{fill:url(#linear-gradient-15);}.cls-21{fill:url(#linear-gradient-16);}.cls-22{fill:url(#linear-gradient-17);}.cls-23,.cls-59{fill:#fff;}.cls-24,.cls-41,.cls-44,.cls-47,.cls-50{opacity:0.2;}.cls-24{fill:url(#linear-gradient-18);}.cls-25{fill:url(#linear-gradient-19);}.cls-26{fill:url(#linear-gradient-20);}.cls-27{fill:url(#linear-gradient-21);}.cls-28{fill:url(#linear-gradient-22);}.cls-29{fill:url(#linear-gradient-23);}.cls-30{fill:url(#linear-gradient-24);}.cls-31{fill:url(#linear-gradient-25);}.cls-32{fill:url(#linear-gradient-26);}.cls-33{fill:url(#linear-gradient-27);}.cls-34{fill:url(#linear-gradient-28);}.cls-35{fill:#26264f;}.cls-36{fill:url(#linear-gradient-29);}.cls-37{fill:url(#linear-gradient-30);}.cls-38{fill:#444b8c;}.cls-39{fill:url(#linear-gradient-31);}.cls-40{fill:url(#linear-gradient-32);}.cls-41{fill:url(#linear-gradient-33);}.cls-42{fill:url(#linear-gradient-34);}.cls-43{fill:url(#linear-gradient-35);}.cls-44{fill:url(#linear-gradient-36);}.cls-45{fill:url(#linear-gradient-37);}.cls-46{fill:url(#linear-gradient-38);}.cls-47{fill:url(#linear-gradient-39);}.cls-48{fill:url(#linear-gradient-40);}.cls-49{fill:url(#linear-gradient-41);}.cls-50{fill:url(#linear-gradient-42);}.cls-51{fill:url(#linear-gradient-43);}.cls-52{fill:url(#linear-gradient-44);}.cls-53{opacity:0.3;fill:url(#linear-gradient-45);}.cls-54{fill:url(#linear-gradient-46);}.cls-55{fill:url(#linear-gradient-47);}.cls-56{fill:url(#linear-gradient-48);}.cls-57{fill:url(#linear-gradient-49);}.cls-58{mask:url(#mask);}.cls-59{opacity:0.82;}.cls-60{fill:#6567d9;}.cls-61{fill:url(#linear-gradient-50);}.cls-62{fill:url(#linear-gradient-51);}.cls-63{fill:#726bdf;}.cls-64{fill:url(#linear-gradient-52);}</style><linearGradient id="linear-gradient" x1="2622.12" y1="1652.53" x2="2622.12" y2="994.94" gradientUnits="userSpaceOnUse"><stop offset="0.3"/><stop offset="0.36" stop-color="#070707"/><stop offset="0.45" stop-color="#1b1b1b"/><stop offset="0.56" stop-color="#3b3b3b"/><stop offset="0.68" stop-color="#686868"/><stop offset="0.81" stop-color="#a2a2a2"/><stop offset="0.95" stop-color="#e7e7e7"/><stop offset="1" stop-color="#fff"/></linearGradient><linearGradient id="linear-gradient-2" x1="-784.1" y1="2164.39" x2="-798.98" y2="2442.89" gradientTransform="matrix(-1, 0, 0, 1, 2025.69, 0)" gradientUnits="userSpaceOnUse"><stop offset="0" stop-color="#311944"/><stop offset="1" stop-color="#a03976"/></linearGradient><linearGradient id="linear-gradient-3" x1="-371.07" y1="2186.46" x2="-385.95" y2="2464.97" xlink:href="#linear-gradient-2"/><linearGradient id="linear-gradient-4" x1="-678.39" y1="2170.04" x2="-693.27" y2="2448.54" xlink:href="#linear-gradient-2"/><linearGradient id="linear-gradient-5" x1="-51.94" y1="2203.51" x2="-66.83" y2="2482.02" xlink:href="#linear-gradient-2"/><linearGradient id="linear-gradient-6" x1="-789.54" y1="2401.63" x2="-785.29" y2="2229.43" xlink:href="#linear-gradient-2"/><linearGradient id="linear-gradient-7" x1="-365.22" y1="2132.81" x2="-399.23" y2="2451.7" xlink:href="#linear-gradient-2"/><linearGradient id="linear-gradient-8" x1="-834.97" y1="1800.51" x2="40.94" y2="1987.59" gradientTransform="matrix(-1, 0, 0, 1, 2025.69, 0)" gradientUnits="userSpaceOnUse"><stop offset="0" stop-color="#e38ddd"/><stop offset="1" stop-color="#9571f6"/></linearGradient><linearGradient id="linear-gradient-9" x1="-806.66" y1="1485.48" x2="-800.1" y2="1485.48" xlink:href="#linear-gradient-8"/><linearGradient id="linear-gradient-10" x1="-800.1" y1="1748.49" x2="9.39" y2="1748.49" xlink:href="#linear-gradient-8"/><linearGradient id="linear-gradient-11" x1="-855.78" y1="1897.93" x2="20.13" y2="2085.01" xlink:href="#linear-gradient-8"/><linearGradient id="linear-gradient-12" x1="-948.92" y1="1863.62" x2="-782.26" y2="1863.62" xlink:href="#linear-gradient-8"/><linearGradient id="linear-gradient-13" x1="-113.52" y1="1729.38" x2="-300.61" y2="2158.83" xlink:href="#linear-gradient-8"/><linearGradient id="linear-gradient-14" x1="-142.41" y1="1820.11" x2="-252.96" y2="2022.08" xlink:href="#linear-gradient-8"/><linearGradient id="linear-gradient-15" x1="2578.59" y1="-49.55" x2="2767.9" y2="235.41" gradientTransform="matrix(0.13, 0.99, 0.99, -0.13, 833.56, -1107.37)" gradientUnits="userSpaceOnUse"><stop offset="0" stop-color="#aa80f9"/><stop offset="1" stop-color="#6165d7"/></linearGradient><linearGradient id="linear-gradient-16" x1="958.25" y1="1215.56" x2="1665.06" y2="1215.56" gradientTransform="translate(-37.62 591.37) rotate(-18.56)" gradientUnits="userSpaceOnUse"><stop offset="0" stop-color="#ab316d"/><stop offset="1" stop-color="#792d3d"/></linearGradient><linearGradient id="linear-gradient-17" x1="1265.15" y1="748.58" x2="1888.3" y2="2347.46" gradientTransform="translate(-37.62 591.37) rotate(-18.56)" gradientUnits="userSpaceOnUse"><stop offset="0" stop-color="#ff9085"/><stop offset="1" stop-color="#fb6fbb"/></linearGradient><linearGradient id="linear-gradient-18" x1="1137.33" y1="1200.34" x2="1437.43" y2="1200.34" xlink:href="#linear-gradient-17"/><linearGradient id="linear-gradient-19" x1="1784" y1="2902.2" x2="1848.21" y2="2703.26" gradientTransform="matrix(-1, -0.08, -0.08, 1, 3239.21, 95.2)" xlink:href="#linear-gradient-16"/><linearGradient id="linear-gradient-20" x1="2076.19" y1="2585.29" x2="2478.54" y2="1472.28" gradientTransform="matrix(-1, 0, 0, 1, 3298.65, 0)" gradientUnits="userSpaceOnUse"><stop offset="0" stop-color="#444b8c"/><stop offset="1" stop-color="#3e4177"/></linearGradient><linearGradient id="linear-gradient-21" x1="2186.59" y1="2218.47" x2="2001.09" y2="3373.28" xlink:href="#linear-gradient-20"/><linearGradient id="linear-gradient-22" x1="3161.95" y1="2325.15" x2="3219.88" y2="2325.15" gradientTransform="matrix(-0.99, 0.13, 0.13, 0.99, 3378.26, -179.75)" gradientUnits="userSpaceOnUse"><stop offset="0" stop-color="#40447e"/><stop offset="1" stop-color="#3c3b6b"/></linearGradient><linearGradient id="linear-gradient-23" x1="3132.16" y1="2279.92" x2="3196.24" y2="2279.92" gradientTransform="matrix(-0.99, 0.13, 0.13, 0.99, 3378.26, -179.75)" xlink:href="#linear-gradient-16"/><linearGradient id="linear-gradient-24" x1="2339.62" y1="2221.33" x2="2835.65" y2="2221.33" gradientTransform="matrix(-1, 0.02, 0.02, 1, 3319.34, -33.38)" xlink:href="#linear-gradient-22"/><linearGradient id="linear-gradient-25" x1="2576.09" y1="1589.17" x2="3342.08" y2="2074.55" gradientTransform="matrix(-0.99, 0.13, 0.13, 0.99, 3378.26, -179.75)" xlink:href="#linear-gradient-15"/><linearGradient id="linear-gradient-26" x1="2079.42" y1="1780.89" x2="2703.99" y2="2176.66" gradientTransform="matrix(-1, 0, 0, 1, 3298.65, 0)" xlink:href="#linear-gradient-15"/><linearGradient id="linear-gradient-27" x1="2786.97" y1="499.34" x2="2820.5" y2="549.81" gradientTransform="matrix(-0.27, 0.96, 0.96, 0.27, 1550.48, -1282.88)" xlink:href="#linear-gradient-16"/><linearGradient id="linear-gradient-28" x1="2835.64" y1="223.01" x2="3024.95" y2="507.97" gradientTransform="matrix(-0.27, 0.96, 0.96, 0.27, 1550.48, -1282.88)" xlink:href="#linear-gradient-15"/><linearGradient id="linear-gradient-29" x1="682.95" y1="1711.47" x2="690.18" y2="1518.94" gradientTransform="translate(487.91 -174.59) rotate(5.8)" xlink:href="#linear-gradient-16"/><linearGradient id="linear-gradient-30" x1="2284.45" y1="1452.17" x2="2241.16" y2="1341.12" gradientTransform="matrix(-1, 0, 0, 1, 3298.65, 0)" xlink:href="#linear-gradient-16"/><linearGradient id="linear-gradient-31" x1="2436.72" y1="1135.42" x2="1765.44" y2="2613.15" gradientUnits="userSpaceOnUse"><stop offset="0" stop-color="#ffc444"/><stop offset="1" stop-color="#f36f56"/></linearGradient><linearGradient id="linear-gradient-32" x1="1857.58" y1="2527.5" x2="2640.29" y2="4086.98" xlink:href="#linear-gradient-31"/><linearGradient id="linear-gradient-33" x1="1637.71" y1="2712.73" x2="2037.09" y2="2712.73" xlink:href="#linear-gradient-31"/><linearGradient id="linear-gradient-34" x1="2222.79" y1="1845.06" x2="958.85" y2="3234.08" gradientUnits="userSpaceOnUse"><stop offset="0" stop-color="#444b8c"/><stop offset="1" stop-color="#26264f"/></linearGradient><linearGradient id="linear-gradient-35" x1="1913.19" y1="1404.53" x2="3067.03" y2="4536.39" gradientTransform="matrix(1, 0, 0, 1, 0, 0)" xlink:href="#linear-gradient-15"/><linearGradient id="linear-gradient-36" x1="1848.05" y1="2106.74" x2="2133.22" y2="2106.74" gradientTransform="matrix(1, 0, 0, 1, 0, 0)" xlink:href="#linear-gradient-15"/><linearGradient id="linear-gradient-37" x1="5051.49" y1="3080.67" x2="5051.49" y2="2760.62" gradientTransform="translate(-2476.61 6.76) rotate(-0.91)" gradientUnits="userSpaceOnUse"><stop offset="0" stop-color="#311944"/><stop offset="1" stop-color="#893976"/></linearGradient><linearGradient id="linear-gradient-38" x1="-5212.08" y1="2743.66" x2="-5231.02" y2="3169.68" gradientTransform="matrix(-1, 0.04, 0.04, 1, -2660.1, -10.23)" xlink:href="#linear-gradient-34"/><linearGradient id="linear-gradient-39" x1="-5212.08" y1="2743.66" x2="-5231.02" y2="3169.68" gradientTransform="matrix(-1, 0.04, 0.04, 1, -2660.1, -10.23)" xlink:href="#linear-gradient-34"/><linearGradient id="linear-gradient-40" x1="4974.73" y1="3095.28" x2="4974.73" y2="2775.23" xlink:href="#linear-gradient-37"/><linearGradient id="linear-gradient-41" x1="-5135.05" y1="2756.77" x2="-5153.99" y2="3182.79" gradientTransform="matrix(-1, 0.04, 0.04, 1, -2660.1, -10.23)" xlink:href="#linear-gradient-34"/><linearGradient id="linear-gradient-42" x1="-5135.05" y1="2756.77" x2="-5153.99" y2="3182.79" gradientTransform="matrix(-1, 0.04, 0.04, 1, -2660.1, -10.23)" xlink:href="#linear-gradient-34"/><linearGradient id="linear-gradient-43" x1="1576.24" y1="-1756.35" x2="664.84" y2="-2993.24" gradientTransform="matrix(1.04, 0.02, 0.02, 1.14, -2521.28, -743.84)" xlink:href="#linear-gradient-17"/><linearGradient id="linear-gradient-44" x1="4978.32" y1="2152.98" x2="4946.32" y2="2204.73" gradientTransform="translate(-2392.97)" xlink:href="#linear-gradient-31"/><linearGradient id="linear-gradient-45" x1="7366.26" y1="3763.47" x2="7558.53" y2="4158.84" gradientTransform="matrix(1.02, -0.22, 0.24, 1.12, -5965.85, -398.89)" xlink:href="#linear-gradient-17"/><linearGradient id="linear-gradient-46" x1="-5135.02" y1="2282.92" x2="-5188.97" y2="2370.19" gradientTransform="matrix(-1, 0.04, 0.04, 1, -2660.1, -10.23)" xlink:href="#linear-gradient-31"/><linearGradient id="linear-gradient-47" x1="5118.23" y1="2302.86" x2="5316.26" y2="1879.72" gradientTransform="translate(-2392.97)" xlink:href="#linear-gradient-34"/><linearGradient id="linear-gradient-48" x1="-1519.4" y1="-5255.42" x2="-2430.8" y2="-6492.31" gradientTransform="translate(-4514.58 609.63) rotate(-24.77)" xlink:href="#linear-gradient-17"/><linearGradient id="linear-gradient-49" x1="4647.32" y1="2222.18" x2="4656.92" y2="2285.27" gradientTransform="translate(-2392.97)" xlink:href="#linear-gradient-31"/><mask id="mask" x="2090.38" y="994.94" width="1063.49" height="657.59" maskUnits="userSpaceOnUse"><polygon class="cls-1" points="2486.82 994.94 2090.38 1652.53 3153.87 1652.53 2776.33 1008.53 2486.82 994.94"/></mask><linearGradient id="linear-gradient-50" x1="2496.81" y1="876.5" x2="2726.05" y2="1067.93" gradientTransform="matrix(1, 0, 0, 1, 0, 0)" xlink:href="#linear-gradient-8"/><linearGradient id="linear-gradient-51" x1="2478.01" y1="899.01" x2="2707.25" y2="1090.44" gradientTransform="matrix(1, 0, 0, 1, 0, 0)" xlink:href="#linear-gradient-8"/><linearGradient id="linear-gradient-52" x1="2564.38" y1="904.21" x2="2689.44" y2="904.21" gradientTransform="matrix(1, 0, 0, 1, 0, 0)" xlink:href="#linear-gradient-15"/></defs><g class="cls-2"><g id="Layer_1" data-name="Layer 1"><path class="cls-3" d="M3183.46,2154.13A1228.34,1228.34,0,0,1,2973.54,2562c-566.12,724.1-1891.85,735.73-2258.85,333.5C580.58,2748.56,536.83,2505,486.78,2154.13q-7-48.49-14.1-99.71c-27.35-194.92-31.27-352.08-33.6-459.88-8-366.69-12-550.06,47.05-674.81C655.22,562.66,1242.6,423.67,1622.26,417.24q39.72-.72,80.18.51C2147,431,2648.67,616.05,2958.06,1011.5a1321.33,1321.33,0,0,1,89.4,129.19C3242.27,1461.05,3280.08,1827.78,3183.46,2154.13Z"/><path class="cls-4" d="M3183.46,2154.13A1228.34,1228.34,0,0,1,2973.54,2562c-566.12,724.1-1891.85,735.73-2258.85,333.5C580.58,2748.56,536.83,2505,486.78,2154.13Z"/><path class="cls-5" d="M820.91,656.2V1776.5l8.19,6,1262-18.41V655l-1262-5.9ZM1399,1626.81l-458.86-3.64V761L1399,761Zm587.27-3.76-464.07,3V761l464.07,0Z"/><path class="cls-6" d="M829.1,649.08V1782.49l1273.26-7.24V646.61Zm579.43,971.22L948.59,1617V753.88l459.94-.42Zm588.74-4.26L1532,1619.4V753.34l465.24-.42Z"/><path class="cls-7" d="M2788.54,2171.52h55.83v62.92l-7.67,116a24.9,24.9,0,0,1-49.7,0l-7.67-116v-62.92Z"/><path class="cls-8" d="M2374.33,2171.52h55.84v62.92l-7.67,116a24.91,24.91,0,0,1-49.71,0l-7.67-116v-62.92Z"/><path class="cls-9" d="M2687.93,2272.64h55.84v62.92l-7.67,116.05a24.91,24.91,0,0,1-49.71,0l-7.67-116.05v-62.92Z"/><path class="cls-10" d="M2057.31,2228h55.84v62.92L2105.48,2407a24.9,24.9,0,0,1-49.7,0l-7.68-116.06V2228Z"/><polygon class="cls-11" points="2867.34 2175.18 2860.03 2231.1 2773.74 2305.07 2753.18 2225.27 2867.34 2175.18"/><path class="cls-12" d="M2777.26,2195.59l-3.52,109.48s-747.07-19.09-746.65-23.77-5.36-70.75-5.36-70.75Z"/><path class="cls-13" d="M2010.06,2038.07a64.47,64.47,0,0,1,50.6-62.26l275.83-60.69s1-248.13-29-388.7c-8.8-41.17,27.17-78.36,68.51-70.38,22.6,4.36,48.26,14.68,75.27,35.38,0,0,223.17-58.86,374.5,0,0,0,17.5-50.88,92.69-44.24,39.07,3.45,64.87,42.29,53.39,79.8-37.53,122.57-114.43,406.37-92.24,610.37a96.12,96.12,0,0,1-37.4,86.49l-47.48,36.36a72.45,72.45,0,0,1-47.48,14.85l-686.13-32.41a55.27,55.27,0,0,1-52.67-55.81Z"/><path class="cls-14" d="M2832.35,1479.53l-6.56,11.89A53,53,0,0,1,2832.35,1479.53Z"/><path class="cls-15" d="M2016.3,2011.1a64.44,64.44,0,0,1,44.36-35.29l275.83-60.69s.17-41.11-1.65-99.33c23.12-.72,62.21-20.32,64.65-143.62,2-102.34-8.71-173.42-18-215,21.25,4.91,45,15.16,69.84,34.22,0,0,223.17-58.86,374.5,0l-56.28,548.36S2419.36,1946.28,2016.3,2011.1Z"/><path class="cls-16" d="M2845.43,2024.78l20.9-209.44s-17-25.16-77.83-24.64-72.71,33.17-73.59,249.1l64.41,9.43Z"/><path class="cls-17" d="M2866.33,1815.34s39.77-243.28,61.37-309c9.41-28.61,24.83-32.31,39.24-27.36a61.82,61.82,0,0,1,4.93,48c-37.53,122.57-114.43,406.37-92.24,610.37a96.12,96.12,0,0,1-37.4,86.49L2808,2250.09c3.19-134.23,10.92-409.69,21.12-432.73C2842.6,1786.81,2866.33,1815.34,2866.33,1815.34Z"/><path class="cls-18" d="M2383.35,1935.23l-3.19-79.43s-4-15.45-53-28.79c-38.56-10.5-150.21-32.67-195.9-41.61a142.48,142.48,0,0,0-38.39-2.25c-3.14.25-6.29.47-9.14.65a28.25,28.25,0,0,0-26.53,28.81l3.43,163.2,62.45,11.47Z"/><path class="cls-19" d="M2121.05,1947.13c24.57-29.7-5.52-85.82,22-105.1,14.44-10.12,31.25-.66,80,11.56,37.09,9.28,124,31,134.65,12.75,2.47-4.23,2.3-13.19-15.94-34.85,35.14,12.09,38.35,24.31,38.35,24.31l3.19,79.43-260.24,52-62.45-11.47-.24-11.43C2093.9,1966.42,2111.66,1958.48,2121.05,1947.13Z"/><path class="cls-20" d="M991.41,1475.55s-19.47,19.82-10.76,40.82c5,12.12,11.1,21.11,15,24.85,88.14,83.91,132.2,125.86,153.24,133,69.82,23.6,167.45,17.07,225.25-37.56,0,0,22.67-21.44,82.52-184.84h0l-30.5-41.12c-74.78,106.23-134.27,128-176.1,126.48-90-3.24-157.56-116.19-225.26-89.63C1008,1454.13,997.31,1467,991.41,1475.55Z"/><path class="cls-21" d="M2019.4,1486.61,1885,1396.3l-116.74-347.73c-15.06-44.86-62.9-67.43-107.76-52.37l-246.78,82.85-22.7-15.38-147.75,71.74c-3.94,1.61-7.72,3.46-11.58,4.75l-.1,0-.76.25c-33.23,23-52.15,62.76-39.09,101.67l138.17,411.53c15.06,44.86,66.56,68.75,111.46,53.68l149.55-50.21,261.95-87.94A86.14,86.14,0,0,0,1877,1556l-.13-.18Z"/><path class="cls-22" d="M1930.33,968.67l138.16,411.54c15.06,44.85-10.24,92.46-55.1,107.52L1601.9,1625.88C1557,1641,1507,1618.62,1492,1573.76l-138.16-411.53c-15.06-44.86,10.82-94.26,55.72-109.33L1821,914.75C1865.88,899.69,1915.27,923.82,1930.33,968.67Z"/><path class="cls-23" d="M1698.46,1074l-95.63,32.1-.59,11.52-6.09,400,84.27-28.29-4.14-100.93,134.49-45.15,57.6,83,84.27-28.29Zm-22.69,247.68c-1-46.89-2.71-87.26-3.71-116.67-1-28.77-2.07-49.62-2.93-61.2,3.36,5.63,8.7,14.17,15.31,23.55s35.41,49,87.47,122.05Z"/><path class="cls-24" d="M1492,1573.76l-138.16-411.53c-15.06-44.86,10.82-94.26,55.72-109.33l77.42-26c39.28,22.23,78.92,52.36,114.31,87.75a483.71,483.71,0,0,1,70.3,88.84A471.61,471.61,0,0,1,1718,1304.25a507,507,0,0,1,17,67.29,565.53,565.53,0,0,1,8.2,68.78c2.79,45,4.7,89.3,8.22,135.35l-149.55,50.21C1557,1641,1507,1618.62,1492,1573.76Z"/><path class="cls-25" d="M1231.41,2724.39q8.65,50.51,17.33,101c-2.62,3.79-9,11.77-19,12.81-11.17,1.17-20.17-7.05-23.5-10.44-2.84-46.67-10.74-79.61-19.89-103.36Z"/><path class="cls-26" d="M1075.72,1859.3c46.62,97.9,70.69,240,103.62,401.32,29.58,144.9,44.43,372.88,54.55,473.6-9.28,6.52-43.71,27.63-47.34,14.29-127.74-469-201.87-610.83-229-639-16.71-17.34-55.67-54.31-58.84-106.26a46.42,46.42,0,0,1,.1-6.51C904.56,1924.8,1043,1871.15,1075.72,1859.3Z"/><path class="cls-27" d="M1033.44,1876.39c18.38-8.19,33.84-14,42.28-17.09,46.62,97.9,70.69,240,103.62,401.32,29.58,144.9,44.43,372.88,54.55,473.6-2.13,1.5-5.62,3.78-9.73,6.22-58.59-214.46-45-434.17-174.73-635.2C1002.8,2033.17,1014.75,1955.77,1033.44,1876.39Z"/><path class="cls-28" d="M520.15,2480.52c-9.06-3.76-20.22-3.4-27.6,5.17-14.48,16.79,2.78,52.38,10.29,67.93,8.52,17.64,25,66.27,48.88,56.11,10.63-4.52,2.52-36.56-3-46.27-6.92-12.18-8.37-26.07-9.58-40.28a75.29,75.29,0,0,0-4.75-19C531.12,2495.92,529.2,2484.29,520.15,2480.52Z"/><path class="cls-29" d="M513,2516.23c7.85,13.84,34.76-7,48.47-12.45s15.81-.45,9.68-11.6-14.19-22-29.13-15.42S505.16,2502.38,513,2516.23Z"/><path class="cls-30" d="M1019.12,2005.06c.79,1.29,5.26-.57,4.15,8-7.58,58.6-191.16,412.31-224.2,422.2-3.77,1.13-190.63,58.09-245.63,85-27-23.38-12.51-44.66-5.36-53.59,20-14.6,194.39-113.36,206.11-114.82,17.84-61.7,8.44-349,89.33-378.31C859.68,1967.72,992.91,1962.26,1019.12,2005.06Z"/><path class="cls-31" d="M1080.3,1484.53c18.06,16.51,26.83,32.77,38,54,17.75,33.62,27.89,52.82,30.25,78,4.53,48.4-22.6,87.6-35.87,104.18-19,111.1-23.43,137.08-23.4,137.42l0,.66a306,306,0,0,0,17,53.18c24.43,57.59,48.92,65.72,45.91,88-5.27,39.14-87.53,65.8-152.58,67.49-34.47.89-38.55-5.88-68.05-7.12-123.89-5.17-165.38,109.7-248.23,92.63-58.89-12.13-68.36-77.23-143.23-80.38-26.14-1.1-54,5.46-57.69-3.94-3.59-9.16,18.18-27.48,37.19-38.08,41-22.85,82.46-17.11,100.52-16.66,80.87,2,150.56-91.09,192.38-147,118.23-157.89,88.57-351.84,81.56-392.11,10.09-7.25,47.12-32,137.41-20.14A149.61,149.61,0,0,1,1080.3,1484.53Z"/><path class="cls-32" d="M772.71,2017.5c74.24-54,182.23-40.5,229.48-101.24,38.94-42.49,66.75-94.24,101-139.71-11,64.37-13.85,81.28-13.83,81.55l0,.66a306,306,0,0,0,17,53.18c24.43,57.59,48.92,65.72,45.91,88-5.27,39.14-87.53,65.8-152.58,67.49-34.47.89-38.55-5.88-68.05-7.12-123.89-5.17-165.38,109.7-248.23,92.63-58.89-12.13-68.36-77.23-143.23-80.38-26.14-1.1-54,5.46-57.69-3.94-3.59-9.16,18.18-27.48,37.19-38.08,20.08-11.18,40.25-15.5,57.74-16.95C643.21,2049.2,708,2067.86,772.71,2017.5Z"/><path class="cls-33" d="M1284.26,1601.82s43.24-34.34,68.37-32,37.75,53.27,10,60-76.66,2.52-76.66,2.52Z"/><path class="cls-34" d="M867.9,1474.68s-25.7,10.53-26,33.27c-.17,13.12,1.86,23.78,4,28.77,47.87,111.88,71.8,167.82,88.32,182.65,54.84,49.23,147.12,81.77,221.79,54.38,0,0,29.3-10.75,148.78-137.27h0l-11.8-49.81c-110.64,68.08-173.88,64.6-211.73,46.71-81.38-38.48-98.91-168.94-171.6-171.26C891.58,1461.55,876.71,1469.12,867.9,1474.68Z"/><path class="cls-35" d="M1069.84,1379.48a34.12,34.12,0,0,0,13.76-4.94c10.19-6.47,13.65-16.54,14.82-20.12,2.82-8.62,1.84-15.61.36-26.11-1.28-9.07-1.92-13.6-5.18-18.12-5.22-7.23-10-5-18.82-12.23-11.63-9.58-9.12-18.3-17.88-21.18-6.1-2-7.93,2-20.94,1.42-8.28-.4-8.35-2.07-14.82-2.12-9.35-.08-11.78,3.39-24.71,7.06-16.94,4.8-20.2,1-24.7,5.64-7.34,7.65.22,19-7.76,26.82-5.31,5.17-10.16,1.6-15.53,7.06s-1.81,10.4-6.35,23.76c-4.06,11.94-8.36,12.3-8.47,20-.06,4.27,1.25,5,7.41,19.76,6.43,15.43,5.42,15.65,8.11,19.06,6.09,7.7,10.19,5.25,20.12,14.12,9.52,8.5,9.27,13.89,15.18,14.82,6.62,1,8.48-5.49,18.35-6.35,8.64-.76,11.34,3.9,16.94,2.12,7.23-2.3,9-12,12-19.06C1035.8,1401.32,1045.33,1389.24,1069.84,1379.48Z"/><path class="cls-36" d="M1006.72,1373.86c8.48,24,8,46.76-6.49,64.31-12.8,15.45-31.29,13.5-31.83,20.77-1.07,14.37,82.42,35.06,87.07,24.33,2.29-5.29-24.11-13.23-26-31.24-.79-7.48,1.91-13.12,17.63-42.18l6.73,1.4Z"/><path class="cls-37" d="M1017.48,1410.72s2,23.83,25.58,24.29c29,.57,33.35-76,26.35-80.46-8.11-5.19-15.45,7.14-34.44,2.53-8-1.94-14.78-12.36-19-1.3-4.81,12.58-1.23,35-1.23,35s-6.81-5.78-8,1C1005.25,1400.79,1011.89,1406.48,1017.48,1410.72Z"/><path class="cls-38" d="M1314.33,2793.73c-3.45-5.69-29-4.91-42.4,1.14-22.41,10.15-36.58,30.25-42.31,32.72-13.06,5.62-24.51-.94-25.61-.73,0,0-9.69,16.31,4.74,25.63S1335.6,2828.84,1314.33,2793.73Z"/><path class="cls-39" d="M2221.14,2418.6l-175.39-103.07c-1.77-1.13-4.15-2.2-6-3.21l-.32,0-.15.71c-12.89-7-28-10.15-44.07-9.8l-263,5.65-184.37,4c-50.09,1.07-90.25,38.75-90.25,85.55v429c0,30.26,15.7,56.39,41.7,70.44h0l188.53,104.26,95.16-105.41,45.92-2.18,168-7.84c47.93-2.26,89.56-41.1,89.56-86.64V2568.93Z"/><path class="cls-40" d="M2259.79,2487.7v414.18c0,45.19-37.44,84.66-84.62,87.12l-445,23c-49.29,2.56-92.48-33.92-92.48-80.35V2506.14c0-46.42,42.86-86.69,92.15-88l444.06-11.6C2221.1,2405.31,2259.79,2442.51,2259.79,2487.7Z"/><path class="cls-23" d="M1990.49,2832.1q-99.48,4.46-99.61-121.75,0-60.64,26.12-95.51,23.13-30.84,63-35.59c3.42-.39,6.92-.67,10.5-.79a137.38,137.38,0,0,1,44,6,458,458,0,0,1,44.32,15.9l26.81-65.34q-57.65-24.54-115.1-22.81a243.86,243.86,0,0,0-35,3.53q-35.28,6.21-64,23.1-42.42,25-65.21,70.16t-22.76,104.3q0,93.78,46.33,141.79t132.75,43.72a377.93,377.93,0,0,0,54.9-6.52c19.86-4.1,31.86-9.76,59.06-18v-66.5c-27.2,7.67-40.28,13.14-56.87,17.16A271.94,271.94,0,0,1,1990.49,2832.1Z"/><path class="cls-41" d="M1637.71,2931.65V2506.14c0-46.42,42.86-86.69,92.15-88l184.55-4.81c12.95,35.78,27.23,68,40.48,101.58,8.4,21.16,16.94,42.75,24.78,63.94,29.87,80.95,54,162.52,57,245.95a464.8,464.8,0,0,1-2.13,67.43,448.34,448.34,0,0,1-20.4,94.52c-1.12,3.42-2.31,4.87-3.6,10.76L1729.85,3012C1680.56,3014.56,1637.71,2978.08,1637.71,2931.65Z"/><path class="cls-42" d="M2427.72,1802.56l-159.17-25.84c-7.16-1.65-15.79-1.9-23.52-1.9H1779.22c-51.93,0-90.24,35.91-90.24,84.51v445.42c0,42.43,28.14,81.63,71.15,85.16h-.1v-.27c2,.33,3.91.44,5.9.66l175.85,24.11,22.17-27.68,4.63-.18,277.8-7.11c49.7-1.27,93-41.72,93-89V1917Z"/><path class="cls-43" d="M2405.76,1799.55l-461.1.51c-51.22.06-96.61,38.1-96.61,86.36v442.35c0,48.26,45.49,86.16,96.71,84.79l460.11-12.27c49-1.31,90.09-40.42,90.09-87.39V1883.4C2495,1836.43,2454.77,1799.5,2405.76,1799.55Z"/><path class="cls-23" d="M2313.55,2122.76c-11.43-14.93-27.15-25-55.43-30.12V2090c24.74-3.35,33.72-12.46,45.12-27.51s16.87-34.17,16.87-57.42c0-34.2-13.19-58.55-39.3-74s-66.52-22.66-124.92-22.33l-127.55.74v396.34l153.29-3.46c46.46-1,82.21-13.66,109.13-34.12s40.08-49.27,40.08-84.72C2330.84,2158.51,2325,2137.64,2313.55,2122.76Zm-200.37-149.89,46.17-.39c25-.21,43,4.46,54.56,10.86s17.19,17.84,17.19,32.78c0,16-5.32,27.91-15.88,35s-27.39,11.11-51.07,11.4l-51,.62Zm110,241.92c-11.38,8.95-28.78,12.26-52.79,12.72l-57.17,1.1V2127.07l54.34-.82c48.77-.72,72.91,15.45,72.91,47.83C2240.43,2192.06,2234.56,2205.85,2223.14,2214.79Z"/><path class="cls-44" d="M1848.05,2328.77V1886.42c0-48.26,45.49-86.3,96.71-86.36l167.25-.18c-9.7,30.11-18.3,72-25.78,108.68-17.7,85.68-26.86,172.1-17.7,259.72,4.65,44.51,14.61,88.45,27.52,132.28,10.71,36.21,23.52,70.78,37.17,108l-188.49,5C1893.51,2414.93,1848.05,2377,1848.05,2328.77Z"/><path class="cls-45" d="M2590.16,2946.94s27.12,7.78,47.82,16.41,19.91-4.65,16.77-20.48-31.7-6.61-31.7-6.61S2577.12,2932.28,2590.16,2946.94Z"/><path class="cls-46" d="M2698.64,2502.69a599,599,0,0,1-12.67,108c-6.72,31.78-10.64,37.27-12.74,59.24-4.56,47.82,10.85,54.66,13.68,108.71,3.13,59.68-12.74,107.11-19,125.2a340.52,340.52,0,0,1-15.46,37.47c-3.67,3.2-8.64,3.43-14.18,2.69a10.46,10.46,0,0,1-9-9.75c-3.16-51.1-7-99.61-10.05-151q-15.73-122.15-31.44-244.29Z"/><path class="cls-47" d="M2629.29,2933.79c-3.16-50.93-6.95-99.3-10-150.53q-15.73-122.15-31.44-244.29l110.81-36.28c-.07,2.8-.21,5.5-.32,8.25-51.83,45-62,80.66-61.47,105,.62,29.49,16.75,44.12,13.6,86.88-2.26,30.58-11.45,36-11.45,63.56,0,35.53,15.26,55.5,22.69,76,7.17,19.84,9.73,47.95-4.14,87.92-1.82,4.13-3.54,7.82-5.08,11-3.56,3.1-8.36,3.41-13.71,2.75A11,11,0,0,1,2629.29,2933.79Z"/><path class="cls-48" d="M2513.64,2962.75s27.12,7.79,47.82,16.42,19.91-4.65,16.77-20.48-31.7-6.61-31.7-6.61S2500.6,2948.09,2513.64,2962.75Z"/><path class="cls-49" d="M2622.12,2518.51a599.1,599.1,0,0,1-12.67,108c-6.72,31.77-10.64,37.26-12.74,59.24-4.56,47.81,10.85,54.66,13.68,108.71,3.13,59.68-12.74,107.11-19,125.2a339.39,339.39,0,0,1-15.46,37.46c-3.67,3.2-8.64,3.43-14.18,2.7a10.47,10.47,0,0,1-9-9.75c-3.16-51.1-7-99.61-10.06-151q-15.7-122.16-31.43-244.29Z"/><path class="cls-50" d="M2552.77,2949.61c-3.16-50.93-6.95-99.3-10-150.53q-15.7-122.16-31.43-244.29l110.81-36.28c-.07,2.8-.21,5.5-.32,8.25-51.83,45-62,80.66-61.47,105,.62,29.49,16.75,44.11,13.6,86.88-2.26,30.57-11.45,36-11.45,63.55,0,35.53,15.26,55.51,22.69,76,7.17,19.85,9.73,47.95-4.14,87.93-1.82,4.13-3.54,7.82-5.08,11-3.56,3.11-8.36,3.42-13.71,2.76A11,11,0,0,1,2552.77,2949.61Z"/><path class="cls-51" d="M2558.78,2171.74c-43.45,7.27-76.48,15.1-90.82,39.79-15.14,26.08,10.13,46.49,18,104.58,12.08,88.94-33.87,121.09-18.73,210.7a249.4,249.4,0,0,0,9.83,38.83,95.48,95.48,0,0,0,35.36,47.61,219.55,219.55,0,0,0,44.08,24c44.54,17.87,66.17,8.49,125.73,13.47,97.43,8.15,112.59,39.36,156.19,21.29,44.06-18.26,75.21-69.47,65.36-91.84-5.9-13.4-23.54-5.49-49.39-22.33-31.53-20.54-29.18-44.11-55.52-75.43-38.31-45.57-70.51-24.29-103.36-64.54-23.05-28.24-26-61.78-31.23-120.28-5.54-62.26,3.63-107.94-21.23-121.58-6-3.28-13.14-5-21.69-4.76C2587.67,2172.3,2562.35,2171.14,2558.78,2171.74Z"/><path class="cls-52" d="M2561.43,2142.35l-18.85,42.87s27.84,14,53.32,0v-42.87Z"/><path class="cls-53" d="M2832.68,2638.27c-13.66-10.12-6.9-37.83-27.14-53-18.79-14.12-32.89,3.53-60.36-6.21-35.23-12.5-34.12-49.36-67.89-61.85-24.29-9-31.24,7.73-66,7.72s-80.57-16.67-110.18-57.59a147.94,147.94,0,0,1-23.84-52.79c-8.65,32.66-18.13,64.21-10,112.3a251.45,251.45,0,0,0,13.63,49.28,71,71,0,0,0,22.59,30.56,223.29,223.29,0,0,0,53.05,30.61c44.54,17.87,66.17,8.49,125.73,13.47,97.43,8.15,112.59,39.36,156.19,21.29,28.16-11.67,51-36.79,61.26-59.24C2861.84,2642.59,2842.6,2645.61,2832.68,2638.27Z"/><path class="cls-54" d="M2557.6,2057.38s-22.45,42.15-23.87,71.72,32,27.43,32,27.43l41.46-1.46S2622.06,2062.87,2557.6,2057.38Z"/><path class="cls-55" d="M2568.65,2131.51c-7,23.73,4.3,46.72,14,66.4,18.83,38.3,67.95,85.84,117.09,80.39,54.86-6.08,61.21-72.81,111.85-75.15,42.47-2,51.25,44.4,106.6,55.93,70.12,14.6,134-43.58,141.55-50.68,48.41-45.36,79.79-123.68,54.18-192.24-2.62-7-28.35-73.37-76.9-80.38-41-5.93-56.21,36.55-120.58,41.94-42.06,3.52-49.46-13.45-78.64-3.5-46.42,15.83-41.26,63.4-78.64,73.4-38.75,10.38-55.9-37.63-127.58-43.69-9.89-.84-67.67-5.72-83.88,24.47-6.53,12.14-7.33,31.85.81,46.16,8.41,14.8,22,16.14,25.4,30.73C2576.23,2115.39,2571.42,2122.13,2568.65,2131.51Z"/><path class="cls-56" d="M2278.5,2239.42c66.38,48.34,83.55,35.82,105.7,25.9,17.82-8,30.69-25.36,83.25-59.57,9.44-6.15,17.39-11,22.84-14.32,23.13,36.73,53.3,44.65,76.43,81.38,0,0-198.7,174.54-300.35-8.74Z"/><path class="cls-57" d="M2277.58,2244.73s.68-14-7.47-23.21-32.06,3.65-34.23,11.61,34.23,26.78,34.23,26.78Z"/><g class="cls-58"><polygon class="cls-59" points="2486.82 994.94 2090.38 1652.53 3153.87 1652.53 2776.33 1008.53 2486.82 994.94"/></g><path class="cls-60" d="M2626.85,626.11a3.44,3.44,0,0,1-3.44-3.44V595.16a3.44,3.44,0,1,1,6.88,0v27.51A3.44,3.44,0,0,1,2626.85,626.11Z"/><path class="cls-60" d="M2626.85,881.65a3.44,3.44,0,0,1-3.44-3.44V622.67a3.44,3.44,0,0,1,6.88,0V878.21A3.44,3.44,0,0,1,2626.85,881.65Z"/><path class="cls-60" d="M2626.85,909.16a3.44,3.44,0,0,1-3.44-3.44V878.21a3.44,3.44,0,1,1,6.88,0v27.51A3.44,3.44,0,0,1,2626.85,909.16Z"/><path class="cls-60" d="M2626.85,565.26a3.44,3.44,0,0,1-3.44-3.44V517a3.44,3.44,0,1,1,6.88,0v44.86A3.44,3.44,0,0,1,2626.85,565.26Z"/><path class="cls-60" d="M2626.85,486.94a3.44,3.44,0,0,1-3.44-3.43v-18.8a3.44,3.44,0,0,1,6.88,0v18.8A3.44,3.44,0,0,1,2626.85,486.94Z"/><path class="cls-61" d="M2785,1025.15V976.86a68.47,68.47,0,0,0-68.27-68.27H2536.93a68.47,68.47,0,0,0-68.27,68.27v48.29Z"/><ellipse class="cls-62" cx="2627.08" cy="1023.49" rx="158.41" ry="31.35"/><path class="cls-63" d="M2627.07,983.44c-68.29,0-125.69-9.37-139.57-22.8a1.72,1.72,0,1,1,2.39-2.47C2503,970.82,2560.67,980,2627.07,980c61.75,0,117-8.09,134.45-19.68a1.72,1.72,0,0,1,1.91,2.87C2745.22,975.3,2690.42,983.44,2627.07,983.44Z"/><path class="cls-64" d="M2689.31,911a27,27,0,0,0-26.95-26.55h-71a27,27,0,0,0-27,27h0s0,.08,0,.13c0,6.83,28,12.37,62.53,12.37s62.53-5.54,62.53-12.37A3.27,3.27,0,0,0,2689.31,911Z"/></g></g></svg>