<svg xmlns="http://www.w3.org/2000/svg" xmlns:xlink="http://www.w3.org/1999/xlink" viewBox="0 0 3183.67 2874.72"><defs><style>.cls-1{fill:url(#linear-gradient);}.cls-2{fill:url(#linear-gradient-2);}.cls-3{isolation:isolate;}.cls-4{fill:#f4f7fa;}.cls-5{clip-path:url(#clip-path);}.cls-6{opacity:0.5;}.cls-6,.cls-9{mix-blend-mode:soft-light;}.cls-7{fill:#fff;}.cls-8{clip-path:url(#clip-path-2);}.cls-9{opacity:0.7;}.cls-10{fill:url(#linear-gradient-5);}.cls-11{fill:url(#linear-gradient-6);}.cls-12{fill:url(#linear-gradient-7);}.cls-13{opacity:0.3;fill:url(#linear-gradient-8);}.cls-13,.cls-17{mix-blend-mode:multiply;}.cls-14{fill:url(#linear-gradient-9);}.cls-15{fill:url(#linear-gradient-10);}.cls-16{fill:url(#linear-gradient-11);}.cls-17,.cls-24{opacity:0.54;}.cls-18{fill:#d8dee8;}.cls-19{fill:url(#linear-gradient-12);}.cls-20{fill:url(#linear-gradient-13);}.cls-21{fill:url(#linear-gradient-14);}.cls-22{fill:url(#linear-gradient-15);}.cls-23{fill:url(#linear-gradient-16);}</style><linearGradient id="linear-gradient" x1="2698.16" y1="1274.99" x2="2270.98" y2="1962.89" gradientUnits="userSpaceOnUse"><stop offset="0" stop-color="#ff9085"/><stop offset="1" stop-color="#fb6fbb"/></linearGradient><linearGradient id="linear-gradient-2" x1="2638.83" y1="1508.41" x2="2280.69" y2="2576.97" gradientUnits="userSpaceOnUse"><stop offset="0" stop-color="#aa80f9"/><stop offset="1" stop-color="#6165d7"/></linearGradient><clipPath id="clip-path"><path class="cls-1" d="M2146,2409.54c-23.23-90.5-43.91-227.68.62-375.54,51.13-169.78,141.5-198.47,232.74-377.54,130.25-255.62,15-454.59,137.2-527.29,59.59-35.46,149.23-29.58,201.9,13.42,150.28,122.7,74.83,609-187.92,783.44-118.83,78.88-216.89,62.13-309.15,168.25C2139.85,2188.06,2137.15,2318.68,2146,2409.54Z"/></clipPath><clipPath id="clip-path-2"><path class="cls-2" d="M1954.57,2550.94c-20.49-71.61-40.58-184.8,7.07-293.61,83.13-189.81,278.88-152.61,437.73-364,128.13-170.51,68.38-284.66,218.22-405.44,25.08-20.22,157.17-130.79,270-86.39,63.58,25,92.85,88.07,98.34,99.9,83,178.88-72.81,491.93-304.36,653.6-133,92.89-181.69,73.16-421,191.21A1414,1414,0,0,0,1954.57,2550.94Z"/></clipPath><linearGradient id="linear-gradient-5" x1="1288.24" y1="1765.36" x2="1250.28" y2="2092.75" gradientTransform="matrix(0.9, 0.43, -0.43, 0.9, 2671.74, -876.49)" xlink:href="#linear-gradient-2"/><linearGradient id="linear-gradient-6" x1="855.13" y1="1225.13" x2="2158.83" y2="1979.9" gradientUnits="userSpaceOnUse"><stop offset="0" stop-color="#444b8c"/><stop offset="1" stop-color="#26264f"/></linearGradient><linearGradient id="linear-gradient-7" x1="1959.39" y1="884.73" x2="-138.36" y2="4036.28" gradientUnits="userSpaceOnUse"><stop offset="0" stop-color="#ffc444"/><stop offset="1" stop-color="#f36f56"/></linearGradient><linearGradient id="linear-gradient-8" x1="2060.1" y1="788.92" x2="1429.89" y2="1670.24" xlink:href="#linear-gradient-7"/><linearGradient id="linear-gradient-9" x1="870.21" y1="-218.88" x2="1819.94" y2="2322.03" xlink:href="#linear-gradient-7"/><linearGradient id="linear-gradient-10" x1="298.05" y1="4788.38" x2="2189.26" y2="-308.89" gradientUnits="userSpaceOnUse"><stop offset="0" stop-color="#ebeff2"/><stop offset="1" stop-color="#fff"/></linearGradient><linearGradient id="linear-gradient-11" x1="2205.07" y1="776.77" x2="1080.08" y2="3039.53" xlink:href="#linear-gradient-7"/><linearGradient id="linear-gradient-12" x1="968.88" y1="557.63" x2="2177.18" y2="2810.14" xlink:href="#linear-gradient"/><linearGradient id="linear-gradient-13" x1="1075.92" y1="500.21" x2="2284.22" y2="2752.72" xlink:href="#linear-gradient"/><linearGradient id="linear-gradient-14" x1="-182.6" y1="-1028.62" x2="2577.47" y2="4116.69" xlink:href="#linear-gradient"/><linearGradient id="linear-gradient-15" x1="1978.41" y1="881.37" x2="3008.26" y2="881.37" xlink:href="#linear-gradient-2"/><linearGradient id="linear-gradient-16" x1="2347.16" y1="354.03" x2="1751.32" y2="2001.65" gradientTransform="translate(340.4)" xlink:href="#linear-gradient-2"/></defs><g class="cls-3"><g id="Illustration"><path class="cls-4" d="M1611.59,62.39C865.64,41.37,219.5,558,121.87,1235.8c-106.73,741.12,480.73,1408,1203.57,1514.75C2224.53,2883.4,3096.6,2114.87,3018.3,1281.14,2959.31,653,2369.86,83.76,1611.59,62.39Z"/><path class="cls-1" d="M2146,2409.54c-23.23-90.5-43.91-227.68.62-375.54,51.13-169.78,141.5-198.47,232.74-377.54,130.25-255.62,15-454.59,137.2-527.29,59.59-35.46,149.23-29.58,201.9,13.42,150.28,122.7,74.83,609-187.92,783.44-118.83,78.88-216.89,62.13-309.15,168.25C2139.85,2188.06,2137.15,2318.68,2146,2409.54Z"/><g class="cls-5"><g class="cls-6"><path class="cls-7" d="M2143.28,2185.6l-3.46-1.13a677.64,677.64,0,0,1,45.27-106.82c41.51-78.39,84.29-120.11,138.46-172.93,35.16-34.28,75-73.14,121.79-129.5,87.49-105.41,114.93-142.62,141.27-203.63,52.16-120.81,52.71-232.17,48.39-287.8a603.32,603.32,0,0,0-63.39-226.23l3.25-1.64a607.1,607.1,0,0,1,63.77,227.59c4.34,56,3.78,168-48.69,289.52-26.52,61.43-54.05,98.79-141.81,204.51-46.9,56.51-86.82,95.44-122.05,129.78-53.93,52.6-96.54,94.14-137.78,172A672.26,672.26,0,0,0,2143.28,2185.6Z"/><path class="cls-7" d="M2616.53,1487.08l.15-3c8.39-174.37-196.95-247.92-199-248.65l1.19-3.43c.53.19,53.08,18.73,103.86,58.85,46.46,36.7,100.83,99.39,97.72,190.34,10.75-5.47,51.72-27.94,90.16-70.33,41-45.2,87.43-123,75.82-236.91l3.61-.36c11.76,115.3-35.29,194.06-76.83,239.82-45,49.56-93.45,72.19-93.94,72.41Z"/><path class="cls-7" d="M2602.9,1779.18c-74.49,0-131.74-30.25-132.63-30.73l-1.35-.73.49-1.45c56.12-168.08-52-263.29-53.06-264.23l2.37-2.76c1.11,1,110.38,97.22,54.62,266.66,14.75,7.4,146.71,69.44,266.59-11.8l2,3C2694.91,1769,2646,1779.18,2602.9,1779.18Z"/><path class="cls-7" d="M2487.11,1943.67c-36.84,0-65.86-6.37-87-13.64-42.3-14.57-62.5-35.24-63.34-36.11l-.9-.94.6-1.16c45.58-88.12.06-240.4-.4-241.92l3.47-1.06c.47,1.53,46,153.84.77,243.45,9.45,8.83,91.34,79,255.27,31.11l1,3.48C2554.62,1939.16,2518.09,1943.67,2487.11,1943.67Z"/></g></g><path class="cls-2" d="M1954.57,2550.94c-20.49-71.61-40.58-184.8,7.07-293.61,83.13-189.81,278.88-152.61,437.73-364,128.13-170.51,68.38-284.66,218.22-405.44,25.08-20.22,157.17-130.79,270-86.39,63.58,25,92.85,88.07,98.34,99.9,83,178.88-72.81,491.93-304.36,653.6-133,92.89-181.69,73.16-421,191.21A1414,1414,0,0,0,1954.57,2550.94Z"/><g class="cls-8"><g class="cls-9"><path class="cls-7" d="M1943.84,2641.23l-3.62-.32c16.21-178.81,71.64-304.09,164.76-372.37,45.61-33.45,83.95-42.32,124.54-51.72,43.55-10.09,88.59-20.52,144.6-63.88,54.42-42.13,71.47-78.63,93.06-124.84,19.46-41.64,43.67-93.47,103.11-165.64,52.09-63.26,91.72-94.62,126.69-122.29,37.81-29.93,67.68-53.57,99.29-106.66,51.64-86.74,71.64-192.64,59.44-314.76l3.62-.36c12.27,122.91-7.9,229.56-59.94,317-31.95,53.66-62,77.49-100.16,107.65-34.82,27.55-74.29,58.79-126.14,121.75-59.15,71.82-83.25,123.41-102.62,164.87-21.79,46.66-39,83.51-94.13,126.18-56.64,43.84-102.06,54.36-146,64.53-40.22,9.32-78.2,18.12-123.21,51.12C2014.88,2339.11,1960,2463.51,1943.84,2641.23Z"/><path class="cls-7" d="M2680.64,1755.7l.49-2.38c.52-2.53,50.84-253.47-49.71-343.1l2.41-2.71c96.79,86.27,56.26,318,51.32,344.15,132.69-11.86,225.29-73.31,279.71-122.94,59.32-54.09,87.28-106.09,87.56-106.61l3.2,1.7c-.27.53-28.53,53.09-88.31,107.6-55.17,50.3-149.26,112.66-284.25,124.08Z"/><path class="cls-7" d="M2663.24,1963.11c-87.75,0-148.62-18.84-149.25-19l-1.49-.47.24-1.55c20.29-130.17-31.17-306.2-31.7-308l3.49-1c.52,1.77,51.81,177.16,32,308,10.29,3,72.75,20,158.28,18.32,86.09-1.65,213.94-23,334.13-115.29l2.22,2.88c-121,92.94-249.75,114.4-336.42,116C2670.89,1963.08,2667,1963.11,2663.24,1963.11Z"/><path class="cls-7" d="M2559.47,2272.05c-76.55,0-138.75-10.76-182.47-21.82-69.35-17.56-108.49-39.67-108.88-39.89l-1.66-1,1-1.61c82.25-127.92,22.65-316.76,22-318.65L2293,1888c.62,1.9,60.21,190.78-21.39,320.08,17.43,9.24,168.59,84.52,402.48,52.41l.49,3.59A844.63,844.63,0,0,1,2559.47,2272.05Z"/></g></g><path class="cls-10" d="M1969.41,2336a793.18,793.18,0,0,1,208.21-80.67c165.42-38.22,234.48,3.35,309.46-56.18,77.61-61.62,40.31-135.29,132.59-203.46,7.76-5.73,106.6-76.78,184.16-37.27,54.27,27.65,69,94.55,75.89,125.94,26.8,121.84-17,297.82-152.1,371.66-128.13,70-273.73,13.05-319.92-5.37-81-32.32-97.12-67.18-179.78-97.49C2127.39,2316.33,2032.34,2324.29,1969.41,2336Z"/><path class="cls-11" d="M2378.76,1523.36c1.32,599-317.06,1087.79-884.07,1103.87-8.76.25-153.47,0-162.28,0-579.23,1.41-1049.88-490.52-1051.22-1098.76S748.31,426,1327.54,424.6c13.55,0,140.69,1.22,154.11,1.72C2042.18,447.27,2377.45,929.34,2378.76,1523.36Z"/><ellipse class="cls-12" cx="1526.05" cy="1535.76" rx="1048.79" ry="1101.32"/><ellipse class="cls-13" cx="1526.05" cy="1535.76" rx="1022.37" ry="1073.57"/><ellipse class="cls-14" cx="1526.05" cy="1535.76" rx="991.5" ry="1041.16"/><ellipse class="cls-15" cx="1504.85" cy="1535.76" rx="970.31" ry="1018.91"/><path class="cls-16" d="M1607.3,1506.58l739.12,286.62a898.85,898.85,0,0,0,37-256.39c0-459.79-343.79-835.27-776.16-858.45Z"/><g class="cls-17"><path class="cls-18" d="M1261.23,1512.64c-76.74-248.51,200.69-427.86,157-717.52-19.3-127.82-94.41-232.55-186.78-316.56-436.68,134-755.24,558.05-754.14,1059.75,1.35,608.24,472,1100.18,1051.22,1098.77a1002.6,1002.6,0,0,0,400.77-84.4c-17.88-351.51-125.71-550.08-240.37-669.7C1512.15,1698.6,1319.74,1702.14,1261.23,1512.64Z"/></g><ellipse class="cls-19" cx="1502.13" cy="1551.71" rx="61.69" ry="64.78"/><path class="cls-20" d="M1502.13,1035.45c-21.54,0-39,18.33-39,40.94v436.69c0,22.61,17.45,40.94,39,40.94s39-18.33,39-40.94V1076.39C1541.11,1053.78,1523.66,1035.45,1502.13,1035.45Z"/><path class="cls-21" d="M1512.2,1545.59,813.68,1340.23a24.78,24.78,0,0,0-30.21,15.25,22,22,0,0,0,14.37,28.86l698.51,205.36a24.79,24.79,0,0,0,30.22-15.25A22,22,0,0,0,1512.2,1545.59Z"/><path class="cls-22" d="M2883.54,592.84l-777.89,44.79c-42,2.42-74.73,47.78-74.73,101.38v237.4l-52.51,108.45,51.28,7.72,73,6.61,780.91,70.43c67.64,6.1,124.62-46.18,124.62-117V713.86C3008.26,643.07,2951.18,589,2883.54,592.84Z"/><path class="cls-23" d="M2856.39,592.84l-778.46,44.79c-42,2.42-75.29,47.78-75.29,101.38v237.4L1951,1084.86l51.69,7.72,73.24,6.61,780.51,70.43c67.63,6.1,124.21-46.18,124.21-117V713.86C2980.6,643.07,2924,589,2856.39,592.84Z"/><g class="cls-24"><polygon class="cls-7" points="2076.18 794.63 2839.14 789.06 2839.14 741.21 2076.18 756.17 2076.18 794.63"/><polygon class="cls-7" points="2076.18 869.51 2839.14 882.24 2839.14 834.39 2076.18 831.06 2076.18 869.51"/><polygon class="cls-7" points="2333.38 954.85 2839.14 975.41 2839.14 927.56 2333.38 913.23 2333.38 954.85"/></g></g></g></svg>