<svg id="Layer_1" data-name="Layer 1" xmlns="http://www.w3.org/2000/svg" xmlns:xlink="http://www.w3.org/1999/xlink" viewBox="0 0 3710 2409.21"><defs><style>.cls-1{fill:url(#linear-gradient);}.cls-2{fill:url(#linear-gradient-2);}.cls-3{fill:none;}.cls-4{fill:#f4f7fa;}.cls-5{clip-path:url(#clip-path);}.cls-6{fill:url(#linear-gradient-4);}.cls-7{fill:url(#linear-gradient-5);}.cls-8{fill:url(#linear-gradient-6);}.cls-9{fill:url(#linear-gradient-7);}.cls-10{fill:url(#linear-gradient-8);}.cls-11{fill:url(#linear-gradient-9);}.cls-12{fill:url(#linear-gradient-10);}.cls-13{opacity:0.17;fill:url(#linear-gradient-11);}.cls-14{fill:url(#linear-gradient-13);}.cls-15{clip-path:url(#clip-path-2);}.cls-16{fill:url(#linear-gradient-15);}.cls-17{fill:url(#linear-gradient-16);}.cls-18{fill:url(#linear-gradient-17);}.cls-19{fill:url(#linear-gradient-18);}.cls-20{fill:url(#linear-gradient-19);}.cls-21{fill:url(#linear-gradient-20);}.cls-22{fill:url(#linear-gradient-21);}.cls-23,.cls-24,.cls-25,.cls-26,.cls-27,.cls-28,.cls-29,.cls-30,.cls-31,.cls-32,.cls-33,.cls-34,.cls-35,.cls-36,.cls-37,.cls-40,.cls-41,.cls-42,.cls-47,.cls-48,.cls-49,.cls-50,.cls-51,.cls-52,.cls-53,.cls-54,.cls-55,.cls-56,.cls-57,.cls-58,.cls-60,.cls-61,.cls-62,.cls-63,.cls-64,.cls-65,.cls-66,.cls-67,.cls-68,.cls-69,.cls-70,.cls-71,.cls-72,.cls-73,.cls-74,.cls-75{fill-rule:evenodd;}.cls-23{fill:url(#linear-gradient-22);}.cls-24{fill:url(#linear-gradient-23);}.cls-25{fill:url(#linear-gradient-24);}.cls-26{fill:url(#linear-gradient-25);}.cls-27{fill:url(#linear-gradient-26);}.cls-28{fill:url(#linear-gradient-27);}.cls-29{fill:url(#linear-gradient-28);}.cls-30{fill:url(#linear-gradient-29);}.cls-31{fill:url(#linear-gradient-30);}.cls-32{fill:url(#linear-gradient-31);}.cls-33{fill:url(#linear-gradient-32);}.cls-34{fill:url(#linear-gradient-33);}.cls-35{fill:url(#linear-gradient-34);}.cls-36{fill:url(#linear-gradient-35);}.cls-37{fill:url(#linear-gradient-36);}.cls-38{fill:url(#linear-gradient-37);}.cls-39{fill:url(#linear-gradient-38);}.cls-40{fill:url(#linear-gradient-39);}.cls-41{fill:url(#linear-gradient-40);}.cls-42{fill:url(#linear-gradient-41);}.cls-43{fill:url(#linear-gradient-42);}.cls-44{fill:url(#linear-gradient-43);}.cls-45{fill:url(#linear-gradient-44);}.cls-46{fill:url(#linear-gradient-45);}.cls-47{fill:url(#linear-gradient-46);}.cls-48{fill:url(#linear-gradient-47);}.cls-49{fill:url(#linear-gradient-48);}.cls-50{fill:url(#linear-gradient-49);}.cls-51{fill:url(#linear-gradient-50);}.cls-52{fill:url(#linear-gradient-51);}.cls-53{fill:url(#linear-gradient-52);}.cls-54{fill:url(#linear-gradient-53);}.cls-55{fill:url(#linear-gradient-54);}.cls-56{fill:url(#linear-gradient-55);}.cls-57{fill:url(#linear-gradient-56);}.cls-58{fill:url(#linear-gradient-57);}.cls-59{fill:url(#linear-gradient-58);}.cls-60{fill:url(#linear-gradient-59);}.cls-61{fill:url(#linear-gradient-60);}.cls-62{fill:url(#linear-gradient-61);}.cls-63{fill:url(#linear-gradient-62);}.cls-64{fill:url(#linear-gradient-63);}.cls-65{fill:url(#linear-gradient-64);}.cls-66{fill:url(#linear-gradient-65);}.cls-67{fill:url(#linear-gradient-66);}.cls-68{fill:url(#linear-gradient-67);}.cls-69{fill:url(#linear-gradient-68);}.cls-70{fill:url(#linear-gradient-69);}.cls-71{fill:url(#linear-gradient-70);}.cls-72{fill:url(#linear-gradient-71);}.cls-73{fill:url(#linear-gradient-72);}.cls-74{fill:url(#linear-gradient-73);}.cls-75{fill:url(#linear-gradient-74);}.cls-76{fill:url(#linear-gradient-75);}.cls-77{fill:url(#linear-gradient-76);}.cls-78{fill:url(#linear-gradient-77);}.cls-79{fill:url(#linear-gradient-78);}.cls-80{fill:url(#linear-gradient-79);}.cls-81{clip-path:url(#clip-path-3);}.cls-82{fill:#bdd0fb;}.cls-83{fill:#91b3fa;}.cls-84{fill:url(#linear-gradient-80);}.cls-85{fill:url(#linear-gradient-81);}</style><linearGradient id="linear-gradient" x1="966.93" y1="1356.95" x2="2604.69" y2="1356.95" gradientTransform="translate(1482.56 -865.32) rotate(45)" gradientUnits="userSpaceOnUse"><stop offset="0" stop-color="#aa80f9"/><stop offset="1" stop-color="#6165d7"/></linearGradient><linearGradient id="linear-gradient-2" x1="123.74" y1="1952.68" x2="409.54" y2="1952.68" gradientTransform="translate(1458.85 383.38) rotate(45)" xlink:href="#linear-gradient"/><clipPath id="clip-path"><circle id="SVGID" class="cls-1" cx="1785.81" cy="1356.95" r="818.88" transform="translate(-436.46 1660.2) rotate(-45)"/></clipPath><linearGradient id="linear-gradient-4" x1="2824.27" y1="-834.9" x2="1802.58" y2="1099.2" gradientTransform="matrix(1, 0, 0, 1, 0, 0)" xlink:href="#linear-gradient"/><linearGradient id="linear-gradient-5" x1="3588.83" y1="-431.02" x2="2567.14" y2="1503.08" gradientTransform="matrix(1, 0, 0, 1, 0, 0)" xlink:href="#linear-gradient"/><linearGradient id="linear-gradient-6" x1="2742.33" y1="-878.19" x2="1720.63" y2="1055.91" gradientTransform="matrix(1, 0, 0, 1, 0, 0)" xlink:href="#linear-gradient"/><linearGradient id="linear-gradient-7" x1="3596.02" y1="-427.22" x2="2574.33" y2="1506.88" gradientTransform="matrix(1, 0, 0, 1, 0, 0)" xlink:href="#linear-gradient"/><linearGradient id="linear-gradient-8" x1="2841.7" y1="-513.06" x2="1820" y2="1421.03" gradientTransform="matrix(0.99, 0.1, -0.1, 0.99, 109.95, -126.87)" xlink:href="#linear-gradient"/><linearGradient id="linear-gradient-9" x1="2067.07" y1="-1234.89" x2="1045.38" y2="699.21" gradientTransform="matrix(1, 0, 0, 1, 0, 0)" xlink:href="#linear-gradient"/><linearGradient id="linear-gradient-10" x1="2198.88" y1="-1165.26" x2="1177.19" y2="768.83" gradientTransform="matrix(1, 0, 0, 1, 0, 0)" xlink:href="#linear-gradient"/><linearGradient id="linear-gradient-11" x1="1054.64" y1="1381.39" x2="2494.44" y2="1381.39" gradientUnits="userSpaceOnUse"><stop offset="0" stop-color="#dae3fe"/><stop offset="1" stop-color="#e9effd"/></linearGradient><linearGradient id="linear-gradient-13" x1="136.3" y1="1943.26" x2="387.56" y2="1943.26" gradientTransform="matrix(1, 0, 0, 1, 0, 0)" xlink:href="#linear-gradient"/><clipPath id="clip-path-2"><circle id="SVGID-2" data-name="SVGID" class="cls-2" cx="266.64" cy="1952.68" r="142.9" transform="translate(-1302.66 760.47) rotate(-45)"/></clipPath><linearGradient id="linear-gradient-15" x1="549.8" y1="1604.94" x2="160.5" y2="2048.34" gradientTransform="matrix(1, 0, 0, 1, 0, 0)" xlink:href="#linear-gradient"/><linearGradient id="linear-gradient-16" x1="642.17" y1="1686.85" x2="252.87" y2="2130.25" gradientTransform="matrix(1, 0, 0, 1, 0, 0)" xlink:href="#linear-gradient"/><linearGradient id="linear-gradient-17" x1="507.72" y1="1568.98" x2="118.42" y2="2012.38" gradientTransform="matrix(1, 0, 0, 1, 0, 0)" xlink:href="#linear-gradient"/><linearGradient id="linear-gradient-18" x1="672.34" y1="1712.36" x2="283.04" y2="2155.76" gradientTransform="matrix(1, 0, 0, 1, 0, 0)" xlink:href="#linear-gradient"/><linearGradient id="linear-gradient-19" x1="375.7" y1="2123.8" x2="-13.61" y2="2567.2" gradientTransform="matrix(0.99, 0.1, -0.1, 0.99, 109.95, -126.87)" xlink:href="#linear-gradient"/><linearGradient id="linear-gradient-20" x1="429.85" y1="1499.77" x2="40.55" y2="1943.17" gradientTransform="matrix(1, 0, 0, 1, 0, 0)" xlink:href="#linear-gradient"/><linearGradient id="linear-gradient-21" x1="476.94" y1="1540.2" x2="87.63" y2="1983.61" gradientTransform="matrix(1, 0, 0, 1, 0, 0)" xlink:href="#linear-gradient"/><linearGradient id="linear-gradient-22" x1="821.53" y1="1380.17" x2="879.6" y2="1538.56" gradientUnits="userSpaceOnUse"><stop offset="0" stop-color="#ffc444"/><stop offset="1" stop-color="#f36f56"/></linearGradient><linearGradient id="linear-gradient-23" x1="870.61" y1="1362.17" x2="928.69" y2="1520.56" xlink:href="#linear-gradient-22"/><linearGradient id="linear-gradient-24" x1="1016.04" y1="1743.75" x2="943.18" y2="1942.26" gradientUnits="userSpaceOnUse"><stop offset="0" stop-color="#444b8c"/><stop offset="1" stop-color="#26264f"/></linearGradient><linearGradient id="linear-gradient-25" x1="607.2" y1="1982.8" x2="565.61" y2="2240.85" xlink:href="#linear-gradient-22"/><linearGradient id="linear-gradient-26" x1="920.83" y1="1821.62" x2="891.35" y2="2004.54" xlink:href="#linear-gradient-22"/><linearGradient id="linear-gradient-27" x1="757.08" y1="1817.06" x2="717.4" y2="2063.23" xlink:href="#linear-gradient-24"/><linearGradient id="linear-gradient-28" x1="664.8" y1="1737.81" x2="601.95" y2="2127.75" gradientUnits="userSpaceOnUse"><stop offset="0" stop-color="#ff9085"/><stop offset="1" stop-color="#fb6fbb"/></linearGradient><linearGradient id="linear-gradient-29" x1="618.09" y1="1537.97" x2="651.61" y2="1646.46" xlink:href="#linear-gradient-22"/><linearGradient id="linear-gradient-30" x1="234.12" y1="1815.61" x2="284.01" y2="1638.75" gradientTransform="matrix(-0.96, -0.27, -0.27, 0.96, 1278.45, 276.13)" xlink:href="#linear-gradient-22"/><linearGradient id="linear-gradient-31" x1="1951.18" y1="1338.47" x2="1841.79" y2="1129.43" gradientTransform="translate(-1698.69 1010.26) rotate(-23.66)" xlink:href="#linear-gradient-22"/><linearGradient id="linear-gradient-32" x1="146.08" y1="1790.78" x2="195.98" y2="1613.91" gradientTransform="matrix(-0.96, -0.27, -0.27, 0.96, 1278.45, 276.13)" xlink:href="#linear-gradient-22"/><linearGradient id="linear-gradient-33" x1="532.21" y1="2105.24" x2="619.52" y2="2105.24" xlink:href="#linear-gradient-24"/><linearGradient id="linear-gradient-34" x1="908.74" y1="1853.51" x2="979.19" y2="1853.51" xlink:href="#linear-gradient-24"/><linearGradient id="linear-gradient-35" x1="764.55" y1="1726.3" x2="699.08" y2="1834" xlink:href="#linear-gradient-24"/><linearGradient id="linear-gradient-36" x1="838.58" y1="1810.59" x2="832.04" y2="1851.14" gradientUnits="userSpaceOnUse"><stop offset="0" stop-color="#09005d"/><stop offset="1" stop-color="#1a0f91"/></linearGradient><linearGradient id="linear-gradient-37" x1="779.02" y1="1735.09" x2="713.55" y2="1842.8" gradientUnits="userSpaceOnUse"><stop offset="0" stop-color="#4042e2"/><stop offset="1" stop-color="#4f52ff"/></linearGradient><linearGradient id="linear-gradient-38" x1="1084.03" y1="1631.17" x2="1025.96" y2="1728.32" xlink:href="#linear-gradient-37"/><linearGradient id="linear-gradient-39" x1="435.06" y1="1372.47" x2="435.06" y2="1507.63" xlink:href="#linear-gradient-22"/><linearGradient id="linear-gradient-40" x1="360.5" y1="1372.47" x2="360.5" y2="1507.63" xlink:href="#linear-gradient-22"/><linearGradient id="linear-gradient-41" x1="1395" y1="1782.28" x2="1778.64" y2="1496.25" gradientUnits="userSpaceOnUse"><stop offset="0" stop-color="#311944"/><stop offset="1" stop-color="#6b3976"/></linearGradient><linearGradient id="linear-gradient-42" x1="-1350.68" y1="4068.41" x2="-1397.14" y2="3862.51" gradientTransform="translate(3241 -129.19) rotate(-12.16)" gradientUnits="userSpaceOnUse"><stop offset="0" stop-color="#ffc444"/><stop offset="1" stop-color="#f36f56"/></linearGradient><linearGradient id="linear-gradient-43" x1="1525.88" y1="1563.57" x2="1479.42" y2="1357.66" gradientTransform="matrix(1, 0, 0, 1, 0, 0)" xlink:href="#linear-gradient-42"/><linearGradient id="linear-gradient-44" x1="-1365.77" y1="-142.86" x2="-1442.85" y2="-24.6" gradientTransform="matrix(-0.98, -0.21, -0.21, 0.98, -52.22, -129.19)" xlink:href="#linear-gradient-42"/><linearGradient id="linear-gradient-45" x1="2079.29" y1="1318.52" x2="2000.1" y2="1389.26" gradientTransform="matrix(1, 0, 0, 1, 0, 0)" xlink:href="#linear-gradient-42"/><linearGradient id="linear-gradient-46" x1="214.39" y1="3340.93" x2="354.83" y2="2884.77" gradientTransform="matrix(-1, 0, 0, 1, 2178.75, 0)" xlink:href="#linear-gradient-24"/><linearGradient id="linear-gradient-47" x1="85.77" y1="3301.33" x2="226.2" y2="2845.18" gradientTransform="matrix(-1, 0, 0, 1, 2178.75, 0)" xlink:href="#linear-gradient-24"/><linearGradient id="linear-gradient-48" x1="1769.85" y1="1371.45" x2="1713.89" y2="1685.05" gradientTransform="matrix(1, 0, 0, 1, 0, 0)" xlink:href="#linear-gradient-42"/><linearGradient id="linear-gradient-49" x1="336.93" y1="2111.08" x2="420.33" y2="2111.08" gradientTransform="matrix(-1, 0, 0, 1, 2178.75, 0)" xlink:href="#linear-gradient-42"/><linearGradient id="linear-gradient-50" x1="434.69" y1="2102.91" x2="532.66" y2="2102.91" gradientTransform="matrix(-1, 0, 0, 1, 2178.75, 0)" xlink:href="#linear-gradient-42"/><linearGradient id="linear-gradient-51" x1="487.24" y1="1549.9" x2="292.33" y2="1880.11" gradientTransform="matrix(-1, 0, 0, 1, 2178.75, 0)" gradientUnits="userSpaceOnUse"><stop offset="0" stop-color="#e38ddd"/><stop offset="1" stop-color="#9571f6"/></linearGradient><linearGradient id="linear-gradient-52" x1="1731.73" y1="1940.53" x2="1669.43" y2="1629.03" gradientTransform="matrix(1, 0, 0, 1, 0, 0)" xlink:href="#linear-gradient-51"/><linearGradient id="linear-gradient-53" x1="1724.01" y1="1740.11" x2="1784.2" y2="1544.77" gradientTransform="matrix(1, 0, 0, 1, 0, 0)" xlink:href="#linear-gradient-51"/><linearGradient id="linear-gradient-54" x1="-834.72" y1="2052.6" x2="-719.62" y2="1888.93" gradientTransform="matrix(-0.99, -0.17, -0.19, 1.03, 1719.27, 153.24)" xlink:href="#linear-gradient-42"/><linearGradient id="linear-gradient-55" x1="-429.59" y1="1789.89" x2="-314.5" y2="1626.22" gradientTransform="matrix(-0.98, -0.18, -0.18, 0.98, 1749.95, 35.53)" xlink:href="#linear-gradient-42"/><linearGradient id="linear-gradient-56" x1="-522.91" y1="1724.26" x2="-407.82" y2="1560.6" gradientTransform="matrix(-0.98, -0.18, -0.18, 0.98, 1749.95, 35.53)" xlink:href="#linear-gradient-42"/><linearGradient id="linear-gradient-57" x1="1332.45" y1="1698.39" x2="1716.1" y2="1412.36" xlink:href="#linear-gradient-41"/><linearGradient id="linear-gradient-58" x1="1994.75" y1="1963.32" x2="2433.56" y2="1636.16" gradientTransform="matrix(0.99, -0.14, 0.14, 0.99, -682.27, 274.8)" gradientUnits="userSpaceOnUse"><stop offset="0" stop-color="#e1473d"/><stop offset="1" stop-color="#e9605a"/></linearGradient><linearGradient id="linear-gradient-59" x1="711.06" y1="-3196.24" x2="744.36" y2="-3500.1" gradientTransform="translate(1900.47 -2009.73) rotate(152.86)" xlink:href="#linear-gradient-42"/><linearGradient id="linear-gradient-60" x1="733.6" y1="-3189.82" x2="768.74" y2="-3510.41" gradientTransform="translate(1900.47 -2009.73) rotate(152.86)" xlink:href="#linear-gradient-42"/><linearGradient id="linear-gradient-61" x1="3945.97" y1="-1543.39" x2="3981.1" y2="-1863.98" gradientTransform="matrix(0.89, 0.46, 0.46, -0.89, 457.33, -2009.73)" xlink:href="#linear-gradient-42"/><linearGradient id="linear-gradient-62" x1="3176.9" y1="-1913.1" x2="3212.03" y2="-2233.69" gradientTransform="matrix(0.89, 0.46, 0.46, -0.89, 1294.98, -2009.73)" xlink:href="#linear-gradient-42"/><linearGradient id="linear-gradient-63" x1="2226.66" y1="1508.74" x2="2193.4" y2="1657.62" gradientTransform="translate(946.1 4.04) rotate(-0.27)" xlink:href="#linear-gradient-24"/><linearGradient id="linear-gradient-64" x1="2256.2" y1="2016" x2="2274.61" y2="1566.43" gradientTransform="translate(890.89 -49.08) rotate(3.93)" xlink:href="#linear-gradient-42"/><linearGradient id="linear-gradient-65" x1="2123.33" y1="1485.66" x2="2090.07" y2="1634.54" gradientTransform="translate(946.1 4.04) rotate(-0.27)" xlink:href="#linear-gradient-24"/><linearGradient id="linear-gradient-66" x1="2148.09" y1="2023.42" x2="2166.5" y2="1573.85" gradientTransform="translate(890.89 -49.08) rotate(3.93)" xlink:href="#linear-gradient-42"/><linearGradient id="linear-gradient-67" x1="2116.27" y1="1675.73" x2="2313.52" y2="1675.73" gradientTransform="translate(890.89 -49.08) rotate(3.93)" xlink:href="#linear-gradient-24"/><linearGradient id="linear-gradient-68" x1="2114.2" y1="1548.44" x2="2168.87" y2="1622.99" gradientTransform="translate(890.89 -49.08) rotate(3.93)" xlink:href="#linear-gradient-36"/><linearGradient id="linear-gradient-69" x1="2062.78" y1="1397.92" x2="1997.41" y2="1803.5" gradientTransform="translate(946.31)" gradientUnits="userSpaceOnUse"><stop offset="0" stop-color="#fe7062"/><stop offset="1" stop-color="#ff928e"/></linearGradient><linearGradient id="linear-gradient-70" x1="2998.26" y1="1306.3" x2="2968.69" y2="1620.96" gradientTransform="matrix(1, 0, 0, 1, 0, 0)" xlink:href="#linear-gradient-42"/><linearGradient id="linear-gradient-71" x1="1480.57" y1="2500.02" x2="1382.58" y2="2312.78" gradientTransform="matrix(0.7, -0.71, 0.71, 0.7, 211.63, 583.47)" xlink:href="#linear-gradient-41"/><linearGradient id="linear-gradient-72" x1="5933.65" y1="7659.93" x2="5799.55" y2="7493.09" gradientTransform="translate(115.53 521.62) rotate(-39.55)" xlink:href="#linear-gradient-42"/><linearGradient id="linear-gradient-73" x1="1756.94" y1="2442.68" x2="1664.68" y2="2266.38" gradientTransform="translate(115.53 521.62) rotate(-39.55)" xlink:href="#linear-gradient-41"/><linearGradient id="linear-gradient-74" x1="5879.84" y1="7703.18" x2="5745.74" y2="7536.34" gradientTransform="translate(115.53 521.62) rotate(-39.55)" xlink:href="#linear-gradient-42"/><linearGradient id="linear-gradient-75" x1="868.59" y1="962.25" x2="887.55" y2="962.25" gradientTransform="translate(3819.72 147.47) rotate(90)" xlink:href="#linear-gradient-24"/><linearGradient id="linear-gradient-76" x1="859.12" y1="1152.4" x2="899.4" y2="1152.4" gradientTransform="translate(2755.46 -273.15) rotate(37.89)" xlink:href="#linear-gradient"/><linearGradient id="linear-gradient-77" x1="782.84" y1="1519.31" x2="764.88" y2="1595.34" gradientTransform="translate(3878.03 264.37) rotate(90)" xlink:href="#linear-gradient-37"/><linearGradient id="linear-gradient-78" x1="790.65" y1="1521.16" x2="772.7" y2="1597.18" gradientTransform="translate(3891.53 291.97) rotate(90)" xlink:href="#linear-gradient-37"/><linearGradient id="linear-gradient-79" x1="776.17" y1="717.05" x2="980.26" y2="717.05" gradientTransform="translate(2755.46 -273.15) rotate(37.89)" xlink:href="#linear-gradient-24"/><clipPath id="clip-path-3"><ellipse id="SVGID-3" data-name="SVGID" class="cls-3" cx="3008.14" cy="832.15" rx="119.47" ry="88.77" transform="translate(503.96 2695.07) rotate(-52.11)"/></clipPath><linearGradient id="linear-gradient-80" x1="2687.66" y1="954.4" x2="2702.45" y2="1088.5" gradientTransform="matrix(1, 0, 0, 1, 0, 0)" xlink:href="#linear-gradient-42"/><linearGradient id="linear-gradient-81" x1="1761.83" y1="545.33" x2="1819.71" y2="545.33" gradientTransform="translate(3777.74 -711.51) rotate(90)" xlink:href="#linear-gradient-22"/></defs><path class="cls-4" d="M3016.42,764.3C2823.64,662,3151.12,363.16,2869.16,175.35c-445.6-296.8-824.51,49.93-954.85,200.14-240.72,277.45-282.54,573-950.26,134.14S49,854.52,250.82,1069s100.39,218.44-25.92,591.31S592.42,2297.09,1021.32,2065s369.78-256.15,938.15-13.51S2939.4,2002.9,3298.13,1740C4012.93,1216,3209.19,866.62,3016.42,764.3Z"/><circle id="SVGID-4" data-name="SVGID" class="cls-1" cx="1785.81" cy="1356.95" r="818.88" transform="translate(-436.46 1660.2) rotate(-45)"/><g class="cls-5"><path class="cls-6" d="M1699.58,1725.26,1400,1609.82a78,78,0,0,1-49-60.67L1301.24,1232a78,78,0,0,1,28-72.77L1579,957.56a78,78,0,0,1,77-12.1l299.54,115.44a78,78,0,0,1,49,60.67l49.8,317.13a78,78,0,0,1-28,72.77l-249.75,201.69A78,78,0,0,1,1699.58,1725.26Z"/><path class="cls-7" d="M2755.1,1629.53l-344.48-132.76a36.28,36.28,0,0,1-22.79-28.22l-57.27-364.71a36.29,36.29,0,0,1,13-33.85l287.22-232a36.27,36.27,0,0,1,35.83-5.63l344.49,132.76a36.28,36.28,0,0,1,22.79,28.22l57.27,364.71a36.26,36.26,0,0,1-13,33.85l-287.21,232A36.26,36.26,0,0,1,2755.1,1629.53Z"/><path class="cls-8" d="M2073.93,818.18,1774.39,702.75a78,78,0,0,1-49-60.67L1675.59,325a78,78,0,0,1,28-72.77L1953.38,50.49a78,78,0,0,1,77-12.1L2330,153.83a78,78,0,0,1,49,60.67l49.8,317.13a78,78,0,0,1-28.05,72.77L2151,806.09A78,78,0,0,1,2073.93,818.18Z"/><path class="cls-9" d="M2300.69,2456l-299.54-115.44a78,78,0,0,1-49-60.67l-49.8-317.13a78,78,0,0,1,28-72.77l249.74-201.69a78,78,0,0,1,77.05-12.1l299.54,115.44a78,78,0,0,1,49,60.67l49.79,317.13a78,78,0,0,1-28,72.77l-249.74,201.69A78,78,0,0,1,2300.69,2456Z"/><path class="cls-10" d="M1262.74,2596.47,976.91,2450.33a78,78,0,0,1-42.38-65.46l-16.36-320.6a78,78,0,0,1,35.5-69.43l269.47-174.47a78,78,0,0,1,77.89-4l285.82,146.13a78,78,0,0,1,42.38,65.46l16.36,320.6a78,78,0,0,1-35.5,69.44l-269.47,174.46A78,78,0,0,1,1262.74,2596.47Z"/><path class="cls-11" d="M1105.67,1016.16,806.12,900.72a78,78,0,0,1-49-60.67l-49.8-317.13a78,78,0,0,1,28-72.77L985.12,248.46a78,78,0,0,1,77-12.1L1361.7,351.8a78,78,0,0,1,49,60.67l49.79,317.13a78,78,0,0,1-28,72.77l-249.74,201.69A78,78,0,0,1,1105.67,1016.16Z"/><path class="cls-12" d="M814.11,1887.23,514.57,1771.79a78,78,0,0,1-49-60.67L415.77,1394a78,78,0,0,1,28-72.77l249.75-201.69a78,78,0,0,1,77-12.09l299.54,115.43a78,78,0,0,1,49,60.67l49.8,317.13a78,78,0,0,1-28,72.77L891.15,1875.13A78,78,0,0,1,814.11,1887.23Z"/></g><ellipse class="cls-13" cx="1774.54" cy="1381.39" rx="719.9" ry="743.29"/><circle class="cls-2" cx="266.64" cy="1952.68" r="142.9" transform="translate(-1302.66 760.47) rotate(-45)"/><ellipse class="cls-14" cx="261.93" cy="1943.26" rx="125.63" ry="129.71"/><circle id="SVGID-5" data-name="SVGID" class="cls-2" cx="266.64" cy="1952.68" r="142.9" transform="translate(-1302.66 760.47) rotate(-45)"/><g class="cls-15"><path class="cls-16" d="M256.77,2019l-62.63-24.14a4,4,0,0,1-2.51-3.11l-10.41-66.3a4,4,0,0,1,1.44-3.73l52.21-42.17a4,4,0,0,1,3.95-.62L301.45,1903a4,4,0,0,1,2.51,3.11l10.42,66.31a4,4,0,0,1-1.44,3.73l-52.22,42.17A4,4,0,0,1,256.77,2019Z"/><path class="cls-17" d="M437.05,2000.73l-62.63-24.13a4,4,0,0,1-2.51-3.11l-10.41-66.31a4,4,0,0,1,1.43-3.73l52.22-42.17a4,4,0,0,1,4-.62l62.63,24.14a4,4,0,0,1,2.51,3.11l10.41,66.3a4,4,0,0,1-1.44,3.73L441,2000.11A4,4,0,0,1,437.05,2000.73Z"/><path class="cls-18" d="M322.1,1860.66l-62.63-24.14a4,4,0,0,1-2.51-3.11l-10.41-66.31a4,4,0,0,1,1.43-3.73l52.22-42.17a4,4,0,0,1,3.95-.62l62.63,24.14a4,4,0,0,1,2.51,3.11l10.41,66.31a4,4,0,0,1-1.44,3.73L326.05,1860A4,4,0,0,1,322.1,1860.66Z"/><path class="cls-19" d="M361.67,2146.46,299,2122.33a4,4,0,0,1-2.51-3.11l-10.41-66.31a4,4,0,0,1,1.44-3.73L339.77,2007a4,4,0,0,1,4-.62l62.63,24.13a4,4,0,0,1,2.51,3.11l10.41,66.31a4,4,0,0,1-1.43,3.73l-52.22,42.17A4,4,0,0,1,361.67,2146.46Z"/><path class="cls-20" d="M180.3,2171.51,120.54,2141a4,4,0,0,1-2.17-3.36l-3.42-67a4,4,0,0,1,1.82-3.56l56.34-36.47a4,4,0,0,1,4-.21l59.76,30.56a4,4,0,0,1,2.17,3.35l3.42,67a4,4,0,0,1-1.81,3.56l-56.35,36.48A4,4,0,0,1,180.3,2171.51Z"/><path class="cls-21" d="M153.13,1895.2,90.5,1871.07A4,4,0,0,1,88,1868l-10.41-66.31a4,4,0,0,1,1.43-3.73l52.22-42.17a4,4,0,0,1,4-.62l62.63,24.14a4,4,0,0,1,2.51,3.11l10.41,66.3a4,4,0,0,1-1.44,3.73l-52.21,42.17A4,4,0,0,1,153.13,1895.2Z"/><path class="cls-22" d="M102.25,2047.21l-62.63-24.13a4,4,0,0,1-2.51-3.11L26.7,1953.66a4,4,0,0,1,1.43-3.73l52.22-42.17a4,4,0,0,1,4-.62l62.63,24.14a4,4,0,0,1,2.51,3.11l10.41,66.3a4,4,0,0,1-1.44,3.73l-52.21,42.17A4,4,0,0,1,102.25,2047.21Z"/></g><path class="cls-23" d="M812.13,1543.82s142.6-13.44,151.73,3.52,29.36,87.43,29.36,87.43l-32,15.66s-21.53-59.21-30.66-59.29-103.09,28.62-103.09,28.62Z"/><path class="cls-24" d="M960.25,1647.71s-12.11,19.68,0,28.82,9.49,15.66,33,8.48,13-40.45,0-50.24S960.25,1647.71,960.25,1647.71Z"/><path class="cls-25" d="M953.91,1833.86s-28.67-33.68-1.88-36.41,103.69,25.34,74.79,53.9S953.91,1833.86,953.91,1833.86Z"/><path class="cls-26" d="M657.54,1983.84l-38,73.83-62.79,121.9s-23.6,3.92-24.5-37.19c-.47-20.9,12.95-69.17,26.3-111.57,12.84-40.91,25.6-76.34,25.6-76.34Z"/><path class="cls-27" d="M966.42,1813.55l-16-4.56a6.16,6.16,0,0,0-7,2.82c-5.25,9-18.37,31.33-34.41,53.33-21,28.81-47,57-64,54.1v7.83s33,56.77,78,27.4c16.91-11,29.26-33,38.26-56.21,9.23-23.8,14.74-48.86,17.66-64.55A17.64,17.64,0,0,0,966.42,1813.55Z"/><path class="cls-28" d="M611.54,1873.73l-35.67,104.39L651.26,1996s81.63-129.64,99.25-115.94,70.47,66.56,94,62.64S901.23,1886,901.23,1886l-56.77-78.3S631.6,1813.05,611.54,1873.73Z"/><path class="cls-29" d="M548.72,1625.77s49.12-33.29,137.2-60.75,141.46-25.51,141.46-25.51l17.08,86.26L776,1655l68.5,152.67-219.1,47-33.4-139-92,26.54-13.7-81.35Z"/><path class="cls-30" d="M634.65,1500.35l44.79,81.27s-33.23,45.68-81.67,39.69l-25.56-76.92Z"/><path class="cls-31" d="M484.5,1379.65s-90.75,160.07,17.4,199.54C604,1616.45,638.55,1512,638.55,1512s40.35-48.15,23.29-81.84S507.9,1358.91,484.5,1379.65Z"/><path class="cls-32" d="M535.27,1342.85c-29.28,12.83-34.9-3.23-55.71-13.34s-47.65,40.82-31.78,85.18c13,36.27,58.22,6,74.29-6.29a5.25,5.25,0,0,1,8,2.07c14.36,32.66,66.45,38.87,71.57,38.36,5.47-.55,30.8,34.52,33.82,51.17s34.59-23.87,34.59-23.87C733.15,1346.62,564.55,1330,535.27,1342.85Z"/><path class="cls-33" d="M626.48,1526.53l14.24-49.75s33-18.06,30.36,8.65S638.82,1528.86,626.48,1526.53Z"/><path class="cls-34" d="M619.52,2057.67l-5.4,10.45-5.36,10.45-52,101s-23.6,3.92-24.5-37.19c-.4-17.81,9.27-55.47,20.43-92.42,1.14-3.92,2.35-7.8,3.52-11.63.79-2.51,1.57-5,2.35-7.52C576.34,2036.06,599.25,2047,619.52,2057.67Z"/><path class="cls-35" d="M978.9,1833.7a421.7,421.7,0,0,1-10.22,42.6c-1.29,4.26-2.7,8.61-4.23,13q-1.53,4.53-3.29,9c-12-19.18-39.18-29.24-52.42-33.12,1.45-2,2.9-4,4.27-6,2.39-3.37,4.7-6.69,6.89-10,10.92-16.13,19.58-30.58,23.53-37.39a6.15,6.15,0,0,1,7-2.82l16,4.54A17.63,17.63,0,0,1,978.9,1833.7Z"/><path class="cls-36" d="M562.48,2168.42s-95.14-86.06-110.79-52.14,27.27,57.42,55.39,73.08S562.35,2210.11,562.48,2168.42Z"/><path class="cls-37" d="M802.8,1816.6s34.3,40.44,65.71,24.24l-24-33.17Z"/><path class="cls-38" d="M614.12,2068.12l-5.36,10.45c-26.7-12.25-45.26-22.31-56.1-28.61,1.14-3.92,2.35-7.8,3.52-11.63C566.36,2044.36,585.66,2055,614.12,2068.12Z"/><path class="cls-39" d="M968.68,1876.3c-1.29,4.26-2.7,8.61-4.23,13-7.08-10.84-32.53-23.44-51.44-30.06,2.39-3.37,4.7-6.69,6.89-10C930.82,1853.28,955.17,1863.26,968.68,1876.3Z"/><path class="cls-40" d="M487.74,1660.73s-76.83,46.71-85.64,27.34-27.4-70.26-27.4-70.26l-24.47,4s4.89,132,62.63,132,107-17.37,107-17.37Z"/><path class="cls-41" d="M344.85,1621.85s34.74,5.25,37.68-4,6.85-27.9-2-30.59-4.9-22.75-21.53-19.33S322.83,1591.65,344.85,1621.85Z"/><path class="cls-42" d="M2102.24,1366.51c-30-49.16-81.12-76-129-72.62a69.71,69.71,0,0,1-41.07-10.41c-23.2-14.21-52.6-15.57-76.57-.94l-.19.11c-10.94,6.72-24.39,8.11-36,2.56-34.18-16.4-109-6.9-141.13,12.73-53.51,32.64-60.14,99.91-23.41,160.1s138.4,80.79,191.91,48.14a101.43,101.43,0,0,0,20-16,16.81,16.81,0,0,1,26.67,2.86l.35.58c40.7,66.7,120.33,92.31,177.87,57.21S2142.93,1433.21,2102.24,1366.51Z"/><path class="cls-43" d="M1490.66,1419.37s69.54,187.37,175.3,164.38c0,0,10.9,63.76-6.9,71.28,0,0-158.64,4.6-174.41-213.28Z"/><path class="cls-44" d="M1494.12,1428s16-32.22,14.33-43.72-11.2,6.39-14.33,10.22-6.1-46.4-18-40-12.69,83.85,8.55,89A34.12,34.12,0,0,0,1494.12,1428Z"/><path class="cls-45" d="M1980.08,1419.37s-69.54,187.37-175.3,164.38c0,0-10.9,63.76,6.9,71.28,0,0,158.64,4.6,174.4-213.28Z"/><path class="cls-46" d="M1976.62,1428s-16-32.22-14.33-43.72,11.2,6.39,14.33,10.22,6.1-46.4,18-40,12.69,83.85-8.56,89A34.16,34.16,0,0,1,1976.62,1428Z"/><path class="cls-47" d="M1674,2235.57l8.42,9.74-5.78,21.13a14.91,14.91,0,0,1-11.72,10.74c-18.8,3.45-61.45,9.67-83.39.23,0,0-6.83-45.73,68.77-32.1Z"/><path class="cls-48" d="M1805.86,2259.86l4.49,11-1.82,39.63c-.26,5.57-4.75,10.25-10.8,11.18-8.27,1.28-20.29,2.57-31.61,1.69-8.85-.68-14.4-9-10.94-16.43l13.34-28.58a17.44,17.44,0,0,1,10.11-9.1Z"/><path class="cls-49" d="M1767.48,1487.32l8.61,85.26s-46.35,15.72-76.87-2l8.25-85.61Z"/><path class="cls-50" d="M1841.82,1954.11s-22,245.26-36.53,320.31c0,0-10.87,7.92-27.13-2.3l-19.74-327.3Z"/><path class="cls-51" d="M1744.06,1968.84l-60.27,274.66s-16.39,17-37.7,0l10.38-288.74Z"/><path class="cls-52" d="M1835.38,1580.68s-79.88-29.59-179.59,1c0,0-11.18,75.5-5.43,111.43l171.83,6.22Z"/><path class="cls-53" d="M1652.71,1716.74s-54.91,176.29-63.06,293.75a10.94,10.94,0,0,0,10.17,11.68c11.42.82,31.58,3.64,59,12.75,44.4,14.79,81.16,9.91,114.35.38,26-7.48,91.2-14,118-16.49a10.94,10.94,0,0,0,9.77-12.83c-7.8-43.45-37.42-197.7-82.37-302.55Z"/><path class="cls-54" d="M1649.8,1689.08l2.91,27.66s52.84.21,169.58-3.72l.61-20S1693.57,1695.54,1649.8,1689.08Z"/><path class="cls-55" d="M1650.18,1404.66c-13.26,51.26-9.39,110.18,50.92,123.4,41.73,9.14,85.58-33.38,98.85-84.64s-9.45-90.31-50.8-101S1663.45,1353.39,1650.18,1404.66Z"/><path class="cls-56" d="M1654.72,1420.47s-2-31-17.44-21.43,6,46.71,15.53,48.88S1654.72,1420.47,1654.72,1420.47Z"/><path class="cls-57" d="M1787,1456.22s4.63-23.64,21.38-12.71-15.21,49.56-34.91,41Z"/><path class="cls-58" d="M1811.78,1437.43s-48,51.92-72.88-55.83c0,0-24.87,32.19-36.22,3.72,0,0-49.5,17-55-3.86s66.92-77.28,125.14-36.76S1811.78,1437.43,1811.78,1437.43Z"/><path class="cls-59" d="M1553.69,1831.14q-11.37,0-22.06-.28c-103.79-2.69-106.72-23.83-107.68-30.77-5.91-42.72,172.7-84.62,227.52-95.13l1.24,11.78-2.91,9.59c-64.16,12.29-117.13,23.42-156.47,38-57,21.14-56,33.37-55.89,33.88.8,5.75,21.59,17.13,94.55,19,62.86,1.65,145.39-4.11,232.43-16.16s168-28.95,228.07-47.59c69.71-21.64,86.62-38.24,85.82-44-1.77-12.8-79.13-25.75-255.67-8l1.23-17.3c43.9-4.43,261.38-23.93,267.93,23.38,1,6.94,3.89,28.08-95.27,58.87-60.73,18.85-142.5,35.93-230.25,48.08C1688.36,1825.37,1613.9,1831.14,1553.69,1831.14Z"/><path class="cls-60" d="M2833.78,1454.86s-71.46-33.35-110.73-216.15l19.55-10s75.85,149.27,115,183.29S2833.78,1454.86,2833.78,1454.86Z"/><path class="cls-61" d="M2738.17,1250.7l-15.12-12s-20.62-20-27.86-37,14-32.35,22-36,12.41,4,10.82,21.11c0,0,18.26,21.23,15.63,52.19Z"/><path class="cls-62" d="M3229.25,1250.7l15.12-12s20.63-20,27.87-37-14-32.35-22-36-12.42,4-10.82,21.11c0,0-18.26,21.23-15.64,52.19Z"/><path class="cls-63" d="M3153.21,1454.83s80.8-125.88,95.4-230.42l-19.54-10s-80.81,169.21-120,203.23S3153.21,1454.83,3153.21,1454.83Z"/><path class="cls-64" d="M2982.57,2176.33s-5.68,21.08-5.29,36.64a5,5,0,0,0,4.3,4.82c14.23,2,62.8,7.78,89.48,0a4.92,4.92,0,0,0,3.55-4.86c-.24-8.38-6.14-28-54.88-33.06Z"/><path class="cls-65" d="M3066.42,1853.94c6,3.92-39.25,321.66-50.21,324,0,0-12.54,11.66-31.89-1.63,11.17-103.56,18-208.6,12-316Z"/><path class="cls-66" d="M2874.2,2176.33s-5.68,21.08-5.29,36.64a5,5,0,0,0,4.3,4.82c14.23,2,62.8,7.78,89.48,0a4.92,4.92,0,0,0,3.55-4.86c-.24-8.38-6.14-28-54.88-33.06Z"/><path class="cls-67" d="M2958.05,1853.94c6,3.92-39.25,321.66-50.21,324,0,0-12.54,11.66-31.89-1.63,11.17-103.56,18-208.6,12-316Z"/><path class="cls-68" d="M2907.72,1661.08s147.57,6.75,182.71,19.09c0,0-4.33,120-18.76,193.7a7.37,7.37,0,0,1-5.56,5.79c-9.46,2.19-33.3,5.33-71.08-5.25a7.37,7.37,0,0,1-5.35-7.61l3.9-47.79a5.83,5.83,0,0,0-5.41-6.2l-4-.6A5.82,5.82,0,0,0,2978,1818l-7.46,48.47a7.37,7.37,0,0,1-5,6.92c-11.09,3.76-40,10.77-78-.83a7.36,7.36,0,0,1-5.22-7C2881.91,1806.73,2892.47,1736.37,2907.72,1661.08Z"/><path class="cls-69" d="M2963,1671.43s-18.65,51.86-63.66,55.46l10-59.15S2944.19,1667.48,2963,1671.43Z"/><path class="cls-70" d="M2838.54,1388.16s66.7,42.88,147.68,38.11c67.55-4,108.58-21.2,131.4-40.63a24.14,24.14,0,0,1,28.77-2.28,205.25,205.25,0,0,1,36.79,30.63,11.08,11.08,0,0,1,1.53,13.42c-19.68,31.78-40.65,54-62.89,66.92a43.48,43.48,0,0,0-11.27,30.38l4.1,156.11a8.8,8.8,0,0,1-7.14,8.91c-29.61,5.62-142,25.18-211.8,12.85V1534.2a34.35,34.35,0,0,0-17.87-30c-14.67-8.14-36.51-24.09-58.36-54.13Z"/><path class="cls-71" d="M2954.22,1352.15l-7.32,80.38s42.43,24.79,78.93,3.12l-6.48-70.21Z"/><path class="cls-72" d="M3086.48,1254.73s6.81-36.24-21.12-44c0,0,2.55-30.65-26.89-41.67,0,0-66.15-71.49-120.69,14.68,0,0-72.05,3.88-64.1,92.37,0,0-17.32,19.88,3.4,46.61,0,0,37.64,113.14,122.46,40.2Z"/><path class="cls-73" d="M3031.72,1203.57s128.18,95.85,55.79,165.06c-68.32,65.31-132.33-5.86-132.33-5.86s-49-24.28-47.13-57.07S3005.84,1195.22,3031.72,1203.57Z"/><path class="cls-74" d="M2939.84,1346.43s72.36-54.94,48.19-100.63c0,0,14.64-3.63,13-21.82,0,0,52.88,21.73,54.45-7.22,0,0-29.27-59.86-71-22.2s-79,74.16-87,93.22S2891.15,1345.53,2939.84,1346.43Z"/><path class="cls-75" d="M2969.87,1370.16l-28.7-34.67s-32.6-2.87-21.18,17.49S2960.85,1376.33,2969.87,1370.16Z"/><rect class="cls-76" x="2737.76" y="1016.09" width="239.33" height="18.96" transform="translate(293.13 2650.71) rotate(-52.11)"/><path class="cls-77" d="M2808,1123.76a16.6,16.6,0,0,0-2.9-23.29l-5.6-4.36a16.6,16.6,0,0,0-23.29,2.91l-101.13,130a16.59,16.59,0,0,0,2.9,23.28l5.6,4.36a16.6,16.6,0,0,0,23.29-2.9Z"/><rect class="cls-78" x="2759.34" y="1123.5" width="15.4" height="40.28" transform="translate(165.09 2624.95) rotate(-52.11)"/><rect class="cls-79" x="2738.46" y="1151.08" width="14.22" height="40.28" transform="translate(135.06 2618.69) rotate(-52.11)"/><path class="cls-80" d="M2926.61,936.91c-44.4-34.56-44-109.67,1-167.43s117.66-76.65,162.06-42.09,44,109.67-1,167.43S2971,971.47,2926.61,936.91Zm154.9-199c-38.63-30.07-103-12.23-143.43,39.76s-41.94,118.74-3.31,148.8,103,12.23,143.43-39.76S3120.14,767.93,3081.51,737.87Z"/><g class="cls-81"><rect class="cls-82" x="2821.2" y="783.9" width="266.58" height="2.37" transform="translate(520.41 2634.58) rotate(-52.11)"/><rect class="cls-82" x="2843.17" y="801.59" width="266.58" height="1.18" transform="translate(515.34 2658.45) rotate(-52.11)"/><rect class="cls-82" x="2865.62" y="819.06" width="266.58" height="1.18" transform="matrix(0.61, -0.79, 0.79, 0.61, 509.91, 2682.49)"/><rect class="cls-82" x="2888.06" y="836.52" width="266.58" height="1.18" transform="translate(505.05 2707.28) rotate(-52.11)"/><rect class="cls-82" x="2910.03" y="853.03" width="266.58" height="2.37" transform="translate(500.35 2731.65) rotate(-52.12)"/><rect class="cls-82" x="2932.47" y="870.49" width="266.58" height="2.37" transform="translate(495.03 2755.83) rotate(-52.11)"/><rect class="cls-82" x="3048.72" y="669.01" width="1.18" height="202.6" transform="translate(568.65 2703.69) rotate(-52.11)"/><rect class="cls-82" x="3064.73" y="648.44" width="1.18" height="202.6" transform="translate(591.06 2708.39) rotate(-52.11)"/><rect class="cls-82" x="3031.26" y="691.45" width="1.18" height="202.6" transform="translate(544.2 2698.57) rotate(-52.11)"/><rect class="cls-82" x="3013.8" y="713.89" width="1.18" height="202.6" transform="translate(519.75 2693.45) rotate(-52.11)"/><rect class="cls-82" x="2997.04" y="736.59" width="2.37" height="202.6" transform="translate(495.6 2689.45) rotate(-52.11)"/><rect class="cls-82" x="2979.58" y="759.03" width="2.37" height="202.6" transform="translate(471.15 2684.33) rotate(-52.11)"/><rect class="cls-82" x="2963.07" y="781" width="1.18" height="202.6" transform="translate(447.22 2679.31) rotate(-52.11)"/><rect class="cls-82" x="2943.92" y="804.84" width="2.37" height="202.6" transform="translate(421.24 2673.87) rotate(-52.11)"/></g><path class="cls-83" d="M2960.33,742.73a.71.71,0,0,1-.13-.12.84.84,0,0,1,.11-1.17c41.92-35,91.38-27.4,91.87-27.32a.83.83,0,0,1,.69,1,.84.84,0,0,1-1,.69c-.48-.08-49.21-7.59-90.54,27A.83.83,0,0,1,2960.33,742.73Z"/><path class="cls-84" d="M2689,1185.83s30.4-38.74,44-26.26-4.64,47.72-16.77,48.19S2681.86,1202.44,2689,1185.83Z"/><rect class="cls-82" x="3189.43" y="1035.16" width="81.59" height="4.84" transform="translate(1063.21 3648.13) rotate(-68.11)"/><path class="cls-82" d="M3253.63,1006.33c-7,18-17.29,30.76-22.9,28.57s-4.44-18.55,2.61-36.52,17.29-30.76,22.9-28.57S3260.67,988.36,3253.63,1006.33Z"/><rect class="cls-82" x="3178.07" y="1039.44" width="81.59" height="4.84" transform="translate(1344.14 3858.25) rotate(-74.29)"/><path class="cls-82" d="M3238.79,1008.28c-5.07,18.62-13.89,32.44-19.7,30.86s-6.41-18-1.34-36.59,13.89-32.44,19.69-30.86S3243.85,989.65,3238.79,1008.28Z"/><rect class="cls-82" x="3199.58" y="1038.25" width="81.59" height="4.84" transform="translate(800.25 3413.19) rotate(-62)"/><path class="cls-82" d="M3267,1012.09c-8.92,17.12-20.47,28.75-25.81,26s-2.44-18.91,6.47-36,20.47-28.74,25.81-26S3275.89,995,3267,1012.09Z"/><rect class="cls-82" x="3226.21" y="1054.6" width="81.59" height="4.84" transform="translate(570.57 3183.02) rotate(-56.18)"/><path class="cls-82" d="M3279.63,1020.07c-10.88,15.94-15.67,31.62-10.69,35s17.82-6.78,28.7-22.72,15.67-31.62,10.7-35S3290.51,1004.13,3279.63,1020.07Z"/><rect class="cls-82" x="3230.2" y="1064.25" width="81.59" height="4.84" transform="translate(351.59 2887.18) rotate(-50.01)"/><path class="cls-82" d="M3287.52,1031.29c-12.53,14.68-19,29.75-14.4,33.66s18.45-4.82,31-19.51,19-29.75,14.4-33.66S3300.05,1016.61,3287.52,1031.29Z"/><rect class="cls-82" x="3217.94" y="1047.96" width="81.59" height="4.84" transform="translate(813.7 3447.13) rotate(-62.29)"/><path class="cls-82" d="M3267.35,1012.29c-9.12,17-12.21,33.11-6.91,36s17-8.65,26.13-25.66,12.21-33.11,6.9-36S3276.47,995.28,3267.35,1012.29Z"/><rect class="cls-82" x="3211.64" y="1039.15" width="81.59" height="4.84" transform="translate(818.12 3436.84) rotate(-62.29)"/><path class="cls-82" d="M3261.05,1003.48c-9.12,17-12.21,33.11-6.91,36s17-8.64,26.12-25.66,12.22-33.11,6.91-35.95S3270.17,986.47,3261.05,1003.48Z"/><path class="cls-82" d="M3250.26,1109.82a29.06,29.06,0,1,1-12.11-39.28A29.06,29.06,0,0,1,3250.26,1109.82Z"/><rect class="cls-85" x="3222.22" y="1050.41" width="20.43" height="57.89" rx="0.76" transform="translate(767.92 3433.03) rotate(-62.15)"/></svg>