<svg xmlns="http://www.w3.org/2000/svg" xmlns:xlink="http://www.w3.org/1999/xlink" viewBox="0 0 3710 3710"><defs><style>.cls-1{isolation:isolate;}.cls-2{fill:#f4f7fa;}.cls-3{fill:#97a6b7;}.cls-4{fill:#d8dee8;}.cls-10,.cls-5,.cls-6{fill:#fff;}.cls-5{opacity:0.74;}.cls-7{fill:url(#linear-gradient);}.cls-8{fill:url(#linear-gradient-2);}.cls-9{fill:url(#linear-gradient-3);}.cls-10,.cls-20,.cls-26,.cls-37,.cls-43{opacity:0.3;}.cls-10{mix-blend-mode:soft-light;}.cls-11{fill:url(#linear-gradient-4);}.cls-12{fill:url(#linear-gradient-5);}.cls-13{fill:url(#linear-gradient-6);}.cls-14{fill:url(#linear-gradient-7);}.cls-15{fill:url(#linear-gradient-8);}.cls-16{fill:#26264f;}.cls-17{fill:url(#linear-gradient-9);}.cls-18{fill:url(#linear-gradient-10);}.cls-19{fill:url(#linear-gradient-11);}.cls-20,.cls-26,.cls-37,.cls-43{mix-blend-mode:multiply;}.cls-20{fill:url(#linear-gradient-12);}.cls-21{fill:url(#linear-gradient-13);}.cls-22{fill:url(#linear-gradient-14);}.cls-23{fill:url(#linear-gradient-15);}.cls-24{fill:url(#linear-gradient-16);}.cls-25{fill:url(#linear-gradient-17);}.cls-26{fill:url(#linear-gradient-18);}.cls-27{fill:url(#linear-gradient-19);}.cls-28{fill:url(#linear-gradient-20);}.cls-29{fill:url(#linear-gradient-21);}.cls-30{fill:url(#linear-gradient-22);}.cls-31{fill:url(#linear-gradient-23);}.cls-32{fill:url(#linear-gradient-24);}.cls-33{fill:url(#linear-gradient-25);}.cls-34{fill:url(#linear-gradient-26);}.cls-35{fill:url(#linear-gradient-27);}.cls-36{fill:url(#linear-gradient-28);}.cls-37{fill:url(#linear-gradient-29);}.cls-38{fill:url(#linear-gradient-30);}.cls-39{fill:url(#linear-gradient-31);}.cls-40{fill:url(#linear-gradient-32);}.cls-41{fill:url(#linear-gradient-33);}.cls-42{fill:url(#linear-gradient-34);}.cls-43{fill:url(#linear-gradient-35);}</style><linearGradient id="linear-gradient" x1="4571.02" y1="2646.78" x2="1192.77" y2="1243.94" gradientTransform="translate(-35.39 392) rotate(-7.9)" gradientUnits="userSpaceOnUse"><stop offset="0.1" stop-color="#311944"/><stop offset="0.27" stop-color="#371b47"/><stop offset="0.48" stop-color="#462150"/><stop offset="0.51" stop-color="#4a2252"/><stop offset="0.68" stop-color="#5c295c"/><stop offset="1" stop-color="#893976"/></linearGradient><linearGradient id="linear-gradient-2" x1="4408.03" y1="2576.26" x2="1029.69" y2="1173.38" gradientTransform="translate(-35.39 392) rotate(-7.9)" gradientUnits="userSpaceOnUse"><stop offset="0.1" stop-color="#311944"/><stop offset="0.27" stop-color="#371b47"/><stop offset="0.48" stop-color="#462150"/><stop offset="0.72" stop-color="#612a5f"/><stop offset="0.97" stop-color="#853774"/><stop offset="1" stop-color="#893976"/></linearGradient><linearGradient id="linear-gradient-3" x1="-3.32" y1="466.44" x2="2447.33" y2="2000.96" gradientTransform="translate(-35.39 392) rotate(-7.9)" gradientUnits="userSpaceOnUse"><stop offset="0" stop-color="#aa80f9"/><stop offset="1" stop-color="#6165d7"/></linearGradient><linearGradient id="linear-gradient-4" x1="4403.61" y1="2552.35" x2="869.41" y2="1084.75" gradientTransform="matrix(0.98, -0.18, 0.18, 0.98, 1146.31, 394.73)" xlink:href="#linear-gradient-2"/><linearGradient id="linear-gradient-5" x1="4405.32" y1="2548.05" x2="871.2" y2="1080.49" gradientTransform="matrix(0.98, -0.18, 0.18, 0.98, 1146.31, 394.73)" xlink:href="#linear-gradient-2"/><linearGradient id="linear-gradient-6" x1="858.41" y1="977.38" x2="3422.22" y2="2582.76" gradientTransform="matrix(0.98, -0.18, 0.18, 0.98, 1146.31, 394.73)" xlink:href="#linear-gradient-3"/><linearGradient id="linear-gradient-7" x1="3118.52" y1="1828.23" x2="3156.25" y2="2096.41" gradientTransform="matrix(1, 0.07, -0.07, 1, 140.78, -248.92)" gradientUnits="userSpaceOnUse"><stop offset="0" stop-color="#ffc444"/><stop offset="1" stop-color="#f36f56"/></linearGradient><linearGradient id="linear-gradient-8" x1="2170.77" y1="1961.07" x2="2209.3" y2="2234.89" xlink:href="#linear-gradient-7"/><linearGradient id="linear-gradient-9" x1="2945.6" y1="3182.83" x2="3003.82" y2="3356.11" xlink:href="#linear-gradient-7"/><linearGradient id="linear-gradient-10" x1="2871.03" y1="3208.51" x2="2928.82" y2="3380.52" xlink:href="#linear-gradient-7"/><linearGradient id="linear-gradient-11" x1="3106.27" y1="3093.98" x2="2832.9" y2="2785.75" gradientTransform="matrix(1, 0.07, -0.07, 1, 140.78, -248.92)" gradientUnits="userSpaceOnUse"><stop offset="0" stop-color="#444b8c"/><stop offset="1" stop-color="#3e4177"/></linearGradient><linearGradient id="linear-gradient-12" x1="3106.27" y1="3093.98" x2="2832.9" y2="2785.75" xlink:href="#linear-gradient-11"/><linearGradient id="linear-gradient-13" x1="2762.5" y1="2918.28" x2="2358.88" y2="2843.06" xlink:href="#linear-gradient-11"/><linearGradient id="linear-gradient-14" x1="2569.27" y1="1669.37" x2="2820.63" y2="2592.23" gradientTransform="matrix(1, 0.07, -0.07, 1, 140.78, -248.92)" gradientUnits="userSpaceOnUse"><stop offset="0" stop-color="#ff9085"/><stop offset="1" stop-color="#fb6fbb"/></linearGradient><linearGradient id="linear-gradient-15" x1="2684.17" y1="2025.4" x2="2729.58" y2="2159.33" xlink:href="#linear-gradient-7"/><linearGradient id="linear-gradient-16" x1="2741.72" y1="3690.35" x2="2787.13" y2="3824.28" gradientTransform="matrix(1, 0.07, -0.07, 1, 654.17, -214.08)" xlink:href="#linear-gradient-7"/><linearGradient id="linear-gradient-17" x1="3720.95" y1="4501.15" x2="3837.91" y2="4689.66" gradientTransform="matrix(1, 0.07, -0.07, 1, 654.17, -214.08)" xlink:href="#linear-gradient-7"/><linearGradient id="linear-gradient-18" x1="2392.12" y1="1717.62" x2="2643.47" y2="2640.48" xlink:href="#linear-gradient-14"/><linearGradient id="linear-gradient-19" x1="3955.76" y1="1867.64" x2="4234.08" y2="1644.11" gradientTransform="matrix(-0.93, 0.37, 0.37, 0.93, 4588.78, -734.38)" xlink:href="#linear-gradient-7"/><linearGradient id="linear-gradient-20" x1="3453.94" y1="4030.16" x2="1706.15" y2="2602.66" gradientTransform="matrix(1, 0, 0, 1, 0, 0)" xlink:href="#linear-gradient-2"/><linearGradient id="linear-gradient-21" x1="3480.99" y1="3996.99" x2="1733.23" y2="2569.53" gradientTransform="matrix(1, 0, 0, 1, 0, 0)" xlink:href="#linear-gradient-2"/><linearGradient id="linear-gradient-22" x1="83.36" y1="1568.42" x2="3074.13" y2="3441.14" gradientTransform="matrix(1, 0, 0, 1, 0, 0)" xlink:href="#linear-gradient-3"/><linearGradient id="linear-gradient-23" x1="4249.28" y1="3568.07" x2="4309.77" y2="3236.52" gradientTransform="matrix(-1, 0, 0, 1, 4992.56, 0)" gradientUnits="userSpaceOnUse"><stop offset="0" stop-color="#311944"/><stop offset="1" stop-color="#893976"/></linearGradient><linearGradient id="linear-gradient-24" x1="4309.1" y1="3310.74" x2="4323.75" y2="3452.93" gradientTransform="matrix(-1, 0, 0, 1, 4992.56, 0)" xlink:href="#linear-gradient-7"/><linearGradient id="linear-gradient-25" x1="4517.05" y1="3494.12" x2="4556.5" y2="3277.88" xlink:href="#linear-gradient-23"/><linearGradient id="linear-gradient-26" x1="4564.58" y1="3288.87" x2="4579.19" y2="3430.59" gradientTransform="matrix(-1, 0, 0, 1, 4992.56, 0)" xlink:href="#linear-gradient-7"/><linearGradient id="linear-gradient-27" x1="3862.39" y1="2228.13" x2="3805.41" y2="2083.42" gradientTransform="matrix(-1, 0, 0, 1, 4992.56, 0)" xlink:href="#linear-gradient-7"/><linearGradient id="linear-gradient-28" x1="3984.36" y1="3158.5" x2="4589.23" y2="2426.52" gradientTransform="matrix(-1, 0, 0, 1, 4992.56, 0)" gradientUnits="userSpaceOnUse"><stop offset="0" stop-color="#444b8c"/><stop offset="1" stop-color="#26264f"/></linearGradient><linearGradient id="linear-gradient-29" x1="3984.36" y1="3158.5" x2="4589.23" y2="2426.52" xlink:href="#linear-gradient-28"/><linearGradient id="linear-gradient-30" x1="4289.98" y1="2967.62" x2="4583.65" y2="2570.94" xlink:href="#linear-gradient-28"/><linearGradient id="linear-gradient-31" x1="546.37" y1="798.51" x2="498.77" y2="677.62" gradientTransform="matrix(-0.94, 0.33, 0.33, 0.94, 1437.36, 1223.39)" xlink:href="#linear-gradient-23"/><linearGradient id="linear-gradient-32" x1="2048.16" y1="682.97" x2="2115.52" y2="551.99" gradientTransform="matrix(-0.67, 0.74, 0.74, 0.67, 2153.96, 117.78)" xlink:href="#linear-gradient-7"/><linearGradient id="linear-gradient-33" x1="3190.76" y1="1993.54" x2="3451.56" y2="2190.78" gradientTransform="matrix(-1, 0, 0, 1, 4992.56, 0)" gradientUnits="userSpaceOnUse"><stop offset="0" stop-color="#ffc444"/><stop offset="0.81" stop-color="#f57f53"/><stop offset="1" stop-color="#f36f56"/></linearGradient><linearGradient id="linear-gradient-34" x1="3787.83" y1="2259.5" x2="3933.94" y2="2878.98" gradientTransform="matrix(-1, 0, 0, 1, 4992.56, 0)" xlink:href="#linear-gradient-7"/><linearGradient id="linear-gradient-35" x1="3752.96" y1="2267.72" x2="3899.06" y2="2887.2" gradientTransform="matrix(-1, 0, 0, 1, 4992.56, 0)" xlink:href="#linear-gradient-7"/></defs><g class="cls-1"><g id="Layer_1" data-name="Layer 1"><path class="cls-2" d="M3174.61,2117.88c-165.25,649-862.05,1159.15-1576.85,1050-545.09-83.22-1009.19-512.62-1127-1050a1238.26,1238.26,0,0,1-16.91-437.57c92.77-665.68,706.94-1173,1415.91-1152.36,720.73,21,1281,580,1337,1196.9C3218.91,1858.78,3206.91,1991,3174.61,2117.88Z"/><path class="cls-3" d="M2795.55,583.83,987.22,473.55c-41.65-2.14-79.15,45.77-79.15,86V3014.27c0,55.79,54.07,67,95.72,62.54l1791.76-192.9c32.73-3.53,59.16-35.1,59.16-70.54V651C2854.71,615.61,2828.28,585.52,2795.55,583.83Z"/><path class="cls-4" d="M2825.3,564.34l-1811.91-94c-41.65-2.16-75.57,28.95-75.57,69.5V3013.76c0,40.54,33.92,69.73,75.57,65.21L2825.3,2882.38c32.73-3.55,59.15-35.37,59.15-71.09V632.07C2884.45,596.36,2858,566,2825.3,564.34Z"/><path class="cls-5" d="M1013.39,3045.43c-22.47,2.39-40.79-13.44-40.79-35.29V541.51c0-21.84,18.32-38.71,40.79-37.59L2825.3,594.15c17.69.88,32,17.31,32,36.64V2814.11c0,19.32-14.36,36.57-32,38.46Z"/><polygon class="cls-6" points="2708.52 2794.02 1158.78 2951.42 1158.78 673.9 2708.52 735.43 2708.52 2794.02"/><path class="cls-4" d="M1501.22,1767.09v131.23l-129.67,4.62V1770.46Zm14.49-14.87-158.65,4.12V1918l158.65-5.64Z"/><polygon class="cls-4" points="2569.03 1874.83 1574.13 1910.23 1574.13 1750.71 2569.03 1724.91 2569.03 1874.83"/><path class="cls-4" d="M1501.22,2000.56v131.21l-129.67,6.44V2005.75Zm14.49-15.08-158.65,6.34v161.62l158.65-7.88Z"/><polygon class="cls-4" points="2569.03 2093.25 1574.13 2142.66 1574.13 1983.14 2569.03 1943.34 2569.03 2093.25"/><path class="cls-4" d="M1501.22,2234v131.19l-129.67,8.26V2241Zm14.49-15.3-158.65,8.58v161.62l158.65-10.11Z"/><polygon class="cls-4" points="2569.03 2311.68 1574.13 2375.09 1574.13 2215.57 2569.03 2161.77 2569.03 2311.68"/><path class="cls-4" d="M1501.22,2467.5v131.16l-129.67,10.09V2476.33Zm14.49-15.52-158.65,10.82v161.62l158.65-12.35Z"/><polygon class="cls-4" points="2569.03 2530.11 1574.13 2607.53 1574.13 2448 2569.03 2380.2 2569.03 2530.11"/><polygon class="cls-4" points="1987.95 1595.79 1357.06 1606.49 1357.06 852.2 1987.95 869.94 1987.95 1595.79"/><polygon class="cls-4" points="2569.03 978.42 2087.03 967.74 2087.03 872.72 2569.03 886.27 2569.03 978.42"/><polygon class="cls-4" points="2569.03 1183.2 2087.03 1178.87 2087.03 1131.37 2569.03 1137.13 2569.03 1183.2"/><polygon class="cls-4" points="2569.03 1259.14 2087.03 1257.17 2087.03 1209.66 2569.03 1213.06 2569.03 1259.14"/><polygon class="cls-4" points="2569.03 1335.08 2087.03 1335.46 2087.03 1287.96 2569.03 1289 2569.03 1335.08"/><path class="cls-7" d="M1682.88,1649.87c30.31,10.44,64-7.7,75.36-40.51s-4.1-67.89-34.41-78.34c-1.57-.54-3.15-1-4.73-1.35a363.81,363.81,0,0,0,4.78-52.81c1.62-.23,3.24-.48,4.88-.86,31.9-7.36,53.41-40.6,48-74.25s-35.56-54.94-67.46-47.58c-1.67.39-3.29.88-4.9,1.41a332.88,332.88,0,0,0-20.62-46.94c1.37-1.08,2.72-2.18,4-3.39,24.94-23.2,28.47-62.64,7.88-88.1s-57.51-27.27-82.46-4.08c-1.28,1.19-2.46,2.45-3.63,3.72a294.84,294.84,0,0,0-40.48-28.48c.7-1.62,1.38-3.25,2-5,11.31-32.82,27-69.13-3.47-79.1-70.48-23.06-95,8.46-106.29,41.28-.58,1.7-1.05,3.4-1.5,5.11a295,295,0,0,0-49.43-2.5c-.14-1.72-.3-3.44-.57-5.16-5.36-33.64,2.11-53.29-30.4-49.42-70.89,8.44-90.49,42.44-85.13,76.09.28,1.75.67,3.46,1.08,5.15a332,332,0,0,0-45.15,24.27c-.94-1.4-1.91-2.79-3-4.12-20.59-25.45-57.51-27.28-82.46-4.08s-28.48,62.64-7.88,88.09c1,1.31,2.18,2.5,3.31,3.69a361.91,361.91,0,0,0-28.76,44.54c-1.49-.66-3-1.31-4.57-1.85-30.31-10.45-64,7.69-75.35,40.51s4.09,67.89,34.4,78.33c1.57.54,3.16,1,4.74,1.35a362.41,362.41,0,0,0-4.78,52.81c-1.62.23-3.25.48-4.88.86-31.9,7.37-53.42,40.61-48.06,74.25s35.57,55,67.47,47.58c1.67-.38,3.29-.88,4.9-1.4a332.84,332.84,0,0,0,20.61,46.94c-1.36,1.07-2.72,2.18-4,3.39-25,23.2-28.48,62.64-7.88,88.09s77.79,30.66,102.74,7.47c1.28-1.19-17.82-5.83-16.66-7.1a294,294,0,0,0,40.49,28.47c-.71,1.62-1.39,3.26-2,5-11.31,32.82,4.09,67.89,34.4,78.33s64.05-7.69,75.35-40.51c.59-1.7,1.06-3.41,1.5-5.12a295.16,295.16,0,0,0,49.44,2.51c.13,1.72.29,3.43.57,5.16,5.36,33.64,35.56,54.94,67.47,47.58s53.41-40.61,48-74.25c-.28-1.76-.67-3.46-1.08-5.15a330.86,330.86,0,0,0,45.15-24.28c1,1.41,1.92,2.8,3,4.13,20.59,25.45,57.51,27.28,82.46,4.08s28.47-62.64,7.88-88.1c-1.06-1.3-2.18-2.5-3.32-3.68a362.1,362.1,0,0,0,28.77-44.55C1679.81,1648.68,1681.31,1649.33,1682.88,1649.87Zm-352.31,53.48c-110-37.92-166-165.24-124.91-284.4s163.55-185,273.59-147.09,166,165.25,124.91,284.4S1440.61,1741.27,1330.57,1703.35Z"/><path class="cls-8" d="M1728.76,1476c31.9-7.36,53.41-40.6,48-74.25s-35.56-54.94-67.47-47.58c-1.66.39-3.28.88-4.89,1.41a332.38,332.38,0,0,0-20.62-46.94c1.37-1.08,2.72-2.18,4-3.39,24.94-23.2,52.64-74.73,29.54-97.94-43.83-44-79.17-17.43-104.12,5.76-1.28,1.19-2.46,2.45-3.63,3.72a294.84,294.84,0,0,0-40.48-28.48c.7-1.62,1.38-3.25,2-5a65,65,0,0,0-3.42-51.23q-30.26,76-59.23,152.55c90.36,48.71,132.91,163.5,95.67,271.58-31.56,91.59-111.24,151.62-196.38,157.31-2.41,10.27-4.74,20.59-7.43,30.81-7.29,27.73-16.14,55.13-25,82.5q12,.58,24,.19c.13,1.72.29,3.43.57,5.16,5.36,33.64,29.82,59.46,87.93,48.23,32.15-6.22,33-41.26,27.59-74.9-.28-1.76-.67-3.46-1.08-5.15a332.55,332.55,0,0,0,45.15-24.28c1,1.41,1.92,2.79,3,4.12,20.59,25.46,80.29,29.2,105.24,6s5.69-64.55-14.9-90c-1.06-1.3-2.18-2.5-3.32-3.68a362.1,362.1,0,0,0,28.77-44.55c1.49.67,3,1.32,4.56,1.86,30.31,10.44,64-7.7,75.36-40.52s-4.1-67.88-34.41-78.33c-1.57-.54-3.15-1-4.73-1.35a363.81,363.81,0,0,0,4.78-52.81C1725.5,1476.63,1727.12,1476.38,1728.76,1476Z"/><path class="cls-9" d="M1759.7,1475.22c31.9-7.35,53.4-40.59,48-74.22s-35.54-55-67.46-47.58a44.92,44.92,0,0,0-4.89,1.41,333.87,333.87,0,0,0-20.61-47c1.36-1.06,2.7-2.16,4-3.37,24.94-23.22,28.47-62.66,7.89-88.11s-57.52-27.27-82.46-4.09c-1.3,1.2-2.48,2.46-3.66,3.72a293,293,0,0,0-40.45-28.47c.69-1.63,1.37-3.26,1.94-5,11.32-32.84-4.08-67.9-34.39-78.33s-64,7.69-75.35,40.5c-.58,1.68-1.07,3.4-1.49,5.1a298.52,298.52,0,0,0-49.43-2.5c-.16-1.69-.33-3.43-.57-5.15-5.37-33.63-35.57-54.93-67.47-47.58s-53.43,40.6-48.07,74.23c.29,1.79.67,3.49,1.09,5.15a334.08,334.08,0,0,0-45.17,24.31,50.13,50.13,0,0,0-3-4.12,54,54,0,0,0-51-19.65,59.25,59.25,0,0,0-31.41,15.55c-24.94,23.22-28.47,62.62-7.89,88.11,1.06,1.28,2.18,2.48,3.33,3.67a359.62,359.62,0,0,0-28.78,44.56,44.53,44.53,0,0,0-4.57-1.85c-30.31-10.46-64,7.68-75.36,40.49s4.09,67.9,34.4,78.32a43.38,43.38,0,0,0,4.76,1.35,359.91,359.91,0,0,0-4.78,52.82c-1.65.23-3.26.49-4.89.87-31.89,7.35-53.43,40.59-48.06,74.26s35.57,54.94,67.47,47.58c1.66-.41,3.28-.89,4.89-1.41a328.79,328.79,0,0,0,20.63,46.91c-1.38,1.11-2.73,2.21-4,3.42-24.94,23.17-28.46,62.62-7.88,88.07s57.52,27.31,82.46,4.09c1.26-1.2,2.48-2.43,3.61-3.72a293.44,293.44,0,0,0,40.5,28.5c-.69,1.6-1.38,3.23-2,5-11.28,32.8,4.12,67.86,34.43,78.32s64-7.69,75.35-40.53c.57-1.69,1-3.4,1.48-5.11a292.11,292.11,0,0,0,49.44,2.5c.13,1.74.29,3.44.56,5.15,5.38,33.68,35.58,55,67.48,47.62s53.43-40.63,48.06-74.27c-.28-1.75-.66-3.45-1.08-5.15a334,334,0,0,0,45.17-24.27,47.78,47.78,0,0,0,3,4.13c20.58,25.45,57.52,27.27,82.46,4,19.53-18.14,25.94-46.28,17.92-69.82a59.16,59.16,0,0,0-10-18.25,48.8,48.8,0,0,0-3.32-3.67,371.38,371.38,0,0,0,28.78-44.56c1.48.67,3,1.31,4.53,1.86,30.31,10.42,64.08-7.69,75.36-40.53s-4.09-67.86-34.4-78.32c-1.57-.55-3.13-1-4.72-1.36a365.2,365.2,0,0,0,4.77-52.82A44.77,44.77,0,0,0,1759.7,1475.22Zm-124.62,80.29c-27.84,80.82-93.17,137.11-166.62,153.12a197.27,197.27,0,0,1-107-6c-110-37.94-166-165.24-124.93-284.4,18.35-53.28,53-95.87,95.49-123.32,52.56-34,117.27-44.77,178.12-23.78C1620.24,1309,1676.14,1436.35,1635.08,1555.51Z"/><path class="cls-10" d="M1675.93,1783.55c-24.94,23.22-61.88,21.4-82.46-4a47.78,47.78,0,0,1-3-4.13,334,334,0,0,1-45.17,24.27c.42,1.7.8,3.4,1.08,5.15,5.37,33.64-16.17,66.88-48.06,74.27s-62.1-13.94-67.48-47.62c-.27-1.71-.43-3.41-.56-5.15a292.11,292.11,0,0,1-49.44-2.5c-.45,1.71-.91,3.42-1.48,5.11-11.32,32.84-45.05,50.95-75.35,40.53s-45.71-45.52-34.43-78.32c.6-1.73,1.29-3.36,2-5a293.44,293.44,0,0,1-40.5-28.5c-1.13,1.29-2.35,2.52-3.61,3.72-24.94,23.22-61.88,21.4-82.46-4.09s-17.06-64.9,7.88-88.07c1.3-1.21,2.65-2.31,4-3.42a328.79,328.79,0,0,1-20.63-46.91c-1.61.52-3.23,1-4.89,1.41-31.9,7.36-62.1-13.94-67.47-47.58s16.17-66.91,48.06-74.26c1.63-.38,3.24-.64,4.89-.87a359.91,359.91,0,0,1,4.78-52.82,43.38,43.38,0,0,1-4.76-1.35c-30.31-10.42-45.72-45.51-34.4-78.32s45-50.95,75.36-40.49a44.53,44.53,0,0,1,4.57,1.85,359.62,359.62,0,0,1,28.78-44.56c-1.15-1.19-2.27-2.39-3.33-3.67-20.58-25.49-17.05-64.89,7.89-88.11a59.25,59.25,0,0,1,31.41-15.55c43.33,29.94,85.33,70,104.89,120.32-42.53,27.45-77.14,70-95.49,123.32-41.06,119.16,14.88,246.46,124.93,284.4a197.27,197.27,0,0,0,107,6c54.07,30.94,127.66,38.28,225.39,5.1C1701.87,1737.27,1695.46,1765.41,1675.93,1783.55Z"/><path class="cls-11" d="M3108.79,1664.35c54.25,16.06,112.31-18.53,129.7-77.26s-12.49-119.36-66.73-135.42c-2.81-.83-5.63-1.45-8.46-2a638.5,638.5,0,0,0,4.33-93.48c2.85-.53,5.69-1.1,8.54-1.89,55.67-15.46,91-75.73,79-134.63s-67-94.1-122.64-78.64c-2.91.81-5.73,1.81-8.52,2.85a587,587,0,0,0-40-81.14c2.32-2,4.62-4.06,6.83-6.29,42.17-42.84,45.34-112.64,7.06-155.91s-103.51-43.63-145.69-.8c-2.16,2.2-4.15,4.5-6.1,6.83a521.06,521.06,0,0,0-73.58-47.06c1.11-2.91,2.18-5.85,3.09-8.89,17.38-58.73,42.23-124-12.26-139.17-126-35.18-166.78,22.29-184.17,81-.9,3-1.6,6.09-2.25,9.13a521.18,521.18,0,0,0-87.34-.58c-.37-3-.78-6-1.4-9-12.06-58.89-.41-94.11-57.42-84.76-124.33,20.39-156.23,81.85-144.17,140.74.63,3.08,1.44,6,2.3,9a587.37,587.37,0,0,0-77.71,46.3c-1.78-2.39-3.6-4.77-5.6-7-38.28-43.28-103.5-43.63-145.68-.8s-45.34,112.64-7.06,155.91c2,2.22,4,4.25,6.13,6.24a638.81,638.81,0,0,0-47.26,80.77c-2.67-1.07-5.38-2.09-8.19-2.92-54.24-16.06-112.31,18.53-129.7,77.27s12.49,119.36,66.73,135.42c2.81.83,5.64,1.44,8.46,2a639.76,639.76,0,0,0-4.33,93.47c-2.84.53-5.69,1.1-8.54,1.89-55.67,15.47-91,75.74-79,134.63s67,94.1,122.63,78.64c2.91-.8,5.73-1.8,8.53-2.85a586,586,0,0,0,40,81.15c-2.33,2-4.63,4-6.83,6.29-42.18,42.83-45.34,112.63-7.06,155.91s139.52,48,181.7,5.19c2.16-2.2-31.87-8.9-29.91-11.23a519,519,0,0,0,73.58,47.06c-1.11,2.91-2.19,5.85-3.09,8.89-17.39,58.73,12.49,119.36,66.73,135.42s112.3-18.53,129.69-77.26c.9-3,1.6-6.1,2.25-9.14a520.13,520.13,0,0,0,87.34.58c.37,3,.79,6,1.41,9,12.06,58.89,67,94.11,122.63,78.65s91-75.74,79-134.63c-.63-3.07-1.45-6-2.3-9a586.93,586.93,0,0,0,77.71-46.3c1.77,2.4,3.6,4.77,5.6,7,38.27,43.27,103.5,43.63,145.68.8s45.34-112.64,7.06-155.91c-2-2.22-4-4.25-6.13-6.24a638.76,638.76,0,0,0,47.25-80.77C3103.28,1662.5,3106,1663.52,3108.79,1664.35ZM2491.84,1786c-196.93-58.3-305.4-278.43-242.27-491.68s274-338.84,470.9-280.53,305.41,278.44,242.27,491.68S2688.78,1844.29,2491.84,1786Z"/><path class="cls-12" d="M3176.17,1354.29c55.67-15.46,91-75.74,79-134.63s-67-94.1-122.64-78.64c-2.91.8-5.73,1.81-8.52,2.85a586.41,586.41,0,0,0-40-81.14c2.32-2,4.62-4.06,6.83-6.3,42.17-42.83,87-135.82,44.48-174.94-80.69-74.24-140.93-24.59-183.11,18.24-2.16,2.2-4.15,4.5-6.1,6.83a520.59,520.59,0,0,0-73.59-47.06c1.12-2.91,2.19-5.85,3.1-8.89,9.46-32,4.84-64.43-10-90Q2818.16,897,2773,1034.1c163.06,78.85,247,277.93,189.72,471.35-48.52,163.91-184.33,275.92-334,292.55-3.45,18.3-6.75,36.67-10.7,54.9-10.7,49.45-24.17,98.44-37.69,147.37q21.27.09,42.37-1.53c.37,3,.79,6,1.41,9,12.06,58.9,57.19,102.51,158.76,78.2,56.19-13.45,54.89-75.28,42.83-134.18-.63-3.07-1.45-6-2.3-9a588.66,588.66,0,0,0,77.71-46.3c1.77,2.4,3.6,4.77,5.6,7,38.27,43.28,143.81,45.24,186,2.4s5-114.24-33.25-157.51c-2-2.22-4-4.25-6.13-6.24a638.76,638.76,0,0,0,47.25-80.77c2.68,1.07,5.38,2.09,8.19,2.92,54.24,16.06,112.31-18.53,129.7-77.26s-12.49-119.37-66.73-135.42c-2.81-.84-5.63-1.45-8.46-2a638.56,638.56,0,0,0,4.33-93.48C3170.48,1355.65,3173.32,1355.08,3176.17,1354.29Z"/><path class="cls-13" d="M3226.23,1447.92c-2.82-.84-5.62-1.45-8.45-2a640.83,640.83,0,0,0,4.34-93.44c2.84-.54,5.68-1.12,8.51-1.93,55.69-15.43,91-75.72,79-134.6s-67-94.13-122.62-78.67c-2.91.84-5.74,1.83-8.55,2.87a587,587,0,0,0-39.94-81.16c2.31-2,4.59-4,6.8-6.27,42.19-42.83,45.35-112.66,7-155.9s-103.47-43.64-145.66-.81c-2.17,2.2-4.17,4.52-6.1,6.85a518.69,518.69,0,0,0-73.61-47.1c1.14-2.91,2.21-5.82,3.1-8.86,17.39-58.74-12.48-119.36-66.72-135.42S2751,730,2733.63,788.69c-.89,3.07-1.6,6.12-2.23,9.14a522.38,522.38,0,0,0-87.35-.57c-.39-3-.77-6-1.41-9-12-58.93-67-94.13-122.63-78.67s-91,75.72-79,134.64c.63,3.08,1.47,6,2.3,9-1.32.65-2.63,1.31-4,2a579.8,579.8,0,0,0-73.72,44.26c-1.81-2.41-3.62-4.78-5.63-7-38.26-43.28-103.51-43.64-145.65-.81s-45.35,112.65-7.09,155.93c2,2.2,4,4.22,6.13,6.24a637.27,637.27,0,0,0-47.23,80.74c-2.69-1-5.39-2.07-8.2-2.91-54.25-16.06-112.32,18.53-129.71,77.27s12.48,119.36,66.72,135.42c2.82.84,5.66,1.45,8.46,2a638.53,638.53,0,0,0-4.31,93.48c-2.84.54-5.69,1.12-8.54,1.89-55.66,15.46-91,75.76-79,134.64s67,94.09,122.63,78.62c2.93-.79,5.73-1.79,8.54-2.82a586.72,586.72,0,0,0,40,81.12c-2.31,2-4.63,4.08-6.84,6.31-42.15,42.83-45.35,112.62-7.05,155.9s103.51,43.64,145.69.81c2.14-2.2,4.14-4.52,6.11-6.85a515.89,515.89,0,0,0,73.58,47.06c-1.11,2.91-2.18,5.86-3.11,8.89-17.39,58.75,12.48,119.37,66.72,135.42s112.32-18.52,129.71-77.27c.89-3,1.6-6.09,2.27-9.1a522,522,0,0,0,87.32.57c.38,3,.8,6,1.4,9,12.06,58.89,67,94.13,122.63,78.66,51.84-14.39,86-67.63,80.78-122.43a113.8,113.8,0,0,0-1.81-12.21c-.64-3.07-1.44-6-2.31-9a588.05,588.05,0,0,0,77.72-46.29c1.78,2.37,3.59,4.74,5.59,7,38.3,43.28,103.51,43.64,145.69.81s45.35-112.65,7.05-155.93c-1.94-2.2-4-4.22-6.13-6.24a642.33,642.33,0,0,0,47.27-80.74c2.66,1,5.39,2.07,8.2,2.91,54.21,16.05,112.29-18.53,129.68-77.27S3280.47,1464,3226.23,1447.92Zm-209,53.76c-55.82,188.49-227,308.5-402,293.57a345.52,345.52,0,0,1-68.93-13c-196.94-58.33-305.42-278.44-242.28-491.71,36.41-123,121.93-216.78,225.59-263,76.09-34,161.95-42.24,245.32-17.54C2971.87,1068.34,3080.34,1288.44,3017.21,1501.68Z"/><path class="cls-10" d="M2801.23,2082.69c-55.65,15.47-110.57-19.77-122.63-78.66-.6-3-1-6-1.4-9a522,522,0,0,1-87.32-.57c-.67,3-1.38,6.06-2.27,9.1-17.39,58.75-75.46,93.33-129.71,77.27s-84.11-76.67-66.72-135.42c.93-3,2-6,3.11-8.89a515.89,515.89,0,0,1-73.58-47.06c-2,2.33-4,4.65-6.11,6.85-42.18,42.83-107.42,42.47-145.69-.81s-35.1-113.07,7.05-155.9c2.21-2.23,4.53-4.31,6.84-6.31a586.72,586.72,0,0,1-40-81.12c-2.81,1-5.61,2-8.54,2.82-55.66,15.47-110.58-19.74-122.63-78.62s23.31-119.18,79-134.64c2.85-.77,5.7-1.35,8.54-1.89a638.53,638.53,0,0,1,4.31-93.48c-2.8-.54-5.64-1.15-8.46-2-54.24-16.06-84.11-76.68-66.72-135.42s75.46-93.33,129.71-77.27c2.81.84,5.51,1.86,8.2,2.91a637.27,637.27,0,0,1,47.23-80.74c-2.09-2-4.15-4-6.13-6.24-38.26-43.28-35.1-113.1,7.09-155.93s107.39-42.47,145.65.81c2,2.24,3.82,4.61,5.63,7a579.8,579.8,0,0,1,73.72-44.26c40.47,51.1,73.87,109,90.24,172.33-103.66,46.21-189.18,140-225.59,263-63.14,213.27,45.34,433.38,242.28,491.71a345.52,345.52,0,0,0,68.93,13c63,84.27,151.73,145.36,266.76,165C2887.26,2015.06,2853.07,2068.3,2801.23,2082.69Z"/><path class="cls-14" d="M3105.57,1809.6l3.57-52.55s-6.79-11.73-8.87-39.78,4.37-16.54,7.13-4.74a19,19,0,0,0,4.9,8.59c5.74,6.11,13.57-.77,15.32-9l13.66-28.26s14.92,19.64-3.18,70.26c-5.67,15.85-3.74,55.14-3.74,55.14Z"/><path class="cls-15" d="M2182.43,1789l-9.77-52.07s14.06-18.76,9.32-39.22-1.57-13.07-7.37-.5-14.05-9.94-20.3-30.37-12.22,9.92-11.6,28.2.58,29.14,10.52,43.12,4.57,61,4.57,61Z"/><path class="cls-16" d="M2838.13,3248.56c1.19-11.25,28.2-7.13,45.89-4.22s25,10.59,27.37,17.46-.88,23.19-16.85,15.17C2881.42,3270.39,2837.08,3258.5,2838.13,3248.56Z"/><path class="cls-17" d="M2873.83,3207.11l9.69,44.53s12.09,9.57,16.54,5.52l-1.3-50.66Z"/><polygon class="cls-18" points="2786.11 3175.19 2826.81 3196.33 2818.33 3217.07 2777.07 3203.3 2786.11 3175.19"/><path class="cls-16" d="M2778.14,3257.38s27.45,9.13,40.93-6.55c8.67-10.07,16.51-27.66,21-38.93a12.48,12.48,0,0,0-6.21-15.9c-8.63-4.14-20.42-8.77-25.76-6.23-8.93,4.26-3,36.95-7.38,45.07S2777.75,3247.1,2778.14,3257.38Z"/><path class="cls-19" d="M2762.93,2516.89a2338.72,2338.72,0,0,0,105.14,706.38,46.12,46.12,0,0,0,39.81,2.7c10.41-51.76,16.93-95.61,21.12-128.21,11.05-86.11,16.41-130.24,8.13-182.48-7.77-49-16.91-45.86-24.82-100-7-48.14-4.77-84.66-1.17-138.1a1211.29,1211.29,0,0,1,18.61-144.48Z"/><path class="cls-20" d="M2876,3187.94c-8.68-36.51,14.32-51.36,14.85-96.91.65-55.65-33.38-59.63-39.94-122.7-5.28-50.68,16.13-53.58,14.69-114.85-1.54-65.12-26.14-80-18.17-118.47,4.44-21.4,19-50,65.37-79.09a1214,1214,0,0,1,17-123.23l-166.82-15.8a2338.72,2338.72,0,0,0,105.14,706.38,46.38,46.38,0,0,0,18.28,5.77,45.38,45.38,0,0,0,11.88-.46C2888.38,3217.65,2879.86,3204.24,2876,3187.94Z"/><path class="cls-21" d="M2628.23,2489.81a1000.38,1000.38,0,0,1-21.74,104.79c-26.06,98.8-50.36,129.36-60.63,194.42-12,75.86,4.78,137.35,11.15,160.74,43.53,159.67,187.19,242.36,225.31,262.81q8.13-21.15,16.25-42.29a396.17,396.17,0,0,1-34.1-65.34c-20.32-49.77-20-78.25-32.85-126.78-23.22-87.54-46.1-76.92-48.45-120.84-3.71-69.62,53.9-93.72,113.12-222.32a715.1,715.1,0,0,0,33.51-87.37Z"/><path class="cls-22" d="M3097.89,1788l43-4c16.11,26.27,62,108.94,44.77,214.06-4.09,24.91-20.09,107.41-94.92,168.83-53.57,44-110.57,55.07-136.58,58.46-8.41,123.23-11.35,201.09-10.27,247.88.13,5.65,1.31,53-9.18,113.25-3.2,18.36-4.85,27.65-7.73,32.58-39.91,68.46-237.36-1.34-290.13-28.53-13.72-7.06-27.5-16.54-32.63-32-6.57-19.86,2.18-36.86,6.29-52,10.1-37.11-10.34-67-50.23-143.05-16.87-32.15-41.26-80.36-69.35-142.69-38,8.34-127,21.84-210.13-25C2158.71,2127.07,2098,1955.43,2147,1777.22l39.19-8.38a381.72,381.72,0,0,0,49.5,133.87c18.36,30.27,33.65,55.48,62.1,70.93,44.67,24.25,87.07,5.58,147.92-5.13,95.89-16.88,174.16-2.84,269.23,14.22,103.87,18.63,131.09,42.07,208.59,32.82,34.47-4.12,77.66-9.83,114.84-41.29C3111.49,1912.37,3099.73,1803,3097.89,1788Z"/><path class="cls-23" d="M2697.55,1899.13s-8,24.69.09,36.55,34.67,57,44.13,59.77c5.4,1.57,19,4.58,29.66,6.88,5.62,1.21,6.3,9.11.88,11-11,3.93-30.3,7.34-62.77,4.78-46.95-3.7-83.52-24.14-99.36-34.52a2.5,2.5,0,0,1,1.76-4.56l21,3a29,29,0,0,0,33.15-30l-.51-11.84Z"/><path class="cls-24" d="M2674.73,1948.38c-2.8-1.79-26.22-6.26-28.61-19.18-3.25-17.54,13.66-37.47,15.82-40.72,9-13.58,11.21-15.36,15.13-17.5l5.42-2.7.63-.18c3.4-.87,14.67-.19,16.9.5,7.13,2.21,12.19,32.54,6.19,74.22.15,1.62.3,3.25.43,4.9C2707,1952,2674.41,1949.86,2674.73,1948.38Z"/><path class="cls-16" d="M2658.14,1864c-1.37,5,11.5,16.17,17,21a21.67,21.67,0,0,1,4.23,5.55,6.87,6.87,0,0,1,.6,1.6c2.1,8.44-11.77,16.88-9.59,20.77,1.57,2.82,10.73.07,11.57,2.46s-6.95,6-6.06,8.74c.67,2,5.35.65,7.93,3.9,1.29,1.62.76,2.76,1.86,7.45a41.66,41.66,0,0,0,2.33,7.23c3.8,8,16.24,12,19,9.13.76-.79.24-1.56,1.19-4.34a23.12,23.12,0,0,1,3-5.48c3-4.13,9.65-6.67,16.47-10.7,12.62-7.46,16.5-14.44,17.69-16.81l.36-.74a11.69,11.69,0,0,0,.53-1.21c3.11-8.14-6.46-23.3-6.46-23.3-7.7-12-17.89-20.35-26.11-25.8a122.54,122.54,0,0,0-37.09-4.24C2669.31,1859.44,2659.23,1860,2658.14,1864Z"/><path class="cls-16" d="M2650.34,1906.75s9.19,12.68,23.38-.84l6.39,2.37s-18.33,34-21.74,33.78-13.22-3.18-13.22-3.18a8.43,8.43,0,0,1-4.33-9.86C2642.88,1921.92,2647.69,1911.68,2650.34,1906.75Z"/><path class="cls-25" d="M2676.61,1910.3c3.57-4.08,8.79.53,8.31,6.19s-6.49,11-11.7,9.44S2671.8,1915.8,2676.61,1910.3Z"/><path class="cls-26" d="M2874.87,2594.82c-69.81,19.4-146.89-21.12-163.48-70.4-12.27-36.43,21.37-68.1,1.68-106.08-19-36.58-58.58-23.46-82.76-60.79-26.36-40.68,10.08-72.66-12.12-126.32-16.69-40.38-60.64-78.67-106.16-81.68-54.12-3.59-77.71,44.85-123.52,31.61-23.93-6.92-22.37-21.55-54.68-47.85-56.07-45.64-96.74-30.87-143.26-63.51-13.66-9.59-28.67-23.89-42-46.15,24,75.56,70.16,137.2,132.29,172.19,83.11,46.8,172.17,33.3,210.13,25,28.09,62.33,52.48,110.54,69.35,142.69,39.89,76,60.33,105.94,50.23,143.05-4.11,15.12-12.86,32.12-6.29,52,5.13,15.46,18.91,24.94,32.63,32,52.77,27.19,250.22,97,290.13,28.53,2.88-4.93,4.53-14.22,7.73-32.58,2-11.43,3.56-22.4,4.79-32.71C2924.28,2570.79,2903.28,2586.93,2874.87,2594.82Z"/><path class="cls-27" d="M1505.63,2229.37s-219.21,161.66-375,63.77l-21.48,201.94s308.6,86.39,398.24-228.92Z"/><path class="cls-28" d="M2038,2605.59c39.82-3.55,71.41-40.13,70.58-81.69-.59-29.54-17.4-53.66-41.32-63.86a8.52,8.52,0,0,0-1-.39,66.78,66.78,0,0,0-31.24-4.59c-2.1.2-4.12.51-6.17.87a402.12,402.12,0,0,0-17-60.18q2.79-1.61,5.46-3.45c34.05-23.84,44.92-70.93,24.32-105.18a65.82,65.82,0,0,0-31.12-27.08,68.51,68.51,0,0,0-51.68-.36,77.7,77.7,0,0,0-16.21,8.7c-1.74,1.23-3.36,2.53-5,3.88a362.3,362.3,0,0,0-44.17-41.25c1.1-1.82,2.21-3.67,3.2-5.65,18.31-36,42-75.25,13.52-93.68a7.32,7.32,0,0,0-.91-.55c-1.14-.67-2.33-1.34-3.52-1.94-81.33-39.74-116.25-5.73-135.43,32-.35.71-.67,1.43-1,2.14-.59,1.26-1.14,2.53-1.66,3.79a362.16,362.16,0,0,0-59.35-11.31c.12-2.09.24-4.19.2-6.32-.67-34.05,7.47-55.91-11.51-62.91a42.06,42.06,0,0,0-12.77-3c-.63,0-1.27-.08-1.9-.08h-3.64c-86.08,0-115.14,36.86-114.31,78.26,0,2.17.24,4.58.43,6.72-10.63,3-21.15,6.6-31.51,10.52,0,0-.08,0-.12,0-9.13,3.44-18.11,7.27-27,11.38-.91-1.85-1.86-3.63-2.92-5.45a65.75,65.75,0,0,0-31.12-27,67.62,67.62,0,0,0-42.47-3.24,74.27,74.27,0,0,0-25.43,11.58c-34,23.85-44.92,70.94-24.31,105.15,1.06,1.74,2.21,3.4,3.4,5a436.28,436.28,0,0,0-37.81,43.18c-1.5,1.93-3,3.87-4.43,5.85-1.69-1.07-3.4-2.1-5.21-3.05a42.93,42.93,0,0,0-4.16-1.89c-34.12-14.52-75.32,1.93-93.75,38.23-19.18,37.77-6.45,82.77,28.47,100.48,1.78.91,3.64,1.66,5.5,2.41a442.28,442.28,0,0,0-14.67,63c-2,0-4,0-6,.24-39.82,3.56-71.42,40.09-70.59,81.69.4,19.69,8,37,20.13,49.31,13.48,13.72,32.5,22.36,53.46,20.51,1.74-.16,3.52.21,5.26.21h.08c.28,0,.55-1.09.83-1.13,0,.16.08-.2.08,0s0-.17,0-.13a409.28,409.28,0,0,0,16.84,59.39s0,.06,0,.1c-1.82,1.07-3.64,2.14-5.41,3.37a81.62,81.62,0,0,0-34.17,56.84,74.3,74.3,0,0,0,9.85,47.49c16,26.49,60.42,43.68,95.49,35.78h.08c8.11,0,15.7-2.81,22.3-6.41.71.71,1.39,1.7,2.1,2.45a2.26,2.26,0,0,0,.27.32c5.26,5.1,10.68,10.12,16.3,14.94a9.53,9.53,0,0,0,.83.75q5.28,4.58,10.79,8.9s0,.08-.08.12c-1.07,1.82-2.17,3.72-3.12,5.62a82.53,82.53,0,0,0-7.71,23,78.46,78.46,0,0,0,1.26,33.45,72.24,72.24,0,0,0,9.77,21.79,64.43,64.43,0,0,0,9.21,11,68.16,68.16,0,0,0,15.9,11.83c13.17,6.72,27.64,6.68,41.56,6.68h.08c22.89-4,44.32-19.54,56.22-43,1-1.94,1.86-4.79,2.69-6.77,10.05,2.81,20.13,6.25,30.29,6.25h0c1.82,0,3.64,0,5.46,4h.08c.16,0,.35-.83.55-.83s.4-.38.56-.34c1.38.24,2.8.25,4.23.44,1.18.2,2.41.29,3.59.44,4.83.75,9.2,1.29,14.06,1.81-.16,2.05-.69,3.77-.69,5.83v.43c0,.5.53.94.56,1.39s.26.77.3,1.15a11.16,11.16,0,0,0,.16,1.14c.12,1.82.38,3.6.62,5.34,0,.56.15,1.07.23,1.62,3.91,24.68,19.51,44.33,40.62,53.26.79.36,1.63.68,2.5,1,1.19.44,2.42.87,3.68,1.27a5.69,5.69,0,0,0,1.15.36,68.48,68.48,0,0,0,24.75,2.33q2.73-.24,5.34-.71c.48-.08,1-.16,1.47-.28,36.53-6.84,64.53-41.56,63.74-80.71,0-1.46-.12-2.88-.24-4.31,0-.43-.08-.91-.12-1.34,0-.24,0-.47-.08-.75a401.44,401.44,0,0,0,58.64-21.79c.91,1.86,1.86,3.72,2.93,5.5.48.79,1,1.58,1.54,2.37a61.64,61.64,0,0,0,5.86,7.67l.07.08a65.17,65.17,0,0,0,40,21.51,66.25,66.25,0,0,0,21.11-.28,73.43,73.43,0,0,0,30.41-12.57c32.47-22.74,43.86-66.63,27-100.36-.43-.87-.87-1.74-1.38-2.61s-.83-1.5-1.27-2.21c-1.07-1.74-2.21-3.4-3.4-5a446.7,446.7,0,0,0,42.23-49c1.7,1.07,3.4,2.1,5.22,3a68.1,68.1,0,0,0,41.68,6.17c22.89-3.88,44.29-19,56.23-42.51,19.13-37.76,6.44-82.72-28.47-100.44-1.78-.91-3.64-1.7-5.5-2.45a442.06,442.06,0,0,0,14.67-63C2034,2605.79,2036,2605.75,2038,2605.59Zm-686.37,252.68,1.31,1.42C1351.88,2859,1351.33,2858.51,1351.64,2858.27Zm166.91-44.69c-126.69-64.33-172.92-227.64-103.29-364.77,35.59-70.07,94.51-119.73,160.55-143,42.42-14.91,87.78-18.94,131.75-10.44a238.56,238.56,0,0,1,98.66,43.77c1.06.75,2.13,1.58,3.2,2.41,4.66,3.6,9.13,7.4,13.48,11.31,1.78,1.62,3.52,3.24,5.26,4.94.28.24.56.52.83.8q2.73,2.61,5.34,5.33a6.39,6.39,0,0,1,.71.76c1.66,1.7,3.28,3.4,4.87,5.18.39.43.79.87,1.18,1.34,1.58,1.74,3.09,3.48,4.55,5.26a6.41,6.41,0,0,1,.83,1c1.5,1.74,2.93,3.52,4.31,5.34a238.44,238.44,0,0,1,16.49,23.64c1.18,1.86,2.29,3.8,3.4,5.7.32.51.59,1,.87,1.54,1,1.66,1.9,3.32,2.77,5,.51.87,1,1.78,1.46,2.69.83,1.58,1.66,3.16,2.41,4.74q4.52,9,8.31,18.39c1,2.37,1.89,4.79,2.8,7.2.79,2.17,1.59,4.39,2.34,6.6.59,1.62,1.1,3.24,1.62,4.86.35,1.11.71,2.22,1,3.33.43,1.3.79,2.57,1.14,3.83s.75,2.57,1.07,3.84c.47,1.5.87,3,1.23,4.54q2,7.83,3.56,15.78c.55,2.93,1.06,5.81,1.54,8.74s.87,5.62,1.22,8.46c0,.36.08.71.12,1.11.28,2,.52,4,.71,6.05.16,1.42.28,2.81.4,4.23.12,1.15.2,2.29.28,3.48.15,1.74.27,3.52.35,5.3,2.81,49.5-7.31,101.31-32,149.82a299.41,299.41,0,0,1-56.23,77.31c-2.33,2.29-4.66,4.54-7,6.76s-4.82,4.35-7.27,6.48c-1.35,1.15-2.69,2.34-4.07,3.44-1.11,1-2.26,1.86-3.4,2.77q-3.75,3-7.6,5.93a279,279,0,0,1-71.21,39c-4.11,1.5-8.23,2.93-12.38,4.23s-8.5,2.57-12.81,3.68c-.08,0-.16,0-.24.08-2.53.63-5.1,1.27-7.67,1.82s-5.26,1.18-7.91,1.66a253.2,253.2,0,0,1-57,4.59c-2.61-.08-5.18-.2-7.75-.44-.39,0-.83,0-1.22-.08A238.1,238.1,0,0,1,1518.55,2813.58Z"/><path class="cls-29" d="M2032,2605.79a442.06,442.06,0,0,1-14.67,63c1.86.75,3.72,1.54,5.5,2.45,34.91,17.72,47.6,62.68,28.47,100.44-11.94,23.49-33.34,38.63-56.23,42.51a68.1,68.1,0,0,1-41.68-6.17c-1.82-.91-3.52-1.94-5.22-3a446.7,446.7,0,0,1-42.23,49c1.19,1.58,2.33,3.24,3.4,5,.44.71.87,1.46,1.27,2.21s1,1.7,1.5,2.57c19.22,34.25,32.62,83.75.12,106.53-9.85,6.88-22.78,10.56-36.74,11.51a124.83,124.83,0,0,1-42.31-4.79c-15.58-4.51-28-11.94-39.89-21.67v-2h.59c-2.41,0-4.51-3.93-6.33-6.58-.55-.79-1.06-1.1-1.54-1.89-1.07-1.78-2-3.39-2.93-5.25a403.18,403.18,0,0,1-58.64,21.91c0,.27,0,.57.08.81,0,.43.67.94.71,1.37.12,1.07.83,2.13.83,3.47v.87c0,41.29-7.47,84.15-47.09,84.15h-.12c-19.81,1.11-36.1-.67-49.27-4.78a5.41,5.41,0,0,1-1.14-.36c-1.27-.4-2.49-.83-3.68-1.27-.87-.31-1.7-.63-2.49-1-25.27-10.36-37.37-30.13-40.61-53.26-.08-.55-.16-1.06-.2-1.62-.24-2.06-.44-4.11-.55-6.21a.61.61,0,0,0,0-.27c-.12-1.07-.68-1.82-.71-3-.05-2.14-.4-3.76-.4-5.89v0c-4-.47-9.13-1.11-14-1.82-1.19-.16-2.13-.36-3.28-.55-1.42-.2-2.73.47-4.11.23-.32-.08-.64.72-1,.72h-.08c-1.82-4-3.64-4-5.46-4h0c15.3-31.63,31.28-62.65,44.76-95,4.95-11.86,10.76-23.63,14.71-35.58,0,0,0,.11,0,.07a66.82,66.82,0,0,0,7.08.47,7.22,7.22,0,0,0,.75.07,251.89,251.89,0,0,0,56.9-4.49c2.65-.51,5.26-1.06,7.91-1.65s5.14-1.18,7.67-1.82a2.17,2.17,0,0,0,.24-.07q6.46-1.66,12.81-3.68c4.15-1.3,8.27-2.69,12.38-4.23a276.3,276.3,0,0,0,71.37-39c2.57-1.93,5-3.91,7.51-5.93,1.15-.91,2.26-1.82,3.33-2.77,1.38-1.1,2.72-2.29,4.07-3.44,2.45-2.13,4.86-4.27,7.27-6.48s4.71-4.47,7-6.76a299.41,299.41,0,0,0,56.23-77.31c24.64-48.51,34.76-100.32,32-149.82-.08-1.78-.2-3.56-.35-5.3-.08-1.19-.16-2.33-.28-3.48-.12-1.42-.24-2.81-.4-4.23-.19-2-.43-4-.71-6.05,0-.4-.08-.75-.12-1.11-.35-2.84-.75-5.65-1.22-8.46s-1-5.81-1.54-8.74q-1.54-8-3.56-15.78c-.36-1.5-.76-3-1.23-4.54-.32-1.27-.67-2.53-1.07-3.84s-.71-2.53-1.14-3.83c-.32-1.11-.68-2.22-1-3.33-.52-1.62-1-3.24-1.62-4.86-.75-2.21-1.55-4.43-2.34-6.6-.91-2.41-1.82-4.83-2.8-7.2q-3.79-9.37-8.31-18.39c-.75-1.58-1.58-3.16-2.41-4.74-.47-.91-1-1.82-1.46-2.69-.87-1.7-1.78-3.36-2.77-5-.28-.52-.55-1-.87-1.54-1.11-1.9-2.22-3.84-3.4-5.7a238.44,238.44,0,0,0-16.49-23.64c-1.38-1.82-2.81-3.6-4.31-5.34a6.41,6.41,0,0,0-.83-1c-1.46-1.78-3-3.52-4.55-5.26-.39-.47-.79-.91-1.18-1.34-1.59-1.78-3.21-3.48-4.87-5.18a6.39,6.39,0,0,0-.71-.76q-2.61-2.72-5.34-5.33c-.27-.28-.55-.56-.83-.8-1.74-1.7-3.48-3.32-5.26-4.94-4.35-3.91-8.82-7.71-13.48-11.31-1.07-.83-2.14-1.66-3.2-2.41-.8-.63-1.55-1.22-2.34-1.78,2.61-4.74,5.22-9.53,7.83-14.27q44-80.49,89.37-160.19a79.27,79.27,0,0,1-4.47,62.48c-1,2-2.1,3.83-3.2,5.65a362.3,362.3,0,0,1,44.17,41.25c1.62-1.35,3.24-2.65,5-3.88,4.74-3.32,9.76-6.72,15-9.88,32.19-19.62,72.64-31.76,111.87,20.4,24,31.91-18.11,89.56-52.16,113.4q-2.67,1.85-5.46,3.45a402.12,402.12,0,0,1,17,60.18c2.05-.36,4.07-.71,6.17-.87a66.78,66.78,0,0,1,31.24,4.59,8.52,8.52,0,0,1,1,.39c23.92,10.2,40.73,34.32,41.32,63.86.83,41.56-30.76,78.14-70.58,81.69C2036,2605.75,2034,2605.79,2032,2605.79Z"/><path class="cls-30" d="M2075.54,2609.83c39.82-3.52,71.41-40.1,70.54-81.66s-33.77-72.4-73.55-68.84a46.17,46.17,0,0,0-5.26.71c-.31,0-.59.12-.91.16,0-.2-.08-.36-.11-.55a408.68,408.68,0,0,0-16.93-59.67c1.86-1.07,3.68-2.18,5.46-3.4,34-23.85,44.92-70.94,24.32-105.19a67.84,67.84,0,0,0-9.69-12.49c-15.38-15.78-37.29-22.5-59-18.86a74.5,74.5,0,0,0-30.37,12.61c-1.74,1.19-3.36,2.53-5,3.88-5.22-5.78-10.68-11.43-16.29-16.85a16.78,16.78,0,0,0-1.23-1.18q-12.69-12.23-26.61-23.22c1.11-1.81,2.22-3.67,3.2-5.65,18.35-36.1,7.52-78.85-24-98a7.32,7.32,0,0,0-.91-.55c-1.14-.67-2.33-1.34-3.52-1.94-34.87-17.71-78.72-1.46-97.9,36.3-1,2-1.82,4-2.65,5.93a353.83,353.83,0,0,0-35.87-8.06c-7.82-1.35-15.66-2.45-23.48-3.24.11-2.1.23-4.24.19-6.33-.67-32.66-21-59.27-49-67.18-4.11-1.23-8.38-2.65-12.77-3-.63,0-1.27-.08-1.9-.08h-.2c-1.14,0-2.29.56-3.44.56-2.05,0-4.15.35-6.24.55-39.78,3.52-71.38,40.25-70.55,81.81,0,2.18.2,4.39.44,6.49a403.17,403.17,0,0,0-58.64,21.82c-.91-1.85-1.86-3.67-2.93-5.45a66.08,66.08,0,0,0-7.47-10.13l-.12-.11c-15.46-17.4-38.36-24.95-61.05-21.12a71.93,71.93,0,0,0-24.83,9c-1.86,1.07-3.72,2.26-5.54,3.52-34,23.89-44.92,70.94-24.32,105.19,1.07,1.74,2.21,3.4,3.4,5a442.91,442.91,0,0,0-42.27,49c-1.66-1-3.4-2.06-5.18-3a65.46,65.46,0,0,0-27.88-7.08,64.77,64.77,0,0,0-13.8.91c-22.89,3.87-44.32,19.06-56.22,42.5-19.18,37.77-6.45,82.77,28.43,100.48,1.81.91,3.67,1.66,5.53,2.41a442.38,442.38,0,0,0-14.67,63c-2,0-4,0-6,.24-39.78,3.52-71.37,40.1-70.54,81.69.59,29.5,17.32,53.58,41.24,63.78,0,0,0,.81.08.81.36.16.67,1.17,1,1.17h0c9.53,4,20,4.81,31.2,3.82a54.19,54.19,0,0,0,6.13-1.26,406.38,406.38,0,0,0,17,60c-1.82,1.07-3.64,2.08-5.42,3.31-34,23.88-45,70.06-24.32,104.3,12.85,21.31,34.92,31.47,58,31.47h.08c8.15,0,16.37-.88,24.4-4a.7.7,0,0,0,.27-.08,73.73,73.73,0,0,0,16.26-8.26c1.78-1.23,3.4-2.37,5-3.72a358.36,358.36,0,0,0,44.16,41.32c-1.14,1.82-2.21,3.8-3.2,5.74-19.17,37.76-6.44,82.76,28.43,100.47,1.31.67,2.69,1.31,4,1.9,0,0,0,0,.08,0,34.12,14.51,75.32-1.94,93.75-38.24.36-.71.71-1.42,1-2.13.59-1.27,1.14-2.53,1.66-3.8a357.28,357.28,0,0,0,59.31,11.31c-.12,2.14-.2,4.23-.16,6.37.6,29.53,17.4,52.78,41.4,63l1.47.59a48.59,48.59,0,0,0,17.71,3.44h.12c4.19,3.95,8.5,1.34,12.89.95,2.45-.24,4.86-.55,7.28-1,34.6-6.68,61-38.12,62.81-74.81.08-1.62-.3-3.28-.3-5v-6.6a284.32,284.32,0,0,0,31.6-10.32s.12-1,.15-1,.32,2.91.48-1h0c9,0,17.87-6.14,26.69-10.22.91,1.86,1.86,4.24,2.93,6a66.31,66.31,0,0,0,31.07,27.33,65.22,65.22,0,0,0,20.88,5.18,72.25,72.25,0,0,0,47-13.3,79.8,79.8,0,0,0,22-23.22c14-22.11,16.93-50.05,6.57-73.69a71.32,71.32,0,0,0-4.27-8.22c-1-1.74-2.22-3.4-3.36-5,.31-.31.67-.67.94-1a435.78,435.78,0,0,0,36.86-42.19c1.5-1.9,3-3.88,4.43-5.82,1.7,1.07,3.4,2.1,5.22,3a44.2,44.2,0,0,0,4.15,1.9c34.12,14.51,75.29-1.9,93.71-38.24,19.18-37.76,6.45-82.72-28.43-100.44-1.82-.94-3.64-1.7-5.49-2.45a443.26,443.26,0,0,0,14.63-63C2071.5,2610.06,2073.52,2610,2075.54,2609.83ZM1619.1,2839.45a2.35,2.35,0,0,1-.51-.08.15.15,0,0,1-.12,0,237.23,237.23,0,0,1-62.44-21.51c-126.65-64.3-172.87-227.61-103.24-364.74,30.13-59.35,77-104.07,130.8-130.49,39-19.18,81.54-28.7,124-27.24a238.6,238.6,0,0,1,100.63,25.86c1.19.59,2.38,1.22,3.52,1.86,124,65.48,168.73,227,99.73,362.87-43.38,85.42-121.47,140.57-204.83,154.46A246.75,246.75,0,0,1,1619.1,2839.45Z"/><path class="cls-10" d="M1944.53,2945.26a79.9,79.9,0,0,1-22,23.25,72.38,72.38,0,0,1-47,13.37,123,123,0,0,1-42-4.79,65.17,65.17,0,0,1-40-21.51c-10.4,4-20.87,7.4-31.51,10.44.2,2.09.39,4.23.43,6.4,0,1.71,0,3.37-.08,5-1.58,36.89-28.47,68.13-63.18,74.81-2.42.48-4.83.79-7.28,1-4.39.39-8.7,3-12.89-.95h-.12c-19.81,1.11-36.1-.67-49.27-4.78a5.41,5.41,0,0,1-1.14-.36c-1.27-.4-2.49-.83-3.68-1.27-.87-.31-1.7-.63-2.49-1-25.27-10.36-37.37-30.13-40.61-53.26-.08-.55-.16-1.06-.2-1.62-.24-2.06-.93-4.11-1-6.21-.08-1.06-.65-1.82-.65-2.81v-6.52c-4-.51-9.13-1-14-1.78-1.19-.16-2.11-.28-3.3-.47-1.42-.2-2.7-.44-4.08-.67a1.46,1.46,0,0,0-.48-.08,2,2,0,0,1-.52-.08c-.31.71-.65,1.42-1,2.13-18.43,36.3-59.62,52.75-93.74,38.24a66.59,66.59,0,0,1-41.64-6.17,66.7,66.7,0,0,1-25.1-22.38,69.92,69.92,0,0,1-9.77-21.79,78.46,78.46,0,0,1-1.26-33.45,83.28,83.28,0,0,1,7.71-22.86c1-1.93,2.09-3.79,3.2-5.65l-.08-.08c-3.64-2.85-7.19-5.89-10.71-9a9.53,9.53,0,0,1-.83-.75c-5.62-5-11-10.24-16.3-15.34a.7.7,0,0,1-.27.08c-8,3.08-16.25,4-24.4,4h-.08c-35.07,7.9-79.52-9.3-95.49-35.79a74.3,74.3,0,0,1-9.85-47.49,81.86,81.86,0,0,1,34.17-57.26c1.77-1.22,3.55-2.13,5.37-3.16a0,0,0,0,1,0,0,400.93,400.93,0,0,1-16.84-58.64,4,4,0,0,0,0,.71h0a2.38,2.38,0,0,1-.91-.12s0,.12-.08.12h-.08c-1.7,0-3.48-.39-5.18-.24a66.26,66.26,0,0,1-53.46-20c-12.14-12.33-19.73-29.86-20.13-49.55-.83-41.6,30.77-78.26,70.59-81.82,2-.19,4-.3,6-.3a442.67,442.67,0,0,1,14.67-63.06c-1.86-.75-3.72-1.52-5.5-2.42-34.92-17.72-47.65-62.73-28.47-100.49,18.43-36.3,59.63-52.75,93.75-38.24a64.77,64.77,0,0,1,13.8-.91,436.28,436.28,0,0,1,37.81-43.18c-1.19-1.62-2.34-3.28-3.4-5-20.61-34.21-9.73-81.3,24.31-105.15a74.27,74.27,0,0,1,25.43-11.58c5.69,3.83,11.58,8,17.64,12.29,45.43,32.94,98.65,80.59,128.55,138.8,2.76,5.49,5.41,11.11,7.78,16.8-53.77,26.42-100.67,71.14-130.8,130.49-69.63,137.13-23.41,300.44,103.24,364.74a237.23,237.23,0,0,0,62.44,21.51,5,5,0,0,0,.75,0,251.91,251.91,0,0,0,56.9-4.51c2.65-.52,5.26-1.07,7.91-1.66s5.14-1.19,7.67-1.82c4.79,3.16,9.77,6.21,14.91,9,50.1,27.67,117.2,38.63,205.38,23.48a.15.15,0,0,0,.12,0q15.72-2.67,32.3-6.52a1.7,1.7,0,0,0,.44-.08,99.49,99.49,0,0,1,6.25,14.31C1959.72,2896.82,1955.8,2921.77,1944.53,2945.26Z"/><path class="cls-31" d="M680.38,3208.64a12.15,12.15,0,0,0-5.32-.58,13,13,0,0,0-6.44,2.91c-1.15.88-10.6,8.35-10.5,18.58.09,8.2,6.2,8.71,12.28,22.36,4.94,11.11,2.11,13.51,6.61,19.24,7.51,9.57,24,13.8,31.08,7.5,3.32-2.94,3.76-7.44,3.87-8.63,1.09-11.15-10.52-14.34-13.07-26.88s7.3-18.42,2.57-25.55C699.54,3214.69,693.15,3212.67,680.38,3208.64Z"/><path class="cls-32" d="M689.59,3189.4c-10.53,9.69-15.11,20.46-11.8,26a11.84,11.84,0,0,0,4.52,3.86c7.06,3.87,14.58,1,16,.47l13.57-19.06Z"/><path class="cls-33" d="M422.08,3263.26a9.8,9.8,0,0,0-9.8,1.94c-4.16,3.69-10.19,9.47-13.39,14.47-5.2,8.11,14.6,12,35.09,16.26s45.85,11,45.09,4.81-6.63-15.58-26.44-25.64C447.38,3272.43,430.75,3266.31,422.08,3263.26Z"/><path class="cls-34" d="M424.12,3240.59l-8.57,27.16s4.66,8.82,17,3.62l14.27-23.7Z"/><path class="cls-35" d="M1188.5,2073.38c0,.07-40.5,58.36-79.31,69.78l102.33,16.64s-13.36-4.51-13.36-23.26c0-11.69,9.11-39.78,9.11-39.78Z"/><path class="cls-36" d="M968.93,2670.37a1614.93,1614.93,0,0,1,34.52,172.33c18.27,126.38,7.08,153.54,1.18,165.4-21.92,44.05-58.21,52.56-149.66,107.16a1489.59,1489.59,0,0,0-146.1,99.35A56.88,56.88,0,0,1,675,3195.86c8.38-40.63,23.95-67.58,36.08-84.26,14.37-19.75,27.12-29.49,89.12-78.89,44-35.08,66.06-52.66,67.21-54.79,37.68-70-83.87-162.86-56.25-235.63C821.48,2715,855.72,2682.72,968.93,2670.37Z"/><path class="cls-37" d="M711.06,3111.6c14.37-19.75,27.12-29.49,89.12-78.89,44-35.08,66.06-52.66,67.21-54.79,37.68-70-83.87-162.86-56.25-235.63,10.34-27.25,44.58-59.57,157.79-71.92,5.27,20.42,11.36,45.74,17.46,75.2-41.58,21.38-54.44,42.65-56.9,59.95-5.88,41.18,45.29,69.89,32.87,105.19-10.08,28.65-49.23,25.2-57,54.79-7.52,28.69,25.85,45.06,19.72,67.94-10,37.39-105.21,16.58-155.6,65.75-16.21,15.81-32.22,43.32-33.39,94.91-10.24,7.52-19.36,14.42-27.24,20.51A56.88,56.88,0,0,1,675,3195.86C683.36,3155.23,698.93,3128.28,711.06,3111.6Z"/><path class="cls-38" d="M989.75,2685C956,2708.11,909,2741.62,855,2784.7c-77.78,62-161.43,128.71-245,228.66-45.35,54.24-104.53,134.82-158.53,244.27A42.84,42.84,0,0,1,412.28,3246c-9.8-80.65,4.58-137.27,18.62-173.13,31.26-79.81,67.3-73.25,129.31-189.57,16.8-31.52,35.82-72.64,76.27-143.74,15.46-27.19,27.24-46.78,46.45-68.84A334,334,0,0,1,769.71,2600Z"/><path class="cls-39" d="M1223.68,2052.77c3.22-10.61-4.37-26.57-16.87-31.19-9.28-3.42-18,.61-24.31,3.55-2.93,1.36-23.46,11.19-24.51,28.45-.33,5.48,2,12.07,5.54,16.73,1.84,2.39,4.86,5.16,11.25,10.25,5.68,4.52,5.35,4.41,7.07,5.7,4.11,3.11,11.75,8.13,24.4,12.81a65.21,65.21,0,0,1-.13-11.35,57.54,57.54,0,0,1,3-14.43C1213.63,2060.9,1221.15,2061.06,1223.68,2052.77Z"/><path class="cls-40" d="M1190.77,2095.39s15.48,12.73,34.65,4.63c17.16-7.26,6-47.53-8.1-52-4.71-1.49-12.61,0-18.11,3.79-3.25,2.26-3.94,4.18-9.32,7.78-5,3.31-6.72,3.24-7.88,5.2-1.46,2.45-1.49,7.22,6,17.54-4.53-2.23-9-2.13-11.39.21a6.35,6.35,0,0,0-1.55,3.09C1174.14,2091,1180.25,2095.31,1190.77,2095.39Z"/><path class="cls-41" d="M1613.94,2116.59l24.07-24.75s30-14.65,52-3.7,2.78,9.45-8.47,10.93-28.17,11.63-39.07,17.52-22.59,13.75-22.59,13.75Z"/><path class="cls-42" d="M1611.79,2102.76l23.38,29.21c-21.34,72.74-55.57,112.73-83.28,135.88-88.58,74-180.52,34.56-298.12,123.82-36.28,27.54-59.16,55.31-78.2,78.42-85.84,104.2-80.46,171.65-154.41,214-40.72,23.35-79.89,24.43-105.54,25.14-73.14,2-172.73-26.33-188.37-84.77a65.5,65.5,0,0,1-1.58-25c14.33-126.36,163.91-299.65,224.27-367.45,42.1-47.3,78.39-85.51,134.42-95,23.46-4,42.43-1.43,80.35,3.65,69,9.23,90.48,24.69,151,37.42,40.85,8.59,86.48,18.19,137,10.53C1482.6,2184.18,1545.57,2168.91,1611.79,2102.76Z"/><path class="cls-43" d="M883.46,2639c22.91-48.33-3-84.57,26.3-120.54,35.36-43.47,88-8.74,140.26-50.4,60.73-48.38,35.78-131.84,87.66-151.22,32.6-12.18,47.35,18.94,96.43,11,53.11-8.64,54.16-48,107.39-65.75,57.85-19.25,85,17.84,162.18,13.15a238,238,0,0,0,49.69-8.59c-.49.42-1,.87-1.48,1.28-88.58,74-180.52,34.56-298.12,123.82-36.28,27.54-59.16,55.31-78.2,78.42-85.84,104.2-80.46,171.65-154.41,214-40.72,23.35-79.89,24.43-105.54,25.14a314.52,314.52,0,0,1-90.94-11.51C857.15,2679.5,874.24,2658.41,883.46,2639Z"/></g></g></svg>