<svg xmlns="http://www.w3.org/2000/svg" xmlns:xlink="http://www.w3.org/1999/xlink" viewBox="0 0 3710 2439.85"><defs><style>.cls-1{fill:none;}.cls-2{isolation:isolate;}.cls-186,.cls-3{opacity:0.3;}.cls-3{fill:url(#linear-gradient);}.cls-187,.cls-4{opacity:0.5;}.cls-4{fill:url(#linear-gradient-2);}.cls-5{fill:url(#linear-gradient-3);}.cls-183,.cls-187,.cls-6{fill:#fff;}.cls-7{fill:url(#linear-gradient-4);}.cls-8{fill:#f0f0f0;}.cls-9{fill:url(#linear-gradient-5);}.cls-10{fill:url(#linear-gradient-6);}.cls-11{fill:url(#linear-gradient-7);}.cls-12{fill:url(#linear-gradient-8);}.cls-13{mix-blend-mode:soft-light;}.cls-14{fill:url(#linear-gradient-9);}.cls-15{fill:url(#linear-gradient-10);}.cls-16{fill:url(#linear-gradient-11);}.cls-17{fill:url(#linear-gradient-12);}.cls-18{fill:url(#linear-gradient-13);}.cls-19{fill:url(#linear-gradient-14);}.cls-20{fill:url(#linear-gradient-15);}.cls-21{fill:url(#linear-gradient-16);}.cls-22{fill:url(#linear-gradient-17);}.cls-23{fill:url(#linear-gradient-18);}.cls-24{fill:url(#linear-gradient-19);}.cls-25{fill:url(#linear-gradient-20);}.cls-26{fill:url(#linear-gradient-21);}.cls-27{fill:url(#linear-gradient-22);}.cls-28{fill:url(#linear-gradient-23);}.cls-29{fill:url(#linear-gradient-24);}.cls-30{fill:url(#linear-gradient-25);}.cls-31{fill:url(#linear-gradient-26);}.cls-32{fill:url(#linear-gradient-27);}.cls-33{fill:url(#linear-gradient-28);}.cls-34{fill:url(#linear-gradient-29);}.cls-35{fill:url(#linear-gradient-30);}.cls-36{clip-path:url(#clip-path);}.cls-37{fill:url(#linear-gradient-31);}.cls-38{fill:url(#linear-gradient-32);}.cls-39{fill:url(#linear-gradient-33);}.cls-40{fill:url(#linear-gradient-34);}.cls-41{fill:url(#linear-gradient-35);}.cls-42{fill:url(#linear-gradient-36);}.cls-43{fill:url(#linear-gradient-37);}.cls-44{fill:url(#linear-gradient-38);}.cls-45{fill:url(#linear-gradient-39);}.cls-46{fill:url(#linear-gradient-40);}.cls-47{fill:url(#linear-gradient-41);}.cls-48{fill:url(#linear-gradient-42);}.cls-49{fill:url(#linear-gradient-43);}.cls-50{fill:url(#linear-gradient-44);}.cls-51{fill:url(#linear-gradient-45);}.cls-52{fill:url(#linear-gradient-46);}.cls-53{fill:url(#linear-gradient-47);}.cls-54{fill:url(#linear-gradient-48);}.cls-55{fill:url(#linear-gradient-49);}.cls-56{fill:url(#linear-gradient-50);}.cls-57{fill:url(#linear-gradient-51);}.cls-58{fill:url(#linear-gradient-52);}.cls-59{fill:url(#linear-gradient-53);}.cls-60{fill:url(#linear-gradient-54);}.cls-61{fill:url(#linear-gradient-55);}.cls-62{fill:url(#linear-gradient-56);}.cls-63{fill:url(#linear-gradient-57);}.cls-64{fill:url(#linear-gradient-58);}.cls-65{fill:url(#linear-gradient-59);}.cls-66{fill:url(#linear-gradient-60);}.cls-67{fill:url(#linear-gradient-61);}.cls-68{fill:url(#linear-gradient-62);}.cls-69{fill:url(#linear-gradient-63);}.cls-70{fill:url(#linear-gradient-64);}.cls-71{fill:url(#linear-gradient-65);}.cls-72{fill:url(#linear-gradient-66);}.cls-73{fill:url(#linear-gradient-67);}.cls-74{fill:url(#linear-gradient-68);}.cls-75{fill:url(#linear-gradient-69);}.cls-76{fill:url(#linear-gradient-70);}.cls-77{fill:url(#linear-gradient-71);}.cls-78{fill:url(#linear-gradient-72);}.cls-79{fill:url(#linear-gradient-73);}.cls-80{fill:url(#linear-gradient-74);}.cls-81{fill:url(#linear-gradient-75);}.cls-82{fill:url(#linear-gradient-76);}.cls-83{fill:url(#linear-gradient-77);}.cls-84{fill:url(#linear-gradient-78);}.cls-85{fill:url(#linear-gradient-79);}.cls-86{fill:url(#linear-gradient-80);}.cls-87{fill:url(#linear-gradient-81);}.cls-88{fill:url(#linear-gradient-82);}.cls-89{fill:url(#linear-gradient-83);}.cls-90{fill:url(#linear-gradient-84);}.cls-91{fill:url(#linear-gradient-85);}.cls-92{fill:url(#linear-gradient-86);}.cls-93{fill:url(#linear-gradient-87);}.cls-94{fill:url(#linear-gradient-88);}.cls-95{fill:url(#linear-gradient-89);}.cls-96{fill:url(#linear-gradient-90);}.cls-97{fill:url(#linear-gradient-91);}.cls-98{fill:url(#linear-gradient-92);}.cls-99{fill:url(#linear-gradient-93);}.cls-100{fill:url(#linear-gradient-94);}.cls-101{fill:url(#linear-gradient-95);}.cls-102{fill:url(#linear-gradient-96);}.cls-103{fill:url(#linear-gradient-97);}.cls-104{fill:url(#linear-gradient-98);}.cls-105{fill:url(#linear-gradient-99);}.cls-106{fill:url(#linear-gradient-100);}.cls-107{fill:url(#linear-gradient-101);}.cls-108{fill:url(#linear-gradient-102);}.cls-109{fill:url(#linear-gradient-103);}.cls-110{fill:url(#linear-gradient-104);}.cls-111{fill:url(#linear-gradient-105);}.cls-112{fill:url(#linear-gradient-106);}.cls-113{fill:url(#linear-gradient-107);}.cls-114{fill:url(#linear-gradient-108);}.cls-115{fill:url(#linear-gradient-109);}.cls-116{fill:url(#linear-gradient-110);}.cls-117{fill:url(#linear-gradient-111);}.cls-118{fill:url(#linear-gradient-112);}.cls-119{fill:url(#linear-gradient-113);}.cls-120{fill:url(#linear-gradient-114);}.cls-121{fill:url(#linear-gradient-115);}.cls-122{fill:url(#linear-gradient-116);}.cls-123{fill:url(#linear-gradient-117);}.cls-124{fill:url(#linear-gradient-118);}.cls-125{fill:url(#linear-gradient-119);}.cls-126{fill:url(#linear-gradient-120);}.cls-127{fill:url(#linear-gradient-121);}.cls-128{fill:url(#linear-gradient-122);}.cls-129{fill:url(#linear-gradient-123);}.cls-130{fill:url(#linear-gradient-124);}.cls-131{fill:url(#linear-gradient-125);}.cls-132{fill:url(#linear-gradient-126);}.cls-133{fill:url(#linear-gradient-127);}.cls-134{fill:url(#linear-gradient-128);}.cls-135{fill:url(#linear-gradient-129);}.cls-136{fill:url(#linear-gradient-130);}.cls-137{fill:url(#linear-gradient-131);}.cls-138{fill:url(#linear-gradient-132);}.cls-139{fill:url(#linear-gradient-133);}.cls-140{fill:url(#linear-gradient-134);}.cls-141{fill:url(#linear-gradient-135);}.cls-142{fill:url(#linear-gradient-136);}.cls-143{fill:url(#linear-gradient-137);}.cls-144{fill:url(#linear-gradient-138);}.cls-145{fill:url(#linear-gradient-139);}.cls-146{fill:url(#linear-gradient-140);}.cls-147{fill:url(#linear-gradient-141);}.cls-148{fill:url(#linear-gradient-142);}.cls-149{fill:url(#linear-gradient-143);}.cls-150{fill:url(#linear-gradient-144);}.cls-151{fill:url(#linear-gradient-145);}.cls-152{fill:url(#linear-gradient-146);}.cls-153{fill:url(#linear-gradient-147);}.cls-154{fill:url(#linear-gradient-148);}.cls-155{fill:url(#linear-gradient-149);}.cls-156{fill:url(#linear-gradient-150);}.cls-157{fill:url(#linear-gradient-151);}.cls-158{fill:url(#linear-gradient-152);}.cls-159{fill:url(#linear-gradient-153);}.cls-160{fill:url(#linear-gradient-154);}.cls-161{fill:url(#linear-gradient-155);}.cls-162{fill:url(#linear-gradient-156);}.cls-163{fill:url(#linear-gradient-157);}.cls-164{fill:url(#linear-gradient-158);}.cls-165{fill:url(#linear-gradient-159);}.cls-166{fill:url(#linear-gradient-160);}.cls-167{fill:url(#linear-gradient-161);}.cls-168{fill:url(#linear-gradient-162);}.cls-169{fill:url(#linear-gradient-163);}.cls-170{fill:url(#linear-gradient-164);}.cls-171{fill:url(#linear-gradient-165);}.cls-172{fill:url(#linear-gradient-166);}.cls-173{fill:url(#linear-gradient-167);}.cls-174{fill:url(#linear-gradient-168);}.cls-175{fill:url(#linear-gradient-169);}.cls-176{fill:url(#linear-gradient-170);}.cls-177{fill:url(#linear-gradient-171);}.cls-178{fill:url(#linear-gradient-172);}.cls-179{fill:url(#linear-gradient-173);}.cls-180{fill:url(#linear-gradient-174);}.cls-181{fill:url(#linear-gradient-175);}.cls-182{fill:url(#linear-gradient-176);}.cls-183{opacity:0.58;}.cls-184{fill:url(#linear-gradient-177);}.cls-185{fill:url(#linear-gradient-178);}.cls-188{fill:url(#linear-gradient-179);}.cls-189{fill:url(#linear-gradient-180);}.cls-190{fill:url(#linear-gradient-181);}.cls-191{fill:url(#linear-gradient-182);}.cls-192{fill:url(#linear-gradient-183);}.cls-193{fill:url(#linear-gradient-184);}.cls-194{fill:url(#linear-gradient-185);}.cls-195{fill:url(#linear-gradient-186);}.cls-196{fill:url(#linear-gradient-187);}.cls-197{fill:url(#linear-gradient-188);}.cls-198{fill:url(#linear-gradient-189);}.cls-199{fill:url(#linear-gradient-190);}.cls-200{fill:url(#linear-gradient-191);}.cls-201{fill:url(#linear-gradient-192);}.cls-202{fill:url(#linear-gradient-193);}.cls-203{fill:url(#linear-gradient-194);}.cls-204{fill:url(#linear-gradient-195);}.cls-205{fill:url(#linear-gradient-196);}.cls-206{fill:url(#linear-gradient-197);}</style><linearGradient id="linear-gradient" x1="-1611.89" y1="3845.19" x2="1917.89" y2="3845.19" gradientTransform="translate(2008 5084.83) rotate(180)" gradientUnits="userSpaceOnUse"><stop offset="0" stop-color="#b37cff"/><stop offset="1" stop-color="#f895e7"/></linearGradient><linearGradient id="linear-gradient-2" x1="486.49" y1="3909.92" x2="3878.72" y2="3909.92" gradientTransform="matrix(1, 0, 0, -1, -258.84, 5084.83)" xlink:href="#linear-gradient"/><linearGradient id="linear-gradient-3" x1="973.47" y1="1763.89" x2="848.98" y2="1265.93" gradientTransform="matrix(1, 0, 0, 1, 0, 0)" xlink:href="#linear-gradient"/><linearGradient id="linear-gradient-4" x1="4372.68" y1="1278.97" x2="3461.11" y2="2881.74" gradientTransform="matrix(-1, 0, 0, 1, 4796.84, 0)" gradientUnits="userSpaceOnUse"><stop offset="0" stop-color="#a737d5"/><stop offset="1" stop-color="#ef497a"/></linearGradient><linearGradient id="linear-gradient-5" x1="-4124.23" y1="1763.89" x2="-4248.72" y2="1265.93" gradientTransform="matrix(-1, 0, 0, 1, -1368.77, 0)" xlink:href="#linear-gradient"/><linearGradient id="linear-gradient-6" x1="9470.38" y1="1278.97" x2="8558.81" y2="2881.74" gradientTransform="translate(-6165.6)" xlink:href="#linear-gradient-4"/><linearGradient id="linear-gradient-7" x1="1818.06" y1="720.99" x2="1914.8" y2="3018.58" gradientUnits="userSpaceOnUse"><stop offset="0" stop-color="#fdf53f"/><stop offset="1" stop-color="#d93c65"/></linearGradient><linearGradient id="linear-gradient-8" x1="1817.23" y1="217.69" x2="1910.78" y2="2439.59" xlink:href="#linear-gradient-7"/><linearGradient id="linear-gradient-9" x1="2057.96" y1="1268.71" x2="2861.5" y2="2079.94" gradientUnits="userSpaceOnUse"><stop offset="0" stop-color="#cb236d"/><stop offset="1" stop-color="#4c246d"/></linearGradient><linearGradient id="linear-gradient-10" x1="6323.2" y1="2136.76" x2="6425.35" y2="2136.76" gradientTransform="translate(-3933.96)" gradientUnits="userSpaceOnUse"><stop offset="0" stop-color="#f9b776"/><stop offset="1" stop-color="#f47960"/></linearGradient><linearGradient id="linear-gradient-11" x1="6204.63" y1="674.43" x2="6219.35" y2="803.16" gradientTransform="translate(-3933.96)" xlink:href="#linear-gradient-9"/><linearGradient id="linear-gradient-12" x1="6203.27" y1="2143.73" x2="6418.81" y2="2143.73" xlink:href="#linear-gradient-10"/><linearGradient id="linear-gradient-13" x1="1704.32" y1="2009.16" x2="1829.38" y2="2253.76" gradientTransform="translate(808.21)" gradientUnits="userSpaceOnUse"><stop offset="0" stop-color="#2b3582"/><stop offset="1" stop-color="#150e42"/></linearGradient><linearGradient id="linear-gradient-14" x1="6055.12" y1="691.53" x2="6069.84" y2="820.27" gradientTransform="translate(-3933.96)" xlink:href="#linear-gradient-9"/><linearGradient id="linear-gradient-15" x1="6442.61" y1="1831.35" x2="6557.14" y2="2080.63" gradientTransform="translate(-3933.96)" gradientUnits="userSpaceOnUse"><stop offset="0" stop-color="#52f0c0"/><stop offset="1" stop-color="#9f71fb"/></linearGradient><linearGradient id="linear-gradient-16" x1="6445.37" y1="1847.91" x2="6434.59" y2="1778.73" xlink:href="#linear-gradient-10"/><linearGradient id="linear-gradient-17" x1="6398.77" y1="1717.54" x2="6494" y2="1782.22" xlink:href="#linear-gradient-10"/><linearGradient id="linear-gradient-18" x1="2069.24" y1="1257.54" x2="2872.78" y2="2068.77" xlink:href="#linear-gradient-9"/><linearGradient id="linear-gradient-19" x1="6404.48" y1="1709.13" x2="6499.71" y2="1773.82" xlink:href="#linear-gradient-10"/><linearGradient id="linear-gradient-20" x1="6507.26" y1="1967.69" x2="6709.74" y2="1967.69" xlink:href="#linear-gradient-10"/><linearGradient id="linear-gradient-21" x1="6468.76" y1="2261.11" x2="6499.81" y2="2065.8" gradientTransform="translate(-3933.96)" gradientUnits="userSpaceOnUse"><stop offset="0" stop-color="#53d8ff"/><stop offset="1" stop-color="#3840f7"/></linearGradient><linearGradient id="linear-gradient-22" x1="6481.21" y1="2263.09" x2="6512.26" y2="2067.78" xlink:href="#linear-gradient-21"/><linearGradient id="linear-gradient-23" x1="6457.22" y1="2259.27" x2="6488.27" y2="2063.97" xlink:href="#linear-gradient-21"/><linearGradient id="linear-gradient-24" x1="6415.29" y1="2322.36" x2="6287.83" y2="2357.29" gradientTransform="translate(-3945.17 -55.82) rotate(-2.83)" xlink:href="#linear-gradient-13"/><linearGradient id="linear-gradient-25" x1="6338.6" y1="1864.5" x2="6248.16" y2="1960.09" gradientTransform="translate(-3933.96)" xlink:href="#linear-gradient-13"/><linearGradient id="linear-gradient-26" x1="6031.3" y1="2002.35" x2="6705.49" y2="2002.35" gradientTransform="translate(-3933.96)" gradientUnits="userSpaceOnUse"><stop offset="0" stop-color="#9cfffb"/><stop offset="1" stop-color="#9bfffa"/></linearGradient><linearGradient id="linear-gradient-27" x1="6070.03" y1="2150.12" x2="6203.11" y2="2150.12" xlink:href="#linear-gradient-26"/><linearGradient id="linear-gradient-28" x1="6085.39" y1="2150.12" x2="6218.48" y2="2150.12" xlink:href="#linear-gradient-26"/><linearGradient id="linear-gradient-29" x1="6548.48" y1="2150.12" x2="6681.57" y2="2150.12" xlink:href="#linear-gradient-26"/><linearGradient id="linear-gradient-30" x1="6563.85" y1="2150.12" x2="6696.93" y2="2150.12" xlink:href="#linear-gradient-26"/><clipPath id="clip-path"><polygon id="SVGID" class="cls-1" points="984.01 1161.96 1856.19 1688.43 2678.62 1193.07 2678.62 426.16 1052.49 426.16 984.01 1161.96"/></clipPath><linearGradient id="linear-gradient-31" x1="2299.11" y1="1076.42" x2="1409.62" y2="2295.58" gradientTransform="matrix(1, 0, 0, 1, 0, 0)" xlink:href="#linear-gradient-21"/><linearGradient id="linear-gradient-32" x1="1928.47" y1="477.33" x2="1763.35" y2="2206.21" gradientTransform="matrix(1, 0, 0, 1, 0, 0)" xlink:href="#linear-gradient-21"/><linearGradient id="linear-gradient-33" x1="3186.84" y1="1190.47" x2="3191.11" y2="1190.47" gradientTransform="matrix(1, 0, 0, 1, 0, 0)" xlink:href="#linear-gradient-26"/><linearGradient id="linear-gradient-34" x1="3188.5" y1="1223.88" x2="3192.29" y2="1223.88" gradientTransform="matrix(1, 0, 0, 1, 0, 0)" xlink:href="#linear-gradient-26"/><linearGradient id="linear-gradient-35" x1="3186.47" y1="1257.28" x2="3191.41" y2="1257.28" gradientTransform="matrix(1, 0, 0, 1, 0, 0)" xlink:href="#linear-gradient-26"/><linearGradient id="linear-gradient-36" x1="3181.68" y1="1290.45" x2="3187.79" y2="1290.45" gradientTransform="matrix(1, 0, 0, 1, 0, 0)" xlink:href="#linear-gradient-26"/><linearGradient id="linear-gradient-37" x1="3174.24" y1="1323.17" x2="3181.48" y2="1323.17" gradientTransform="matrix(1, 0, 0, 1, 0, 0)" xlink:href="#linear-gradient-26"/><linearGradient id="linear-gradient-38" x1="3164.27" y1="1355.24" x2="3172.6" y2="1355.24" gradientTransform="matrix(1, 0, 0, 1, 0, 0)" xlink:href="#linear-gradient-26"/><linearGradient id="linear-gradient-39" x1="3151.87" y1="1386.51" x2="3161.27" y2="1386.51" gradientTransform="matrix(1, 0, 0, 1, 0, 0)" xlink:href="#linear-gradient-26"/><linearGradient id="linear-gradient-40" x1="3137.17" y1="1416.8" x2="3147.6" y2="1416.8" gradientTransform="matrix(1, 0, 0, 1, 0, 0)" xlink:href="#linear-gradient-26"/><linearGradient id="linear-gradient-41" x1="3120.27" y1="1445.94" x2="3131.69" y2="1445.94" gradientTransform="matrix(1, 0, 0, 1, 0, 0)" xlink:href="#linear-gradient-26"/><linearGradient id="linear-gradient-42" x1="3101.26" y1="1473.78" x2="3113.66" y2="1473.78" gradientTransform="matrix(1, 0, 0, 1, 0, 0)" xlink:href="#linear-gradient-26"/><linearGradient id="linear-gradient-43" x1="3080.24" y1="1500.16" x2="3093.58" y2="1500.16" gradientTransform="matrix(1, 0, 0, 1, 0, 0)" xlink:href="#linear-gradient-26"/><linearGradient id="linear-gradient-44" x1="3057.3" y1="1524.92" x2="3071.56" y2="1524.92" gradientTransform="matrix(1, 0, 0, 1, 0, 0)" xlink:href="#linear-gradient-26"/><linearGradient id="linear-gradient-45" x1="3032.54" y1="1547.88" x2="3047.68" y2="1547.88" gradientTransform="matrix(1, 0, 0, 1, 0, 0)" xlink:href="#linear-gradient-26"/><linearGradient id="linear-gradient-46" x1="3006.08" y1="1568.84" x2="3022.07" y2="1568.84" gradientTransform="matrix(1, 0, 0, 1, 0, 0)" xlink:href="#linear-gradient-26"/><linearGradient id="linear-gradient-47" x1="2978.07" y1="1587.61" x2="2994.81" y2="1587.61" gradientTransform="matrix(1, 0, 0, 1, 0, 0)" xlink:href="#linear-gradient-26"/><linearGradient id="linear-gradient-48" x1="2948.64" y1="1604.03" x2="2965.99" y2="1604.03" gradientTransform="matrix(1, 0, 0, 1, 0, 0)" xlink:href="#linear-gradient-26"/><linearGradient id="linear-gradient-49" x1="2917.94" y1="1617.86" x2="2935.87" y2="1617.86" gradientTransform="matrix(1, 0, 0, 1, 0, 0)" xlink:href="#linear-gradient-26"/><linearGradient id="linear-gradient-50" x1="2886.21" y1="1629.09" x2="2904.6" y2="1629.09" gradientTransform="matrix(1, 0, 0, 1, 0, 0)" xlink:href="#linear-gradient-26"/><linearGradient id="linear-gradient-51" x1="2853.73" y1="1637.79" x2="2872.52" y2="1637.79" gradientTransform="matrix(1, 0, 0, 1, 0, 0)" xlink:href="#linear-gradient-26"/><linearGradient id="linear-gradient-52" x1="2820.72" y1="1644.01" x2="2839.84" y2="1644.01" gradientTransform="matrix(1, 0, 0, 1, 0, 0)" xlink:href="#linear-gradient-26"/><linearGradient id="linear-gradient-53" x1="2787.37" y1="1647.81" x2="2806.76" y2="1647.81" gradientTransform="matrix(1, 0, 0, 1, 0, 0)" xlink:href="#linear-gradient-26"/><linearGradient id="linear-gradient-54" x1="2753.86" y1="1649.3" x2="2773.47" y2="1649.3" gradientTransform="matrix(1, 0, 0, 1, 0, 0)" xlink:href="#linear-gradient-26"/><linearGradient id="linear-gradient-55" x1="2720.34" y1="1648.55" x2="2740.13" y2="1648.55" gradientTransform="matrix(1, 0, 0, 1, 0, 0)" xlink:href="#linear-gradient-26"/><linearGradient id="linear-gradient-56" x1="2686.95" y1="1645.74" x2="2706.88" y2="1645.74" gradientTransform="matrix(1, 0, 0, 1, 0, 0)" xlink:href="#linear-gradient-26"/><linearGradient id="linear-gradient-57" x1="2653.8" y1="1640.96" x2="2673.84" y2="1640.96" gradientTransform="matrix(1, 0, 0, 1, 0, 0)" xlink:href="#linear-gradient-26"/><linearGradient id="linear-gradient-58" x1="2621" y1="1634.33" x2="2641.1" y2="1634.33" gradientTransform="matrix(1, 0, 0, 1, 0, 0)" xlink:href="#linear-gradient-26"/><linearGradient id="linear-gradient-59" x1="2588.58" y1="1625.95" x2="2608.77" y2="1625.95" gradientTransform="matrix(1, 0, 0, 1, 0, 0)" xlink:href="#linear-gradient-26"/><linearGradient id="linear-gradient-60" x1="2556.66" y1="1615.92" x2="2576.88" y2="1615.92" gradientTransform="matrix(1, 0, 0, 1, 0, 0)" xlink:href="#linear-gradient-26"/><linearGradient id="linear-gradient-61" x1="2525.29" y1="1604.31" x2="2545.52" y2="1604.31" gradientTransform="matrix(1, 0, 0, 1, 0, 0)" xlink:href="#linear-gradient-26"/><linearGradient id="linear-gradient-62" x1="2494.52" y1="1591.21" x2="2514.76" y2="1591.21" gradientTransform="matrix(1, 0, 0, 1, 0, 0)" xlink:href="#linear-gradient-26"/><linearGradient id="linear-gradient-63" x1="2464.39" y1="1576.67" x2="2484.63" y2="1576.67" gradientTransform="matrix(1, 0, 0, 1, 0, 0)" xlink:href="#linear-gradient-26"/><linearGradient id="linear-gradient-64" x1="2435.08" y1="1560.77" x2="2455.17" y2="1560.77" gradientTransform="matrix(1, 0, 0, 1, 0, 0)" xlink:href="#linear-gradient-26"/><linearGradient id="linear-gradient-65" x1="2406.42" y1="1543.65" x2="2426.38" y2="1543.65" gradientTransform="matrix(1, 0, 0, 1, 0, 0)" xlink:href="#linear-gradient-26"/><linearGradient id="linear-gradient-66" x1="2378.42" y1="1525.47" x2="2398.24" y2="1525.47" gradientTransform="matrix(1, 0, 0, 1, 0, 0)" xlink:href="#linear-gradient-26"/><linearGradient id="linear-gradient-67" x1="2351.08" y1="1506.31" x2="2370.77" y2="1506.31" gradientTransform="matrix(1, 0, 0, 1, 0, 0)" xlink:href="#linear-gradient-26"/><linearGradient id="linear-gradient-68" x1="2324.37" y1="1486.27" x2="2343.93" y2="1486.27" gradientTransform="matrix(1, 0, 0, 1, 0, 0)" xlink:href="#linear-gradient-26"/><linearGradient id="linear-gradient-69" x1="2298.26" y1="1465.45" x2="2317.7" y2="1465.45" gradientTransform="matrix(1, 0, 0, 1, 0, 0)" xlink:href="#linear-gradient-26"/><linearGradient id="linear-gradient-70" x1="2272.71" y1="1443.93" x2="2292.05" y2="1443.93" gradientTransform="matrix(1, 0, 0, 1, 0, 0)" xlink:href="#linear-gradient-26"/><linearGradient id="linear-gradient-71" x1="2247.68" y1="1421.8" x2="2266.93" y2="1421.8" gradientTransform="matrix(1, 0, 0, 1, 0, 0)" xlink:href="#linear-gradient-26"/><linearGradient id="linear-gradient-72" x1="2223.14" y1="1399.14" x2="2242.3" y2="1399.14" gradientTransform="matrix(1, 0, 0, 1, 0, 0)" xlink:href="#linear-gradient-26"/><linearGradient id="linear-gradient-73" x1="2199.01" y1="1376.02" x2="2218.12" y2="1376.02" gradientTransform="matrix(1, 0, 0, 1, 0, 0)" xlink:href="#linear-gradient-26"/><linearGradient id="linear-gradient-74" x1="2175.23" y1="1352.5" x2="2194.3" y2="1352.5" gradientTransform="matrix(1, 0, 0, 1, 0, 0)" xlink:href="#linear-gradient-26"/><linearGradient id="linear-gradient-75" x1="2151.78" y1="1328.66" x2="2170.82" y2="1328.66" gradientTransform="matrix(1, 0, 0, 1, 0, 0)" xlink:href="#linear-gradient-26"/><linearGradient id="linear-gradient-76" x1="2128.58" y1="1304.56" x2="2147.61" y2="1304.56" gradientTransform="matrix(1, 0, 0, 1, 0, 0)" xlink:href="#linear-gradient-26"/><linearGradient id="linear-gradient-77" x1="2105.58" y1="1280.26" x2="2124.61" y2="1280.26" gradientTransform="matrix(1, 0, 0, 1, 0, 0)" xlink:href="#linear-gradient-26"/><linearGradient id="linear-gradient-78" x1="2082.71" y1="1255.82" x2="2101.77" y2="1255.82" gradientTransform="matrix(1, 0, 0, 1, 0, 0)" xlink:href="#linear-gradient-26"/><linearGradient id="linear-gradient-79" x1="2059.92" y1="1231.3" x2="2079.03" y2="1231.3" gradientTransform="matrix(1, 0, 0, 1, 0, 0)" xlink:href="#linear-gradient-26"/><linearGradient id="linear-gradient-80" x1="2037.13" y1="1206.78" x2="2056.31" y2="1206.78" gradientTransform="matrix(1, 0, 0, 1, 0, 0)" xlink:href="#linear-gradient-26"/><linearGradient id="linear-gradient-81" x1="2014.28" y1="1182.31" x2="2033.55" y2="1182.31" gradientTransform="matrix(1, 0, 0, 1, 0, 0)" xlink:href="#linear-gradient-26"/><linearGradient id="linear-gradient-82" x1="1991.31" y1="1157.95" x2="2010.69" y2="1157.95" gradientTransform="matrix(1, 0, 0, 1, 0, 0)" xlink:href="#linear-gradient-26"/><linearGradient id="linear-gradient-83" x1="1968.15" y1="1133.76" x2="1987.67" y2="1133.76" gradientTransform="matrix(1, 0, 0, 1, 0, 0)" xlink:href="#linear-gradient-26"/><linearGradient id="linear-gradient-84" x1="1944.75" y1="1109.8" x2="1964.41" y2="1109.8" gradientTransform="matrix(1, 0, 0, 1, 0, 0)" xlink:href="#linear-gradient-26"/><linearGradient id="linear-gradient-85" x1="1921.04" y1="1086.13" x2="1940.86" y2="1086.13" gradientTransform="matrix(1, 0, 0, 1, 0, 0)" xlink:href="#linear-gradient-26"/><linearGradient id="linear-gradient-86" x1="1896.96" y1="1062.82" x2="1916.97" y2="1062.82" gradientTransform="matrix(1, 0, 0, 1, 0, 0)" xlink:href="#linear-gradient-26"/><linearGradient id="linear-gradient-87" x1="1872.52" y1="1039.95" x2="1892.65" y2="1039.95" gradientTransform="matrix(1, 0, 0, 1, 0, 0)" xlink:href="#linear-gradient-26"/><linearGradient id="linear-gradient-88" x1="1847.61" y1="1017.57" x2="1867.83" y2="1017.57" gradientTransform="matrix(1, 0, 0, 1, 0, 0)" xlink:href="#linear-gradient-26"/><linearGradient id="linear-gradient-89" x1="1822.19" y1="995.78" x2="1842.52" y2="995.78" gradientTransform="matrix(1, 0, 0, 1, 0, 0)" xlink:href="#linear-gradient-26"/><linearGradient id="linear-gradient-90" x1="1796.22" y1="974.67" x2="1816.68" y2="974.67" gradientTransform="matrix(1, 0, 0, 1, 0, 0)" xlink:href="#linear-gradient-26"/><linearGradient id="linear-gradient-91" x1="1769.64" y1="954.29" x2="1790.24" y2="954.29" gradientTransform="matrix(1, 0, 0, 1, 0, 0)" xlink:href="#linear-gradient-26"/><linearGradient id="linear-gradient-92" x1="1742.43" y1="934.76" x2="1763.18" y2="934.76" gradientTransform="matrix(1, 0, 0, 1, 0, 0)" xlink:href="#linear-gradient-26"/><linearGradient id="linear-gradient-93" x1="1714.57" y1="916.14" x2="1735.48" y2="916.14" gradientTransform="matrix(1, 0, 0, 1, 0, 0)" xlink:href="#linear-gradient-26"/><linearGradient id="linear-gradient-94" x1="1686.05" y1="898.55" x2="1707.1" y2="898.55" gradientTransform="matrix(1, 0, 0, 1, 0, 0)" xlink:href="#linear-gradient-26"/><linearGradient id="linear-gradient-95" x1="1656.91" y1="882.03" x2="1678.09" y2="882.03" gradientTransform="matrix(1, 0, 0, 1, 0, 0)" xlink:href="#linear-gradient-26"/><linearGradient id="linear-gradient-96" x1="1627.19" y1="866.58" x2="1648.5" y2="866.58" gradientTransform="matrix(1, 0, 0, 1, 0, 0)" xlink:href="#linear-gradient-26"/><linearGradient id="linear-gradient-97" x1="1596.95" y1="852.21" x2="1618.36" y2="852.21" gradientTransform="matrix(1, 0, 0, 1, 0, 0)" xlink:href="#linear-gradient-26"/><linearGradient id="linear-gradient-98" x1="1566.21" y1="838.94" x2="1587.72" y2="838.94" gradientTransform="matrix(1, 0, 0, 1, 0, 0)" xlink:href="#linear-gradient-26"/><linearGradient id="linear-gradient-99" x1="1535.02" y1="826.78" x2="1556.61" y2="826.78" gradientTransform="matrix(1, 0, 0, 1, 0, 0)" xlink:href="#linear-gradient-26"/><linearGradient id="linear-gradient-100" x1="1503.42" y1="815.72" x2="1525.08" y2="815.72" gradientTransform="matrix(1, 0, 0, 1, 0, 0)" xlink:href="#linear-gradient-26"/><linearGradient id="linear-gradient-101" x1="1471.45" y1="805.79" x2="1493.17" y2="805.79" gradientTransform="matrix(1, 0, 0, 1, 0, 0)" xlink:href="#linear-gradient-26"/><linearGradient id="linear-gradient-102" x1="1439.16" y1="796.98" x2="1460.92" y2="796.98" gradientTransform="matrix(1, 0, 0, 1, 0, 0)" xlink:href="#linear-gradient-26"/><linearGradient id="linear-gradient-103" x1="1406.58" y1="789.32" x2="1428.37" y2="789.32" gradientTransform="matrix(1, 0, 0, 1, 0, 0)" xlink:href="#linear-gradient-26"/><linearGradient id="linear-gradient-104" x1="1373.75" y1="782.8" x2="1395.57" y2="782.8" gradientTransform="matrix(1, 0, 0, 1, 0, 0)" xlink:href="#linear-gradient-26"/><linearGradient id="linear-gradient-105" x1="1340.73" y1="777.44" x2="1362.55" y2="777.44" gradientTransform="matrix(1, 0, 0, 1, 0, 0)" xlink:href="#linear-gradient-26"/><linearGradient id="linear-gradient-106" x1="1307.55" y1="773.25" x2="1329.37" y2="773.25" gradientTransform="matrix(1, 0, 0, 1, 0, 0)" xlink:href="#linear-gradient-26"/><linearGradient id="linear-gradient-107" x1="1274.25" y1="770.23" x2="1296.05" y2="770.23" gradientTransform="matrix(1, 0, 0, 1, 0, 0)" xlink:href="#linear-gradient-26"/><linearGradient id="linear-gradient-108" x1="1240.86" y1="768.4" x2="1262.63" y2="768.4" gradientTransform="matrix(1, 0, 0, 1, 0, 0)" xlink:href="#linear-gradient-26"/><linearGradient id="linear-gradient-109" x1="1207.45" y1="767.76" x2="1229.18" y2="767.76" gradientTransform="matrix(1, 0, 0, 1, 0, 0)" xlink:href="#linear-gradient-26"/><linearGradient id="linear-gradient-110" x1="1174.04" y1="768.31" x2="1195.71" y2="768.31" gradientTransform="matrix(1, 0, 0, 1, 0, 0)" xlink:href="#linear-gradient-26"/><linearGradient id="linear-gradient-111" x1="1140.68" y1="770.09" x2="1162.29" y2="770.09" gradientTransform="matrix(1, 0, 0, 1, 0, 0)" xlink:href="#linear-gradient-26"/><linearGradient id="linear-gradient-112" x1="1107.42" y1="773.08" x2="1128.94" y2="773.08" gradientTransform="matrix(1, 0, 0, 1, 0, 0)" xlink:href="#linear-gradient-26"/><linearGradient id="linear-gradient-113" x1="1074.29" y1="777.31" x2="1095.72" y2="777.31" gradientTransform="matrix(1, 0, 0, 1, 0, 0)" xlink:href="#linear-gradient-26"/><linearGradient id="linear-gradient-114" x1="1041.36" y1="782.81" x2="1062.68" y2="782.81" gradientTransform="matrix(1, 0, 0, 1, 0, 0)" xlink:href="#linear-gradient-26"/><linearGradient id="linear-gradient-115" x1="1008.71" y1="789.7" x2="1029.89" y2="789.7" gradientTransform="matrix(1, 0, 0, 1, 0, 0)" xlink:href="#linear-gradient-26"/><linearGradient id="linear-gradient-116" x1="976.41" y1="798.07" x2="997.43" y2="798.07" gradientTransform="matrix(1, 0, 0, 1, 0, 0)" xlink:href="#linear-gradient-26"/><linearGradient id="linear-gradient-117" x1="944.62" y1="807.99" x2="965.38" y2="807.99" gradientTransform="matrix(1, 0, 0, 1, 0, 0)" xlink:href="#linear-gradient-26"/><linearGradient id="linear-gradient-118" x1="913.42" y1="819.58" x2="933.85" y2="819.58" gradientTransform="matrix(1, 0, 0, 1, 0, 0)" xlink:href="#linear-gradient-26"/><linearGradient id="linear-gradient-119" x1="882.95" y1="832.93" x2="903" y2="832.93" gradientTransform="matrix(1, 0, 0, 1, 0, 0)" xlink:href="#linear-gradient-26"/><linearGradient id="linear-gradient-120" x1="853.4" y1="848.15" x2="873" y2="848.15" gradientTransform="matrix(1, 0, 0, 1, 0, 0)" xlink:href="#linear-gradient-26"/><linearGradient id="linear-gradient-121" x1="824.97" y1="865.35" x2="844.07" y2="865.35" gradientTransform="matrix(1, 0, 0, 1, 0, 0)" xlink:href="#linear-gradient-26"/><linearGradient id="linear-gradient-122" x1="797.92" y1="884.6" x2="816.43" y2="884.6" gradientTransform="matrix(1, 0, 0, 1, 0, 0)" xlink:href="#linear-gradient-26"/><linearGradient id="linear-gradient-123" x1="772.52" y1="905.94" x2="790.35" y2="905.94" gradientTransform="matrix(1, 0, 0, 1, 0, 0)" xlink:href="#linear-gradient-26"/><linearGradient id="linear-gradient-124" x1="749.05" y1="929.37" x2="766.12" y2="929.37" gradientTransform="matrix(1, 0, 0, 1, 0, 0)" xlink:href="#linear-gradient-26"/><linearGradient id="linear-gradient-125" x1="727.82" y1="954.83" x2="744.03" y2="954.83" gradientTransform="matrix(1, 0, 0, 1, 0, 0)" xlink:href="#linear-gradient-26"/><linearGradient id="linear-gradient-126" x1="709.27" y1="982.31" x2="724.48" y2="982.31" gradientTransform="matrix(1, 0, 0, 1, 0, 0)" xlink:href="#linear-gradient-26"/><linearGradient id="linear-gradient-127" x1="693.56" y1="1011.54" x2="707.76" y2="1011.54" gradientTransform="matrix(1, 0, 0, 1, 0, 0)" xlink:href="#linear-gradient-26"/><linearGradient id="linear-gradient-128" x1="680.73" y1="1042.2" x2="693.9" y2="1042.2" gradientTransform="matrix(1, 0, 0, 1, 0, 0)" xlink:href="#linear-gradient-26"/><linearGradient id="linear-gradient-129" x1="670.78" y1="1073.94" x2="682.92" y2="1073.94" gradientTransform="matrix(1, 0, 0, 1, 0, 0)" xlink:href="#linear-gradient-26"/><linearGradient id="linear-gradient-130" x1="663.7" y1="1106.5" x2="674.82" y2="1106.5" gradientTransform="matrix(1, 0, 0, 1, 0, 0)" xlink:href="#linear-gradient-26"/><linearGradient id="linear-gradient-131" x1="659.46" y1="1139.6" x2="669.57" y2="1139.6" gradientTransform="matrix(1, 0, 0, 1, 0, 0)" xlink:href="#linear-gradient-26"/><linearGradient id="linear-gradient-132" x1="658.04" y1="1172.98" x2="667.15" y2="1172.98" gradientTransform="matrix(1, 0, 0, 1, 0, 0)" xlink:href="#linear-gradient-26"/><linearGradient id="linear-gradient-133" x1="658.71" y1="1206.4" x2="668.21" y2="1206.4" gradientTransform="matrix(1, 0, 0, 1, 0, 0)" xlink:href="#linear-gradient-26"/><linearGradient id="linear-gradient-134" x1="662.04" y1="1239.63" x2="672.24" y2="1239.63" gradientTransform="matrix(1, 0, 0, 1, 0, 0)" xlink:href="#linear-gradient-26"/><linearGradient id="linear-gradient-135" x1="668.17" y1="1272.43" x2="679.07" y2="1272.43" gradientTransform="matrix(1, 0, 0, 1, 0, 0)" xlink:href="#linear-gradient-26"/><linearGradient id="linear-gradient-136" x1="677.1" y1="1304.55" x2="688.72" y2="1304.55" gradientTransform="matrix(1, 0, 0, 1, 0, 0)" xlink:href="#linear-gradient-26"/><linearGradient id="linear-gradient-137" x1="688.85" y1="1335.71" x2="701.16" y2="1335.71" gradientTransform="matrix(1, 0, 0, 1, 0, 0)" xlink:href="#linear-gradient-26"/><linearGradient id="linear-gradient-138" x1="703.4" y1="1365.63" x2="716.42" y2="1365.63" gradientTransform="matrix(1, 0, 0, 1, 0, 0)" xlink:href="#linear-gradient-26"/><linearGradient id="linear-gradient-139" x1="720.79" y1="1393.98" x2="734.4" y2="1393.98" gradientTransform="matrix(1, 0, 0, 1, 0, 0)" xlink:href="#linear-gradient-26"/><linearGradient id="linear-gradient-140" x1="740.93" y1="1420.45" x2="755.08" y2="1420.45" gradientTransform="matrix(1, 0, 0, 1, 0, 0)" xlink:href="#linear-gradient-26"/><linearGradient id="linear-gradient-141" x1="763.68" y1="1444.71" x2="778.34" y2="1444.71" gradientTransform="matrix(1, 0, 0, 1, 0, 0)" xlink:href="#linear-gradient-26"/><linearGradient id="linear-gradient-142" x1="788.84" y1="1466.51" x2="803.89" y2="1466.51" gradientTransform="matrix(1, 0, 0, 1, 0, 0)" xlink:href="#linear-gradient-26"/><linearGradient id="linear-gradient-143" x1="816.06" y1="1485.72" x2="831.4" y2="1485.72" gradientTransform="matrix(1, 0, 0, 1, 0, 0)" xlink:href="#linear-gradient-26"/><linearGradient id="linear-gradient-144" x1="845.02" y1="1502.24" x2="860.56" y2="1502.24" gradientTransform="matrix(1, 0, 0, 1, 0, 0)" xlink:href="#linear-gradient-26"/><linearGradient id="linear-gradient-145" x1="875.42" y1="1516.05" x2="891.06" y2="1516.05" gradientTransform="matrix(1, 0, 0, 1, 0, 0)" xlink:href="#linear-gradient-26"/><linearGradient id="linear-gradient-146" x1="906.94" y1="1527.12" x2="922.62" y2="1527.12" gradientTransform="matrix(1, 0, 0, 1, 0, 0)" xlink:href="#linear-gradient-26"/><linearGradient id="linear-gradient-147" x1="939.36" y1="1535.44" x2="954.98" y2="1535.44" gradientTransform="matrix(1, 0, 0, 1, 0, 0)" xlink:href="#linear-gradient-26"/><linearGradient id="linear-gradient-148" x1="972.4" y1="1541" x2="987.89" y2="1541" gradientTransform="matrix(1, 0, 0, 1, 0, 0)" xlink:href="#linear-gradient-26"/><linearGradient id="linear-gradient-149" x1="1005.81" y1="1543.77" x2="1021.11" y2="1543.77" gradientTransform="matrix(1, 0, 0, 1, 0, 0)" xlink:href="#linear-gradient-26"/><linearGradient id="linear-gradient-150" x1="1039.38" y1="1543.78" x2="1054.41" y2="1543.78" gradientTransform="matrix(1, 0, 0, 1, 0, 0)" xlink:href="#linear-gradient-26"/><linearGradient id="linear-gradient-151" x1="1072.86" y1="1540.9" x2="1087.57" y2="1540.9" gradientTransform="matrix(1, 0, 0, 1, 0, 0)" xlink:href="#linear-gradient-26"/><linearGradient id="linear-gradient-152" x1="1106.04" y1="1535.13" x2="1120.31" y2="1535.13" gradientTransform="matrix(1, 0, 0, 1, 0, 0)" xlink:href="#linear-gradient-26"/><linearGradient id="linear-gradient-153" x1="1138.57" y1="1526.43" x2="1152.32" y2="1526.43" gradientTransform="matrix(1, 0, 0, 1, 0, 0)" xlink:href="#linear-gradient-26"/><linearGradient id="linear-gradient-154" x1="1170.19" y1="1514.78" x2="1183.36" y2="1514.78" gradientTransform="matrix(1, 0, 0, 1, 0, 0)" xlink:href="#linear-gradient-26"/><linearGradient id="linear-gradient-155" x1="1200.6" y1="1500.15" x2="1213.07" y2="1500.15" gradientTransform="matrix(1, 0, 0, 1, 0, 0)" xlink:href="#linear-gradient-26"/><linearGradient id="linear-gradient-156" x1="1229.46" y1="1483.22" x2="1239.35" y2="1483.22" gradientTransform="matrix(1, 0, 0, 1, 0, 0)" xlink:href="#linear-gradient-26"/><linearGradient id="linear-gradient-157" x1="2933.26" y1="1235.13" x2="3148.99" y2="2137.68" gradientTransform="matrix(1, 0, 0, 1, 0, 0)" xlink:href="#linear-gradient-21"/><linearGradient id="linear-gradient-158" x1="3264.01" y1="2466.9" x2="3267.65" y2="2357.71" gradientTransform="translate(-43.11)" gradientUnits="userSpaceOnUse"><stop offset="0" stop-color="#7c27dd"/><stop offset="1" stop-color="#2b41d9"/></linearGradient><linearGradient id="linear-gradient-159" x1="3393.74" y1="2187.47" x2="3168.78" y2="2364.1" gradientTransform="translate(-43.11)" xlink:href="#linear-gradient-21"/><linearGradient id="linear-gradient-160" x1="1411.82" y1="2190.17" x2="1399.61" y2="2296.73" gradientTransform="matrix(-1, 0, 0, 1, 4628.39, 0)" xlink:href="#linear-gradient-10"/><linearGradient id="linear-gradient-161" x1="1619.12" y1="2239.89" x2="1401.58" y2="2410.7" gradientTransform="matrix(-1, 0, 0, 1, 4628.39, 0)" xlink:href="#linear-gradient-21"/><linearGradient id="linear-gradient-162" x1="1556.38" y1="2534.42" x2="1560.02" y2="2425.23" gradientTransform="matrix(-1, 0, 0, 1, 4628.39, 0)" xlink:href="#linear-gradient-158"/><linearGradient id="linear-gradient-163" x1="1540.44" y1="2203.8" x2="1529.02" y2="2303.48" gradientTransform="matrix(-1, 0, 0, 1, 4628.39, 0)" xlink:href="#linear-gradient-10"/><linearGradient id="linear-gradient-164" x1="3484.1" y1="2200.61" x2="3497.8" y2="1771.28" gradientTransform="matrix(-1, 0, 0, 1, 6642.55, 0)" gradientUnits="userSpaceOnUse"><stop offset="0" stop-color="#2c759e"/><stop offset="1" stop-color="#051042"/></linearGradient><linearGradient id="linear-gradient-165" x1="3077.41" y1="1200.75" x2="3293.11" y2="2103.19" gradientTransform="matrix(1, 0, 0, 1, 0, 0)" xlink:href="#linear-gradient-21"/><linearGradient id="linear-gradient-166" x1="-391.32" y1="1506.54" x2="-336.56" y2="1506.54" gradientTransform="matrix(-1, 0, 0, 1, 2816.55, 0)" xlink:href="#linear-gradient-10"/><linearGradient id="linear-gradient-167" x1="3158.27" y1="1181.43" x2="3373.98" y2="2083.87" gradientTransform="matrix(1, 0, 0, 1, 0, 0)" xlink:href="#linear-gradient-21"/><linearGradient id="linear-gradient-168" x1="-377.99" y1="1794.03" x2="-475.43" y2="1877.26" gradientTransform="matrix(-1, 0, 0, 1, 2816.55, 0)" xlink:href="#linear-gradient-10"/><linearGradient id="linear-gradient-169" x1="-5930.54" y1="648.8" x2="-5966.31" y2="686.61" gradientTransform="matrix(0.96, 0.29, -0.37, 1.22, 8912.54, 2414.65)" xlink:href="#linear-gradient-13"/><linearGradient id="linear-gradient-170" x1="2941.61" y1="1495.41" x2="2945.63" y2="1560.82" gradientTransform="matrix(1, 0, 0, 1, 0, 0)" xlink:href="#linear-gradient-10"/><linearGradient id="linear-gradient-171" x1="-4412.29" y1="-2861.06" x2="-4498.22" y2="-2747.39" gradientTransform="matrix(-0.99, -0.16, -0.16, 0.99, -1670.34, 3565.06)" xlink:href="#linear-gradient-10"/><linearGradient id="linear-gradient-172" x1="-4477.91" y1="-2833.76" x2="-4375.28" y2="-2833.76" gradientTransform="matrix(-0.99, -0.16, -0.16, 0.99, -1670.34, 3565.06)" xlink:href="#linear-gradient-13"/><linearGradient id="linear-gradient-173" x1="-4536.2" y1="-2772.36" x2="-4468.72" y2="-2841.59" gradientTransform="matrix(-0.99, -0.16, -0.16, 0.99, -1670.34, 3565.06)" xlink:href="#linear-gradient-10"/><linearGradient id="linear-gradient-174" x1="2433.85" y1="1938.06" x2="2368.67" y2="2258.28" gradientTransform="matrix(1, 0, 0, 1, 0, 0)" xlink:href="#linear-gradient-21"/><linearGradient id="linear-gradient-175" x1="-739.77" y1="1453.36" x2="-872.28" y2="1649.51" gradientTransform="matrix(-1, 0, 0, 1, 1493, 0)" xlink:href="#linear-gradient-21"/><linearGradient id="linear-gradient-176" x1="2485.68" y1="1429.48" x2="2492.06" y2="1565.91" gradientTransform="matrix(1, 0, 0, 1, 0, 0)" xlink:href="#linear-gradient-21"/><linearGradient id="linear-gradient-177" x1="-4900.72" y1="1847.83" x2="-4429.92" y2="1847.83" gradientTransform="matrix(-1, -0.02, -0.02, 1, -3632.7, -79.51)" xlink:href="#linear-gradient-13"/><linearGradient id="linear-gradient-178" x1="-4543.8" y1="1660.67" x2="-5513.49" y2="2901.15" gradientTransform="matrix(-1, -0.02, -0.02, 1, -3632.7, -79.51)" xlink:href="#linear-gradient-21"/><linearGradient id="linear-gradient-179" x1="987.32" y1="1547.14" x2="994.82" y2="2062.12" gradientTransform="translate(1595.2 -160.76) rotate(45)" xlink:href="#linear-gradient-21"/><linearGradient id="linear-gradient-180" x1="1854.08" y1="2199.63" x2="1554.22" y2="2525.8" gradientTransform="translate(-1198.53)" xlink:href="#linear-gradient-13"/><linearGradient id="linear-gradient-181" x1="1756.75" y1="2223.86" x2="1783.39" y2="2223.86" gradientTransform="translate(-1198.53)" xlink:href="#linear-gradient-10"/><linearGradient id="linear-gradient-182" x1="1708.5" y1="2200.18" x2="1767.35" y2="1858.25" gradientTransform="translate(-1198.53)" xlink:href="#linear-gradient-13"/><linearGradient id="linear-gradient-183" x1="1786.81" y1="2137.79" x2="1486.95" y2="2463.96" gradientTransform="translate(-1198.53)" xlink:href="#linear-gradient-13"/><linearGradient id="linear-gradient-184" x1="1660.76" y1="2222.49" x2="1683.76" y2="2222.49" gradientTransform="translate(-1198.53)" xlink:href="#linear-gradient-10"/><linearGradient id="linear-gradient-185" x1="1641.95" y1="2188.72" x2="1700.8" y2="1846.8" gradientTransform="translate(-1198.53)" xlink:href="#linear-gradient-13"/><linearGradient id="linear-gradient-186" x1="1600.42" y1="1777.53" x2="2019.53" y2="1475.91" gradientTransform="translate(-1198.53)" xlink:href="#linear-gradient-7"/><linearGradient id="linear-gradient-187" x1="1866.36" y1="1528.97" x2="2002.43" y2="1528.97" gradientTransform="translate(-1198.53)" xlink:href="#linear-gradient-10"/><linearGradient id="linear-gradient-188" x1="8473.66" y1="1506.16" x2="8564.97" y2="1713.92" gradientTransform="matrix(-1, 0, 0, 1, 9247.25, 0)" xlink:href="#linear-gradient-10"/><linearGradient id="linear-gradient-189" x1="2001.78" y1="1436.97" x2="2039.88" y2="1378.39" gradientTransform="translate(-1198.53)" xlink:href="#linear-gradient-10"/><linearGradient id="linear-gradient-190" x1="1544.93" y1="1700.44" x2="1964.05" y2="1398.81" gradientTransform="translate(-1198.53)" xlink:href="#linear-gradient-7"/><linearGradient id="linear-gradient-191" x1="1700.82" y1="1537.62" x2="1768.91" y2="1537.62" gradientTransform="translate(-1198.53)" xlink:href="#linear-gradient-10"/><linearGradient id="linear-gradient-192" x1="-4430.9" y1="-665.94" x2="-4456.34" y2="-749.86" gradientTransform="matrix(0.75, -0.67, 0.67, 0.75, 4335.47, -959.43)" xlink:href="#linear-gradient-10"/><linearGradient id="linear-gradient-193" x1="161.01" y1="-5987.25" x2="370.22" y2="-6226.1" gradientTransform="matrix(0.75, -0.67, 0.67, 0.75, 4335.47, -959.43)" xlink:href="#linear-gradient-13"/><linearGradient id="linear-gradient-194" x1="-4456.9" y1="-666.33" x2="-4479.8" y2="-741.83" gradientTransform="matrix(0.75, -0.67, 0.67, 0.75, 4335.47, -959.43)" xlink:href="#linear-gradient-10"/><linearGradient id="linear-gradient-195" x1="1709.15" y1="1818" x2="1568.97" y2="1705.86" gradientTransform="translate(-1198.53)" xlink:href="#linear-gradient-10"/><linearGradient id="linear-gradient-196" x1="-8246.67" y1="1405.74" x2="-8282.44" y2="1443.55" gradientTransform="matrix(0.96, 0.29, -0.37, 1.22, 8912.54, 2414.65)" xlink:href="#linear-gradient-13"/><linearGradient id="linear-gradient-197" x1="461.45" y1="1768.04" x2="435.47" y2="1787.44" gradientTransform="matrix(1, 0, 0, 1, 0, 0)" xlink:href="#linear-gradient-10"/></defs><g class="cls-2"><g id="Layer_1" data-name="Layer 1"><path class="cls-3" d="M129.52,1154.36c40.95,72.46,106,133.4,156.17,201.15,144.89,195.77-5.86,424.85,60.26,635.89C403.57,2175.28,643.2,2224.57,818.36,2232c295.16,12.58,590-6.26,874.55-86.32,197.47-55.55,395.2-128.27,603.34-132.68,212.77-4.5,412.91,80.92,618.47,121.32,225.71,44.36,495.68-3.81,550.1-255.86,33.71-156.16-57.05-300-65.54-453.71-11.25-203.53,191.66-315.23,217.92-505.51,16.55-120-45.3-227.16-126-314-85.15-91.58-199.65-172.5-331-180-137.32-7.86-259.87,64.24-388.2,98.66-360.66,96.72-565.38-225.87-897.29-270.87-149.68-20.3-333.64-10.66-469.55,59-126.38,64.79-187.71,208.73-329.46,251-150,44.73-287.33-44.67-429.91-73.23-147.55-29.56-287.11,22.91-379.47,138C176.76,739.39,79.87,886.34,91,1033.65,94.36,1078.38,108.87,1117.83,129.52,1154.36Z"/><path class="cls-4" d="M3582,1086.23c-39.35,75.34-101.89,138.71-150.08,209.15-139.24,203.56,5.63,441.77-57.92,661.21-55.37,191.2-285.66,242.45-454,250.21-283.65,13.08-567-6.51-840.47-89.75-189.77-57.76-379.79-133.39-579.82-138-204.48-4.68-396.83,84.14-594.37,126.15-216.92,46.12-476.36-4-528.66-266.06-32.4-162.37,54.82-311.9,63-471.76,10.81-211.64-184.19-327.79-209.42-525.64C214.33,717,273.77,605.57,351.33,515.32,433.15,420.09,543.19,336,669.45,328.13c132-8.18,249.73,66.8,373.07,102.58,346.6,100.58,543.35-234.86,862.32-281.65C2048.69,128,2225.48,138,2356.1,210.43c121.45,67.37,180.38,217,316.62,261,144.19,46.51,276.13-46.45,413.15-76.15,141.8-30.74,275.93,23.82,364.68,143.46,86,116,179.17,268.81,168.49,422C3615.79,1007.22,3601.84,1048.25,3582,1086.23Z"/><path class="cls-5" d="M1032.51,2187.86c-88,17.59-200.34-78.33-236.54-183.13-37.25-107.84,31-153,30.52-302.67-.6-170-89-195.62-147.52-424.76-13.2-51.7-89.57-350.88,5.09-407,87.51-51.85,333.34,97,376.43,287.42,30.72,135.8-64.25,192.82-28,351,31.83,138.79,115.47,140.8,147.52,274.7C1219.05,1946.46,1148,2164.76,1032.51,2187.86Z"/><path class="cls-6" d="M1026.12,2229.05c23.72-183.16-22.55-465.73-65.54-670.53C914,1336.8,861.2,1155.94,860.67,1154.14l-7.32,2.15c.53,1.8,53.29,182.41,99.77,403.85,42.87,204.2,89,485.84,65.43,667.93Z"/><path class="cls-7" d="M931.18,2167.41c115.42-60.13,154.92-266.63,89.32-333.75-44.33-45.35-107.9,2.35-169.23-44.65C773,1729,830.57,1616,769,1469.36,716.62,1344.6,591,1226.55,517.52,1250.78c-76.87,25.35-117.36,213.48-51.71,326.69,42.69,73.63,108,77.25,122.22,145.73,16.45,79.45-63,115.69-63.46,192.72C523.79,2054.3,778.5,2247,931.18,2167.41Z"/><path class="cls-6" d="M868.9,2220.3a4.72,4.72,0,0,0,4.23-6.76c-153-315.29-197.88-681-198.31-684.71a4.7,4.7,0,0,0-9.34,1.11c.44,3.68,45.5,371,199.19,687.71A4.71,4.71,0,0,0,868.9,2220.3Z"/><path class="cls-8" d="M555,1623.55a2.22,2.22,0,0,0,1.38-.47,2.25,2.25,0,0,0,.4-3.15c-48.3-62-101.83-155.13-82.56-246.78,11.48-54.59,43.78-83.06,44.1-83.34a2.25,2.25,0,1,0-2.94-3.4c-1.37,1.19-33.77,29.76-45.56,85.81-10.83,51.52-5.15,136.79,83.41,250.47A2.23,2.23,0,0,0,555,1623.55Z"/><path class="cls-8" d="M941.59,2139.88a2.23,2.23,0,0,0,1.85-1c74.22-108.32,99.53-192,75.23-248.77-21.61-50.45-76.17-59.84-76.72-59.93a2.24,2.24,0,1,0-.72,4.43c.52.09,52.73,9.14,73.33,57.33,23.62,55.24-1.55,137.47-74.82,244.4a2.26,2.26,0,0,0,.58,3.13A2.28,2.28,0,0,0,941.59,2139.88Z"/><path class="cls-9" d="M2696.42,2187.86c88,17.59,200.35-78.33,236.54-183.13,37.25-107.84-31.05-153-30.52-302.67.6-170,89-195.62,147.52-424.76,13.2-51.7,89.57-350.88-5.09-407-87.51-51.85-333.34,97-376.43,287.42-30.72,135.8,64.25,192.82,28,351-31.83,138.79-115.47,140.8-147.52,274.7C2509.88,1946.46,2580.89,2164.76,2696.42,2187.86Z"/><path class="cls-6" d="M2702.81,2229.05c-23.72-183.16,22.55-465.73,65.54-670.53,46.55-221.72,99.38-402.58,99.91-404.38l7.32,2.15c-.53,1.8-53.29,182.41-99.77,403.85-42.87,204.2-89,485.84-65.43,667.93Z"/><path class="cls-10" d="M2797.75,2167.41c-115.42-60.13-154.92-266.63-89.31-333.75,44.32-45.35,107.89,2.35,169.22-44.65,78.3-60,20.7-173.06,82.26-319.65,52.39-124.76,178.06-242.81,251.49-218.58,76.87,25.35,117.36,213.48,51.71,326.69-42.69,73.63-108,77.25-122.22,145.73-16.45,79.45,63,115.69,63.46,192.72C3205.14,2054.3,2950.43,2247,2797.75,2167.41Z"/><path class="cls-6" d="M2860,2220.3a4.72,4.72,0,0,1-4.23-6.76c153-315.29,197.88-681,198.31-684.71a4.7,4.7,0,0,1,9.34,1.11c-.44,3.68-45.5,371-199.19,687.71A4.71,4.71,0,0,1,2860,2220.3Z"/><path class="cls-8" d="M3174,1623.55a2.22,2.22,0,0,1-1.38-.47,2.25,2.25,0,0,1-.4-3.15c48.3-62,101.83-155.13,82.56-246.78-11.47-54.59-43.78-83.06-44.1-83.34a2.25,2.25,0,0,1,2.94-3.4c1.37,1.19,33.77,29.76,45.56,85.81,10.83,51.52,5.15,136.79-83.41,250.47A2.23,2.23,0,0,1,3174,1623.55Z"/><path class="cls-8" d="M2787.34,2139.88a2.23,2.23,0,0,1-1.85-1c-74.22-108.32-99.53-192-75.23-248.77,21.61-50.45,76.17-59.84,76.72-59.93a2.24,2.24,0,1,1,.72,4.43c-.52.09-52.73,9.14-73.33,57.33-23.62,55.24,1.55,137.47,74.82,244.4a2.25,2.25,0,0,1-.58,3.13A2.28,2.28,0,0,1,2787.34,2139.88Z"/><path class="cls-11" d="M905.16,1114.31v965.33c0,71,62.4,128.63,139.36,128.63h1621c77,0,139.36-57.59,139.36-128.63V1114.31Z"/><path class="cls-12" d="M2330.91,826.89l-412-249.3c-40.08-24.25-87.69-24.26-127.77,0l-412,249.23-475.9,287.88,475.9,287.16L1855,1689l475.91-287.48,475.9-286.85Z"/><g class="cls-13"><path class="cls-6" d="M942.38,2166.55a3.33,3.33,0,0,1-2.49-5.55l593.56-667.81a3.34,3.34,0,1,1,5,4.43L944.87,2165.43A3.33,3.33,0,0,1,942.38,2166.55Z"/><path class="cls-6" d="M2767.62,2166.55a3.33,3.33,0,0,1-2.49-1.12l-593.57-667.81a3.34,3.34,0,0,1,5-4.43L2770.11,2161a3.33,3.33,0,0,1-2.49,5.55Z"/></g><path class="cls-14" d="M2481.14,1710.2s-19.57-23.47,7-37.93,68.41,1.4,73.7,32.16,31.72,12.5,43.25,5.77,43.73-15.86,51.91,19.22c3.23,13.9-.87,31.65,5.16,44.58,8.31,17.81,35.34,13.21,50.1,20,19.19,8.85,29.21,26,19.23,45.94-15.38,30.75-45.66,50.3-29.32,77s-49.5,86.83-72.09,31.08-57.67-46.31-86-49.83-42.77-28-35.08-53-2.41-39.89-13-50.46S2449.9,1738.55,2481.14,1710.2Z"/><path class="cls-15" d="M2440,2009.31s-21.35,3.31-45.35,19.35a12,12,0,0,0-5.28,11.43c2.87,22.77,14.69,96.45,53.65,168.41a18.06,18.06,0,0,1,1.74,12.43l-6.77,31.5-12.55,11.77h32.33l21.53-58.26-9.2-2.91a17.42,17.42,0,0,1-12.17-16.31l-1.08-62.5c.92-27.84-17.07-47-17.07-47l51.64-2.52Z"/><path class="cls-16" d="M2412.78,2269.89c-2.94,3.85,31.7,8.94,49.2.51,0,0,24.26-42.21,24.26-63.94,0,0-1.93-4.43-16.17-3.43,0,0-8.15,50-16.75,55.58s-24.06.56-24.06.56S2417.13,2264.2,2412.78,2269.89Z"/><path class="cls-17" d="M2484.85,2078.08c-.27-.47-55.59-6.65-55.59-6.65s1.81,16.82-3.85,40-86.89,123.48-86.89,123.48l8.52,27c-26.33,9.17-52.24,10.64-77.73,4.67l52.79-31.67s49.39-168.34,79.65-198.37l55.46-19.19Z"/><path class="cls-18" d="M2608.93,1980.13s31.87,47.41,34.49,69-8.73,30.41-42.18,31.86-122.73,1.42-122.73,1.42l-76.2-65.12s55.53-19.82,70-25.42S2608.93,1980.13,2608.93,1980.13Z"/><path class="cls-19" d="M2343.82,2252.8s9.17,8.88,3,18.76c0,0-72.64,12.87-92.36,7,0,0,4.09-9.35,26.3-20l-1.64,1.25a2.65,2.65,0,0,0,1.75,4.76C2295.49,2263.79,2325.77,2261.11,2343.82,2252.8Z"/><path class="cls-20" d="M2522.73,1973.85s-37.12-35.34-55.39-58.75a49.65,49.65,0,0,1-8.41-44.7c8.34-28.1,23.16-57.21,24.51-61.74,2.08-7,43.7-6.66,43.7-6.66s81.89,53.15,114.07,143.19l-36.14,11.25s-21.38-35.87-42.51-58.68c0,0,36.56,48.29,37.85,68.07Z"/><path class="cls-21" d="M2478.41,1769.85c.43,1.44,11.3,37.45,12.15,38.2s23.82,2,34.63-5.41l-18.34-38.4Z"/><path class="cls-22" d="M2496.25,1694.21s-19.61,8.28-32.94,36.62-3.38,41.42,9.13,43.22,31.21,1.52,51-16.79S2521.75,1684.4,2496.25,1694.21Z"/><path class="cls-23" d="M2510.14,1742.14s14.79-41.46-22-42l-8.65,6s-13.49-23,8.65-34,55.16-1.2,64.58,28.62,3.91,49.08-11.76,63.35-22.13-1.91-22.13-1.91,8.53-13.34,5.06-20.48-11.49,1.47-11.49,1.47Z"/><path class="cls-24" d="M2514.26,1746.75s7.48-21.35,17.46-12.85-8.11,19.73-15.19,23.36Z"/><path class="cls-25" d="M2447.11,1976.48l27.27-26.29,37.72,15.94s37.56,5.82,59.05,0l21.49-5.82,48.57-15.12,7.63,21.56a13,13,0,0,1-4.74,14.91c-4.21,3-9.13,6.27-12.27,7.64-6.4,2.8-157.67-1.93-157.67-1.93Z"/><g class="cls-13"><path class="cls-6" d="M2645.22,1744.65l-1.29-.14c1.12-10.31-.6-17.18-5.24-21-9.21-7.58-28.32-1.65-45.17,3.59-8.54,2.65-16.61,5.16-22.26,5.46-4.32.23-7.79-.92-10.29-3.42-4.58-4.57-4.25-12-4.23-12.28l1.29.06c0,.08-.31,7.15,3.86,11.31,2.23,2.23,5.36,3.24,9.31,3,5.48-.29,13.47-2.77,21.93-5.4,17.17-5.33,36.63-11.38,46.38-3.35C2644.52,1726.63,2646.39,1733.88,2645.22,1744.65Z"/></g><g class="cls-13"><path class="cls-6" d="M2685.36,1900c-3-12.48,5.16-23,14.66-35.24,6.83-8.78,14.58-18.74,18.72-30.7,2-5.72,1.56-11-1.27-15.58-8.84-14.42-38.18-18.62-38.47-18.66l.18-1.28c1.23.17,30.23,4.33,39.39,19.26,3,5,3.51,10.58,1.4,16.68-4.22,12.16-12,22.21-18.93,31.08-9.29,11.94-17.31,22.26-14.42,34.14Z"/></g><rect class="cls-26" x="2538.83" y="2112.89" width="14.37" height="155.35"/><path class="cls-27" d="M2608.93,2271.24H2483.11a9.34,9.34,0,0,1,9.35-9.35h107.12a9.35,9.35,0,0,1,9.35,9.35Z"/><rect class="cls-28" x="2469.41" y="2078.08" width="158.19" height="44.87" rx="15.45"/><path class="cls-29" d="M2550.31,1988.87H2550l-158.2-.17a7.08,7.08,0,1,1,0-14.16l158.19.17a7.08,7.08,0,0,1,.35,14.15Z"/><path class="cls-30" d="M2249.54,1845.24h131.75a25.12,25.12,0,0,1,22.71,14.4l60.9,129.15H2301.18a15.27,15.27,0,0,1-14.2-9.66l-47.23-119.5A10.53,10.53,0,0,1,2249.54,1845.24Z"/><path class="cls-31" d="M2771.42,1994.65a5.86,5.86,0,0,0-1.38-5.06,6.69,6.69,0,0,0-5-2.22H2104.86a7.64,7.64,0,0,0-6.33,3.25,6.66,6.66,0,0,0-.49,6.74l7.15,14.52a10.09,10.09,0,0,0,9.1,5.45h646.19a7.48,7.48,0,0,0,7.44-5.76Z"/><path class="cls-32" d="M2141.86,2300.54a5.67,5.67,0,0,1-2.29-.48,6,6,0,0,1-3-7.79l121.5-289a5.75,5.75,0,0,1,7.61-3.1,6,6,0,0,1,3,7.79l-121.5,289A5.8,5.8,0,0,1,2141.86,2300.54Z"/><path class="cls-33" d="M2278.74,2300.54a5.79,5.79,0,0,1-5.33-3.58l-121.5-289a6,6,0,0,1,3-7.79,5.76,5.76,0,0,1,7.62,3.1l121.49,289a6,6,0,0,1-3,7.79A5.59,5.59,0,0,1,2278.74,2300.54Z"/><path class="cls-34" d="M2620.31,2300.54a5.59,5.59,0,0,1-2.28-.48,6,6,0,0,1-3-7.79l121.5-289a5.75,5.75,0,0,1,7.61-3.1,6,6,0,0,1,3,7.79l-121.5,289A5.8,5.8,0,0,1,2620.31,2300.54Z"/><path class="cls-35" d="M2757.19,2300.54a5.79,5.79,0,0,1-5.33-3.58l-121.5-289a6,6,0,0,1,3-7.79,5.76,5.76,0,0,1,7.62,3.1l121.5,289a6,6,0,0,1-3,7.79A5.59,5.59,0,0,1,2757.19,2300.54Z"/><g class="cls-36"><path class="cls-6" d="M2445.92,647.19H1116.2c-23.45,0-42.87,20.34-42.87,43.79v1079.1H2636.67V841Z"/><path class="cls-37" d="M2635.92,841l-174.48,1.5c-4.63,0-8.25-1.76-11.53-5s-3.62-7.71-3.62-12.32V648.52Z"/><path class="cls-38" d="M2199.88,1218.78q0,60.85-19.44,111.35t-54.93,79.23q-35.51,28.74-82.4,28.74-31.27,0-55.36-15t-34.65-39.51h-6.77q-45.63,54.51-116.2,54.51-74.81,0-117.9-45t-43.11-123.18q0-89.16,56.63-143.68t147.9-54.51q36.35,0,80.08,7t72,16.7L2016.06,1302q0,58.74,32.12,58.74,27,0,43.1-39.51t16.06-103.33q0-68-28.32-120.22t-79.65-79.66Q1948,990.59,1882.1,990.59q-85.35,0-148.32,35.07t-96.56,101.21q-33.6,66.14-33.6,152.76,0,116.64,62.33,179t180.66,62.33q44.79,0,98.46-9.93a653.15,653.15,0,0,0,105.64-28.94v81.13q-90.43,38.46-200.72,38.46-160.59,0-250.38-84.52t-89.8-234.95q0-104.39,45.85-189.53T1686.24,959.1q84.72-48.37,195-48.38,93,0,166.07,38t112.83,108.18Q2199.88,1127.09,2199.88,1218.78Zm-432.72,52.82q0,89.16,72.68,89.17,38,0,57.9-26.84t24.09-87.26l5.49-93.39q-21.55-4.65-48.6-4.65-52.82,0-82.19,33T1767.16,1271.6Z"/></g><path class="cls-6" d="M2842.63,840c-1.9-163.92,129.92-298.82,293.83-300.71a295.43,295.43,0,0,1,168.79,50.2l16.91-17.14a8.71,8.71,0,0,1,14.58,3.8l29.56,107.45a8.69,8.69,0,0,1-10.58,10.72l-107.83-28.12a8.72,8.72,0,0,1-4-14.55l19-19.33a237.34,237.34,0,0,0-125.79-34.24c-131.42,1.52-237.11,109.62-235.59,241s109.68,236.84,241.1,235.32A239.12,239.12,0,0,0,3378.24,838c0-4.53,3.58-9.62,8.58-9.68l41.54-.48c2.68,0,4.63,2,5.91,3.26l.34.34c1.92,1.92,2.6,5.42,2.58,7.31a297.62,297.62,0,0,1-293.85,295.06C2979.42,1135.74,2844.52,1003.93,2842.63,840Zm517.55-154.12a2.8,2.8,0,0,0-.08-.57l-29.57-107.45a2.26,2.26,0,0,0-3.79-1l-20.67,21-2.22-1.52a289.11,289.11,0,0,0-167.31-50.59c-160.37,1.86-289.33,133.84-287.48,294.2s133.84,289.33,294.21,287.48a291.2,291.2,0,0,0,287.48-288.68h0A5.38,5.38,0,0,0,3430,836l-.36-.36a9.82,9.82,0,0,0-1.47-1.33l-41.32.47c-.88,0-2.2,1.76-2.22,3.31a245.52,245.52,0,0,1-241.94,242.72c-135,1.56-246.05-106.85-247.61-241.68s107-245.91,242-247.47A243.72,243.72,0,0,1,3269.77,629l3.39,2.13-24.69,25.07a2.28,2.28,0,0,0,1,3.8l107.84,28.12a2.26,2.26,0,0,0,2.18-.59A2.34,2.34,0,0,0,3360.18,685.89Z"/><path class="cls-6" d="M3049.08,895.06h-85.66V877l30.76-31.1q13.67-14,17.85-19.4a42.33,42.33,0,0,0,6-10,25.43,25.43,0,0,0,1.84-9.55q0-7.38-4.06-11c-2.72-2.4-6.33-3.61-10.86-3.61a31.2,31.2,0,0,0-13.83,3.27,71.13,71.13,0,0,0-14,9.31l-14.08-16.68q9.06-7.71,15-10.9a55,55,0,0,1,13-4.9,66.25,66.25,0,0,1,15.75-1.72,46.59,46.59,0,0,1,20.29,4.19,32.36,32.36,0,0,1,13.66,11.73,31.2,31.2,0,0,1,4.86,17.27,42.31,42.31,0,0,1-3,15.88,61.27,61.27,0,0,1-9.22,15.22q-6.25,7.79-22,22.21l-15.76,14.83v1.18h53.39Z"/><path class="cls-6" d="M3149.83,869.66h-14.75v25.4h-25.32v-25.4h-52.3v-18l53.73-79.12h23.89v77h14.75Zm-40.07-20.11V828.76q0-5.19.42-15.09t.67-11.48h-.67a93.48,93.48,0,0,1-7.46,13.41l-22.46,33.95Z"/><path class="cls-6" d="M3222.58,772.52,3176.9,895.06h-23.22l45.69-122.54Z"/><path class="cls-6" d="M3242.45,895.06l46-100.58H3228V772.69H3316V789l-46.35,106.11Z"/><path class="cls-39" d="M3186.85,1185.61l.82,10v0a1.72,1.72,0,1,0,3.43-.28v0l-.93-10a1.66,1.66,0,0,0-1.81-1.51,1.68,1.68,0,0,0-1.52,1.8Z"/><path class="cls-40" d="M3188.55,1218.85l-.05,10v.05a1.9,1.9,0,0,0,3.79,0v0l-.05-10.08a1.85,1.85,0,0,0-3.69,0Z"/><path class="cls-41" d="M3187.38,1252.1l-.89,9.94v0a2.07,2.07,0,1,0,4.12.37v0l.81-10a2,2,0,0,0-4-.34Z"/><path class="cls-42" d="M3183.43,1285.13l-1.71,9.83v0a2.24,2.24,0,0,0,4.41.77v0l1.63-10a2.19,2.19,0,0,0-4.32-.72Z"/><path class="cls-43" d="M3176.82,1317.72l-2.49,9.65v.05a2.41,2.41,0,0,0,4.67,1.21v0l2.41-9.78a2.36,2.36,0,0,0-4.58-1.15Z"/><path class="cls-44" d="M3167.66,1349.67l-3.23,9.44,0,.05a2.58,2.58,0,1,0,4.89,1.67v0l3.17-9.58a2.53,2.53,0,0,0-4.79-1.62Z"/><path class="cls-45" d="M3156.06,1380.82l-3.94,9.18,0,0a2.75,2.75,0,1,0,5.06,2.18v0l3.89-9.32a2.7,2.7,0,0,0-5-2.11Z"/><path class="cls-46" d="M3142.14,1411l-4.61,8.84,0,.06a2.93,2.93,0,1,0,5.19,2.7l0,0,4.57-9a2.88,2.88,0,0,0-5.11-2.64Z"/><path class="cls-47" d="M3126,1440.06l-5.25,8.47,0,0a3.1,3.1,0,1,0,5.26,3.27l0,0,5.23-8.64a3,3,0,0,0-5.19-3.18Z"/><path class="cls-48" d="M3107.8,1467.82l-5.87,8,0,.06a3.27,3.27,0,0,0,5.29,3.85l0,0,5.86-8.23a3.22,3.22,0,0,0-5.22-3.76Z"/><path class="cls-49" d="M3087.56,1494.13l-6.45,7.58-.05.06a3.44,3.44,0,0,0,5.25,4.46l0,0,6.47-7.77a3.39,3.39,0,0,0-5.19-4.36Z"/><path class="cls-50" d="M3065.42,1518.83l-7,7.08-.06,0a3.61,3.61,0,1,0,5.13,5.09l0,0,7-7.27a3.56,3.56,0,0,0-5.09-5Z"/><path class="cls-51" d="M3041.44,1541.76l-7.52,6.5-.07.06a3.78,3.78,0,1,0,5,5.72l0,0,7.59-6.69a3.74,3.74,0,0,0-4.91-5.63Z"/><path class="cls-52" d="M3015.78,1562.71l-8,5.87-.08.06a4,4,0,0,0,4.68,6.38l0,0,8.09-6.07a3.9,3.9,0,0,0-4.64-6.28Z"/><path class="cls-53" d="M2988.55,1581.53l-8.46,5.21-.08.06a4.08,4.08,0,1,0,4.28,7l0,0,8.6-5.37a4.05,4.05,0,0,0-4.28-6.88Z"/><path class="cls-54" d="M2959.88,1598.06l-8.85,4.47-.09,0a4.18,4.18,0,0,0,3.76,7.46h0l9-4.62a4.15,4.15,0,0,0-3.76-7.4Z"/><path class="cls-55" d="M2929.94,1612.05l-9.21,3.69-.1,0a4.27,4.27,0,0,0,3.17,7.94h0l9.4-3.82a4.25,4.25,0,0,0-3.17-7.88Z"/><path class="cls-56" d="M2898.88,1623.45l-9.49,2.93-.09,0a4.37,4.37,0,1,0,2.58,8.35h0l9.67-3a4.34,4.34,0,0,0-2.59-8.29Z"/><path class="cls-57" d="M2867,1632.34l-9.69,2.19-.1,0a4.47,4.47,0,1,0,2,8.72h0l9.87-2.29a4.44,4.44,0,0,0-2-8.65Z"/><path class="cls-58" d="M2834.54,1638.77l-9.83,1.45-.09,0a4.56,4.56,0,0,0,1.33,9h0l10-1.55a4.53,4.53,0,0,0-1.35-9Z"/><path class="cls-59" d="M2801.68,1642.79l-9.91.75h-.09a4.66,4.66,0,1,0,.7,9.29h0l10.09-.82a4.63,4.63,0,0,0-.72-9.24Z"/><path class="cls-60" d="M2768.61,1644.5l-9.94.08h-.09a4.76,4.76,0,0,0,.07,9.52h0l10.13-.14a4.73,4.73,0,0,0-.1-9.46Z"/><path class="cls-61" d="M2735.49,1644l-9.93-.56h-.09a4.86,4.86,0,0,0-.55,9.7h0l10.11.51a4.83,4.83,0,0,0,.52-9.64Z"/><path class="cls-62" d="M2702.45,1641.43l-9.88-1.16h-.09a4.95,4.95,0,1,0-1.15,9.83h0l10.06,1.13a4.92,4.92,0,0,0,1.13-9.78Z"/><path class="cls-63" d="M2669.61,1636.88l-9.8-1.73h-.08a5,5,0,0,0-1.76,9.94h0l10,1.71a5,5,0,0,0,1.72-9.89Z"/><path class="cls-64" d="M2637.07,1630.48l-9.68-2.26-.08,0a5.14,5.14,0,0,0-2.34,10h0l9.85,2.25a5.12,5.12,0,0,0,2.3-10Z"/><path class="cls-65" d="M2604.93,1622.33l-9.57-2.77-.08,0a5.24,5.24,0,0,0-2.92,10.07h0l9.74,2.76a5.21,5.21,0,0,0,2.88-10Z"/><path class="cls-66" d="M2573.23,1612.52l-9.41-3.25-.08,0a5.34,5.34,0,0,0-3.48,10.09h0l9.57,3.24a5.31,5.31,0,0,0,3.44-10Z"/><path class="cls-67" d="M2542.06,1601.15l-9.24-3.71-.08,0a5.43,5.43,0,1,0-4,10.08h0l9.4,3.71a5.4,5.4,0,0,0,4-10Z"/><path class="cls-68" d="M2511.47,1588.28l-9-4.14-.07,0a5.53,5.53,0,1,0-4.6,10.06h0l9.22,4.15a5.5,5.5,0,0,0,4.55-10Z"/><path class="cls-69" d="M2481.53,1574l-8.86-4.57-.07,0a5.63,5.63,0,0,0-5.16,10h0l9,4.59a5.59,5.59,0,0,0,5.1-10Z"/><path class="cls-70" d="M2452.26,1558.32l-8.65-4.93-.06,0a5.67,5.67,0,0,0-5.62,9.85h0l8.78,5a5.66,5.66,0,0,0,5.59-9.84Z"/><path class="cls-71" d="M2423.64,1541.46l-8.46-5.27,0,0a5.7,5.7,0,1,0-6,9.67h0l8.58,5.33a5.69,5.69,0,0,0,6-9.67Z"/><path class="cls-72" d="M2395.67,1523.52l-8.26-5.58,0,0a5.73,5.73,0,1,0-6.41,9.49h0l8.37,5.63a5.72,5.72,0,1,0,6.38-9.49Z"/><path class="cls-73" d="M2368.35,1504.58l-8.08-5.85-.05,0a5.76,5.76,0,0,0-6.76,9.33h0l8.17,5.91a5.75,5.75,0,1,0,6.74-9.33Z"/><path class="cls-74" d="M2341.64,1484.75l-7.89-6.1,0,0a5.8,5.8,0,0,0-7.09,9.17h0l8,6.16a5.78,5.78,0,0,0,7.06-9.16Z"/><path class="cls-75" d="M2315.53,1464.12l-7.72-6.33,0,0a5.83,5.83,0,0,0-7.39,9h0l7.8,6.38a5.82,5.82,0,1,0,7.36-9Z"/><path class="cls-76" d="M2290,1442.77l-7.56-6.53,0,0a5.86,5.86,0,0,0-7.66,8.87h0l7.63,6.57a5.85,5.85,0,0,0,7.63-8.87Z"/><path class="cls-77" d="M2265,1420.79l-7.41-6.7,0,0a5.89,5.89,0,0,0-7.9,8.74h0l7.48,6.75a5.88,5.88,0,1,0,7.87-8.74Z"/><path class="cls-78" d="M2240.41,1398.26l-7.27-6.85,0,0A5.92,5.92,0,0,0,2225,1400h0l7.33,6.88a5.91,5.91,0,1,0,8.09-8.63Z"/><path class="cls-79" d="M2216.3,1375.26l-7.16-7,0,0a6,6,0,1,0-8.31,8.52h0l7.21,7a5.94,5.94,0,1,0,8.29-8.52Z"/><path class="cls-80" d="M2192.55,1351.84l-7.07-7.1,0,0a6,6,0,0,0-8.48,8.44h0l7.11,7.12a6,6,0,1,0,8.45-8.44Z"/><path class="cls-81" d="M2169.11,1328.07l-7-7.19v0a6,6,0,1,0-8.63,8.39h0l7,7.2a6,6,0,0,0,8.61-8.38Z"/><path class="cls-82" d="M2145.93,1304l-6.91-7.27a6.05,6.05,0,0,0-8.79,8.32l0,0,6.95,7.28a6,6,0,0,0,8.73-8.35Z"/><path class="cls-83" d="M2123,1279.76l-6.86-7.31a6.08,6.08,0,0,0-8.89,8.3l0,0,6.89,7.32a6.07,6.07,0,1,0,8.84-8.33Z"/><path class="cls-84" d="M2100.13,1255.34l-6.82-7.35a6.11,6.11,0,0,0-9,8.31l0,0,6.84,7.34a6.1,6.1,0,0,0,8.93-8.32Z"/><path class="cls-85" d="M2077.39,1230.82l-6.82-7.37a6.15,6.15,0,1,0-9,8.35h0l6.84,7.36a6.13,6.13,0,0,0,9-8.34Z"/><path class="cls-86" d="M2054.66,1206.27l-6.82-7.36a6.18,6.18,0,0,0-9.06,8.4h0l6.83,7.34a6.17,6.17,0,0,0,9-8.39Z"/><path class="cls-87" d="M2031.88,1181.75l-6.85-7.34a6.21,6.21,0,0,0-9.08,8.48h0l6.85,7.31a6.2,6.2,0,1,0,9.06-8.46Z"/><path class="cls-88" d="M2009,1157.32l-6.9-7.3a6.24,6.24,0,0,0-9.07,8.57v0l6.9,7.27a6.23,6.23,0,0,0,9.06-8.56Z"/><path class="cls-89" d="M1985.92,1133l-7-7.24a6.27,6.27,0,1,0-9,8.69h0l7,7.21h0a6.27,6.27,0,0,0,9-8.69Z"/><path class="cls-90" d="M1962.6,1109l-7-7.17a6.3,6.3,0,1,0-9,8.84h0v0l7,7.12,0,0a6.3,6.3,0,0,0,9-8.84Z"/><path class="cls-91" d="M1939,1085.17l-7.15-7.08a6.34,6.34,0,1,0-8.91,9h0l0,0,7.12,7,0,0a6.33,6.33,0,0,0,8.89-9Z"/><path class="cls-92" d="M1915,1061.71l-7.27-7a6.37,6.37,0,1,0-8.81,9.2h0l0,0,7.24,6.9,0,0a6.36,6.36,0,0,0,8.79-9.19Z"/><path class="cls-93" d="M1890.59,1038.68l-7.43-6.82a6.35,6.35,0,0,0-8.59,9.35l0,0L1882,1048l0,0a6.36,6.36,0,0,0,8.61-9.35Z"/><path class="cls-94" d="M1865.68,1016.14l-7.57-6.65a6.32,6.32,0,1,0-8.35,9.5l0,0,7.5,6.61,0,0a6.33,6.33,0,0,0,8.38-9.5Z"/><path class="cls-95" d="M1840.26,994.17l-7.73-6.46a6.3,6.3,0,1,0-8.09,9.66l0,0,7.64,6.41,0,0a6.31,6.31,0,0,0,8.11-9.66Z"/><path class="cls-96" d="M1814.29,972.86l-7.9-6.25a6.28,6.28,0,1,0-7.79,9.85l0,0,7.81,6.2,0,0a6.28,6.28,0,0,0,7.81-9.84Z"/><path class="cls-97" d="M1787.71,952.28l-8.09-6a6.25,6.25,0,0,0-7.46,10l0,0,8,5.95,0,0a6.26,6.26,0,0,0,7.49-10Z"/><path class="cls-98" d="M1760.5,932.51l-8.29-5.75a6.23,6.23,0,0,0-7.1,10.23l0,0,8.18,5.69.05,0a6.23,6.23,0,1,0,7.13-10.23Z"/><path class="cls-99" d="M1732.63,913.66l-8.5-5.47a6.2,6.2,0,0,0-6.71,10.43l0,0,8.37,5.41.06,0a6.21,6.21,0,0,0,6.73-10.44Z"/><path class="cls-100" d="M1704.07,895.8l-8.7-5.14a6.18,6.18,0,1,0-6.29,10.63l.05,0,8.57,5.09.06,0a6.18,6.18,0,0,0,6.31-10.63Z"/><path class="cls-101" d="M1674.87,879,1666,874.2a6.16,6.16,0,0,0-5.88,10.82l.05,0,8.75,4.77.06,0a6.16,6.16,0,0,0,5.9-10.82Z"/><path class="cls-102" d="M1645.09,863.33l-9-4.49a6.13,6.13,0,0,0-5.46,11l.06,0,8.91,4.45.06,0a6.14,6.14,0,0,0,5.48-11Z"/><path class="cls-103" d="M1614.77,848.73l-9.2-4.17a6.11,6.11,0,0,0-5,11.13l0,0,9.08,4.12.06,0a6.11,6.11,0,0,0,5.06-11.13Z"/><path class="cls-104" d="M1583.94,835.23l-9.34-3.83a6.08,6.08,0,1,0-4.62,11.25l0,0,9.22,3.79.06,0a6.09,6.09,0,0,0,4.64-11.26Z"/><path class="cls-105" d="M1552.64,822.84l-9.47-3.5A6.05,6.05,0,1,0,1539,830.7l0,0,9.34,3.47.06,0a6.06,6.06,0,1,0,4.22-11.37Z"/><path class="cls-106" d="M1520.93,811.57l-9.59-3.16a6,6,0,1,0-3.78,11.45l.06,0,9.46,3.14.06,0a6,6,0,0,0,3.8-11.47Z"/><path class="cls-107" d="M1488.83,801.43l-9.69-2.83a6,6,0,0,0-3.36,11.54h0l9.57,2.8.06,0a6,6,0,1,0,3.38-11.54Z"/><path class="cls-108" d="M1456.4,792.42l-9.79-2.48a6,6,0,1,0-2.94,11.6h0l9.67,2.46.06,0a6,6,0,0,0,3-11.61Z"/><path class="cls-109" d="M1423.67,784.55l-9.88-2.13a6,6,0,0,0-2.51,11.65h0l9.75,2.12h.06a6,6,0,1,0,2.53-11.65Z"/><path class="cls-110" d="M1390.68,777.85l-9.94-1.79a5.93,5.93,0,1,0-2.1,11.68h0l9.82,1.78h.06a5.94,5.94,0,0,0,2.12-11.69Z"/><path class="cls-111" d="M1357.48,772.3l-10-1.43a5.91,5.91,0,0,0-1.68,11.7h.06l9.87,1.44h.06a5.92,5.92,0,0,0,1.7-11.71Z"/><path class="cls-112" d="M1324.1,767.93l-10-1.08a5.88,5.88,0,1,0-1.26,11.7h.06l9.91,1.08h.06a5.89,5.89,0,0,0,1.28-11.72Z"/><path class="cls-113" d="M1290.6,764.74l-10.07-.72a5.86,5.86,0,1,0-.84,11.69h0l9.94.73h.07a5.87,5.87,0,0,0,.86-11.7Z"/><path class="cls-114" d="M1257,762.74l-10.09-.37a5.84,5.84,0,0,0-.42,11.67h0l10,.38h.06a5.84,5.84,0,1,0,.44-11.68Z"/><path class="cls-115" d="M1223.36,761.94h-10.1a5.81,5.81,0,1,0,0,11.62h0l10,0h.07a5.82,5.82,0,1,0,0-11.64Z"/><path class="cls-116" d="M1189.71,762.35l-10.09.36a5.79,5.79,0,0,0,.42,11.57h0l10-.34h.07a5.79,5.79,0,0,0-.4-11.58Z"/><path class="cls-117" d="M1156.1,764l-10.07.72a5.76,5.76,0,0,0,.83,11.5h.06l9.94-.71h.06a5.77,5.77,0,1,0-.81-11.51Z"/><path class="cls-118" d="M1122.57,766.83l-10,1.1a5.74,5.74,0,1,0,1.24,11.41h.06l9.91-1.07h.06a5.74,5.74,0,1,0-1.23-11.42Z"/><path class="cls-119" d="M1089.17,770.92l-10,1.47a5.71,5.71,0,1,0,1.66,11.3h.05l9.87-1.44h.06a5.72,5.72,0,1,0-1.64-11.32Z"/><path class="cls-120" d="M1055.93,776.28l-9.93,1.88a5.69,5.69,0,1,0,2.11,11.18h.06l9.79-1.84h.07a5.7,5.7,0,0,0-2.1-11.2Z"/><path class="cls-121" d="M1022.92,783l-9.84,2.32a5.66,5.66,0,1,0,2.59,11h.06l9.7-2.26.07,0a5.67,5.67,0,1,0-2.57-11.05Z"/><path class="cls-122" d="M990.24,791.26,980.51,794a5.64,5.64,0,0,0,3.09,10.85l.07,0,9.57-2.71.08,0a5.65,5.65,0,1,0-3.08-10.87Z"/><path class="cls-123" d="M958,801.08l-9.57,3.27A5.57,5.57,0,1,0,952,814.9l.06,0,9.43-3.17.08,0A5.6,5.6,0,1,0,958,801.07Z"/><path class="cls-124" d="M926.25,812.58l-9.39,3.79a5.5,5.5,0,0,0,4.12,10.2l.07,0,9.23-3.68.09,0a5.52,5.52,0,0,0-4.09-10.26Z"/><path class="cls-125" d="M895.21,825.86l-9.16,4.34a5.43,5.43,0,0,0,4.66,9.81l.07,0,9-4.22.09,0a5.45,5.45,0,1,0-4.63-9.86Z"/><path class="cls-126" d="M865,841l-8.86,4.93a5.36,5.36,0,0,0,5.21,9.36l.07,0,8.69-4.79.1-.05A5.38,5.38,0,1,0,865,841Z"/><path class="cls-127" d="M835.87,858.16l-8.5,5.54a5.28,5.28,0,1,0,5.77,8.85l.07,0,8.34-5.39.09-.06a5.3,5.3,0,1,0-5.75-8.91Z"/><path class="cls-128" d="M808,877.38,800,883.56a5.2,5.2,0,0,0,6.33,8.26l.09-.06,7.89-6,.09-.07a5.22,5.22,0,1,0-6.32-8.32Z"/><path class="cls-129" d="M781.74,898.73l-7.53,6.82a5.13,5.13,0,1,0,6.89,7.6l.08-.07,7.37-6.61.09-.09a5.15,5.15,0,1,0-6.88-7.67Z"/><path class="cls-130" d="M757.32,922.21l-6.92,7.45a5.06,5.06,0,0,0,7.41,6.88l.08-.08,6.77-7.23.09-.09a5.08,5.08,0,1,0-7.41-6.95Z"/><path class="cls-131" d="M735.05,947.76l-6.2,8.08a5,5,0,1,0,7.9,6.07l.08-.1,6-7.81.1-.13a5,5,0,0,0-7.92-6.13Z"/><path class="cls-132" d="M715.35,975.41,710,984.06a4.91,4.91,0,1,0,8.35,5.16l.07-.1,5.22-8.38.08-.12a4.93,4.93,0,0,0-8.37-5.23Z"/><path class="cls-133" d="M698.53,1004.85l-4.47,9.14a4.83,4.83,0,1,0,8.68,4.25l0-.1,4.4-8.87.06-.12a4.86,4.86,0,0,0-8.71-4.32Z"/><path class="cls-134" d="M684.64,1035.76l-3.6,9.51a4.76,4.76,0,1,0,8.91,3.37l0-.1,3.54-9.25.05-.12a4.79,4.79,0,0,0-8.94-3.43Z"/><path class="cls-135" d="M673.67,1067.81l-2.71,9.77a4.69,4.69,0,1,0,9,2.51l0-.1,2.69-9.52,0-.12a4.71,4.71,0,1,0-9.06-2.56Z"/><path class="cls-136" d="M665.63,1100.67l-1.85,10a4.61,4.61,0,1,0,9.07,1.68l0-.1,1.85-9.74,0-.12a4.64,4.64,0,0,0-9.11-1.73Z"/><path class="cls-137" d="M660.47,1134.11l-1,10.1a4.54,4.54,0,1,0,9,.89v-.1l1-9.86V1135a4.56,4.56,0,0,0-9.08-.93Z"/><path class="cls-138" d="M658.17,1167.86,658,1178a4.47,4.47,0,1,0,8.93.12V1178l.18-9.92V1168a4.49,4.49,0,0,0-9-.15Z"/><path class="cls-139" d="M658.72,1201.66l.71,10.12a4.4,4.4,0,0,0,8.77-.62v-.09l-.66-9.9v-.11a4.41,4.41,0,0,0-8.81.58Z"/><path class="cls-140" d="M662.09,1235.3l1.56,10a4.32,4.32,0,0,0,8.54-1.33l0-.09-1.48-9.81,0-.11a4.34,4.34,0,0,0-8.58,1.3Z"/><path class="cls-141" d="M668.29,1268.53l2.41,9.85a4.25,4.25,0,1,0,8.25-2l0-.08-2.32-9.65,0-.11a4.27,4.27,0,0,0-8.3,2Z"/><path class="cls-142" d="M677.33,1301.11l3.26,9.61a4.17,4.17,0,0,0,7.9-2.69l0-.09-3.15-9.41,0-.1a4.2,4.2,0,0,0-8,2.66Z"/><path class="cls-143" d="M689.21,1332.75l4.11,9.27a4.1,4.1,0,1,0,7.49-3.33l0-.09-4-9.07,0-.1a4.12,4.12,0,1,0-7.54,3.31Z"/><path class="cls-144" d="M703.92,1363.19l5,8.85a4,4,0,0,0,7-3.94l0-.09-4.82-8.67,0-.1a4,4,0,0,0-7.08,3.93Z"/><path class="cls-145" d="M721.5,1392.08l5.82,8.32a3.89,3.89,0,0,0,6.4-4.44l-.07-.1-5.62-8.17-.07-.09a3.93,3.93,0,0,0-6.48,4.46Z"/><path class="cls-146" d="M741.85,1419.1l6.62,7.68a3.76,3.76,0,0,0,5.72-4.89l-.08-.09-6.41-7.55-.07-.09a3.8,3.8,0,0,0-5.8,4.92Z"/><path class="cls-147" d="M764.83,1443.9l7.38,7a3.63,3.63,0,0,0,5-5.26l-.08-.08-7.17-6.87-.08-.08a3.67,3.67,0,1,0-5.08,5.3Z"/><path class="cls-148" d="M790.22,1466.23l8,6.19a3.5,3.5,0,0,0,4.29-5.53l-.08-.07-7.82-6.12-.08-.06a3.54,3.54,0,1,0-4.36,5.57Z"/><path class="cls-149" d="M817.66,1485.92l8.58,5.38a3.37,3.37,0,0,0,3.6-5.7l-.08,0-8.38-5.34-.08,0a3.4,3.4,0,1,0-3.66,5.74Z"/><path class="cls-150" d="M846.83,1502.9l9,4.55a3.24,3.24,0,0,0,2.94-5.77l-.09,0-8.84-4.55-.08,0a3.28,3.28,0,0,0-3,5.83Z"/><path class="cls-151" d="M877.41,1517.12l9.39,3.72a3.11,3.11,0,0,0,2.32-5.77l-.08,0-9.21-3.73-.08,0a3.14,3.14,0,1,0-2.36,5.83Z"/><path class="cls-152" d="M909.1,1528.56l9.69,2.9a3,3,0,0,0,1.73-5.7l-.08,0-9.52-2.93-.08,0a3,3,0,0,0-1.77,5.77Z"/><path class="cls-153" d="M941.66,1537.23l9.89,2.06a2.84,2.84,0,0,0,1.18-5.56l-.07,0-9.73-2.1-.07,0a2.89,2.89,0,0,0-1.22,5.64Z"/><path class="cls-154" d="M974.82,1543.12l10,1.22a2.72,2.72,0,0,0,.68-5.39h-.07l-9.88-1.29h-.07a2.75,2.75,0,0,0-.71,5.46Z"/><path class="cls-155" d="M1008.34,1546.2l10.09.38a2.58,2.58,0,0,0,.21-5.16h-.06l-10-.45h-.07a2.62,2.62,0,0,0-.23,5.24Z"/><path class="cls-156" d="M1042,1546.46l10.09-.47a2.45,2.45,0,0,0-.22-4.9h-.06l-10,.39h-.07a2.49,2.49,0,1,0,.2,5Z"/><path class="cls-157" d="M1075.54,1543.87l10-1.35a2.32,2.32,0,0,0-.6-4.6h-.06l-9.91,1.25h-.06a2.36,2.36,0,1,0,.59,4.68Z"/><path class="cls-158" d="M1108.75,1538.37l9.85-2.22a2.19,2.19,0,0,0-.94-4.27h-.06l-9.75,2.12h-.06a2.23,2.23,0,1,0,1,4.35Z"/><path class="cls-159" d="M1141.31,1529.94l9.59-3.1a2.06,2.06,0,0,0-1.25-3.92h-.06l-9.5,3h0a2.1,2.1,0,1,0,1.26,4Z"/><path class="cls-160" d="M1172.94,1518.54l9.26-4a1.92,1.92,0,0,0-1.51-3.54l-.06,0-9.19,3.89,0,0a2,2,0,0,0,1.53,3.62Z"/><path class="cls-161" d="M1203.33,1504.16l8.82-4.89a1.79,1.79,0,0,0-1.73-3.14l-.05,0-8.76,4.77,0,0a1.83,1.83,0,0,0,1.75,3.22Z"/><path class="cls-162" d="M1232.13,1486.84l6.49-4.49a1.67,1.67,0,0,0-1.89-2.76l0,0-6.46,4.39,0,0a1.7,1.7,0,1,0,1.91,2.81Z"/><path class="cls-6" d="M759.46,931.24a10.26,10.26,0,0,1-9.67-6.84L735.47,884a208.32,208.32,0,0,1-56.17-22.76l-38.45,19.13a10.25,10.25,0,0,1-11.77-1.88l-39.72-39.07a10.28,10.28,0,0,1-2.07-11.73l18.5-38.76a208.43,208.43,0,0,1-23.67-55.79l-40.69-13.65a10.27,10.27,0,0,1-7-9.64L534,654.07a10.25,10.25,0,0,1,6.82-9.75L581.27,630A208.75,208.75,0,0,1,604,573.83L584.9,535.38a10.24,10.24,0,0,1,1.88-11.76l39.08-39.73a10.23,10.23,0,0,1,11.72-2.06l38.76,18.49a208.57,208.57,0,0,1,55.79-23.67L745.79,436a10.27,10.27,0,0,1,9.63-7l55.73-.45h.08a10.25,10.25,0,0,1,9.67,6.83l14.33,40.46a208.17,208.17,0,0,1,56.16,22.75l38.45-19.13a10.3,10.3,0,0,1,11.76,1.87l39.73,39.09a10.23,10.23,0,0,1,2.06,11.72L964.9,570.87a208.38,208.38,0,0,1,23.67,55.79l40.69,13.65a10.28,10.28,0,0,1,7,9.64l.45,55.73a10.27,10.27,0,0,1-6.83,9.76l-40.45,14.31a208.49,208.49,0,0,1-22.75,56.17l19.12,38.45a10.27,10.27,0,0,1-1.87,11.76l-39.09,39.73a10.23,10.23,0,0,1-11.72,2.06l-38.76-18.49a208.5,208.5,0,0,1-55.78,23.67l-13.66,40.69a10.26,10.26,0,0,1-9.63,7l-55.74.46ZM679.9,846.52l3,1.85a195.46,195.46,0,0,0,58.85,23.83l3.46.79,16.06,45.35,52-.42,15.31-45.62,3.45-.84a195.86,195.86,0,0,0,58.45-24.79l3-1.9L937,865.5l36.46-37.07L952,785.32l1.85-3a195.62,195.62,0,0,0,23.83-58.85l.78-3.46,45.36-16.06-.42-52-45.62-15.31-.84-3.45a195.82,195.82,0,0,0-24.79-58.45l-1.9-3L971,528.26,933.9,491.79l-43.11,21.44-3-1.85a196,196,0,0,0-58.84-23.83l-3.47-.78-16.06-45.36-52,.42-15.31,45.62-3.45.84a195.63,195.63,0,0,0-58.45,24.8l-3,1.89-43.46-20.73-36.46,37.07,21.44,43.11-1.85,3A195.88,195.88,0,0,0,593,636.31l-.78,3.46-45.36,16.06.42,52,45.62,15.31.84,3.45A195.86,195.86,0,0,0,618.55,785l1.9,3L599.72,831.5,636.79,868ZM737.11,482h0ZM784.55,821.7a140.91,140.91,0,0,1-1.12-281.82,141.48,141.48,0,0,1,29.85,2.91,6.44,6.44,0,0,1-2.6,12.61,128,128,0,1,0,83.26,58.74,6.44,6.44,0,0,1,11-6.7A140.94,140.94,0,0,1,785.74,821.7Z"/><path class="cls-6" d="M785.25,735.82a55.93,55.93,0,0,1-14-110.05h0A55.93,55.93,0,0,1,799.48,734,56.75,56.75,0,0,1,785.25,735.82Zm-10.78-97.59A43,43,0,1,0,827,669a42.7,42.7,0,0,0-52.53-30.77Z"/><path class="cls-6" d="M542.12,1140.53a6.67,6.67,0,0,1-5.36-2.72L525.07,1122a101.94,101.94,0,0,1-27.68-2.5L483.05,1133a6.65,6.65,0,0,1-7.67,1l-23.74-12.43a6.66,6.66,0,0,1-3.5-6.9l2.95-19.5a102,102,0,0,1-17.81-21.33l-19.7-.57a6.69,6.69,0,0,1-6.17-4.67l-8-25.59a6.67,6.67,0,0,1,2.41-7.35L417.69,1024a102.33,102.33,0,0,1,2.5-27.68L406.66,982a6.67,6.67,0,0,1-1.06-7.67L418,950.56a6.67,6.67,0,0,1,6.91-3.49L444.44,950a101.85,101.85,0,0,1,21.32-17.81l.58-19.7a6.67,6.67,0,0,1,4.66-6.17l25.6-8a6.65,6.65,0,0,1,7.35,2.4l11.69,15.87a102.26,102.26,0,0,1,27.67,2.5l14.35-13.53a6.69,6.69,0,0,1,7.66-1.07L589.07,917a6.65,6.65,0,0,1,3.5,6.9l-3,19.5a102.2,102.2,0,0,1,17.82,21.32l19.7.58A6.67,6.67,0,0,1,633.3,970l8,25.58a6.65,6.65,0,0,1-2.41,7.35L623,1014.57a102.33,102.33,0,0,1-2.5,27.68l13.53,14.34a6.66,6.66,0,0,1,1.06,7.66L622.67,1088a6.66,6.66,0,0,1-6.9,3.5l-19.5-3a102.26,102.26,0,0,1-21.33,17.82l-.57,19.7a6.69,6.69,0,0,1-4.66,6.17l-25.6,8A6.51,6.51,0,0,1,542.12,1140.53Zm-.89-9.52h0Zm-11.53-19,13.57,18.41,21.51-6.72.66-22.86,2.3-1.35a92.41,92.41,0,0,0,23-19.22l1.75-2,22.62,3.43,10.45-20L609.86,1045l.67-2.58a92.43,92.43,0,0,0,2.7-29.85l-.2-2.66,18.41-13.56-6.72-21.51-22.86-.67-1.35-2.29a92.49,92.49,0,0,0-19.22-23l-2-1.74,3.43-22.62-20-10.45-16.65,15.69-2.58-.66a92.15,92.15,0,0,0-29.85-2.7l-2.66.19-13.56-18.4-21.51,6.72-.67,22.86L473,939.13a92.63,92.63,0,0,0-23,19.22l-1.74,2-22.62-3.42-10.46,20,15.7,16.65-.66,2.58a92.46,92.46,0,0,0-2.7,29.85l.2,2.66-18.41,13.56,6.72,21.51,22.86.66,1.35,2.3a92.41,92.41,0,0,0,19.22,23l2,1.74L458,1114l20,10.46,16.64-15.7,2.58.67a92.48,92.48,0,0,0,29.85,2.69Zm-49.84,13.52ZM456.11,1113h0ZM627,1063.22h0Zm-2.94-90.4h0Zm-200.59-16.2h0Zm161.1-31.1h0ZM476,912.78h0Zm-4.82-.13h0Zm28.32-5.09h0Zm20.69,181.76a69.52,69.52,0,0,1-6.28-138.75,4.83,4.83,0,1,1,.88,9.62A59.86,59.86,0,1,0,577.26,1002,59.83,59.83,0,0,0,560,975.15a4.83,4.83,0,1,1,6.42-7.21,69.52,69.52,0,0,1-46.24,121.38Z"/><path class="cls-163" d="M3069.05,1561.75s-37.12,35.2-49.39,97.78-41.42-88.46-41.42-88.46h-29.45s-11.11,155.64,72,168a44.62,44.62,0,0,0,41.66-16.5c15.18-19.28,38.87-53.58,44.59-86.27C3102.18,1584.77,3069.05,1561.75,3069.05,1561.75Z"/><path class="cls-164" d="M3257.66,2282.43a5.16,5.16,0,0,0-.14-1.4c-7-27.61-35.44-41.76-35.44-41.76l-13.7,1.07c-7.87,24.34-13,36.22-11.69,42.87,0,.18.09.36.14.54C3208.13,2284.76,3231.39,2285.42,3257.66,2282.43Z"/><path class="cls-165" d="M3196.83,2283.75a5.94,5.94,0,0,0,4.35,4.39c16.07,3.38,41.62.66,52.35-.74a5,5,0,0,0,4.13-5C3231.39,2285.42,3208.13,2284.76,3196.83,2283.75Z"/><path class="cls-166" d="M3233.36,2218l-6,28.87a4.72,4.72,0,0,1-4,3.89,39.64,39.64,0,0,1-9.29-.15,5.93,5.93,0,0,1-4.7-7l4.16-25.64Z"/><path class="cls-167" d="M3080.45,2283.51c14.63-.41,22.2-2.13,26.11-3.73,0,1.46,0,2.94,0,4.47a2.88,2.88,0,0,1-2.75,2.94l-80.33-.52c-2.56,0-4.06-3-2.95-5.34C3031,2282.2,3057.84,2284.14,3080.45,2283.51Z"/><path class="cls-168" d="M3020.48,2281.33a3.55,3.55,0,0,1,.32-.61c7.09-9.91,25.16-29.65,60.86-38.21l17.13-.54s7.62,13.26,7.77,37.81c-3.91,1.6-11.48,3.32-26.11,3.73C3057.84,2284.14,3031,2282.2,3020.48,2281.33Z"/><path class="cls-169" d="M3102,2216c-.19,1.27-2.53,20.68-3.44,28.2a3.74,3.74,0,0,1-3.15,3.37,39.38,39.38,0,0,1-11.76-.19,5.05,5.05,0,0,1-3.84-5.08v-30.46Z"/><path class="cls-170" d="M3221.91,1838.85s27.41,243.6,12.18,395.85c0,0-18.27,0-27.4-3,0,0-28.48-238.18-37.69-306.34a2.29,2.29,0,0,0-4.52-.14c-11.37,57.34-56,282.2-61.32,303.43,0,0-15.23,6.09-27.41,0,0,0,24.36-325.82,42.63-383.67Z"/><path class="cls-171" d="M3276.72,1555.66s-115.71-18.28-207.06,6.09l6.09,94.39s24.36,130.94,42.63,188.8c0,0,70,12.18,103.53-6.09,0,0,27.41-164.44,42.63-188.8C3264.54,1650.05,3279.77,1586.11,3276.72,1555.66Z"/><path class="cls-172" d="M3195.52,1456.28l12.35,94.12s-32.21,14.8-54.76-.63l4.86-55Z"/><path class="cls-173" d="M3276.72,1555.66s179.66,194.88-32,269.48v-15.22s79.17-67,18.27-158.35C3263,1651.57,3270.63,1564.79,3276.72,1555.66Z"/><path class="cls-174" d="M3243.23,1811.44s-27.41-18.27-39.59-12.18-12.18,15.22-12.18,15.22,6.09,12.19,15.23,9.14,30.45,3.05,39.58,0C3246.27,1823.62,3249.32,1811.44,3243.23,1811.44Z"/><path class="cls-175" d="M2947,1472.63l38.66,13c4.68,1.4,7.9,6.13,8.28,12.13l-2,64.52c.63,10.09-7.7,19-15.57,16.63l-31-10.56c-3-.91-5-4.08-5.05-8l-.68-80.33C2939.57,1475.42,2943.4,1471.56,2947,1472.63Z"/><path class="cls-176" d="M2939.61,1555.66s-12.1-38.77-6-45.3,18.41-24.54,19.22-9.82S2961.1,1578.86,2939.61,1555.66Z"/><path class="cls-177" d="M3124.68,1440.32c-.18,1.12,13.57,74.74,13.57,74.74l41.87-8.74-2.67-71.71S3127.7,1421.6,3124.68,1440.32Z"/><path class="cls-178" d="M3164.93,1446.28a6.16,6.16,0,0,1,2.92,4.56l4.3,37.1a5.91,5.91,0,0,1,0,1.68c-.51,3.08-2.94,12.76-12.87,9.76-8.47-2.55-16.29-4.78-22-3.75a6.14,6.14,0,0,0-4.91,7.21c1.32,6.91,4.26,20.78,8.6,32.74a6.11,6.11,0,0,0,7.39,3.78c8.11-2.25,23.81-7.12,35.81-14a6.13,6.13,0,0,0,3.09-5.5c-.25-10-.83-38,.22-45.88,1-7.35,9.87-11.71,14.11-13.38a6.16,6.16,0,0,0,3.49-3.5c1.89-4.82,4-14.82-8.51-19.44a6.15,6.15,0,0,1-3.59-7.78c1.94-5.6,2.47-13.73-7.63-18.46s-18.11.14-22.64,4.6a6.38,6.38,0,0,1-7.58,1.13,4.06,4.06,0,0,0-4,0,6,6,0,0,1-8.1-2.61c-2.57-5.17-7.73-10.51-18-8.93-18.75,2.89-21.21,23.56-16.48,35.78s24.87,7.94,35,2C3151,1439,3160.44,1443.55,3164.93,1446.28Z"/><path class="cls-179" d="M3186.83,1486.49s-5.31-20.39,2.68-25.53,19.63-2.2,16.79,13.34C3202.77,1493.64,3186.83,1486.49,3186.83,1486.49Z"/><path class="cls-6" d="M3105,1429a.64.64,0,0,1-.59-.38c-6.81-14.58,9.07-26.21,9.23-26.33a.66.66,0,0,1,.77,1.06c-.16.11-15.17,11.13-8.82,24.72a.65.65,0,0,1-.32.86A.52.52,0,0,1,3105,1429Z"/><path class="cls-180" d="M2810.23,1474.72v133.09c0,10.85-6.61,19.64-14.77,19.64H2310.59c-6.77,0-12.68,6.14-14.32,14.88l-8.71,46.34c-1.15,6.14-7.57,6.65-9.27.73l-11.21-39.15c-2.18-7.62-7.67-12.65-13.79-12.65h-20.84c-8.16,0-14.77-8.79-14.77-19.64V1481.15c0-10.78,6.54-19.55,14.64-19.64l563-6.43C2803.54,1455,2810.23,1463.8,2810.23,1474.72Z"/><ellipse class="cls-181" cx="2292.72" cy="1542.1" rx="59.47" ry="61.04"/><path class="cls-6" d="M2314.27,1517.36c0,11-8.89,22.8-19.86,22.8s-19.85-11.83-19.85-22.8,8.89-18.74,19.85-18.74S2314.27,1506.4,2314.27,1517.36Z"/><path class="cls-6" d="M2269.78,1582.38h48.46a11.73,11.73,0,0,0,11.17-8.16l2.61-8.15a11.71,11.71,0,0,0-7.08-14.58c-19.72-7.21-40.12-6.29-61,.66a11.68,11.68,0,0,0-7.48,14.17l2,7.4A11.72,11.72,0,0,0,2269.78,1582.38Z"/><path class="cls-6" d="M2763.91,1558a11.79,11.79,0,0,1-12,11.54H2398a11.79,11.79,0,0,1-12-11.54h0a11.79,11.79,0,0,1,12-11.54h353.9a11.79,11.79,0,0,1,12,11.54Z"/><path class="cls-6" d="M2596.33,1595a10.49,10.49,0,0,1-10.48,10.49H2400.31a10.49,10.49,0,0,1-10.48-10.49h0a10.49,10.49,0,0,1,10.48-10.49h185.54a10.49,10.49,0,0,1,10.48,10.49Z"/><path class="cls-6" d="M2764.12,1595a10.49,10.49,0,0,1-10.48,10.49H2619.73a10.49,10.49,0,0,1-10.49-10.49h0a10.49,10.49,0,0,1,10.49-10.49h133.91a10.49,10.49,0,0,1,10.48,10.49Z"/><rect class="cls-182" x="2384.99" y="1486.13" width="208.12" height="30.65" rx="14.73"/><path class="cls-183" d="M1764.54,422.92c-15.24-21.81-38-30.79-60.28-24.26-24.3,7.12-38,34.32-60.64,45.2-39.45,19-94-18.52-124,30.4-36.64,59.84-65,15-65,55.57s253.18,10.68,378.1,12.82c18,.31,96.4-1.23,62.67-45.12-10.47-13.63-25.42-15.91-39.35-19.1-18.16-4.16-61.36-6.44-74.51-23-7.09-8.91-9.81-21.71-16.21-31.25Z"/><path class="cls-183" d="M2222,338.34c-9.16-13.1-22.82-18.49-36.22-14.57-14.59,4.27-22.84,20.62-36.42,27.15-23.7,11.4-56.48-11.13-74.48,18.27-22,35.94-39,9-39,33.38s152.1,6.42,227.15,7.7c10.84.19,57.91-.74,37.65-27.11-6.29-8.18-15.27-9.56-23.64-11.47-10.91-2.5-36.86-3.87-44.77-13.82-4.25-5.35-5.89-13-9.73-18.77C2222.31,338.84,2222.14,338.59,2222,338.34Z"/><path class="cls-184" d="M1225.82,1546.5c-.11,117-1,520.58-8,663.45-.74,15.14-11.39,27.07-24.35,27.27-64.08,1-298.94,2.05-403.55-5.4-21.79-1.56-38.68-22.61-38.56-48.16.54-122.8,3.38-468.17,18.29-626.08,1.79-18.92,14.84-33.73,31.06-35.26,69.91-6.62,306.08-21.35,396.4-12.48C1213.39,1511.44,1225.83,1527.36,1225.82,1546.5Z"/><path class="cls-185" d="M1196.45,1581.75c1.36,94.47,5.28,408.74-.74,524.79-.88,17-12.62,30.43-27.14,31.1-59.76,2.77-263.54,7.27-350.88-2.87-15.73-1.83-27.76-17-28.2-35.5-2.31-96.4-8.57-389.09-2.72-503.84.93-18.3,13.39-33,29-34.29,64.71-5.35,281.39-16.69,355.66-10.3C1185.4,1552,1196.22,1565.39,1196.45,1581.75Z"/><g class="cls-186"><path class="cls-6" d="M1173,1609.25c1.2,83.66,4.67,362-.66,464.72-.78,15-11.17,27-24,27.55C1095.4,2104,915,2108,837.6,2099c-13.92-1.61-24.58-15.06-25-31.43-2-85.37-7.59-344.56-2.41-446.17.83-16.21,11.86-29.22,25.71-30.37,57.3-4.74,249.18-14.78,315-9.12C1163.23,1582.94,1172.8,1594.76,1173,1609.25Z"/></g><path class="cls-187" d="M1067.92,1527.43h0c-.08,3.59-2.53,6.5-5.6,6.62-15.14.59-57.8,2.27-76.87,3.14-3.76.17-6.62-3.85-5.81-8.15l.14-.73A6.2,6.2,0,0,1,985,1523c12.9-1.09,51.82-4.06,77.52-2.42C1065.64,1520.76,1068,1523.81,1067.92,1527.43Z"/><circle class="cls-188" cx="991.66" cy="1845.19" r="150.13" transform="translate(-1014.3 1241.65) rotate(-45)"/><path class="cls-6" d="M1084,1884.44a26.76,26.76,0,0,0-15.89-17.6l-10.8-4.29a20.71,20.71,0,0,0-24.21,6.85l-9.62,12.85c-15.1.43-32.53-5.19-48-16.76-14.53-10.88-24.52-24.89-28.86-38.64a.47.47,0,0,1,.18-.53.47.47,0,0,1,.55,0l8.67-11.58a23.65,23.65,0,0,0-.43-28.91l-7.18-9a27.07,27.07,0,0,0-42.86.63,35.11,35.11,0,0,0-5.69,11.63c-8,28.13,14.69,70.67,56.5,102s88.94,41,113.7,25.49a35.39,35.39,0,0,0,9.6-8.76A26.75,26.75,0,0,0,1084,1884.44Z"/><path class="cls-6" d="M813,2211c-25.28,0-46.19-20.56-46.19-45.83v-78.34a1.62,1.62,0,1,1,3.23,0v78.34c0,23.43,19.47,42.5,42.9,42.5a1.69,1.69,0,0,1,1.7,1.66A1.65,1.65,0,0,1,813,2211Z"/><path class="cls-189" d="M560.77,2223.93s-3.11,17.58-4.63,35a12,12,0,0,0,11.47,13c23.17,1,72.75,2.84,90.54,2a3.9,3.9,0,0,0,3.43-5.34h0a8.77,8.77,0,0,0-4.47-4.71l-81.88-37.63Z"/><path class="cls-190" d="M558.22,2213.6l2.5,21s14.34,6.68,24.14-.84l-5.94-23.44Z"/><path class="cls-191" d="M560.1,1818.25c-1.08,5.5-5.79,274,22.92,394.39a4.08,4.08,0,0,1-2.4,4.75,70.86,70.86,0,0,1-23.38,4.75,7,7,0,0,1-7-5c-8.2-27.92-47.52-167.82-52.65-301.46-5.73-149.33,0-5.08,0-5.08l3.36-92.31Z"/><path class="cls-192" d="M466.57,2233.1s-4.94,8.88-9.73,32.46a7.31,7.31,0,0,0,6.44,8.76c7.65.76,19.43,1.72,28.87,1.66a7.3,7.3,0,0,0,7.22-8.14c-1.05-8.61-4.3-22.73-14.36-33.74Z"/><path class="cls-193" d="M462.23,2206.05l5.83,31.81s5.76,4.28,17.17,1.18l-2.79-34.22Z"/><path class="cls-194" d="M446.48,1826.49c-23.48,141.69,5.09,350.2,14.73,391a6.35,6.35,0,0,0,5.14,4.83,42.56,42.56,0,0,0,18.36-.73,5.84,5.84,0,0,0,4.19-5.37c1.3-33-1-235.54,20.84-315.59a18.15,18.15,0,0,1,7-10l42.46-30.19,3.25-48.79Z"/><path class="cls-195" d="M596.08,1558c-70.36-1.16-148,18.48-148,18.48-21,122.37-3.67,263.52-3.67,263.52,54.47,14.28,115.92-8.74,115.92-8.74,9-51.15,51.29-195.1,51.29-195.1,34.37-4.26,62.69-14.18,86-27.29-17.78-20.62-26.17-46.86-29.81-62.37C643,1554.25,617.78,1558.38,596.08,1558Z"/><path class="cls-196" d="M803.9,1454.39c-6.91-8.35-15.66-4.4-15.66-4.4-10.35,43.73-64.64,79.2-120.41,96.53,3.64,15.51,12,41.75,29.81,62.37C790.21,1556.84,803.9,1454.39,803.9,1454.39Z"/><path class="cls-197" d="M802.23,1456.51c.72,2.3-7.66,5.8-12.59-3.6-.17-4.51-2.91-23.82-.22-27.49,14.34-19.55,42.15-44.06,42.15-44.06a6.61,6.61,0,0,1,.83,9.19l-13.49,14c2.82,5.1,6.26,9.41,7.88,15.57a18.9,18.9,0,0,1-1.89,13.91c-2.37,4.27-5.6,9.82-8.65,14.16A18.66,18.66,0,0,1,802.23,1456.51Z"/><path class="cls-198" d="M813,1413.72l-12.29,10.42-3.86,10.38,11,12.16s3.68-20.59,6.42-25S815.56,1415,813,1413.72Z"/><path class="cls-199" d="M475.07,1644.62l-27-68.12s-65.72,44.65-76.53,101.26a149.6,149.6,0,0,1,55.36,15.52C436.9,1670.82,475.07,1644.62,475.07,1644.62Z"/><path class="cls-200" d="M524.81,1500.9l-22.39,64.74a2.33,2.33,0,0,0,1.07,2.81c6.1,3.38,28.09,13.13,54.58-3.67a11,11,0,0,0,5.06-7.84l7.25-56Z"/><path class="cls-201" d="M573.52,1441s24.59,46.27,21.43,65-33.61,17.35-60.22,2.17l-18.59-50Z"/><path class="cls-202" d="M535.91,1483.55a1.9,1.9,0,0,0,.83-2.79c-2-3-5.66-9.15-6.84-14.52,0,0-4.42-2.83,11.25-6.58s39-9.58,43.94-22.91c4.79-13-7.79-45.7-27.86-19.65a1.91,1.91,0,0,1-3,0c-3.29-4.28-11.94-13.17-24-7.78-11.24,5-12.51,13.28-12.35,17.43a1.9,1.9,0,0,1-2.25,1.94c-5.68-1.08-19.32-2-25.68,12-5.25,11.53-1.84,18,1.27,21.24a1.91,1.91,0,0,1-.82,3.16c-3.73,1.14-8.56,4.3-8.07,13.05.66,12.1,14.19,11,18,10.48a1.91,1.91,0,0,1,1.69.6c3.3,3.65,18.18,19.17,34.28,21a1.92,1.92,0,0,0,2-2.54l-7-20.26a1.9,1.9,0,0,1,1-2.37Z"/><path class="cls-203" d="M538.71,1486.42s-17.51-12-18.78-1.89,15.76,14.65,24.2,10.88Z"/><path class="cls-204" d="M372,1678.31s-44.92,102.31,64.88,117.28l15-12.47s-54.9-29.95-24.95-89.84C426.92,1693.28,394.48,1665.83,372,1678.31Z"/><path class="cls-205" d="M450.87,1732.17l38.66,13c4.68,1.4,7.91,6.13,8.28,12.14l-2,64.51c.63,10.09-7.7,19-15.57,16.63l-31-10.56c-3-.91-5-4.07-5.05-8l-.69-80.32C443.46,1735,447.3,1731.1,450.87,1732.17Z"/><path class="cls-206" d="M440.87,1808.66c-1-1.16-8.27-14.38-6.41-32.07s-1.58-25.68,6.66-25,15.07,2.08,14.14,10.78S456.92,1826.4,440.87,1808.66Z"/></g></g></svg>