<svg xmlns="http://www.w3.org/2000/svg" xmlns:xlink="http://www.w3.org/1999/xlink" viewBox="0 0 3710 3710"><defs><style>.cls-1{fill:#d8dee8;}.cls-2{fill:#bfc8d6;}.cls-3{isolation:isolate;}.cls-4{fill:#fff;}.cls-5{fill:#f4f7fa;}.cls-6{clip-path:url(#clip-path);}.cls-7{opacity:0.8;mix-blend-mode:soft-light;}.cls-8{clip-path:url(#clip-path-2);}.cls-9{fill:url(#linear-gradient);}.cls-10{fill:url(#linear-gradient-2);}.cls-11{fill:url(#linear-gradient-3);}.cls-12{fill:#e7ebf2;}.cls-13{fill:url(#linear-gradient-4);}.cls-14,.cls-26,.cls-31{opacity:0.3;}.cls-14{mix-blend-mode:screen;}.cls-15{fill:url(#linear-gradient-5);}.cls-16{fill:url(#linear-gradient-6);}.cls-17{fill:url(#linear-gradient-7);}.cls-18{fill:url(#linear-gradient-8);}.cls-19,.cls-46,.cls-49{opacity:0.2;}.cls-19,.cls-26,.cls-31,.cls-46,.cls-49{mix-blend-mode:multiply;}.cls-19{fill:url(#linear-gradient-9);}.cls-20{fill:url(#linear-gradient-10);}.cls-21{fill:url(#linear-gradient-11);}.cls-22{fill:url(#linear-gradient-12);}.cls-23{fill:url(#linear-gradient-13);}.cls-24{fill:url(#linear-gradient-14);}.cls-25{fill:url(#linear-gradient-15);}.cls-26{fill:url(#linear-gradient-16);}.cls-27{fill:url(#linear-gradient-17);}.cls-28{fill:url(#linear-gradient-18);}.cls-29{fill:url(#linear-gradient-19);}.cls-30{fill:url(#linear-gradient-20);}.cls-31{fill:url(#linear-gradient-21);}.cls-32{fill:url(#linear-gradient-22);}.cls-33{fill:url(#linear-gradient-23);}.cls-34{fill:url(#linear-gradient-24);}.cls-35{fill:url(#linear-gradient-25);}.cls-36{fill:url(#linear-gradient-26);}.cls-37{fill:url(#linear-gradient-27);}.cls-38{fill:url(#linear-gradient-28);}.cls-39{fill:url(#linear-gradient-29);}.cls-40{fill:url(#linear-gradient-30);}.cls-41{fill:url(#linear-gradient-31);}.cls-42{fill:url(#linear-gradient-32);}.cls-43{fill:url(#linear-gradient-33);}.cls-44{fill:url(#linear-gradient-34);}.cls-45{fill:url(#linear-gradient-35);}.cls-46{fill:url(#linear-gradient-36);}.cls-47{fill:url(#linear-gradient-37);}.cls-48{fill:url(#linear-gradient-38);}.cls-49{fill:url(#linear-gradient-39);}</style><clipPath id="clip-path"><path class="cls-1" d="M1990.66,522.54c-41.58-29-102.07-41.71-152.28-41.14-355.93,4-346.81,747.91-279,908.76s37.13,218-234.46,327.4-124.21,264.91-82.24,359.5,116,171.33-79.22,284.78-119.7,167.6-119.7,167.6,406.17,352.47,375.39,231.47-8.5-309.36,326.27-351c144.19-18,360.09-105.17,396.43-264.13,8.46-37,11.88-92.78.12-129.4-16.31-50.81-53.66-88.83-76.54-136-53.33-110,50.17-202.27,107.43-283.42,29.9-42.37,59.69-85.75,81.37-133,45-98.17,17-197.2-47.51-279-30.93-39.22-72.79-80.09-88.86-128.58-17.26-52.1-12-125.64-13.41-180.57-1.12-43.08-.55-86.13-6.49-128.92C2086.92,667.2,2060.17,571,1990.66,522.54Z"/></clipPath><clipPath id="clip-path-2"><path class="cls-2" d="M2694.33,1033.58c-25.82-43.63-75.62-80.25-121.55-100.53-325.61-143.82-625.5,537-630.41,711.52s-56.53,213.82-349,200.85-222.8,189.66-223.78,293.14,34.59,204-190.09,226.36-178.37,103-178.37,103,223.64,489.07,245.76,366.18,120.42-285.08,442.38-184.32c138.67,43.4,371.31,53.46,470.24-76.16,23-30.18,49.25-79.51,53.72-117.72,6.2-53-12-103.08-13.31-155.52-3-122.21,129.46-163.31,215.19-213.44,44.76-26.18,89.85-53.32,129.17-87.38,81.62-70.71,97.17-172.44,72.35-273.6-11.91-48.51-33.07-103.06-27.61-153.85,5.87-54.56,41.14-119.31,62.6-169.9,16.82-39.67,35.18-78.62,47.5-120C2722,1205.12,2737.5,1106.52,2694.33,1033.58Z"/></clipPath><linearGradient id="linear-gradient" x1="2404.3" y1="4324.98" x2="929.01" y2="5663.79" gradientTransform="translate(-3755.8 3738.61) rotate(-90)" gradientUnits="userSpaceOnUse"><stop offset="0" stop-color="#26264f"/><stop offset="1" stop-color="#444b8c"/></linearGradient><linearGradient id="linear-gradient-2" x1="551.76" y1="2048.61" x2="2234.27" y2="2001.73" gradientUnits="userSpaceOnUse"><stop offset="0" stop-color="#444b8c"/><stop offset="1" stop-color="#26264f"/></linearGradient><linearGradient id="linear-gradient-3" x1="1289.8" y1="5498.31" x2="2123.25" y2="4479.64" gradientTransform="translate(-3755.8 3738.61) rotate(-90)" xlink:href="#linear-gradient-2"/><linearGradient id="linear-gradient-4" x1="1322.29" y1="2873.24" x2="1294.47" y2="3085.11" xlink:href="#linear-gradient-2"/><linearGradient id="linear-gradient-5" x1="1852.88" y1="2152.93" x2="1570.73" y2="1857.48" gradientTransform="matrix(-1, 0, 0, 1, 4266.17, 0)" gradientUnits="userSpaceOnUse"><stop offset="0" stop-color="#ffc444"/><stop offset="1" stop-color="#f36f56"/></linearGradient><linearGradient id="linear-gradient-6" x1="1974.03" y1="2832.05" x2="1484.02" y2="1758.61" xlink:href="#linear-gradient-5"/><linearGradient id="linear-gradient-7" x1="1661.15" y1="653.21" x2="1457.91" y2="1522.23" gradientTransform="translate(1991.94 -257.73) rotate(23.38)" gradientUnits="userSpaceOnUse"><stop offset="0" stop-color="#311944"/><stop offset="1" stop-color="#a03976"/></linearGradient><linearGradient id="linear-gradient-8" x1="1443.81" y1="1112.56" x2="2078.64" y2="2741.41" gradientTransform="translate(1991.94 -257.73) rotate(23.38)" gradientUnits="userSpaceOnUse"><stop offset="0" stop-color="#ff9085"/><stop offset="1" stop-color="#fb6fbb"/></linearGradient><linearGradient id="linear-gradient-9" x1="1313.59" y1="1572.8" x2="1619.32" y2="1572.8" xlink:href="#linear-gradient-8"/><linearGradient id="linear-gradient-10" x1="1685.31" y1="2330.22" x2="1388.26" y2="2019.16" gradientTransform="matrix(-1, 0, 0, 1, 4266.17, 0)" xlink:href="#linear-gradient-7"/><linearGradient id="linear-gradient-11" x1="1455.18" y1="2796.85" x2="1277.33" y2="2887.27" gradientTransform="matrix(-1, 0, 0, 1, 4266.17, 0)" gradientUnits="userSpaceOnUse"><stop offset="0" stop-color="#e38ddd"/><stop offset="1" stop-color="#9571f6"/></linearGradient><linearGradient id="linear-gradient-12" x1="-9214.18" y1="2236.91" x2="-9210.15" y2="2289.36" gradientTransform="translate(3525.97 -6628.44) rotate(-72.05)" xlink:href="#linear-gradient-7"/><linearGradient id="linear-gradient-13" x1="1493.61" y1="3045.91" x2="1666.98" y2="3272.34" xlink:href="#linear-gradient-11"/><linearGradient id="linear-gradient-14" x1="-4502.96" y1="3274.89" x2="-4523.84" y2="3371.47" gradientTransform="translate(7691.01 5838.63) rotate(65.59)" xlink:href="#linear-gradient-7"/><linearGradient id="linear-gradient-15" x1="1652.8" y1="2540.48" x2="1574.33" y2="2946.26" gradientTransform="matrix(-1, 0, 0, 1, 4266.17, 0)" xlink:href="#linear-gradient-2"/><linearGradient id="linear-gradient-16" x1="-7368.08" y1="4558.12" x2="-7118.72" y2="4755.41" gradientTransform="translate(10869.98 419.91) rotate(17.95)" xlink:href="#linear-gradient-2"/><linearGradient id="linear-gradient-17" x1="1497.04" y1="2565.18" x2="1657.34" y2="3083.05" gradientTransform="matrix(-1, 0, 0, 1, 4266.17, 0)" xlink:href="#linear-gradient-2"/><linearGradient id="linear-gradient-18" x1="1741.51" y1="2909.27" x2="1262.6" y2="1860.15" xlink:href="#linear-gradient-5"/><linearGradient id="linear-gradient-19" x1="1787.86" y1="2898.23" x2="1304.36" y2="1839.03" xlink:href="#linear-gradient-5"/><linearGradient id="linear-gradient-20" x1="-9868.61" y1="1221.61" x2="-9986.06" y2="923.29" gradientTransform="translate(12427.32 4575.62) rotate(19.35)" gradientUnits="userSpaceOnUse"><stop offset="0" stop-color="#311944"/><stop offset="1" stop-color="#6b3976"/></linearGradient><linearGradient id="linear-gradient-21" x1="1831.57" y1="3099.39" x2="985.57" y2="1246.09" xlink:href="#linear-gradient-5"/><linearGradient id="linear-gradient-22" x1="2676.57" y1="2209.94" x2="2657.55" y2="2372.1" gradientTransform="matrix(1, 0, 0, 1, 0, 0)" xlink:href="#linear-gradient-7"/><linearGradient id="linear-gradient-23" x1="-8050.08" y1="5712.59" x2="-8096.97" y2="5829.8" gradientTransform="translate(12472.03 4312.26) rotate(47.84)" xlink:href="#linear-gradient-7"/><linearGradient id="linear-gradient-24" x1="1181.03" y1="843.87" x2="1408.43" y2="2579.85" gradientTransform="matrix(1, 0, 0, 1, 0, 0)" xlink:href="#linear-gradient-11"/><linearGradient id="linear-gradient-25" x1="1184.93" y1="843.36" x2="1412.33" y2="2579.34" gradientTransform="matrix(1, 0, 0, 1, 0, 0)" xlink:href="#linear-gradient-11"/><linearGradient id="linear-gradient-26" x1="1184.53" y1="843.41" x2="1411.93" y2="2579.4" gradientTransform="matrix(1, 0, 0, 1, 0, 0)" xlink:href="#linear-gradient-11"/><linearGradient id="linear-gradient-27" x1="835.99" y1="889.07" x2="1063.39" y2="2625.05" gradientTransform="matrix(1, 0, 0, 1, 0, 0)" xlink:href="#linear-gradient-11"/><linearGradient id="linear-gradient-28" x1="848.54" y1="887.42" x2="1075.94" y2="2623.41" gradientTransform="matrix(1, 0, 0, 1, 0, 0)" xlink:href="#linear-gradient-11"/><linearGradient id="linear-gradient-29" x1="841.93" y1="888.29" x2="1069.32" y2="2624.28" gradientTransform="matrix(1, 0, 0, 1, 0, 0)" xlink:href="#linear-gradient-11"/><linearGradient id="linear-gradient-30" x1="842.19" y1="888.25" x2="1069.59" y2="2624.24" gradientTransform="matrix(1, 0, 0, 1, 0, 0)" xlink:href="#linear-gradient-11"/><linearGradient id="linear-gradient-31" x1="1383.98" y1="813.69" x2="1611.89" y2="2553.53" gradientTransform="matrix(1, 0, 0, 1, 0, 0)" xlink:href="#linear-gradient-11"/><linearGradient id="linear-gradient-32" x1="1388.25" y1="816.73" x2="1615.65" y2="2552.71" gradientTransform="matrix(1, 0, 0, 1, 0, 0)" xlink:href="#linear-gradient-11"/><linearGradient id="linear-gradient-33" x1="1059.81" y1="859.75" x2="1287.21" y2="2595.73" gradientTransform="matrix(1, 0, 0, 1, 0, 0)" xlink:href="#linear-gradient-11"/><linearGradient id="linear-gradient-34" x1="2514.83" y1="1453.02" x2="1880.99" y2="2848.33" gradientTransform="matrix(1, 0, 0, 1, 0, 0)" xlink:href="#linear-gradient-5"/><linearGradient id="linear-gradient-35" x1="1968" y1="2767.45" x2="2707.04" y2="4239.95" gradientTransform="matrix(1, 0, 0, 1, 0, 0)" xlink:href="#linear-gradient-5"/><linearGradient id="linear-gradient-36" x1="1760.38" y1="2942.35" x2="2137.49" y2="2942.35" gradientTransform="matrix(1, 0, 0, 1, 0, 0)" xlink:href="#linear-gradient-5"/><linearGradient id="linear-gradient-37" x1="2127.62" y1="2092.85" x2="934.18" y2="3404.39" xlink:href="#linear-gradient-2"/><linearGradient id="linear-gradient-38" x1="1835.29" y1="1676.89" x2="2924.78" y2="4634.06" gradientUnits="userSpaceOnUse"><stop offset="0" stop-color="#aa80f9"/><stop offset="1" stop-color="#6165d7"/></linearGradient><linearGradient id="linear-gradient-39" x1="1773.79" y1="2339.93" x2="2043.05" y2="2339.93" xlink:href="#linear-gradient-38"/></defs><g class="cls-3"><g id="Background"><rect class="cls-4" width="3710" height="3710"/></g><g id="Illustration"><path class="cls-5" d="M1642.73,430C1263.07,436.66,675.66,581,506.58,952c-59.05,129.56-55.05,320-47.06,701,2.35,112,6.25,275.17,33.62,477.66,56.85,420.64,95.55,707,242,873.73,367,417.8,1692.72,405.73,2258.83-346.45,308.83-410.31,356.33-994,74-1476.4C2757.05,650.39,2151,421,1642.73,430Z"/><path class="cls-1" d="M1990.66,522.54c-41.58-29-102.07-41.71-152.28-41.14-355.93,4-346.81,747.91-279,908.76s37.13,218-234.46,327.4-124.21,264.91-82.24,359.5,116,171.33-79.22,284.78-119.7,167.6-119.7,167.6,406.17,352.47,375.39,231.47-8.5-309.36,326.27-351c144.19-18,360.09-105.17,396.43-264.13,8.46-37,11.88-92.78.12-129.4-16.31-50.81-53.66-88.83-76.54-136-53.33-110,50.17-202.27,107.43-283.42,29.9-42.37,59.69-85.75,81.37-133,45-98.17,17-197.2-47.51-279-30.93-39.22-72.79-80.09-88.86-128.58-17.26-52.1-12-125.64-13.41-180.57-1.12-43.08-.55-86.13-6.49-128.92C2086.92,667.2,2060.17,571,1990.66,522.54Z"/><g class="cls-6"><g class="cls-7"><path class="cls-4" d="M1032,2747a5.25,5.25,0,0,1-5-9.22c1.5-.95,152.42-96.88,317.16-248,151.79-139.23,346.7-355.12,413.26-593,55.59-198.63,94.55-522.65,106.9-889,11.06-328.48-2.74-569.61-22.47-613a5.25,5.25,0,0,1,9.56-4.35c23.08,50.72,33.36,322,23.4,617.68-12.37,367.12-51.47,692-107.28,891.44-67.24,240.26-263.56,457.8-416.41,598-165.42,151.71-317,248-318.51,249A5.62,5.62,0,0,1,1032,2747Z"/><path class="cls-4" d="M1868.93,1071c-2.63,1.19-5.44.66-6.66-2-1.61-3.47-162.67-347.54-339.37-413.7a5.05,5.05,0,0,1-3-6.6,5.25,5.25,0,0,1,6.8-3c180.73,67.67,338.46,404.52,345.09,418.85,1.22,2.63-.18,5.19-2.82,6.39Z"/><path class="cls-4" d="M1838.41,1487.84a5.25,5.25,0,0,1-5.83-8.55c.9-.87,91.48-88.53,205.83-165.23,154.5-103.64,276.52-139,362.67-105.25a5.25,5.25,0,0,1-3.83,9.78c-198.21-77.76-553.78,264.76-557.35,268.23A5.27,5.27,0,0,1,1838.41,1487.84Z"/><path class="cls-4" d="M1484.67,2363.87a5.35,5.35,0,0,1-1.66.44,5.25,5.25,0,0,1-5.74-4.71c-.15-1.52-15.35-153.58-60.4-311.41-41.31-144.7-116.79-324-241.79-356.49a5.25,5.25,0,1,1,2.64-10.16c104.23,27.08,188.1,149.52,249.28,363.91,45.3,158.72,60.57,311.6,60.72,313.13A5.25,5.25,0,0,1,1484.67,2363.87Z"/><path class="cls-4" d="M1680.68,2100.09a5.25,5.25,0,0,1-5.63-8.73c15.82-13.84,389.3-338.71,546.59-323.54a5.25,5.25,0,1,1-1,10.45c-152.85-14.74-534.84,317.63-538.68,321A5.39,5.39,0,0,1,1680.68,2100.09Z"/></g></g><path class="cls-2" d="M2694.33,1033.58c-25.82-43.63-75.62-80.25-121.55-100.53-325.61-143.82-625.5,537-630.41,711.52s-56.53,213.82-349,200.85-222.8,189.66-223.78,293.14,34.59,204-190.09,226.36-178.37,103-178.37,103,223.64,489.07,245.76,366.18,120.42-285.08,442.38-184.32c138.67,43.4,371.31,53.46,470.24-76.16,23-30.18,49.25-79.51,53.72-117.72,6.2-53-12-103.08-13.31-155.52-3-122.21,129.46-163.31,215.19-213.44,44.76-26.18,89.85-53.32,129.17-87.38,81.62-70.71,97.17-172.44,72.35-273.6-11.91-48.51-33.07-103.06-27.61-153.85,5.87-54.56,41.14-119.31,62.6-169.9,16.82-39.67,35.18-78.62,47.5-120C2722,1205.12,2737.5,1106.52,2694.33,1033.58Z"/><g class="cls-8"><g class="cls-7"><path class="cls-4" d="M900.25,2661a5.25,5.25,0,0,1-.71-10.45c1.77-.25,178.87-25,391.4-94.31,195.83-63.84,462.67-179.58,621.78-368.46,132.89-157.76,302.58-436.52,465.57-764.81,146.16-294.38,233.5-519.57,233.5-567.2a5.25,5.25,0,1,1,10.5,0c0,55.72-103,306.92-234.59,571.87-163.35,329-333.55,608.53-466.95,766.9C1760,2385.33,1491.21,2502,1294,2566.25c-213.4,69.55-391.28,94.43-393,94.67A5.81,5.81,0,0,1,900.25,2661Z"/><path class="cls-4" d="M2356.33,1482.3c-2.88,0-5.23-1.65-5.25-4.54,0-3.82-4.07-383.71-137.48-517.12a5,5,0,0,1,0-7.26,5.25,5.25,0,0,1,7.42.09c136.46,136.46,140.46,508.39,140.56,524.18,0,2.9-2.31,4.65-5.21,4.65Z"/><path class="cls-4" d="M2155.86,1849.07a5.25,5.25,0,0,1-1.77-10.19c1.18-.43,119.94-42.68,255.79-65.12,183.55-30.31,309.27-12,373.68,54.46a5.25,5.25,0,0,1-7.54,7.31c-148.18-152.89-613.71,11.55-618.39,13.23A5.24,5.24,0,0,1,2155.86,1849.07Z"/><path class="cls-4" d="M1471,2499.84a5,5,0,0,1-1.7-.29,5.24,5.24,0,0,1-3.27-6.66c.49-1.45,49.65-146.14,74-308.45,22.35-148.82,27.94-343.29-72.37-424.63a5.25,5.25,0,0,1,6.61-8.16c83.65,67.83,109.26,214,76.12,434.49-24.53,163.23-74,308.7-74.46,310.15A5.24,5.24,0,0,1,1471,2499.84Z"/><path class="cls-4" d="M1758.65,2341a5.25,5.25,0,0,1-1.51-10.28c20.13-6,494.64-147,631.52-68a5.25,5.25,0,0,1-5.25,9.1c-133-76.74-618.37,67.52-623.25,69A5.31,5.31,0,0,1,1758.65,2341Z"/></g></g><path class="cls-9" d="M2001.92,2955.45c0,40.92-29,75.9-64.83,78L556.14,3114.05c-41,2.39-74.5-31.46-74.5-75.47v-1981c0-44,33.48-78.46,74.5-76.8l1380.95,56c35.8,1.45,64.83,35.92,64.83,76.84Z"/><path class="cls-10" d="M2042.46,2955.45c0,40.92-29,75.9-64.83,78l-1381,80.61c-41,2.39-74.49-31.46-74.49-75.47v-1981c0-44,33.48-78.46,74.49-76.8l1381,56c35.8,1.45,64.83,35.92,64.83,76.84Z"/><path class="cls-11" d="M556.93,1058.88v1977.8c0,23.52,17.81,41.58,39.75,40.34l1092.19-61.87,288.76-16.36c19.19-1.09,34.71-19.75,34.71-41.69V1112.5c0-21.94-15.52-40.33-34.71-41.07l-299.19-11.61-1081.76-42C574.74,1017,556.93,1035.36,556.93,1058.88Z"/><path class="cls-12" d="M1993.2,2871.8a15.67,15.67,0,0,1-14.59,15.55l-1383,70.72c-9.19.47-16.67-6.26-16.67-15V1058.92c0-8.73,7.48-15.55,16.67-15.21l1383.05,52a15.39,15.39,0,0,1,14.59,15.34Z"/><path class="cls-13" d="M1449.46,2994.42l-280.83,15.44c-15,.83-27.21-9.58-27.21-23.25v-1c0-13.67,12.19-25.39,27.21-26.18l280.83-14.77c14.6-.77,26.42,9.52,26.42,23v1C1475.88,2982.06,1464.06,2993.62,1449.46,2994.42Z"/><path class="cls-4" d="M1324.36,1046.08c0,7.27-6.43,12.92-14.37,12.61s-14.39-6.45-14.39-13.73S1302,1032,1310,1032.34,1324.36,1038.8,1324.36,1046.08Z"/><g class="cls-14"><path class="cls-4" d="M1677,2825.81c-5.63-120.71,128.58-191.51,115.68-361.79-1.16-15.36-13.15-147.14-119.21-236.46-95.24-80.21-175.29-50-351.56-114-123.54-44.84-262.42-95.24-318.6-196.38-111.55-200.85,207.21-401.46,142-661.47-18.69-74.51-71.48-165.83-210.89-261.21L596.68,980.81c-41-1.66-74.49,32.79-74.49,76.8v1981c0,44,33.48,77.86,74.49,75.47l1258.24-73.44C1720.9,2963.13,1679.88,2888.7,1677,2825.81Z"/></g><path class="cls-15" d="M2552.69,2039.19a35.72,35.72,0,0,0,7.55-17.8c1.92-17.19-10.43-35.18-17.87-34.25-6.73.84-9.67,17.19-10.31,24.11-1.4,15.1,4.2,27.17,7.74,33.38Z"/><path class="cls-16" d="M2564.61,2039.74a441.05,441.05,0,0,0-9.3,77.86c-.9,30.31-2.12,90.64,23.41,159.49,23.45,63.22,48.88,78.11,42,114.28-6.07,31.77-32.17,54.32-54.12,68.71a768.9,768.9,0,0,1-41.66-95.71,648.33,648.33,0,0,1-25.41-88c-8.5-40.31-15.41-73.05-12.45-113.73,1.92-26.4,9-70.3,37.42-121.27C2536.3,2039.5,2551.75,2039.36,2564.61,2039.74Z"/><path class="cls-17" d="M3067.52,1679.34,2892,2085.28c-19.13,44.25-70.72,63.09-115,44l-405.9-175.5c-44.29-19.15-66.94-70.1-47.81-114.35l175.52-405.94c19.13-44.25,72.38-64,116.67-44.9l405.9,175.5C3065.66,1583.18,3086.65,1635.09,3067.52,1679.34Z"/><path class="cls-18" d="M3229.58,1750.93l-175.51,405.94c-19.14,44.25-70.73,63.1-115,44l-405.91-175.5c-44.28-19.15-66.94-70.1-47.81-114.35l175.52-405.94c19.13-44.25,72.38-64.06,116.67-44.91l405.9,175.5C3227.72,1654.78,3248.72,1706.68,3229.58,1750.93Z"/><path class="cls-4" d="M2982.18,1672.84l-94.33-40.78-8.29,8.32-277,299,83.13,35.94,65.58-79.31,132.67,57.36-12.86,102.11,83.12,35.94Zm-185.85,172.25c31.19-36.2,57.36-68,76.63-90.94,18.86-22.45,32.22-39,39.45-48.37-1.28,6.55-3,16.66-4.43,28.27s-6.53,61.25-16.82,152Z"/><path class="cls-19" d="M2485.38,1911l175.52-405.94c19.13-44.25,72.38-64.06,116.67-44.91l76.37,33c14.63,43.6,24.15,93.42,26.87,144.34a492.12,492.12,0,0,1-7.22,115.19,480.37,480.37,0,0,1-33.39,108,518.11,518.11,0,0,1-32.93,62.58,576.08,576.08,0,0,1-40.62,57.7c-28.56,36-57.25,70.88-85.94,108.17l-147.52-63.78C2488.91,2006.19,2466.25,1955.24,2485.38,1911Z"/><path class="cls-20" d="M2853.19,2065.44a44,44,0,0,1-10.85-20.23c-4.44-20.22,7-43.17,15.46-43,7.67.15,13.13,19.23,14.78,27.39,3.59,17.8-1.09,32.87-4.23,40.7Z"/><path class="cls-21" d="M2846.44,2822.63s5.26-11.31,11.37-10.82,12.53,1.05,26.8,10.44,21.12,10.84,20.44,16.86S2859.33,2843.94,2846.44,2822.63Z"/><path class="cls-22" d="M2829.62,2830c1.14-.37,13.27-7.59,20.17-11.72a7.36,7.36,0,0,1,8.8.93h0a9,9,0,0,1,.79,12.39c-5.18,6.2-13,15.25-18.62,20.25Z"/><path class="cls-23" d="M2730.91,3127.69a11,11,0,0,0,.11,1.6c.34,3.52.9,11.65-5.63,17.89-8,7.63-28.18,9.39-52.45,10.61s-5-14.44-1.55-16.21,50.88-22.68,50.88-22.68Z"/><path class="cls-24" d="M2712.63,3105.76l4,28.12s5.73,3.38,10-4.53l10.65-19.85Z"/><path class="cls-25" d="M2617.24,2558.1c-33.2-2.06-47,35.18-65.77,67.79-36.95,64.21-91.54,201.65-39.3,271.54,44,58.85,172.25,30.46,209.89,18.21,79-25.7,75.75-33.72,130.9-68.9-9.68-7.68-12.68-17.17-20.74-25.52-19.74-1.91-56.85-2.52-73.9-2.85-25.21-.49-70.17,1.54-83.84,2.6-21.64,1.69-62.94,12.49-70.14,2.88-15.91-21.26,29.55-129.34,30.27-164.63C2634.91,2644.43,2647.56,2560,2617.24,2558.1Z"/><path class="cls-26" d="M2552.07,2624.32c-8.67,13.44-17.3,36-24.29,51.36,6.94,4.68,16.64,10.16,19.12,18,11.4,35.94-13.14,68.34-10.7,113.47.63,11.54,5.34,53.06,27.46,63.25,26.42,12.18,77.5-5.78,112.38-1.38,18.09,2.28,35.35,15.1,53.88,13,29.26-3.28,48-24.58,77.61-28.82,7.83-1.12,21.6,1.72,29.83,5,5-3.55,9.48-7.26,14.2-11-6.56-8.66-12.15-17.34-19.29-26-19.83-1.89-56.9-2.49-73.94-2.83-25.22-.52-70.2,1.59-83.84,2.59-21.61,1.59-63,12.68-70.15,2.88-15.74-21.64,29.25-128.64,30.39-164.91.48-15.2,11.82-96.55-17.21-101.49C2585.74,2552,2566.77,2601.54,2552.07,2624.32Z"/><path class="cls-27" d="M2599.7,2648c-3.5,59.24,33.1,141.07,28.55,209.42-.51,7.79,2.32,40.54,5.42,49.77,10,29.89,69.58,206.69,71.1,208.39,11.07-2.29,22.57-3.69,33.83-6.12,14.75-26.84,26.63-64.21,33.42-92.7,9.13-38.37-9.42-83.34-13.74-108.89-5-29.41-4.57-77.4-7.56-87.45-22.23-74.55,5.43-102.88-5.12-163.88-5.46-31.61-25.62-47-48.61-66C2664.38,2623.53,2627.5,2611.6,2599.7,2648Z"/><path class="cls-28" d="M2835.39,2050.67c-2.19,18.59-5.91,45.43-12.39,77.48-16.1,79.62-24.15,119.44-49.36,155.22-40.86,58-86.56,56.78-88.93,93.32-2.18,33.6,37,72.83,81.83,79.6,23.77,3.59,43.57-2.83,53.91-7.1,6.59-22.59,14.93-53.29,23.08-90,7.8-35.14,22.81-94.16,27-172,2.72-50.61,3.27-93.39,3.17-125.11C2862.8,2057.33,2847.91,2053.44,2835.39,2050.67Z"/><path class="cls-29" d="M2559.7,2513.37c-11.35,46.42-24.3,67.43-16.19,99.73,6.69,26.66,40.81,39.59,75.94,52.91,23.47,8.9,96.07,36.41,138.29,5.47,17.77-13,19.71-28.75,32.39-86.54,32.21-146.84,44.69-159.46,31.14-191.25-20.95-49.17-73.56-72.39-91.38-79.26-1.91-.74-3.44-1.31-4.53-1.69-45.29-16.21-129.29-24.55-163.08,8.69C2525.59,2357.53,2586.12,2405.26,2559.7,2513.37Z"/><path class="cls-30" d="M2608.52,2187.15c-.4-13.48-10-15.39-10.09-27.84-.14-15.62,14.74-31.88,30.77-37.3,15.69-5.3,20.94,3.7,52.53,8.46,33.94,5.12,40.7-3.33,67.65,5.06a99.8,99.8,0,0,1,33.67,17.07c10.78,8.51,32.17,25.38,31.25,50.19-1,27.11-27.91,43.13-30.49,44.62,4,32.29-1.92,44.76-9.41,49.46,0,0-8,5-43.51-1.17h0s-12.07,10.88-18.59,14.11c-7.43,3.67-20.75,3.92-46.52-13.83a190.15,190.15,0,0,0,.27-25.21c-1.1-19.58-1.64-29.38-6.6-32-12.49-6.64-37.58,36.73-54.91,30.46-11.14-4-16.51-27.67-12.13-45.33S2609,2202.47,2608.52,2187.15Z"/><path class="cls-31" d="M2598,2582.5c53.45,5.59,91-42.27,93.85-46,27.64-36.35,7.44-57.64,30.76-105.27,22.82-46.61,46.61-35.3,78.09-83.32,43.86-66.9,42-156.42,41.85-160.58-.42-13.53-2.44-40.68,10.09-72.86a160.78,160.78,0,0,1,21.1-37.8c-.11,29.78-.85,67.25-3.17,110.46-4.19,77.88-19.2,136.9-27,172-6.12,27.55-12.34,51.72-17.85,71.61-3.45,24.46-15.78,64-35.55,154.15-12.68,57.79-14.62,73.52-32.39,86.54-42.22,30.94-114.82,3.43-138.29-5.47-35.13-13.32-69.25-26.25-75.94-52.91-4.86-19.33-2.14-34.65,3.23-53.76C2555.46,2566.9,2573.17,2579.9,2598,2582.5Z"/><path class="cls-32" d="M2679.94,2290.23c-12.94,7.4-37.59,1.23-37.59,1.23s8,32.05-2.16,32.05-48.07,7.09-35.43,20,100.75,16,114-2.35S2685.8,2329.06,2679.94,2290.23Z"/><path class="cls-33" d="M2689.74,2293.12s-33.73,27.8-75.54,10.17c-37.45-15.78-13.25-103.64,17.54-113.38,10.27-3.25,27.5-.1,39.5,8.24,7.08,4.92,8.61,9.1,20.35,16.93,10.82,7.21,14.65,7.06,17.19,11.33,3.18,5.33,3.25,15.75-13,38.26,9.87-4.87,19.63-4.66,24.83.43a13.8,13.8,0,0,1,3.38,6.74C2726,2283.51,2712.67,2292.93,2689.74,2293.12Z"/><path class="cls-34" d="M1432.55,1835.41h-.82L1121.29,1833c-58.28-.45-105.51-47.4-105.27-104.64l1.33-316.28c.25-57.38,48.77-103.79,107.44-102.09l312.11,9.25c56.36,1.66,101.67,49.15,101,105.86l-3.69,309.42C1533.54,1791.08,1488.88,1835.41,1432.55,1835.41Zm-311-514.4c-51.14,0-92.91,40.86-93.12,91.09l-1.33,316.28c-.22,51.16,42.07,93.1,94.26,93.51l311.17,2.42c50.18,0,90-39.51,90.57-89.94L1526.8,1425c.61-50.7-39.87-93.16-90.23-94.65l-312.11-9.25C1123.49,1321,1122.53,1321,1121.57,1321Z"/><path class="cls-35" d="M1497.62,1423c.37-32.07-24.36-58.83-56.41-59.72l-314.88-8.79c-33-.92-60.42,24.85-60.58,57.53L1064.21,1730c-.15,32.33,27.26,58.77,60.07,59.08l312,3a57.24,57.24,0,0,0,57.81-56.91Zm-141.92,288.4-20.62-65.76L1227.77,1644l-21.92,65.51-67.81-.87,106.81-291.87,76.57,2,100.84,293.58Z"/><path class="cls-36" d="M1283.12,1464c-4.58,17-17.64,59.78-39.17,125.33l76.77,1.38c-19.17-62.51-30-99-32.4-107.35S1284.16,1468.87,1283.12,1464Z"/><path class="cls-37" d="M998.78,2142.7l-36.18.2-.24,72.79,38.18-.33c17.43-.15,30.42-2.3,38.74-8.85s12.43-15.56,12.49-28.92C1051.88,2153.51,1034.2,2142.5,998.78,2142.7Z"/><path class="cls-38" d="M1034.13,2086.3c7.71-5.2,11.6-14.36,11.65-26.31,0-11.16-4.09-20.49-12.44-25.33s-21.88-8.6-40-8.59l-30.3,0-.23,69.4,33.75-.12C1013.7,2095.31,1026.41,2091.5,1034.13,2086.3Z"/><path class="cls-39" d="M845.34,2388c-58.15,0-105.46-45.64-105.46-101.74V1971.73c0-57.33,48-104,107.09-104l318.25,1.84a104.67,104.67,0,0,1,74.47,31.23,100.54,100.54,0,0,1,29.31,71.78l-2.43,307.78c-.45,55.75-47.33,101.82-104.51,102.72ZM847,1878.85c-52.93,0-96,41.67-96,92.88V2286.3c0,50,42.33,90.65,94.36,90.65l1.59,0,315-4.92c51.21-.79,93.2-41.94,93.59-91.7l2.44-307.79a89.49,89.49,0,0,0-26.12-63.9,93.69,93.69,0,0,0-66.64-27.93Z"/><path class="cls-40" d="M1225,1971.41c.23-31.91-26.34-57.91-58.88-58l-319.93-1.32c-33.53-.14-61.49,26.13-61.51,58.65L784.46,2287c0,32.17,27.5,57.83,60.8,57.36l317.86-4.46c32.33-.45,59.35-26.41,59.58-58ZM1087.7,2244.27c-19.63,15-45.94,21.41-79.63,21.78L892,2267.3l.65-292.56,97.72.15c42.5.07,73.06,7.22,92.09,19s28.33,31,28.19,56.61c-.1,17.35-5.44,31.91-13.83,43s-19.72,18.16-34.46,20.52v2c18.39,4,33.44,11.62,41.7,22.81s12.85,25.45,12.74,44.06C1116.63,2209.3,1107.3,2229.32,1087.7,2244.27Z"/><path class="cls-41" d="M1402.25,2379.34a99.19,99.19,0,0,1-71-29.3,97.83,97.83,0,0,1-28.4-70.28l2.65-307.25c.48-56,46.59-101.68,102.77-101.68h.61l302.26,1.84a97.5,97.5,0,0,1,69.62,29.49,99,99,0,0,1,28.25,71.38l-4.86,300.7c-.88,54.5-45.91,99.55-100.39,100.4Zm6-497.24c-50.12,0-91.25,40.64-91.68,90.59l-2.65,307.16a86.84,86.84,0,0,0,25.19,62.38,88.14,88.14,0,0,0,63.14,26h1.46l299.86-4.69c48.55-.76,88.68-40.9,89.47-89.48l4.85-300.69a87.88,87.88,0,0,0-25.08-63.41,86.38,86.38,0,0,0-61.75-26.11Z"/><path class="cls-42" d="M1769.37,1972.36c.49-31.17-23.81-56.57-54.85-56.69l-303.7-1.28a57.5,57.5,0,0,0-57.77,57.24l-2.87,308.77a55.25,55.25,0,0,0,56.56,56l301.85-4.23c30.85-.43,55.56-25.76,56-56.61ZM1585.5,2216.13c19.94-.18,40.23-5.32,72.73-15.52l-.7,50.19c-21.69,9.88-49.58,15-78.31,15.33-41.4.46-73.15-11.71-94.92-36.55s-32.58-60.92-32.07-108q.48-44.58,17.17-78.18t47.45-51.47q30.7-17.87,71.53-17.79,41.5.06,82.91,20.15l-20.06,49a315.3,315.3,0,0,0-31.85-13.18,95.12,95.12,0,0,0-31.65-5.63q-34.15,0-53.26,25.7c-12.74,17.14-19.17,41-19.53,71.53C1514.19,2185.09,1537.84,2216.56,1585.5,2216.13Z"/><path class="cls-43" d="M1568,2504.46c.38-29.84-23.36-53.6-53.58-53l-469.72,8.95c-31.55.6-57.51,25.92-57.62,56.51l-.08,22.39c-.12,30.54,26.25,54.63,57.73,53.85l468.55-11.57a56,56,0,0,0,54.44-55.26Z"/><path class="cls-44" d="M2311.28,2664.62l-165.62-97.31c-1.67-1.08-3.91-2.09-5.67-3l-.3,0-.14.67c-12.17-6.6-26.45-9.58-41.62-9.25L1849.57,2561l-174.08,3.78c-47.3,1-85.22,36.59-85.22,80.78v405.06c0,28.57,14.82,53.24,39.37,66.51h0l178,98.45,89.85-99.54,43.36-2.05,158.64-7.41c45.25-2.13,84.56-38.8,84.56-81.8V2806.56Z"/><path class="cls-45" d="M2347.77,2729.87V3121c0,42.67-35.35,79.94-79.9,82.25l-420.16,21.72c-46.54,2.42-87.33-32-87.33-75.86V2747.28c0-43.83,40.48-81.86,87-83.08l419.29-11C2311.24,2652.07,2347.77,2687.2,2347.77,2729.87Z"/><path class="cls-4" d="M2093.49,3055.06q-93.93,4.2-94-115,0-57.26,24.66-90.18,21.84-29.13,59.47-33.61c3.23-.37,6.54-.63,9.92-.74a129.49,129.49,0,0,1,41.51,5.62,433.13,433.13,0,0,1,41.86,15l25.31-61.7q-54.43-23.16-108.68-21.54a230.44,230.44,0,0,0-33,3.34,179.21,179.21,0,0,0-60.4,21.81q-40,23.63-61.57,66.24t-21.5,98.49q0,88.55,43.75,133.88T2086.09,3118a356.42,356.42,0,0,0,51.84-6.16c18.75-3.87,30.09-9.21,55.77-17v-62.79c-25.68,7.24-38,12.4-53.69,16.19A256.53,256.53,0,0,1,2093.49,3055.06Z"/><path class="cls-46" d="M1760.38,3149.06V2747.28c0-43.83,40.48-81.86,87-83.08l174.25-4.54c12.23,33.78,25.71,64.2,38.23,95.91,7.93,20,16,40.36,23.4,60.37,28.2,76.44,50.95,153.46,53.85,232.24a438.28,438.28,0,0,1-2,63.66,422.68,422.68,0,0,1-19.26,89.25c-1.06,3.23-2.18,4.6-3.4,10.17l-265.07,13.66C1800.85,3227.34,1760.38,3192.9,1760.38,3149.06Z"/><path class="cls-47" d="M2321.12,2052.72l-150.29-24.4c-6.77-1.56-14.91-1.79-22.22-1.79H1708.79c-49,0-85.21,33.9-85.21,79.79V2526.9c0,40.06,26.57,77.07,67.19,80.41h-.09v-.26c1.84.31,3.69.42,5.57.62l166,22.77,20.93-26.14,4.37-.17,262.32-6.71c46.92-1.2,87.85-39.39,87.85-84V2160.77Z"/><path class="cls-48" d="M2300.38,2049.88l-435.38.48c-48.36,0-91.21,36-91.21,81.55v417.67c0,45.57,43,81.35,91.3,80.06l434.45-11.59c46.29-1.24,85.07-38.16,85.07-82.51V2129.05C2384.61,2084.7,2346.66,2049.83,2300.38,2049.88Z"/><path class="cls-4" d="M2213.32,2355.06c-10.79-14.1-25.64-23.59-52.34-28.44v-2.48c23.36-3.17,31.84-11.77,42.6-26s15.93-32.26,15.93-54.22c0-32.29-12.45-55.28-37.1-69.92s-62.82-21.39-118-21.08l-120.43.7v374.23l144.73-3.26c43.87-1,77.63-12.9,103.05-32.22s37.84-46.52,37.84-80C2229.64,2388.82,2224.1,2369.11,2213.32,2355.06Zm-189.2-141.53,43.6-.37c23.59-.19,40.64,4.21,51.52,10.26s16.22,16.84,16.22,30.94c0,15.12-5,26.36-15,33s-25.86,10.5-48.22,10.77l-48.13.59ZM2128,2442c-10.75,8.44-27.17,11.57-49.85,12l-54,1v-95.87l51.32-.77c46-.69,68.84,14.58,68.84,45.15C2144.28,2420.49,2138.73,2433.52,2128,2442Z"/><path class="cls-49" d="M1773.79,2549.58V2131.91c0-45.58,43-81.5,91.3-81.55l157.93-.18c-9.16,28.43-17.28,68-24.35,102.63-16.71,80.9-25.36,162.5-16.7,245.23,4.38,42,13.79,83.52,26,124.9,10.11,34.19,22.21,66.83,35.1,102l-178,4.71C1816.71,2630.93,1773.79,2595.15,1773.79,2549.58Z"/></g></g></svg>