<svg id="Layer_1" data-name="Layer 1" xmlns="http://www.w3.org/2000/svg" xmlns:xlink="http://www.w3.org/1999/xlink" viewBox="0 0 3710 2398.41"><defs><style>.cls-1{mask:url(#mask);filter:url(#luminosity-noclip-3);}.cls-2,.cls-4{mix-blend-mode:multiply;}.cls-2{fill:url(#linear-gradient);}.cls-3{mask:url(#mask-2);filter:url(#luminosity-noclip-4);}.cls-4{fill:url(#linear-gradient-2);}.cls-5{mask:url(#mask-3);}.cls-6,.cls-8{opacity:0.71;}.cls-6{fill:url(#linear-gradient-3);}.cls-7{mask:url(#mask-4);}.cls-8{fill:url(#linear-gradient-4);}.cls-9{fill:#f4f7fa;}.cls-10{fill:url(#linear-gradient-5);}.cls-11{fill:url(#linear-gradient-6);}.cls-12{fill:url(#linear-gradient-7);}.cls-13{fill:#bdd0fb;}.cls-14{fill:url(#linear-gradient-8);}.cls-15{fill:url(#linear-gradient-9);}.cls-16{fill:url(#linear-gradient-10);}.cls-17{fill:url(#linear-gradient-11);}.cls-18{fill:url(#linear-gradient-12);}.cls-19{fill:url(#linear-gradient-13);}.cls-20{fill:url(#linear-gradient-14);}.cls-21{fill:url(#linear-gradient-15);}.cls-22{fill:#7d97f4;}.cls-23{fill:url(#linear-gradient-16);}.cls-24{fill:url(#linear-gradient-17);}.cls-25{fill:url(#linear-gradient-18);}.cls-26{fill:url(#linear-gradient-19);}.cls-27{fill:#97a6b7;}.cls-28{fill:#d8dee8;}.cls-29{fill:url(#linear-gradient-20);}.cls-30{fill:url(#linear-gradient-21);}.cls-31{fill:url(#linear-gradient-22);}.cls-32{fill:url(#linear-gradient-23);}.cls-33{fill:url(#linear-gradient-24);}.cls-34{fill:url(#linear-gradient-25);}.cls-35{fill:url(#linear-gradient-26);}.cls-36{fill:url(#linear-gradient-27);}.cls-37{fill:url(#linear-gradient-28);}.cls-38{fill:url(#linear-gradient-29);}.cls-39{fill:url(#linear-gradient-30);}.cls-40{fill:url(#linear-gradient-31);}.cls-41{fill:url(#linear-gradient-32);}.cls-42{fill:url(#linear-gradient-33);}.cls-43{fill:url(#linear-gradient-34);}.cls-44{fill:url(#linear-gradient-35);}.cls-45{fill:url(#linear-gradient-36);}.cls-46{fill:url(#linear-gradient-37);}.cls-47{fill:url(#linear-gradient-38);}.cls-48{fill:url(#linear-gradient-39);}.cls-49{fill:url(#linear-gradient-40);}.cls-50{fill:url(#linear-gradient-41);}.cls-51{fill:url(#linear-gradient-42);}.cls-52{fill:url(#linear-gradient-43);}.cls-53{fill:#fff;opacity:0.48;}.cls-54{fill:url(#linear-gradient-44);}.cls-55{fill:url(#linear-gradient-45);}.cls-56{fill:url(#linear-gradient-46);}.cls-57{fill:url(#linear-gradient-47);}.cls-58{fill:url(#linear-gradient-48);}.cls-59{fill:#91b3fa;}.cls-60{fill:url(#linear-gradient-49);}.cls-61{fill:url(#linear-gradient-50);}.cls-62{fill:url(#linear-gradient-51);}.cls-63{fill:url(#linear-gradient-52);}.cls-64{fill:url(#linear-gradient-53);}.cls-65{fill:url(#linear-gradient-54);}.cls-66{fill:url(#linear-gradient-55);}.cls-67{fill:url(#linear-gradient-56);}.cls-68{fill:url(#linear-gradient-57);}.cls-69{fill:url(#linear-gradient-58);}.cls-70{fill:url(#linear-gradient-59);}.cls-71{fill:url(#linear-gradient-60);}.cls-72{fill:url(#linear-gradient-61);}.cls-73{fill:url(#linear-gradient-62);}.cls-74{fill:url(#linear-gradient-63);}.cls-75{fill:url(#linear-gradient-64);}.cls-76{fill-rule:evenodd;fill:url(#linear-gradient-65);}.cls-77{fill:url(#linear-gradient-66);}.cls-78{fill:url(#linear-gradient-67);}.cls-79{fill:url(#linear-gradient-68);}.cls-80{fill:url(#linear-gradient-69);}.cls-81{fill:url(#linear-gradient-70);}.cls-82{fill:url(#linear-gradient-71);}.cls-83{fill:url(#linear-gradient-72);}.cls-84{fill:url(#linear-gradient-73);}.cls-85{fill:url(#linear-gradient-74);}.cls-86{fill:url(#linear-gradient-75);}.cls-87{fill:url(#linear-gradient-76);}.cls-88{fill:url(#linear-gradient-77);}.cls-89{fill:url(#linear-gradient-78);}.cls-90{filter:url(#luminosity-noclip-2);}.cls-91{filter:url(#luminosity-noclip);}</style><filter id="luminosity-noclip" x="2197.8" y="-8734.41" width="790.51" height="32766" filterUnits="userSpaceOnUse" color-interpolation-filters="sRGB"><feFlood flood-color="#fff" result="bg"/><feBlend in="SourceGraphic" in2="bg"/></filter><mask id="mask" x="2197.8" y="-8734.41" width="790.51" height="32766" maskUnits="userSpaceOnUse"><g class="cls-91"/></mask><linearGradient id="linear-gradient" x1="7097.14" y1="328.08" x2="5670.69" y2="2195.39" gradientTransform="matrix(-1, 0, 0, 1, 9276.22, 0)" gradientUnits="userSpaceOnUse"><stop offset="0" stop-color="#fff"/><stop offset="1"/></linearGradient><filter id="luminosity-noclip-2" x="1382.24" y="-8734.41" width="780.48" height="32766" filterUnits="userSpaceOnUse" color-interpolation-filters="sRGB"><feFlood flood-color="#fff" result="bg"/><feBlend in="SourceGraphic" in2="bg"/></filter><mask id="mask-2" x="1382.24" y="-8734.41" width="780.48" height="32766" maskUnits="userSpaceOnUse"><g class="cls-90"/></mask><linearGradient id="linear-gradient-2" x1="7962.25" y1="353.76" x2="6571.8" y2="1951.12" xlink:href="#linear-gradient"/><filter id="luminosity-noclip-3" x="2197.8" y="267.42" width="790.51" height="1169.15" filterUnits="userSpaceOnUse" color-interpolation-filters="sRGB"><feFlood flood-color="#fff" result="bg"/><feBlend in="SourceGraphic" in2="bg"/></filter><mask id="mask-3" x="2197.8" y="267.42" width="790.51" height="1169.15" maskUnits="userSpaceOnUse"><g class="cls-1"><path class="cls-2" d="M2197.8,323.52c311.07-108.89,468.44-27.83,790.51-16V1436.57c-278.85-23.5-544.45-27.87-790.51-4.06Z"/></g></mask><linearGradient id="linear-gradient-3" x1="7097.14" y1="328.08" x2="5670.69" y2="2195.39" gradientTransform="matrix(-1, 0, 0, 1, 9276.22, 0)" gradientUnits="userSpaceOnUse"><stop offset="0" stop-color="#fff"/><stop offset="1" stop-color="#fff"/></linearGradient><filter id="luminosity-noclip-4" x="1382.24" y="280.81" width="780.48" height="1155.76" filterUnits="userSpaceOnUse" color-interpolation-filters="sRGB"><feFlood flood-color="#fff" result="bg"/><feBlend in="SourceGraphic" in2="bg"/></filter><mask id="mask-4" x="1382.24" y="280.81" width="780.48" height="1155.76" maskUnits="userSpaceOnUse"><g class="cls-3"><path class="cls-4" d="M2162.73,324.45V1436.1l-4.43.47c-258.46-10-515.3-20.37-776.06,0V311.4C1691,301.17,1953.2,240.88,2162.73,324.45Z"/></g></mask><linearGradient id="linear-gradient-4" x1="7962.25" y1="353.76" x2="6571.8" y2="1951.12" xlink:href="#linear-gradient-3"/><linearGradient id="linear-gradient-5" x1="3538.44" y1="1441.42" x2="1061.15" y2="877.48" gradientTransform="translate(-13.64 -5.81) rotate(-0.59)" gradientUnits="userSpaceOnUse"><stop offset="0" stop-color="#e1473d"/><stop offset="1" stop-color="#e9605a"/></linearGradient><linearGradient id="linear-gradient-6" x1="2248.05" y1="1267.07" x2="2543.02" y2="2688.27" gradientUnits="userSpaceOnUse"><stop offset="0" stop-color="#ff9085"/><stop offset="1" stop-color="#fb6fbb"/></linearGradient><linearGradient id="linear-gradient-7" x1="-381.6" y1="-1158.2" x2="1825.9" y2="1979.97" gradientTransform="translate(1132.55 -1110.94) rotate(36.68)" xlink:href="#linear-gradient-5"/><linearGradient id="linear-gradient-8" x1="2074.73" y1="1277.41" x2="1573.38" y2="1419.85" xlink:href="#linear-gradient-5"/><linearGradient id="linear-gradient-9" x1="2466.97" y1="1416.01" x2="1885.12" y2="1916.3" xlink:href="#linear-gradient-5"/><linearGradient id="linear-gradient-10" x1="2033.29" y1="1666.83" x2="2256.44" y2="1666.83" gradientUnits="userSpaceOnUse"><stop offset="0" stop-color="#fe7062"/><stop offset="1" stop-color="#ff928e"/></linearGradient><linearGradient id="linear-gradient-11" x1="2671.86" y1="1589.22" x2="2381.06" y2="2100.89" xlink:href="#linear-gradient-5"/><linearGradient id="linear-gradient-12" x1="2422.62" y1="1813.84" x2="2638.86" y2="1813.84" gradientTransform="matrix(1, 0, 0, 1, 0, 0)" xlink:href="#linear-gradient-5"/><linearGradient id="linear-gradient-13" x1="3137.21" y1="1233.44" x2="2847.14" y2="1906.56" xlink:href="#linear-gradient-5"/><linearGradient id="linear-gradient-14" x1="3226.18" y1="1281.54" x2="2888.57" y2="1793.57" gradientTransform="translate(-13.64 -5.81) rotate(-0.59)" gradientUnits="userSpaceOnUse"><stop offset="0" stop-color="#ff928e"/><stop offset="1" stop-color="#feb3b1"/></linearGradient><linearGradient id="linear-gradient-15" x1="3120.08" y1="1115.15" x2="2966.59" y2="1579.35" xlink:href="#linear-gradient-5"/><linearGradient id="linear-gradient-16" x1="2022.67" y1="18.09" x2="1857.26" y2="608.19" gradientTransform="matrix(1, 0, 0, 1, 0, 0)" xlink:href="#linear-gradient-5"/><linearGradient id="linear-gradient-17" x1="2260.5" y1="84.75" x2="2095.09" y2="674.86" gradientTransform="matrix(1, 0, 0, 1, 0, 0)" xlink:href="#linear-gradient-5"/><linearGradient id="linear-gradient-18" x1="2560.97" y1="168.97" x2="2395.56" y2="759.08" gradientTransform="matrix(1, 0, 0, 1, 0, 0)" xlink:href="#linear-gradient-5"/><linearGradient id="linear-gradient-19" x1="2703.77" y1="209" x2="2538.36" y2="799.11" gradientTransform="matrix(1, 0, 0, 1, 0, 0)" xlink:href="#linear-gradient-5"/><linearGradient id="linear-gradient-20" x1="930.89" y1="960.36" x2="1959.67" y2="960.36" gradientUnits="userSpaceOnUse"><stop offset="0" stop-color="#dae3fe"/><stop offset="1" stop-color="#e9effd"/></linearGradient><linearGradient id="linear-gradient-21" x1="2084.76" y1="76.01" x2="992.95" y2="1601.55" xlink:href="#linear-gradient-10"/><linearGradient id="linear-gradient-22" x1="1363.48" y1="1055.69" x2="1555.53" y2="1055.69" gradientTransform="matrix(1, 0, 0, 1, 0, 0)" xlink:href="#linear-gradient-14"/><linearGradient id="linear-gradient-23" x1="-1469.56" y1="788.48" x2="-1360.51" y2="1062.02" gradientTransform="matrix(-1, 0, 0, 1, -642.24, 0)" gradientUnits="userSpaceOnUse"><stop offset="0" stop-color="#311944"/><stop offset="1" stop-color="#6b3976"/></linearGradient><linearGradient id="linear-gradient-24" x1="-1609.27" y1="945.96" x2="-1447.11" y2="1314.91" gradientTransform="matrix(-1, 0, 0, 1, -642.24, 0)" gradientUnits="userSpaceOnUse"><stop offset="0" stop-color="#ffc444"/><stop offset="1" stop-color="#f36f56"/></linearGradient><linearGradient id="linear-gradient-25" x1="-1107.32" y1="2234.61" x2="-1033.04" y2="2234.61" gradientTransform="matrix(-1, 0, 0, 1, -642.24, 0)" gradientUnits="userSpaceOnUse"><stop offset="0" stop-color="#09005d"/><stop offset="1" stop-color="#1a0f91"/></linearGradient><linearGradient id="linear-gradient-26" x1="-1421.82" y1="2521.86" x2="-1314.71" y2="1270.04" xlink:href="#linear-gradient-24"/><linearGradient id="linear-gradient-27" x1="-1453.11" y1="2214.77" x2="-1332.68" y2="2214.77" xlink:href="#linear-gradient-25"/><linearGradient id="linear-gradient-28" x1="-1206.36" y1="2540.48" x2="-1099.23" y2="1288.33" xlink:href="#linear-gradient-24"/><linearGradient id="linear-gradient-29" x1="808.92" y1="1129.76" x2="476.5" y2="2272.85" gradientUnits="userSpaceOnUse"><stop offset="0" stop-color="#aa80f9"/><stop offset="1" stop-color="#6165d7"/></linearGradient><linearGradient id="linear-gradient-30" x1="18.24" y1="2047.53" x2="685.77" y2="1666.08" gradientUnits="userSpaceOnUse"><stop offset="0" stop-color="#444b8c"/><stop offset="1" stop-color="#26264f"/></linearGradient><linearGradient id="linear-gradient-31" x1="-1433.56" y1="1287.94" x2="-1413.44" y2="1140.74" xlink:href="#linear-gradient-24"/><linearGradient id="linear-gradient-32" x1="-1350.64" y1="1359.66" x2="-1216.99" y2="1359.66" xlink:href="#linear-gradient-24"/><linearGradient id="linear-gradient-33" x1="-1484.35" y1="1117.55" x2="-1308.8" y2="805.13" xlink:href="#linear-gradient-24"/><linearGradient id="linear-gradient-34" x1="-1446.6" y1="845.48" x2="-1358.82" y2="1065.66" xlink:href="#linear-gradient-23"/><linearGradient id="linear-gradient-35" x1="-1446.98" y1="1138.54" x2="-1271.43" y2="826.13" xlink:href="#linear-gradient-24"/><linearGradient id="linear-gradient-36" x1="-1641.31" y1="960.05" x2="-1479.16" y2="1328.99" xlink:href="#linear-gradient-24"/><linearGradient id="linear-gradient-37" x1="2999.19" y1="565.27" x2="2798.05" y2="652.43" gradientTransform="matrix(1, 0, 0, 1, 0, 0)" xlink:href="#linear-gradient-24"/><linearGradient id="linear-gradient-38" x1="2920.6" y1="604.36" x2="2786.51" y2="702.7" gradientTransform="matrix(1, 0, 0, 1, 0, 0)" xlink:href="#linear-gradient-24"/><linearGradient id="linear-gradient-39" x1="-4261.46" y1="-2141.37" x2="-4300.95" y2="-2320.16" gradientTransform="matrix(-0.59, -0.81, -0.81, 0.59, -1919.4, -1173.56)" xlink:href="#linear-gradient-25"/><linearGradient id="linear-gradient-40" x1="-4216.15" y1="-2151.38" x2="-4255.63" y2="-2330.17" gradientTransform="matrix(-0.59, -0.81, -0.81, 0.59, -1919.4, -1173.56)" xlink:href="#linear-gradient-25"/><linearGradient id="linear-gradient-41" x1="3154.83" y1="13.9" x2="2856.83" y2="410.25" gradientTransform="matrix(1, 0, 0, 1, 0, 0)" xlink:href="#linear-gradient-25"/><linearGradient id="linear-gradient-42" x1="2561.6" y1="217.87" x2="2489.68" y2="381.17" gradientTransform="matrix(1, 0, 0, 1, 0, 0)" xlink:href="#linear-gradient-14"/><linearGradient id="linear-gradient-43" x1="3018.31" y1="-133.69" x2="2462.75" y2="308.13" gradientTransform="matrix(1, 0, 0, 1, 0, 0)" xlink:href="#linear-gradient-5"/><linearGradient id="linear-gradient-44" x1="3008.1" y1="452.59" x2="2775.66" y2="448.12" gradientTransform="matrix(1, 0, 0, 1, 0, 0)" xlink:href="#linear-gradient-25"/><linearGradient id="linear-gradient-45" x1="-1751.86" y1="-162.84" x2="-1709.28" y2="-162.84" gradientTransform="matrix(-0.93, -0.36, -0.36, 0.93, 892.61, -111.95)" gradientUnits="userSpaceOnUse"><stop offset="0" stop-color="#4042e2"/><stop offset="1" stop-color="#4f52ff"/></linearGradient><linearGradient id="linear-gradient-46" x1="2744.38" y1="439.98" x2="2984.28" y2="535.34" xlink:href="#linear-gradient-29"/><linearGradient id="linear-gradient-47" x1="2637.29" y1="351.86" x2="2850.78" y2="600.33" xlink:href="#linear-gradient-29"/><linearGradient id="linear-gradient-48" x1="2713.49" y1="495.18" x2="2820.59" y2="495.18" gradientTransform="matrix(1, 0, 0, 1, 0, 0)" xlink:href="#linear-gradient-24"/><linearGradient id="linear-gradient-49" x1="2711.87" y1="409.55" x2="2703.92" y2="492.99" gradientTransform="matrix(1, 0, 0, 1, 0, 0)" xlink:href="#linear-gradient-24"/><linearGradient id="linear-gradient-50" x1="3017.71" y1="356.9" x2="2879.13" y2="394.15" xlink:href="#linear-gradient-29"/><linearGradient id="linear-gradient-51" x1="2748.04" y1="330.37" x2="2747.29" y2="463.72" gradientTransform="matrix(1, 0, 0, 1, 0, 0)" xlink:href="#linear-gradient-24"/><linearGradient id="linear-gradient-52" x1="2762.01" y1="145.55" x2="2695.45" y2="343.22" gradientTransform="matrix(1, 0, 0, 1, 0, 0)" xlink:href="#linear-gradient-24"/><linearGradient id="linear-gradient-53" x1="2653.19" y1="234.65" x2="2841.97" y2="234.65" gradientTransform="matrix(1, 0, 0, 1, 0, 0)" xlink:href="#linear-gradient-25"/><linearGradient id="linear-gradient-54" x1="2829.55" y1="168.29" x2="2763" y2="365.96" gradientTransform="matrix(1, 0, 0, 1, 0, 0)" xlink:href="#linear-gradient-24"/><linearGradient id="linear-gradient-55" x1="1849.6" y1="1821.21" x2="2821.13" y2="1998.27" gradientTransform="matrix(1, 0, 0, 1, 0, 0)" xlink:href="#linear-gradient-45"/><linearGradient id="linear-gradient-56" x1="2905.02" y1="1806.05" x2="2883.17" y2="1607.38" gradientTransform="matrix(1, 0, 0, 1, 0, 0)" xlink:href="#linear-gradient-45"/><linearGradient id="linear-gradient-57" x1="2526.78" y1="1880.07" x2="2447.31" y2="2087.68" gradientTransform="matrix(1, 0, 0, 1, 0, 0)" xlink:href="#linear-gradient-14"/><linearGradient id="linear-gradient-58" x1="2213.63" y1="1912.3" x2="2116.39" y2="2066.2" gradientTransform="matrix(1, 0, 0, 1, 0, 0)" xlink:href="#linear-gradient-45"/><linearGradient id="linear-gradient-59" x1="2643.66" y1="1044.91" x2="2100.26" y2="2126.32" xlink:href="#linear-gradient-10"/><linearGradient id="linear-gradient-60" x1="2731.37" y1="1750.14" x2="2414" y2="1729.28" gradientTransform="matrix(1, 0, 0, 1, 0, 0)" xlink:href="#linear-gradient-24"/><linearGradient id="linear-gradient-61" x1="2904.74" y1="1551.88" x2="2594.82" y2="1636.81" gradientTransform="matrix(1, 0, 0, 1, 0, 0)" xlink:href="#linear-gradient-24"/><linearGradient id="linear-gradient-62" x1="2642.36" y1="1088.21" x2="2590.96" y2="1465.91" gradientTransform="matrix(1, 0, 0, 1, 0, 0)" xlink:href="#linear-gradient-25"/><linearGradient id="linear-gradient-63" x1="2554.49" y1="1515.76" x2="1927.54" y2="1819.03" xlink:href="#linear-gradient-29"/><linearGradient id="linear-gradient-64" x1="2485.98" y1="1066.93" x2="2434.57" y2="1444.63" gradientTransform="matrix(1, 0, 0, 1, 0, 0)" xlink:href="#linear-gradient-25"/><linearGradient id="linear-gradient-65" x1="2778.39" y1="987.72" x2="2617.47" y2="1179.92" gradientTransform="matrix(1, 0, 0, 1, 0, 0)" xlink:href="#linear-gradient-23"/><linearGradient id="linear-gradient-66" x1="2299.68" y1="1380.16" x2="2410.49" y2="1794.24" xlink:href="#linear-gradient-29"/><linearGradient id="linear-gradient-67" x1="2333.07" y1="1457.99" x2="2515.36" y2="1457.99" xlink:href="#linear-gradient-29"/><linearGradient id="linear-gradient-68" x1="2385.09" y1="1227.93" x2="2445.43" y2="1525.17" gradientTransform="matrix(1, 0, 0, 1, 0, 0)" xlink:href="#linear-gradient-24"/><linearGradient id="linear-gradient-69" x1="2507.92" y1="1143.1" x2="2411.81" y2="1248.14" gradientTransform="matrix(1, 0, 0, 1, 0, 0)" xlink:href="#linear-gradient-24"/><linearGradient id="linear-gradient-70" x1="2683.43" y1="908.22" x2="2522.52" y2="1100.42" gradientTransform="matrix(1, 0, 0, 1, 0, 0)" xlink:href="#linear-gradient-23"/><linearGradient id="linear-gradient-71" x1="1662.47" y1="905.33" x2="2111.54" y2="1368.98" gradientTransform="matrix(1, 0, 0, 1, 0, 0)" xlink:href="#linear-gradient-14"/><linearGradient id="linear-gradient-72" x1="1862.76" y1="1074.51" x2="1973.57" y2="1567.32" xlink:href="#linear-gradient-10"/><linearGradient id="linear-gradient-73" x1="2094.93" y1="96.11" x2="1727.51" y2="1134.22" gradientTransform="matrix(1, 0, 0, 1, 0, 0)" xlink:href="#linear-gradient-5"/><linearGradient id="linear-gradient-74" x1="2113.56" y1="549.53" x2="1746.15" y2="1587.62" gradientTransform="translate(-264.13 -24.95) rotate(-10.01)" xlink:href="#linear-gradient-5"/><linearGradient id="linear-gradient-75" x1="1964.29" y1="1363.27" x2="3081.13" y2="1751.1" gradientTransform="matrix(1, 0, 0, 1, 0, 0)" xlink:href="#linear-gradient-25"/><linearGradient id="linear-gradient-76" x1="2019.14" y1="1234.65" x2="2159.94" y2="1102.79" gradientTransform="matrix(1, 0, 0, 1, 0, 0)" xlink:href="#linear-gradient-45"/><linearGradient id="linear-gradient-77" x1="2306.49" y1="1505.22" x2="2719.11" y2="1505.22" gradientTransform="matrix(1, 0, 0, 1, 0, 0)" xlink:href="#linear-gradient-24"/><linearGradient id="linear-gradient-78" x1="2786.21" y1="1226.97" x2="2535.9" y2="1367.77" xlink:href="#linear-gradient-29"/></defs><g class="cls-5"><path class="cls-6" d="M2197.8,323.52c311.07-108.89,468.44-27.83,790.51-16V1436.57c-278.85-23.5-544.45-27.87-790.51-4.06Z"/></g><g class="cls-7"><path class="cls-8" d="M2162.73,324.45V1436.1l-4.43.47c-258.46-10-515.3-20.37-776.06,0V311.4C1691,301.17,1953.2,240.88,2162.73,324.45Z"/></g><path class="cls-9" d="M391.47,1921.82c98.41,45.46,205.64,66.72,311.93,76.67,118.46,11.1,237.71,9.52,356.35,17.87,8.56.6,17.08,1.28,25.57,2,1166.78,31.53,2017.8,30.93,2125.82,0,73.74-21.11,125.07-65.89,125.07-65.89,16.65-14.52,56.34-48,82.07-114.44,36.53-94.29,12.94-203.24,35.26-302.45,20.23-90,77.63-169.23,83.56-261.57,4-61.51-15.57-121.89-35.57-180-83-241-196.21-443-395.77-596.11C2988.2,407.69,2846.49,362,2703,367.72c-163.59,6.49-362.66,62.18-507-51.19-34.72-27.27-62.7-63-96.25-91.89-123.77-106.51-283.54-97.28-347.93-97-155.62.69-149.24,46.7-374.1,77.25-156.67,21.29-241.88,32.86-351.47,3.74-121.69-32.34-153.42-82.95-261.74-82.26-28,.18-134.58.86-213.13,71C420.66,314.18,439.86,558.67,506.46,709.68c40.74,92.35,78.15,102,74.07,161.46-4.89,71.31-65.43,100.68-218.67,290.05l-68.6,83.94c-102,124.85-147.82,296.08-104.66,456.78C220.11,1819.24,287.3,1873.68,391.47,1921.82Z"/><path class="cls-10" d="M3202.87,1355.39c-41.94-242.26-215.76-430.1-377.12-579.3-120.9-111.78-247-217.25-376.26-316.13-99.48-76.08-217.34-153.69-330.72-199.91-62.05-25.29-128.41-42.5-193.77-32.54-121.22,18.47-179.76,95.58-196.06,232.61-9.13,76.74,9.31,216.24-74.1,234.09-72.82,15.57-146.21-30.82-214.33-54.27-23.22-8-46.74-16-71-17.29-79.65-4.1-150.35,68.64-178.31,153.59-58,176.14,83.72,379.06,180.49,506.14,112.46,147.67,248.5,270.33,388.76,382,236.88,188.52,516.24,328.35,806.74,354.86,175.24,16,366.74-18.27,495.87-163.71C3176.48,1727.77,3233.9,1534.65,3202.87,1355.39ZM1961.07,581.91c-82.67-28.74-136.2-102.22-119.57-164.13s97.12-88.81,179.78-60.08,136.2,102.22,119.57,164.14S2043.73,610.65,1961.07,581.91Z"/><path class="cls-11" d="M3218.17,1334.6c-41.56-240.07-213.79-426.19-373.69-574C2724.69,649.8,2599.76,545.3,2471.65,447.32,2373.08,371.93,2256.29,295,2144,249.23c-61.49-25.06-127.24-42.11-192-32.24-120.12,18.3-178.12,94.7-194.28,230.49-9.05,76,9.22,214.27-73.43,231.95-72.15,15.44-144.87-30.54-212.37-53.77-23-7.92-46.32-15.9-70.33-17.13-78.93-4.07-149,68-176.69,152.19-57.43,174.53,83,375.61,178.84,501.52,111.44,146.33,246.24,267.88,385.22,378.49,234.73,186.79,511.53,325.35,799.39,351.63,173.65,15.85,363.4-18.11,491.35-162.22C3192,1703.58,3248.92,1512.22,3218.17,1334.6ZM1987.68,568.16c-81.91-28.48-135-101.29-118.48-162.64s96.24-88,178.15-59.53,135,101.29,118.48,162.64S2069.59,596.63,1987.68,568.16Z"/><ellipse class="cls-12" cx="1430.69" cy="957.61" rx="130.49" ry="148.45"/><ellipse class="cls-13" cx="1418.36" cy="951.35" rx="102.31" ry="116.39"/><ellipse class="cls-14" cx="1709.92" cy="1357.62" rx="130.49" ry="148.45"/><ellipse class="cls-13" cx="1709.92" cy="1357.62" rx="120.17" ry="136.71"/><ellipse class="cls-15" cx="2146.09" cy="1666.97" rx="130.49" ry="148.45"/><ellipse class="cls-16" cx="2144.87" cy="1666.83" rx="111.57" ry="126.93"/><ellipse class="cls-17" cx="2533.27" cy="1809.98" rx="130.49" ry="148.45"/><ellipse class="cls-18" cx="2530.74" cy="1813.84" rx="108.12" ry="123"/><ellipse class="cls-19" cx="2913.68" cy="1726" rx="130.49" ry="148.45"/><ellipse class="cls-20" cx="2911.2" cy="1729.79" rx="120.11" ry="136.65"/><ellipse class="cls-21" cx="3031.14" cy="1347.97" rx="130.49" ry="148.45"/><ellipse class="cls-22" cx="3029.73" cy="1350.11" rx="118.13" ry="134.39"/><path class="cls-23" d="M1841.62,662.33,1681.53,825.45c-26.22,26.71-28.44,72.55-5,102.38l34.91,44.34c27.56,35,76.64,31.4,100-7.34l125.17-207.46c16.23-26.89,14.67-62.81-3.81-87.75h0C1909.7,638.35,1868.39,635.05,1841.62,662.33Z"/><path class="cls-24" d="M1982.53,788.76,1886,1023.14c-13.92,33.82-4.19,74.14,23,95.13l68.83,53.22c41.67,32.22,98.51,2.38,104-54.6l27.69-287.6c3.07-31.94-11.83-62.62-37.22-76.66h0C2038.73,734.09,1998.35,750.35,1982.53,788.76Z"/><path class="cls-25" d="M2218.47,769c-17,9.22-31.55,23.86-29.85,47.84,8.77,123.44,14.69,247.16,24.84,370.47,1.37,16.58,1.42,35.43,6.07,51.24,65.95,3.89,133.43,15.29,199.41,14.52,32,2.48,53.31-36.79,37.08-68.22-31-68.74-68.4-133.31-103-199.65-37-70.93-73.42-142.3-110.13-213.45C2236,758.58,2228.43,763.65,2218.47,769Z"/><path class="cls-26" d="M2302,732.69c56.27,78.1,202.3,296.41,275.21,405.82,21.3,32,63.66,31.51,84.43-.91l105-163.91c17.78-27.76,11.43-66.81-13.91-85.49L2383.92,616.4c-26.18-19.29-61.29-8.57-75.46,23.05l-12.6,28.12C2286.37,688.75,2288.79,714.3,2302,732.69Z"/><path class="cls-27" d="M996.19,2077.25a29.23,29.23,0,0,1-3.22-.18,28,28,0,0,1-24.58-31L1143.85,519.2a28,28,0,0,1,55.54,6.39l-175.46,1526.9A28,28,0,0,1,996.19,2077.25Z"/><path class="cls-27" d="M1960.72,2077.26a28,28,0,0,1-27.25-21.85L1591.11,528.51a28,28,0,0,1,54.56-12.23L1988,2043.18a28,28,0,0,1-21.16,33.4A28.73,28.73,0,0,1,1960.72,2077.26Z"/><path class="cls-27" d="M1382.56,2077.25a28,28,0,0,1-28-27.95V1295.75a28,28,0,1,1,55.9,0V2049.3A28,28,0,0,1,1382.56,2077.25Z"/><path class="cls-27" d="M823.15,351.57l98.28,1237.85A49.46,49.46,0,0,0,971.94,1635l1026.44-25a49.46,49.46,0,0,0,47.64-57.22l-196.5-1234.3a49.45,49.45,0,0,0-50-41.67L871.32,298.21A49.46,49.46,0,0,0,823.15,351.57Z"/><path class="cls-28" d="M909.07,332.28l860.75-19.93a49.47,49.47,0,0,1,50,41.68l185.41,1164.7a49.46,49.46,0,0,1-47.64,57.22l-953.43,23.26a49.46,49.46,0,0,1-50.51-45.53l-92.74-1168A49.46,49.46,0,0,1,909.07,332.28Z"/><path class="cls-29" d="M974.31,400.2l773.31-17.91a44.45,44.45,0,0,1,44.91,37.44l166.58,1046.39a44.44,44.44,0,0,1-42.8,51.41l-856.58,20.89a44.44,44.44,0,0,1-45.38-40.91L931,448.14A44.43,44.43,0,0,1,974.31,400.2Z"/><path class="cls-30" d="M1568,1425s-407.31,13.44-474.82-239.55c-54.26-203.33,108.2,2.82,297.11,128.15,14.83,9.84,30.32-11.51,16.36-22.55C1269.55,1182.56,1072.06,1005.75,1105,909.9c49.71-144.71,64.72-65.65,197.41,99.59s198.39,158.18,125.85,36.69-276.56-228.89-264.15-312,88.14-195.32,114.9-249.58,285.08,89.47,284.61,196.47-77.12,267.79-35.83,354.2,79.38-86.49,92.22-182.78,36.9-152.86,107.57-53.81,9.47,246.9-60.41,332.28-84.42,158.46-46.81,119.35,143.32-169,152.47-231.36S1929.17,1196.13,1568,1425Z"/><path class="cls-31" d="M1550.41,1411a3.56,3.56,0,0,1-2.07-3.08C1532.44,1096,1365.46,709,1363.78,705.12a3.6,3.6,0,1,1,6.6-2.88c1.69,3.89,169.18,392.11,185.14,705.28a3.6,3.6,0,0,1-3.41,3.78A3.46,3.46,0,0,1,1550.41,1411Z"/><path class="cls-32" d="M720.27,932.22c-5.59,3.06-11,6.65-17.14,8.25-20.29,5.29-31.81,2.6-47.74,19.33a67.21,67.21,0,0,0-18.56,43.1c-1,24.63,11.23,51.88-2.35,72.46-10.89,16.5-34.93,21.7-43.21,39.65s3.49,38.41,13.29,55.73,17,41.53,2.46,55.15c-5.87,5.52-14,7.73-21.11,11.6-15.57,8.5-25.87,26.44-24,44.09s16.57,33.49,34.21,35.37c25.67,2.74,30.72,7.81,44.36,29.08,8.83,13.78,27.23,20.12,43.06,16s28.38-17.89,32.46-33.74c4.6-17.82-.55-37.57,6.57-54.54,5.45-13,16.88-23,25.29-34.11,4.45-5.86,19.06-21.5,19.53-28.61l8.52-129.28c1.41-21.3,6.35-45.44,4.4-66.73-.76-8.31-1.06-7.83-4.94-16.72-4.22-9.66-6.76-12-7.91-22.55-1.22-11.17,1.21-20.65-4.47-31.37-5.76-10.89-18-18.87-30.19-16.92A39,39,0,0,0,720.27,932.22Z"/><path class="cls-33" d="M1041.85,830.1s-84.18,229.48-227.62,301.21c0,0,47.74,77.89,72.66,82.62,0,0,153.22-196.12,168.84-356.79Z"/><path class="cls-34" d="M465,2210.5l-4.23,34.81c-.81,6.6-16.47,23.36-23.08,24.12-11.16,1.27-16,3.8-33.51,2-7.69-.81-15.28-21.37-12.94-28.73,4.27-13.44,12.08-33.61,23.35-45.48h38.6A11.9,11.9,0,0,1,465,2210.5Z"/><path class="cls-35" d="M767.37,1802.82l6.51,38.33s-21.82,221-25.7,309.44A69.31,69.31,0,0,0,758.43,2190l38,61.62L700,2194.68,698,2182.91l15.78-21.7L693.13,1913.6a76,76,0,0,1,8.65-42l20-37.47Z"/><path class="cls-36" d="M802.73,2260.51H772a18.5,18.5,0,0,1-14.7-7.21c-9.59-12.46-29.47-36.78-39-37.42-12.79-.85-11.15,44.63-11.15,44.63H700L690.86,2204a33.46,33.46,0,0,1,17.56-35h0s2.92,21.63,18.78,31.2,64.53,43.83,64.53,43.83a44.06,44.06,0,0,1,12.51.33C814,2246.13,812.6,2260.51,802.73,2260.51Z"/><path class="cls-37" d="M635.29,1821s-127.84,242.5-148.16,297.86-27.44,101.55-27.71,105.93c-.43,6.83-8.93,13.39-32.36,13.39-12.09,0-18-4.85-20.91-9.54a13.63,13.63,0,0,1-.52-13.23c7.39-15,30.86-62.79,39.55-84.49,10.38-25.89,32.7-143.26,44.94-184.07S516.2,1861.8,569.51,1821C569.51,1821,606.1,1785.18,635.29,1821Z"/><path class="cls-38" d="M716,1423.69c33-139.73-50.56-218.76-50.56-218.76,52.71-50.6,148.75-73.62,148.75-73.62s91.64,67,80.77,119.44c-6.37,30.73-64.41,184.1-64.41,184.1S776.91,1460.25,716,1423.69Z"/><path class="cls-39" d="M642.93,1492.87c13.42-40.43,73.11-69.18,73.11-69.18,60.87,36.56,114.55,11.16,114.55,11.16s12,46,3.72,88.76-60.43,317.54-60.43,317.54c-82.12,16.64-208.43-16.74-208.43-16.74C617.76,1731.53,629.51,1533.3,642.93,1492.87Z"/><path class="cls-40" d="M754.32,1039l-26.81,120.42c-2.57,10.61,7.1,8.87,17.83,6.85,17.56-3.31,40.2-10.13,47.76-23.79a12.92,12.92,0,0,0,1.37-4.54L806,1054.4a15,15,0,0,0-8.78-15.76L775,1028.78A15,15,0,0,0,754.32,1039Z"/><path class="cls-41" d="M665.48,1204.93s-187.12,133.87-23.93,274.55c0,0,6.22,7,18.46,10.7,6.18,1.84,24.46,15.67,33.73,22.89a6.36,6.36,0,0,0,9.29-1.67h0a8.67,8.67,0,0,0,.49-8.32l-23.16-49a17.87,17.87,0,0,0-23.21-1h0a8.82,8.82,0,0,1-13.37-3c-12.61-25.69-36.44-101.26,61.06-186.64a10.57,10.57,0,0,0,2.34-12.85C700.33,1237.42,684.67,1211.28,665.48,1204.93Z"/><path class="cls-42" d="M785.78,943.69s31.75,13.41,53.34,59.29,5.46,67.07-14.79,70-50.53,2.46-82.57-27.18S744.5,927.8,785.78,943.69Z"/><path class="cls-43" d="M763.29,1021.29s-23.95-67.13,35.57-67.93l14,9.79s21.84-37.22-14-55-77.79-3.09-93.05,45.19S688,1034,713.33,1057.08s35.83-3.09,35.83-3.09-13.81-21.61-8.19-33.17,18.6,2.39,18.6,2.39Z"/><path class="cls-44" d="M756.62,1028.76s-12.11-34.58-28.27-20.81,13.13,32,24.6,37.83Z"/><path class="cls-45" d="M1049.93,871.87c1.28,4.08-13.59,10.3-22.35-6.4-.31-8-5.17-42.29-.39-48.81,25.47-34.72,74.85-78.25,74.85-78.25,8.35,8.23,1.47,16.32,1.47,16.32l-24,25c5,9,11.12,16.7,14,27.65a33.59,33.59,0,0,1-3.34,24.7c-4.21,7.58-10,17.43-15.37,25.13C1064.56,871.76,1049.93,871.87,1049.93,871.87Z"/><path class="cls-46" d="M2606.26,635.58c-45.15,62.23-32.17,129.41,58.38,174.61,6.38-5.79,8.17-11.22,1.76-23.48-72.15-52-61.11-99.1-16.75-129Z"/><path class="cls-47" d="M2700.56,663.9c-36.16,64.5-28.25,114.83,75.68,148.16,5.69-14.71,3.33-22.87-5.5-25.77-78.66-39.53-58.6-70.58-19.55-104.1Z"/><path class="cls-48" d="M2776.23,789.35c3,12.45,1.59,18.9-7.85,21.48-5.7,20.39-2.56,31.68,7.19,36.16,12.13-17.24,21.32-35.74,24.3-56.91C2790.86,786.75,2778.38,783.84,2776.23,789.35Z"/><path class="cls-49" d="M2666.4,786.71c2.95,12.38,1.58,18.79-7.8,21.35-5.66,20.27-2.54,31.49,7.15,36,12.06-17.14,21.19-35.53,24.16-56.58C2681,784.12,2668.54,781.24,2666.4,786.71Z"/><path class="cls-50" d="M2797.48,548c6.16,42.06-12.62,95.42-45.75,139.17-23.5,2.6-49,.36-68.7-12L2708,618.62l-11.75-3.5-48.86,50.08c-22,3.23-36.72-7.94-53.93-19.21,19.16-42.22,62.72-62,74-120.93Z"/><path class="cls-51" d="M2558.46,326.62s25.74-27,2.23-50.95-39.53-8.85-58.4-31.07C2502.29,244.6,2497.21,307.71,2558.46,326.62Z"/><path class="cls-52" d="M2546.28,262c1.29.37,9.08.76,9.74,5.32s-3.52,6.12-13.15,3.59-13,3.5-6.89,10.75-.17,11.36-8,5.26-8.89-2.93-7.07,3.49-7.5,8.84-13.26.15c-5.28-8-13.57-27.21-11.36-48.43a2.81,2.81,0,0,1,4.63-1.81C2506.63,245.32,2519.79,254.29,2546.28,262Z"/><path class="cls-53" d="M2558.9,316.3a28.1,28.1,0,0,0,4.25-9.88,26.08,26.08,0,0,0,.25-10.44,21.76,21.76,0,0,0-.59-2.51l-.33-1.24L2562,291c-.34-.79-.6-1.6-1-2.36l-1.24-2.25a14.07,14.07,0,0,0-1.39-2.15l-1.5-2.07c-1.1-1.32-2.3-2.57-3.43-3.84l-.23-.26a3.14,3.14,0,0,1,4.7-4.16c.09.1.18.23.26.34,1.08,1.62,2.21,3.2,3.22,4.84l1.36,2.59a17.24,17.24,0,0,1,1.22,2.65l1,2.73c.31.92.49,1.89.73,2.83l.34,1.41.17,1.45a25.46,25.46,0,0,1,.26,2.88,28.39,28.39,0,0,1-1.86,11.2A29,29,0,0,1,2558.9,316.3Z"/><path class="cls-54" d="M2585.47,366c39.12,70.42,56.62,130.52,62.53,154.08a3.23,3.23,0,0,1-5.4,3.09c-50.59-50.2-72.2-103.74-81.41-142C2569.58,370.63,2578.94,367.08,2585.47,366Z"/><path class="cls-55" d="M2560.36,324.27c9.22,14.16,17.56,28.12,25.11,41.7-6.53,1.11-15.89,4.66-24.28,15.14-7.66-31.9-6.71-53.23-6.71-53.23C2556,322.89,2560.36,324.27,2560.36,324.27Z"/><path class="cls-56" d="M2694.16,369.26c-10.81-5-72.56,60.77-63.92,66.78-7.52,4.49,30,26,38.08,19.88C2670.41,454.33,2694.16,369.26,2694.16,369.26Z"/><path class="cls-57" d="M2805.73,373.53a41.13,41.13,0,0,0-8.13-8.17c-15.52-11.59-38.65-5.39-56.73-6.28-6.95-.33-15.47-2.71-22.22-.61-12.54,3.91-26.92,8-36.8,17-13.93,12.76-16.47,32.2-19.22,49.79-3.43,21.91-2.87,42.61-2.87,64.8v62.44c34.37,36.1,88,45.61,161.73,11.59-.63-32.35-1.88-64.77-.81-97.12.91-27.47,6.29-49.4-5.17-75.88A83.62,83.62,0,0,0,2805.73,373.53Z"/><path class="cls-58" d="M2720.29,564.68c11.81,9.72,103.89-98.19,100.19-105.8l-37.77-33.82c-18,51-39.41,93.54-69.22,115.87Z"/><path class="cls-59" d="M2734.64,603.2l-42.67-149a4.34,4.34,0,0,0-3.68-3.13c-7.73-.9-30.13-3.43-56-5.62-31.16-2.64-67.34-4.77-89-3a4.37,4.37,0,0,0-3.57,6.28c12.3,24.87,62.88,126.06,88.2,159.21a4.39,4.39,0,0,0,3.52,1.73l99-.92A4.36,4.36,0,0,0,2734.64,603.2Z"/><path class="cls-22" d="M2627.87,432.5l-30.94-5.16a2.23,2.23,0,0,0-2.48,2.89l3.07,9.28a2.2,2.2,0,0,0,1.81,1.5l29.77,4a2.22,2.22,0,0,0,2.46-2.71l-1.9-8.1A2.21,2.21,0,0,0,2627.87,432.5Z"/><path class="cls-22" d="M2651,458.69l-2.55-13.28a3.06,3.06,0,0,0-2.7-2.47l-62.49-6.34a3.06,3.06,0,0,0-3.29,3.77l4,16.54a3.07,3.07,0,0,0,2.83,2.35l61.06,3.07A3.07,3.07,0,0,0,2651,458.69Z"/><path class="cls-60" d="M2724.33,567.19s6-24.44,3.55-33.11-7-19.83-22.53-17.35-33.75,9-33.75,9,.92,11.3,12.69,7.65L2677,539s1.05,9.05,11,4.21l-6.79,7.49s4.27,7.43,11.58,2.67S2703.59,570.13,2724.33,567.19Z"/><path class="cls-61" d="M2770,446.57c11.31,10.91,29.93,16.87,56.35,17.53,6.69-53.22-5.8-86.31-34.7-102.21C2779,396,2770.67,425.38,2770,446.57Z"/><path class="cls-59" d="M2770,447.35h0a.78.78,0,0,1-.74-.82c1.27-24.35,7.17-49,17.52-73.37a.78.78,0,0,1,1.44.61c-10.29,24.17-16.14,48.68-17.4,72.84A.78.78,0,0,1,2770,447.35Z"/><path class="cls-62" d="M2775.37,301.18v64.65c-14.06,9.76-36.5,10.38-55.06.62l8-65.27Z"/><path class="cls-63" d="M2657.57,270.25a167.63,167.63,0,0,0-.34,23.73c1.81,29.78,28.33,53.54,58.74,53.54,36.9,0,66.81-35.23,66.81-78.7s-29.91-78.7-66.81-78.7C2675.65,190.11,2660.62,233.86,2657.57,270.25Z"/><path class="cls-64" d="M2778.4,294.27c-7.59,10,1.31,20,11.19,22.89,12.6,3.65,31.07-7,39-16.17,14.64-17,14.12-41.67,12.82-63.93-.32-5.42-.77-11.22-4.17-15.5-3-3.83-8-5.86-10.84-9.88-2-2.91-2.64-6.5-3.5-9.92-3.35-13.31-11.5-25.78-23.56-32.6s-28.15-7.17-39.52.72c-12.4-11.41-28.94-19.12-45.89-18.42s-33.82,10.9-39.71,26.58c-1.14,3-2.07,6.5-4.82,8.28a21.55,21.55,0,0,1-4,1.67c-7,2.74-11.34,10.3-11.56,17.75-.25,8.14,9,14.94,4.34,21.67-6.36,9.29-7.13,25,1,33.51a146.75,146.75,0,0,0,6.34-14.35c2.14-5.17,2.72-13.38,5.76-17.76-.31.45,14.37,4.4,16.4,4,4.08-.79,5.3-2.65,7.81-5.6,6.1-7.17,14.89-15.58,20.16-3.3A11.43,11.43,0,0,0,2729,230c-4.24,6.35-2.95,15.11,1.12,21.57s10.44,11.13,16.64,15.65l14.65,10.65c6.19,4.49,13.86,9.22,21,6.49C2784.7,287.5,2780.73,291.18,2778.4,294.27Z"/><path class="cls-65" d="M2799.27,294.5c-4.33,7.08-12.47,12-19.4,16.41-1.9,1.22-4,2.48-6.23,2.45-9.77-.12,2.92-24.36,6-27a36.84,36.84,0,0,1,8.52-6.07c3.19-1.45,7-2,10.21-.52C2805.54,283,2802.26,289.63,2799.27,294.5Z"/><path class="cls-66" d="M2934.87,1842.23c22.73,5.1,41,17.9,54.11,37.18a61.2,61.2,0,0,1,8.18,16.19,58.3,58.3,0,0,1,2.22,11.56c5,49.17-31.33,86.7-72.23,107.26-54.36,27.31-111.57,26.46-170.37,30.39-60.27,4-120.54,8.08-180.83,11.63-52.48,3.08-105,5.93-157.52,7.82-30.43,1.18-60.86,2.36-91.29,3.27-29.12.87-60.74,4.9-89.63,1.24,10.26-26.59,9.33-65,9.14-93.59-.14-21.43-1.45-42.81-2.81-64.19-.63-10-8.45-47.29-.9-53.23,2.56-2,6.72-2.85,11.43-3.1,8.58-.46,19,1,24.74.91q22.51-.52,45-.66c30-.2,60.09,0,90.13.55,118.44,2,239.7,1.83,355.62,27.5,4.64,1.06,60.65,11,60.3,9.75-3.71-13.08,6.89-25.87,18.07-33.61A111.3,111.3,0,0,1,2934.87,1842.23Z"/><path class="cls-67" d="M2999.47,1933.84c-3,10.31-6.25,23.37-14.75,30.7a14.55,14.55,0,0,0,1.8-6.27c2-16.89-.43-35.37-5.95-51.45-7.82-22.77-24.64-35.92-45.87-45.26-12.82-5.64-26.8-9.3-40.77-8.3s-27.94,7.07-36.57,18.1c-6.69,8.55-10.4,25.24-.42,32.71,9,6.71,29.64,7.89,37.22-2,.93-1.21,2.18-2.65,3.65-2.26,1.24,2.18.32,4.94-.91,7.12-4,7.14-11.19,12.17-18.93,14.91-11.31,4-24.92,5.91-34.95-1.5a32.8,32.8,0,0,1-13.26-24.94c-1.57-29.23,21.9-50.73,48.88-56.58,17.36-3.76,35.45-2.3,53,.75,28.59,5,55.71,17.81,64.4,47.31q1.47,5,2.95,10C3002.6,1909.25,3003.1,1921.39,2999.47,1933.84Z"/><path class="cls-68" d="M2600,1898.78a162.67,162.67,0,0,0-16.77-39c-56.38-2.93-113-3.4-169-4.35q-9.06-.15-18.1-.26c2.67,6.67,5.42,13.41,8.46,20.25,21.87,52.49,11.66,113.72,7.29,170.59a163.07,163.07,0,0,1-2.81,18.58l9.31-.36c52.53-1.89,105-4.74,157.52-7.82q12-.71,24-1.46C2611.62,2004.09,2612.62,1950.68,2600,1898.78Z"/><ellipse class="cls-22" cx="2242.29" cy="1962.2" rx="18.33" ry="107.16"/><ellipse class="cls-69" cx="2182.15" cy="1962.12" rx="7.43" ry="37.8"/><path class="cls-70" d="M2120.24,1921.84a107.54,107.54,0,0,0-19.32,6.33c-24.76,11-49.33,27.43-58.93,52.76-4.57,12-5.36,25.14-7.22,37.89-3.55,23.7-1.76,47.08-24.12,59.34-26.47,14.5-54.63,26.57-81.77,39.78-5.87,2.85-12.27,6.28-14.43,12.44-1.75,5-.18,10.54,1.93,15.39a71,71,0,0,0,34.92,35.72c30.76,14.23,72.41-4.42,105.07-1.17,21.25,2.12,41.2,10.83,61.68,16.89a252.75,252.75,0,0,0,115.7,6.36c5.42-1,11.28-2.4,14.69-6.73,5.1-6.44,2-16.58-4.29-21.83s-14.81-6.88-22.9-8.33l-61.86-11.08c-18.69-3.35-33.9-10.6-29.23-32.1,1.66-7.67,8.36-13.29,8.4-21.69.06-10.28-7.21-16.19-12.16-24.41-6.89-11.44,2-36.29,5.16-48.23,8.09-31,32.52-35.52,59.46-41.89,4.59-1.08,9.37-2.76,12.3-6.46,10.06-12.72,3.86-38.86-8.37-48.42C2175.78,1917.41,2145.37,1916,2120.24,1921.84Z"/><path class="cls-59" d="M2232.82,1924.48h-49.19c9.48,23.43,8.33,48.79,0,75.45h47.12Q2245.32,1962.2,2232.82,1924.48Z"/><path class="cls-22" d="M2182.15,1924.32c9.48,23.15,10.33,48.16,0,75.6h16.18a125.51,125.51,0,0,0,0-75.6Z"/><path class="cls-71" d="M2396.13,1612.9c-2.83,76.23,1.11,154.24,10.84,235.47h-18.25a1950.76,1950.76,0,0,1-42.22-244.28Z"/><path class="cls-72" d="M2422.88,1614c10.93,107.79,43.52,161.83,126.24,86,3-10.36,2.55-18.69-9.55-22.64-53.57,44.22-70,28.77-76.38-63.4Z"/><path class="cls-73" d="M2535.55,1678.94c12.47,5.23,17.14,10.4,13.57,20,14,17.47,25.55,21.83,35.36,16.39-7.32-21-17.53-40.2-33.82-55.87C2542.29,1665,2532.15,1673.7,2535.55,1678.94Z"/><path class="cls-74" d="M2345.8,1530c-11.91,31.25-22.11,60.58-24.05,80.62,34.05,27.17,95.88,29.88,169,22.63,1.64-24.65-.34-51-4.95-78.5Z"/><path class="cls-75" d="M2406.62,1829.69c-5.3,5-12,7.06-21.34,3.36-25.61,1.32-38.82,8.72-38.78,22.63,19.21,6,40.54,4.34,62.59,0C2414.48,1849.54,2411.34,1839.93,2406.62,1829.69Z"/><path class="cls-76" d="M2499,1230.36q-1.23-3.22-2.67-6.38c-24.18-52.69-101.21-80.87-139.21-25.48-4.12,6-6.71,12.9-9.27,19.72-16.34,43.67-57.29,125.63-4.13,157.68,20.33,12.25,38.41,22.93,55.05,40.71,20.3,21.67,36.7,46.61,53.65,71,10.34,14.86,21.39,30,37,39.1,34.68,20.17,81.59,2.9,106.72-28.36,6.8-8.47,12.61-18.19,13.95-29a50.82,50.82,0,0,0-2.38-21.24c-13.2-42.3-61-64.21-81.76-103.35C2507.52,1310,2513,1266.94,2499,1230.36Z"/><path class="cls-77" d="M2217.59,1363.76c42.56,9.84,95.17,3.82,160.57-22.36l3,59.85c-61.35,17.55-118.89,16.55-169.53-18.06Z"/><path class="cls-78" d="M2355,1354.9c8.11-15,34.73-17,49.41-17.6,21.56-.89,39.19,1.25,53.45,19.62a107.61,107.61,0,0,1,6.42,9.55c8.33,13.48,11.07,33.34,15.47,48.51,8.7,30,17.26,60.07,25.05,90.33,1.15,4.45,14.66,45.76,9.32,48.75-12,41.73-140.81,28-181-20.51C2338.08,1462.79,2342,1386.66,2355,1354.9Z"/><path class="cls-79" d="M2376.21,1305.83l8.48,48.09c19.23,11.3,35.17,6.47,48.09-9.19l-8.48-51.63Z"/><path class="cls-80" d="M2457.2,1257.38c2.1,2.62,6.74,7,6.94,10.56a28.43,28.43,0,0,1-5.64,18.58,11.78,11.78,0,0,1-5.82,4.58c-2,.58-4.14.29-6.18.68-6.76,1.29-10.6,9-15.3,13.3-5.73,5.28-11.21,10.11-18.42,13.44-14.9,6.88-31.6,5.64-44.47-4.89-15.4-12.61-22.51-33.63-22.51-53.06,0-23.86,10.95-50.22,33-60.48,22.44-10.44,49.91,4,60.05,25,3.51,7.29,5.87,15.17,10.3,21.94C2451.5,1250.63,2454.47,1254,2457.2,1257.38Z"/><path class="cls-81" d="M2383.45,1232.13c.87,2.09,4.37,3.22,7.35,3.42,11.46.75,20.08-6.29,30.76-8.15,5.57-1,5,3,6.41,6.82,2.15,5.77,7.23,5.64,12.22,7.75,3.07,1.31,5.26,4.06,7.19,6.78,5.77,8.12-.79,15.2-1.35,23.82a1.76,1.76,0,0,0,.06.79c.46,1.18,9.66-4.3,11.37-5.27,4.42-2.51,8.42-6,10.06-11a19.57,19.57,0,0,0-.23-11.56c-4.79-16.1-17.16-32.17-29.62-43.1-12.2-10.7-27.67-14.7-43.86-14-9.59.43-19.59,2.82-27.64,8.21-6.06,4-17.66,15.84-10.68,23.46,7.78,8.49,23.82,3.26,33.46,2-.11,2.22-2.14,3.77-3.73,5.33C2383.33,1229.38,2382.94,1230.92,2383.45,1232.13Z"/><path class="cls-82" d="M1983.49,1213.92c-1.39,14.14-6.91,26.75-21.5,33-38.75,16.58-102.16-17.82-131.18-42.57-38.94-33.19-74-76.72-84.08-128-3.6-18.2-3.94-36.88-4.27-55.43-.63-35-8.67-70.91,3.88-104.7,6.66,18.6,15.33,36.81,28.52,51.52,26.14,29.12,72.52,37.18,107.09,52.59,11,4.91,22,10.28,31.43,17.74,10.83,8.51,19.47,19.5,27.07,31a260.63,260.63,0,0,1,40,103.66C1982.3,1184.93,1984.85,1200.15,1983.49,1213.92Z"/><path class="cls-83" d="M1980.4,1172.7a262,262,0,0,0-23.1-74c.57,25.11,2.82,50.35,3.59,75.1-15.66,0-22.88-21.68-30.11-33.72,1.21,14.45,12,27.7,7.23,42.15-18.07-15.65-33.73-33.72-48.18-51.79,3.61,25.3,19.27,45.77,31.32,68.66,1.2,2.41,0,4.81,0,7.22-27.71-13.25-51.8-31.31-71.07-54.2,2.41,15.66,18.07,27.71,16.87,44.57-1.21,1.2-3.62,1.2-6,1.2-26.37-11.3-50.86-27.32-75.82-41a316.82,316.82,0,0,0,45.71,47.47c29,24.75,92.43,59.15,131.18,42.57,14.59-6.24,20.11-18.85,21.5-33C1984.85,1200.15,1982.3,1184.93,1980.4,1172.7Z"/><path class="cls-84" d="M1733.85,1002.71c-2.44-25.93-2.87-55,7.55-79.39a8.89,8.89,0,0,1,2.91-4.11c3-2,7.27-.06,9.24,2.95s2.37,6.73,3.2,10.23c3.18,13.48,13.07,24.39,23.89,33,13.67,10.9,28.36,20.41,42.09,31.24,5.46,4.31,11.52,11.14,8.2,17.24-3,5.57-11.84,5.63-15,11.12-2.85,4.94.33,11.89-2.87,16.63-2.3,3.42-7,4.2-11.13,3.9s-8.3-1.34-12.31-.36a4.53,4.53,0,0,0-2.82,1.68c-.72,1.13-.52,2.58-.3,3.89,1.71,10,.81,19.86-10.7,21.46-12.43,1.73-14,5.83-20.13,17.22a19.61,19.61,0,0,0-2.19,5.25c-.54,2.64,0,5.37.35,8a45,45,0,0,1-.93,16c-.74,3-7.84,7.63-9.79,3.34-.63-1.37-.29-3,0-4.43,2.14-10.63,5.4-20.17,3.74-31.14-1.56-10.35-5.17-20.24-8.21-30.21-2.61-8.59-.53-14.54-1.07-23.13C1736.93,1022.93,1734.81,1012.88,1733.85,1002.71Z"/><path class="cls-85" d="M1738.37,1143.26q-1.15,2.16-2.36,4.3a33.88,33.88,0,0,0-3.58,7.76c-1.23,4.65-.4,15.78,3.83,18.59,2.16,1.43,4.45,2.91,7,3,10.92.58,13.23-10.37,11.92-18.9a42.88,42.88,0,0,0-2.93-9.25c-1-2.62-4.71-16.26-7.28-16.79-2.86-.6-3.25,4.77-4.1,6.43S1739.23,1141.66,1738.37,1143.26Z"/><path class="cls-86" d="M1947.64,1255.1c-5.74-32.25-7.26-38,29.54-45.55,295.67,151.54,565.79,360.15,847.31,582.74,15.65,12,1.2,34.93-19.27,19.74C2471.12,1631.7,2163.24,1467.08,1947.64,1255.1Z"/><path class="cls-87" d="M2068,1257.63q-45-25.23-90.81-48.73c-36.8,7.58-35.28,13.3-29.54,45.55q30.84,30.33,64.15,59.41C2036.53,1303.91,2056.89,1283,2068,1257.63Z"/><path class="cls-88" d="M2246.11,1496.72c-.36,5.51,9.19,10.39,13.19,12.58,11.13,6.09,24.47,8.69,36.69,8.83l5.19.07c9.16.11,17.08-3,25.9-5.34,1.84-.49,3.79-1,5-2.48,2.53-2.88-1.64-8.88-3.11-11.52a3.42,3.42,0,0,0-3.66-2.27c-5.73-.19-10.74,1.75-16.45,1.91l-9.37.26a35.66,35.66,0,0,1-7.8-.36c-6.35-1.23-11.83-5.85-18.29-6.15a2,2,0,0,0-.74.07,1.39,1.39,0,0,0-.4,2,5,5,0,0,0,1.81,1.4,5.69,5.69,0,0,1,3.11,4.62,156.91,156.91,0,0,0-34.26-5.17,44.56,44.56,0,0,0,5.95,6.73Z"/><path class="cls-89" d="M2314.19,1496.51c40.85-18,80.08-55,117.25-116.17,31.18-22.26,40.21,4.52,31.39,46.09-39.22,51.72-78.66,86.82-141.46,89.53C2323.28,1508,2321,1501.47,2314.19,1496.51Z"/></svg>