<svg id="Layer_1" data-name="Layer 1" xmlns="http://www.w3.org/2000/svg" xmlns:xlink="http://www.w3.org/1999/xlink" viewBox="0 0 3710 2094.92"><defs><style>.cls-1{mask:url(#mask);filter:url(#luminosity-noclip-3);}.cls-2,.cls-4{mix-blend-mode:multiply;}.cls-2{fill:url(#linear-gradient);}.cls-3{mask:url(#mask-2);filter:url(#luminosity-noclip-4);}.cls-4{fill:url(#linear-gradient-2);}.cls-5{fill:url(#linear-gradient-3);}.cls-6{fill:url(#linear-gradient-4);}.cls-7{opacity:0.3;}.cls-8{fill:url(#linear-gradient-5);}.cls-9{fill:url(#linear-gradient-6);}.cls-10{fill:url(#linear-gradient-7);}.cls-11{fill:url(#linear-gradient-8);}.cls-12{fill:url(#_104);}.cls-13{fill:url(#linear-gradient-9);}.cls-14{fill:url(#linear-gradient-10);}.cls-15{fill:url(#linear-gradient-11);}.cls-16{fill:url(#_104-2);}.cls-17{fill:url(#linear-gradient-12);}.cls-18{fill:url(#_104-3);}.cls-19{fill:url(#linear-gradient-13);}.cls-20{fill:url(#linear-gradient-14);}.cls-21{fill:url(#linear-gradient-15);}.cls-22{fill:url(#linear-gradient-16);}.cls-23{fill:url(#linear-gradient-17);}.cls-24{fill:#97a6b7;}.cls-25{fill:#d8dee8;}.cls-26{mask:url(#mask-3);}.cls-107,.cls-27,.cls-29{opacity:0.71;}.cls-27{fill:url(#linear-gradient-18);}.cls-28{mask:url(#mask-4);}.cls-29{fill:url(#linear-gradient-19);}.cls-30{fill:url(#linear-gradient-20);}.cls-31{fill:url(#linear-gradient-21);}.cls-166,.cls-32{opacity:0.47;}.cls-32{fill:url(#linear-gradient-22);}.cls-107,.cls-33,.cls-42{fill:#fff;}.cls-34{fill:url(#linear-gradient-23);}.cls-35,.cls-36{opacity:0.5;}.cls-35{fill:url(#linear-gradient-24);}.cls-36{fill:url(#linear-gradient-25);}.cls-37,.cls-52,.cls-53,.cls-54,.cls-55,.cls-58,.cls-59,.cls-60,.cls-61,.cls-62,.cls-74,.cls-84,.cls-85,.cls-86,.cls-87,.cls-88,.cls-89,.cls-90,.cls-91,.cls-92,.cls-93,.cls-94,.cls-95,.cls-96,.cls-97,.cls-98,.cls-99{fill-rule:evenodd;}.cls-37{fill:url(#linear-gradient-26);}.cls-38{fill:url(#linear-gradient-27);}.cls-39{fill:url(#linear-gradient-28);}.cls-40{fill:url(#linear-gradient-29);}.cls-41{fill:url(#linear-gradient-30);}.cls-42{opacity:0.94;}.cls-43{fill:url(#linear-gradient-31);}.cls-44{fill:url(#linear-gradient-32);}.cls-45{fill:url(#linear-gradient-33);}.cls-46{fill:url(#linear-gradient-34);}.cls-47{fill:url(#linear-gradient-35);}.cls-48{fill:url(#linear-gradient-36);}.cls-49{fill:url(#linear-gradient-37);}.cls-50{fill:url(#linear-gradient-38);}.cls-51{fill:url(#_55);}.cls-52{fill:url(#_55-2);}.cls-53{fill:url(#linear-gradient-39);}.cls-54{fill:url(#_55-3);}.cls-55{fill:url(#linear-gradient-40);}.cls-56{fill:url(#linear-gradient-41);}.cls-57{fill:url(#linear-gradient-42);}.cls-58{fill:url(#linear-gradient-43);}.cls-59{fill:url(#linear-gradient-44);}.cls-60{fill:url(#linear-gradient-45);}.cls-61{fill:url(#linear-gradient-46);}.cls-62{fill:url(#linear-gradient-47);}.cls-63{fill:url(#linear-gradient-48);}.cls-64{fill:url(#linear-gradient-49);}.cls-65{fill:url(#linear-gradient-50);}.cls-66{fill:url(#linear-gradient-51);}.cls-67{fill:url(#linear-gradient-52);}.cls-68{fill:url(#linear-gradient-53);}.cls-69{fill:url(#linear-gradient-54);}.cls-70{fill:url(#linear-gradient-55);}.cls-71{fill:url(#linear-gradient-56);}.cls-72{fill:url(#linear-gradient-57);}.cls-73{fill:url(#linear-gradient-58);}.cls-74{fill:url(#linear-gradient-59);}.cls-75{fill:url(#linear-gradient-60);}.cls-76{fill:url(#linear-gradient-61);}.cls-77{fill:url(#linear-gradient-62);}.cls-78{fill:url(#linear-gradient-63);}.cls-79{fill:url(#linear-gradient-64);}.cls-80{fill:url(#linear-gradient-65);}.cls-81{fill:url(#linear-gradient-66);}.cls-82{fill:url(#linear-gradient-67);}.cls-83{fill:url(#linear-gradient-68);}.cls-84{fill:url(#_57);}.cls-85{fill:url(#_57-2);}.cls-86{fill:url(#_57-3);}.cls-87{fill:url(#_57-4);}.cls-88{fill:url(#_57-5);}.cls-89{fill:url(#linear-gradient-69);}.cls-90{fill:url(#linear-gradient-70);}.cls-91{fill:url(#linear-gradient-71);}.cls-92{fill:url(#linear-gradient-72);}.cls-93{fill:url(#linear-gradient-73);}.cls-94{fill:url(#linear-gradient-74);}.cls-95{fill:url(#linear-gradient-75);}.cls-96{fill:url(#linear-gradient-76);}.cls-97{fill:url(#linear-gradient-77);}.cls-98{fill:url(#linear-gradient-78);}.cls-99{fill:url(#_57-6);}.cls-100{fill:url(#linear-gradient-79);}.cls-101{fill:url(#linear-gradient-80);}.cls-102{fill:url(#linear-gradient-81);}.cls-103{fill:url(#linear-gradient-82);}.cls-104{fill:url(#linear-gradient-83);}.cls-105{fill:url(#linear-gradient-84);}.cls-106{fill:url(#linear-gradient-85);}.cls-108{fill:url(#linear-gradient-86);}.cls-109{fill:url(#linear-gradient-87);}.cls-110{fill:url(#linear-gradient-88);}.cls-111{fill:url(#linear-gradient-89);}.cls-112{fill:url(#linear-gradient-90);}.cls-113{fill:url(#linear-gradient-91);}.cls-114{fill:url(#linear-gradient-92);}.cls-115{fill:url(#linear-gradient-93);}.cls-116{fill:url(#linear-gradient-94);}.cls-117{fill:url(#linear-gradient-95);}.cls-118{fill:url(#linear-gradient-96);}.cls-119{fill:url(#linear-gradient-97);}.cls-120{fill:url(#linear-gradient-98);}.cls-121{fill:url(#linear-gradient-99);}.cls-122{fill:url(#linear-gradient-100);}.cls-123{fill:url(#linear-gradient-101);}.cls-124{fill:url(#linear-gradient-102);}.cls-125{fill:url(#linear-gradient-103);}.cls-126{fill:url(#linear-gradient-104);}.cls-127{fill:url(#linear-gradient-105);}.cls-128{fill:url(#linear-gradient-106);}.cls-129{fill:url(#linear-gradient-107);}.cls-130{fill:url(#linear-gradient-108);}.cls-131{fill:url(#linear-gradient-109);}.cls-132{fill:url(#linear-gradient-110);}.cls-133{fill:url(#linear-gradient-111);}.cls-134{fill:url(#linear-gradient-112);}.cls-135{fill:url(#linear-gradient-113);}.cls-136{fill:url(#linear-gradient-114);}.cls-137{fill:url(#linear-gradient-115);}.cls-138{fill:url(#linear-gradient-116);}.cls-139{fill:url(#linear-gradient-117);}.cls-140{fill:url(#linear-gradient-118);}.cls-141{fill:url(#linear-gradient-119);}.cls-142{fill:url(#linear-gradient-120);}.cls-143{fill:url(#linear-gradient-121);}.cls-144{fill:url(#linear-gradient-122);}.cls-145{fill:url(#linear-gradient-123);}.cls-146{fill:url(#linear-gradient-124);}.cls-147{fill:url(#linear-gradient-125);}.cls-148{fill:url(#linear-gradient-126);}.cls-149{fill:url(#linear-gradient-127);}.cls-150{fill:url(#linear-gradient-128);}.cls-151{fill:url(#linear-gradient-129);}.cls-152{fill:url(#linear-gradient-130);}.cls-153{fill:url(#linear-gradient-131);}.cls-154{fill:url(#_115);}.cls-155{fill:url(#linear-gradient-132);}.cls-156{fill:url(#linear-gradient-133);}.cls-157{fill:url(#linear-gradient-134);}.cls-158{fill:url(#linear-gradient-135);}.cls-159{fill:url(#linear-gradient-136);}.cls-160{fill:url(#linear-gradient-137);}.cls-161{fill:url(#linear-gradient-138);}.cls-162{fill:url(#linear-gradient-139);}.cls-163{fill:url(#linear-gradient-140);}.cls-164{fill:url(#linear-gradient-141);}.cls-165{fill:url(#linear-gradient-142);}.cls-166{fill:url(#linear-gradient-143);}.cls-167{fill:url(#linear-gradient-144);}.cls-168{fill:url(#linear-gradient-145);}.cls-169{fill:url(#linear-gradient-146);}.cls-170{fill:url(#linear-gradient-147);}.cls-171{filter:url(#luminosity-noclip-2);}.cls-172{filter:url(#luminosity-noclip);}</style><filter id="luminosity-noclip" x="2197.8" y="-8994.38" width="790.51" height="32766" filterUnits="userSpaceOnUse" color-interpolation-filters="sRGB"><feFlood flood-color="#fff" result="bg"/><feBlend in="SourceGraphic" in2="bg"/></filter><mask id="mask" x="2197.8" y="-8994.38" width="790.51" height="32766" maskUnits="userSpaceOnUse"><g class="cls-172"/></mask><linearGradient id="linear-gradient" x1="7097.14" y1="588.05" x2="5670.69" y2="2455.36" gradientTransform="matrix(-1, 0, 0, 1, 9276.22, 0)" gradientUnits="userSpaceOnUse"><stop offset="0" stop-color="#fff"/><stop offset="1"/></linearGradient><filter id="luminosity-noclip-2" x="1382.24" y="-8994.38" width="780.48" height="32766" filterUnits="userSpaceOnUse" color-interpolation-filters="sRGB"><feFlood flood-color="#fff" result="bg"/><feBlend in="SourceGraphic" in2="bg"/></filter><mask id="mask-2" x="1382.24" y="-8994.38" width="780.48" height="32766" maskUnits="userSpaceOnUse"><g class="cls-171"/></mask><linearGradient id="linear-gradient-2" x1="7962.25" y1="613.73" x2="6571.8" y2="2211.09" xlink:href="#linear-gradient"/><linearGradient id="linear-gradient-3" x1="1872.92" y1="-537.67" x2="860.81" y2="-768.07" gradientTransform="matrix(0.93, -0.37, 0.37, 0.93, 228.77, 1491.48)" gradientUnits="userSpaceOnUse"><stop offset="0" stop-color="#fdf53f"/><stop offset="1" stop-color="#d93c65"/></linearGradient><linearGradient id="linear-gradient-4" x1="1228.26" y1="-812.79" x2="2072.64" y2="387.57" gradientTransform="matrix(0.93, -0.37, 0.37, 0.93, 228.77, 1491.48)" gradientUnits="userSpaceOnUse"><stop offset="0" stop-color="#aa80f9"/><stop offset="1" stop-color="#6165d7"/></linearGradient><linearGradient id="linear-gradient-5" x1="900.98" y1="-351.15" x2="1802.9" y2="931.03" gradientTransform="matrix(0.8, 0.6, -0.6, 0.8, 9.79, -1129.86)" gradientUnits="userSpaceOnUse"><stop offset="0" stop-color="#2b3582"/><stop offset="1" stop-color="#150e42"/></linearGradient><linearGradient id="linear-gradient-6" x1="-812.51" y1="-642.52" x2="89.42" y2="639.65" gradientTransform="matrix(0.8, 0.6, -0.6, 0.8, 1204.22, 129.24)" xlink:href="#linear-gradient-3"/><linearGradient id="linear-gradient-7" x1="1274.92" y1="-604.67" x2="1070.09" y2="-546.48" gradientTransform="translate(-48.81 1130.44) rotate(-0.59)" xlink:href="#linear-gradient-3"/><linearGradient id="linear-gradient-8" x1="1205.83" y1="-785.92" x2="1074.15" y2="-418.36" gradientTransform="matrix(1, -0.01, 0.01, 1, -48.81, 1130.44)" gradientUnits="userSpaceOnUse"><stop offset="0" stop-color="#da342d"/><stop offset="1" stop-color="#f3a84a"/></linearGradient><linearGradient id="_104" x1="1435.18" y1="-548.05" x2="1197.46" y2="-343.66" gradientTransform="translate(-15.49 1058.74) rotate(-0.59)" xlink:href="#linear-gradient-3"/><linearGradient id="linear-gradient-9" x1="1338.68" y1="-471.92" x2="1075.84" y2="-200.32" gradientTransform="translate(-15.48 1058.92) rotate(-0.59)" gradientUnits="userSpaceOnUse"><stop offset="0" stop-color="#53d8ff"/><stop offset="1" stop-color="#3840f7"/></linearGradient><linearGradient id="linear-gradient-10" x1="1518.89" y1="-477.3" x2="1400.08" y2="-268.26" gradientTransform="translate(-5.06 998.6) rotate(-0.59)" xlink:href="#linear-gradient-3"/><linearGradient id="linear-gradient-11" x1="1474.29" y1="-409.15" x2="1336.25" y2="-74.87" gradientTransform="matrix(1, -0.01, 0.01, 1, -4.42, 998.87)" xlink:href="#linear-gradient-3"/><linearGradient id="_104-2" x1="1709.01" y1="-622.66" x2="1590.5" y2="-347.66" gradientTransform="translate(-27.45 945.52) rotate(-0.59)" xlink:href="#linear-gradient-3"/><linearGradient id="linear-gradient-12" x1="1745.35" y1="-603.01" x2="1607.42" y2="-393.82" gradientTransform="matrix(1, -0.01, 0.01, 1, -26.83, 945.78)" xlink:href="#linear-gradient-3"/><linearGradient id="_104-3" x1="1702" y1="-670.99" x2="1639.29" y2="-481.34" gradientTransform="translate(-85.56 938.57) rotate(-0.59)" xlink:href="#linear-gradient-3"/><linearGradient id="linear-gradient-13" x1="1541.72" y1="-653.25" x2="1769.73" y2="-480.37" gradientTransform="translate(-85.21 938.72) rotate(-0.59)" xlink:href="#linear-gradient-9"/><linearGradient id="linear-gradient-14" x1="1896.96" y1="-552.05" x2="878.54" y2="-888.13" gradientTransform="translate(245.62 1490.7) rotate(-20.85)" gradientUnits="userSpaceOnUse"><stop offset="0" stop-color="#ff9085"/><stop offset="1" stop-color="#fb6fbb"/></linearGradient><linearGradient id="linear-gradient-15" x1="1887.73" y1="-523.95" x2="869.26" y2="-860.05" xlink:href="#linear-gradient-14"/><linearGradient id="linear-gradient-16" x1="1891.27" y1="-534.65" x2="872.77" y2="-870.75" xlink:href="#linear-gradient-14"/><linearGradient id="linear-gradient-17" x1="1915.87" y1="-609.26" x2="897.4" y2="-945.35" xlink:href="#linear-gradient-14"/><filter id="luminosity-noclip-3" x="2197.8" y="527.39" width="790.51" height="1169.15" filterUnits="userSpaceOnUse" color-interpolation-filters="sRGB"><feFlood flood-color="#fff" result="bg"/><feBlend in="SourceGraphic" in2="bg"/></filter><mask id="mask-3" x="2197.8" y="527.39" width="790.51" height="1169.15" maskUnits="userSpaceOnUse"><g class="cls-1"><path class="cls-2" d="M2197.8,583.49c311.07-108.89,468.44-27.83,790.51-16V1696.54c-278.85-23.5-544.45-27.87-790.51-4.06Z"/></g></mask><linearGradient id="linear-gradient-18" x1="7097.14" y1="588.05" x2="5670.69" y2="2455.36" gradientTransform="matrix(-1, 0, 0, 1, 9276.22, 0)" gradientUnits="userSpaceOnUse"><stop offset="0" stop-color="#fff"/><stop offset="1" stop-color="#fff"/></linearGradient><filter id="luminosity-noclip-4" x="1382.24" y="540.78" width="780.48" height="1155.76" filterUnits="userSpaceOnUse" color-interpolation-filters="sRGB"><feFlood flood-color="#fff" result="bg"/><feBlend in="SourceGraphic" in2="bg"/></filter><mask id="mask-4" x="1382.24" y="540.78" width="780.48" height="1155.76" maskUnits="userSpaceOnUse"><g class="cls-3"><path class="cls-4" d="M2162.73,584.42V1696.07l-4.43.47c-258.46-10-515.3-20.37-776.06,0V571.37C1691,561.14,1953.2,500.85,2162.73,584.42Z"/></g></mask><linearGradient id="linear-gradient-19" x1="7962.25" y1="613.73" x2="6571.8" y2="2211.09" xlink:href="#linear-gradient-18"/><linearGradient id="linear-gradient-20" x1="10627.65" y1="1504.38" x2="9830.74" y2="2020.97" gradientTransform="matrix(-1, 0, 0, 1, 11860.31, 0)" gradientUnits="userSpaceOnUse"><stop offset="0" stop-color="#311944"/><stop offset="1" stop-color="#6b3976"/></linearGradient><linearGradient id="linear-gradient-21" x1="1400.83" y1="651.93" x2="1376.89" y2="1501.76" gradientTransform="matrix(1, 0, 0, 1, 0, 0)" xlink:href="#linear-gradient-20"/><linearGradient id="linear-gradient-22" x1="922.42" y1="1582.59" x2="1784.19" y2="1582.59" gradientTransform="matrix(1, 0, 0, 1, 0, 0)" xlink:href="#linear-gradient-20"/><linearGradient id="linear-gradient-23" x1="1400.52" y1="1150.05" x2="1391.4" y2="1519.19" gradientTransform="translate(2790.52 2725.95) rotate(-180)" gradientUnits="userSpaceOnUse"><stop offset="0" stop-color="#aa80f9"/><stop offset="1" stop-color="#6165d7"/></linearGradient><linearGradient id="linear-gradient-24" x1="1793.74" y1="661.25" x2="1665.37" y2="1287.03" gradientTransform="translate(3299.58 2725.95) rotate(-180)" gradientUnits="userSpaceOnUse"><stop offset="0" stop-color="#b37cff"/><stop offset="1" stop-color="#f895e7"/></linearGradient><linearGradient id="linear-gradient-25" x1="1720.41" y1="648.01" x2="1592.37" y2="1272.22" gradientTransform="translate(3147.51 2725.95) rotate(-180)" xlink:href="#linear-gradient-24"/><linearGradient id="linear-gradient-26" x1="1992.45" y1="3658.09" x2="1706.86" y2="1373.39" gradientTransform="matrix(1, 0, 0, 1, 0, 0)" xlink:href="#linear-gradient-23"/><linearGradient id="linear-gradient-27" x1="963.24" y1="607.57" x2="505.51" y2="2328.17" gradientTransform="matrix(1, 0, 0, 1, 0, 0)" xlink:href="#linear-gradient-14"/><linearGradient id="linear-gradient-28" x1="1498.73" y1="750.02" x2="1041" y2="2470.62" gradientTransform="matrix(1, 0, 0, 1, 0, 0)" xlink:href="#linear-gradient-14"/><linearGradient id="linear-gradient-29" x1="1267.93" y1="688.63" x2="810.21" y2="2409.23" gradientTransform="matrix(1, 0, 0, 1, 0, 0)" xlink:href="#linear-gradient-14"/><linearGradient id="linear-gradient-30" x1="-7021.75" y1="150.47" x2="-8492.38" y2="2171.88" gradientTransform="translate(8676.5)" xlink:href="#linear-gradient-14"/><linearGradient id="linear-gradient-31" x1="2177.46" y1="1146.28" x2="1513.93" y2="2500.35" gradientTransform="matrix(1.38, -0.01, -0.01, 1.24, -462.85, -837.14)" xlink:href="#linear-gradient-14"/><linearGradient id="linear-gradient-32" x1="1741.83" y1="883.37" x2="2263.99" y2="883.37" gradientTransform="matrix(1, 0, 0, 1, 0, 0)" xlink:href="#linear-gradient-20"/><linearGradient id="linear-gradient-33" x1="2459.9" y1="1000.42" x2="2711.58" y2="1000.42" gradientTransform="matrix(1, 0, 0, 1, 0, 0)" xlink:href="#linear-gradient-20"/><linearGradient id="linear-gradient-34" x1="2379.45" y1="1002.38" x2="2261.27" y2="1204.28" gradientTransform="translate(2867.57 -1391.75) rotate(76.72)" xlink:href="#linear-gradient-20"/><linearGradient id="linear-gradient-35" x1="2418" y1="1024.95" x2="2299.81" y2="1226.84" gradientTransform="translate(3281.76 -1333) rotate(85.27)" xlink:href="#linear-gradient-20"/><linearGradient id="linear-gradient-36" x1="2456.54" y1="1047.51" x2="2338.36" y2="1249.4" gradientTransform="translate(3228.74 -1419.01) rotate(82.98)" xlink:href="#linear-gradient-20"/><linearGradient id="linear-gradient-37" x1="1921.16" y1="1767.3" x2="2068.97" y2="1576.37" gradientUnits="userSpaceOnUse"><stop offset="0" stop-color="#ffc444"/><stop offset="0.45" stop-color="#febc46"/><stop offset="1" stop-color="#f36f56"/></linearGradient><linearGradient id="linear-gradient-38" x1="1794.32" y1="1673.46" x2="1944.32" y2="1479.71" xlink:href="#linear-gradient-37"/><linearGradient id="_55" x1="2203.47" y1="1573.4" x2="1804.27" y2="2111.2" gradientUnits="userSpaceOnUse"><stop offset="0" stop-color="#18459f"/><stop offset="0.99" stop-color="#2874b5"/></linearGradient><linearGradient id="_55-2" x1="1979.15" y1="2801.26" x2="2161.24" y2="2385.87" gradientTransform="translate(589.29 -1311.95) rotate(13.54)" xlink:href="#_55"/><linearGradient id="linear-gradient-39" x1="1842.49" y1="2813.24" x2="2091.23" y2="2704.5" gradientTransform="translate(589.29 -1311.95) rotate(13.54)" xlink:href="#linear-gradient-37"/><linearGradient id="_55-3" x1="2313.81" y1="3038.12" x2="2207.99" y2="3417.6" gradientTransform="translate(1033.28 -1968.87) rotate(20.86)" xlink:href="#_55"/><linearGradient id="linear-gradient-40" x1="2188.42" y1="3299.91" x2="2099.67" y2="3348.66" gradientTransform="translate(1033.28 -1968.87) rotate(20.86)" xlink:href="#linear-gradient-37"/><linearGradient id="linear-gradient-41" x1="2120.59" y1="1664.95" x2="2049.34" y2="1796.2" gradientUnits="userSpaceOnUse"><stop offset="0" stop-color="#f9b776"/><stop offset="1" stop-color="#f47960"/></linearGradient><linearGradient id="linear-gradient-42" x1="2035.28" y1="1668.82" x2="1801.91" y2="2161.49" gradientTransform="matrix(1, 0, 0, 1, 0, 0)" xlink:href="#linear-gradient-23"/><linearGradient id="linear-gradient-43" x1="9899.69" y1="3157.3" x2="10023.99" y2="3391.27" gradientTransform="matrix(-0.98, -0.22, -0.22, 0.98, 12563.88, 360.62)" xlink:href="#linear-gradient-20"/><linearGradient id="linear-gradient-44" x1="10045.43" y1="3512.71" x2="10023.27" y2="3335.37" gradientTransform="matrix(-0.98, -0.22, -0.22, 0.98, 12563.88, 360.62)" xlink:href="#linear-gradient-37"/><linearGradient id="linear-gradient-45" x1="10115.25" y1="3503.98" x2="10093.08" y2="3326.65" gradientTransform="matrix(-0.98, -0.22, -0.22, 0.98, 12563.88, 360.62)" xlink:href="#linear-gradient-37"/><linearGradient id="linear-gradient-46" x1="9902.91" y1="3155.59" x2="10027.2" y2="3389.56" gradientTransform="matrix(-0.98, -0.22, -0.22, 0.98, 12563.88, 360.62)" xlink:href="#linear-gradient-20"/><linearGradient id="linear-gradient-47" x1="9978.78" y1="3521.04" x2="9956.61" y2="3343.7" gradientTransform="matrix(-0.98, -0.22, -0.22, 0.98, 12563.88, 360.62)" xlink:href="#linear-gradient-37"/><linearGradient id="linear-gradient-48" x1="-3658.04" y1="1868.28" x2="-3619.08" y2="2104.07" gradientTransform="matrix(-0.96, -0.27, -0.27, 0.96, -1002.08, -1139.17)" xlink:href="#linear-gradient-14"/><linearGradient id="linear-gradient-49" x1="-3707.28" y1="1876.42" x2="-3668.33" y2="2112.21" gradientTransform="matrix(-0.96, -0.27, -0.27, 0.96, -1002.08, -1139.17)" xlink:href="#linear-gradient-14"/><linearGradient id="linear-gradient-50" x1="-4462.38" y1="1944.37" x2="-4345.47" y2="2226.77" gradientTransform="matrix(0, -0.75, -1.06, 0, 4170.77, -1552.24)" xlink:href="#linear-gradient-14"/><linearGradient id="linear-gradient-51" x1="-3246.75" y1="2853.89" x2="-3188.4" y2="2994.83" gradientTransform="matrix(-1, 0.08, 0.08, 1, -1542.03, -764.3)" xlink:href="#linear-gradient-14"/><linearGradient id="linear-gradient-52" x1="-3484.24" y1="239.59" x2="-3425.9" y2="380.53" gradientTransform="matrix(0, -1, -1, 0, 2304.25, -1647.01)" xlink:href="#linear-gradient-14"/><linearGradient id="linear-gradient-53" x1="1796.43" y1="1966.21" x2="1808.26" y2="2062.46" gradientTransform="matrix(0.96, 0.27, -0.27, 0.96, 845.79, -630.7)" xlink:href="#linear-gradient-14"/><linearGradient id="linear-gradient-54" x1="1671.22" y1="1991.12" x2="1744.34" y2="1891.11" gradientTransform="matrix(0.96, 0.27, -0.27, 0.96, 845.79, -630.7)" xlink:href="#linear-gradient-14"/><linearGradient id="linear-gradient-55" x1="1684.46" y1="1852.62" x2="1723.17" y2="1883.81" gradientTransform="matrix(0.96, 0.27, -0.27, 0.96, 845.79, -630.7)" xlink:href="#linear-gradient-14"/><linearGradient id="linear-gradient-56" x1="1814.6" y1="1835.64" x2="1750.07" y2="1884.57" gradientTransform="translate(4160.46 148.19) rotate(98.15)" xlink:href="#linear-gradient-14"/><linearGradient id="linear-gradient-57" x1="-3681.75" y1="1853.38" x2="-3597.55" y2="2056.78" gradientTransform="matrix(0, -1, -1, 0, 3928.38, -1988.24)" xlink:href="#linear-gradient-14"/><linearGradient id="linear-gradient-58" x1="1742.48" y1="1920.48" x2="1717.75" y2="2000.59" gradientTransform="translate(3939.11 -54.41) rotate(90)" xlink:href="#linear-gradient-14"/><linearGradient id="linear-gradient-59" x1="2053.48" y1="1762.18" x2="2135.14" y2="1661.35" xlink:href="#linear-gradient-37"/><linearGradient id="linear-gradient-60" x1="2037.18" y1="1748.98" x2="2118.85" y2="1648.15" xlink:href="#linear-gradient-37"/><linearGradient id="linear-gradient-61" x1="2087.79" y1="1693.7" x2="1854.42" y2="2186.37" gradientTransform="matrix(1, 0, 0, 1, 0, 0)" xlink:href="#linear-gradient-23"/><linearGradient id="linear-gradient-62" x1="1955.76" y1="1631.16" x2="1722.39" y2="2123.83" gradientTransform="matrix(1, 0, 0, 1, 0, 0)" xlink:href="#linear-gradient-23"/><linearGradient id="linear-gradient-63" x1="2813.54" y1="689.11" x2="2966.66" y2="535.99" gradientTransform="matrix(1, 0, 0, 1, 0, 0)" xlink:href="#linear-gradient-5"/><linearGradient id="linear-gradient-64" x1="2938.33" y1="594.22" x2="3088.38" y2="-88.68" gradientTransform="matrix(1, 0, 0, 1, 0, 0)" xlink:href="#linear-gradient-5"/><linearGradient id="linear-gradient-65" x1="3105.48" y1="831.23" x2="3070.92" y2="612.37" gradientTransform="translate(-14.93 56.94) rotate(-0.54)" xlink:href="#linear-gradient-5"/><linearGradient id="linear-gradient-66" x1="4756" y1="2484.44" x2="4828.18" y2="2648.66" gradientTransform="translate(-2504.14 -137.31) rotate(-12.16)" xlink:href="#linear-gradient-37"/><linearGradient id="linear-gradient-67" x1="4757.9" y1="2496.9" x2="4836.48" y2="2675.7" gradientTransform="translate(-2504.14 -137.31) rotate(-12.16)" xlink:href="#linear-gradient-37"/><linearGradient id="linear-gradient-68" x1="-6283.83" y1="1244.13" x2="-6263.58" y2="1244.13" gradientTransform="matrix(-1, 0, 0, 1, -3642.82, 0)" xlink:href="#linear-gradient-37"/><linearGradient id="_57" x1="-6329.72" y1="1143.72" x2="-6412.4" y2="1216.68" gradientTransform="matrix(-1, 0, 0, 1, -3642.82, 0)" gradientUnits="userSpaceOnUse"><stop offset="0" stop-color="#2b3582"/><stop offset="0.65" stop-color="#150e42"/></linearGradient><linearGradient id="_57-2" x1="-7163.41" y1="-73.36" x2="-7096.31" y2="-73.36" gradientTransform="matrix(-0.98, -0.18, -0.18, 0.98, -4135.81, 29.79)" xlink:href="#_57"/><linearGradient id="_57-3" x1="-3562.33" y1="-2462.77" x2="-3924.74" y2="-2209.88" gradientTransform="matrix(-0.98, -0.18, -0.18, 0.98, -4135.81, 29.79)" xlink:href="#_57"/><linearGradient id="_57-4" x1="-6402.82" y1="1771.11" x2="-6338.55" y2="1771.11" xlink:href="#_57"/><linearGradient id="_57-5" x1="-6484.17" y1="1791.95" x2="-6448.42" y2="1791.95" xlink:href="#_57"/><linearGradient id="linear-gradient-69" x1="-6443.08" y1="1386.25" x2="-6437.91" y2="1333.69" gradientTransform="matrix(-1, 0, 0, 1, -3642.82, 0)" xlink:href="#linear-gradient-37"/><linearGradient id="linear-gradient-70" x1="-6504.19" y1="1677.05" x2="-6451.14" y2="1677.05" gradientTransform="matrix(-1, 0, 0, 1, -3642.82, 0)" xlink:href="#linear-gradient-37"/><linearGradient id="linear-gradient-71" x1="-6442.01" y1="1671.85" x2="-6379.7" y2="1671.85" gradientTransform="matrix(-1, 0, 0, 1, -3642.82, 0)" xlink:href="#linear-gradient-37"/><linearGradient id="linear-gradient-72" x1="-6642.36" y1="1598.95" x2="-6468.82" y2="1360.51" gradientTransform="matrix(-1, 0, 0, 1, -3642.82, 0)" xlink:href="#linear-gradient-37"/><linearGradient id="linear-gradient-73" x1="2752.74" y1="1461.05" x2="2364.54" y2="2208.69" gradientTransform="matrix(1, 0, 0, 1, 0, 0)" xlink:href="#linear-gradient-14"/><linearGradient id="linear-gradient-74" x1="2829.77" y1="1501.04" x2="2441.57" y2="2248.68" gradientTransform="matrix(1, 0, 0, 1, 0, 0)" xlink:href="#linear-gradient-14"/><linearGradient id="linear-gradient-75" x1="2846.21" y1="1022.17" x2="2761.1" y2="1665.8" gradientTransform="matrix(1, 0, 0, 1, 0, 0)" xlink:href="#linear-gradient-14"/><linearGradient id="linear-gradient-76" x1="-7040.51" y1="-67.67" x2="-7033.63" y2="-170.09" gradientTransform="matrix(-0.99, -0.17, -0.19, 1.03, -4171.1, 165.32)" xlink:href="#linear-gradient-37"/><linearGradient id="linear-gradient-77" x1="-6982.11" y1="39.01" x2="-6975.22" y2="-63.53" gradientTransform="matrix(-0.98, -0.18, -0.18, 0.98, -4135.81, 29.79)" xlink:href="#linear-gradient-37"/><linearGradient id="linear-gradient-78" x1="-7078.84" y1="32.51" x2="-7071.95" y2="-70.03" gradientTransform="matrix(-0.98, -0.18, -0.18, 0.98, -4135.81, 29.79)" xlink:href="#linear-gradient-37"/><linearGradient id="_57-6" x1="-3569.15" y1="-2472.52" x2="-3931.55" y2="-2219.63" gradientTransform="matrix(-0.98, -0.18, -0.18, 0.98, -4135.81, 29.79)" xlink:href="#_57"/><linearGradient id="linear-gradient-79" x1="800.61" y1="267.96" x2="617.1" y2="1698.84" gradientTransform="matrix(1, 0, 0, 1, 0, 0)" xlink:href="#linear-gradient-14"/><linearGradient id="linear-gradient-80" x1="853.34" y1="274.72" x2="669.83" y2="1705.6" gradientTransform="matrix(1, 0, 0, 1, 0, 0)" xlink:href="#linear-gradient-14"/><linearGradient id="linear-gradient-81" x1="899.43" y1="280.63" x2="715.92" y2="1711.51" gradientTransform="matrix(1, 0, 0, 1, 0, 0)" xlink:href="#linear-gradient-14"/><linearGradient id="linear-gradient-82" x1="960.05" y1="288.41" x2="776.54" y2="1719.28" gradientTransform="matrix(1, 0, 0, 1, 0, 0)" xlink:href="#linear-gradient-14"/><linearGradient id="linear-gradient-83" x1="682.71" y1="868.36" x2="485.01" y2="1242.29" gradientTransform="matrix(-1, -0.01, -0.01, 1, 1754.66, -30.13)" gradientUnits="userSpaceOnUse"><stop offset="0" stop-color="#e40045"/><stop offset="1" stop-color="#5c0e16"/></linearGradient><linearGradient id="linear-gradient-84" x1="789.09" y1="545.01" x2="843.74" y2="545.01" gradientTransform="matrix(1, 0.01, -0.01, 1, 137.51, -53.68)" gradientUnits="userSpaceOnUse"><stop offset="0" stop-color="#41a362"/><stop offset="1" stop-color="#204f2e"/></linearGradient><linearGradient id="linear-gradient-85" x1="778.25" y1="567.63" x2="793.36" y2="567.63" xlink:href="#linear-gradient-84"/><linearGradient id="linear-gradient-86" x1="659.77" y1="1088.71" x2="462.06" y2="1462.64" xlink:href="#linear-gradient-83"/><linearGradient id="linear-gradient-87" x1="812.03" y1="765.35" x2="866.68" y2="765.35" xlink:href="#linear-gradient-84"/><linearGradient id="linear-gradient-88" x1="801.19" y1="787.97" x2="816.3" y2="787.97" xlink:href="#linear-gradient-84"/><linearGradient id="linear-gradient-89" x1="481.06" y1="1077.22" x2="283.35" y2="1451.15" xlink:href="#linear-gradient-83"/><linearGradient id="linear-gradient-90" x1="990.74" y1="753.86" x2="1045.39" y2="753.86" xlink:href="#linear-gradient-84"/><linearGradient id="linear-gradient-91" x1="979.9" y1="776.48" x2="995.01" y2="776.48" xlink:href="#linear-gradient-84"/><linearGradient id="linear-gradient-92" x1="627.53" y1="1315.63" x2="429.82" y2="1689.56" xlink:href="#linear-gradient-83"/><linearGradient id="linear-gradient-93" x1="844.27" y1="992.28" x2="898.92" y2="992.28" xlink:href="#linear-gradient-84"/><linearGradient id="linear-gradient-94" x1="833.44" y1="1014.9" x2="848.55" y2="1014.9" xlink:href="#linear-gradient-84"/><linearGradient id="linear-gradient-95" x1="471.96" y1="1304.15" x2="274.25" y2="1678.08" xlink:href="#linear-gradient-83"/><linearGradient id="linear-gradient-96" x1="999.84" y1="980.79" x2="1054.49" y2="980.79" xlink:href="#linear-gradient-84"/><linearGradient id="linear-gradient-97" x1="989" y1="1003.41" x2="1004.11" y2="1003.41" xlink:href="#linear-gradient-84"/><linearGradient id="linear-gradient-98" x1="312.4" y1="1289" x2="114.69" y2="1662.93" xlink:href="#linear-gradient-83"/><linearGradient id="linear-gradient-99" x1="1159.4" y1="965.65" x2="1214.05" y2="965.65" xlink:href="#linear-gradient-84"/><linearGradient id="linear-gradient-100" x1="1148.56" y1="988.27" x2="1163.67" y2="988.27" xlink:href="#linear-gradient-84"/><linearGradient id="linear-gradient-101" x1="626.66" y1="1560.2" x2="428.95" y2="1934.13" xlink:href="#linear-gradient-83"/><linearGradient id="linear-gradient-102" x1="845.14" y1="1236.85" x2="899.79" y2="1236.85" xlink:href="#linear-gradient-84"/><linearGradient id="linear-gradient-103" x1="834.31" y1="1259.47" x2="849.42" y2="1259.47" xlink:href="#linear-gradient-84"/><linearGradient id="linear-gradient-104" x1="479.52" y1="1555.36" x2="281.81" y2="1929.29" xlink:href="#linear-gradient-83"/><linearGradient id="linear-gradient-105" x1="992.28" y1="1232.01" x2="1046.93" y2="1232.01" xlink:href="#linear-gradient-84"/><linearGradient id="linear-gradient-106" x1="981.44" y1="1254.63" x2="996.55" y2="1254.63" xlink:href="#linear-gradient-84"/><linearGradient id="linear-gradient-107" x1="335.85" y1="1546.75" x2="138.14" y2="1920.68" xlink:href="#linear-gradient-83"/><linearGradient id="linear-gradient-108" x1="1135.96" y1="1223.39" x2="1190.61" y2="1223.39" xlink:href="#linear-gradient-84"/><linearGradient id="linear-gradient-109" x1="1125.12" y1="1246.01" x2="1140.23" y2="1246.01" xlink:href="#linear-gradient-84"/><linearGradient id="linear-gradient-110" x1="194.15" y1="1537.13" x2="-3.56" y2="1911.06" xlink:href="#linear-gradient-83"/><linearGradient id="linear-gradient-111" x1="1277.65" y1="1213.78" x2="1332.3" y2="1213.78" xlink:href="#linear-gradient-84"/><linearGradient id="linear-gradient-112" x1="1266.81" y1="1236.39" x2="1281.92" y2="1236.39" xlink:href="#linear-gradient-84"/><linearGradient id="linear-gradient-113" x1="-1341.95" y1="842.76" x2="-1256.07" y2="1058.2" gradientTransform="matrix(-1, 0, 0, 1, -642.24, 0)" xlink:href="#linear-gradient-20"/><linearGradient id="linear-gradient-114" x1="-1451.98" y1="966.79" x2="-1324.27" y2="1257.37" gradientTransform="matrix(-1, 0, 0, 1, -642.24, 0)" xlink:href="#linear-gradient-37"/><linearGradient id="linear-gradient-115" x1="-852.42" y1="1223.47" x2="-1085.72" y2="2227.65" gradientTransform="matrix(-1, 0, 0, 1, -642.24, 0)" xlink:href="#linear-gradient-9"/><linearGradient id="linear-gradient-116" x1="-1304.35" y1="2207.93" x2="-1220" y2="1222.03" gradientTransform="matrix(-1, 0, 0, 1, -642.24, 0)" xlink:href="#linear-gradient-37"/><linearGradient id="linear-gradient-117" x1="-1092.32" y1="1167.73" x2="-1325.61" y2="2171.92" gradientTransform="matrix(-1, 0, 0, 1, -642.24, 0)" xlink:href="#linear-gradient-9"/><linearGradient id="linear-gradient-118" x1="-1134.66" y1="2222.6" x2="-1050.29" y2="1236.44" gradientTransform="matrix(-1, 0, 0, 1, -642.24, 0)" xlink:href="#linear-gradient-37"/><linearGradient id="linear-gradient-119" x1="685.22" y1="1111.55" x2="423.41" y2="2011.82" gradientTransform="matrix(1, 0, 0, 1, 0, 0)" xlink:href="#linear-gradient-14"/><linearGradient id="linear-gradient-120" x1="654.82" y1="1447.21" x2="328.7" y2="2025.96" gradientTransform="matrix(1, 0, 0, 1, 0, 0)" xlink:href="#linear-gradient-5"/><linearGradient id="linear-gradient-121" x1="-1313.6" y1="1236.12" x2="-1297.76" y2="1120.2" gradientTransform="matrix(-1, 0, 0, 1, -642.24, 0)" xlink:href="#linear-gradient-37"/><linearGradient id="linear-gradient-122" x1="-1248.29" y1="1292.61" x2="-1143.03" y2="1292.61" gradientTransform="matrix(-1, 0, 0, 1, -642.24, 0)" xlink:href="#linear-gradient-37"/><linearGradient id="linear-gradient-123" x1="-1353.6" y1="1101.93" x2="-1215.34" y2="855.88" gradientTransform="matrix(-1, 0, 0, 1, -642.24, 0)" xlink:href="#linear-gradient-37"/><linearGradient id="linear-gradient-124" x1="-1323.87" y1="887.66" x2="-1254.74" y2="1061.06" gradientTransform="matrix(-1, 0, 0, 1, -642.24, 0)" xlink:href="#linear-gradient-20"/><linearGradient id="linear-gradient-125" x1="-1324.17" y1="1118.46" x2="-1185.91" y2="872.41" gradientTransform="matrix(-1, 0, 0, 1, -642.24, 0)" xlink:href="#linear-gradient-37"/><linearGradient id="linear-gradient-126" x1="-1477.22" y1="977.88" x2="-1349.51" y2="1268.46" gradientTransform="matrix(-1, 0, 0, 1, -642.24, 0)" xlink:href="#linear-gradient-41"/><linearGradient id="linear-gradient-127" x1="1574.58" y1="612.43" x2="1646.68" y2="612.43" gradientTransform="matrix(1, -0.02, 0.02, 1, 121.37, 30.33)" xlink:href="#linear-gradient-37"/><linearGradient id="linear-gradient-128" x1="960.45" y1="613.64" x2="1033.2" y2="613.64" gradientTransform="matrix(0.99, -0.14, 0.14, 0.99, 757.38, 149.86)" xlink:href="#linear-gradient-37"/><linearGradient id="linear-gradient-129" x1="-3538.51" y1="-1874.2" x2="-3499.78" y2="-1874.2" gradientTransform="matrix(-0.59, -0.81, -0.81, 0.59, -1709, -1066.32)" xlink:href="#linear-gradient-37"/><linearGradient id="linear-gradient-130" x1="-3483.23" y1="-1802.12" x2="-3444.73" y2="-1802.12" gradientTransform="matrix(-0.59, -0.81, -0.81, 0.59, -1709, -1066.32)" xlink:href="#linear-gradient-37"/><linearGradient id="linear-gradient-131" x1="2948.27" y1="312.46" x2="3102.8" y2="312.46" gradientTransform="translate(-1091.2 -419.92) rotate(11.88)" xlink:href="#linear-gradient-37"/><linearGradient id="_115" x1="1692.89" y1="188.99" x2="1633.48" y2="323.88" gradientUnits="userSpaceOnUse"><stop offset="0" stop-color="#fdf53f"/><stop offset="0.84" stop-color="#df595f"/><stop offset="1" stop-color="#d93c65"/></linearGradient><linearGradient id="linear-gradient-132" x1="2070.14" y1="-101.41" x2="1611.23" y2="263.55" gradientTransform="matrix(1, 0, 0, 1, 0, 0)" xlink:href="#linear-gradient-3"/><linearGradient id="linear-gradient-133" x1="-820.42" y1="265.61" x2="-871.37" y2="165.06" gradientTransform="matrix(-0.93, -0.36, -0.36, 0.93, 985.6, -94.74)" xlink:href="#linear-gradient-14"/><linearGradient id="linear-gradient-134" x1="-824.18" y1="116.19" x2="-789" y2="116.19" gradientTransform="matrix(-0.93, -0.36, -0.36, 0.93, 985.6, -94.74)" xlink:href="#linear-gradient-9"/><linearGradient id="linear-gradient-135" x1="1707.82" y1="398.26" x2="1825.25" y2="329.01" gradientTransform="matrix(1, 0, 0, 1, 0, 0)" xlink:href="#linear-gradient-23"/><linearGradient id="linear-gradient-136" x1="1755.41" y1="299.67" x2="1931.76" y2="504.91" gradientTransform="matrix(1, 0, 0, 1, 0, 0)" xlink:href="#linear-gradient-23"/><linearGradient id="linear-gradient-137" x1="1818.35" y1="418.05" x2="1906.83" y2="418.05" xlink:href="#linear-gradient-37"/><linearGradient id="linear-gradient-138" x1="1753.67" y1="445.36" x2="1463.02" y2="852.44" xlink:href="#linear-gradient-37"/><linearGradient id="linear-gradient-139" x1="8656.83" y1="310.86" x2="8639.17" y2="388.38" gradientTransform="matrix(-1, 0, 0, 1, 10378.85, 0)" xlink:href="#linear-gradient-37"/><linearGradient id="linear-gradient-140" x1="8647.59" y1="343.38" x2="8639.15" y2="394.03" gradientTransform="matrix(-1, 0, 0, 1, 10378.85, 0)" xlink:href="#linear-gradient-37"/><linearGradient id="linear-gradient-141" x1="8548.14" y1="456.66" x2="8595.1" y2="456.66" gradientTransform="matrix(-1, 0, 0, 1, 10378.85, 0)" xlink:href="#linear-gradient-37"/><linearGradient id="linear-gradient-142" x1="1803.54" y1="258.29" x2="1979.98" y2="463.63" xlink:href="#linear-gradient-37"/><linearGradient id="linear-gradient-143" x1="1864.33" y1="347.71" x2="1880.18" y2="347.71" xlink:href="#linear-gradient-37"/><linearGradient id="linear-gradient-144" x1="1939.9" y1="183.35" x2="1834.5" y2="302.01" xlink:href="#linear-gradient-37"/><linearGradient id="linear-gradient-145" x1="1776.31" y1="267.55" x2="1932.07" y2="143.09" xlink:href="#linear-gradient-37"/><linearGradient id="linear-gradient-146" x1="1768.55" y1="202.85" x2="1924.49" y2="202.85" gradientTransform="matrix(1, 0, 0, 1, 0, 0)" xlink:href="#linear-gradient-20"/><linearGradient id="linear-gradient-147" x1="1808.47" y1="307.81" x2="1964.24" y2="183.36" xlink:href="#linear-gradient-37"/></defs><path class="cls-5" d="M1640.76,338.7c-51.25-86.4-144.93-132.84-228.24-166.34-62.41-25.09-125.88-47-189.63-66-49-14.58-105.33-27.07-155.34-28.23-27.37-.63-55.21,2.45-78.72,15.76-43.59,24.68-54.73,62.63-41,117.32,7.68,30.63,35,81.21,5.76,100.15-25.54,16.54-60.31,9.5-89.73,10.46-10,.32-20.18.67-29.61,3.72-31,10-47.43,48.07-45.75,84.57,3.49,75.68,87.09,132.55,142.52,167,64.42,40,134.19,67.08,204,89.3,117.86,37.52,244.85,50.29,359.63,18.16C1563.83,665.21,1632,624.28,1660.11,550,1684.84,484.72,1678.68,402.63,1640.76,338.7ZM1054.14,224c-35.74,1.06-66.86-19.22-69.52-45.27s24.17-48,59.91-49.09,66.86,19.23,69.52,45.28S1089.88,222.92,1054.14,224Z"/><path class="cls-6" d="M1643.58,328.54C1592.8,242.92,1500,196.91,1417.42,163.71c-61.85-24.86-124.74-46.6-187.9-65.38-48.6-14.45-104.38-26.82-153.93-28-27.12-.63-54.71,2.43-78,15.61-43.2,24.46-54.23,62.07-40.65,116.26,7.6,30.35,34.68,80.47,5.69,99.24-25.3,16.38-59.75,9.41-88.9,10.35-9.94.33-20,.67-29.35,3.69-30.72,9.93-47,47.63-45.32,83.8,3.45,75,86.29,131.35,141.21,165.48,63.83,39.66,133,66.47,202.13,88.48,116.78,37.19,242.62,49.84,356.34,18,68.61-19.21,136.12-59.77,164-133.4C1687.25,473.22,1681.15,391.88,1643.58,328.54ZM1062.31,214.85c-35.42,1-66.26-19-68.89-44.86s23.94-47.6,59.36-48.64,66.25,19.05,68.89,44.87S1097.72,213.81,1062.31,214.85Z"/><g class="cls-7"><ellipse class="cls-8" cx="906.28" cy="444.55" rx="53.31" ry="60.65" transform="translate(-98.88 351.71) rotate(-20.85)"/></g><ellipse class="cls-9" cx="900.66" cy="443.95" rx="41.8" ry="47.55" transform="translate(-99.04 349.66) rotate(-20.85)"/><ellipse class="cls-10" cx="1071.07" cy="556.67" rx="53.31" ry="60.65" transform="translate(-128 417.71) rotate(-20.85)"/><ellipse class="cls-11" cx="1071.07" cy="556.67" rx="49.1" ry="55.86" transform="translate(-128 417.71) rotate(-20.85)"/><ellipse class="cls-12" cx="1282.58" cy="611.35" rx="53.31" ry="60.65" transform="translate(-133.61 496.57) rotate(-20.85)"/><ellipse class="cls-13" cx="1282.1" cy="611.48" rx="45.58" ry="51.86" transform="translate(-133.68 496.41) rotate(-20.85)"/><ellipse class="cls-14" cx="1451.21" cy="609.64" rx="53.31" ry="60.65" transform="translate(-121.96 556.49) rotate(-20.85)"/><ellipse class="cls-15" cx="1450.81" cy="611.49" rx="44.17" ry="50.25" transform="translate(-122.64 556.46) rotate(-20.85)"/><ellipse class="cls-16" cx="1584.24" cy="522.26" rx="53.31" ry="60.65" transform="translate(-82.14 598.12) rotate(-20.85)"/><ellipse class="cls-17" cx="1583.84" cy="524.07" rx="49.07" ry="55.83" transform="translate(-82.81 598.1) rotate(-20.85)"/><ellipse class="cls-18" cx="1574.11" cy="360.84" rx="53.31" ry="60.65" transform="translate(-25.35 583.92) rotate(-20.85)"/><ellipse class="cls-19" cx="1573.89" cy="361.86" rx="48.26" ry="54.91" transform="translate(-25.73 583.91) rotate(-20.85)"/><path class="cls-20" d="M1020.23,272.05l-37.4,85.56c-6.12,14-.3,31.84,13,39.81l19.78,11.86c15.61,9.35,33.83.84,37.12-17.35l17.62-97.41a32.92,32.92,0,0,0-14.22-33h0C1042.74,253,1026.49,257.74,1020.23,272.05Z"/><path class="cls-21" d="M1092.42,299.83l-2.76,103.52c-.4,14.94,9.17,28.92,22.59,33l34,10.31c20.6,6.24,38-13.42,31.77-36l-31.26-113.84c-3.47-12.64-13.62-22.19-25.36-23.85h0C1105.93,270.78,1092.87,282.86,1092.42,299.83Z"/><path class="cls-22" d="M1179.64,258c-5.17,6-8.58,13.7-4.44,22.61,21.3,45.85,41.55,92.23,63.36,137.83,2.93,6.13,5.69,13.32,9.77,18.68,25.74-8.1,53.16-13.56,78.24-23.45,12.57-3.71,15-21.8,4.24-31.44-21.83-21.74-45.5-41-68.38-61.25-24.45-21.69-48.72-43.65-73.09-65.48C1184.82,251.44,1182.66,254.48,1179.64,258Z"/><path class="cls-23" d="M1206.26,232c32.84,21.64,120.34,83.76,164.09,114.93,12.78,9.11,28.89,2.77,32.11-12.63l16.25-77.85c2.75-13.19-5.35-27.17-17.74-30.62l-180.36-50.13c-12.8-3.56-24.65,5.64-25.46,19.78l-.72,12.56A27.17,27.17,0,0,0,1206.26,232Z"/><path class="cls-24" d="M2177.9,587.13c1.31.57,2.63,1.11,3.94,1.69l4.69-1.69H3032.7V1711.74c-300.83,0-533.85-7.44-806,0-269.29-10.42-579.8,8.06-860.9,8.06L1351.69,587.13Z"/><path class="cls-25" d="M3003.39,563.58c-333.77-12.13-493.44-96.81-822.27,22.88-213.65-94.48-483.43-30.7-802.49-20.12v1134.2c262.56-20.54,521.17-10,781.41,0,261.18-28.51,544.79-24.94,843.35,0Z"/><g class="cls-26"><path class="cls-27" d="M2197.8,583.49c311.07-108.89,468.44-27.83,790.51-16V1696.54c-278.85-23.5-544.45-27.87-790.51-4.06Z"/></g><g class="cls-28"><path class="cls-29" d="M2162.73,584.42V1696.07l-4.43.47c-258.46-10-515.3-20.37-776.06,0V571.37C1691,561.14,1953.2,500.85,2162.73,584.42Z"/></g><path class="cls-24" d="M2182.57,1701l-803.94-.45v-30.46C1826.44,1640.9,2162.73,1614.74,2182.57,1701Z"/><path class="cls-24" d="M2182.57,1701l821.06-1v-30.46C2555.83,1640.34,2191,1627.07,2182.57,1701Z"/><path class="cls-30" d="M922.42,1668.83h861.77V1496.35H922.42C940.87,1496.35,940.87,1668.83,922.42,1668.83Z"/><path class="cls-31" d="M1784.19,1625.67v-78.94c0-27.82-17-50.38-38-50.38H926.06a29.92,29.92,0,0,1-29.92-29.91h0a9.09,9.09,0,0,1,9.09-9.09h896.31c20.55,0,53.19,32.31,53.19,72.18v110.24c0,37.59-31.69,68.06-51.07,68.06H910a13.8,13.8,0,0,1-13.81-13.8,25.2,25.2,0,0,1,25.2-25.2h830.27C1769.6,1668.83,1784.19,1649.51,1784.19,1625.67Z"/><path class="cls-32" d="M922.42,1668.83h861.77V1538.62a42.27,42.27,0,0,0-42.27-42.27H922.42C940.87,1496.35,940.87,1668.83,922.42,1668.83Z"/><path class="cls-33" d="M1760.29,1533.2h-808a1.47,1.47,0,0,1,0-2.93h808a1.47,1.47,0,1,1,0,2.93Z"/><path class="cls-33" d="M1760.29,1558.81h-808a1.47,1.47,0,0,1,0-2.94h808a1.47,1.47,0,1,1,0,2.94Z"/><path class="cls-33" d="M1760.29,1584.41h-808a1.47,1.47,0,0,1,0-2.93h808a1.47,1.47,0,1,1,0,2.93Z"/><path class="cls-33" d="M1760.29,1610h-808a1.47,1.47,0,0,1,0-2.93h808a1.47,1.47,0,1,1,0,2.93Z"/><path class="cls-33" d="M1760.29,1635.61h-808a1.47,1.47,0,0,1,0-2.93h808a1.47,1.47,0,1,1,0,2.93Z"/><rect class="cls-34" x="1007.54" y="1269.39" width="775.43" height="187.18" rx="20.09" transform="translate(2790.52 2725.95) rotate(180)"/><rect class="cls-35" x="1604.24" y="1290.9" width="91.1" height="144.15" rx="7.24" transform="translate(3299.58 2725.95) rotate(180)"/><rect class="cls-36" x="1556.66" y="1290.9" width="34.18" height="144.15" rx="3.67" transform="translate(3147.51 2725.95) rotate(180)"/><path class="cls-37" d="M3163.74,1951H396.16c-50.23,0-83.75-50.81-63.14-95.74l19-41.51A176.11,176.11,0,0,1,512,1711l2568.64-1.85c41.16,0,77.94,25.2,92,63.13l40.59,109.35C3225.74,1915.35,3200.3,1951,3163.74,1951Z"/><path class="cls-38" d="M736.37,1835.57a23,23,0,0,1-2.62-.15,22.7,22.7,0,0,1-20-25.16L856.34,569.6a22.71,22.71,0,0,1,45.13,5.19L758.9,1815.45A22.71,22.71,0,0,1,736.37,1835.57Z"/><path class="cls-39" d="M1520.08,1835.57a22.73,22.73,0,0,1-22.15-17.75L1219.76,577.16a22.71,22.71,0,1,1,44.33-9.93l278.17,1240.66a22.71,22.71,0,0,1-17.19,27.13A23.18,23.18,0,0,1,1520.08,1835.57Z"/><path class="cls-40" d="M1050.3,1835.57a22.71,22.71,0,0,1-22.71-22.71V1200.57a22.72,22.72,0,0,1,45.43,0v612.29A22.72,22.72,0,0,1,1050.3,1835.57Z"/><path class="cls-41" d="M595.77,433.39l79.85,1005.8a40.19,40.19,0,0,0,41,37l834-20.34a40.19,40.19,0,0,0,38.71-46.49L1429.72,406.43a40.19,40.19,0,0,0-40.62-33.86L634.9,390A40.19,40.19,0,0,0,595.77,433.39Z"/><path class="cls-42" d="M665.58,417.72,1365,401.53a40.19,40.19,0,0,1,40.62,33.86l150.65,946.36a40.19,40.19,0,0,1-38.71,46.5l-774.69,18.89a40.18,40.18,0,0,1-41-37L626.44,461.08A40.19,40.19,0,0,1,665.58,417.72Z"/><path class="cls-43" d="M1887,741l857.39-43.66c16.82-.86,30.93,8.21,31.37,20.13l17,466.73c.44,12-13.12,22.22-30.06,22.62-155.21,3.63-844.3,19.83-874.65,22.09-30,2.22-30.37-373.29-30-466C1858.08,751.47,1870.84,741.81,1887,741Z"/><path class="cls-33" d="M1903.51,1210l-.16-.54c-12.66-42.49-20.26-218-19.36-447.09,0-1.7,1.78-3.13,4-3.24l857.39-43.65a4.9,4.9,0,0,1,3,.73,2.76,2.76,0,0,1,1.42,2.29l17,466.72c.07,1.75-1.73,3.26-4,3.36h-.14c-123.39,2.89-744.7,17.47-858.59,21.41ZM2745.69,717h-.21l-857.39,43.66c-1.45.07-2.63.87-2.63,1.78-.9,228,6.61,402.82,19.14,446.12,115.38-4,734.84-18.51,858-21.38h.13c1.43-.06,2.62-.9,2.59-1.83l-17-466.73a1.4,1.4,0,0,0-.75-1.11A3.34,3.34,0,0,0,2745.69,717Z"/><path class="cls-44" d="M2088.16,1050.61H1913l-19.21,65.07a24.23,24.23,0,0,1-23.24,17.36H1766.08a24.23,24.23,0,0,1-22.68-32.75l169.47-450.9a24.24,24.24,0,0,1,22.68-15.7h134.76A24.23,24.23,0,0,1,2093,649.4l169.43,450.89a24.23,24.23,0,0,1-22.68,32.75H2131.12a24.22,24.22,0,0,1-23.19-17.2Zm-32-108L2001,763.13l-54.54,179.5Z"/><path class="cls-45" d="M2495.52,867.79h189.3a21.33,21.33,0,0,1,21.33,21.33v23.1a21.33,21.33,0,0,1-5.94,14.77l-143,149.06h133a21.33,21.33,0,0,1,21.33,21.33v14.33a21.33,21.33,0,0,1-21.33,21.33h-209a21.33,21.33,0,0,1-21.33-21.33v-25.1a21.31,21.31,0,0,1,5.93-14.76l141.41-147.43H2495.52a21.33,21.33,0,0,1-21.33-21.33v-14A21.33,21.33,0,0,1,2495.52,867.79Z"/><circle class="cls-46" cx="2313.06" cy="1115.79" r="17.25" transform="translate(695.69 3110.62) rotate(-76.72)"/><circle class="cls-47" cx="2364.82" cy="1115.79" r="17.25" transform="translate(1057.78 3380.52) rotate(-85.27)"/><circle class="cls-48" cx="2416.57" cy="1115.79" r="17.25" transform="translate(1013.88 3377.93) rotate(-82.98)"/><path class="cls-49" d="M1826.65,1649.62c31.25,51.42,76.88,21.35,94.48,6.65a.46.46,0,0,1,.31-.26c2-1.68,3.61-3.14,4.79-4.25,7.7-9.16,20.33-30.76,31.75-44.07,5-5.86,12.15-8.31,19.45-9.94,6.2-1.37,14.07.64,19.27-4,.75-.67.69-1.85.57-2.85q-1.44-11.9-2.89-23.8c.76,6.26,42.81-.85,47.69-1.22q1.34,10.33,3.51,20.53a14.47,14.47,0,0,0,2.4,6.18c2.2,2.76,6,3.58,9.45,4.23,10.61,2,21.37,4.23,30.34,10.6,17.75,12.63,26.6,36.54,33,59.86a78.73,78.73,0,0,1-25.6,17.46l-10.43,111.06-60.86,23-71.72-26.66-.63-106.35c-93.19,70.21-136.29-18.39-136.29-18.39Z"/><path class="cls-50" d="M1778.37,1667.26c1.06-5.15,4.54-23.19,13.82-26.77,19.19-7.41,35.08,10.3,35.08,10.3l3.19,14.41a6,6,0,0,0-2.4-2.11c-2.46,9.46-10.23,18.63-14.14,17.06-6.36-2.54-5.08-2.54,1.28-12.72l0-.08a4.32,4.32,0,0,0-4-6.51c-8.31.54-16.44,2.84-18,6.42C1790.06,1674.47,1777.3,1672.41,1778.37,1667.26Z"/><path class="cls-51" d="M2091.67,1787.11c5.17,11.52,8.92,22.13,10.52,35.28,1.33,10.93,3.38,26-1.45,36.25-3.66,7.77-10,5.58-17.78,4.77-10.55-1.09-20.58-4.43-30.95-6.39-20.3-3.83-40.83-7.89-61.61-6.81-8.12.43-16.32,1.63-24.34.29-12.11-2-24-9.77-33-17.89-9.29-8.4-7.2-16.11-3-26.69a221.29,221.29,0,0,1,10-22.13c2.5-4.75,5-9.66,8.22-14,13.82,12.78,35.7,15.75,53.63,17.93a233,233,0,0,0,63.85-1c8.06-1.25,15-3.94,22.42-6.89C2089.48,1782.2,2090.58,1784.66,2091.67,1787.11Z"/><path class="cls-52" d="M1986.5,1861.17c-53.14-4.87-102.6-14.94-141-32.28-9.27,19.93-37.74,26.65-66.91,36l-14.27-23.76c23-27.12,46.53-49.89,71.14-63.82,41.82-6.51,78.14-3.12,109.15,9.84C1965.15,1811.24,1977.65,1836,1986.5,1861.17Z"/><path class="cls-53" d="M1765.13,1841.82q-10.52-8.05-21.13-16c-3.34-2.49-7-5.07-11.17-5-14.12.12-2.73,18.15.51,23.19,5.12,8,10.31,16,17.25,22.46,5,4.62,13.7,11.41,20.88,11.24,8.67-.22,14-20.07,7.88-24.87Q1772.27,1847.3,1765.13,1841.82Z"/><path class="cls-54" d="M2096.39,1864.24c-39.64,25-115.44,8-157,.49-5.65,21.24-32.5,32.83-59.58,47.18L1861.6,1891c17.9-30.72,37.09-57.25,58.89-75.27q34.35-11.77,65.11-13.09a108.14,108.14,0,0,1,62.43,16.69c19.74,12.46,55.09,2.27,53.51,36A11.13,11.13,0,0,1,2096.39,1864.24Z"/><path class="cls-55" d="M1862.47,1891.51q-11.74-6.1-23.59-12c-3.72-1.86-7.79-3.77-11.88-3-13.88,2.58.48,18.34,4.56,22.74,6.43,7,13,14,20.91,19.1,5.71,3.68,15.48,8.84,22.52,7.41,8.5-1.72,10.29-22.21,3.42-25.86Q1870.46,1895.65,1862.47,1891.51Z"/><path class="cls-56" d="M2088.92,1769.94a1.35,1.35,0,0,1-.52-.11c-2.34-1.06-4.76-2.11-7.18-3.17-12.3-5.35-25-10.88-31-18.46a1.25,1.25,0,0,1,2-1.55c5.63,7.09,18,12.49,30.07,17.72,2.43,1.06,4.86,2.12,7.21,3.18a1.25,1.25,0,0,1,.63,1.65A1.27,1.27,0,0,1,2088.92,1769.94Z"/><path class="cls-57" d="M1950,1773.33c.79-77.74,1.5-123.86,5.22-162.3,4.4-11.56,23.06-14.52,42.61-17.33,12.21,10.83,29.52,9.93,51.28-1.15,26.38,6.78,40.79,13,44.67,18.78-4.22,31.71-4.41,59.86,1.9,82.3l-6.84,89.11C2030.59,1797.91,1985.27,1794.79,1950,1773.33Z"/><path class="cls-58" d="M1955.27,1507.15s-19-19.49-4.71-35c0,0-14-17.72-.14-35.74,0,0,12.22-69,81.21-37.39,0,0,46.51-25.31,77.47,31.71,0,0,18.88,5.48,16.81,29.74,0,0,22.46,83.45-60,71.54Z"/><path class="cls-59" d="M1968.34,1449.5s-55.1,102.36,13,128.66,95.27-45.67,95.27-45.67,25.27-33.8,12.57-55.76S1983.26,1434.71,1968.34,1449.5Z"/><path class="cls-60" d="M1953.84,1498.7s2.8-12.82-8.57-13.61,3.33,30.47,3.33,30.47Z"/><path class="cls-61" d="M2081.18,1515.56s-69-12.61-68.3-52.52c0,0-11.35,2.6-16.59-10.5,0,0-28.86,33.42-40,14,0,0-.71-51.45,41.16-40s80.32,23.53,92.45,33.88S2114.41,1498,2081.18,1515.56Z"/><path class="cls-62" d="M2069.05,1542.71l7.69-33.9s21.46-13.35,20.69,4.66S2077.42,1543.81,2069.05,1542.71Z"/><polygon class="cls-63" points="1971.08 1817.06 1940.83 1823.46 1930.45 1789.34 1961.16 1797.78 1971.08 1817.06"/><polygon class="cls-64" points="2000.79 1841.47 1985.25 1820.04 2006.89 1810.35 2000.79 1841.47"/><ellipse class="cls-65" cx="1995.35" cy="1758.5" rx="64.23" ry="49.03" transform="translate(-169.73 3303.24) rotate(-76.9)"/><path class="cls-66" d="M1917.86,1793.16c1.5,17.68,11.78,31.25,23,30.3s19-16,17.54-33.73-11.78-31.25-23-30.31S1916.37,1775.47,1917.86,1793.16Z"/><ellipse class="cls-67" cx="2024.15" cy="1820.46" rx="32.13" ry="20.33" transform="translate(-656.27 1344.42) rotate(-31.9)"/><path class="cls-68" d="M2032.89,1711.18c64.69,50.06,59.47,84,9.81,55.12Z"/><path class="cls-69" d="M1986,1697.12c-81.19,10-93,40.35-35.61,40.94Z"/><circle class="cls-70" cx="1993.74" cy="1622.86" r="19.61"/><circle class="cls-71" cx="2061.22" cy="1639.3" r="19.61" transform="translate(175.84 3478.13) rotate(-82.78)"/><ellipse class="cls-72" cx="2020.15" cy="1670.69" rx="43.79" ry="47.09" transform="translate(-126.27 3175.72) rotate(-74.63)"/><ellipse class="cls-73" cx="2014.4" cy="1686.67" rx="14.91" ry="24.9" transform="translate(-145.9 3181.92) rotate(-74.63)"/><path class="cls-74" d="M2092.65,1611.38s60.7,78.8,51.08,131.73c-12.1,66.53-93.62,3.74-93.62,3.74l14.13-11.65s33.09,26.44,39.13-1.79a49.83,49.83,0,0,0-9.53-41.29,19.17,19.17,0,0,1-3.93-12.47Z"/><path class="cls-75" d="M2072.16,1751.21s-24.17-5.09-34.35-6.37-23.86-3.69-17.66-18.38,15.12-12.15,26.57-5.79C2052,1723.6,2079.8,1742.3,2072.16,1751.21Z"/><path class="cls-76" d="M2086.59,1686.67l13.64,21.29a1.45,1.45,0,0,0,2,.45c13.31-8.27,25.09-17.23,29.9-27.46a8.11,8.11,0,0,0-.19-7.11c-16.44-32.56-31.95-61.23-41.76-66Z"/><path class="cls-77" d="M1922.86,1653.7l18.1,39.53,12.28-8.07,3-76.3-33.13,42.66A2.1,2.1,0,0,0,1922.86,1653.7Z"/><path class="cls-78" d="M2775.4,466.5,2747,540.93s27.06,119.24,159.38,157.34,185.41-26.87,185.41-26.87l33.55-109.13Z"/><path class="cls-79" d="M2979.25,352.15,2713,421.35a17.72,17.72,0,0,0-7.32,30.39c51.66,45.89,169,152.75,213.07,214.35a17.68,17.68,0,0,0,20.85,6.15l270.11-105.88a17.7,17.7,0,0,0,5.48-29.57c-51.14-46.64-181.31-163.44-224-183.55A17.63,17.63,0,0,0,2979.25,352.15Z"/><path class="cls-80" d="M2970.93,488.88s139.54,91.75,149.92,112.3-13,112.66-13,112.66c20.76,78.72,22.44,163.81-15.95,207.58,0,0-44.35-103.84-22.85-146.85s29.81-60.65,29.81-60.65,19.95-98.28,14.5-112.48C3113.32,601.44,2958.84,494.3,2970.93,488.88Z"/><path class="cls-33" d="M2748.23,446.5l133,136.31,33.25,34.08,8.32,8.52,4.15,4.23a24.7,24.7,0,0,0,4.3,3.46,25.28,25.28,0,0,0,21.31,2.72l90.86-28.52a1.43,1.43,0,0,1,.86,2.72l-90.62,29.24a29,29,0,0,1-29.42-6.89l-4.21-4.24-8.39-8.45-33.52-33.81L2744.05,450.62a2.93,2.93,0,0,1,4.17-4.13Z"/><path class="cls-33" d="M3096.67,761.31l-.27.28-.32.36-.64.73-1.25,1.62c-.82,1.08-1.55,2.28-2.34,3.42l-2.08,3.66c-.65,1.24-1.22,2.54-1.84,3.81a38.4,38.4,0,0,0-1.64,3.91c-.5,1.33-1.05,2.64-1.51,4l-1.24,4.1a42,42,0,0,0-1.13,4.13l-.92,4.2a40,40,0,0,0-.82,4.23c-.4,2.84-.84,5.69-1.19,8.55l-.59,8.63c0,.73-.11,1.44-.13,2.17v2.17l0,4.34c-.17,5.79.51,11.57.87,17.37a42.15,42.15,0,0,0,.48,4.33l.59,4.32c.41,2.88.76,5.76,1.22,8.64,1.17,5.7,2.23,11.44,3.5,17.13l4.42,16.93v.06a1,1,0,0,1-2,.54L3083,878c-1.44-5.7-2.66-11.45-4-17.19-.54-2.89-1-5.8-1.47-8.71l-.72-4.36c-.25-1.46-.5-2.91-.61-4.38-.52-5.88-1.37-11.74-1.37-17.67l-.13-4.44-.07-2.22c0-.74,0-1.49.07-2.23l.36-8.9c.29-3,.66-5.91,1-8.87.12-1.49.47-2.95.73-4.42l.85-4.4a44,44,0,0,1,1.07-4.36l1.18-4.35c.45-1.43,1-2.84,1.48-4.27A43.29,43.29,0,0,1,3083,773c.63-1.38,1.2-2.78,1.87-4.15l2.16-4c.83-1.3,1.59-2.63,2.5-3.9a33.79,33.79,0,0,1,3-3.83,2.93,2.93,0,0,1,4.26,4l0,0Z"/><path class="cls-33" d="M3100.33,797.78l-.11,5.47-.07,6.22-.08,12.45-.06,24.92,0,49.85a1.6,1.6,0,0,1-3.19,0l-1.37-49.84-.61-24.93-.26-12.48-.09-6.25,0-3.15V798.5c0-.69.08-1.51.16-2.24a2.85,2.85,0,0,1,5.69.36Z"/><path class="cls-81" d="M2638,1237.13s44.22,119.16,111.48,104.54c0,0,6.94,40.55-4.38,45.33,0,0-100.9,2.93-110.92-135.64Z"/><path class="cls-82" d="M2639.93,1265.05c-.19,2.07,7.49,3.5,9.94-5.31-.68-3.82-1.87-20.56-4.8-23.16-15.61-13.86-43.45-29.44-43.45-29.44a5.71,5.71,0,0,0,1,7.89l13.9,9.37c-1.45,4.8-3.57,9-3.81,14.53a16.23,16.23,0,0,0,4.11,11.36c2.76,3.16,6.49,7.24,9.84,10.34A16.08,16.08,0,0,0,2639.93,1265.05Z"/><path class="cls-83" d="M2632.84,1258c-.07-.17-6.82-16.58-9.81-19.7-1.61-1.68-2.35-3.19-2.26-4.62a4.53,4.53,0,0,1,1.92-3.22l.34-.27,12.76,6.82,5.22,8.17-1.1.71-5-7.89-11.69-6.25a3,3,0,0,0-1.12,2c-.06,1,.58,2.25,1.9,3.64,3.16,3.3,9.8,19.42,10.08,20.1Z"/><path class="cls-84" d="M2748.88,1187.33s21.36-19.29-6.1-40.2c-25.8-19.65-44.66,6.72-36.11,23.68a2.06,2.06,0,0,1-1.39,3c-2.26.5-4.21,2.74-.65,10.67a2.06,2.06,0,0,1-.24,2.07c-3.17,4.25-13.71,21.24,18.1,23.84a2.09,2.09,0,0,0,1.58-.54Z"/><path class="cls-85" d="M2861.06,1215.64s2.05-24.61,15.22-32.64,38.75-14.84,49.47,11.92c5.11,12.76,3.41,18.84.25,21.7-2.89,2.61-3.22,6.66-1.31,10.07,2.17,3.88,2.46,8.67-4.08,13A8.26,8.26,0,0,0,2917,1245c-1.71,8.93-10.84,30.34-59.64,6.93Z"/><path class="cls-86" d="M2804.64,1171.38c9.6-4.11,29.94-8.31,45.77,19.37a12.18,12.18,0,0,0,4.65,4.61c9.43,5.19,36.72,24.09,11.87,58.19a11.71,11.71,0,0,0-2.16,5.27c-.83,5.78-3.58,18.58-11.85,21.74a11.9,11.9,0,0,0-5.92,4.94c-5.55,9.15-21.39,28.38-48,8.29a12,12,0,0,0-4.58-2.12l-36.8-8.1a12,12,0,0,0-5.91.21c-4.5,1.32-13.59,2.47-17-8.12a12,12,0,0,0-3.69-5.54c-6.17-5.24-19.27-19.46-9.36-39.41a12,12,0,0,0,1.14-7.2c-1.17-7.47-1.77-24,13.73-31.21a11.58,11.58,0,0,0,5.45-5.1c5.17-10,22-35.44,51.7-16.75A11.83,11.83,0,0,0,2804.64,1171.38Z"/><path class="cls-87" d="M2754.65,1756.22l5.36,6.19-3.68,13.44a9.48,9.48,0,0,1-7.45,6.83c-12,2.19-39.09,6.16-53,.15,0,0-4.34-29.08,43.74-20.42Z"/><path class="cls-88" d="M2838.5,1771.67l2.85,7-1.15,25.2a7.82,7.82,0,0,1-6.87,7.11,91.67,91.67,0,0,1-20.1,1.07c-5.64-.43-9.16-5.72-7-10.44l8.48-18.18a11.09,11.09,0,0,1,6.43-5.79Z"/><path class="cls-89" d="M2814.09,1280.34l5.48,54.23s-29.48,10-48.89-1.29l5.24-54.45Z"/><path class="cls-90" d="M2861.37,1577.22s-14,156-23.23,203.71c0,0-6.91,5-17.26-1.46l-12.55-208.17Z"/><path class="cls-91" d="M2799.2,1586.58l-38.33,174.68s-10.43,10.82-24,0l6.61-183.63Z"/><path class="cls-92" d="M2847.68,1338.65l9.6,1.07c18.56,19.91,52.62,156.72,64.91,185.81l50-8.17a2.49,2.49,0,0,1,2.8,3.4c-2.22,5.42-10.55,21.07-43,21.07-15.16,0,8.5,11.76-.57,15.8,0,0-19.92-7.17-20-19.79,0,0-57.11-130.08-68.85-143.78S2847.68,1338.65,2847.68,1338.65Z"/><path class="cls-93" d="M2857.28,1339.72s-50.81-18.82-114.22.66c0,0-7.11,48-3.46,70.86l109.28,4Z"/><path class="cls-94" d="M2741.1,1426.25s-34.93,112.12-40.11,186.82a7,7,0,0,0,6.47,7.43c7.26.52,20.08,2.31,37.5,8.11,28.23,9.4,51.61,6.3,72.72.24,16.57-4.76,58-8.92,75.06-10.49a7,7,0,0,0,6.22-8.15c-5-27.64-23.8-125.74-52.39-192.43Z"/><path class="cls-95" d="M2739.25,1408.66l1.85,17.59s33.6.13,107.85-2.37l.38-12.72S2767.08,1412.77,2739.25,1408.66Z"/><path class="cls-96" d="M2739.49,1227.77c-8.44,32.6-6,70.07,32.38,78.48,26.54,5.82,54.43-21.23,62.87-53.83s-6-57.43-32.31-64.24S2747.93,1195.16,2739.49,1227.77Z"/><path class="cls-97" d="M2742.37,1237.83s-1.25-19.72-11.08-13.64,3.8,29.71,9.87,31.1S2742.37,1237.83,2742.37,1237.83Z"/><path class="cls-98" d="M2826.49,1260.56s2.94-15,13.6-8.08-9.68,31.52-22.2,26Z"/><path class="cls-99" d="M2842.26,1248.61s-30.5,33-46.35-35.5c0,0-15.81,20.47-23,2.36,0,0-31.48,10.79-35-2.45s42.56-49.15,79.59-23.38S2842.26,1248.61,2842.26,1248.61Z"/><path class="cls-100" d="M794.83,633l-25.42,2.31L762,553.89q-1.2-13.27-1.45-30.66-.59,1-4.36,6.23t-14.88,18.85l-15.85-14.43,33.8-37.5,23-2.09Z"/><path class="cls-101" d="M828.27,865l-74.37,6.76-1.75-19.25,21.49-37.15q8.83-15.34,12-22.66A65.87,65.87,0,0,0,790,778.77a49.06,49.06,0,0,0,.6-13.39c-.49-5.32-2-9.19-4.65-11.63a11.84,11.84,0,0,0-9.61-3.14,17.75,17.75,0,0,0-9.15,3.51q-4.11,3-9.75,10.54L741.67,750.8q8.93-12.19,17.09-17.14a41.6,41.6,0,0,1,18.11-5.86q16.78-1.53,27.12,7.48t11.93,26.55a64.23,64.23,0,0,1-.33,15.24,71.43,71.43,0,0,1-3.87,14.74,121.69,121.69,0,0,1-7.33,15.68q-4.51,8.21-23.71,37.88l.07.76L826.18,842Z"/><path class="cls-102" d="M836.94,990.84q1.2,13.08-4.45,22.54t-17.09,13.94l.07.76q13.28.9,21.18,8.4t9.18,21.54q1.74,19.17-9.13,31.63T805.16,1104q-18.4,1.68-31.52-3.73l-2.1-23.14a58.23,58.23,0,0,0,14.1,4.74,49.21,49.21,0,0,0,14.24.9q11-1,16.14-6.58t4.13-16.59q-1.89-20.76-27.4-18.45l-7.88.72-1.75-19.26,7.5-.68q11.28-1,16.82-6.88T812,998.65c-.51-5.5-2.16-9.54-5-12.12s-6.57-3.66-11.25-3.24q-10.71,1-20,11l-13.22-16Q775.3,963,796.65,961q17.55-1.6,28.22,6.37T836.94,990.84Z"/><path class="cls-103" d="M873.71,1301.51l-14,1.28,2.65,29.12L838,1334.12,835.39,1305l-45.24,4.11-1.91-21,33.87-92.4,27.6-2.51,8,88.21,14-1.28Zm-40.26-17.85-2.66-29.22-.7-12.94-.45-12.39-.76.07a161.45,161.45,0,0,1-5.51,19.34l-13.44,37.28Z"/><path class="cls-104" d="M990.07,564.61A64.94,64.94,0,0,1,860.2,562.7c.52-35.87,30.86-28,65.86-35.88C964.17,518.27,990.6,528.74,990.07,564.61Z"/><path class="cls-105" d="M921.3,540.43s-11.77-26,10.55-46.19c15.16-13.71,27.11-22.9,33.21-27.4a3.9,3.9,0,0,1,6.09,2.17C975.07,484.48,980.75,528.82,921.3,540.43Z"/><path class="cls-106" d="M919.09,541.1c-2.32-7.22-6.36-18.6-11.12-26.68a3.28,3.28,0,0,1,.72-4.16l.9-.77a3.3,3.3,0,0,1,5.08,1c3,5.8,8.06,17.79,7.54,30.2A1.6,1.6,0,0,1,919.09,541.1Z"/><path class="cls-107" d="M925.51,535.69l-1.44-.3c5.7-26.48,33.36-46.85,33.64-47.05l.86,1.18C958.3,489.72,931.09,509.78,925.51,535.69Z"/><path class="cls-33" d="M896.39,613.78a56.67,56.67,0,0,1-28.14-47.5c-.12-7.16,1.26-13.21,4.08-18,3.47-5.86,9.32-9.67,15.28-10l.07,1.46c-5.47.27-10.87,3.81-14.08,9.24-2.69,4.54-4,10.33-3.89,17.21a55.19,55.19,0,0,0,27.41,46.25Z"/><path class="cls-33" d="M924.29,551.09a29.18,29.18,0,0,1-8.21-1.15c-1.82-.53-3.62-1.25-5.37-1.93-3.75-1.48-7.3-2.9-11.08-2.71l-.07-1.46c4.1-.19,8,1.33,11.69,2.8,1.71.68,3.48,1.38,5.24,1.89a29.87,29.87,0,0,0,28.62-7.24l1,1A31.41,31.41,0,0,1,924.29,551.09Z"/><path class="cls-108" d="M1009.78,785.26a64.95,64.95,0,1,1-129.88-1.9c.53-35.87,30.86-28,65.86-35.88C983.87,738.92,1010.3,749.4,1009.78,785.26Z"/><path class="cls-109" d="M941,761.08s-11.77-26,10.56-46.18c15.16-13.71,27.1-22.91,33.2-27.4a3.9,3.9,0,0,1,6.09,2.17C994.78,705.14,1000.45,749.48,941,761.08Z"/><path class="cls-110" d="M938.8,761.76c-2.32-7.23-6.37-18.61-11.12-26.68a3.29,3.29,0,0,1,.72-4.17l.9-.76a3.29,3.29,0,0,1,5.07,1c3,5.8,8.07,17.78,7.54,30.2A1.59,1.59,0,0,1,938.8,761.76Z"/><path class="cls-107" d="M945.21,756.35l-1.44-.31c5.7-26.47,33.36-46.84,33.64-47l.86,1.19C978,710.38,950.79,730.43,945.21,756.35Z"/><path class="cls-33" d="M916.1,834.43A56.65,56.65,0,0,1,888,786.93c-.11-7.16,1.26-13.21,4.09-18,3.46-5.85,9.32-9.67,15.27-10l.07,1.46c-5.47.26-10.86,3.8-14.08,9.24-2.69,4.53-4,10.32-3.88,17.21a55.17,55.17,0,0,0,27.4,46.25Z"/><path class="cls-33" d="M944,771.75a29.19,29.19,0,0,1-8.21-1.16c-1.82-.53-3.62-1.24-5.36-1.93-3.75-1.48-7.29-2.88-11.09-2.7l-.07-1.47c4.1-.18,8,1.34,11.69,2.81,1.72.67,3.49,1.37,5.24,1.89A29.86,29.86,0,0,0,964.81,762l1,1A31.45,31.45,0,0,1,944,771.75Z"/><path class="cls-111" d="M1188.63,776.4a64.94,64.94,0,1,1-129.87-1.91c.52-35.86,30.86-28,65.86-35.87C1162.73,730.06,1189.16,740.54,1188.63,776.4Z"/><path class="cls-112" d="M1119.86,752.22s-11.77-26,10.55-46.18c15.16-13.71,27.11-22.91,33.21-27.4a3.9,3.9,0,0,1,6.09,2.17C1173.63,696.27,1179.31,740.61,1119.86,752.22Z"/><path class="cls-113" d="M1117.65,752.9c-2.32-7.23-6.36-18.61-11.12-26.68a3.3,3.3,0,0,1,.72-4.17l.9-.76a3.3,3.3,0,0,1,5.08,1c3,5.8,8.06,17.78,7.54,30.19A1.6,1.6,0,0,1,1117.65,752.9Z"/><path class="cls-107" d="M1124.07,747.49l-1.44-.31c5.7-26.47,33.36-46.85,33.64-47l.86,1.19C1156.86,701.52,1129.65,721.57,1124.07,747.49Z"/><path class="cls-33" d="M1095,825.57a56.66,56.66,0,0,1-28.14-47.5c-.12-7.16,1.26-13.21,4.08-18,3.47-5.85,9.32-9.67,15.28-10l.07,1.47c-5.47.26-10.87,3.8-14.08,9.24-2.69,4.53-4,10.32-3.89,17.21a55.2,55.2,0,0,0,27.41,46.25Z"/><path class="cls-33" d="M1122.85,762.89a29.14,29.14,0,0,1-8.21-1.16c-1.82-.53-3.62-1.24-5.37-1.93-3.75-1.48-7.28-2.88-11.08-2.7l-.07-1.47c4.11-.19,8,1.34,11.69,2.81,1.71.67,3.48,1.37,5.24,1.89a29.87,29.87,0,0,0,28.62-7.24l1,1A31.45,31.45,0,0,1,1122.85,762.89Z"/><path class="cls-114" d="M1038.68,1012.64a64.95,64.95,0,0,1-129.88-1.9c.53-35.87,30.87-28,65.86-35.88C1012.77,966.3,1039.21,976.78,1038.68,1012.64Z"/><path class="cls-115" d="M969.91,988.46s-11.78-26,10.55-46.18c15.16-13.71,27.1-22.91,33.21-27.4a3.9,3.9,0,0,1,6.09,2.17C1023.68,932.52,1029.35,976.86,969.91,988.46Z"/><path class="cls-116" d="M967.7,989.14c-2.32-7.23-6.37-18.61-11.12-26.68a3.29,3.29,0,0,1,.72-4.17l.9-.76a3.3,3.3,0,0,1,5.08,1c2.94,5.8,8.06,17.78,7.54,30.2A1.6,1.6,0,0,1,967.7,989.14Z"/><path class="cls-107" d="M974.11,983.73l-1.43-.31c5.7-26.47,33.36-46.85,33.64-47l.86,1.19C1006.9,937.76,979.69,957.81,974.11,983.73Z"/><path class="cls-33" d="M945,1061.81a56.66,56.66,0,0,1-28.14-47.5c-.12-7.16,1.25-13.21,4.08-18,3.47-5.85,9.32-9.67,15.27-10l.07,1.46c-5.46.26-10.86,3.8-14.08,9.24-2.68,4.54-4,10.33-3.88,17.21a55.19,55.19,0,0,0,27.4,46.25Z"/><path class="cls-33" d="M972.9,999.13a29.26,29.26,0,0,1-8.22-1.16c-1.81-.53-3.62-1.24-5.36-1.93-3.75-1.48-7.3-2.9-11.08-2.7l-.07-1.46c4.1-.2,8,1.33,11.69,2.8,1.71.67,3.48,1.37,5.24,1.89a29.85,29.85,0,0,0,28.61-7.24l1,1A31.42,31.42,0,0,1,972.9,999.13Z"/><path class="cls-117" d="M1194.4,1003.44a64.95,64.95,0,1,1-129.88-1.91c.53-35.86,30.86-28,65.86-35.87C1168.49,957.1,1194.92,967.58,1194.4,1003.44Z"/><path class="cls-118" d="M1125.62,979.26s-11.77-26,10.56-46.18c15.16-13.71,27.1-22.91,33.2-27.4a3.9,3.9,0,0,1,6.09,2.17C1179.4,923.31,1185.07,967.65,1125.62,979.26Z"/><path class="cls-119" d="M1123.42,979.94c-2.32-7.23-6.37-18.61-11.12-26.68a3.29,3.29,0,0,1,.72-4.17l.9-.76a3.29,3.29,0,0,1,5.07,1c3,5.8,8.07,17.78,7.54,30.19A1.59,1.59,0,0,1,1123.42,979.94Z"/><path class="cls-107" d="M1129.83,974.53l-1.43-.31c5.69-26.47,33.35-46.85,33.63-47.05l.86,1.19C1162.62,928.56,1135.41,948.61,1129.83,974.53Z"/><path class="cls-33" d="M1100.72,1052.61a56.65,56.65,0,0,1-28.15-47.5c-.11-7.16,1.26-13.21,4.09-18,3.47-5.86,9.32-9.67,15.27-10l.07,1.46c-5.47.26-10.86,3.8-14.08,9.24-2.69,4.53-4,10.32-3.88,17.21a55.17,55.17,0,0,0,27.4,46.25Z"/><path class="cls-33" d="M1128.62,989.93a29.21,29.21,0,0,1-8.22-1.16c-1.82-.53-3.62-1.24-5.36-1.93-3.75-1.48-7.3-2.89-11.09-2.7l-.06-1.47c4.1-.18,8,1.34,11.69,2.81,1.71.67,3.48,1.37,5.23,1.89a29.86,29.86,0,0,0,28.62-7.24l1,1A31.45,31.45,0,0,1,1128.62,989.93Z"/><path class="cls-120" d="M1354.16,990.65a64.94,64.94,0,0,1-129.87-1.91c.52-35.87,30.86-28,65.86-35.88C1328.26,944.3,1354.69,954.78,1354.16,990.65Z"/><path class="cls-121" d="M1285.39,966.47s-11.77-26,10.55-46.19c15.17-13.71,27.11-22.91,33.21-27.4a3.9,3.9,0,0,1,6.09,2.17C1339.16,910.52,1344.84,954.86,1285.39,966.47Z"/><path class="cls-122" d="M1283.18,967.14c-2.31-7.22-6.36-18.6-11.12-26.68a3.28,3.28,0,0,1,.72-4.16l.9-.77a3.3,3.3,0,0,1,5.08,1c3,5.8,8.06,17.79,7.54,30.2A1.6,1.6,0,0,1,1283.18,967.14Z"/><path class="cls-107" d="M1289.6,961.73l-1.44-.31c5.7-26.47,33.36-46.84,33.64-47l.86,1.18C1322.39,915.76,1295.18,935.81,1289.6,961.73Z"/><path class="cls-33" d="M1260.48,1039.82a56.67,56.67,0,0,1-28.14-47.5c-.12-7.16,1.26-13.21,4.08-18,3.47-5.85,9.32-9.67,15.28-10l.07,1.46c-5.47.27-10.86,3.81-14.08,9.24-2.69,4.54-4,10.33-3.89,17.21a55.19,55.19,0,0,0,27.41,46.25Z"/><path class="cls-33" d="M1288.38,977.13a29.18,29.18,0,0,1-8.21-1.15c-1.82-.54-3.62-1.25-5.37-1.93-3.75-1.48-7.28-2.89-11.08-2.71l-.07-1.46c4.1-.2,8,1.33,11.69,2.8,1.71.68,3.48,1.38,5.24,1.89a29.87,29.87,0,0,0,28.62-7.24l1,1A31.41,31.41,0,0,1,1288.38,977.13Z"/><path class="cls-123" d="M1036,1257.2a64.95,64.95,0,1,1-129.88-1.91c.53-35.86,30.86-28,65.86-35.87C1010.05,1210.86,1036.48,1221.34,1036,1257.2Z"/><path class="cls-124" d="M967.18,1233s-11.77-26,10.56-46.18c15.16-13.71,27.1-22.91,33.2-27.4a3.9,3.9,0,0,1,6.09,2.16C1021,1177.07,1026.63,1221.41,967.18,1233Z"/><path class="cls-125" d="M965,1233.7c-2.32-7.23-6.37-18.61-11.12-26.68a3.28,3.28,0,0,1,.72-4.17l.9-.76a3.29,3.29,0,0,1,5.07,1c3,5.8,8.07,17.78,7.54,30.19A1.59,1.59,0,0,1,965,1233.7Z"/><path class="cls-107" d="M971.39,1228.29,970,1228c5.7-26.47,33.36-46.85,33.64-47l.86,1.19C1004.18,1182.32,977,1202.37,971.39,1228.29Z"/><path class="cls-33" d="M942.27,1306.37a56.66,56.66,0,0,1-28.14-47.5c-.12-7.16,1.26-13.21,4.09-18,3.47-5.86,9.32-9.67,15.27-10l.07,1.47c-5.47.26-10.86,3.8-14.08,9.24-2.69,4.53-4,10.32-3.88,17.21A55.18,55.18,0,0,0,943,1305.1Z"/><path class="cls-33" d="M970.17,1243.69a29.19,29.19,0,0,1-8.21-1.16c-1.82-.53-3.62-1.24-5.36-1.93-3.75-1.48-7.3-2.88-11.09-2.7l-.06-1.47c4.1-.2,8,1.34,11.69,2.81,1.71.67,3.48,1.37,5.23,1.89a29.86,29.86,0,0,0,28.62-7.25l1,1A31.45,31.45,0,0,1,970.17,1243.69Z"/><path class="cls-126" d="M1183.15,1254.52a64.95,64.95,0,1,1-129.88-1.9c.53-35.87,30.86-28,65.86-35.88C1157.24,1208.18,1183.67,1218.66,1183.15,1254.52Z"/><path class="cls-127" d="M1114.37,1230.34s-11.77-26,10.56-46.18c15.16-13.71,27.1-22.91,33.2-27.4a3.9,3.9,0,0,1,6.09,2.17C1168.15,1174.4,1173.82,1218.74,1114.37,1230.34Z"/><path class="cls-128" d="M1112.17,1231c-2.32-7.22-6.37-18.61-11.12-26.68a3.29,3.29,0,0,1,.72-4.17l.9-.76a3.29,3.29,0,0,1,5.07,1c3,5.8,8.07,17.79,7.54,30.2A1.59,1.59,0,0,1,1112.17,1231Z"/><path class="cls-107" d="M1118.58,1225.61l-1.43-.31c5.69-26.47,33.35-46.84,33.63-47l.86,1.19C1151.37,1179.64,1124.16,1199.69,1118.58,1225.61Z"/><path class="cls-33" d="M1089.46,1303.7a56.68,56.68,0,0,1-28.14-47.51c-.12-7.15,1.26-13.2,4.09-18,3.46-5.85,9.32-9.67,15.27-10l.07,1.46c-5.47.27-10.86,3.81-14.08,9.24-2.69,4.54-4,10.33-3.88,17.21a55.17,55.17,0,0,0,27.4,46.25Z"/><path class="cls-33" d="M1117.37,1241a29.56,29.56,0,0,1-8.22-1.15c-1.82-.54-3.62-1.25-5.36-1.94-3.75-1.48-7.28-2.87-11.09-2.7l-.06-1.46c4.09-.19,8,1.33,11.68,2.8,1.72.68,3.49,1.37,5.24,1.89a29.86,29.86,0,0,0,28.62-7.24l1,1A31.4,31.4,0,0,1,1117.37,1241Z"/><path class="cls-129" d="M1326.94,1248a64.95,64.95,0,1,1-129.88-1.91c.53-35.86,30.86-28,65.86-35.87C1301,1201.68,1327.46,1212.16,1326.94,1248Z"/><path class="cls-130" d="M1258.16,1223.84s-11.77-26,10.56-46.19c15.16-13.7,27.1-22.9,33.2-27.39a3.89,3.89,0,0,1,6.09,2.16C1311.94,1167.89,1317.61,1212.23,1258.16,1223.84Z"/><path class="cls-131" d="M1256,1224.52c-2.32-7.23-6.37-18.61-11.12-26.68a3.28,3.28,0,0,1,.72-4.17l.9-.76a3.29,3.29,0,0,1,5.07,1c3,5.8,8.07,17.78,7.54,30.19A1.59,1.59,0,0,1,1256,1224.52Z"/><path class="cls-107" d="M1262.37,1219.11l-1.44-.31c5.7-26.47,33.36-46.85,33.64-47l.86,1.19C1295.16,1173.14,1268,1193.19,1262.37,1219.11Z"/><path class="cls-33" d="M1233.25,1297.19a56.66,56.66,0,0,1-28.14-47.5c-.12-7.16,1.26-13.21,4.09-18,3.47-5.86,9.32-9.67,15.27-10l.07,1.47c-5.47.26-10.86,3.8-14.08,9.24-2.69,4.53-4,10.32-3.88,17.21a55.17,55.17,0,0,0,27.4,46.25Z"/><path class="cls-33" d="M1261.16,1234.51a29.21,29.21,0,0,1-8.22-1.16c-1.82-.53-3.62-1.24-5.36-1.93-3.75-1.48-7.29-2.87-11.09-2.7l-.06-1.47c4.1-.18,8,1.33,11.68,2.81,1.72.67,3.49,1.37,5.24,1.88a29.84,29.84,0,0,0,28.62-7.24l1,1A31.45,31.45,0,0,1,1261.16,1234.51Z"/><path class="cls-132" d="M1468.76,1240.49a64.95,64.95,0,0,1-129.88-1.91c.52-35.86,30.86-28,65.86-35.88C1442.85,1194.15,1469.28,1204.62,1468.76,1240.49Z"/><path class="cls-133" d="M1400,1216.31s-11.77-26,10.55-46.19c15.17-13.7,27.11-22.9,33.21-27.4a3.9,3.9,0,0,1,6.09,2.17C1453.75,1160.36,1459.43,1204.7,1400,1216.31Z"/><path class="cls-134" d="M1397.78,1217c-2.32-7.22-6.37-18.6-11.13-26.67a3.3,3.3,0,0,1,.72-4.17l.9-.77a3.3,3.3,0,0,1,5.08,1c3,5.8,8.06,17.79,7.54,30.2A1.59,1.59,0,0,1,1397.78,1217Z"/><path class="cls-107" d="M1404.19,1211.58l-1.44-.31c5.7-26.48,33.36-46.85,33.64-47l.86,1.18C1437,1165.6,1409.77,1185.66,1404.19,1211.58Z"/><path class="cls-33" d="M1375.07,1289.66a56.67,56.67,0,0,1-28.14-47.5c-.12-7.16,1.26-13.21,4.08-18,3.47-5.86,9.32-9.67,15.28-10l.07,1.46c-5.47.27-10.86,3.81-14.08,9.24-2.69,4.54-4,10.33-3.89,17.21a55.22,55.22,0,0,0,27.41,46.26Z"/><path class="cls-33" d="M1403,1227a29.18,29.18,0,0,1-8.21-1.15c-1.82-.53-3.62-1.24-5.36-1.93-3.75-1.48-7.31-2.89-11.09-2.71l-.07-1.46c4.11-.18,8,1.33,11.7,2.8,1.71.68,3.48,1.38,5.23,1.89a29.86,29.86,0,0,0,28.62-7.24l1,1A31.41,31.41,0,0,1,1403,1227Z"/><path class="cls-135" d="M615.4,956c-4.4,2.41-8.68,5.24-13.5,6.5-16,4.17-25,2-37.59,15.22a52.94,52.94,0,0,0-14.63,33.94c-.75,19.4,8.85,40.86-1.85,57.07-8.57,13-27.5,17.09-34,31.23s2.74,30.25,10.46,43.9,13.36,32.7,1.94,43.43c-4.63,4.34-11.05,6.09-16.62,9.13-12.27,6.7-20.39,20.83-18.93,34.72s13,26.38,26.95,27.87c20.21,2.15,24.19,6.15,34.93,22.9,7,10.85,21.45,15.84,33.92,12.56s22.35-14.09,25.56-26.57c3.62-14-.43-29.59,5.18-42.95,4.29-10.25,13.29-18.14,19.91-26.86,3.51-4.62,15-16.94,15.38-22.53l6.72-101.83c1.1-16.77,5-35.78,3.46-52.55-.59-6.55-.83-6.17-3.89-13.17-3.32-7.61-5.32-9.44-6.23-17.76-1-8.79,1-16.26-3.52-24.71s-14.2-14.85-23.78-13.32A30.75,30.75,0,0,0,615.4,956Z"/><path class="cls-136" d="M868.67,875.54s-66.3,180.74-179.27,237.22c0,0,37.6,61.35,57.22,65.07,0,0,120.68-154.45,133-281Z"/><path class="cls-137" d="M414.35,1962.72,411,1990.13c-.63,5.2-13,18.4-18.17,19-8.79,1-12.6,3-26.39,1.54-6.06-.64-12-16.83-10.19-22.63,3.36-10.58,9.51-26.46,18.38-35.81h30.41A9.37,9.37,0,0,1,414.35,1962.72Z"/><path class="cls-138" d="M652.49,1641.63l5.14,30.19s-17.19,174.08-20.25,243.71a54.54,54.54,0,0,0,8.08,31l29.88,48.53-76-44.82-1.51-9.26,12.43-17.1-16.28-195a59.79,59.79,0,0,1,6.81-33.09l15.71-29.52Z"/><path class="cls-139" d="M680.34,2002.1H656.11a14.59,14.59,0,0,1-11.59-5.68c-7.55-9.81-23.21-29-30.69-29.47-10.08-.67-8.79,35.15-8.79,35.15h-5.65l-7.15-44.51A26.36,26.36,0,0,1,606.07,1930h0s2.3,17,14.79,24.57,50.82,34.52,50.82,34.52a34.72,34.72,0,0,1,9.86.26C689.18,1990.78,688.11,2002.1,680.34,2002.1Z"/><path class="cls-140" d="M548.47,1656s-100.68,191-116.68,234.59-21.62,80-21.83,83.42c-.34,5.38-7,10.55-25.48,10.55-9.53,0-14.19-3.82-16.48-7.52a10.78,10.78,0,0,1-.4-10.42c5.82-11.78,24.3-49.45,31.15-66.53,8.17-20.4,25.75-112.84,35.39-145s20.54-67,62.52-99.12C496.66,1656,525.48,1627.74,548.47,1656Z"/><path class="cls-141" d="M612.07,1343c26-110-39.82-172.29-39.82-172.29,41.51-39.85,117.15-58,117.15-58s72.18,52.77,63.61,94.07c-5,24.21-50.73,145-50.73,145S660,1371.83,612.07,1343Z"/><path class="cls-142" d="M554.49,1397.52c10.57-31.84,57.58-54.48,57.58-54.48,47.94,28.79,90.21,8.79,90.21,8.79s9.48,36.23,2.94,69.9-47.59,250.09-47.59,250.09c-64.68,13.11-164.16-13.18-164.16-13.18C534.67,1585.49,543.92,1429.36,554.49,1397.52Z"/><path class="cls-143" d="M642.22,1040l-21.12,94.84c-2,8.36,5.6,7,14,5.4,13.84-2.61,31.66-8,37.62-18.74a10.18,10.18,0,0,0,1.08-3.58l9.07-65.76a11.82,11.82,0,0,0-6.91-12.42L658.49,1032A11.81,11.81,0,0,0,642.22,1040Z"/><path class="cls-144" d="M572.25,1170.75S424.88,1276.18,553.4,1387c0,0,4.9,5.54,14.54,8.42,4.87,1.46,19.27,12.35,26.57,18a5,5,0,0,0,7.31-1.32h0a6.82,6.82,0,0,0,.39-6.55L584,1367a14.08,14.08,0,0,0-18.27-.79h0a6.94,6.94,0,0,1-10.53-2.38c-9.94-20.24-28.7-79.75,48.09-147a8.3,8.3,0,0,0,1.84-10.11C599.7,1196.33,587.36,1175.75,572.25,1170.75Z"/><path class="cls-145" d="M667,965s25,10.56,42,46.7,4.31,52.82-11.64,55.11-39.8,1.94-65-21.4S634.48,952.49,667,965Z"/><path class="cls-146" d="M649.29,1026.12s-18.87-52.87,28-53.5l11,7.71s17.2-29.31-11-43.3S616,934.59,604,972.62s-14.06,63.49,5.93,81.68,28.22-2.43,28.22-2.43-10.89-17-6.45-26.12,14.64,1.88,14.64,1.88Z"/><path class="cls-147" d="M644,1032s-9.54-27.23-22.27-16.38,10.35,25.15,19.38,29.79Z"/><path class="cls-148" d="M875,908.44c1,3.21-10.7,8.11-17.6-5-.24-6.3-4.07-33.31-.31-38.44,20.06-27.35,59-61.63,59-61.63,6.57,6.48,1.15,12.85,1.15,12.85l-18.86,19.66c3.94,7.13,8.76,13.15,11,21.78a26.4,26.4,0,0,1-2.63,19.45c-3.32,6-7.83,13.73-12.11,19.79C886.56,908.35,875,908.44,875,908.44Z"/><path class="cls-149" d="M1729.78,534c-37.3,51.4-26.57,106.9,48.23,144.23,5.26-4.78,6.74-9.27,1.45-19.39C1719.86,616,1729,577,1765.62,552.27Z"/><path class="cls-150" d="M1807.67,557.42c-29.86,53.28-23.33,94.85,62.52,122.39,4.7-12.16,2.75-18.9-4.54-21.29-65-32.65-48.41-58.3-16.15-86Z"/><path class="cls-151" d="M1870.18,661.05c2.45,10.28,1.31,15.61-6.49,17.74-4.7,16.84-2.1,26.17,6,29.87,10-14.24,17.61-29.52,20.07-47C1882.27,658.89,1872,656.5,1870.18,661.05Z"/><path class="cls-152" d="M1779.46,658.87c2.44,10.22,1.31,15.51-6.44,17.63-4.68,16.74-2.1,26,5.9,29.7,10-14.16,17.51-29.35,20-46.74C1791.48,656.73,1781.23,654.34,1779.46,658.87Z"/><path class="cls-153" d="M1887.74,461.69c5.09,34.75-10.43,78.82-37.8,115-19.4,2.15-40.47.3-56.75-9.94l20.6-46.69-9.71-2.9-40.35,41.37c-18.19,2.67-30.34-6.55-44.55-15.86,15.82-34.88,51.8-51.17,61.09-99.89Z"/><path class="cls-154" d="M1690.29,278.82s21.27-22.31,1.85-42.09-32.66-7.31-48.24-25.66C1643.9,211.07,1639.7,263.2,1690.29,278.82Z"/><path class="cls-155" d="M1680.24,225.44c1.06.31,7.5.63,8,4.39s-2.91,5.06-10.86,3-10.78,2.89-5.69,8.88-.14,9.38-6.63,4.34-7.35-2.42-5.85,2.89-6.19,7.3-11,.12c-4.36-6.59-11.21-22.48-9.38-40a2.32,2.32,0,0,1,3.83-1.49C1647.48,211.66,1658.35,219.07,1680.24,225.44Z"/><path class="cls-33" d="M1690.66,270.29a23.28,23.28,0,0,0,3.45-8.18,21.63,21.63,0,0,0,.14-8.59,20.65,20.65,0,0,0-.51-2.06l-.28-1-.4-1c-.28-.65-.5-1.31-.82-1.93l-1-1.83A11.14,11.14,0,0,0,1690,244l-1.24-1.69c-.92-1.07-1.91-2.09-2.84-3.12l-.21-.24a2.86,2.86,0,0,1,4.25-3.83,4,4,0,0,1,.27.34c.89,1.36,1.81,2.67,2.65,4.05l1.12,2.16a14.18,14.18,0,0,1,1,2.21l.85,2.27c.25.77.39,1.58.59,2.36l.27,1.18.14,1.2a21.57,21.57,0,0,1,.2,2.4,24.4,24.4,0,0,1-6.42,17.05Z"/><path class="cls-156" d="M1712.61,311.32c32.31,58.17,46.77,107.81,51.65,127.27a2.67,2.67,0,0,1-4.46,2.56c-41.79-41.47-59.64-85.69-67.24-117.33C1699.48,315.17,1707.21,312.24,1712.61,311.32Z"/><path class="cls-157" d="M1691.86,276.88c7.62,11.69,14.51,23.23,20.75,34.44-5.4.92-13.13,3.85-20,12.5-6.34-26.35-5.55-44-5.55-44C1688.3,275.74,1691.86,276.88,1691.86,276.88Z"/><path class="cls-158" d="M1802.39,314c-8.93-4.14-59.94,50.2-52.8,55.16-6.21,3.71,24.82,21.48,31.46,16.42C1782.78,384.31,1802.39,314,1802.39,314Z"/><path class="cls-159" d="M1894.55,317.57a34.38,34.38,0,0,0-6.71-6.76c-12.83-9.57-31.93-4.45-46.87-5.18-5.74-.28-12.77-2.24-18.35-.5-10.36,3.22-22.24,6.59-30.4,14.06-11.5,10.54-13.6,26.59-15.88,41.12-2.83,18.1-2.36,35.2-2.36,53.53v51.58c28.39,29.81,72.71,37.67,133.59,9.57-.53-26.72-1.55-53.5-.67-80.22.75-22.69,5.19-40.81-4.27-62.68A69.11,69.11,0,0,0,1894.55,317.57Z"/><path class="cls-160" d="M1824,475.46c9.76,8,85.82-81.1,82.77-87.39l-31.21-27.94c-14.83,42.13-32.55,77.27-57.18,95.71Z"/><path class="cls-161" d="M1835.83,507.28l-35.25-123.1a3.59,3.59,0,0,0-3-2.59c-6.38-.74-24.89-2.84-46.25-4.64-25.74-2.18-55.63-3.94-73.49-2.44a3.6,3.6,0,0,0-3,5.18c10.16,20.55,51.94,104.13,72.86,131.51a3.6,3.6,0,0,0,2.91,1.43l81.78-.76A3.6,3.6,0,0,0,1835.83,507.28Z"/><path class="cls-162" d="M1747.63,366.27,1722.07,362a1.83,1.83,0,0,0-2,2.38l2.53,7.67a1.83,1.83,0,0,0,1.5,1.24l24.59,3.29a1.84,1.84,0,0,0,2-2.24l-1.57-6.69A1.85,1.85,0,0,0,1747.63,366.27Z"/><path class="cls-163" d="M1766.76,387.91l-2.1-11a2.53,2.53,0,0,0-2.23-2l-51.62-5.24a2.54,2.54,0,0,0-2.72,3.12l3.28,13.66a2.54,2.54,0,0,0,2.34,1.94l50.44,2.54A2.53,2.53,0,0,0,1766.76,387.91Z"/><path class="cls-164" d="M1827.31,477.54s4.91-20.2,2.93-27.36-5.81-16.37-18.61-14.33-27.88,7.44-27.88,7.44.76,9.33,10.49,6.32l-6,4.66s.86,7.48,9.07,3.48l-5.61,6.19s3.53,6.14,9.57,2.2S1810.18,480,1827.31,477.54Z"/><path class="cls-165" d="M1865,377.9c9.35,9,24.73,13.93,46.55,14.48,5.53-44-4.79-71.3-28.66-84.43C1872.47,336.09,1865.59,360.39,1865,377.9Z"/><path class="cls-166" d="M1865,378.61h0a.72.72,0,0,1-.68-.75,178.55,178.55,0,0,1,14.48-60.63.71.71,0,0,1,1.31.56,177.45,177.45,0,0,0-14.37,60.14A.71.71,0,0,1,1865,378.61Z"/><path class="cls-167" d="M1869.47,257.8v53.4c-11.61,8.06-30.15,8.58-45.48.52l6.64-53.92Z"/><path class="cls-168" d="M1772.17,232.25a137.35,137.35,0,0,0-.28,19.61c1.49,24.59,23.39,44.22,48.52,44.22,30.48,0,55.18-29.1,55.18-65s-24.7-65-55.18-65C1787.1,166.06,1774.69,202.19,1772.17,232.25Z"/><path class="cls-169" d="M1872,252.09c-6.27,8.29,1.08,16.56,9.24,18.92,10.41,3,25.67-5.79,32.19-13.36,12.09-14,11.66-34.43,10.59-52.81-.26-4.48-.64-9.27-3.44-12.81-2.52-3.16-6.65-4.84-9-8.16-1.67-2.4-2.18-5.37-2.89-8.19-2.77-11-9.5-21.3-19.47-26.93s-23.24-5.93-32.64.6c-10.24-9.43-23.91-15.8-37.9-15.22s-27.94,9-32.8,22c-1,2.51-1.71,5.37-4,6.84a18,18,0,0,1-3.32,1.39c-5.79,2.26-9.36,8.5-9.55,14.65-.2,6.73,7.4,12.34,3.59,17.91-5.26,7.67-5.89,20.63.85,27.67a120.43,120.43,0,0,0,5.24-11.85c1.77-4.27,2.24-11.05,4.75-14.67-.26.37,11.88,3.64,13.55,3.31,3.37-.66,4.38-2.19,6.45-4.63,5-5.92,12.3-12.87,16.66-2.73a9.42,9.42,0,0,0,11,5c-3.5,5.25-2.43,12.49.93,17.82s8.61,9.2,13.74,12.93l12.11,8.79c5.1,3.72,11.44,7.62,17.36,5.36C1877.18,246.5,1873.9,249.54,1872,252.09Z"/><path class="cls-170" d="M1889.22,252.29c-3.58,5.84-10.31,9.88-16,13.55-1.57,1-3.27,2.05-5.15,2-8.06-.11,2.41-20.13,5-22.33a30.48,30.48,0,0,1,7-5,10.39,10.39,0,0,1,8.43-.43C1894.39,242.75,1891.68,248.26,1889.22,252.29Z"/></svg>