<svg id="Layer_1" data-name="Layer 1" xmlns="http://www.w3.org/2000/svg" xmlns:xlink="http://www.w3.org/1999/xlink" viewBox="0 0 3710 3710"><defs><style>.cls-1{fill:#f4f7fa;}.cls-2{fill:#eaedf3;}.cls-3{fill:#d8dee8;}.cls-4{fill:#bfc8d6;}.cls-5,.cls-64{fill:#97a6b7;}.cls-6{fill:url(#linear-gradient);}.cls-7{fill:url(#linear-gradient-2);}.cls-8{fill:url(#linear-gradient-3);}.cls-9{fill:url(#linear-gradient-4);}.cls-10{opacity:0.25;fill:url(#linear-gradient-5);}.cls-10,.cls-16,.cls-21,.cls-30,.cls-46,.cls-57,.cls-64,.cls-68,.cls-71,.cls-74{isolation:isolate;}.cls-11{fill:url(#linear-gradient-6);}.cls-12{fill:url(#linear-gradient-7);}.cls-13{fill:url(#linear-gradient-8);}.cls-14{fill:url(#linear-gradient-9);}.cls-15{fill:url(#linear-gradient-10);}.cls-16{opacity:0.4;fill:url(#linear-gradient-11);}.cls-17{fill:url(#linear-gradient-12);}.cls-18{fill:url(#linear-gradient-13);}.cls-19{fill:url(#linear-gradient-14);}.cls-20{fill:url(#linear-gradient-15);}.cls-21,.cls-46,.cls-57{opacity:0.3;}.cls-21{fill:url(#linear-gradient-16);}.cls-22{fill:url(#linear-gradient-17);}.cls-23{fill:url(#linear-gradient-18);}.cls-24{fill:url(#linear-gradient-19);}.cls-25{fill:url(#linear-gradient-20);}.cls-26{fill:url(#linear-gradient-21);}.cls-27{fill:url(#linear-gradient-22);}.cls-28{fill:url(#linear-gradient-23);}.cls-29{fill:url(#linear-gradient-24);}.cls-30{opacity:0.45;fill:url(#linear-gradient-25);}.cls-31{fill:url(#linear-gradient-26);}.cls-32{fill:url(#linear-gradient-27);}.cls-33{fill:url(#linear-gradient-28);}.cls-34{fill:url(#linear-gradient-29);}.cls-35{fill:url(#linear-gradient-30);}.cls-36{fill:url(#linear-gradient-31);}.cls-37{fill:url(#linear-gradient-32);}.cls-38{fill:url(#linear-gradient-33);}.cls-39{fill:url(#linear-gradient-34);}.cls-40{fill:url(#linear-gradient-35);}.cls-41{fill:url(#linear-gradient-36);}.cls-42{fill:#7c346f;}.cls-43{fill:url(#linear-gradient-37);}.cls-44{fill:url(#linear-gradient-38);}.cls-45{fill:url(#linear-gradient-39);}.cls-46{fill:url(#linear-gradient-40);}.cls-47{fill:url(#linear-gradient-41);}.cls-48{fill:url(#linear-gradient-42);}.cls-49{fill:url(#linear-gradient-43);}.cls-50{fill:url(#linear-gradient-44);}.cls-51{fill:url(#linear-gradient-45);}.cls-52{fill:url(#linear-gradient-46);}.cls-53{fill:url(#linear-gradient-47);}.cls-54{fill:url(#linear-gradient-48);}.cls-55{fill:url(#linear-gradient-49);}.cls-56{fill:url(#linear-gradient-50);}.cls-57{fill:url(#linear-gradient-51);}.cls-58{fill:url(#linear-gradient-52);}.cls-59{fill:url(#linear-gradient-53);}.cls-60{fill:url(#linear-gradient-54);}.cls-61{fill:url(#linear-gradient-55);}.cls-62{fill:url(#linear-gradient-56);}.cls-63{fill:#abc;}.cls-64,.cls-68,.cls-71,.cls-74,.cls-83{opacity:0.2;}.cls-65{fill:url(#linear-gradient-57);}.cls-66{fill:url(#linear-gradient-58);}.cls-67{fill:#fff;}.cls-68{fill:url(#linear-gradient-59);}.cls-69{fill:url(#linear-gradient-60);}.cls-70{fill:url(#linear-gradient-61);}.cls-71{fill:url(#linear-gradient-62);}.cls-72{fill:url(#linear-gradient-63);}.cls-73{fill:url(#linear-gradient-64);}.cls-74{fill:url(#linear-gradient-65);}.cls-75{fill:url(#linear-gradient-66);}.cls-76{fill:url(#linear-gradient-67);}.cls-77{fill:url(#linear-gradient-68);}.cls-78{fill:url(#linear-gradient-69);}.cls-79{fill:url(#linear-gradient-70);}.cls-80{fill:url(#linear-gradient-71);}.cls-81{fill:url(#linear-gradient-72);}.cls-82{fill:url(#linear-gradient-73);}.cls-84{fill:url(#linear-gradient-74);}</style><linearGradient id="linear-gradient" x1="3766.92" y1="1926.23" x2="4826.74" y2="2287.79" gradientTransform="translate(7095.43 3710) rotate(180)" gradientUnits="userSpaceOnUse"><stop offset="0" stop-color="#ffc444"/><stop offset="1" stop-color="#f36f56"/></linearGradient><linearGradient id="linear-gradient-2" x1="-717.29" y1="946.6" x2="-646.59" y2="946.6" gradientTransform="matrix(1, -0.05, -0.05, -1, 3211.29, 3803.95)" gradientUnits="userSpaceOnUse"><stop offset="0" stop-color="#aa80f9"/><stop offset="1" stop-color="#6165d7"/></linearGradient><linearGradient id="linear-gradient-3" x1="-582.3" y1="926.29" x2="-511.6" y2="926.29" xlink:href="#linear-gradient-2"/><linearGradient id="linear-gradient-4" x1="-832.91" y1="1454.46" x2="-403.09" y2="1454.46" gradientTransform="matrix(1, -0.05, -0.05, -1, 3211.29, 3803.95)" gradientUnits="userSpaceOnUse"><stop offset="0" stop-color="#444b8c"/><stop offset="1" stop-color="#26264f"/></linearGradient><linearGradient id="linear-gradient-5" x1="-963.48" y1="1105.03" x2="-548.3" y2="1105.03" gradientTransform="matrix(1, 0.07, 0.07, -1, 3177.42, 3525.82)" xlink:href="#linear-gradient-4"/><linearGradient id="linear-gradient-6" x1="-33.02" y1="2076.9" x2="-840.07" y2="2502.21" gradientTransform="matrix(1, 0, 0, -1, 3198.75, 3710)" gradientUnits="userSpaceOnUse"><stop offset="0" stop-color="#311944"/><stop offset="1" stop-color="#6b3976"/></linearGradient><linearGradient id="linear-gradient-7" x1="-1218.91" y1="1933.45" x2="-713.02" y2="1708.61" gradientTransform="matrix(0.99, 0.11, 0.11, -0.99, 2875.79, 3426.1)" gradientUnits="userSpaceOnUse"><stop offset="0" stop-color="#ff9085"/><stop offset="1" stop-color="#fb6fbb"/></linearGradient><linearGradient id="linear-gradient-8" x1="-42.24" y1="2059.4" x2="-849.29" y2="2484.7" xlink:href="#linear-gradient-6"/><linearGradient id="linear-gradient-9" x1="-835.77" y1="2072.16" x2="-88.47" y2="1396.02" gradientTransform="matrix(1, 0, 0, -1, 3191.94, 3710)" xlink:href="#linear-gradient-7"/><linearGradient id="linear-gradient-10" x1="6617.19" y1="2547.48" x2="6630.07" y2="2890.39" gradientTransform="matrix(-1, 0.09, -0.09, -1, 9355.97, 3495.82)" xlink:href="#linear-gradient"/><linearGradient id="linear-gradient-11" x1="-694.73" y1="2229.69" x2="-684.18" y2="2510.51" gradientTransform="matrix(1, 0, 0, -1, 3198.75, 3710)" xlink:href="#linear-gradient"/><linearGradient id="linear-gradient-12" x1="6553.32" y1="2419.42" x2="6549.85" y2="2139.7" gradientTransform="translate(9009.52 3762.05) rotate(180) scale(1 1.04)" xlink:href="#linear-gradient"/><linearGradient id="linear-gradient-13" x1="-15.27" y1="2110.57" x2="-822.32" y2="2535.88" xlink:href="#linear-gradient-6"/><linearGradient id="linear-gradient-14" x1="-621.23" y1="2327.3" x2="140.97" y2="1637.69" gradientTransform="matrix(1, 0, 0, -1, 3191.94, 3710)" xlink:href="#linear-gradient-7"/><linearGradient id="linear-gradient-15" x1="-1266.93" y1="2083.77" x2="-1185.07" y2="2009.71" gradientTransform="matrix(1, 0, 0, -1, 3191.94, 3710)" xlink:href="#linear-gradient"/><linearGradient id="linear-gradient-16" x1="-840.16" y1="2067.3" x2="-92.85" y2="1391.17" gradientTransform="matrix(1, 0, 0, -1, 3191.94, 3710)" xlink:href="#linear-gradient-7"/><linearGradient id="linear-gradient-17" x1="312.17" y1="770.24" x2="364.08" y2="770.24" gradientTransform="matrix(0.38, 0.93, 0.93, -0.38, 1015.44, 2879.78)" gradientUnits="userSpaceOnUse"><stop offset="0" stop-color="#e38ddd"/><stop offset="1" stop-color="#9571f6"/></linearGradient><linearGradient id="linear-gradient-18" x1="2456.91" y1="710.16" x2="2434.41" y2="606.1" gradientTransform="matrix(0.84, 0.54, 0.54, -0.84, -466.44, 2024.38)" gradientUnits="userSpaceOnUse"><stop offset="0" stop-color="#ffc444"/><stop offset="0.1" stop-color="#febc46"/><stop offset="1" stop-color="#f36f56"/></linearGradient><linearGradient id="linear-gradient-19" x1="1666.44" y1="1143.06" x2="1917.73" y2="1084.35" gradientTransform="matrix(1, 0, 0, -1, 0, 3710)" xlink:href="#linear-gradient-4"/><linearGradient id="linear-gradient-20" x1="352.31" y1="868.24" x2="404.22" y2="868.24" xlink:href="#linear-gradient-17"/><linearGradient id="linear-gradient-21" x1="2546.56" y1="768.02" x2="2524.06" y2="663.96" xlink:href="#linear-gradient-18"/><linearGradient id="linear-gradient-22" x1="1793.14" y1="1125.92" x2="1986.33" y2="1080.78" gradientTransform="matrix(1, 0, 0, -1, 0, 3710)" xlink:href="#linear-gradient-4"/><linearGradient id="linear-gradient-23" x1="2169.24" y1="1791.95" x2="1814" y2="647.74" gradientTransform="matrix(1, 0, 0, -1, 0, 3710)" xlink:href="#linear-gradient-17"/><linearGradient id="linear-gradient-24" x1="1929.36" y1="1421.79" x2="2015.6" y2="1421.79" gradientTransform="matrix(1, 0, 0, -1, -77.15, 3710)" xlink:href="#linear-gradient-17"/><linearGradient id="linear-gradient-25" x1="1977.19" y1="1353.04" x2="2279.26" y2="1353.04" gradientTransform="matrix(1, 0, 0, -1, 0, 3710)" xlink:href="#linear-gradient-17"/><linearGradient id="linear-gradient-26" x1="1836.27" y1="1191.59" x2="2091.2" y2="1550.08" gradientTransform="matrix(1, 0, 0, -1, -77.15, 3710)" xlink:href="#linear-gradient-18"/><linearGradient id="linear-gradient-27" x1="2145.44" y1="1427.5" x2="2239.4" y2="1481.19" gradientTransform="matrix(1, 0, 0, -1, -77.15, 3710)" xlink:href="#linear-gradient-6"/><linearGradient id="linear-gradient-28" x1="2207.15" y1="1439.05" x2="2044.02" y2="1487.39" gradientTransform="matrix(1, 0, 0, -1, -77.15, 3710)" xlink:href="#linear-gradient-6"/><linearGradient id="linear-gradient-29" x1="6891.2" y1="1176.44" x2="7146.13" y2="1534.93" gradientTransform="translate(9173.74 3710) rotate(180)" xlink:href="#linear-gradient-18"/><linearGradient id="linear-gradient-30" x1="2403.56" y1="1751.11" x2="2042.19" y2="587.17" gradientTransform="matrix(1, 0, 0, -1, -77.15, 3710)" xlink:href="#linear-gradient-17"/><linearGradient id="linear-gradient-31" x1="2202.74" y1="1516.37" x2="2082.35" y2="1822.13" gradientTransform="matrix(1, 0, 0, -1, 0, 3710)" xlink:href="#linear-gradient-4"/><linearGradient id="linear-gradient-32" x1="1662.34" y1="2067.64" x2="1638.07" y2="1860.67" gradientTransform="matrix(0.99, 0.11, 0.11, -0.99, 268.69, 3796.53)" xlink:href="#linear-gradient-18"/><linearGradient id="linear-gradient-33" x1="-1504.74" y1="2382.94" x2="-1388.69" y2="2305.55" gradientTransform="matrix(0.78, 0.63, 0.63, -0.78, 1766.16, 4790.2)" gradientUnits="userSpaceOnUse"><stop offset="0" stop-color="#ffc444"/><stop offset="0.45" stop-color="#febc46"/><stop offset="1" stop-color="#f36f56"/></linearGradient><linearGradient id="linear-gradient-34" x1="1155.07" y1="2149.48" x2="1261" y2="1816.05" gradientTransform="matrix(1, 0, 0, -1, 0, 3710)" xlink:href="#linear-gradient-4"/><linearGradient id="linear-gradient-35" x1="1960.08" y1="7094.29" x2="1829.85" y2="6255.04" gradientTransform="matrix(1, 0, 0, -1, 0, 3710)" xlink:href="#linear-gradient-4"/><linearGradient id="linear-gradient-36" x1="5503.79" y1="670.04" x2="5429.3" y2="762.73" gradientTransform="matrix(0.86, 0.51, 0.51, -0.86, -3458.4, 720.25)" xlink:href="#linear-gradient-2"/><linearGradient id="linear-gradient-37" x1="5957.51" y1="829.82" x2="5956.93" y2="1292.66" gradientTransform="translate(7289.31 3710) rotate(180)" gradientUnits="userSpaceOnUse"><stop offset="0" stop-color="#893976"/><stop offset="1" stop-color="#311944"/></linearGradient><linearGradient id="linear-gradient-38" x1="3611.81" y1="902.9" x2="3611.65" y2="1030.81" gradientTransform="matrix(1, 0, 0, -1, -2028.44, 3710)" xlink:href="#linear-gradient-37"/><linearGradient id="linear-gradient-39" x1="3619.18" y1="842.32" x2="3619.18" y2="842.57" gradientTransform="matrix(1, 0, 0, -1, -2028.44, 3710)" xlink:href="#linear-gradient-37"/><linearGradient id="linear-gradient-40" x1="3356.01" y1="829.22" x2="3355.46" y2="1263.55" gradientTransform="matrix(1, 0, 0, -1, -2028.44, 3710)" xlink:href="#linear-gradient-37"/><linearGradient id="linear-gradient-41" x1="5501.32" y1="623.35" x2="5426.83" y2="716.04" gradientTransform="matrix(0.86, 0.51, 0.51, -0.86, -3458.4, 720.25)" xlink:href="#linear-gradient-2"/><linearGradient id="linear-gradient-42" x1="5888.05" y1="1096.23" x2="6154.93" y2="917.95" xlink:href="#linear-gradient-37"/><linearGradient id="linear-gradient-43" x1="3462.06" y1="1361.34" x2="3485.7" y2="1176.61" gradientTransform="matrix(1, 0, 0, -1, -2113.64, 3710)" xlink:href="#linear-gradient-7"/><linearGradient id="linear-gradient-44" x1="1125.13" y1="1322.56" x2="1156.15" y2="1080.18" gradientTransform="matrix(1, 0, 0, -1, 0, 3710)" xlink:href="#linear-gradient-7"/><linearGradient id="linear-gradient-45" x1="3264.69" y1="1750.76" x2="3267.91" y2="1597.67" gradientTransform="matrix(1, 0, 0, -1, -2113.64, 3710)" xlink:href="#linear-gradient"/><linearGradient id="linear-gradient-46" x1="1135.55" y1="1765.77" x2="1208.15" y2="1456.41" gradientTransform="matrix(1, 0, 0, -1, 0, 3710)" xlink:href="#linear-gradient"/><linearGradient id="linear-gradient-47" x1="2959.07" y1="3383.96" x2="2913.04" y2="3087.35" gradientTransform="translate(3997.63 3710) rotate(180)" xlink:href="#linear-gradient"/><linearGradient id="linear-gradient-48" x1="10988.16" y1="10165.01" x2="10942.13" y2="9868.4" gradientTransform="matrix(0.75, -0.66, -0.66, -0.75, -6488.45, 7648.96)" xlink:href="#linear-gradient"/><linearGradient id="linear-gradient-49" x1="1651.22" y1="4901.11" x2="1574.52" y2="4406.79" gradientTransform="matrix(1, 0, 0, -1, 0, 3710)" xlink:href="#linear-gradient-4"/><linearGradient id="linear-gradient-50" x1="887.71" y1="1743.78" x2="1051.63" y2="1743.78" gradientTransform="matrix(1, 0, 0, -1, 0, 3710)" xlink:href="#linear-gradient-4"/><linearGradient id="linear-gradient-51" x1="1132.23" y1="1267.09" x2="1154.38" y2="1094.01" gradientTransform="matrix(1, 0, 0, -1, 0, 3710)" xlink:href="#linear-gradient-7"/><linearGradient id="linear-gradient-52" x1="2968.12" y1="1448.68" x2="2682.6" y2="1367.59" gradientTransform="translate(3997.63 3710) rotate(180)" xlink:href="#linear-gradient-7"/><linearGradient id="linear-gradient-53" x1="1606.57" y1="1777.45" x2="1748.22" y2="2500.24" gradientTransform="matrix(0.95, -0.32, -0.32, -0.95, 269.04, 4864.24)" xlink:href="#linear-gradient-2"/><linearGradient id="linear-gradient-54" x1="1873.72" y1="2221.09" x2="1680.82" y2="1967.27" gradientTransform="matrix(0.95, -0.32, -0.32, -0.95, 269.04, 4864.24)" xlink:href="#linear-gradient-2"/><linearGradient id="linear-gradient-55" x1="1023.75" y1="1573.94" x2="1072.43" y2="1420.71" gradientTransform="matrix(1, 0, 0, -1, 0, 3710)" xlink:href="#linear-gradient"/><linearGradient id="linear-gradient-56" x1="1331.94" y1="1600.76" x2="1366.12" y2="1493.15" gradientTransform="matrix(1, 0, 0, -1, 0, 3710)" xlink:href="#linear-gradient"/><linearGradient id="linear-gradient-57" x1="1463.63" y1="1506.27" x2="1309.21" y2="1166.33" gradientTransform="matrix(1, 0, 0, -1, 0, 3710)" xlink:href="#linear-gradient"/><linearGradient id="linear-gradient-58" x1="1330.39" y1="1186.04" x2="1510.44" y2="827.29" gradientTransform="matrix(1, 0, 0, -1, 0, 3710)" xlink:href="#linear-gradient"/><linearGradient id="linear-gradient-59" x1="1279.8" y1="1143.43" x2="1371.68" y2="1143.43" gradientTransform="matrix(1, 0, 0, -1, 0, 3710)" xlink:href="#linear-gradient"/><linearGradient id="linear-gradient-60" x1="5035.72" y1="1427.03" x2="4881.29" y2="1087.09" gradientTransform="translate(6475.65 3710) rotate(180)" gradientUnits="userSpaceOnUse"><stop offset="0" stop-color="#ab316d"/><stop offset="1" stop-color="#792d3d"/></linearGradient><linearGradient id="linear-gradient-61" x1="4902.48" y1="1106.81" x2="5082.54" y2="748.06" gradientTransform="translate(6475.65 3710) rotate(180)" xlink:href="#linear-gradient-7"/><linearGradient id="linear-gradient-62" x1="4851.88" y1="1064.19" x2="4943.76" y2="1064.19" gradientTransform="translate(6475.65 3710) rotate(180)" xlink:href="#linear-gradient-7"/><linearGradient id="linear-gradient-63" x1="1169.14" y1="1130.66" x2="878.38" y2="811.13" gradientTransform="matrix(1, 0, 0, -1, 0, 3710)" xlink:href="#linear-gradient-4"/><linearGradient id="linear-gradient-64" x1="1097.92" y1="1232" x2="1363.35" y2="511.53" gradientTransform="matrix(1, 0, 0, -1, 0, 3710)" xlink:href="#linear-gradient-2"/><linearGradient id="linear-gradient-65" x1="1082.94" y1="1070.42" x2="1148.54" y2="1070.42" gradientTransform="matrix(1, 0, 0, -1, 0, 3710)" xlink:href="#linear-gradient-2"/><linearGradient id="linear-gradient-66" x1="1915.99" y1="1489.91" x2="1860.97" y2="1368.8" gradientTransform="matrix(1, 0, 0, -1, 0, 3710)" xlink:href="#linear-gradient"/><linearGradient id="linear-gradient-67" x1="5184.91" y1="571.12" x2="5326.56" y2="1293.9" gradientTransform="translate(6783.02 4872.96) rotate(-161.38)" xlink:href="#linear-gradient-7"/><linearGradient id="linear-gradient-68" x1="5456.24" y1="1017.97" x2="5263.34" y2="764.16" gradientTransform="translate(6783.02 4872.96) rotate(-161.38)" xlink:href="#linear-gradient-7"/><linearGradient id="linear-gradient-69" x1="2209.49" y1="1444.95" x2="2146.93" y2="1307.24" gradientTransform="matrix(1, 0, 0, -1, 0, 3710)" xlink:href="#linear-gradient"/><linearGradient id="linear-gradient-70" x1="932.73" y1="1097.64" x2="653.42" y2="623.85" gradientTransform="matrix(1, 0, 0, -1, 0, 3710)" xlink:href="#linear-gradient-2"/><linearGradient id="linear-gradient-71" x1="653.49" y1="850.53" x2="47.78" y2="-462.84" gradientTransform="matrix(0.99, -0.06, 0, -1.01, 26.57, 3957.66)" xlink:href="#linear-gradient-7"/><linearGradient id="linear-gradient-72" x1="860.52" y1="986.28" x2="585.86" y2="390.71" gradientTransform="matrix(0.99, -0.06, 0, -1.01, 26.57, 3957.66)" xlink:href="#linear-gradient-7"/><linearGradient id="linear-gradient-73" x1="743.22" y1="1191.29" x2="694.57" y2="1085.79" gradientTransform="matrix(0.99, -0.06, 0, -1.01, 26.57, 3957.66)" xlink:href="#linear-gradient-7"/><linearGradient id="linear-gradient-74" x1="362.4" y1="853.09" x2="651.37" y2="853.09" gradientTransform="matrix(1, -0.02, -0.02, -1, 218.58, 3768.72)" xlink:href="#linear-gradient-7"/></defs><g id="Illustration"><path class="cls-1" d="M3187.76,2117.87c-165.25,649-862.05,1159.15-1576.85,1050-545.09-83.22-1009.19-512.62-1127-1050A1238.26,1238.26,0,0,1,467,1680.3c92.77-665.68,706.94-1173,1415.91-1152.36,720.73,21,1281,580,1337,1196.9C3232.06,1858.77,3220.06,1991,3187.76,2117.87Z"/><path class="cls-2" d="M3187.76,2117.87c-165.25,649-862.05,1159.15-1576.85,1050-545.09-83.22-1009.19-512.62-1127-1050Z"/><path class="cls-3" d="M659,1382.32v783H1994.51v-783Zm627.08,396.59H753.91V1443.34h532.17Zm610.13,0H1364V1443.34h532.17Z"/><rect class="cls-4" x="750.52" y="1853.48" width="257.61" height="254.22"/><rect class="cls-4" x="1025.08" y="1853.48" width="254.22" height="254.22"/><rect class="cls-5" x="970.85" y="1958.56" width="13.56" height="44.06" rx="6.14"/><rect class="cls-5" x="1048.81" y="1958.56" width="13.56" height="44.06" rx="6.14"/><rect class="cls-4" x="1360.65" y="1853.48" width="257.61" height="254.22"/><rect class="cls-4" x="1635.21" y="1853.48" width="254.22" height="254.22"/><rect class="cls-5" x="1580.98" y="1958.56" width="13.56" height="44.06" rx="6.14"/><rect class="cls-5" x="1658.94" y="1958.56" width="13.56" height="44.06" rx="6.14"/><rect class="cls-5" x="808.15" y="1531.47" width="50.84" height="247.44"/><rect class="cls-5" x="947.12" y="1531.47" width="50.84" height="247.44"/><rect class="cls-4" x="1031.95" y="1527.98" width="50.84" height="247.44" transform="translate(-391 329.44) rotate(-14.98)"/><rect class="cls-4" x="869.16" y="1531.47" width="64.4" height="247.44"/><rect class="cls-4" x="825.09" y="1555.19" width="16.95" height="196.6"/><rect class="cls-5" x="869.16" y="1555.19" width="64.4" height="13.56"/><rect class="cls-5" x="869.16" y="1745.01" width="64.4" height="13.56"/><rect class="cls-3" x="960.68" y="1565.36" width="23.73" height="193.21"/><rect class="cls-5" x="1408.11" y="1531.47" width="50.84" height="247.44"/><rect class="cls-5" x="1547.08" y="1531.47" width="50.84" height="247.44"/><rect class="cls-3" x="1604.71" y="1551.8" width="50.84" height="227.1"/><rect class="cls-4" x="1469.12" y="1531.47" width="64.4" height="247.44"/><rect class="cls-4" x="1425.06" y="1555.19" width="16.95" height="196.6"/><rect class="cls-5" x="1469.12" y="1555.19" width="64.4" height="13.56"/><rect class="cls-5" x="1469.12" y="1745.01" width="64.4" height="13.56"/><rect class="cls-3" x="1560.64" y="1565.36" width="23.73" height="193.21"/><rect class="cls-5" x="1665.72" y="1531.47" width="50.84" height="247.44"/><rect class="cls-5" x="1804.69" y="1531.47" width="50.84" height="247.44"/><rect class="cls-4" x="1726.73" y="1531.47" width="64.4" height="247.44"/><rect class="cls-4" x="1682.67" y="1555.19" width="16.95" height="196.6"/><rect class="cls-5" x="1726.73" y="1555.19" width="64.4" height="13.56"/><rect class="cls-5" x="1726.73" y="1745.01" width="64.4" height="13.56"/><rect class="cls-3" x="1818.25" y="1565.36" width="23.73" height="193.21"/><rect class="cls-4" x="1604.71" y="1568.75" width="50.84" height="6.78"/><rect class="cls-4" x="1604.71" y="1582.31" width="50.84" height="6.78"/><rect class="cls-4" x="1604.71" y="1741.62" width="50.84" height="6.78"/><rect class="cls-4" x="1604.71" y="1755.18" width="50.84" height="6.78"/><path class="cls-6" d="M3070.41,1696a104.45,104.45,0,0,0,37.78,6.88c29-.28,37.27-13.2,59.26-8,17.12,4.08,36.23,17.67,36.24,17.67h0c-.11,0-22.5,13.5-44.77,19.9-17,4.87-30.76,4.76-40.71,4.6-22.11-.36-45-.72-51.65-14.06C3065.31,1720.56,3061.88,1712.05,3070.41,1696Z"/><path class="cls-7" d="M2507.6,2861.71a95.72,95.72,0,0,1,14,31.4,93.62,93.62,0,0,1,2.43,16.48c-3,6.44-18.23,29.34-42.32,38.25-14.9,5.52-41.94-3.52-16.51-25.72s29-27.12,13.42-70.93c-4-11.27-3.84-15.66-2.15-16.76C2480.39,2831.83,2495.38,2847.7,2507.6,2861.71Z"/><path class="cls-8" d="M2643.48,2875.28a95.67,95.67,0,0,1,14,31.39,93.6,93.6,0,0,1,2.43,16.49c-3,6.44-18.23,29.34-42.32,38.25-14.9,5.52-41.94-3.53-16.51-25.72s29-27.13,13.42-70.93c-4-11.27-3.84-15.66-2.15-16.77C2616.27,2845.4,2631.26,2861.26,2643.48,2875.28Z"/><path class="cls-9" d="M2691.93,1932.26q17.13,85.92,34.28,171.83A1638.91,1638.91,0,0,0,2676,2284c-51,233.63-42.75,441.82-20.08,600.12l-36.24,20.09a1503.84,1503.84,0,0,1-109.34-362.84c-30.75-184.15-19.08-329.33-27.61-329.55-8.16-.21-26.46,133-21.33,284.16a1525.35,1525.35,0,0,0,61.69,379.84L2477.44,2886c-61.91-113.86-127.2-270.1-155.58-461.8-19.71-133.13-43.65-310.07,39.37-496.29,8.29-18.6,38-60.27,43.52-70.5C2507.81,1873.46,2588.87,1916.17,2691.93,1932.26Z"/><path class="cls-10" d="M2676,2284a1639,1639,0,0,1,50.22-179.91q-17.14-85.92-34.28-171.83c-103.06-16.09-184.12-58.8-287.18-74.89-5.49,10.23-35.23,51.9-43.52,70.5a664.57,664.57,0,0,0-51.72,183.83c198-8.94,256.75,30.35,273.84,67.83,27.19,59.67-47.12,123.66-15.9,245.24,9.39,36.56,22.15,54.3,25.16,100.4,3.94,60.49-15.63,67-16.62,128.75-1.08,67.53,21.33,122.93,39.72,168.4a587.69,587.69,0,0,0,31.84,66.44l8.36-4.64C2633.24,2725.82,2625,2517.63,2676,2284Z"/><path class="cls-11" d="M2516.77,1135.74c7.2,7.8-1,20.1,1.39,61.56a291.92,291.92,0,0,0,6.31,45.78c1.41,10.13,3,19.5,4.62,27.74,1.21,6.06,2.33,10.77,3.74,15.76a195.66,195.66,0,0,0,9.8,27.07,1.2,1.2,0,0,1-.51,1.55h-.1a1.21,1.21,0,0,1-1.6-.61h0a197.83,197.83,0,0,1-9.92-27.4c-1.43-5.06-2.56-9.83-3.79-15.94q-1.3-6.52-2.52-13.93a130.89,130.89,0,0,0,7.82,46.25c20.07,56.77-21.15,99.77-56.61,105-40.9,6-72.11-23.64-81.83-33.4-39.15-39.33-53.09-108.61-25.75-163.16C2403.64,1140.6,2499.14,1116.65,2516.77,1135.74Z"/><path class="cls-12" d="M1995.26,1620.21c-11.42,7.71-22.64,18.43-24.35,32.42-5.65,46.18,94.74,109.1,183.74,120.09,118.38,14.62,281.44-54.56,301.16-179.27,16.08-101.59-61.4-210.94-104.2-204.68-53.74,7.85-29.46,194.54-135.31,248.41C2167.85,1661.83,2033.68,1634.12,1995.26,1620.21Z"/><path class="cls-13" d="M2418.71,1202.56c1.09-6.69,6.28-34,28.85-53.2,42.81-36.34,119.3-18.67,165.51,14.11,48.34,34.31,32.7,63.12,80.74,101.79,52.17,42,83.26,18.08,153.71,56.58,27.72,15.14,102.41,56,114.83,130.39,10.74,64.33-28.33,133.91-81.77,164.73-91.48,52.76-219.53-11.27-283.49-75.73-61.34-61.82-26.38-82.13-117.16-204.4C2447.1,1292.62,2410.62,1252.55,2418.71,1202.56Z"/><path class="cls-14" d="M2351.61,1388.77a437.39,437.39,0,0,1,148.8-35.37c65-3.64,110.35-7.93,141.45,18.69,66.16,56.62-1.29,161.68,64.06,298.92,8.28,17.4,64.86,132.25,168.14,154.8,58.37,12.74,73.65-16.67,141.45-13.35,138.24,6.78,253.62,137.82,238.08,169-10.39,20.9-71.9-18-131.32,18.1-54.85,33.39-37.48,87.9-90.74,130.47-61.13,48.84-152.27,31.58-192.17,24-86.51-16.4-89-51-189.49-77.4-79.22-20.85-147.3-17.71-178.82-16-129.3,6.94-174.57,49.95-197.5,26.69-44.31-44.94,133.81-196.4,90.58-370.54-15.88-64-49.46-92.14-50.55-173.92C2312.72,1477.88,2333.55,1424.28,2351.61,1388.77Z"/><path class="cls-15" d="M2493.21,1262.81c-7.93,21.41-13.77,47.78-.94,63.73,7.81,9.72,19.56,14.37,31.14,18.69,27.35,10.23,38.88,3.73,44.82,11,13.09,16.08-12.08,85.25-63.69,96.38-51.36,11.07-104.24-40.66-98.89-65.37,4.82-22.3,56.66-20.84,63-49,3.18-14.2-6.82-28.57-15.28-38.12l-6.07,1.17Z"/><path class="cls-16" d="M2568.23,1356.27c-5.94-7.31-17.47-.81-44.82-11-11.58-4.32-23.33-9-31.14-18.69-12.82-16-7-42.32.94-63.73l-45.94,38.47,6.07-1.17c6.71,7.58,14.29,18.21,15.59,29.37a42.76,42.76,0,0,1,9.58,6.94,113.89,113.89,0,0,0-6.32,36.62c-.06,12.94-.1,22.55,6.32,31,7,9.17,17.59,11.55,26.85,13.62,20.57,4.61,38.92.47,50.82-3.72C2570.86,1391.07,2575.58,1365.3,2568.23,1356.27Z"/><path class="cls-17" d="M2480.07,1284.71s-2.61,26.23-28.59,26.36c-32,.17-35.55-84.28-27.77-89.1,9-5.6,16.92,8.11,37.93,3.33,8.84-2,16.49-13.39,21-1.13,5.1,13.95.79,38.64.79,38.64s7.61-6.27,8.77,1.27C2493.7,1274,2486.29,1280.12,2480.07,1284.71Z"/><path class="cls-18" d="M2429.44,1192.94c-10.15,10.36-15.76,30.46-8.72,40.56,10.12,14.51,40-.64,52.26,17.11,5.36,7.78,5.05,18.59,7.83,18.41,2.31-.15,3.67-7.63,5-13.79,7.32-34,15.78-37.76,13.2-47.48C2493.76,1188,2450.3,1171.68,2429.44,1192.94Z"/><path class="cls-19" d="M2591.15,1438.81c-4.41-49.35-20.37-71-8.78-81.67,17.94-16.45,74.78,18.25,91.65,28.71,93.8,58.21,126.12,123.51,174.24,174.84,41.65,44.43,113.1,97.55,242,124.55q-7.11,30.26-14.23,60.5c-115.24,28.67-181.63,7.64-220.63-16-77.89-47.23-98.15-136.19-186.83-149.46-37.33-5.58-61.36,6-78.54-12.79C2569,1544.47,2597.68,1511.87,2591.15,1438.81Z"/><path class="cls-20" d="M1902.68,1657.84c2-6.61,7.32-20.17,20.41-28.7,27-17.61,69.82-2.3,72.07,12,1.46,9.36-13.69,22.83-28,24-12.9,1.07-18.37-8.36-36-10.67A61.21,61.21,0,0,0,1902.68,1657.84Z"/><path class="cls-21" d="M3015.51,1812.46c-67.8-3.32-83.08,26.09-141.45,13.35-103.28-22.55-159.86-137.4-168.14-154.8a313.65,313.65,0,0,1-26.73-86.08,50.23,50.23,0,0,0-16.74-5.43c-22.24-3-48.23,8.86-51.28,24.78-4.38,22.82,43.21,33.45,76.06,84.08,27,41.56,14.77,59.6,33.37,101.42,42.58,95.74,154,107.65,148.12,141.45-4.59,26.54-76.5,38.08-125.44,38.7-104.11,1.32-119-46.58-192.16-42.7-112.67,6-155.26,123.68-230.87,105.42-13.45-3.25-25.07-10.17-35.13-19-17,33.72-25.83,59.26-11.57,73.72,22.93,23.26,68.2-19.75,197.5-26.69,31.52-1.69,99.6-4.83,178.82,16,100.52,26.45,103,61,189.49,77.4,39.9,7.56,131,24.82,192.17-24,53.26-42.57,35.89-97.08,90.74-130.47,59.42-36.15,120.93,2.8,131.32-18.1C3269.13,1950.28,3153.75,1819.24,3015.51,1812.46Z"/><rect class="cls-5" x="916.61" y="2314.47" width="338.96" height="54.23" rx="26.85"/><rect class="cls-5" x="991.19" y="2348.36" width="30.51" height="149.14" rx="14.46"/><rect class="cls-5" x="1143.72" y="2341.59" width="30.51" height="149.14" rx="14.46"/><rect class="cls-5" x="909.83" y="2297.52" width="338.96" height="54.23" rx="26.85"/><rect class="cls-5" x="984.41" y="2331.42" width="30.51" height="149.14" rx="14.46"/><rect class="cls-5" x="1136.94" y="2328.03" width="30.51" height="149.14" rx="14.46"/><rect class="cls-5" x="1994.51" y="2311.08" width="338.96" height="54.23" rx="26.85"/><rect class="cls-5" x="2231.78" y="2341.59" width="30.51" height="149.14" rx="14.46"/><rect class="cls-5" x="2079.25" y="2338.2" width="30.51" height="149.14" rx="14.46"/><path class="cls-22" d="M1883.22,2868.39a13.58,13.58,0,0,0,1,1.39c2.35,3,7.57,10,5.26,19.5-2.83,11.57-20.14,24.88-41.47,40.06s-12.9-10.21-10.81-13.82,33-50.1,33-50.1Z"/><path class="cls-23" d="M1853.91,2859.08l19.91,23.22s7.16-.25,6.42-9.88l-1.84-24.2Z"/><path class="cls-24" d="M2243.4,2517.07c-12.93,16.82-30.89,35.57-54.77,47.59a118.1,118.1,0,0,1-24.74,9.17c-42,10.33-73.94-7.23-109.63-19.5-24.16-8.3-50.06-14.17-82.07-7.23-10.66,2.32-67.46,15.91-85.76,58.45-15.94,37,10.13,65.72,15.41,130.9.5,6.36.79,12.6.83,18.67.49,40.15-8,73.86-15.86,97.36-2.61,1.32-5.21,2.6-7.81,3.92l-19.08,9.67c-2,1-4.09,2-6.12,3.06-88.1-140.11-114.46-287.21-52.46-371.59,19.17-26,43.87-42.22,56.59-50.44,76-48.95,159.86-49.44,217.19-41.35a420.44,420.44,0,0,1,59.65,12.85Q2189,2467.86,2243.4,2517.07Z"/><path class="cls-25" d="M1989.58,2868.39a13.58,13.58,0,0,0,1,1.39c2.35,3,7.58,10,5.27,19.5-2.83,11.57-20.14,24.88-41.48,40.06s-12.9-10.21-10.8-13.82,33-50.1,33-50.1Z"/><path class="cls-26" d="M1960.27,2859.08l19.91,23.22s7.16-.25,6.43-9.88l-1.85-24.2Z"/><path class="cls-27" d="M2243.4,2517.07c-12.93,16.82-30.89,35.57-54.77,47.59-32.71-12-65.51-27.22-110.08-17.56a175.54,175.54,0,0,0-24.29,7.23c-21.19,8-49.52,23.46-61.46,51.22-16,37,10.12,65.72,15.41,130.9,3.88,48.37-6,89-15,116-2.6,1.32-5.2,2.6-7.81,3.92l-19.08,9.67c-2,1-4.09,2-6.11,3.06-23.88-38-43.21-76.42-57.5-114-38.42-101.2-40.15-196.08,5-257.58,19.16-26,43.86-42.22,56.59-50.44,36.43-23.46,74.6-35.77,110.82-41.35a420.44,420.44,0,0,1,59.65,12.85Q2189,2467.85,2243.4,2517.07Z"/><path class="cls-28" d="M2279.26,2226.77c-5.25,28.79-17.81,74.73-36.52,165.35-13.63,66.09-15.73,84.1-34.9,99-14.42,11.24-32.14,15.74-50.4,16.32-16.77.53-34-2.19-49.56-6.07a.53.53,0,0,0-.25,0c-20.94-5.25-38.91-12.48-48.78-16.44-37.59-15.12-74.11-29.83-81.66-59.9a2.72,2.72,0,0,1-.17-.62c-7.52-31.76,23-55.51,17.43-114.09-2.27-24.28-8.1-26.23-9.46-26.52-12.51-2.89-20.53,48-58.16,67.87-28.13,14.91-70.8,11.36-89.38-10.49-30.69-36.1,13-112.31,20.32-125,55.55-96.87,196.12-181.22,315.21-135.32,11.15,4.29,78.27,30.15,103.3,92.6C2283,2190.09,2283.8,2202.2,2279.26,2226.77Z"/><path class="cls-29" d="M1854.89,2328.15a2.7,2.7,0,0,1-2.45-3.78v0c1-2.23,25.59-55,82.39-75.79a2.68,2.68,0,0,1,2.39,4.8,3.27,3.27,0,0,1-.55.2c-54.63,20-79.11,72.45-79.35,73A2.7,2.7,0,0,1,1854.89,2328.15Z"/><path class="cls-30" d="M2279.26,2226.77c-5.25,28.79-17.81,74.73-36.52,165.35-13.63,66.09-15.73,84.1-34.9,99-14.42,11.24-32.14,15.74-50.4,16.32a284.92,284.92,0,0,1-49.56-6.07.53.53,0,0,0-.25,0c-20.94-5.25-38.91-12.48-48.78-16.44-37.59-15.12-74.11-29.83-81.66-59.9a49.88,49.88,0,0,1,1.69-5c6.57,13.43,14.37,17.8,20.78,19,20.44,3.93,33.66-22.05,77.65-29.53,30.86-5.29,43,4.34,53.62-3.18,23.17-16.48-33-64.56-8.47-93.89,20.69-24.74,78.6-11.9,93.14-36.93,10.16-17.47-13.54-31.39-5.61-47.5,4.13-8.38,16.52-16.56,46.67-21.52A137.4,137.4,0,0,1,2279.26,2226.77Z"/><path class="cls-31" d="M1926.27,2259.06l2.37-3.87a16.59,16.59,0,0,1,18.07-12.28l12.45,1.54a6.69,6.69,0,0,1,5.81,7.47,4.89,4.89,0,0,1-.09.53c-1.15,5.56-4.13,12.2-11.78,11.69-13-.88-21.29,18.05-21.29,18.05l-5-7A14.66,14.66,0,0,1,1926.27,2259.06Z"/><path class="cls-32" d="M2167.1,2162.6h-53.23l9.75,168.28,46.16-12.86a10,10,0,0,0,7.31-9.62V2172.58A10,10,0,0,0,2167.1,2162.6Z"/><path class="cls-33" d="M2113.87,2333.6l-139.23-4.9a16.3,16.3,0,0,1-15.65-16.15V2178.2a15.61,15.61,0,0,1,15.62-15.6h139.26c9.21,0,16.71,7.23,16.71,16.16V2318C2130.58,2327,2123.08,2333.92,2113.87,2333.6Z"/><path class="cls-34" d="M2126.4,2284.89l-2.84-4.64a19.86,19.86,0,0,0-21.65-14.71l-14.92,1.84a8,8,0,0,0-7,8.9q0,.36.12.72c1.39,6.65,5,14.61,14.12,14,15.56-1.05,25.51,21.63,25.51,21.63l6-8.42A17.55,17.55,0,0,0,2126.4,2284.89Z"/><path class="cls-35" d="M2126.49,2280.22c3.21,2.92,35.78,31.61,75,21.82,34.12-8.54,55.07-41.71,58.74-69.63C2269,2166,2135.94,2089,2146.6,2075.51c6.35-8,86.93,28.85,109.6,42.83,23.54,14.51,87.14,53.71,100.7,130.65,1.15,6.54,16.1,98.27-36.26,136.15-48.42,35-143.25,16-207.48-66.88Z"/><path class="cls-36" d="M2184.2,1937.33s-.54-52.2-64.16-54.38-168-2.72-103.86,71.78,111.16,79.93,111.16,79.93-23.62,30.45,10.1,21.21,76.12-27.74,75-75.59S2184.2,1937.33,2184.2,1937.33Z"/><path class="cls-37" d="M2088.45,2055.6a20.37,20.37,0,0,1-16.67,23.49c-.27,0-.53.09-.8.12-13.89,1.76-30.87,4.44-38.44,7.73-13.9,6,39.92,3.25,88.67,7.51,30.43,2.66,53.49,1.77,66.52.72a3.39,3.39,0,0,0,1.1-6.47c-11.71-5.31-30.82-13.32-47.28-17.27-20.38-4.89-37.48-53-37.48-53l-19.5,14.12Z"/><path class="cls-38" d="M2130.58,2046.66S2098.67,2082.9,2050,2071c-43.61-10.64-32.64-110.72-.76-126.75,10.63-5.35,30-4.94,44.53,2,8.59,4.12,11,8.42,25.17,14.89,13.07,6,17.22,5.13,20.74,9.34,4.41,5.27,6.31,16.61-7.42,44,9.92-7,20.6-8.53,27.16-3.89a15.23,15.23,0,0,1,4.87,6.76C2168.43,2029.81,2155.56,2042.42,2130.58,2046.66Z"/><path class="cls-39" d="M1184.63,1866.28a33,33,0,0,1,6-21.73c15.73-22.82,53.87-32.36,79.84-27,66.31,13.82,49.41,68,40.06,112.59s29.37,63.87,36.46,64.11-27.24,28.25-51.25,6.12c-2.17,12.21-21.2,25.71-35.68,4.62-8.57-12.49-18-24.34-26.59-36.84-10.86-15.85-15.87-34.71-25.2-51.39C1199.93,1901.9,1185.9,1884.18,1184.63,1866.28Z"/><path class="cls-40" d="M1235.9,1897a119.47,119.47,0,0,0-221.62,45.58c-2,16.27,1.67,34.57,15.23,54.45,54.17,79.45,122.18,63.8,148.06,59.58s63.19-42.73,68.61-72.22C1248.88,1969.64,1254.58,1928.84,1235.9,1897Z"/><path class="cls-41" d="M1585.19,2874.31s13.79-1.23,25,11.81,31.32,30,27.22,36.89-29-2-42.72-14C1581.57,2897.61,1577.55,2877.92,1585.19,2874.31Z"/><path class="cls-42" d="M1577.93,2854.19l21,23.6s.06,9.48-8.23,10.57-22.45-19.94-22.45-19.94Z"/><path class="cls-43" d="M1071.9,2491.63c-.23,25.08,119.37,12.84,243.38,90.4,32.45,20.3,61.1,44.18,81.49,57.44,16.69,41.25,47.57,66.84,86.46,114.27a770.17,770.17,0,0,1,84.32,126.74c7.79-4.31,15.53-8.58,23.28-12.89,3.57-57.58,8.76-241.24-97.86-313.47l-2.76-1.84c-22.76-15.14-57.33-36.66-157.55-85-35.83-17.27-58.27-27.48-81.09-43.86a27.31,27.31,0,0,0-5.83-3.65c-21-8.9-41.77,6.53-89.24,30.13C1089.89,2483.06,1072,2481.9,1071.9,2491.63Z"/><path class="cls-44" d="M1592.08,2807.09c-.81-37.48-4.94-83.71-17.58-127.89,3.23,13.6,5.89,27.94,8.7,43.36A569.68,569.68,0,0,1,1592.08,2807.09Z"/><path class="cls-45" d="M1590.82,2867.59l-.16.1a1,1,0,0,1,.17-.1.43.43,0,0,1,0-.16Z"/><path class="cls-46" d="M1572.45,2785.4c1-16.91,3.75-29.69-4.25-42.51-12-19.2-31.78-12.87-43.24-29.29-16.87-24.13,14.16-54.7-1-77.27-13.21-19.68-40.78-2.29-71.44-23.74-31.21-21.84-25.08-55.57-51.23-65.49-9.56-3.63-20.26-2.77-31.49,1.12,1.47-10-165.85-121.91-213.32-98.31-66.61,33.15-84.51,32-84.6,41.72-.23,25.08,119.37,12.84,243.38,90.4,32.45,20.3,61.1,44.18,81.49,57.44,16.69,41.25,47.57,66.84,86.46,114.27a770.17,770.17,0,0,1,84.32,126.74l15.22-8.43C1572.15,2834.74,1571.23,2805.47,1572.45,2785.4Z"/><path class="cls-47" d="M1559.26,2913.25s13.78-1.22,25,11.81,31.31,30,27.22,36.89-29-2-42.72-14C1555.64,2936.55,1551.61,2916.87,1559.26,2913.25Z"/><path class="cls-42" d="M1552,2893.13l21,23.61s.07,9.48-8.23,10.56-22.44-19.94-22.44-19.94Z"/><path class="cls-48" d="M1010.48,2600.57c37,33.47,60.45,4.5,168,31.29,0,0,37.09,9.23,86.46,10.06,14.51,37.69,38.61,75.15,47.1,88.31,31.48,48.91,97,130.36,229.19,192.11l22.67-27a689.62,689.62,0,0,1-52.39-69.81c-34.35-52.48-42.69-80.39-85.94-160.77-19-35.28-33.29-59.48-45.25-76.35-5.79-15.81-16.36-33.75-32.54-47.34-8.81-7.37-17.25-14.69-71.11-26.05-62.17-13.12-93.23-19.7-121.37-30.36-46.45-17.66-46.26-28.23-71.85-30.13-39.64-3-94,17.43-105.46,59.1C969.13,2546,988.83,2581,1010.48,2600.57Z"/><path class="cls-49" d="M1350.06,2144.83s115.21,121.49,92.64,198.66S1239.47,2290,1239.47,2290Z"/><path class="cls-50" d="M1438.06,2499.68c1.11,15.53-37.63,30.45-47.3,34.16-57.41,22.06-86.25,2.19-149.69,13.14-54.57,9.38-45.4,26.15-99.8,35.44-34.9,6-71.46.5-144.49-10.49-62.45-9.42-111.85-21.23-111.28-26,.09-.37.38-.41.5-.94,1.53-6.9-42.46-15.91-42.71-27-.17-8.67,26.68-13.09,70-29.16,36.72-13.59,55.1-20.36,71.71-33.79,31.47-25.36,42.13-60.39,49.11-83.48,8.06-26.48,23.5-72,1.9-121.64-.54-1.29-1.11-2.52-1.69-3.76-22.88-48.91-66.13-74.81-82.08-83.48,20-17.89,73-60.43,158.12-75.47,26.23-4.63,76.67-14.17,136.19,2.89,82,23.5,147.38,87,137.84,110.17-9,21.89-82,1.23-109,47.29a40.07,40.07,0,0,0-3.76,7.77c-17.51,48.61-7.56,94.13.08,116.77a117.22,117.22,0,0,0,5.17,13,169.27,169.27,0,0,0,40.44,52.83C1372.79,2487.09,1436.65,2480.52,1438.06,2499.68Z"/><path class="cls-51" d="M1145.26,2021.62s-5.43,43.41-21.45,53.35-41.92,22.94-44.77,26.46,99.25,14.5,149.84-11h0c-16.67-3.48-21.2-4.76-21.2-4.76a94,94,0,0,1-21.43-8.48,72.87,72.87,0,0,1-23.56-21.79l.18-24Z"/><path class="cls-52" d="M1106.65,2047s39.43,51,98.36,27.64c52.76-20.94,17.07-157.73-25.66-172.24-14.25-4.84-40.09-1.8-57.09,9.49-12,7.94-43.35,49.25-23.43,94-13.58-3.52-25.34.36-28.11,7.11-3.54,8.56,8.19,19.76,10.85,22.3C1090.78,2044.07,1101.65,2046.3,1106.65,2047Z"/><path class="cls-53" d="M1328.65,2251s18.36-17,20.36-36.69-11.86-35.49-25.29-39.51-20.58,1.91-11.57,21.32S1335.45,2228.11,1328.65,2251Z"/><path class="cls-54" d="M1143,2307.57s-25-.51-39.57-13.94-14.68-34.42-7.31-46.33,16.67-12.24,22.81,8.27S1122.75,2295,1143,2307.57Z"/><path class="cls-55" d="M1153.69,1884.85c-29.24,4.94-29,8.73-21.21,11.3-35.18,6.42-58.36,67-44,108.41,53.57,9.36,68-104.39,68-104.39s52.29,72.15,74.9,75S1213.08,1874.82,1153.69,1884.85Z"/><path class="cls-56" d="M1051.58,1900.54a36.78,36.78,0,0,0-9.52-23.27c-20.44-23.2-63.95-28.73-92-19.3-71.63,24.08-45.75,81.85-29.5,130s-24.07,74.63-31.89,75.84,33.9,27.68,57.57,0c4,13.24,26.89,25.68,40.13.4,7.84-15,16.75-29.35,24.58-44.32,9.93-19,13-40.55,21.11-60.25C1039.34,1942,1052.53,1920.53,1051.58,1900.54Z"/><path class="cls-57" d="M1438.06,2499.68c1.11,15.53-37.63,30.45-47.3,34.16-57.41,22.06-86.25,2.19-149.69,13.14-54.57,9.38-45.4,26.15-99.8,35.44-34.9,6-71.46.5-144.49-10.49-62.45-9.42-111.85-21.23-111.28-26,.09-.37.38-.41.5-.94,1.53-6.9-42.46-15.91-42.71-27-.17-8.67,26.68-13.09,70-29.16,36.72-13.59,55.1-20.36,71.71-33.79,31.47-25.36,42.13-60.39,49.11-83.48,8.06-26.48,23.5-72,1.9-121.64-.54-1.29-1.11-2.52-1.69-3.76,7-5.5,39.45-27.51,57.17,18.34,20,51.63,25.9,81.2,67.32,82.94,15.16.62,60.56,9.62,112.85,24.66a117.22,117.22,0,0,0,5.17,13,169.27,169.27,0,0,0,40.44,52.83C1372.79,2487.09,1436.65,2480.52,1438.06,2499.68Z"/><path class="cls-58" d="M1146.49,2311.64c13.74,26.45-75.52,90.86-142.48,97.41-36.29,3.55-72.11-14.08-93.56-40.72-33.12-41.11-22.88-92.3-19.29-110.22,21.16-105.72,145.46-149.72,156.86-153.57,30.24,46.86,29.75,76.42,23.37,94.93-5.26,15.26-19,31.56-46.6,64.16-24.54,29-36.71,39.37-33.06,48.21,4.33,10.51,27.82,11.3,42.71,8.27,27.57-5.61,83.85-15.57,87.8-21.79C1129.81,2299.53,1141.76,2302.55,1146.49,2311.64Z"/><polygon class="cls-59" points="1084.23 2362.65 1060.13 2130.65 1271.94 2151.7 1275.06 2411.07 1084.23 2362.65"/><polygon class="cls-60" points="1375.96 2067.11 1271.94 2151.7 1275.06 2411.07 1367.86 2322.04 1375.96 2067.11"/><path class="cls-61" d="M1077.52,2345.55s-17-14.91-13.88-45.44,4.58-58.82,13.88-47.22S1106.43,2362.07,1077.52,2345.55Z"/><path class="cls-62" d="M1366.14,2260.36s14.06-12.42,12.39-32.7-6.19-45.1-12.39-37.18S1366.14,2260.36,1366.14,2260.36Z"/><path class="cls-5" d="M1021.87,2715c-14.07-3-28.72,6-31.76,20.24L917.22,3078c-3,14.26,6.7,28.41,20.77,31.41s28.72-6,31.76-20.24l72.89-342.73C1045.67,2732.15,1035.94,2718,1021.87,2715Z"/><path class="cls-5" d="M2463.57,3078l-72.89-342.73c-3-14.26-17.69-23.23-31.76-20.24s-23.8,17.15-20.77,31.41l72.9,342.73c3,14.26,17.68,23.23,31.75,20.24S2466.6,3092.23,2463.57,3078Z"/><path class="cls-5" d="M2589.55,2925.14l-72.89-342.73c-3-14.26-17.68-23.23-31.75-20.24s-23.8,17.15-20.77,31.41L2537,2936.31c3,14.26,17.68,23.23,31.75,20.23S2592.59,2939.4,2589.55,2925.14Z"/><path class="cls-5" d="M791.24,2925.14l72.89-342.73c3-14.26,17.68-23.23,31.75-20.24s23.81,17.15,20.77,31.41l-72.89,342.73c-3,14.26-17.68,23.23-31.75,20.23S788.2,2939.4,791.24,2925.14Z"/><path class="cls-63" d="M2638.47,2602.59h-38.73c-116.78-74.58-479.68-130-909.34-130s-792.57,55.43-909.34,130H740.35v47.54c0,1.58.45,3.17.45,4.77,0,100.57,425.2,182.1,949.2,182.1s949-81.59,949-182.16c0-.45.12-1.41.11-1.41Z"/><path class="cls-3" d="M2639.2,2604.15c0,100.58-424.79,182.12-948.8,182.12s-948.81-81.54-948.81-182.12c0-49.32,102.28-94.14,268.41-126.94,172.37-34,413.52-55.18,680.4-55.18,468.2,0,857.22,65.1,934.71,150.72C2634.37,2583,2639.2,2593.45,2639.2,2604.15Z"/><path class="cls-64" d="M2639.2,2604.15c0,100.58-424.79,182.12-948.8,182.12s-948.81-81.54-948.81-182.12c0-49.32,102.28-94.14,268.41-126.94-11.73,36.1,4.09,69.27,82.69,84.39,216.33,41.6,527.49-127.22,571.56,23.3,41.8,142.92,617.61,135.19,960.86-12.15C2634.37,2583,2639.2,2593.45,2639.2,2604.15Z"/><path class="cls-65" d="M1414,2498.91l-40.35-23.71c-.41-.26-1-.51-1.38-.74h-.08v.17a20.29,20.29,0,0,0-10.14-2.26l-60.51,1.3-42.41.93c-11.52.24-20.76,8.91-20.76,19.68V2593a18.1,18.1,0,0,0,9.59,16.21h0l43.37,24,21.89-24.25,10.57-.5,38.65-1.8c11-.52,20.6-9.46,20.6-19.93v-53.17Z"/><path class="cls-66" d="M1422.91,2514.8v95.28c0,10.4-8.61,19.48-19.47,20l-102.36,5.3c-11.34.59-21.28-7.81-21.28-18.49V2519c0-10.68,9.87-20,21.2-20.24l102.16-2.67C1414,2495.85,1422.91,2504.41,1422.91,2514.8Z"/><path class="cls-67" d="M1361,2594q-22.89,1-22.91-28,0-14,6-22a20.34,20.34,0,0,1,14.49-8.19c.79-.09,1.6-.15,2.42-.18a31.74,31.74,0,0,1,10.11,1.37,102.34,102.34,0,0,1,10.2,3.66l6.17-15a62.18,62.18,0,0,0-26.48-5.25,56.49,56.49,0,0,0-8,.82,43.67,43.67,0,0,0-14.71,5.31,38.36,38.36,0,0,0-15,16.14q-5.25,10.4-5.24,24,0,21.59,10.66,32.62t30.54,10.06a86.54,86.54,0,0,0,12.63-1.5c4.57-1,7.33-2.25,13.58-4.14v-15.3c-6.25,1.77-9.26,3-13.08,4A61.62,61.62,0,0,1,1361,2594Z"/><path class="cls-68" d="M1279.8,2616.93v-97.88c0-10.68,9.87-20,21.2-20.24l42.46-1.11c3,8.23,6.26,15.64,9.31,23.37,1.93,4.86,3.9,9.83,5.7,14.7,6.87,18.63,12.41,37.39,13.12,56.58a105.81,105.81,0,0,1-.49,15.52,102.94,102.94,0,0,1-4.69,21.74,15.37,15.37,0,0,0-.83,2.48l-64.58,3.33C1289.66,2636,1279.8,2627.61,1279.8,2616.93Z"/><path class="cls-69" d="M1489.55,2578.15l40.35-23.71c.41-.26,1-.51,1.39-.74h.07v.17a20.29,20.29,0,0,1,10.14-2.26l60.51,1.3,42.41.93c11.53.24,20.77,8.91,20.77,19.68v98.68a18.12,18.12,0,0,1-9.6,16.21h0l-43.37,24-21.89-24.25-10.56-.5-38.65-1.8c-11-.52-20.6-9.46-20.6-19.93v-53.17Z"/><path class="cls-70" d="M1480.66,2594v95.29c0,10.39,8.62,19.47,19.47,20l102.36,5.29c11.34.59,21.28-7.81,21.28-18.49v-97.88c0-10.68-9.86-19.95-21.2-20.24l-102.15-2.67C1489.56,2575.09,1480.66,2583.65,1480.66,2594Z"/><path class="cls-67" d="M1501.51,2689.4l20.78.61,7.25-22.48,33.16,1,5.93,22.87,20.77.61-28.52-89.1-.91-2.54-23.58-.69Zm33.07-36.56c6.69-19.88,10.44-30.69,11.29-33.25s1.45-4.82,1.82-6.31c.6,2.65,1.77,7.39,3.5,13.89,1.78,6.65,4.13,15.8,7.09,26.36Z"/><path class="cls-71" d="M1623.77,2696.17v-97.88c0-10.68-9.86-19.95-21.2-20.24l-42.45-1.11c-3,8.23-6.27,15.64-9.32,23.37-1.93,4.86-3.89,9.83-5.7,14.7-6.87,18.63-12.41,37.39-13.12,56.59a107.08,107.08,0,0,0,.49,15.51,103.7,103.7,0,0,0,4.69,21.74,14.45,14.45,0,0,1,.83,2.48l64.58,3.33C1613.91,2715.25,1623.77,2706.85,1623.77,2696.17Z"/><path class="cls-72" d="M1216.29,2569.57l-36.62-6a25.17,25.17,0,0,0-5.41-.43H1067.11c-11.95,0-20.76,8.26-20.76,19.44V2685c0,9.76,6.47,18.78,16.37,19.6h0v-.07c.45.08.9.1,1.36.15l40.45,5.55,5.1-6.37h1.07l63.9-1.63c11.44-.3,21.41-9.6,21.41-20.48v-85.91Z"/><path class="cls-73" d="M1211.24,2568.88l-106.08.11c-11.78,0-22.22,8.77-22.22,19.87v101.76c0,11.1,10.47,19.82,22.25,19.51L1211,2707.3c11.28-.3,20.73-9.3,20.73-20.1v-99C1231.76,2577.36,1222.51,2568.86,1211.24,2568.88Z"/><path class="cls-67" d="M1190,2643.23c-2.63-3.44-6.25-5.75-12.76-6.93v-.61c5.7-.77,7.76-2.86,10.38-6.32s3.88-7.86,3.88-13.21c0-7.87-3-13.47-9-17s-15.3-5.21-28.73-5.13l-29.34.16v91.18l35.26-.79c10.69-.24,18.91-3.15,25.1-7.85s9.22-11.34,9.22-19.49C1194,2651.45,1192.65,2646.65,1190,2643.23Zm-46.1-34.48,10.62-.09c5.75,0,9.9,1,12.56,2.5s4,4.1,4,7.54c0,3.68-1.23,6.42-3.65,8.05s-6.31,2.55-11.75,2.62l-11.73.14Zm25.3,55.65c-2.62,2.06-6.62,2.82-12.15,2.93l-13.15.25v-23.36l12.5-.19c11.22-.16,16.77,3.55,16.77,11,0,4.14-1.32,7.31-3.94,9.37Z"/><path class="cls-74" d="M1082.94,2690.62V2588.86c0-11.1,10.47-19.85,22.25-19.87h38.47c-2.23,6.93-4.21,16.57-5.93,25-4.07,19.71-6.18,39.59-4.07,59.75a170.86,170.86,0,0,0,6.33,30.43c2.47,8.33,5.41,16.28,8.55,24.85l-43.36,1.15C1093.4,2710.44,1082.94,2701.72,1082.94,2690.62Z"/><path class="cls-75" d="M1904.16,2231.1c-2.41-12.74-14.81-11-18.59,19.41s16.52,44.09,16.52,44.09C1906.22,2295.11,1906.57,2243.83,1904.16,2231.1Z"/><polygon class="cls-76" points="2188.19 2366.35 2212.29 2134.35 2000.48 2155.4 1997.36 2414.77 2188.19 2366.35"/><polygon class="cls-77" points="1896.46 2070.81 2000.48 2155.4 1997.36 2414.77 1904.56 2325.73 1896.46 2070.81"/><path class="cls-78" d="M2185.55,2346.07s19.11-11.12,17-33.44-7.23-55.88-17-38.07S2178.33,2343.48,2185.55,2346.07Z"/><path class="cls-79" d="M949.94,2890.58c0,15-.63,29.57-5.22,43.82-.4,1.35-.87,2.71-1.37,4.07h0c-20.42,83.22-93.79,148.31-181.36,153.74a180.35,180.35,0,0,1-34.61-1.13h-.29a173.38,173.38,0,0,1-127.69-84l-.12-.2c-15.86-26.86-24.84-59.06-24.86-93.49,0-55,23.16-105.75,60.15-143.48h0c7.33-6.36,15.22-14.2,23.58-20.33,2.37-1.78,4.79-2.1,7.25-5.21h0c6.13-3.33,12.5-7.42,19.11-10.87a193.6,193.6,0,0,1,77.92-21.61,180.91,180.91,0,0,1,62,6.9A172.81,172.81,0,0,1,902,2766.11h.35c0,2.1,3.39,4,5.21,6.12s3.38,4.19,5,6.36C936.26,2809,949.92,2847.67,949.94,2890.58Z"/><path class="cls-80" d="M727.38,3091.11h-.29a173.38,173.38,0,0,1-127.69-84C648.6,2834.19,801,2794.56,801,2794.56l31.2,23.16c1.14,5.6,2,11.19,2.73,16.7C850.61,2956.8,765.54,3054.19,727.38,3091.11Z"/><path class="cls-81" d="M949.94,2890.58c0,15-.63,29.57-5.22,43.82-.52-70-41.61-112-62.14-128.54a109.92,109.92,0,0,0-11.4-8.27l-9.75-24,19.64-3.58,20.64-3.79C931.89,2798.05,949.91,2841.55,949.94,2890.58Z"/><path class="cls-82" d="M836.82,2770l-13.39,5.26q-6.66-4.23-13.24-7.77c-71-38.27-136-18-175.59,3.39,33.54-33.57,78.49-55.58,127.89-58.64a180.87,180.87,0,0,1,62,6.75c5.79,10.42,8.84,22,10.45,31.54A121.12,121.12,0,0,1,836.82,2770Z"/><ellipse class="cls-67" cx="833.8" cy="2790.92" rx="35.53" ry="37.81" transform="translate(-2058.06 2442.18) rotate(-66.49)"/><g class="cls-83"><path class="cls-84" d="M765,3042.12c-16.54-22.68,8.9-45.88,4.4-94.43-6.84-73.71-72.25-93.11-71.12-156.1.32-17.51,5.89-42.49,34.67-75.2-91.73,21.25-160.74,105.19-158.46,201.6,2.49,105.86,90,183.94,195.07,174.42,35.83-3.25,69.07-18.07,97.2-38C828,3061.6,782.5,3066.12,765,3042.12Z"/></g><circle class="cls-3" cx="2393.25" cy="946.3" r="160.22" transform="translate(31.83 1969.45) rotate(-45)"/><circle class="cls-67" cx="2393.25" cy="946.3" r="126.27"/><rect class="cls-3" x="2360.31" y="889.98" width="14.15" height="84.87" rx="6.72" transform="translate(-10.98 1836.46) rotate(-42.31)"/><rect class="cls-3" x="2377.39" y="934.12" width="65.07" height="14.15" rx="6.72" transform="translate(-5.81 1867.39) rotate(-42.31)"/><rect class="cls-4" x="1153.89" y="745.08" width="806.73" height="532.17" rx="35.64"/><rect class="cls-3" x="1167.45" y="758.63" width="779.61" height="505.05" rx="22.08"/><path class="cls-67" d="M1260.1,873.41c-7,3.65-13.73,12.09-12.17,21.78s11,16.38,18.34,18.68c10.32,3.21,13.7-2.88,24.73-1.54,16.6,2,29.48,18.32,34.85,30.18,5.27,11.64,1.2,14.32,4.62,27.63,6,23.35,24.32,37.83,41.66,51.51,14.33,11.33,36,24.95,39.88,21,1.37-1.43.12-4.71-.64-6.7-3-7.88-9.85-9.74-19.22-17.19-6.69-5.32-15.15-12.06-13.8-17.34s12-8.25,19.93-5.85,12.18,10,14.23,13.6c1.75,3.11,1.47,7.11,3.09,7.33,1.11.14,2.34-1.47,2.89-2.86,1.42-3.59-1.1-7.1-2-9.9-2.13-6.46,2.84-13.31,7.77-20.11,8.21-11.34,13-11.31,25.66-24.34,8.41-8.67,12.6-13.12,13-19.58.74-11.06-8.79-19.7-10.4-21.15-7.74-7-20.92-12.15-26.53-7.54-5,4.15.31,12.65-5.62,18.76-4.15,4.27-11.45,4.92-17.16,3A20,20,0,0,1,1390,915.55c-.1-1.35-.54-7.57,3.69-11.67,1.21-1.17,4.14-3.47,14-3.43,13.77,0,16.65,4.6,24.81,3.16,6.79-1.19,14.93-6.11,14.82-11.33-.14-6.12-11.5-7.31-24.64-21.81-5.14-5.67-9.33-10.42-9-16.3.44-8.27,9.53-14.24,11.33-15.42,7-4.63,13.28-8.34,13.28-8.34,1.76-1,4.3-2.54,4-4.13-.2-1-1.57-1.85-4-2.7a32,32,0,0,0-13.72-1.79c-9.28,1.35-12.23,5.6-23.65,10.87a83.78,83.78,0,0,1-23.21,7.42c-12.32,1.91-16.58-.57-22.73,3.46-5.94,3.9-4,7.59-10.17,13.84-6.43,6.56-14.33,8.43-26.67,11.36a138.06,138.06,0,0,1-27.61,3.53C1271.46,872.89,1267.41,869.6,1260.1,873.41Z"/><path class="cls-67" d="M1461.74,830.46c-12.39,2.41-23.23,4.52-25.47,11.86a12.69,12.69,0,0,0,3.25,12.25c6.57,6,16.37-2.24,23.51,3,3.81,2.82,2.38,6.18,6.79,25.44,2.94,12.83,5.34,19,9.9,24.69,2.58,3.21,6.2,7.7,9.77,7.15,5.27-.8,3.23-11.54,11.53-18.78,2.9-2.53,3.43-1.46,17.2-7.36,8-3.42,12-5.16,12.86-6.73,4.45-8-7.54-18.68-2.76-28.18.9-1.79,1-.82,7.13-8.09,7-8.33,6.89-9.71,6.71-10.4-.79-2.92-6-3.5-19.62-6.07-22.78-4.3-24.65-5.76-31.46-4.64-4.54.74-5.74,1.72-15.57,3.61C1467.8,829.74,1466.94,829.45,1461.74,830.46Z"/><path class="cls-67" d="M1430.92,1042.6c-7,5.06-8.31,13.85-8.86,17.41-1.36,8.82,1.27,14.57,6.19,29,6,17.55,8.94,26.3,9.4,31.28.71,7.73-.71,9.11-6.32,39.76-4.18,22.85-4.62,28.78-.69,32.77,5.75,5.87,18,4.67,18.52,3.09.23-.77-2.42-1.31-4.42-3.8-4.48-5.54-1.3-15.15-.47-17.68,3.3-10,9.64-14.41,19.84-24.47,12-11.81,19.73-19.46,25.38-30.64,2.81-5.54,8.77-17.72,6.86-33.36a52.68,52.68,0,0,0-9.8-24.42,53.5,53.5,0,0,0-28-19.4C1450.67,1039.83,1439.39,1036.45,1430.92,1042.6Z"/><path class="cls-67" d="M1546.17,988.63c-4.25,8.26-9,17.41-10.78,25.89-1.63,7.59-3.16,24.85,5.4,31.53,7.71,6,16.5-2.13,27.16,4.58,5.42,3.41,7.82,8.46,10.71,14.55,6.2,13.06,3.31,20.32,6,37.11,1.27,7.89,5.29,32.91,15,34.39,8.07,1.22,16.75-14.32,18.19-16.91,3.84-6.87,5.29-14,8-27.8,3.69-18.65,2.28-21.24,6.23-26.49,5.07-6.74,11.23-7.53,12.55-14,1-4.73-1.41-9-2.85-11.62-5.3-9.73-12.65-8.7-17.68-18.13-2.89-5.44-3.7-11.88-2.54-12.49s3.94,3.42,5.34,5.34c4.3,5.89,3.79,8,6.4,11,5.26,6,14.06,5,14.72,5,4-.5,11.23-2.88,12.09-7.78.66-3.77-2.65-7.84-6.63-12.74-3.22-4-5.63-5.68-5.24-6.42s3.24.27,10.76,3.12c8.12,3.09,12.17,4.63,12.74,5,2.72,1.7,5,4,12.69,17.5s10.53,20.49,12.26,19.92c.86-.28.7-2.15,1.3-8.46.9-9.44,1.39-14.22,3.6-17.63,1.86-2.86,5.84-6.73,10-6.15,2.47.35,5.46,4.53,11.32,12.85s7.7,11,11.56,13.11c2,1.14,5.66,3.16,8.49,1.45,3.13-1.91,4.18-7.73,2.85-11.93-1.6-5.09-6-5.6-5.89-8.71.16-4.43,9.23-7.27,10-7.51,5.83-1.76,7.33.31,10.3-1.7,4.4-3,6.17-11,5-17.16-1.17-6.39-5.06-8.81-3.9-11.55,1-2.3,4.08-1.42,10.2-3,4.53-1.17,11.2-2.9,14.81-8.56,2.14-3.37,2.51-7,3.07-12.71a60.72,60.72,0,0,0-.07-11.36c-.78-8.38-2.39-9-1.63-11.42,1.66-5.28,9.81-3.48,25.14-7.83,8.72-2.47,15-5.58,15.59-4.24.78,1.67-9.36,6-10,14.65-.49,6.59,4.66,13.43,6.8,12.87,1.77-.46.46-5.7,3.58-13.17,1.15-2.75,2.89-6.91,6.62-9.51,4.47-3.11,7.13-.71,11.13-4,3.2-2.66,2.38-4.92,5-7.75,6-6.4,16.27-1.24,16.91-3.68.59-2.25-7.31-9.8-17.6-11.94-9.2-1.91-10.6,2.5-21.1,2-6-.28-13.29-3.36-28-9.57-8.37-3.53-12.74-5.88-20.37-6.81-5.34-.64-5.49.22-11.09-.63-6.37-1-14.29-2.15-20.55-8.36-4.92-4.89-3.43-7.54-7.5-10.55-6.57-4.88-15.56-1.74-23.23,1.08-8.18,3-14,6.91-23.91,13.56-11.59,7.78-15.48,11.77-22,10.6-4.86-.88-5.87-3.68-11.34-3.94-4.43-.22-5.82,1.53-14.85,5.18-8.79,3.54-13.28,5.31-17.14,4.38-6-1.45-6.24-5.89-12.77-9-7-3.28-13.67-1.47-21.85.75-10.15,2.76-20.19,5.48-25.06,14.44-5.16,9.52-.29,18.31-6.16,22.43-4.88,3.42-9.92-1.46-14.45,2.15-5.46,4.34-3.78,15.88-2.89,22,1.74,12,6,15,4.57,23.35C1550.73,980.8,1549.61,981.92,1546.17,988.63Z"/><path class="cls-67" d="M1644.87,1087.88c-2.46-.23-6.54,10.39-5.5,20.39.06.59.91,8.35,3.19,8.56,2.12.2,4.29-6.2,4.51-6.87a26.72,26.72,0,0,0,1-10.52C1647.93,1097.81,1647.17,1088.1,1644.87,1087.88Z"/><path class="cls-67" d="M1731,1062.81c-.17.46.5,1.22,2.36,2.84,4.92,4.27,7.37,6.4,11.4,7.9,3.47,1.31,12.07,3.64,13.89.2,1.16-2.2-.55-6.58-3.27-8.61-2.89-2.16-5.05-.25-12-.62C1736.24,1064.15,1731.43,1061.71,1731,1062.81Z"/><path class="cls-67" d="M1755.29,1043.89c-1.42.26-1,3.37-3.82,10.1-1.29,3.15-2,4-1.59,5.06.92,2.38,6.36,3.49,9,.66,2.5-2.62,1.33-7.34.92-9C1759.05,1047.59,1757,1043.6,1755.29,1043.89Z"/><path class="cls-67" d="M1784.11,1069.88c1.06,1.71,2.86,3.83,7.26,6,1.53.74,12.8,6.21,15.6,1.92,1.13-1.75.56-4.63-.35-6.36-1.4-2.68-3.94-3.31-8.11-4.51-12.48-3.61-15.32-5.38-16.33-3.77C1781,1064.94,1783.52,1068.94,1784.11,1069.88Z"/><path class="cls-67" d="M1762.6,1031.32c-1.51.51-1.37,8.23,1.36,14.36,1.42,3.18,4,7,5.15,6.44s.58-6-.37-9.67C1767.31,1037,1764.06,1030.82,1762.6,1031.32Z"/><path class="cls-67" d="M1774.52,995.27c0-1.8,4-1.3,9.14-4.83a33,33,0,0,0,11.52-14.66c.56-1.44,1.13-3.26,1.55-3.15.63.15.73,4.63,0,8.5-1.27,7.15-5.48,13.5-10.87,16.47a9.17,9.17,0,0,1-5,1.34C1777.91,998.78,1774.5,996.93,1774.52,995.27Z"/><path class="cls-67" d="M1764.26,1100.26c-7,6.93-10.82,5.78-11.84,9.64-1.16,4.38,3.68,6.23,4.6,15,.57,5.45-.9,8.58.37,9.35,1.93,1.17,5-6.16,12.44-9,.57-.22,8.28-3.08,14.59,1,3.66,2.35,3.21,4.7,9.18,10.38,3.8,3.62,5.78,5.45,8.14,5,3.9-.7,6.06-7,7.39-10.88,1.1-3.21,3.61-10.54,1.75-19.13-.81-3.72-1.39-2.83-12.23-19.89-3-4.73-4.21-6.77-6.92-8-5.54-2.6-11.6.72-12.59,1.27-2.18,1.19-4.08,3.22-7.9,7.29C1766.72,1097,1767,1097.53,1764.26,1100.26Z"/></g></svg>