<svg id="Layer_1" data-name="Layer 1" xmlns="http://www.w3.org/2000/svg" viewBox="0 0 1325 429"><defs><style>.cls-1{fill:#e8bd0c;}.cls-2{fill:#ff8f87;}.cls-3{fill:#eae02a;}.cls-4{fill:#8dc63f;}.cls-5{fill:#cd85e4;}.cls-6{fill:#3d427d;}.cls-7{fill:#fff;}.cls-8{fill:#333;}</style></defs><path class="cls-1" d="M1313.1,159.8a37.23,37.23,0,0,0-37.23-37.23V57.41h-65.16a37.23,37.23,0,0,0-74.46,0h-65.16V262.18h65.16a37.23,37.23,0,1,0,74.46,0h65.16V197A37.23,37.23,0,0,0,1313.1,159.8Z"/><path class="cls-2" d="M186.85,57.41a37.23,37.23,0,1,0-74.46,0H47.23v65.16a37.23,37.23,0,0,0,0,74.46v65.15h65.16a37.23,37.23,0,1,0,74.46,0H252V57.41Z"/><path class="cls-3" d="M1071.09,122.57V57.41H866.32V262.18h65.16a37.23,37.23,0,1,0,74.46,0h65.15V197a37.23,37.23,0,1,0,0-74.46Z"/><path class="cls-4" d="M866.32,122.57V57.41H801.17a37.23,37.23,0,1,0-74.46,0H661.55V262.18H866.32V197a37.23,37.23,0,1,0,0-74.46Z"/><path class="cls-5" d="M252,57.41v65.16h0A37.23,37.23,0,1,0,252,197h0v65.15h65.16a37.23,37.23,0,1,0,74.46,0h65.16V57.41Z"/><path class="cls-6" d="M694.31,159.8a37.22,37.22,0,0,0-32.76-36.94V57.41H456.78v65.16a37.23,37.23,0,1,0,0,74.46v65.15H661.55V196.74A37.23,37.23,0,0,0,694.31,159.8Z"/><path class="cls-7" d="M187.1,190.8a4.82,4.82,0,0,1-1.25,3.68,5.07,5.07,0,0,1-3.47,1.82,5.23,5.23,0,0,1-3.91-1.39L137.2,163.77l2.69,30.72a5.64,5.64,0,0,1-1.09,4.21,5.52,5.52,0,0,1-4,1.87,5.36,5.36,0,0,1-4.1-1.16,5.49,5.49,0,0,1-1.87-3.95l-5.74-65.65a5.62,5.62,0,0,1,1.15-4.16,5.29,5.29,0,0,1,3.84-1.9,5.21,5.21,0,0,1,6.08,5.1l2.57,29.44,33.72-36.62a4.93,4.93,0,0,1,7.09-.62,4.71,4.71,0,0,1,1.8,3.3,5.14,5.14,0,0,1-1.49,3.92l-29.52,31.38,36.62,27.55A5.13,5.13,0,0,1,187.1,190.8Z"/><path class="cls-7" d="M327.85,197a5.57,5.57,0,0,1-1.15-4.22l5.75-65.65a5.57,5.57,0,0,1,1.85-3.89,5.3,5.3,0,0,1,4.12-1.21,5.2,5.2,0,0,1,5.09,6.07l-5.74,65.65a5.65,5.65,0,0,1-1.81,4,5.53,5.53,0,0,1-4.26,1.14A5.44,5.44,0,0,1,327.85,197Z"/><path class="cls-7" d="M540.13,199.42a5.29,5.29,0,0,1-1.79-3.79l-5.69-65a5.35,5.35,0,0,1,1.11-4,5.46,5.46,0,0,1,3.9-1.81l21.06-1.84q18.38-1.61,29.34,7.4t12.54,27q1.57,18-7.65,28.87t-27.6,12.43l-21.06,1.84A5.44,5.44,0,0,1,540.13,199.42Zm49.19-41.06q-2.51-28.58-30.44-26.13l-14.82,1.3,5,57.26,14.82-1.29Q591.84,187.06,589.32,158.36Z"/><path class="cls-7" d="M737.39,194.21a5.26,5.26,0,0,1-1.11-4.05l5.69-65a5.31,5.31,0,0,1,1.79-3.8,5.49,5.49,0,0,1,4.16-1.1L769,122.1q18.38,1.62,27.61,12.38t7.66,28.82q-1.57,18-12.55,27.1t-29.34,7.45L741.29,196A5.46,5.46,0,0,1,737.39,194.21ZM793,162.31q2.49-28.58-25.44-31L752.69,130l-5,57.27,14.83,1.3Q790.44,191,793,162.31Z"/><path class="cls-7" d="M957.71,197.65a5.57,5.57,0,0,1-1.87-4l-5.74-65.65a5.62,5.62,0,0,1,1.15-4.16,5.31,5.31,0,0,1,3.84-1.9,5.2,5.2,0,0,1,6.08,5.09l5.74,65.65a5.66,5.66,0,0,1-1.09,4.21,5.52,5.52,0,0,1-4,1.87A5.38,5.38,0,0,1,957.71,197.65Z"/><path class="cls-7" d="M1146.93,195a5.29,5.29,0,0,1-1.1-4l5.68-65a5.31,5.31,0,0,1,1.8-3.79,5.46,5.46,0,0,1,4.15-1.1l39.54,3.46a5.62,5.62,0,0,1,3.71,1.51,4.2,4.2,0,0,1,1,3.45,4,4,0,0,1-1.63,3.16,5.77,5.77,0,0,1-3.91.8l-34.17-3L1160,154.26l32,2.8a5.65,5.65,0,0,1,3.71,1.52,4.82,4.82,0,0,1-.59,6.66,5.61,5.61,0,0,1-3.91.85l-32-2.81-2.19,25,34.17,3q5.14.45,4.77,4.85a4.22,4.22,0,0,1-1.64,3.22,5.61,5.61,0,0,1-3.91.85l-39.54-3.46A5.47,5.47,0,0,1,1146.93,195Z"/><path class="cls-8" d="M264.51,401.41a35.06,35.06,0,0,1-13.72-15.25Q246,376.21,246,362.67t4.82-23.37a35.06,35.06,0,0,1,13.72-15.25q8.91-5.31,21.11-5.31a45.08,45.08,0,0,1,15.44,2.63,37.56,37.56,0,0,1,12.63,7.5,5.7,5.7,0,0,1,1.95,4.27,4.79,4.79,0,0,1-1,3,2.83,2.83,0,0,1-2.32,1.28,6.83,6.83,0,0,1-3.53-1.34,45.71,45.71,0,0,0-11.29-6.83,32.29,32.29,0,0,0-11.65-1.95q-14.16,0-21.78,9.21t-7.63,26.17q0,17.08,7.63,26.29t21.78,9.22a32.2,32.2,0,0,0,11.59-2,45,45,0,0,0,11.35-6.83,6.92,6.92,0,0,1,3.53-1.34,2.9,2.9,0,0,1,2.32,1.22,4.73,4.73,0,0,1,1,3.05,5.68,5.68,0,0,1-1.95,4.27,37.56,37.56,0,0,1-12.63,7.5,45.08,45.08,0,0,1-15.44,2.63Q273.43,406.72,264.51,401.41Z"/><path class="cls-8" d="M345.35,404.46a4.33,4.33,0,0,1-1.41-3.36V324.23a5.15,5.15,0,0,1,1.35-3.72,5.48,5.48,0,0,1,7.32,0,5.19,5.19,0,0,1,1.34,3.72v73h39.41a5,5,0,0,1,3.42,1.1,4.73,4.73,0,0,1,0,6.34,5,5,0,0,1-3.42,1.1H348.83A5,5,0,0,1,345.35,404.46Z"/><path class="cls-8" d="M426.92,397.93q-8.67-8.79-8.67-25.87V324.23a5.19,5.19,0,0,1,1.34-3.72,4.86,4.86,0,0,1,3.66-1.4,4.68,4.68,0,0,1,3.54,1.4,5.15,5.15,0,0,1,1.35,3.72v48.69q0,12.57,6.16,18.91t18.12,6.35q12,0,18.05-6.35t6.11-18.91V324.23a5,5,0,0,1,1.4-3.72,5.41,5.41,0,0,1,7.26,0,5.19,5.19,0,0,1,1.34,3.72v47.83q0,17-8.72,25.81t-25.44,8.85Q435.58,406.72,426.92,397.93Z"/><path class="cls-8" d="M579.74,368.89q4.08,5.37,4.09,13.42,0,11.35-7.45,17.39t-21.11,6H524.53a5.16,5.16,0,0,1-3.72-1.34,4.68,4.68,0,0,1-1.41-3.54V324.6a4.68,4.68,0,0,1,1.41-3.54,5.16,5.16,0,0,1,3.72-1.34h29.4q13.3,0,20.62,5.86t7.32,16.59a19.94,19.94,0,0,1-3.6,12,21.3,21.3,0,0,1-10.06,7.44A20.49,20.49,0,0,1,579.74,368.89Zm-50.45-11h23.18q9.63,0,14.58-3.9T572,342.66Q572,328,552.47,328H529.29Zm40,35.81q4.82-3.72,4.81-11.65,0-15.85-19.76-15.86h-25v31.23h25Q564.42,397.44,569.25,393.72Z"/><path class="cls-8" d="M683.82,320.51a5.34,5.34,0,0,1,1.28,3.72v77a5.34,5.34,0,0,1-1.28,3.72,4.66,4.66,0,0,1-3.6,1.4,4.83,4.83,0,0,1-3.66-1.4,5.15,5.15,0,0,1-1.35-3.72v-34.9H623.73v34.9a5.15,5.15,0,0,1-1.35,3.72,4.83,4.83,0,0,1-3.66,1.4,4.66,4.66,0,0,1-3.6-1.4,5.34,5.34,0,0,1-1.28-3.72v-77a5.34,5.34,0,0,1,1.28-3.72,4.66,4.66,0,0,1,3.6-1.4,4.83,4.83,0,0,1,3.66,1.4,5.15,5.15,0,0,1,1.35,3.72v33.56h51.48V324.23a5.15,5.15,0,0,1,1.35-3.72,4.83,4.83,0,0,1,3.66-1.4A4.66,4.66,0,0,1,683.82,320.51Z"/><path class="cls-8" d="M733.72,401.35a35.25,35.25,0,0,1-13.6-15.25q-4.77-9.89-4.76-23.31t4.69-23.49a34.41,34.41,0,0,1,13.55-15.25q8.85-5.31,20.92-5.31t20.93,5.31A34.39,34.39,0,0,1,789,339.3q4.69,9.94,4.7,23.37T788.93,386a35.19,35.19,0,0,1-13.6,15.31q-8.85,5.37-20.81,5.37T733.72,401.35ZM775.82,389q7.62-9.21,7.62-26.29t-7.56-26.23q-7.57-9.17-21.36-9.15t-21.29,9.21q-7.62,9.21-7.62,26.17t7.62,26.23q7.62,9.27,21.29,9.28T775.82,389Z"/><path class="cls-8" d="M832,397.93q-8.65-8.79-8.66-25.87V324.23a5.19,5.19,0,0,1,1.34-3.72,4.86,4.86,0,0,1,3.66-1.4,4.69,4.69,0,0,1,3.54,1.4,5.19,5.19,0,0,1,1.34,3.72v48.69q0,12.57,6.16,18.91t18.12,6.35q12,0,18.06-6.35t6.1-18.91V324.23a5,5,0,0,1,1.41-3.72,5.41,5.41,0,0,1,7.26,0,5.19,5.19,0,0,1,1.34,3.72v47.83q0,17-8.73,25.81t-25.44,8.85Q840.67,406.72,832,397.93Z"/><path class="cls-8" d="M934.43,404a35.86,35.86,0,0,1-13.36-7.38,5.6,5.6,0,0,1-1.83-4.27,4.79,4.79,0,0,1,1-3,2.86,2.86,0,0,1,2.32-1.28,5.93,5.93,0,0,1,3.41,1.34,41.13,41.13,0,0,0,25.87,8.79q10.5,0,16.11-4t5.61-11.47a9.2,9.2,0,0,0-2.69-6.89,19.21,19.21,0,0,0-7.07-4.21,106.14,106.14,0,0,0-11.84-3.3,114.38,114.38,0,0,1-16.41-4.88,25.56,25.56,0,0,1-10.37-7.32q-4-4.75-4-12.45a22.13,22.13,0,0,1,4-13,25.61,25.61,0,0,1,11.1-8.78,40.32,40.32,0,0,1,16.29-3.12,47.24,47.24,0,0,1,15.93,2.63,33.6,33.6,0,0,1,12.38,7.5,6,6,0,0,1,1.95,4.27,4.78,4.78,0,0,1-1,3,2.86,2.86,0,0,1-2.32,1.28,7.34,7.34,0,0,1-3.54-1.34,41.67,41.67,0,0,0-11.1-6.83,34.75,34.75,0,0,0-12.33-1.95q-10.12,0-15.74,4.2a13.9,13.9,0,0,0-5.61,11.78q0,6.47,4.94,9.7t15.19,5.67q11.1,2.69,17.45,4.94a26.13,26.13,0,0,1,10.55,6.78q4.21,4.51,4.21,12.08a21.1,21.1,0,0,1-4,12.68,25.84,25.84,0,0,1-11.16,8.55,42,42,0,0,1-16.48,3.05A55.75,55.75,0,0,1,934.43,404Z"/><path class="cls-8" d="M1013.38,404.4a4.68,4.68,0,0,1-1.41-3.54V324.6a4.68,4.68,0,0,1,1.41-3.54,5.16,5.16,0,0,1,3.72-1.34h45.63a5,5,0,0,1,3.42,1.1,4.42,4.42,0,0,1,0,6.1,5,5,0,0,1-3.42,1.1h-40.87v29.89h38.43a5,5,0,0,1,3.42,1.1,4.42,4.42,0,0,1,0,6.1,5,5,0,0,1-3.42,1.1h-38.43v31.23h40.87a5.14,5.14,0,0,1,3.42,1,4.5,4.5,0,0,1,0,6.16,5,5,0,0,1-3.42,1.1H1017.1A5.16,5.16,0,0,1,1013.38,404.4Z"/></svg>