<svg id="Layer_1" data-name="Layer 1" xmlns="http://www.w3.org/2000/svg" viewBox="0 0 1325 429"><defs><style>.cls-1{fill:#fff;}</style></defs><path class="cls-1" d="M133.15,186a5.31,5.31,0,0,1-1.39,4.1,5.59,5.59,0,0,1-3.86,2,5.83,5.83,0,0,1-4.35-1.55L77.6,155.88l3,34.21a6.28,6.28,0,0,1-1.22,4.69,6.14,6.14,0,0,1-4.46,2.08,6,6,0,0,1-4.57-1.29,6.18,6.18,0,0,1-2.07-4.4l-6.4-73.1a6.21,6.21,0,0,1,1.29-4.63,5.87,5.87,0,0,1,4.27-2.12A5.82,5.82,0,0,1,74.2,117l2.86,32.78L114.6,109a5.52,5.52,0,0,1,7.9-.69,5.33,5.33,0,0,1,2,3.68,5.71,5.71,0,0,1-1.67,4.37L90,151.3,130.75,182A5.69,5.69,0,0,1,133.15,186Z"/><path class="cls-1" d="M289.88,192.82a6.14,6.14,0,0,1-1.27-4.69L295,115a6.22,6.22,0,0,1,2.07-4.34,5.93,5.93,0,0,1,4.58-1.34,5.79,5.79,0,0,1,5.67,6.76l-6.39,73.1a6.32,6.32,0,0,1-2,4.4,6.13,6.13,0,0,1-4.76,1.28A6,6,0,0,1,289.88,192.82Z"/><path class="cls-1" d="M526.25,195.58a5.91,5.91,0,0,1-2-4.22L517.92,119a5.93,5.93,0,0,1,1.24-4.51,6.09,6.09,0,0,1,4.34-2l23.45-2q20.46-1.78,32.67,8.23t14,30.12q1.77,20.1-8.51,32.15t-30.74,13.84l-23.45,2.06A6.14,6.14,0,0,1,526.25,195.58ZM581,149.86q-2.78-31.82-33.89-29.1l-16.51,1.45L536.2,186l16.51-1.44Q583.82,181.8,581,149.86Z"/><path class="cls-1" d="M745.89,189.77a5.92,5.92,0,0,1-1.23-4.5L751,112.89a5.92,5.92,0,0,1,2-4.23,6.08,6.08,0,0,1,4.63-1.22l23.45,2q20.46,1.79,30.74,13.78t8.52,32.09q-1.76,20.1-14,30.18t-32.67,8.29l-23.45-2.05A6.14,6.14,0,0,1,745.89,189.77Zm61.88-35.51q2.79-31.83-28.32-34.54l-16.51-1.45L757.36,182l16.51,1.44Q805,186.21,807.77,154.26Z"/><path class="cls-1" d="M991.22,193.61a6.17,6.17,0,0,1-2.08-4.4l-6.39-73.1a6.23,6.23,0,0,1,1.28-4.63,5.92,5.92,0,0,1,4.28-2.12,5.79,5.79,0,0,1,6.76,5.67l6.4,73.1a6.28,6.28,0,0,1-1.22,4.69,6.16,6.16,0,0,1-4.46,2.08A6,6,0,0,1,991.22,193.61Z"/><path class="cls-1" d="M1201.92,190.62a5.9,5.9,0,0,1-1.23-4.51l6.33-72.38a5.9,5.9,0,0,1,2-4.23,6.07,6.07,0,0,1,4.62-1.22l44,3.85a6.27,6.27,0,0,1,4.13,1.69,4.7,4.7,0,0,1,1.17,3.84,4.51,4.51,0,0,1-1.81,3.52,6.47,6.47,0,0,1-4.36.88l-38-3.33-2.33,26.56,35.65,3.12a6.3,6.3,0,0,1,4.14,1.69,5.37,5.37,0,0,1-.65,7.42,6.27,6.27,0,0,1-4.37.94l-35.65-3.12-2.44,27.88,38.05,3.33q5.74.49,5.31,5.4a4.68,4.68,0,0,1-1.82,3.58,6.25,6.25,0,0,1-4.36.95l-44-3.86A6,6,0,0,1,1201.92,190.62Z"/><path class="cls-1" d="M219.36,353.68a39.06,39.06,0,0,1-15.29-17q-5.37-11.07-5.36-26.16t5.36-26a39.09,39.09,0,0,1,15.29-17q9.91-5.91,23.5-5.91a50.14,50.14,0,0,1,17.19,2.93,41.67,41.67,0,0,1,14.06,8.35,6.34,6.34,0,0,1,2.17,4.76A5.35,5.35,0,0,1,275.2,281a3.17,3.17,0,0,1-2.58,1.43,7.69,7.69,0,0,1-3.94-1.49,50.52,50.52,0,0,0-12.57-7.61,35.92,35.92,0,0,0-13-2.18q-15.75,0-24.25,10.26t-8.49,29.14q0,19,8.49,29.28t24.25,10.26A36,36,0,0,0,256,347.91a50.37,50.37,0,0,0,12.64-7.61,7.62,7.62,0,0,1,3.94-1.5,3.26,3.26,0,0,1,2.58,1.36,5.3,5.3,0,0,1,1.08,3.4,6.3,6.3,0,0,1-2.17,4.75,41.7,41.7,0,0,1-14.06,8.36,50.14,50.14,0,0,1-17.19,2.92Q229.27,359.59,219.36,353.68Z"/><path class="cls-1" d="M309.36,357.08a4.83,4.83,0,0,1-1.56-3.74V267.75a5.76,5.76,0,0,1,1.5-4.15,6.1,6.1,0,0,1,8.15,0,5.8,5.8,0,0,1,1.49,4.15V349h43.89a5.46,5.46,0,0,1,3.8,1.23,5.26,5.26,0,0,1,0,7.06,5.46,5.46,0,0,1-3.8,1.22H313.24A5.54,5.54,0,0,1,309.36,357.08Z"/><path class="cls-1" d="M400.19,349.81q-9.65-9.78-9.65-28.8V267.75a5.76,5.76,0,0,1,1.5-4.15,5.36,5.36,0,0,1,4.07-1.56,5.2,5.2,0,0,1,3.94,1.56,5.76,5.76,0,0,1,1.5,4.15V322q0,14,6.86,21.05t20.17,7.07q13.32,0,20.11-7.07T455.48,322V267.75a5.6,5.6,0,0,1,1.57-4.15,6,6,0,0,1,8.08,0,5.76,5.76,0,0,1,1.5,4.15V321q0,18.89-9.72,28.73t-28.33,9.85Q409.83,359.59,400.19,349.81Z"/><path class="cls-1" d="M570.36,317.47q4.54,6,4.55,14.95,0,12.63-8.29,19.36t-23.5,6.72H508.88a5.74,5.74,0,0,1-4.15-1.49,5.21,5.21,0,0,1-1.56-3.94V268.16a5.18,5.18,0,0,1,1.56-3.94,5.75,5.75,0,0,1,4.15-1.5h32.74q14.8,0,23,6.52t8.15,18.48a22.18,22.18,0,0,1-4,13.31,23.68,23.68,0,0,1-11.21,8.29A22.87,22.87,0,0,1,570.36,317.47Zm-56.18-12.22H540q10.72,0,16.24-4.35t5.5-12.64Q561.73,272,540,272H514.18Zm44.49,39.87q5.37-4.14,5.37-13,0-17.67-22-17.67H514.18v34.79H542Q553.31,349.27,558.67,345.12Z"/><path class="cls-1" d="M686.25,263.6a5.94,5.94,0,0,1,1.42,4.15v85.73a5.9,5.9,0,0,1-1.42,4.14,5.18,5.18,0,0,1-4,1.56,5.39,5.39,0,0,1-4.08-1.56,5.72,5.72,0,0,1-1.49-4.14V314.62H619.33v38.86a5.76,5.76,0,0,1-1.49,4.14,5.39,5.39,0,0,1-4.08,1.56,5.14,5.14,0,0,1-4-1.56,5.86,5.86,0,0,1-1.43-4.14V267.75a5.9,5.9,0,0,1,1.43-4.15,5.14,5.14,0,0,1,4-1.56,5.39,5.39,0,0,1,4.08,1.56,5.8,5.8,0,0,1,1.49,4.15v37.36h57.34V267.75a5.76,5.76,0,0,1,1.49-4.15,5.39,5.39,0,0,1,4.08-1.56A5.18,5.18,0,0,1,686.25,263.6Z"/><path class="cls-1" d="M741.81,353.61a39.21,39.21,0,0,1-15.15-17q-5.29-11-5.29-25.95t5.23-26.15a38.29,38.29,0,0,1,15.08-17q9.84-5.91,23.3-5.91t23.3,5.91a38.41,38.41,0,0,1,15.08,17q5.22,11.07,5.23,26t-5.3,26a39.06,39.06,0,0,1-15.15,17.05q-9.85,6-23.16,6T741.81,353.61Zm46.87-13.79q8.49-10.26,8.5-29.28t-8.43-29.21q-8.41-10.18-23.77-10.19T741.27,281.4q-8.49,10.26-8.49,29.14t8.49,29.21q8.49,10.33,23.71,10.33T788.68,339.82Z"/><path class="cls-1" d="M851.25,349.81Q841.61,340,841.6,321V267.75a5.76,5.76,0,0,1,1.5-4.15,5.36,5.36,0,0,1,4.07-1.56,5.21,5.21,0,0,1,3.94,1.56,5.76,5.76,0,0,1,1.5,4.15V322q0,14,6.86,21.05t20.17,7.07q13.32,0,20.11-7.07T906.54,322V267.75a5.6,5.6,0,0,1,1.57-4.15,6,6,0,0,1,8.08,0,5.76,5.76,0,0,1,1.49,4.15V321q0,18.89-9.71,28.73t-28.33,9.85Q860.89,359.59,851.25,349.81Z"/><path class="cls-1" d="M965.3,356.53a39.61,39.61,0,0,1-14.87-8.22,6.21,6.21,0,0,1-2-4.75,5.31,5.31,0,0,1,1.09-3.33,3.17,3.17,0,0,1,2.58-1.43,6.57,6.57,0,0,1,3.8,1.5,45.78,45.78,0,0,0,28.8,9.78q11.69,0,17.94-4.48t6.25-12.77a10.27,10.27,0,0,0-3-7.68,21.64,21.64,0,0,0-7.88-4.69,120.68,120.68,0,0,0-13.18-3.67,128.27,128.27,0,0,1-18.27-5.43A28.4,28.4,0,0,1,955,303.21q-4.43-5.29-4.42-13.86A24.6,24.6,0,0,1,955,274.88a28.55,28.55,0,0,1,12.36-9.78,45,45,0,0,1,18.14-3.47,52.51,52.51,0,0,1,17.73,2.93,37.29,37.29,0,0,1,13.79,8.35,6.63,6.63,0,0,1,2.17,4.76,5.35,5.35,0,0,1-1.08,3.32,3.18,3.18,0,0,1-2.59,1.43,8.35,8.35,0,0,1-3.94-1.49,45.81,45.81,0,0,0-12.36-7.61,38.57,38.57,0,0,0-13.72-2.18q-11.28,0-17.53,4.69t-6.25,13.11q0,7.2,5.51,10.8t16.91,6.32q12.36,3,19.43,5.5a29.1,29.1,0,0,1,11.75,7.54q4.69,5,4.69,13.45a23.51,23.51,0,0,1-4.42,14.13,28.62,28.62,0,0,1-12.43,9.51,46.54,46.54,0,0,1-18.34,3.4A62.08,62.08,0,0,1,965.3,356.53Z"/><path class="cls-1" d="M1053.2,357a5.21,5.21,0,0,1-1.56-3.94V268.16a5.18,5.18,0,0,1,1.56-3.94,5.75,5.75,0,0,1,4.15-1.5h50.81a5.49,5.49,0,0,1,3.8,1.22,4.93,4.93,0,0,1,0,6.8,5.49,5.49,0,0,1-3.8,1.22h-45.51v33.29h42.79a5.49,5.49,0,0,1,3.81,1.22,4.92,4.92,0,0,1,0,6.79,5.49,5.49,0,0,1-3.81,1.22h-42.79v34.79h45.51a5.68,5.68,0,0,1,3.8,1.15,5,5,0,0,1,0,6.86,5.44,5.44,0,0,1-3.8,1.22h-50.81A5.74,5.74,0,0,1,1053.2,357Z"/></svg>