<svg id="Layer_1" data-name="Layer 1" xmlns="http://www.w3.org/2000/svg" viewBox="0 0 288 288"><defs><style>.cls-1{fill:#fff;}.cls-2{fill:#3d427d;}.cls-3{fill:#ff8f87;}.cls-4{fill:#cd85e4;}.cls-5{fill:#525252;}</style></defs><rect class="cls-1" width="288" height="288"/><path class="cls-2" d="M132,143.73a.37.37,0,0,1-.35-.26l-2.28-6.61a.36.36,0,0,1,.23-.47.38.38,0,0,1,.48.23l2.28,6.61a.37.37,0,0,1-.23.47A.31.31,0,0,1,132,143.73Z"/><path class="cls-3" d="M230.77,277.76a.38.38,0,0,1-.33-.2L228.63,274a.38.38,0,0,1,.16-.51.38.38,0,0,1,.51.17l1.81,3.57a.37.37,0,0,1-.17.5A.33.33,0,0,1,230.77,277.76Z"/><path class="cls-2" d="M64.8,277.05a.36.36,0,0,1-.35-.25.38.38,0,0,1,.23-.48l6-2.12a.38.38,0,0,1,.48.23.39.39,0,0,1-.23.48l-6,2.12Z"/><path class="cls-4" d="M37.84,118a.35.35,0,0,1-.14,0l-5.85-2.41a.39.39,0,0,1-.21-.49.37.37,0,0,1,.49-.2l5.85,2.4a.37.37,0,0,1,.21.49A.38.38,0,0,1,37.84,118Z"/><path class="cls-3" d="M16.71,51a.32.32,0,0,1-.14,0l-5.74-2.33a.37.37,0,1,1,.28-.69l5.74,2.32a.37.37,0,0,1,.2.49A.35.35,0,0,1,16.71,51Z"/><path class="cls-4" d="M110.94,265.75a.37.37,0,0,1-.29-.13l-5.5-6.51a.38.38,0,0,1,0-.53.37.37,0,0,1,.52.05l5.5,6.5a.37.37,0,0,1,0,.53A.38.38,0,0,1,110.94,265.75Z"/><path class="cls-4" d="M17.47,278.94a.46.46,0,0,1-.2-.05l-4.53-2.77a.38.38,0,0,1-.13-.52.38.38,0,0,1,.52-.12l4.53,2.77a.36.36,0,0,1,.13.51A.37.37,0,0,1,17.47,278.94Z"/><path class="cls-4" d="M205.9,178.77a.36.36,0,0,1-.32-.18.36.36,0,0,1,.12-.51l5.49-3.4a.36.36,0,0,1,.51.12.37.37,0,0,1-.12.52l-5.49,3.4A.45.45,0,0,1,205.9,178.77Z"/><path class="cls-3" d="M173,151.25a.39.39,0,0,1-.26-.1.38.38,0,0,1,0-.53l3.7-4.12a.38.38,0,0,1,.53,0,.37.37,0,0,1,0,.53l-3.7,4.12A.37.37,0,0,1,173,151.25Z"/><path class="cls-4" d="M253.28,36a.36.36,0,0,1-.36-.29.38.38,0,0,1,.28-.45l3.95-.9a.37.37,0,0,1,.45.28.38.38,0,0,1-.28.45l-3.95.9Z"/><path class="cls-4" d="M10.69,261.13a.33.33,0,0,1-.26-.11.38.38,0,0,1,0-.53L14.86,256a.38.38,0,0,1,.53,0,.39.39,0,0,1,0,.53L11,261A.36.36,0,0,1,10.69,261.13Z"/><path class="cls-4" d="M275.94,77.51a.38.38,0,0,1-.26-.11l-3.44-3.5a.37.37,0,1,1,.54-.52l3.43,3.49a.38.38,0,0,1,0,.53A.4.4,0,0,1,275.94,77.51Z"/><path class="cls-3" d="M253.07,88.55a.38.38,0,0,1-.37-.34l-.41-4.57a.37.37,0,0,1,.34-.41.38.38,0,0,1,.4.34l.41,4.57a.37.37,0,0,1-.34.41Z"/><path class="cls-4" d="M277,152.31a.39.39,0,0,1-.33-.19l-4.26-7.21a.38.38,0,0,1,.65-.39l4.26,7.22a.36.36,0,0,1-.13.51A.35.35,0,0,1,277,152.31Z"/><path class="cls-4" d="M165.36,15.27a.38.38,0,0,1-.38-.37l0-4a.38.38,0,0,1,.37-.38h0a.38.38,0,0,1,.38.38l0,3.94a.37.37,0,0,1-.37.38Z"/><path class="cls-4" d="M112.26,79.65a.37.37,0,0,1-.37-.36l-.1-5.66a.38.38,0,0,1,.37-.38.35.35,0,0,1,.38.36l.1,5.66a.37.37,0,0,1-.37.38Z"/><path class="cls-4" d="M151.89,70.93a.37.37,0,0,1-.34-.22.39.39,0,0,1,.19-.5l5.36-2.33a.37.37,0,1,1,.3.68L152,70.9A.4.4,0,0,1,151.89,70.93Z"/><path class="cls-2" d="M183.82,194.92a.37.37,0,0,1-.36-.29.36.36,0,0,1,.27-.45l7.34-1.85a.37.37,0,0,1,.45.27.38.38,0,0,1-.27.46l-7.34,1.84Z"/><path class="cls-3" d="M276.31,238.77a.33.33,0,0,1-.21-.07l-5-3.34a.37.37,0,0,1,.42-.62l5,3.34a.38.38,0,0,1,.1.52A.37.37,0,0,1,276.31,238.77Z"/><path class="cls-2" d="M41.38,209.38a.38.38,0,0,1-.37-.28l-1.87-7a.38.38,0,0,1,.27-.46.39.39,0,0,1,.46.26l1.87,7a.38.38,0,0,1-.27.46Z"/><path class="cls-3" d="M75.75,135.26h-.09l-5.4-1.41a.36.36,0,0,1-.26-.45.37.37,0,0,1,.45-.27l5.4,1.41a.37.37,0,0,1,.27.45A.38.38,0,0,1,75.75,135.26Z"/><path class="cls-2" d="M87.54,203.14a.39.39,0,0,1-.27-.1.4.4,0,0,1,0-.54l5.64-5.66a.37.37,0,1,1,.53.52L87.8,203A.33.33,0,0,1,87.54,203.14Z"/><path class="cls-4" d="M254.11,275.34a.35.35,0,0,1-.19-.06l-3.27-2a.38.38,0,0,1-.12-.52.37.37,0,0,1,.52-.12l3.26,2a.37.37,0,0,1,.12.52A.36.36,0,0,1,254.11,275.34Z"/><path class="cls-2" d="M118.51,195.09h-.11a.38.38,0,0,1-.25-.47l1.08-3.78a.38.38,0,1,1,.72.21l-1.08,3.78A.37.37,0,0,1,118.51,195.09Z"/><path class="cls-3" d="M246.82,227.44a.38.38,0,0,1-.11-.74l6.8-2.11a.38.38,0,0,1,.47.25.37.37,0,0,1-.25.46l-6.8,2.12Z"/><path class="cls-3" d="M274.68,217.88a.38.38,0,0,1-.38-.35L274,213.2a.36.36,0,0,1,.34-.4.38.38,0,0,1,.41.34l.33,4.34a.38.38,0,0,1-.34.4Z"/><path class="cls-2" d="M144.93,205.7a.45.45,0,0,1-.16,0,.37.37,0,0,1-.18-.5l1.89-4.07a.38.38,0,0,1,.5-.18.37.37,0,0,1,.18.5l-1.89,4.07A.38.38,0,0,1,144.93,205.7Z"/><path class="cls-3" d="M49.9,183.59a.39.39,0,0,1-.33-.19.37.37,0,0,1,.14-.51l7.44-4.2a.37.37,0,1,1,.36.65l-7.43,4.2A.37.37,0,0,1,49.9,183.59Z"/><path class="cls-2" d="M37.58,162.27a.38.38,0,0,1-.36-.25l-1.44-4.13a.38.38,0,0,1,.23-.48.39.39,0,0,1,.48.23l1.44,4.13a.37.37,0,0,1-.23.48A.25.25,0,0,1,37.58,162.27Z"/><path class="cls-4" d="M16.54,133.91a.35.35,0,0,1-.33-.2l-3.94-7.32a.38.38,0,0,1,.66-.36l3.94,7.33a.37.37,0,0,1-.16.5A.34.34,0,0,1,16.54,133.91Z"/><path class="cls-3" d="M205,277.16a.37.37,0,0,1-.36-.3l-1-4.27a.37.37,0,1,1,.73-.17l1,4.28a.38.38,0,0,1-.28.45Z"/><path class="cls-4" d="M272.28,55.86a.39.39,0,0,1-.28-.12.39.39,0,0,1,0-.53l3.24-3a.38.38,0,1,1,.51.55l-3.24,3A.39.39,0,0,1,272.28,55.86Z"/><path class="cls-4" d="M105.14,222a.37.37,0,0,1-.35-.26.38.38,0,0,1,.24-.48l3.72-1.22a.37.37,0,0,1,.47.23.38.38,0,0,1-.24.48L105.26,222Z"/><path class="cls-3" d="M279.38,100h-.08L273,98.55a.37.37,0,0,1-.28-.45.37.37,0,0,1,.45-.28l6.32,1.41a.38.38,0,0,1,.29.45A.38.38,0,0,1,279.38,100Z"/><path class="cls-4" d="M251,133.18a.36.36,0,0,1-.24-.09.38.38,0,0,1-.05-.53l2.51-3a.38.38,0,0,1,.53-.05.39.39,0,0,1,0,.53l-2.5,3A.38.38,0,0,1,251,133.18Z"/><path class="cls-4" d="M94.79,237.85a.38.38,0,0,1-.37-.31.36.36,0,0,1,.3-.43l6.56-1.11a.37.37,0,0,1,.12.74l-6.55,1.11Z"/><path class="cls-4" d="M181.2,87.71a.36.36,0,0,1-.32-.18l-3.81-6a.38.38,0,1,1,.64-.4l3.8,6a.37.37,0,0,1-.11.52A.36.36,0,0,1,181.2,87.71Z"/><path class="cls-4" d="M269.85,14a.38.38,0,0,1-.29-.61l3.64-4.47a.38.38,0,0,1,.58.48l-3.64,4.46A.4.4,0,0,1,269.85,14Z"/><path class="cls-3" d="M132,38h0l-7.31-.67a.38.38,0,0,1-.34-.41.37.37,0,0,1,.41-.34l7.31.67a.38.38,0,0,1,0,.75Z"/><path class="cls-3" d="M147.55,158.14a.38.38,0,0,1-.37-.31l-.73-4.29a.37.37,0,0,1,.3-.43.36.36,0,0,1,.43.3l.74,4.29a.38.38,0,0,1-.3.44Z"/><path class="cls-4" d="M152.35,232.16h-.07l-3.88-.72a.38.38,0,0,1-.3-.44.38.38,0,0,1,.44-.3l3.88.73a.37.37,0,0,1,.3.43A.38.38,0,0,1,152.35,232.16Z"/><path class="cls-4" d="M277.43,126.07a.4.4,0,0,1-.23-.08l-3.25-2.5a.37.37,0,0,1,.45-.59l3.26,2.5a.38.38,0,0,1,.07.52A.38.38,0,0,1,277.43,126.07Z"/><path class="cls-4" d="M233.67,84.45a.36.36,0,0,1-.3-.15L228.73,78a.37.37,0,0,1,.6-.44L234,83.86a.37.37,0,0,1-.08.52A.36.36,0,0,1,233.67,84.45Z"/><path class="cls-4" d="M189.29,171a.37.37,0,0,1-.28-.13l-3.39-3.94a.38.38,0,0,1,0-.53.37.37,0,0,1,.53,0l3.39,3.94a.38.38,0,0,1,0,.53A.38.38,0,0,1,189.29,171Z"/><path class="cls-3" d="M172.41,216.17a.34.34,0,0,1-.23-.08l-4.33-3.48a.38.38,0,0,1,.47-.59l4.33,3.49a.38.38,0,0,1,.06.53A.39.39,0,0,1,172.41,216.17Z"/><path class="cls-4" d="M77.1,182.12a.37.37,0,0,1-.31-.17l-2.16-3.19a.38.38,0,0,1,.63-.42l2.15,3.19a.37.37,0,0,1-.1.52A.44.44,0,0,1,77.1,182.12Z"/><path class="cls-2" d="M56.44,234.39l-.15,0a.37.37,0,0,1-.19-.49l3.19-7.14a.36.36,0,0,1,.49-.19.38.38,0,0,1,.19.5l-3.18,7.13A.38.38,0,0,1,56.44,234.39Z"/><path class="cls-3" d="M81.92,73.37a.38.38,0,0,1-.37-.28.38.38,0,0,1,.27-.46l3.72-1a.38.38,0,0,1,.2.73l-3.73,1Z"/><path class="cls-3" d="M12.43,219.28a.32.32,0,0,1-.14,0,.38.38,0,0,1-.21-.49l2.57-6.35a.39.39,0,0,1,.49-.21.37.37,0,0,1,.2.49L12.78,219A.38.38,0,0,1,12.43,219.28Z"/><path class="cls-3" d="M126.31,216.91a.37.37,0,0,1-.37-.34.38.38,0,0,1,.33-.41l7.8-.84a.35.35,0,0,1,.41.33.37.37,0,0,1-.33.41l-7.8.85Z"/><path class="cls-3" d="M97.57,96.58a.37.37,0,0,1-.36-.29l-1.34-6.05a.38.38,0,0,1,.29-.45.38.38,0,0,1,.44.29l1.34,6a.36.36,0,0,1-.28.44Z"/><path class="cls-3" d="M133,90.83a.35.35,0,0,1-.17,0,.38.38,0,0,1-.17-.5l3.73-7.51a.37.37,0,0,1,.67.33l-3.72,7.52A.38.38,0,0,1,133,90.83Z"/><path class="cls-2" d="M209.77,31.67h0l-4.4-.07a.38.38,0,0,1-.37-.38.37.37,0,0,1,.38-.37l4.4.07a.37.37,0,0,1,.37.38A.38.38,0,0,1,209.77,31.67Z"/><path class="cls-2" d="M251.15,180.44h-.06a.38.38,0,0,1-.31-.44l1.4-7.76a.38.38,0,1,1,.74.13l-1.4,7.77A.38.38,0,0,1,251.15,180.44Z"/><path class="cls-3" d="M167.22,171.41l-.1,0-5.62-1.58a.37.37,0,0,1-.26-.46.37.37,0,0,1,.46-.26l5.62,1.58a.38.38,0,0,1-.1.74Z"/><path class="cls-2" d="M79,227.76a.31.31,0,0,1-.13,0,.37.37,0,0,1-.22-.48l2.71-7a.38.38,0,0,1,.48-.22.39.39,0,0,1,.22.49l-2.71,7A.38.38,0,0,1,79,227.76Z"/><path class="cls-2" d="M175.27,279.5h0a.38.38,0,0,1-.36-.4l.29-4.51a.37.37,0,0,1,.4-.35.37.37,0,0,1,.35.4l-.29,4.51A.37.37,0,0,1,175.27,279.5Z"/><path class="cls-3" d="M245.53,63.8a.33.33,0,0,1-.21-.07.37.37,0,0,1-.09-.52l4.88-7a.37.37,0,1,1,.61.43l-4.88,7A.36.36,0,0,1,245.53,63.8Z"/><path class="cls-2" d="M176,37.27h0a.39.39,0,0,1-.34-.41l.68-7.46a.37.37,0,0,1,.4-.34.36.36,0,0,1,.34.4l-.67,7.47A.38.38,0,0,1,176,37.27Z"/><path class="cls-4" d="M159,94.17H159l-4.7-.85a.37.37,0,0,1-.3-.43.38.38,0,0,1,.44-.31l4.7.85a.38.38,0,0,1,.3.44A.38.38,0,0,1,159,94.17Z"/><path class="cls-3" d="M134.17,62.74a.36.36,0,0,1-.2-.06l-4.53-2.74a.37.37,0,0,1-.13-.51.38.38,0,0,1,.52-.13L134.36,62a.38.38,0,0,1,.13.51A.38.38,0,0,1,134.17,62.74Z"/><path class="cls-2" d="M11.84,111.17l-.13,0a.38.38,0,0,1-.22-.48l1.76-4.89A.38.38,0,0,1,14,106l-1.77,4.89A.36.36,0,0,1,11.84,111.17Z"/><path class="cls-4" d="M218.46,59a.35.35,0,0,1-.33-.2.36.36,0,0,1,.15-.5l4.5-2.39a.38.38,0,0,1,.51.15.37.37,0,0,1-.16.51l-4.5,2.39A.33.33,0,0,1,218.46,59Z"/><path class="cls-4" d="M39.29,67.23l-.1,0-4.59-1.3a.37.37,0,0,1,.2-.72l4.59,1.3a.37.37,0,0,1,.26.46A.38.38,0,0,1,39.29,67.23Z"/><path class="cls-4" d="M194.92,14.15h-.1l-8-2.2a.39.39,0,0,1-.26-.46.38.38,0,0,1,.46-.27l8,2.2a.4.4,0,0,1,.27.47A.39.39,0,0,1,194.92,14.15Z"/><path class="cls-4" d="M219.19,14a.38.38,0,0,1-.3-.16l-2.3-3.23a.36.36,0,0,1,.08-.52.39.39,0,0,1,.53.08l2.3,3.24a.37.37,0,0,1-.09.52A.34.34,0,0,1,219.19,14Z"/><path class="cls-2" d="M233.27,37.74a.39.39,0,0,1-.31-.15l-2.54-3.48a.37.37,0,0,1,.6-.44l2.55,3.48a.37.37,0,0,1-.08.52A.38.38,0,0,1,233.27,37.74Z"/><path class="cls-4" d="M57.8,116.42h-.09a.37.37,0,0,1-.27-.45l1.39-5.89a.38.38,0,0,1,.46-.28.37.37,0,0,1,.27.45l-1.39,5.89A.37.37,0,0,1,57.8,116.42Z"/><path class="cls-5" d="M136.69,179.11a.37.37,0,0,1-.38-.37.38.38,0,0,1,.37-.38l5.18-.07c.23,0,.38.16.38.37a.37.37,0,0,1-.37.38l-5.18.07Z"/><path class="cls-3" d="M151.72,44.19a.4.4,0,0,1-.15,0,.37.37,0,0,1-.2-.49l1.8-4.25a.37.37,0,1,1,.69.29L152.06,44A.38.38,0,0,1,151.72,44.19Z"/><path class="cls-3" d="M13.56,32.65l-.11,0a.38.38,0,0,1-.24-.48l1.59-4.82a.37.37,0,0,1,.47-.24.36.36,0,0,1,.24.47l-1.59,4.83A.39.39,0,0,1,13.56,32.65Z"/><path class="cls-2" d="M180.74,239a.32.32,0,0,1-.21-.06l-7-4.56a.38.38,0,1,1,.41-.63l7,4.57a.37.37,0,0,1-.2.68Z"/><path class="cls-2" d="M192.32,47.89a.37.37,0,0,1-.37-.3.38.38,0,0,1,.3-.44l6.81-1.29a.38.38,0,0,1,.14.74l-6.81,1.29Z"/><path class="cls-2" d="M96,278a.36.36,0,0,1-.25-.11L91,273.47a.38.38,0,1,1,.51-.55l4.73,4.45a.38.38,0,0,1,0,.53A.39.39,0,0,1,96,278Z"/><path class="cls-2" d="M10.88,88.47a.38.38,0,0,1-.37-.32.37.37,0,0,1,.31-.42l6-.89a.37.37,0,1,1,.11.74l-6,.89Z"/><path class="cls-5" d="M100.1,179.76l-.12,0a.38.38,0,0,1-.23-.48l1.37-3.77a.37.37,0,1,1,.7.26l-1.36,3.76A.38.38,0,0,1,100.1,179.76Z"/><path class="cls-4" d="M81.53,50.5a.26.26,0,0,1-.15,0,.37.37,0,0,1-.2-.49l1.76-4a.37.37,0,0,1,.49-.19.37.37,0,0,1,.2.49l-1.76,4.05A.38.38,0,0,1,81.53,50.5Z"/><path class="cls-3" d="M164.21,194.22a.37.37,0,0,1-.37-.36l-.21-5.71a.36.36,0,0,1,.36-.38.36.36,0,0,1,.39.36l.21,5.7a.38.38,0,0,1-.37.39Z"/><path class="cls-4" d="M270.68,259.4a.36.36,0,0,1-.29-.13.37.37,0,0,1,.05-.53l5.51-4.47a.37.37,0,1,1,.47.58l-5.51,4.47A.34.34,0,0,1,270.68,259.4Z"/><path class="cls-4" d="M11.38,239.37a.38.38,0,0,1-.25-.09.38.38,0,0,1,0-.53L14,235.49a.38.38,0,0,1,.53,0,.39.39,0,0,1,0,.53l-2.92,3.26A.36.36,0,0,1,11.38,239.37Z"/><path class="cls-4" d="M36.54,42.84h-.08a.38.38,0,0,1-.29-.45L37,38.61a.37.37,0,1,1,.73.16l-.82,3.77A.37.37,0,0,1,36.54,42.84Z"/><path class="cls-2" d="M42.67,279.62a.38.38,0,0,1-.35-.24l-3.12-7.85a.37.37,0,0,1,.21-.48.37.37,0,0,1,.49.21L43,279.1a.37.37,0,0,1-.21.49A.31.31,0,0,1,42.67,279.62Z"/><path class="cls-4" d="M83.22,26.93h-.06l-4-.65a.39.39,0,0,1-.31-.44.38.38,0,0,1,.43-.31l4,.66a.39.39,0,0,1,.31.44A.38.38,0,0,1,83.22,26.93Z"/><path class="cls-3" d="M201.77,246.5a.35.35,0,0,1-.28-.13.37.37,0,0,1,0-.53l3.34-2.86a.39.39,0,0,1,.53,0,.38.38,0,0,1-.05.53L202,246.41A.36.36,0,0,1,201.77,246.5Z"/><path class="cls-3" d="M66.27,206.87a.39.39,0,0,1-.31-.15l-2.67-3.66a.36.36,0,0,1,.08-.52.37.37,0,0,1,.52.08l2.68,3.65a.37.37,0,0,1-.3.6Z"/><path class="cls-3" d="M274,195.59a.42.42,0,0,1-.15,0,.39.39,0,0,1-.19-.5l2.11-4.56a.38.38,0,0,1,.69.31l-2.12,4.57A.37.37,0,0,1,274,195.59Z"/><path class="cls-3" d="M63.48,159.91a.39.39,0,0,1-.31-.15l-4.1-5.68a.37.37,0,0,1,.08-.52.37.37,0,0,1,.53.08l4.1,5.68a.37.37,0,0,1-.3.59Z"/><path class="cls-3" d="M38.87,18.29h-.06a.36.36,0,0,1-.31-.43l1.24-7.69a.38.38,0,0,1,.43-.31.37.37,0,0,1,.31.43L39.24,18A.38.38,0,0,1,38.87,18.29Z"/><path class="cls-4" d="M201.3,150.61a.38.38,0,0,1-.36-.25.39.39,0,0,1,.24-.48l5.52-1.9a.38.38,0,1,1,.25.71l-5.53,1.9A.25.25,0,0,1,201.3,150.61Z"/><path class="cls-4" d="M210.11,206h0a.38.38,0,0,1-.34-.41l.67-7a.37.37,0,0,1,.41-.34.38.38,0,0,1,.34.41l-.67,7A.39.39,0,0,1,210.11,206Z"/><path class="cls-5" d="M146.85,279.22l-.12,0a.38.38,0,0,1-.23-.48l1.78-5.25a.38.38,0,0,1,.48-.24.38.38,0,0,1,.24.48L147.21,279A.38.38,0,0,1,146.85,279.22Z"/><path class="cls-4" d="M63.21,11.49a.36.36,0,0,1-.37-.34.38.38,0,0,1,.34-.41l4.49-.39a.36.36,0,0,1,.4.34.37.37,0,0,1-.34.4l-4.49.4Z"/><path class="cls-4" d="M87.63,159.85a.36.36,0,0,1-.31-.18l-2.58-4.09a.38.38,0,0,1,.12-.52.38.38,0,0,1,.52.12l2.57,4.1a.36.36,0,0,1-.12.51A.36.36,0,0,1,87.63,159.85Z"/><path class="cls-4" d="M255.63,202.8a.34.34,0,0,1-.22-.07l-4.77-3.5a.36.36,0,0,1-.08-.52.37.37,0,0,1,.52-.08l4.77,3.49a.38.38,0,0,1,.08.53A.37.37,0,0,1,255.63,202.8Z"/><path class="cls-2" d="M35.32,183.81h0l-6.66-.15a.38.38,0,0,1-.37-.38.41.41,0,0,1,.39-.37l6.66.15a.38.38,0,0,1,0,.75Z"/><path class="cls-2" d="M14.74,70.81a.4.4,0,0,1-.32-.17l-2.56-4a.37.37,0,0,1,.12-.52.38.38,0,0,1,.52.11l2.56,4a.37.37,0,0,1-.12.52A.36.36,0,0,1,14.74,70.81Z"/><path class="cls-3" d="M229.25,188.78a.39.39,0,0,1-.25-.1.37.37,0,0,1,0-.53l3.3-3.57a.38.38,0,0,1,.53,0,.37.37,0,0,1,0,.53l-3.3,3.57A.39.39,0,0,1,229.25,188.78Z"/><path class="cls-2" d="M78.1,255.79a.36.36,0,0,1-.2-.06.37.37,0,0,1-.12-.52L82,248.6a.38.38,0,0,1,.52-.11.36.36,0,0,1,.12.51l-4.21,6.61A.37.37,0,0,1,78.1,255.79Z"/><path class="cls-2" d="M248.42,156.86a.39.39,0,0,1-.27-.11.37.37,0,0,1,0-.53l5.73-5.75a.39.39,0,0,1,.53,0,.37.37,0,0,1,0,.53l-5.73,5.75A.38.38,0,0,1,248.42,156.86Z"/><path class="cls-4" d="M223.67,256.53a.39.39,0,0,1-.18,0,.38.38,0,0,1-.15-.51l2-3.72a.39.39,0,0,1,.51-.16.38.38,0,0,1,.15.51l-2,3.72A.38.38,0,0,1,223.67,256.53Z"/><path class="cls-2" d="M119.23,280.27a.32.32,0,0,1-.14,0,.38.38,0,0,1-.21-.49L122,272a.39.39,0,0,1,.49-.21.38.38,0,0,1,.21.49l-3.1,7.81A.37.37,0,0,1,119.23,280.27Z"/><path class="cls-4" d="M190.12,106.43a.38.38,0,0,1-.36-.26.37.37,0,0,1,.24-.47l5.56-1.93a.39.39,0,0,1,.48.24.37.37,0,0,1-.23.47l-5.57,1.93Z"/><path class="cls-2" d="M155.05,136a.36.36,0,0,1-.2-.06.36.36,0,0,1-.12-.51l4.17-6.68a.38.38,0,0,1,.52-.12.36.36,0,0,1,.12.51l-4.17,6.68A.37.37,0,0,1,155.05,136Z"/><path class="cls-2" d="M55.77,258.6a.25.25,0,0,1-.12,0,.38.38,0,0,1-.24-.47l2.41-7.65a.37.37,0,0,1,.47-.24.38.38,0,0,1,.24.47l-2.41,7.65A.37.37,0,0,1,55.77,258.6Z"/><path class="cls-3" d="M118.62,105.25a.38.38,0,0,1-.33-.2l-2.81-5.12a.37.37,0,0,1,.15-.51.38.38,0,0,1,.51.15l2.81,5.12a.38.38,0,0,1-.15.51A.41.41,0,0,1,118.62,105.25Z"/><path class="cls-4" d="M273.38,279.27a.35.35,0,0,1-.25-.1.38.38,0,0,1,0-.53l3.87-4.32a.38.38,0,0,1,.53,0,.37.37,0,0,1,0,.52l-3.87,4.32A.35.35,0,0,1,273.38,279.27Z"/><path class="cls-4" d="M109.91,56.72a.4.4,0,0,1-.15,0L102.1,53.4a.37.37,0,0,1,.29-.69L110.05,56a.39.39,0,0,1,.2.5A.37.37,0,0,1,109.91,56.72Z"/><path class="cls-4" d="M57,86.19a.51.51,0,0,1-.17,0,.38.38,0,0,1-.16-.51l2.45-4.94a.37.37,0,1,1,.67.33L57.37,86A.38.38,0,0,1,57,86.19Z"/><path class="cls-4" d="M103.62,143.46a.4.4,0,0,1-.23-.08l-3.19-2.57a.38.38,0,1,1,.47-.59l3.19,2.57a.38.38,0,0,1,0,.53A.37.37,0,0,1,103.62,143.46Z"/><path class="cls-3" d="M259.07,110.79a.34.34,0,0,1-.22-.07l-4.2-3.14a.38.38,0,0,1,.45-.6l4.2,3.14a.37.37,0,0,1,.07.52A.36.36,0,0,1,259.07,110.79Z"/><path class="cls-3" d="M72.21,100.82a.38.38,0,0,1-.32-.19.37.37,0,0,1,.14-.51l6.84-4a.37.37,0,0,1,.51.14.37.37,0,0,1-.13.51l-6.85,4A.41.41,0,0,1,72.21,100.82Z"/><path class="cls-2" d="M118.83,125.59a.42.42,0,0,1-.21-.06l-4.88-3.14a.38.38,0,0,1,.4-.64L119,124.9a.38.38,0,0,1,.11.52A.37.37,0,0,1,118.83,125.59Z"/><path class="cls-4" d="M125.46,238.05h-.1l-5.2-1.51a.37.37,0,0,1-.26-.46.39.39,0,0,1,.47-.26l5.2,1.51a.37.37,0,0,1-.11.73Z"/><path class="cls-4" d="M122.2,14.13a.34.34,0,0,1-.22-.07l-3.22-2.31a.38.38,0,0,1-.08-.52.37.37,0,0,1,.52-.08l3.22,2.3a.38.38,0,0,1-.22.68Z"/><path class="cls-3" d="M142,116.56a.39.39,0,0,1-.34-.21l-2.35-4.65a.37.37,0,0,1,.17-.5.37.37,0,0,1,.5.16l2.35,4.65a.39.39,0,0,1-.16.51A.59.59,0,0,1,142,116.56Z"/><path class="cls-4" d="M230.5,165a.38.38,0,0,1-.26-.11l-5.14-5.27a.38.38,0,0,1,0-.53.37.37,0,0,1,.53,0l5.13,5.27a.39.39,0,0,1,0,.54A.39.39,0,0,1,230.5,165Z"/><path class="cls-4" d="M222.84,239.23h0a.38.38,0,0,1-.36-.39l.24-6.88a.36.36,0,0,1,.39-.37.39.39,0,0,1,.36.39l-.24,6.89A.37.37,0,0,1,222.84,239.23Z"/><path class="cls-3" d="M232.94,212.74a.38.38,0,0,1-.35-.24l-1.84-4.71a.36.36,0,0,1,.21-.48.37.37,0,0,1,.48.21l1.85,4.7a.38.38,0,0,1-.22.49A.31.31,0,0,1,232.94,212.74Z"/><path class="cls-4" d="M60.71,38a.37.37,0,0,1-.32-.18l-4.27-7a.37.37,0,0,1,.13-.51.36.36,0,0,1,.51.12l4.27,7a.38.38,0,0,1-.12.52A.35.35,0,0,1,60.71,38Z"/><path class="cls-4" d="M90.84,122.1h0a.39.39,0,0,1-.33-.42l1-7.83a.38.38,0,0,1,.75.09l-1,7.83A.39.39,0,0,1,90.84,122.1Z"/><circle class="cls-4" cx="161.02" cy="255.12" r="2.48"/><path class="cls-4" d="M231.16,136.11a2.69,2.69,0,1,1-3.77-.44A2.69,2.69,0,0,1,231.16,136.11Z"/><path class="cls-2" d="M38.33,90.61a2.51,2.51,0,1,1-3.41,1A2.51,2.51,0,0,1,38.33,90.61Z"/><path class="cls-2" d="M278.88,32.78a2.32,2.32,0,1,1-1.14-3.07A2.31,2.31,0,0,1,278.88,32.78Z"/><path class="cls-2" d="M34.92,249.18a2.15,2.15,0,1,1-2.24,2A2.15,2.15,0,0,1,34.92,249.18Z"/><path class="cls-2" d="M168.82,109.34a2,2,0,1,1-1.69,2.23A2,2,0,0,1,168.82,109.34Z"/><path class="cls-2" d="M173.89,59.52a1.58,1.58,0,1,1,1.49-1.68A1.58,1.58,0,0,1,173.89,59.52Z"/><path class="cls-2" d="M13.51,170.74a1.44,1.44,0,1,1-2-.17A1.44,1.44,0,0,1,13.51,170.74Z"/><path class="cls-2" d="M61.51,56.69a2.36,2.36,0,1,1-3.22.89A2.36,2.36,0,0,1,61.51,56.69Z"/><path class="cls-2" d="M246.59,248.51a1.56,1.56,0,1,1,.85,2A1.56,1.56,0,0,1,246.59,248.51Z"/><path class="cls-2" d="M96.78,13a2.93,2.93,0,1,1,1-4A2.94,2.94,0,0,1,96.78,13Z"/><path class="cls-2" d="M216.63,100.72a1.48,1.48,0,1,1-1.11,1.76A1.48,1.48,0,0,1,216.63,100.72Z"/><path class="cls-2" d="M275.91,172a1.49,1.49,0,1,1,0-2.1A1.5,1.5,0,0,1,275.91,172Z"/><path class="cls-2" d="M246,12a2,2,0,1,1-2.56-1.33A2,2,0,0,1,246,12Z"/><path class="cls-2" d="M233.85,111.7a2,2,0,1,1,2.75.88A2,2,0,0,1,233.85,111.7Z"/><path class="cls-2" d="M211.36,126.06a1.9,1.9,0,1,1,1-2.47A1.9,1.9,0,0,1,211.36,126.06Z"/><path class="cls-2" d="M36.83,226.45a2.21,2.21,0,1,1-3.1-.35A2.21,2.21,0,0,1,36.83,226.45Z"/><path class="cls-4" d="M11.82,150.12A2.78,2.78,0,1,1,15,152.45,2.78,2.78,0,0,1,11.82,150.12Z"/><path class="cls-2" d="M107,29.89a2.95,2.95,0,1,1-4.15-.37A3,3,0,0,1,107,29.89Z"/><path class="cls-2" d="M117.52,161.37a1.84,1.84,0,1,1,.35,2.57A1.84,1.84,0,0,1,117.52,161.37Z"/><path class="cls-3" d="M187.25,130.74a1.84,1.84,0,1,1,.59-2.53A1.84,1.84,0,0,1,187.25,130.74Z"/><path class="cls-3" d="M41.36,138.12A3.09,3.09,0,1,1,45.3,140,3.09,3.09,0,0,1,41.36,138.12Z"/><path class="cls-4" d="M13.25,198.05a2.77,2.77,0,1,1,2.6-2.93A2.77,2.77,0,0,1,13.25,198.05Z"/><path class="cls-2" d="M189.05,259.54a2.84,2.84,0,1,1-1.33-3.79A2.84,2.84,0,0,1,189.05,259.54Z"/><path class="cls-2" d="M194.73,220.79a1.69,1.69,0,1,1,2.24.85A1.69,1.69,0,0,1,194.73,220.79Z"/><path class="cls-2" d="M137.7,255.35a1.75,1.75,0,1,1-1.59-1.91A1.75,1.75,0,0,1,137.7,255.35Z"/><path class="cls-2" d="M15.14,9.28a1.81,1.81,0,1,1-2.43.77A1.81,1.81,0,0,1,15.14,9.28Z"/><path class="cls-4" d="M209.47,83.15a1.89,1.89,0,1,1-2.15-1.58A1.89,1.89,0,0,1,209.47,83.15Z"/><path class="cls-3" d="M142.21,16.72a1.87,1.87,0,1,1,2.63-.14A1.86,1.86,0,0,1,142.21,16.72Z"/><path class="cls-2" d="M197.89,67.73a1.6,1.6,0,1,1-1.09-2A1.61,1.61,0,0,1,197.89,67.73Z"/></svg>