<svg xmlns="http://www.w3.org/2000/svg" xmlns:xlink="http://www.w3.org/1999/xlink" viewBox="0 0 3710 3710"><defs><style>.cls-1{fill:none;}.cls-2{isolation:isolate;}.cls-3{fill:#f4f7fa;}.cls-4{fill:url(#linear-gradient);}.cls-5{clip-path:url(#clip-path);}.cls-24,.cls-6{opacity:0.5;mix-blend-mode:soft-light;}.cls-7{fill:#fcfdfe;}.cls-8{clip-path:url(#clip-path-2);}.cls-9{fill:url(#linear-gradient-2);}.cls-10{fill:#beb8f2;}.cls-11{fill:url(#linear-gradient-3);}.cls-12{clip-path:url(#clip-path-3);}.cls-13{clip-path:url(#clip-path-4);}.cls-14{fill:url(#linear-gradient-4);}.cls-15{fill:url(#linear-gradient-5);}.cls-16{clip-path:url(#clip-path-5);}.cls-17{fill:url(#linear-gradient-6);}.cls-18{fill:#d8dee8;}.cls-19,.cls-21{opacity:0.3;}.cls-19,.cls-21,.cls-30,.cls-39,.cls-48{mix-blend-mode:multiply;}.cls-19{fill:url(#linear-gradient-7);}.cls-20,.cls-24{fill:#fff;}.cls-21,.cls-23{fill:#97a6b7;}.cls-22{fill:url(#linear-gradient-8);}.cls-25{fill:url(#linear-gradient-9);}.cls-26{fill:url(#linear-gradient-10);}.cls-27{fill:url(#linear-gradient-11);}.cls-28{fill:url(#linear-gradient-12);}.cls-29{fill:url(#linear-gradient-13);}.cls-30{opacity:0.1;}.cls-31{fill:url(#linear-gradient-14);}.cls-32{fill:url(#linear-gradient-15);}.cls-33{fill:url(#linear-gradient-16);}.cls-34{fill:url(#linear-gradient-17);}.cls-35{fill:#26264f;}.cls-36{fill:url(#linear-gradient-18);}.cls-37{fill:url(#linear-gradient-19);}.cls-38{fill:url(#linear-gradient-20);}.cls-39,.cls-48{opacity:0.25;}.cls-39{fill:url(#linear-gradient-21);}.cls-40{fill:#444b8c;}.cls-41{fill:url(#linear-gradient-22);}.cls-42{fill:url(#linear-gradient-23);}.cls-43{fill:url(#linear-gradient-24);}.cls-44{fill:url(#linear-gradient-25);}.cls-45{fill:url(#linear-gradient-26);}.cls-46{fill:url(#linear-gradient-27);}.cls-47{fill:url(#linear-gradient-28);}.cls-48{fill:url(#linear-gradient-29);}.cls-49{fill:url(#linear-gradient-30);}.cls-50{fill:url(#linear-gradient-31);}.cls-51{fill:url(#linear-gradient-32);}.cls-52{fill:url(#linear-gradient-33);}.cls-53{fill:url(#linear-gradient-34);}.cls-54{fill:url(#linear-gradient-35);}.cls-55{fill:url(#linear-gradient-36);}.cls-56{fill:url(#linear-gradient-37);}.cls-57{fill:url(#linear-gradient-38);}.cls-58{fill:url(#linear-gradient-39);}.cls-59{fill:url(#linear-gradient-40);}.cls-60{fill:url(#linear-gradient-41);}.cls-61{fill:url(#linear-gradient-42);}.cls-62{fill:url(#linear-gradient-43);}.cls-63{fill:url(#linear-gradient-44);}</style><linearGradient id="linear-gradient" x1="2332.59" y1="846.31" x2="2968.32" y2="1892.9" gradientTransform="translate(-1948.67 617.44) rotate(-4.56)" gradientUnits="userSpaceOnUse"><stop offset="0" stop-color="#ff9085"/><stop offset="1" stop-color="#fb6fbb"/></linearGradient><clipPath id="clip-path"><path id="SVGID" class="cls-1" d="M921.08,2274.57l280-22.33c13.14-40.93,28.14-115.7-31.87-129-83.43-18.56-95.74-162.06-77-214.49,23.19-64.89,74.09-217.08-54.43-247.81-107-25.57-181.28-20.21-198.28-154.38s-96.57-212.93-218.16-196.14c-127.95,17.66-245.66-145.88-346.87-81.08C98.08,1342.22,285.68,1627.11,515,1697.07s107.12,159.58,109,270.25c2.6,151.08,203.74,104.31,261.73,159.57C931.25,2170.21,928,2234.72,921.08,2274.57Z"/></clipPath><clipPath id="clip-path-2"><path id="SVGID-2" data-name="SVGID" class="cls-1" d="M1096.42,2395.54l-301.78-1s-56.28-155,18.05-264c151.64-222.39-53.72-339.69-132.38-401.68-118.64-93.5-182.41-227.63-7.31-285.33s.26-329.35-213.1-452.73C251.12,870,345.27,429.24,821.15,649.07c284.19,131.28,238.58,432.91,251.76,590.7s247.75,171.65,166.8,364.08c-69.14,164.37-199.86,284-100.8,397.46S1247.84,2241.74,1096.42,2395.54Z"/></clipPath><linearGradient id="linear-gradient-2" x1="3497.81" y1="666.84" x2="2897.03" y2="2374.32" gradientTransform="matrix(-1, 0, 0, 1, 4068.41, -17.64)" gradientUnits="userSpaceOnUse"><stop offset="0" stop-color="#ffc444"/><stop offset="1" stop-color="#f36f56"/></linearGradient><linearGradient id="linear-gradient-3" x1="-1324.54" y1="317.83" x2="-575.98" y2="2284.72" gradientTransform="matrix(-1, -0.07, -0.07, 1, 1657.33, 96.05)" gradientUnits="userSpaceOnUse"><stop offset="0" stop-color="#aa80f9"/><stop offset="1" stop-color="#6165d7"/></linearGradient><clipPath id="clip-path-3"><path id="SVGID-3" data-name="SVGID" class="cls-1" d="M2449.32,2203.41l-241.38-62.18s-62.17-180.82,27-229,55.07-221.84,47.59-316.54c-20.3-257,257.38-233.6,257.69-565.88.08-88.38-29.31-256.94,45.2-327.33,84.89-80.2,146.86-1.53,201.44-68.59,85.31-104.82,223.74-142.42,306.26-34.55,81.44,106.46-17.52,318.39-263.52,488.72-162.65,142.19-165.19,184.76-152.39,288.42,9,72.61,78.23,261.76-20.33,337.29S2483.05,1870.9,2521,1952.91C2578.8,2077.68,2449.32,2203.41,2449.32,2203.41Z"/></clipPath><clipPath id="clip-path-4"><path id="SVGID-4" data-name="SVGID" class="cls-1" d="M2129.09,2574.34l288,90.26s100.51-130.73,62.62-257.1c-77.31-257.84,153.9-307.56,247.63-342.87,141.34-53.25,242.68-161.82,93.23-269.76s99.32-314,340-367.12c235.51-52,279-500.6-241-434.93-310.58,39.21-358.3,340.51-418.57,486.94s-288.05,88.71-269.07,296.61c16.22,177.59,104.67,331.09-24.08,409.34S2031.26,2382,2129.09,2574.34Z"/></clipPath><linearGradient id="linear-gradient-4" x1="6038.34" y1="329.38" x2="5437.55" y2="2036.89" gradientTransform="matrix(0.95, 0.3, -0.3, 0.95, -2499.22, -1062.3)" gradientUnits="userSpaceOnUse"><stop offset="0" stop-color="#e38ddd"/><stop offset="1" stop-color="#9571f6"/></linearGradient><linearGradient id="linear-gradient-5" x1="1720.57" y1="1529.75" x2="2356.31" y2="2576.34" gradientTransform="matrix(-1, 0.02, 0.02, 1, 4468.31, 119.37)" xlink:href="#linear-gradient-2"/><clipPath id="clip-path-5"><path id="SVGID-5" data-name="SVGID" class="cls-1" d="M2410.14,2730.2l-280.77,6.37c-17.26-39.37-39.81-112.22,18.52-131.63,81.1-27,78.69-171,54.69-221.23-29.69-62.18-95.86-208.39,28.85-252.07,103.83-36.37,178.26-38.62,181.48-173.83s74.32-221.68,197-217.39c129.08,4.51,229.48-170.2,336.78-116.06,187,94.32,29.43,396.88-191.59,489.9s-90.27,169.68-80.86,280c12.85,150.56-192,124.57-244.06,185.46C2389.37,2627.42,2399.16,2691.27,2410.14,2730.2Z"/></clipPath><linearGradient id="linear-gradient-6" x1="797.69" y1="2028.3" x2="2682.09" y2="2028.3" gradientUnits="userSpaceOnUse"><stop offset="0" stop-color="#444b8c"/><stop offset="1" stop-color="#26264f"/></linearGradient><linearGradient id="linear-gradient-7" x1="860.15" y1="2027.54" x2="2684.65" y2="2027.54" gradientTransform="matrix(1, 0, 0, 1, 0, 0)" xlink:href="#linear-gradient-4"/><linearGradient id="linear-gradient-8" x1="1340.98" y1="874.08" x2="2283.53" y2="874.08" xlink:href="#linear-gradient-6"/><linearGradient id="linear-gradient-9" x1="325.32" y1="2294.77" x2="3183.25" y2="2294.77" xlink:href="#linear-gradient-6"/><linearGradient id="linear-gradient-10" x1="1021.02" y1="3408.37" x2="2258.72" y2="1530.22" gradientUnits="userSpaceOnUse"><stop offset="0" stop-color="#ebeff2"/><stop offset="1" stop-color="#fff"/></linearGradient><linearGradient id="linear-gradient-11" x1="1859.32" y1="1923.95" x2="1152.59" y2="2644.98" gradientTransform="matrix(1, 0, 0, 1, 0, 0)" xlink:href="#linear-gradient-2"/><linearGradient id="linear-gradient-12" x1="2114.79" y1="2173.53" x2="1423.3" y2="2879.02" gradientTransform="matrix(1, 0, 0, 1, 0, 0)" xlink:href="#linear-gradient-2"/><linearGradient id="linear-gradient-13" x1="2472.54" y1="2226.89" x2="1756.36" y2="3423.27" gradientTransform="matrix(1, 0, 0, 1, 0, 0)" xlink:href="#linear-gradient-2"/><linearGradient id="linear-gradient-14" x1="986.67" y1="2001.5" x2="537.06" y2="3333.28" gradientTransform="matrix(1, 0, 0, 1, 0, 0)" xlink:href="#linear-gradient-2"/><linearGradient id="linear-gradient-15" x1="2241.51" y1="1797.16" x2="2200.99" y2="1862.72" gradientTransform="matrix(1, 0, 0, 1, 0, 0)" xlink:href="#linear-gradient-2"/><linearGradient id="linear-gradient-16" x1="2818.78" y1="2573.1" x2="2835.14" y2="2606.75" gradientTransform="matrix(1, 0, 0, 1, 0, 0)" xlink:href="#linear-gradient-2"/><linearGradient id="linear-gradient-17" x1="1527.55" y1="3430.09" x2="1527.55" y2="3324.51" gradientTransform="translate(1249.56)" xlink:href="#linear-gradient-2"/><linearGradient id="linear-gradient-18" x1="1205.75" y1="3460.18" x2="1205.75" y2="3332.94" gradientTransform="translate(1249.56)" xlink:href="#linear-gradient-2"/><linearGradient id="linear-gradient-19" x1="1134.57" y1="2960.38" x2="1550.84" y2="2960.38" gradientTransform="translate(1249.56)" gradientUnits="userSpaceOnUse"><stop offset="0" stop-color="#311944"/><stop offset="1" stop-color="#893976"/></linearGradient><linearGradient id="linear-gradient-20" x1="1121.34" y1="2650.07" x2="1421.24" y2="3153.78" xlink:href="#linear-gradient-19"/><linearGradient id="linear-gradient-21" x1="1239.41" y1="2579.78" x2="1539.3" y2="3083.49" xlink:href="#linear-gradient-19"/><linearGradient id="linear-gradient-22" x1="-415.31" y1="-3517.54" x2="-97.7" y2="-2864.43" gradientTransform="translate(2789.47 -1271.21) rotate(-172.14)" xlink:href="#linear-gradient"/><linearGradient id="linear-gradient-23" x1="2425.98" y1="2109.01" x2="2747.65" y2="2770.47" gradientTransform="matrix(1, 0, 0, 1, 0, 0)" xlink:href="#linear-gradient"/><linearGradient id="linear-gradient-24" x1="1316.51" y1="2026.25" x2="1377.98" y2="2123.95" gradientTransform="translate(1249.56)" xlink:href="#linear-gradient-4"/><linearGradient id="linear-gradient-25" x1="1390.72" y1="2011.26" x2="1323.16" y2="2120.54" gradientTransform="translate(1249.56)" xlink:href="#linear-gradient-2"/><linearGradient id="linear-gradient-26" x1="730.33" y1="1573.2" x2="664.95" y2="1678.96" gradientTransform="translate(1534.98 640.21) rotate(-13.66)" xlink:href="#linear-gradient-2"/><linearGradient id="linear-gradient-27" x1="2596.29" y1="1544.48" x2="3162.47" y2="2444.39" xlink:href="#linear-gradient-6"/><linearGradient id="linear-gradient-28" x1="2390.18" y1="2124.43" x2="2706.55" y2="2775" gradientTransform="matrix(1, 0, 0, 1, 0, 0)" xlink:href="#linear-gradient"/><linearGradient id="linear-gradient-29" x1="2379.52" y1="2131.6" x2="2701.19" y2="2793.06" gradientTransform="matrix(1, 0, 0, 1, 0, 0)" xlink:href="#linear-gradient"/><linearGradient id="linear-gradient-30" x1="1211.29" y1="1552.41" x2="609.55" y2="3887.52" gradientTransform="matrix(1, 0, 0, 1, 0, 0)" xlink:href="#linear-gradient-19"/><linearGradient id="linear-gradient-31" x1="1460.32" y1="478.84" x2="1422.22" y2="1499.19" gradientTransform="matrix(1, 0, 0, 1, 0, 0)" xlink:href="#linear-gradient-19"/><linearGradient id="linear-gradient-32" x1="1846.57" y1="1287.63" x2="1714.84" y2="3411.72" gradientTransform="matrix(1, 0, 0, 1, 0, 0)" xlink:href="#linear-gradient-19"/><linearGradient id="linear-gradient-33" x1="2164.8" y1="1244.51" x2="3941.6" y2="-116.35" gradientTransform="matrix(1, 0, 0, 1, 0, 0)" xlink:href="#linear-gradient-19"/><linearGradient id="linear-gradient-34" x1="2864.46" y1="-16.74" x2="2309.92" y2="2074.64" gradientTransform="matrix(1, 0, 0, 1, 0, 0)" xlink:href="#linear-gradient-19"/><linearGradient id="linear-gradient-35" x1="6765.75" y1="-1735.98" x2="6938.25" y2="-1735.98" gradientTransform="matrix(0.74, 0.67, -0.98, 1.08, -4704.86, -1327.31)" xlink:href="#linear-gradient-19"/><linearGradient id="linear-gradient-36" x1="1744.46" y1="1648.43" x2="1982.85" y2="1648.43" gradientTransform="matrix(1, 0, 0, 1, 0, 0)" xlink:href="#linear-gradient-19"/><linearGradient id="linear-gradient-37" x1="1791.99" y1="1648.45" x2="1936.83" y2="1648.45" gradientTransform="matrix(1, 0, 0, 1, 0, 0)" xlink:href="#linear-gradient-19"/><linearGradient id="linear-gradient-38" x1="1227.37" y1="1554.62" x2="631.17" y2="3868.25" gradientUnits="userSpaceOnUse"><stop offset="0" stop-color="#ab316d"/><stop offset="1" stop-color="#792d3d"/></linearGradient><linearGradient id="linear-gradient-39" x1="1476.85" y1="479.3" x2="1438.78" y2="1498.87" gradientUnits="userSpaceOnUse"><stop offset="0" stop-color="#ffc444"/><stop offset="0.54" stop-color="#f8964e"/><stop offset="1" stop-color="#f36f56"/></linearGradient><linearGradient id="linear-gradient-40" x1="1863.29" y1="1284.99" x2="1732.52" y2="3393.71" gradientTransform="matrix(1, 0, 0, 1, 0, 0)" xlink:href="#linear-gradient-2"/><linearGradient id="linear-gradient-41" x1="2181.39" y1="1244.46" x2="3957.76" y2="-116.08" gradientTransform="matrix(1, 0, 0, 1, 0, 0)" xlink:href="#linear-gradient-4"/><linearGradient id="linear-gradient-42" x1="2876.66" y1="-0.33" x2="2327.36" y2="2071.34" gradientTransform="matrix(1, 0, 0, 1, 0, 0)" xlink:href="#linear-gradient-4"/><linearGradient id="linear-gradient-43" x1="6777.97" y1="-1743.64" x2="6950.47" y2="-1743.64" gradientTransform="matrix(0.74, 0.67, -0.98, 1.08, -4704.86, -1327.31)" xlink:href="#linear-gradient-6"/><linearGradient id="linear-gradient-44" x1="1761.02" y1="1648.43" x2="1999.41" y2="1648.43" xlink:href="#linear-gradient-6"/></defs><g class="cls-2"><g id="Layer_1" data-name="Layer 1"><path class="cls-3" d="M1916.53,212.5c-849.94-24-1586.16,564.65-1697.39,1337C97.53,2393.92,766.88,3153.71,1590.49,3275.4c1024.43,151.37,2018.07-724.3,1928.85-1674.26C3452.12,885.43,2780.51,236.85,1916.53,212.5Z"/><path class="cls-4" d="M921.05,2191.21c1.12.4,2.25.78,3.38,1.17,66.72,22.8,143.67,35.92,232.19,32.5l51.63-5.65c11.36-42.05,14.64-84.08-39.08-96-83.43-18.56-95.73-162.06-77-214.49,23.19-64.89,74.09-217.09-54.43-247.81-107-25.57-181.28-20.21-198.28-154.38s-96.57-212.93-218.16-196.15c-127.95,17.67-245.66-145.87-346.87-81.07C98.08,1342.21,285.68,1627.11,515,1697.07s107.12,159.58,109,270.25c2.6,151.08,203.74,104.31,261.73,159.57C905.43,2145.6,916,2168.28,921.05,2191.21Z"/><g class="cls-5"><g class="cls-6"><path class="cls-7" d="M1049.39,2220l5.86-1.64c-120.38-428.33-448-796.14-855.14-959.89l-2.27,5.65C603.21,1427.2,929.51,1793.47,1049.39,2220Z"/><path class="cls-7" d="M963.75,1992.12l6.07-.46c-13.13-174.36,125.89-321.51,127.3-323l-4.39-4.21C1091.3,1666,950.41,1815,963.75,1992.12Z"/><path class="cls-7" d="M1025.09,2141.83l5.13-3.28c-95.66-149.25-418.5-147.07-421.75-147l.07,6.08C611.76,1997.57,931.26,1995.42,1025.09,2141.83Z"/><path class="cls-7" d="M719.77,1630.67l5.39-2.84c-65.5-124.44,3.55-328.73,4.26-330.78l-5.76-2C723,1297.14,653.06,1503.92,719.77,1630.67Z"/><path class="cls-7" d="M510.77,1440.5l2.79-5.41c-142.43-73.42-349.79-11.31-351.87-10.67l1.78,5.82C165.52,1429.61,370.56,1368.23,510.77,1440.5Z"/></g></g><g class="cls-8"><path class="cls-9" d="M1096.42,2395.54l-301.78-1s-56.28-155,18.05-264c151.64-222.39-53.72-339.69-132.38-401.68-118.64-93.5-170.65-214-27.34-291.49,162.15-87.73,20.29-323.19-193.07-446.57C251.12,870,345.27,429.24,821.15,649.07c284.19,131.28,238.58,432.91,251.76,590.7s247.75,171.65,166.8,364.08c-69.14,164.37-199.86,284-100.8,397.46S1247.84,2241.74,1096.42,2395.54Z"/><g class="cls-6"><path class="cls-10" d="M965.72,2423.11l-6.27-1.17c.73-3.88,71.88-392.49,26.25-799-42-374.51-194.67-841.28-683.11-938.22l1.23-6.25c217.44,43.15,387.54,161.9,505.6,353,94.31,152.62,155.76,351.44,182.62,590.93C1037.75,2029.8,966.44,2419.22,965.72,2423.11Z"/><path class="cls-10" d="M855.31,1113.4l-6.32-.81c26.91-210.33-52.24-509.5-53-512.5l6.15-1.65C802.91,601.45,882.38,901.84,855.31,1113.4Z"/><path class="cls-10" d="M773.16,988.26c-214-134.35-414.6-70.91-416.6-70.26l-2-6c2-.67,205.34-65.08,422,70.91Z"/><path class="cls-10" d="M1001.05,1890.33c-70.21-300.61-478.49-375.66-482.52-376.06l.2-6.36c4,0,417.69,77.69,488.52,381Z"/><path class="cls-10" d="M1003.45,1763.06l-6.24-1.32c40.77-192.72,250.42-324.71,252.53-326l3.36,5.41C1251,1442.43,1043.64,1573,1003.45,1763.06Z"/><path class="cls-10" d="M969.3,2360.54c-8.79-116.94-175.39-210.08-177.07-211l3.08-5.57c7,3.85,171.3,95.71,180.34,216.1Z"/><path class="cls-10" d="M987.39,2268.74l-6.28-1.09c15.92-91.35,154.42-192.7,199.93-226,6.43-4.71,12-8.77,12.83-9.69l4.75,4.25c-1.18,1.31-4.86,4-13.82,10.58C1139.8,2079.72,1002.86,2179.93,987.39,2268.74Z"/></g></g><path class="cls-11" d="M2521,1952.91c33.22,71.73,1.56,143.48-28.82,191.77-7.24.05-11.45,2.06-18.77,3.84-66.07,16.07-97.06,7.89-164.22,12.75-14.46,1.05-57.41-9.72-74.66-15.34l-32-11s-56.78-174.48,32.44-222.67,55.07-221.84,47.59-316.54c-20.3-257,257.38-233.6,257.69-565.88.08-88.38-29.31-256.94,45.2-327.33,84.89-80.2,146.86-1.53,201.44-68.59,85.31-104.82,223.74-142.42,306.26-34.55,81.44,106.46-17.52,318.39-263.52,488.72-162.65,142.19-165.19,184.76-152.39,288.42,9,72.61,78.23,261.76-20.33,337.29S2483.05,1870.9,2521,1952.91Z"/><g class="cls-12"><g class="cls-6"><path class="cls-7" d="M2344.18,2164l-4.9-.62c3.64-29.21,7.67-58.63,12-87.44,31.95-213.29,82.65-415.88,150.71-602.14,57.67-157.83,128.57-306.16,210.73-440.9,66.07-108.35,139.76-208.52,219-297.75,55.71-62.72,113.58-119.42,172-168.53,10.18-8.56,21.06-16.74,31.59-24.66,14-10.54,28.54-21.44,41.48-33.32l3.34,3.64c-13.12,12-27.72,23-41.85,33.64-10.47,7.87-21.31,16-31.38,24.49-58.23,49-115.92,105.48-171.48,168-79,89-152.56,189-218.48,297.05-82,134.45-152.75,282.5-210.31,440-67.94,185.94-118.56,388.21-150.47,601.17C2351.84,2105.42,2347.82,2134.8,2344.18,2164Z"/><path class="cls-7" d="M2623.75,1203.49l-4.47-2.1c90.09-192,11-546.77,10.17-550.33l4.82-1.1C2635.08,653.54,2714.57,1009.93,2623.75,1203.49Z"/><path class="cls-7" d="M2418.82,1762.73l-4.69-1.57c46-137.65,303.67-243.91,306.27-245l1.86,4.58C2719.68,1521.82,2464.06,1627.22,2418.82,1762.73Z"/><path class="cls-7" d="M2399.49,1843.09l-4.89-.71c13.64-93.75-17.85-228.89-88.68-380.51-3.56-7.62-3.56-7.62-3.44-8.55l4.9.65-2.45-.33,2.39-.61c.18.53,1.52,3.41,3.08,6.75C2381.63,1612.27,2413.27,1748.39,2399.49,1843.09Z"/><path class="cls-7" d="M2351.58,2110.75l-4.48-2.08c43.94-94.64,194.13-132,195.64-132.36l1.16,4.8C2542.41,1981.47,2394.51,2018.28,2351.58,2110.75Z"/><path class="cls-7" d="M2336.71,2164.36c-18.62-82.05-61.41-161.45-130.82-242.71l3.76-3.21c69.94,81.89,113.07,162,131.88,244.83Z"/><path class="cls-7" d="M2889.6,791.73l-4.35-2.35c56-104,90.82-226.18,102.24-266.34,2.77-9.72,3.75-13.14,4.3-14.27l4.45,2.16c-.41.87-2,6.43-4,13.46C2980.78,564.68,2945.9,687.29,2889.6,791.73Z"/><path class="cls-7" d="M2773.48,947.29l-3.47-3.52c78.94-77.7,300.43-75.21,309.82-75.07l-.08,4.95C3077.47,873.61,2850.94,871.05,2773.48,947.29Z"/></g></g><g class="cls-13"><path class="cls-14" d="M2129.09,2574.34l288,90.26s100.51-130.73,62.62-257.1c-77.31-257.84,153.9-307.56,247.63-342.87,141.34-53.25,227.34-152.35,114.18-269.58-128-132.65,78.37-314.2,319-367.3,235.51-52,279-500.6-241-434.93-310.58,39.21-358.3,340.51-418.57,486.94s-288.05,88.71-269.07,296.61c16.22,177.59,104.67,331.09-24.08,409.34S2031.26,2382,2129.09,2574.34Z"/><g class="cls-6"><path class="cls-10" d="M2245.34,2640.13l6.33.78c.48-3.92,50.15-395.85,216.54-769.54,153.29-344.27,439.9-743,934.8-687.79l.7-6.33c-220.3-24.6-418.35,37.17-588.64,183.58-136,117-254.72,287.9-352.73,508.06C2295.59,2243.45,2245.83,2636.2,2245.34,2640.13Z"/><path class="cls-10" d="M2746.55,1425.09l6.27,1.14c37.93-208.63,203.83-469.87,205.5-472.48l-5.37-3.43C2951.27,952.94,2784.71,1215.24,2746.55,1425.09Z"/><path class="cls-10" d="M2862.69,1330.64c244.61-63.36,416.63,57.75,418.34,59l3.73-5.16c-1.74-1.26-176.06-124.12-423.67-60Z"/><path class="cls-10" d="M2372.74,2121.6c157.81-265.31,569.67-213.42,573.64-212.58l1.72-6.13c-3.82-1.19-421.63-52.22-580.84,215.45Z"/><path class="cls-10" d="M2408.93,1999.56l6.34.63c19.41-196-140.53-385.23-142.15-387.12l-4.83,4.15C2269.89,1619.09,2428.07,1806.27,2408.93,1999.56Z"/><path class="cls-10" d="M2260.84,2579.4c43.73-108.81,230.69-147.22,232.58-147.59l-1.25-6.25c-7.82,1.56-192.22,39.45-237.24,151.47Z"/><path class="cls-10" d="M2271.35,2486.43l6.32.86c12.44-91.89-88.94-230.37-122.25-275.87-4.71-6.43-8.77-12-9.3-13.12l-5.81,2.62c.72,1.61,3.42,5.31,10,14.26C2183.22,2260.17,2283.45,2397.09,2271.35,2486.43Z"/></g></g><path class="cls-15" d="M2401.66,2647.27l-3.24,1.51c-64.05,29.49-139.25,50.4-227.67,56l-51.93-.35c-15.6-40.68-23.15-82.15,29.07-99.53,81.1-27,78.69-171,54.69-221.23-29.69-62.18-95.86-208.39,28.85-252.07,103.83-36.37,178.26-38.62,181.48-173.83s74.32-221.68,197-217.39c129.08,4.51,229.48-170.2,336.78-116.07,187,94.33,29.43,396.89-191.59,489.91s-90.27,169.68-80.86,280c12.85,150.56-192,124.57-244.06,185.46C2412.54,2600.31,2404.38,2623.94,2401.66,2647.27Z"/><g class="cls-16"><g class="cls-6"><path class="cls-7" d="M2276.93,2689l-6-1c76-438.38,364.41-837.73,752.65-1042.19l2.84,5.39C2639.82,1854.8,2352.63,2252.48,2276.93,2689Z"/><path class="cls-7" d="M2338.85,2453.58l-6.08.17c-4.74-174.79-158.07-307-159.61-308.3l3.93-4.64C2178.66,2142.14,2334,2276,2338.85,2453.58Z"/><path class="cls-7" d="M2293.12,2608.77l-5.44-2.74c79.92-158.23,401.3-189,404.54-189.32l.54,6.06C2689.56,2423.06,2371.51,2453.55,2293.12,2608.77Z"/><path class="cls-7" d="M2544.65,2069.1l-5.65-2.27c52.45-130.48-37.1-326.65-38-328.61l5.52-2.56C2507.43,1737.65,2598.07,1936.21,2544.65,2069.1Z"/><path class="cls-7" d="M2733.14,1858.59l-3.33-5.1c134.2-87.57,346.82-47,349-46.54l-1.18,6C3075.48,1812.5,2865.24,1772.38,2733.14,1858.59Z"/></g></g><path class="cls-17" d="M2624.83,933.92,874.3,832.66c-40.32-2-76.61,42-76.61,79V3165.75c0,51.24,52.34,61.55,92.65,57.43L2624.83,3046c31.68-3.23,57.26-32.23,57.26-64.77V995.64C2682.09,963.1,2656.51,935.47,2624.83,933.92Z"/><path class="cls-18" d="M2653.62,916l-1754-86.29c-40.32-2-73.16,26.59-73.16,63.82V3165.29c0,37.23,32.84,64,73.16,59.88l1754-180.53c31.68-3.26,57.26-32.48,57.26-65.28V978.22C2710.88,945.42,2685.3,917.58,2653.62,916Z"/><path class="cls-19" d="M899.64,3194.36c-21.75,2.2-39.49-12.33-39.49-32.4V895.06c0-20.06,17.74-35.55,39.49-34.52l1754,82.86c17.13.8,31,15.9,31,33.64V2982c0,17.74-13.9,33.58-31,35.31Z"/><polygon class="cls-20" points="2540.57 2963.5 1040.38 3108.04 1040.38 1016.63 2540.57 1073.13 2540.57 2963.5"/><path class="cls-21" d="M1940.54,1083.36,1341,1090.87l13.45-135.22c1-17.57,13.72-32,30.44-34.56l101.54-15.6a36.53,36.53,0,0,0,27.47-21.08l11-23.92,265.59,16.4Z"/><path class="cls-22" d="M2260.71,995.64a32.08,32.08,0,0,0-30.54-26.72l-95.81-4.3c-43.48-2-75.36-37.27-73.76-82l3.7-103.68c.68-19.18-13-34.54-31.84-35.67L2001,741.37c-24-1.43-40-22.59-36.62-47.06,5.89-42.75-23.41-79.65-65.87-82.55-42.79-2.91-82.73,29.78-89.1,73.08a48.14,48.14,0,0,1-6.66,18.47c-9.88,15.86-27.21,24.6-44.18,23.58L1726.09,725c-19.67-1.17-38.36,12.64-43.35,32.06l-27,105.25c-11.68,45.52-55.72,78.41-102.49,76.32l-105.09-4.71c-17.21-.77-34.11,9.26-42,25l-63.33,125.66c-5.19,10.29,1.2,21.41,12.5,21.78l911.37,30.27c10,.34,18.44-9.61,16.6-19.49ZM1885.58,701.5c-12.55-.77-21.26-11.69-19.44-24.37s13.5-22.3,26-21.48,21.19,11.72,19.37,24.37S1898.11,702.28,1885.58,701.5Z"/><path class="cls-23" d="M2266.11,998.46a32.09,32.09,0,0,0-30.55-26.73l-95.8-4.3c-43.48-1.94-75.36-37.27-73.76-82l3.69-103.69c.69-19.18-13-34.54-31.83-35.67l-31.47-1.88c-24-1.43-40-22.59-36.62-47.06,5.88-42.75-23.41-79.65-65.87-82.55-42.79-2.91-82.73,29.78-89.1,73.08a48.14,48.14,0,0,1-6.66,18.47c-9.88,15.86-27.21,24.6-44.18,23.58l-32.47-1.94c-19.67-1.17-38.37,12.64-43.35,32.07l-27,105.24c-11.67,45.52-55.72,78.42-102.48,76.32l-105.09-4.71c-17.22-.77-34.11,9.26-42,25l-63.33,125.66c-5.19,10.29,1.2,21.41,12.5,21.78l911.37,30.27c10,.34,18.44-9.61,16.6-19.49ZM1891,704.32c-12.55-.78-21.26-11.7-19.44-24.38s13.49-22.3,26-21.48,21.19,11.72,19.37,24.37S1903.51,705.09,1891,704.32Z"/><path class="cls-24" d="M2110.14,1056.2c-81.3-50.18-143.67-14.6-194.34-71.2-54.24-60.6-17.66-140.37-73.78-178-35.93-24.1-68-2.84-109.76-9.37-15.3-2.39-31.63-8.47-48.6-20.32l-22.52,87.77c-11.67,45.52-55.72,78.41-102.48,76.32l-105.09-4.71c-17.22-.77-34.11,9.26-42,25l-63.33,125.66c-5.19,10.29,1.2,21.41,12.5,21.78L2189,1136.62C2168.1,1103.49,2142.18,1076,2110.14,1056.2Z"/><polygon class="cls-18" points="2394.27 1343.22 1232.41 1336.14 1232.41 1267.15 2394.27 1276.76 2394.27 1343.22"/><polygon class="cls-18" points="2394.27 1459.57 1232.41 1456.93 1232.41 1387.94 2394.27 1393.11 2394.27 1459.57"/><polygon class="cls-18" points="2394.27 1575.92 1232.41 1577.71 1232.41 1508.72 2394.27 1509.46 2394.27 1575.92"/><polygon class="cls-18" points="2394.27 1692.27 1232.41 1698.5 1232.41 1629.51 2394.27 1625.81 2394.27 1692.27"/><polygon class="cls-18" points="2197.8 1883.9 1215.03 1907.58 1215.03 1835.73 2197.8 1816.55 2197.8 1883.9"/><polygon class="cls-18" points="2197.8 2001.83 1215.03 2033.36 1215.03 1961.52 2197.8 1934.47 2197.8 2001.83"/><polygon class="cls-18" points="2197.8 2119.75 1215.03 2159.15 1215.03 2087.3 2197.8 2052.39 2197.8 2119.75"/><polygon class="cls-18" points="2197.8 2237.67 1215.03 2284.93 1215.03 2213.09 2197.8 2170.32 2197.8 2237.67"/><polygon class="cls-18" points="2394.27 1879.17 2264.99 1882.29 2264.99 1815.24 2394.27 1812.71 2394.27 1879.17"/><polygon class="cls-18" points="2394.27 1995.52 2264.99 1999.67 2264.99 1932.62 2394.27 1929.07 2394.27 1995.52"/><polygon class="cls-18" points="2394.27 2111.88 2264.99 2117.06 2264.99 2050.01 2394.27 2045.42 2394.27 2111.88"/><polygon class="cls-18" points="2394.27 2228.23 2264.99 2234.44 2264.99 2167.39 2394.27 2161.77 2394.27 2228.23"/><polygon class="cls-18" points="2197.8 2429.04 1215.03 2489.05 1215.03 2417.21 2197.8 2361.68 2197.8 2429.04"/><polygon class="cls-18" points="2197.8 2546.96 1215.03 2614.84 1215.03 2542.99 2197.8 2479.61 2197.8 2546.96"/><polygon class="cls-18" points="2197.8 2664.88 1215.03 2740.63 1215.03 2668.78 2197.8 2597.53 2197.8 2664.88"/><polygon class="cls-18" points="2197.8 2782.81 1215.03 2866.41 1215.03 2794.56 2197.8 2715.45 2197.8 2782.81"/><polygon class="cls-18" points="2394.27 2417.04 2264.99 2424.93 2264.99 2357.89 2394.27 2350.58 2394.27 2417.04"/><polygon class="cls-18" points="2394.27 2533.39 2264.99 2542.32 2264.99 2475.27 2394.27 2466.93 2394.27 2533.39"/><polygon class="cls-18" points="2394.27 2649.74 2264.99 2659.7 2264.99 2592.66 2394.27 2583.28 2394.27 2649.74"/><polygon class="cls-18" points="2394.27 2766.09 2264.99 2777.09 2264.99 2710.04 2394.27 2699.64 2394.27 2766.09"/><path class="cls-25" d="M3036.61,1883.62,574.92,1821.75c-136.5-3.43-249.6,99.45-249.6,229.87V2546c0,130.42,113.1,229.49,249.6,221.46l2461.69-144.8c81.6-4.8,146.64-88.11,146.64-186.16V2064.83C3183.25,1966.78,3118.21,1885.67,3036.61,1883.62Z"/><path class="cls-23" d="M3063.52,1883.62,601.83,1821.75c-136.5-3.43-249.6,99.45-249.6,229.87V2546c0,130.42,113.1,229.49,249.6,221.46l2461.69-144.8c81.6-4.8,146.64-88.11,146.64-186.16V2064.83C3210.16,1966.78,3145.12,1885.67,3063.52,1883.62Z"/><path class="cls-26" d="M601.83,2736.62c-117.92,6.61-215.69-79.44-215.69-192V2051.78c0-112.52,97.77-201.87,215.69-199.23l2461.69,55.14c70.69,1.58,127.37,72,127.37,157V2437.2c0,85-56.68,157.38-127.37,161.35Z"/><path class="cls-18" d="M929.47,2044.51l70.14,138.89a17.51,17.51,0,0,0,13.34,9.4l153.27,20.63c14.08,1.89,19.69,19.06,9.52,29.08l-110.28,108.57a17.49,17.49,0,0,0-5,15.42l26.26,150.37c2.45,14-12.52,25.34-25.37,19.2l-139.6-66.82a18.47,18.47,0,0,0-16.76.56L761.25,2548c-13.59,7.41-29.53-3.05-26.92-17.7l27.86-156.62a17,17,0,0,0-5.32-15.6L637.73,2249.44c-11.24-10.26-5-28.45,10.49-30.75l163.67-24.26a18.45,18.45,0,0,0,13.79-9.77l71.48-140.33C903.79,2031.33,922.87,2031.46,929.47,2044.51Z"/><path class="cls-27" d="M1490.51,2047.61l63.16,131.78a15.8,15.8,0,0,0,12,8.93L1703.83,2208c12.7,1.81,17.77,18.12,8.59,27.63l-99.43,103a17.12,17.12,0,0,0-4.54,14.63L1632.12,2496c2.2,13.29-11.3,24-22.87,18.18l-125.72-63.66a15.84,15.84,0,0,0-15.08.51L1339.23,2525a16.14,16.14,0,0,1-24.19-16.83l25-148.41a16.68,16.68,0,0,0-4.79-14.8l-107-103.1c-10.09-9.73-4.52-27,9.41-29.13l147-22.91a16.69,16.69,0,0,0,12.41-9.26l64.29-133.08A16,16,0,0,1,1490.51,2047.61Z"/><path class="cls-28" d="M1996.8,2050.4,2054,2175.78a14.45,14.45,0,0,0,10.87,8.5L2190,2203c11.51,1.72,16.1,17.26,7.78,26.31l-90.11,98a16.82,16.82,0,0,0-4.11,13.92L2125,2477.18c2,12.66-10.23,22.86-20.72,17.26l-113.8-60.78a13.74,13.74,0,0,0-13.65.46L1860,2504.19c-11,6.62-24-2.85-21.86-16l22.63-141a16.37,16.37,0,0,0-4.33-14.07L1759.85,2235c-9.11-9.25-4.08-25.62,8.49-27.67l132.81-21.72a15.15,15.15,0,0,0,11.21-8.8l58.14-126.55C1975.89,2038.52,1991.43,2038.63,1996.8,2050.4Z"/><path class="cls-29" d="M2456,2052.93l52,119.56a13.22,13.22,0,0,0,9.89,8.11l113.93,18c10.49,1.65,14.68,16.47,7.09,25.1l-82,93.42a16.57,16.57,0,0,0-3.75,13.27l19.52,129.72c1.81,12.08-9.32,21.79-18.86,16.43l-103.51-58.14a12,12,0,0,0-12.41.41l-106.12,66.59c-10,6.29-21.76-2.76-19.84-15.32l20.54-134.34a16.1,16.1,0,0,0-3.93-13.41l-87.68-93.5c-8.26-8.81-3.7-24.39,7.7-26.35l120.56-20.63a13.89,13.89,0,0,0,10.19-8.39l52.82-120.62C2437,2041.61,2451.1,2041.71,2456,2052.93Z"/><path class="cls-18" d="M2874.33,2055.24l47.47,114.26c1.75,4.21,5.13,7.11,9,7.76l104.15,17.2c9.59,1.59,13.41,15.77,6.48,24l-75,89.26a16.37,16.37,0,0,0-3.42,12.69l17.84,124c1.66,11.55-8.51,20.81-17.23,15.67l-94.56-55.73a10.53,10.53,0,0,0-11.33.38l-96.83,63.44c-9.14,6-19.84-2.67-18.09-14.66l18.73-128.26a15.93,15.93,0,0,0-3.58-12.82l-79.93-89.33c-7.53-8.41-3.37-23.29,7-25.15L2795,2178.36a12.82,12.82,0,0,0,9.29-8l48.22-115.23C2857,2044.43,2869.87,2044.52,2874.33,2055.24Z"/><g class="cls-30"><path class="cls-23" d="M2721.13,2293.86c-305.55-78-513.78,337.52-879.83,253.94-323.37-73.83-332.49-421-724.47-667.59q-40.75-25.64-83.08-47.6l-431.92-10.86c-136.5-3.43-249.6,99.45-249.6,229.87V2546c0,130.42,113.1,229.49,249.6,221.46l2446-143.88C2937.5,2398.61,2820,2319.1,2721.13,2293.86Z"/></g><path class="cls-31" d="M929.47,2044.51l70.14,138.89a17.51,17.51,0,0,0,13.34,9.4l153.27,20.63c14.08,1.89,19.69,19.06,9.52,29.08l-110.28,108.57a17.49,17.49,0,0,0-5,15.42l26.26,150.37c2.45,14-12.52,25.34-25.37,19.2l-139.6-66.82a18.47,18.47,0,0,0-16.76.56L761.25,2548c-13.59,7.41-29.53-3.05-26.92-17.7l27.86-156.62a17,17,0,0,0-5.32-15.6L637.73,2249.44c-11.24-10.26-5-28.45,10.49-30.75l163.67-24.26a18.45,18.45,0,0,0,13.79-9.77l71.48-140.33C903.79,2031.33,922.87,2031.46,929.47,2044.51Z"/><path class="cls-32" d="M2239.39,1864.06a74.52,74.52,0,0,0,12.1-38.17c.93-35.41-25.33-63-28.86-61.44-1.9.85.51,11.23,1.86,15.83,2.82,9.57,5.84,10.49,5.59,14.89-.52,9-13.59,9.4-20.48,21.41-5,8.65-5.36,21,0,30.73C2218.49,1863.48,2238.54,1864.05,2239.39,1864.06Z"/><polygon class="cls-33" points="2800.41 2633.18 2790.31 2598.44 2832.45 2567.21 2858.72 2557.39 2843.17 2605.99 2800.41 2633.18"/><path class="cls-34" d="M2748.24,3332.79s23.05,58,17,83.71c24.75-.48,40.76-3.64,40.76-3.64s-9.94-26.45-11.88-39.55c-2.63-17.7-2.43-46.34-2.43-46.34Z"/><path class="cls-35" d="M2494.14,3468.43a18.17,18.17,0,0,1,4.35,10.65,17.44,17.44,0,0,1-1.3,7.14c-3.93,10.34-10.11,11.7-16.77,22.68-4.07,6.7-3.3,8.73-7,11.75-4.91,4-10.86,4.22-16,4.28a284.92,284.92,0,0,1-37-2.09q12.42-16,26.43-32.43,6.15-7.2,12.29-14l24.32-8.22Z"/><path class="cls-36" d="M2473.91,3350.33s-13.9,72.55,3.79,92.86c15.07,20.32-7.28,5.82-7.28,5.82l-26.69,23.3-16,27.66s14.75-71,10.81-99.18-5.89-47.18-5.89-47.18Z"/><path class="cls-37" d="M2421.49,2556.8s-37.35,33.42-37.35,171,17.69,436.41,17.69,436.41l28.31,213.92s29.35,1.05,49-4.85c17.7-80.6,46.53-216.94,32.76-330.95-5.89-123.85,49.15-279.15,49.15-279.15s47.18,157.27,80.6,235.9,97,325,102.94,342.66c39.1,3.54,55.8-6.8,55.8-6.8s-25.07-265.09-48.66-365.35-21.62-342-60.94-410.85C2602.34,2523.38,2421.49,2556.8,2421.49,2556.8Z"/><path class="cls-38" d="M2421.49,2556.8s-37.35,33.42-37.35,171,17.69,436.41,17.69,436.41l28.31,213.92s29.35,1.05,49-4.85c17.7-80.6,46.53-216.94,32.77-330.95-5.9-123.85,49.14-279.15,49.14-279.15s47.18,157.27,80.6,235.9,97,325,102.94,342.66c39.1,3.54,55.8-6.8,55.8-6.8s-25.07-265.09-48.66-365.35-21.62-342-60.94-410.85C2602.34,2523.38,2421.49,2556.8,2421.49,2556.8Z"/><path class="cls-39" d="M2615.52,2808.94c11.64,75.7,34.93,116.47,93.17,168.87,46.58,34.94,11.64,110.65,29.11,168.88,5.83,17.47,23.3,34.94,29.12,52.41,21.67,43.34,1.43,96.35,11.26,142.24,15.29-2.11,22.22-6.37,22.22-6.37s-25.07-265.09-48.66-365.35-21.62-342-60.94-410.85c-88.46-35.39-269.31-2-269.31-2s-37.35,33.42-37.35,171c0,11.16.12,23.4.33,36.44,38.77,34.32,118.08,41.95,167,3.91a23,23,0,0,1,9.35-4.24l.25-.73.2.68C2583.52,2759.83,2610.47,2788.74,2615.52,2808.94Z"/><path class="cls-35" d="M2759.16,3438.51s-5.75,0-5.27,7.42-2.58,33,26.62,34.14,33.71-2.06,34.66-2.06-7.66-24.42-7.66-24.42l-9.33-12L2773,3439Z"/><path class="cls-40" d="M2823.91,3464.13c-.62-6.16-4.07-15.87-7.54-23.68-5.16-11.6-.92-15.94-5.85-26.5-1.7-3.65-3.36-7.12-7-10.55-.83-.79-8.89-8.24-20.62-7.86a21,21,0,0,0-9.71,2.28c-4.53,2.41-6.8,6-8.74,9.22-3,5-2.34,6.53-7,20.87a50.27,50.27,0,0,0-1.84,7.1,51.33,51.33,0,0,0-.77,6.37c7.66,0,37.1,1.2,43.33,5.75s9.33,12.2,9.33,19.86,3.83,11.25,7.66,11C2818.59,3477.79,2825.39,3471.45,2823.91,3464.13Z"/><path class="cls-40" d="M2470.18,3433c6.57.1,11.4,5.34,15,18s21.11,23.77.73,21.11-35.19,26.2-42.46,36.88-26.82,20.16-26.34,9.72,9.11-15.3,11.53-26S2455.17,3432.77,2470.18,3433Z"/><path class="cls-41" d="M2815.87,2573.41c4.84-13.44,35-101.77-13.76-182.33-39.94-65.94-109.05-87.46-118.91-90.37-60-17.71-90,5-109-15.9-32.12-35.54,4.26-156.61,74.63-180.86,79.33-27.34,174.49,77.77,213,146.81,50.59,90.58,38.14,180.6,35.21,199.14a310.49,310.49,0,0,1-38.4,107.49Z"/><path class="cls-42" d="M2608.72,2086.85c-70.81-2.83-125.41-1.71-156.26,29.12-32.58,32.56.35,69.31-6.73,154.48-10.83,130.39-93.91,162.25-100.17,294.53a337.93,337.93,0,0,0,11.3,102.94c18.23,22.71,48.08,54.75,92.12,81.55,64.1,39,101.27,32.2,193.32,57.39,150.57,41.21,164,90.28,238.63,77.78,75.45-12.63,141.66-76.13,133.66-111-4.79-20.89-35.21-15-70.23-46.82-45.14-41.05-27.73-80.24-62.05-124.35-49.29-63.36-118-24.63-160-79.54-42.49-55.55-25.64-165,10.18-224.68,23.39-39,33.41-84.64,53.32-125.5a28.43,28.43,0,0,0,2.72-15.93c-3.23-26.61-47.59-41-81.19-51.63C2656.14,2089,2614.55,2087.08,2608.72,2086.85Z"/><path class="cls-43" d="M2549.08,2083.93l14-4.3s3.65,18.91,48.55,21.27a67.07,67.07,0,0,0,41-14l9.55,7s-20.94,26.15-54.23,25.48C2565,2118.52,2549.08,2083.93,2549.08,2083.93Z"/><path class="cls-44" d="M2577.52,2026.41c2.69-20.76,19.1-34.07,22.69-36.91,15-11.93,18.05-13.13,23.2-14.1l7-1.07.77,0c4.12.25,16.46,5.07,18.7,6.65,7.17,5,1.89,40.74-19.84,85.14q-1.28,5.64-2.56,11.28c18.94,3.33,23.63,6.75,23.78,9.47.32,5.91-20.42,13.45-39.64,13.94-24.1.62-49.69-9.75-49.2-17.49.2-3.13,4.74-7,22.24-10.79l8.21-11.54C2590.42,2058,2575.53,2041.71,2577.52,2026.41Z"/><path class="cls-45" d="M2607.31,2018.59c5.47-3.27,9.63,3.77,7.06,9.91s-11.23,10-16.48,6.33S2600,2023,2607.31,2018.59Z"/><path class="cls-46" d="M3315.89,2018.49c-72-78.09-239.39-56.67-332.26,6-43.16,29.14-65.3,63.57-116.29,66.45-38.77,2.2-100.43-12.37-132.91-54.37-4.09-5.29-20.46-27.47-45-55.45-10.83-12.34-21.61-23.91-38.31-26.53-4.24-.66-18.35-3-27.68,6.15-7.56,7.39-9.42,20.23-7.18,29.49,1.34,5.53,3.07,6.11,2.82,9.74-.69,10.18-19.24,14.61-18.2,19.74.73,3.66,10.38,2.32,12.05,6.92,1.82,5-8.78,9.37-13.34,22-8.53,5.71-13.92,19.92-15.78,38.93-2.74,28,.07,50.67,5.36,67.78,25.51,82.37,43.75,141.28,87.9,174.18,58.45,43.56,111.08,3.34,259.77-3,203.59-8.71,254.36,60.3,327.53,13.09C3355.71,2280.73,3390.6,2099.56,3315.89,2018.49Z"/><path class="cls-47" d="M2248,1859.1c-1.81,17-7.95,92.4,44,156,48.57,59.45,117.35,71.33,130.14,73.26,61.84,9.34,88.51-17.31,110.13.85,36.67,30.82,17.18,155.73-49.21,189.37-74.84,37.93-183.48-53.19-231.12-116.31-62.5-82.8-62.48-173.68-62.11-192.45a310.71,310.71,0,0,1,23.34-111.73,55.27,55.27,0,0,1,34.8,1Z"/><path class="cls-48" d="M2883.19,2834.8c-18.1-18.56,1.83-56-24.92-83.82-24.82-25.83-52.92-5-92.88-27.18-51.25-28.51-37.13-80.69-86.09-108.74-35.2-20.18-51.75,1.51-106.47-9.07s-121.18-48.22-154-115.53A198.55,198.55,0,0,1,2399,2408c-24.57,43.9-50.06,86-53.42,157a337.93,337.93,0,0,0,11.3,102.94c18.23,22.71,48.08,54.75,92.12,81.55,64.1,39,101.27,32.2,193.32,57.39,150.57,41.21,164,90.28,238.63,77.78,48.22-8.07,92.56-36.92,116.27-65.8C2927.62,2849.82,2896.33,2848.27,2883.19,2834.8Z"/><path class="cls-49" d="M1133.38,1222.43h16.55l320.64,227.32c-49.46,66.46-78.38,144.11-78.38,235.5L969.39,1679C969.39,1505.05,1030.36,1350.76,1133.38,1222.43Z"/><path class="cls-50" d="M1700.81,1291.4c-75.77,22.64-132.31,68.86-184.38,122.89-.41.42-.63,1.57-1.23,1.59-13,.35-8.42.7-16.56,0l-.72-.51L1163,1189c108.75-118.66,255-206.66,419.9-243.92h16.55Z"/><path class="cls-51" d="M2106.74,975.5l-93.44,320.76c-41.39-13.78-87.2-25.75-133.42-28-41.31-2-95.45,7.52-134,15.13L1627.63,935a911.06,911.06,0,0,1,479.11,40.5Z"/><path class="cls-52" d="M2492.38,1259.63l-268.57,173,2.49,9.2h-16.56A469.09,469.09,0,0,0,2038,1312.3L2147.5,991.75c11.42-.56,6.12,0,16.56,0,.3,0,.55.23.83.35C2299.28,1052.13,2409.58,1149.2,2492.38,1259.63Z"/><path class="cls-53" d="M2642.73,1703l-340.14-4.77c0-84.63-24.92-158-68.06-222.75l281.4-182.15c16.56,0,14.27-.56,16.56,0,2.81.69-9.52,10.65-7.95,13.08C2599.6,1422.94,2642.73,1557.4,2642.73,1703Z"/><polygon class="cls-54" points="1813.22 1569.1 2263.66 1244.2 1943.77 1681.94 1813.22 1569.1"/><path class="cls-55" d="M1982.85,1650.54c0,60.17-52.54,108.5-118,108-66.19-.56-120.39-50.78-120.39-112.17s54.2-109.69,120.39-107.9C1930.31,1540.18,1982.85,1590.37,1982.85,1650.54Z"/><path class="cls-56" d="M1864.85,1715.31c-40.06-.48-72.86-31-72.86-68.15s32.8-66.5,72.86-65.57c39.8.93,72,31.49,72,68.14S1904.65,1715.79,1864.85,1715.31Zm0-120.67c-32.22-.72-58.57,23-58.57,52.78s26.35,54.42,58.57,54.85c32.06.42,58-23.26,58-52.79S1896.91,1595.35,1864.85,1594.64Z"/><path class="cls-57" d="M1149.93,1223.39l337.2,226.84c-49.46,66.46-78.38,143.87-78.38,235.26L986,1679.57C986,1505.65,1046.92,1349.92,1149.93,1223.39Z"/><path class="cls-58" d="M1717.37,1291.15c-79.2,23.66-149,67-202.17,124.66l-335.68-227.08c108.75-118.66,255-204.41,419.89-244.17Z"/><path class="cls-59" d="M2123.3,975.5l-110,320.76a498.28,498.28,0,0,0-252.07-16L1644.19,935a911.06,911.06,0,0,1,479.11,40.5Z"/><path class="cls-60" d="M2508.94,1259.63,2226.3,1441.56c-44.64-54.68-103.46-99.5-171.7-129.4l109.46-320.47C2304.54,1051.54,2423.29,1145.41,2508.94,1259.63Z"/><path class="cls-61" d="M2659.28,1703l-340.13-4.77c0-84.63-24.92-158-68.06-222.75l281.4-182.15C2612.86,1412.85,2659.28,1551.92,2659.28,1703Z"/><polygon class="cls-62" points="1829.78 1569.1 2280.22 1244.2 1960.33 1681.94 1829.78 1569.1"/><path class="cls-63" d="M1999.41,1650.54c0,60.17-52.54,108.5-118,108-66.19-.56-120.39-50.78-120.39-112.17s54.2-109.69,120.39-107.9C1946.87,1540.18,1999.41,1590.37,1999.41,1650.54Z"/><path class="cls-18" d="M1881.41,1715.31c-40.06-.48-72.86-31-72.86-68.15s32.8-66.5,72.86-65.57c39.8.93,72,31.49,72,68.14S1921.21,1715.79,1881.41,1715.31Zm0-120.67c-32.22-.72-58.58,23-58.58,52.78s26.36,54.42,58.58,54.85c32,.42,58-23.26,58-52.79S1913.46,1595.35,1881.41,1594.64Z"/></g></g></svg>