<svg id="Layer_1" data-name="Layer 1" xmlns="http://www.w3.org/2000/svg" xmlns:xlink="http://www.w3.org/1999/xlink" viewBox="0 0 3710 3710"><defs><style>.cls-1{fill:#f4f7fa;}.cls-2{fill:url(#linear-gradient);}.cls-3{fill:#eaedf3;}.cls-4{fill:url(#linear-gradient-2);}.cls-5{fill:#97a6b7;opacity:0.2;isolation:isolate;}.cls-6{fill:url(#linear-gradient-3);}.cls-7{fill:url(#linear-gradient-4);}.cls-8{fill:url(#linear-gradient-5);}.cls-9{fill:url(#linear-gradient-6);}.cls-10{fill:url(#linear-gradient-7);}.cls-11{fill:url(#linear-gradient-8);}.cls-12{fill:url(#linear-gradient-9);}.cls-13{fill:url(#linear-gradient-10);}.cls-14{fill:url(#linear-gradient-11);}.cls-15{fill:url(#linear-gradient-12);}.cls-16{fill:url(#linear-gradient-13);}.cls-17{fill:url(#linear-gradient-14);}.cls-18{fill:url(#linear-gradient-15);}.cls-19{fill:url(#linear-gradient-16);}.cls-20{fill:url(#linear-gradient-17);}.cls-21{fill:url(#linear-gradient-18);}.cls-22{fill:url(#linear-gradient-19);}</style><linearGradient id="linear-gradient" x1="1403.88" y1="1118.99" x2="-745.3" y2="5132.16" gradientTransform="matrix(-1, 0, 0, 1, 3684.08, 0)" gradientUnits="userSpaceOnUse"><stop offset="0" stop-color="#e38ddd"/><stop offset="1" stop-color="#9571f6"/></linearGradient><linearGradient id="linear-gradient-2" x1="103.17" y1="6454.92" x2="1952.02" y2="207.11" xlink:href="#linear-gradient"/><linearGradient id="linear-gradient-3" x1="2604.28" y1="1680.85" x2="347.25" y2="5895.4" gradientTransform="matrix(-1, 0, 0, 1, 3684.08, 0)" gradientUnits="userSpaceOnUse"><stop offset="0" stop-color="#ff9085"/><stop offset="1" stop-color="#fb6fbb"/></linearGradient><linearGradient id="linear-gradient-4" x1="13649.22" y1="3182.3" x2="13790.85" y2="3182.3" gradientTransform="translate(-13062.16)" gradientUnits="userSpaceOnUse"><stop offset="0" stop-color="#444b8c"/><stop offset="1" stop-color="#26264f"/></linearGradient><linearGradient id="linear-gradient-5" x1="13663.59" y1="3116.49" x2="13721.03" y2="3116.49" gradientTransform="translate(-13062.16)" gradientUnits="userSpaceOnUse"><stop offset="0" stop-color="#febbba"/><stop offset="1" stop-color="#ff928e"/></linearGradient><linearGradient id="linear-gradient-6" x1="13950.41" y1="3180.04" x2="14172.63" y2="3180.04" xlink:href="#linear-gradient-4"/><linearGradient id="linear-gradient-7" x1="13953.79" y1="3090.99" x2="14010.91" y2="3090.99" xlink:href="#linear-gradient-5"/><linearGradient id="linear-gradient-8" x1="13627.9" y1="2584.3" x2="14017.32" y2="2584.3" xlink:href="#linear-gradient-4"/><linearGradient id="linear-gradient-9" x1="655.32" y1="2305.39" x2="729.74" y2="2305.39" gradientUnits="userSpaceOnUse"><stop offset="0" stop-color="#4f52ff"/><stop offset="1" stop-color="#4042e2"/></linearGradient><linearGradient id="linear-gradient-10" x1="786.1" y1="2844.32" x2="1179.1" y2="1180.94" gradientUnits="userSpaceOnUse"><stop offset="0" stop-color="#aa80f9"/><stop offset="1" stop-color="#6165d7"/></linearGradient><linearGradient id="linear-gradient-11" x1="14311.6" y1="1444.52" x2="14523.89" y2="1444.52" gradientTransform="translate(-13062.16)" gradientUnits="userSpaceOnUse"><stop offset="0" stop-color="#ffc444"/><stop offset="1" stop-color="#f36f56"/></linearGradient><linearGradient id="linear-gradient-12" x1="1305.37" y1="1433.39" x2="611.25" y2="2566.44" xlink:href="#linear-gradient-10"/><linearGradient id="linear-gradient-13" x1="14816.68" y1="1464.66" x2="14357.97" y2="2035.34" xlink:href="#linear-gradient-11"/><linearGradient id="linear-gradient-14" x1="14300.63" y1="1119.77" x2="13856.36" y2="1936.06" xlink:href="#linear-gradient-11"/><linearGradient id="linear-gradient-15" x1="11664.45" y1="11537.7" x2="11468.11" y2="11797.44" gradientTransform="translate(-15085.2 -1429.26) rotate(-35.22)" xlink:href="#linear-gradient-11"/><linearGradient id="linear-gradient-16" x1="1306.5" y1="960.03" x2="1017.09" y2="1474.89" gradientTransform="matrix(1, 0, 0, 1, 0, 0)" xlink:href="#linear-gradient-11"/><linearGradient id="linear-gradient-17" x1="11376.89" y1="11743.4" x2="11534.37" y2="11581.83" gradientTransform="translate(-15085.2 -1429.26) rotate(-35.22)" xlink:href="#linear-gradient-11"/><linearGradient id="linear-gradient-18" x1="1294.53" y1="1213.8" x2="2654.83" y2="1213.8" gradientTransform="matrix(1, 0, 0, 1, 0, 0)" xlink:href="#linear-gradient"/><linearGradient id="linear-gradient-19" x1="14917.02" y1="1487.87" x2="14402.12" y2="2128.47" xlink:href="#linear-gradient-11"/></defs><path class="cls-1" d="M3037.93,2182.91c-256.91,600.51-935.09,858.44-1466.44,814.46-145.09-12-437-36.16-664.92-251.71C468.86,2331.73,536.27,1466.5,955.29,957.09c54-65.6,427.47-505.11,1009.51-499.23,426.14,4.31,725.24,245,761.61,275,46,37.88,147.29,127.91,238.61,270.73C3179.61,1339.19,3198.48,1807.65,3037.93,2182.91Z"/><path class="cls-2" d="M2737.25,2275.27c22.83,36.6,46.72,88.84,40.92,141.07-10.61,95.48-157.05,137.92-285.39,84.87-91.49-37.81-52.54-161.88-22.63-230,9.48-21.59-6.2-45.81-29.77-45.81H2109.83V1853.07c0-32.51,34.41-53.42,63.23-38.38,34.53,18,79.93,37.16,127.72,44.7,100.78,15.92,201.57-95.47,191-201.56s-111.39-185.65-217.48-180.35c-36.51,1.83-66.92,17-91.11,36.19-28.12,22.26-69.58,1.54-69.58-34.32V1153.92h920.07a47,47,0,0,1,47,46.88l2.52,1024.59H2764.67C2739.07,2225.39,2723.69,2253.54,2737.25,2275.27Z"/><path class="cls-3" d="M2608.53,2531.25a312.51,312.51,0,0,1-118.35-23.75c-25.27-10.45-43-27.9-52.63-51.87-22.05-54.81,2.16-132,26.37-187.16a25.89,25.89,0,0,0-2-24.63,25.32,25.32,0,0,0-21.54-11.65H2103V1853.06a50,50,0,0,1,73.19-44.4c44.06,23,86.33,37.81,125.63,44,41.25,6.52,85.82-9.51,122.29-44,42.75-40.38,66.06-97.93,60.84-150.19-4.91-49-29.93-94.25-70.47-127.35-39.5-32.26-90.51-49.37-139.9-46.88-30.72,1.54-60.07,13.22-87.23,34.72a49,49,0,0,1-52.13,5.62,50,50,0,0,1-28.47-45.27V1147.12h926.87a53.87,53.87,0,0,1,53.79,53.66L3090,2232.19h-325.3a25.26,25.26,0,0,0-22.37,13.15,25.63,25.63,0,0,0,.72,26.33h0c22.49,36,48,90.53,41.92,145.42-3.89,34.95-24.56,64.43-59.79,85.27C2692.66,2521.57,2651.76,2531.25,2608.53,2531.25Zm-491.9-312.66h323.74a39.41,39.41,0,0,1,36,55.35c-19,43.17-47.56,123.53-26.2,176.61,8.23,20.45,23.44,35.38,45.2,44.37,75.91,31.37,165.46,29.66,222.85-4.28,31.4-18.57,49.79-44.52,53.18-75,5.66-51-18.59-102.5-39.94-136.72a39.09,39.09,0,0,1-1.07-40.13,38.7,38.7,0,0,1,34.27-20.15h311.66l-2.51-1017.77a40.25,40.25,0,0,0-40.18-40.09H2120.37v318.62a36.45,36.45,0,0,0,20.8,33,35,35,0,0,0,37.75-4c29.43-23.31,61.39-36,95-37.65,53.48-2.68,106.49,15.06,149.19,49.93,43.36,35.41,70.14,83.9,75.4,136.53,5.63,56.37-19.28,118.23-65,161.45-39.56,37.37-88.3,54.7-133.76,47.52-40.76-6.44-84.44-21.71-129.81-45.39a36.42,36.42,0,0,0-53.28,32.33Z"/><path class="cls-4" d="M2109.83,3243.81V2932c0-31-31.62-52.3-60.2-40.2a367,367,0,0,1-126.29,28.44c-115.85,5.31-204.06-90.17-186.48-222.78S1867.23,2533,1922.23,2549c28.71,8.31,78.57,40.17,119.68,68.72,28.69,19.93,67.92-.63,67.92-35.57V2225.39h330.55c23.57,0,39.25,24.22,29.77,45.81-29.91,68.13-68.86,192.2,22.63,230,128.34,53.05,274.78,10.61,285.39-84.87,5.8-52.23-18.09-104.47-40.92-141.07-13.56-21.73,1.82-49.88,27.42-49.88h318.48l5.19,984.21a34,34,0,0,1-34,34.21Z"/><path class="cls-5" d="M3054.31,3250.62H2103V2932a36.76,36.76,0,0,0-16.51-30.72,35.73,35.73,0,0,0-34.22-3.21,372.51,372.51,0,0,1-128.63,29c-56.92,2.59-108.45-18-145.13-58-40.16-43.79-57.36-105-48.41-172.52,9.77-73.76,47.33-112.44,77.11-131.9,43.92-28.69,90.42-29.93,116.89-22.27,24.31,7,65.25,30.48,121.67,69.67a36.45,36.45,0,0,0,57.23-30V2218.59h337.35a39.41,39.41,0,0,1,36,55.35c-19,43.17-47.56,123.53-26.2,176.61,8.23,20.45,23.44,35.38,45.2,44.37,75.91,31.37,165.46,29.66,222.85-4.28,31.4-18.57,49.79-44.52,53.18-75,5.66-51-18.59-102.5-39.94-136.72a39.09,39.09,0,0,1-1.07-40.13,38.7,38.7,0,0,1,34.27-20.15h325.24l5.23,991a40.83,40.83,0,0,1-40.83,41ZM2116.63,3237h937.68a27.23,27.23,0,0,0,27.22-27.37l-5.15-977.45H2764.67a25.26,25.26,0,0,0-22.37,13.15,25.63,25.63,0,0,0,.72,26.33c22.49,36,48,90.53,41.91,145.42-3.88,34.95-24.55,64.43-59.78,85.27-61.82,36.56-154.06,38.58-235,5.14-25.27-10.45-43-27.9-52.63-51.87-22.05-54.81,2.16-132,26.37-187.16a25.89,25.89,0,0,0-2-24.63,25.32,25.32,0,0,0-21.54-11.65H2116.63V2582.1a50.06,50.06,0,0,1-78.6,41.16c-54.43-37.81-95.13-61.24-117.7-67.78-25.57-7.39-68.15-3.9-105.65,20.6-27.4,17.9-62,53.64-71.07,122.29-8.41,63.4,7.56,120.77,45,161.53,33.91,36.95,81.64,56,134.47,53.56a359,359,0,0,0,124-27.92A49.79,49.79,0,0,1,2094,2890a50.34,50.34,0,0,1,22.6,42.06Z"/><path class="cls-6" d="M1201.07,3245.39a36.3,36.3,0,0,1-36.37-36.31v-262.4c0-33.84.67-348.07.67-382.49V2217.43h320.15c26.39,0,41.87-30,26.26-51.28-74.93-102.2-9.54-247.66,46.4-272.28,66.31-29.17,201.57-37.13,241.35,111.39,20.72,77.37,1.7,133.87-21.28,170.24-13.68,21.67,1.63,49.89,27.25,49.89h304.33V2582.1c0,34.94-39.23,55.5-67.92,35.57-41.11-28.55-91-60.41-119.68-68.72-55-15.91-167.79,15.91-185.37,148.52s70.63,228.09,186.48,222.78a367,367,0,0,0,126.29-28.44c28.58-12.1,60.2,9.17,60.2,40.2v311.8Z"/><path class="cls-5" d="M1201,3252.2a43.12,43.12,0,0,1-43.12-43.12v-262.4c0-16.85.17-103.2.34-189.93.17-87.45.33-175.28.33-192.56V2210.63h327a25.24,25.24,0,0,0,22.89-14.09,24.81,24.81,0,0,0-2.12-26.37c-46.38-63.26-36.78-134.35-26.94-171.1,14-52,45.23-97.85,76.09-111.42,39.61-17.44,105.76-28.25,161.8-1.37,43.75,21,73.65,60.43,88.86,117.22,21.87,81.64.05,140.58-22.1,175.64a25.52,25.52,0,0,0-.83,26.28,25.17,25.17,0,0,0,22.33,13.17h311.13V2582.1a50.06,50.06,0,0,1-78.6,41.16c-54.43-37.81-95.13-61.24-117.7-67.77-25.57-7.4-68.15-3.91-105.65,20.59-27.4,17.9-62,53.64-71.07,122.29-8.41,63.4,7.56,120.77,45,161.53,33.91,36.95,81.64,56,134.47,53.56a358.73,358.73,0,0,0,124-27.92A49.79,49.79,0,0,1,2094,2890a50.34,50.34,0,0,1,22.6,42.06v318.6l-915.54,1.59Zm0-13.61v0l902-1.57V2932a36.76,36.76,0,0,0-16.51-30.72,35.73,35.73,0,0,0-34.22-3.21,372.51,372.51,0,0,1-128.63,29c-56.92,2.59-108.45-18-145.13-58-40.16-43.79-57.36-105-48.41-172.52,9.77-73.76,47.33-112.44,77.11-131.9,43.92-28.69,90.42-29.93,116.89-22.27,24.31,7,65.25,30.48,121.67,69.67a36.45,36.45,0,0,0,57.23-30V2232.19H1805.5a39.21,39.21,0,0,1-33-60.32c20.7-32.77,41-88,20.46-164.85-14.14-52.78-41.6-89.28-81.61-108.47-51.87-24.89-113.46-14.72-150.43,1.55-27.34,12-55.47,54.18-68.42,102.5-9.22,34.39-18.25,100.84,24.77,159.53a38.7,38.7,0,0,1,3.28,40.56,39.11,39.11,0,0,1-35,21.55H1172.17v340c0,17.28-.17,105.12-.34,192.59-.16,86.71-.33,173.06-.33,189.9v262.4a29.52,29.52,0,0,0,29.51,29.51Z"/><path class="cls-7" d="M606.78,3132.4s-15.74,24.81-19.7,94.26a11.31,11.31,0,0,0,11.24,12H721.4a7.25,7.25,0,0,0,6.9-9.54c-7.21-21.35-29-73.4-77.68-103.14Z"/><path class="cls-8" d="M601.43,3085.34l7,58.37a11,11,0,0,0,9.59,9.65,97.37,97.37,0,0,0,26-.25,18,18,0,0,0,14.87-17.88v-56.36Z"/><path class="cls-9" d="M911.31,3126s-23.56,36.62-23,86.89a21.74,21.74,0,0,0,21.87,21.27h191.16a9.16,9.16,0,0,0,5.26-16.65c-36.18-25.4-107.27-72.86-158.7-91.51Z"/><path class="cls-10" d="M891.62,3062.92l14.85,72.1a14.87,14.87,0,0,0,17.59,11.69,53.81,53.81,0,0,0,16.8-7,17.06,17.06,0,0,0,7.62-17.42l-15.36-87.34Z"/><path class="cls-11" d="M628.7,2060.58s-51.63,45.52-61.34,100.28,27.53,944.87,27.53,944.87,51.62,8.59,78.24-7.54c0,0,31.56-577.67,55.56-711.16,0,0,125.83,598.4,160.69,706.52,0,0,49.74,6,65.78-3.41,0,0-33-775.69-74.38-913.59Z"/><path class="cls-12" d="M727.18,2365.21a2.56,2.56,0,0,1-2.46-1.91L703,2280.14l-46.54-29.86a2.55,2.55,0,0,1,2.75-4.3l47.39,30.4a2.63,2.63,0,0,1,1.09,1.5L729.66,2362a2.55,2.55,0,0,1-1.83,3.11A2.37,2.37,0,0,1,727.18,2365.21Z"/><path class="cls-13" d="M1113.84,1572.4c-217.35-18.05-274.16,26.93-274.16,26.93l104.45,164.9s213.57-4.22,366.59-122.17c-28.64-30.84-48.53-64.93-61.28-91.47C1210,1567,1164.53,1576.61,1113.84,1572.4Z"/><path class="cls-14" d="M1454.2,1253.36a6.66,6.66,0,0,0-12.69-2.54L1413.77,1310a61.67,61.67,0,0,0-4.92,36.68l9.73,34.44a59.47,59.47,0,0,1-12.13,47.33c-25.48,31.85-79.75,90-157,122.14,12.75,26.54,32.64,60.63,61.28,91.47,56.15-43.27,104.16-101.84,130.47-181.16a29.08,29.08,0,0,0,20.52-28.91Z"/><path class="cls-15" d="M1209.75,1641.86c-76.51-82.45-222.26-119.7-306.64-135a77.41,77.41,0,0,0-86.5,49.08c-38,102.08-141.25,367.64-161.27,413.29-16.42,37.44-33.57,74-44.46,96.88a27.44,27.44,0,0,0,12.81,36.57c71,34.22,198.73,72.94,250.52,88a17.77,17.77,0,0,0,22.74-17.1,55.52,55.52,0,0,1,7.91-28.57L1101,1818.21c122.25,135.55,229.31,147.94,311.55,118.27A618.49,618.49,0,0,1,1385.33,1808C1263.83,1787.22,1209.75,1641.86,1209.75,1641.86Z"/><path class="cls-16" d="M1586.15,1785.28,1564.23,1756c-71,48.76-130.33,60.31-178.9,52a618.49,618.49,0,0,0,27.22,128.45C1520.9,1897.4,1586.15,1785.28,1586.15,1785.28Z"/><path class="cls-17" d="M1019.18,1355.44l-65.18,159s74.89,51.83,135.14,46.9l32.53-143Z"/><path class="cls-18" d="M1129.27,1247c1.5,2.12,47.16,167.07,47.16,167.07l-94.74,24.07-66.5-149.91S1104.28,1211.61,1129.27,1247Z"/><path class="cls-19" d="M1050.86,1311l28.83,81.65a11.69,11.69,0,0,0,1.5,2.92c3.92,5.56,18.78,23.7,36.41,7.36,16-14.82,30.81-28.11,44.5-30.53a12.1,12.1,0,0,1,13.76,8.68c4.14,15,12.86,48.94,15.93,79.59a12.05,12.05,0,0,1-9.81,13c-18.51,3.52-57.74,9.84-90.49,7.53a12.12,12.12,0,0,1-10.2-7c-9-19.73-36.68-79.57-47-95-9.66-14.54-33.32-14.13-43.25-13.25a11.9,11.9,0,0,1-8.91-2.91c-8.68-7.61-25.21-27-2-50.31a12.11,12.11,0,0,0-.28-17.43c-10-9.39-20.66-26-4-46.69,16.91-21,39.22-17.64,52.9-12.65a12.1,12.1,0,0,0,14.56-5.38c1.71-2.88,4.7-5.06,9.87-4.62a11.91,11.91,0,0,0,12.71-12.21c-.24-13.45,4.57-30.43,27.9-37.69,41.38-12.88,67.19,27.1,69.75,56.93s-43.11,41.25-70,39.24c-20.42-1.53-35.57,18.7-41.67,28.49A12,12,0,0,0,1050.86,1311Z"/><path class="cls-20" d="M1045.12,1408.77s-6.68-51.79-28.23-54.33-42.52,15.17-21.1,44.24C1022.44,1434.84,1045.12,1408.77,1045.12,1408.77Z"/><path class="cls-21" d="M1928.14,1712.35c23.38-37,42.73-94.49,21.65-173.21-40.48-151.11-178.09-143-245.55-113.33-56.92,25-123.44,173-47.21,277,15.88,21.65.13,52.18-26.72,52.18H1304.59L1294.53,709.29a44.36,44.36,0,0,1,44.76-44.78l930,8.47v331.09c0,36.48,42.19,57.57,70.79,34.92,24.61-19.49,55.56-35,92.71-36.81,107.93-5.4,210.47,75.55,221.26,183.48s-91.74,221.26-194.28,205.07c-48.62-7.67-94.81-27.13-129.95-45.47-29.32-15.31-64.33,6-64.33,39v378.8H1955.87C1929.8,1763.1,1914.22,1734.39,1928.14,1712.35Z"/><path class="cls-22" d="M1570.69,1785.81l123.53,4.82,69.21-121.17c3.32-5.82-1.64-13.13-8.21-11.81-30.13,6-53.64,44.25-64.42,65.11a22.51,22.51,0,0,1-22.15,12c-21.31-2-58.78-5.34-76.88-5.36-21.7,0-33.69,24.92-32,35.5.34,2.15.62,3.45.62,3.45Z"/></svg>