<svg xmlns="http://www.w3.org/2000/svg" xmlns:xlink="http://www.w3.org/1999/xlink" viewBox="0 0 3710 3710"><defs><style>.cls-1{isolation:isolate;}.cls-2{fill:#f4f7fa;}.cls-3,.cls-4{fill:#d8dee8;}.cls-12,.cls-17,.cls-4,.cls-50,.cls-51,.cls-59,.cls-6,.cls-60,.cls-61,.cls-9{opacity:0.3;}.cls-12,.cls-16,.cls-4,.cls-50,.cls-51,.cls-59,.cls-6,.cls-9{mix-blend-mode:multiply;}.cls-5{fill:url(#linear-gradient);}.cls-6{fill:url(#linear-gradient-2);}.cls-7{fill:url(#linear-gradient-3);}.cls-8{fill:url(#linear-gradient-4);}.cls-9{fill:url(#linear-gradient-5);}.cls-10{fill:url(#linear-gradient-6);}.cls-11{fill:url(#linear-gradient-7);}.cls-12{fill:url(#linear-gradient-8);}.cls-13{fill:url(#linear-gradient-9);}.cls-14{fill:url(#linear-gradient-10);}.cls-15{fill:url(#linear-gradient-11);}.cls-16{opacity:0.2;fill:url(#linear-gradient-12);}.cls-17,.cls-21,.cls-80{fill:#fff;}.cls-17,.cls-60,.cls-61,.cls-80{mix-blend-mode:soft-light;}.cls-18{fill:url(#linear-gradient-13);}.cls-19{fill:url(#linear-gradient-14);}.cls-20{fill:url(#linear-gradient-15);}.cls-22{fill:url(#linear-gradient-16);}.cls-23{fill:url(#linear-gradient-17);}.cls-24{fill:url(#linear-gradient-18);}.cls-25{fill:url(#linear-gradient-19);}.cls-26{fill:url(#linear-gradient-20);}.cls-27{fill:url(#linear-gradient-21);}.cls-28{fill:url(#linear-gradient-22);}.cls-29{fill:url(#linear-gradient-23);}.cls-30{fill:url(#linear-gradient-24);}.cls-31{fill:url(#linear-gradient-25);}.cls-32{fill:url(#linear-gradient-26);}.cls-33{fill:url(#linear-gradient-27);}.cls-34{fill:url(#linear-gradient-28);}.cls-35{fill:url(#linear-gradient-29);}.cls-36{fill:url(#linear-gradient-30);}.cls-37{fill:url(#linear-gradient-31);}.cls-38{fill:url(#linear-gradient-32);}.cls-39{fill:url(#linear-gradient-33);}.cls-40{fill:url(#linear-gradient-34);}.cls-41{fill:url(#linear-gradient-35);}.cls-42{fill:url(#linear-gradient-36);}.cls-43{fill:url(#linear-gradient-37);}.cls-44{fill:url(#linear-gradient-38);}.cls-45{fill:url(#linear-gradient-39);}.cls-46{fill:url(#linear-gradient-40);}.cls-47{fill:url(#linear-gradient-41);}.cls-48{fill:url(#linear-gradient-42);}.cls-49{fill:url(#linear-gradient-43);}.cls-50{fill:url(#linear-gradient-44);}.cls-51{fill:url(#linear-gradient-45);}.cls-52{fill:url(#linear-gradient-46);}.cls-53{fill:url(#linear-gradient-47);}.cls-54{fill:url(#linear-gradient-48);}.cls-55{fill:url(#linear-gradient-49);}.cls-56{fill:url(#linear-gradient-50);}.cls-57{fill:url(#linear-gradient-51);}.cls-58{fill:url(#linear-gradient-52);}.cls-59{fill:url(#linear-gradient-53);}.cls-60{fill:url(#linear-gradient-54);}.cls-61{fill:url(#linear-gradient-55);}.cls-62{fill:url(#linear-gradient-56);}.cls-63{fill:url(#linear-gradient-57);}.cls-64{fill:url(#linear-gradient-58);}.cls-65{fill:url(#linear-gradient-59);}.cls-66{fill:url(#linear-gradient-60);}.cls-67{fill:url(#linear-gradient-61);}.cls-68{fill:url(#linear-gradient-62);}.cls-69{fill:url(#linear-gradient-63);}.cls-70{fill:url(#linear-gradient-64);}.cls-71{fill:url(#linear-gradient-65);}.cls-72{fill:url(#linear-gradient-66);}.cls-73{fill:url(#linear-gradient-67);}.cls-74{fill:url(#linear-gradient-68);}.cls-75{fill:url(#linear-gradient-69);}.cls-76{fill:url(#linear-gradient-70);}.cls-77{fill:url(#linear-gradient-71);}.cls-78{fill:url(#linear-gradient-72);}.cls-79{fill:url(#linear-gradient-73);}.cls-80{opacity:0.5;}.cls-81{fill:url(#linear-gradient-74);}</style><linearGradient id="linear-gradient" x1="2916.68" y1="1600.24" x2="3487.56" y2="1600.24" gradientTransform="translate(-294.86 10.34) rotate(6.41)" gradientUnits="userSpaceOnUse"><stop offset="0" stop-color="#ff9085"/><stop offset="1" stop-color="#fb6fbb"/></linearGradient><linearGradient id="linear-gradient-2" x1="2946.84" y1="1608.21" x2="3487.56" y2="1608.21" xlink:href="#linear-gradient"/><linearGradient id="linear-gradient-3" x1="5312.36" y1="1539.6" x2="4346.59" y2="2697.78" gradientTransform="matrix(-1, 0, 0, 1, 6040.86, 0)" gradientUnits="userSpaceOnUse"><stop offset="0" stop-color="#aa80f9"/><stop offset="1" stop-color="#6165d7"/></linearGradient><linearGradient id="linear-gradient-4" x1="5104.27" y1="990.85" x2="4893.73" y2="1365.88" gradientTransform="matrix(-1, 0, 0, 1, 6040.86, 0)" gradientUnits="userSpaceOnUse"><stop offset="0" stop-color="#fff"/><stop offset="1" stop-color="#ebeff2"/></linearGradient><linearGradient id="linear-gradient-5" x1="5091.25" y1="1054.8" x2="4346.37" y2="2381.62" xlink:href="#linear-gradient-3"/><linearGradient id="linear-gradient-6" x1="4468.16" y1="1596.75" x2="3519.08" y2="2734.92" xlink:href="#linear-gradient-3"/><linearGradient id="linear-gradient-7" x1="4376.33" y1="1159.28" x2="4170.35" y2="1526.2" xlink:href="#linear-gradient-4"/><linearGradient id="linear-gradient-8" x1="4358.56" y1="1219.6" x2="3630.57" y2="2516.33" xlink:href="#linear-gradient-3"/><linearGradient id="linear-gradient-9" x1="2714.46" y1="1456.14" x2="2762.61" y2="610.13" gradientUnits="userSpaceOnUse"><stop offset="0" stop-color="#ffc444"/><stop offset="1" stop-color="#f36f56"/></linearGradient><linearGradient id="linear-gradient-10" x1="2731.75" y1="1396.67" x2="2776.25" y2="614.82" gradientTransform="matrix(1, 0.01, -0.01, 1, -10.03, -5.49)" xlink:href="#linear-gradient-9"/><linearGradient id="linear-gradient-11" x1="2891.71" y1="459.89" x2="2589.04" y2="1202.79" gradientUnits="userSpaceOnUse"><stop offset="0" stop-color="#fcb148"/><stop offset="0.05" stop-color="#fdba46"/><stop offset="0.14" stop-color="#ffc244"/><stop offset="0.32" stop-color="#ffc444"/><stop offset="0.48" stop-color="#fdb946"/><stop offset="0.78" stop-color="#f99c4d"/><stop offset="0.87" stop-color="#f8924f"/><stop offset="1" stop-color="#f8924f"/></linearGradient><linearGradient id="linear-gradient-12" x1="2541.81" y1="839.81" x2="2853.55" y2="839.81" xlink:href="#linear-gradient-11"/><linearGradient id="linear-gradient-13" x1="2894.42" y1="2550.09" x2="3111.04" y2="2550.09" gradientUnits="userSpaceOnUse"><stop offset="0" stop-color="#311944"/><stop offset="1" stop-color="#893976"/></linearGradient><linearGradient id="linear-gradient-14" x1="-2303.69" y1="2696.54" x2="-2133.3" y2="2696.54" gradientTransform="translate(5146.31)" gradientUnits="userSpaceOnUse"><stop offset="0" stop-color="#444b8c"/><stop offset="1" stop-color="#3e4177"/></linearGradient><linearGradient id="linear-gradient-15" x1="-1994.11" y1="2404.41" x2="-2236.58" y2="2879.76" gradientTransform="translate(5146.31)" gradientUnits="userSpaceOnUse"><stop offset="0" stop-color="#ebeff2"/><stop offset="0.99" stop-color="#b7c0ce"/></linearGradient><linearGradient id="linear-gradient-16" x1="2003.13" y1="1533.33" x2="2032.41" y2="3910.26" xlink:href="#linear-gradient-11"/><linearGradient id="linear-gradient-17" x1="2336.75" y1="2764.58" x2="2553.37" y2="2764.58" xlink:href="#linear-gradient-13"/><linearGradient id="linear-gradient-18" x1="2684.93" y1="1525.19" x2="2714.18" y2="3900.07" xlink:href="#linear-gradient-11"/><linearGradient id="linear-gradient-19" x1="-2948.55" y1="2920.71" x2="-2696.74" y2="2920.71" xlink:href="#linear-gradient-14"/><linearGradient id="linear-gradient-20" x1="-2491.04" y1="2488.98" x2="-2849.37" y2="3191.48" xlink:href="#linear-gradient-15"/><linearGradient id="linear-gradient-21" x1="-3994.84" y1="2873.98" x2="-3719.82" y2="2873.98" xlink:href="#linear-gradient-14"/><linearGradient id="linear-gradient-22" x1="-3495.16" y1="2402.46" x2="-3886.52" y2="3169.71" xlink:href="#linear-gradient-15"/><linearGradient id="linear-gradient-23" x1="1818.45" y1="2548.59" x2="1071.5" y2="2826.25" xlink:href="#linear-gradient-11"/><linearGradient id="linear-gradient-24" x1="1183.51" y1="2671.96" x2="1336.31" y2="2671.96" gradientTransform="matrix(1, 0, 0, 1, 0, 0)" xlink:href="#linear-gradient-14"/><linearGradient id="linear-gradient-25" x1="1285.55" y1="2524.53" x2="2482.41" y2="2524.53" xlink:href="#linear-gradient-11"/><linearGradient id="linear-gradient-26" x1="1506.24" y1="1765.54" x2="2521.29" y2="1765.54" gradientTransform="matrix(1, 0, 0, 1, 0, 0)" xlink:href="#linear-gradient-14"/><linearGradient id="linear-gradient-27" x1="1748.95" y1="1765.54" x2="2236.38" y2="1765.54" gradientTransform="matrix(1, 0, 0, 1, 0, 0)" xlink:href="#linear-gradient-4"/><linearGradient id="linear-gradient-28" x1="1569.19" y1="1778.11" x2="1631.1" y2="1778.11" gradientTransform="matrix(1, 0, 0, 1, 0, 0)" xlink:href="#linear-gradient"/><linearGradient id="linear-gradient-29" x1="1654.98" y1="1778.11" x2="1716.89" y2="1778.11" xlink:href="#linear-gradient-11"/><linearGradient id="linear-gradient-30" x1="10657.91" y1="1778.11" x2="10719.82" y2="1778.11" gradientTransform="matrix(-1, 0, 0, 1, 13072.88, 0)" xlink:href="#linear-gradient"/><linearGradient id="linear-gradient-31" x1="10743.71" y1="1778.11" x2="10805.62" y2="1778.11" gradientTransform="matrix(-1, 0, 0, 1, 13072.88, 0)" xlink:href="#linear-gradient-11"/><linearGradient id="linear-gradient-32" x1="1539.56" y1="2093.35" x2="1948.04" y2="2093.35" gradientTransform="matrix(1, 0, 0, 1, 0, 0)" xlink:href="#linear-gradient-3"/><linearGradient id="linear-gradient-33" x1="1975.5" y1="2093.35" x2="2452.63" y2="2093.35" gradientTransform="matrix(1, 0, 0, 1, 0, 0)" xlink:href="#linear-gradient-3"/><linearGradient id="linear-gradient-34" x1="1833.4" y1="2428.11" x2="2482.41" y2="2428.11" xlink:href="#linear-gradient-11"/><linearGradient id="linear-gradient-35" x1="1892.56" y1="2762.91" x2="2538.45" y2="2762.91" xlink:href="#linear-gradient-11"/><linearGradient id="linear-gradient-36" x1="1486.61" y1="3388.92" x2="1661.03" y2="2319.15" xlink:href="#linear-gradient-11"/><linearGradient id="linear-gradient-37" x1="1906.52" y1="2733.32" x2="2183.41" y2="2733.32" xlink:href="#linear-gradient-11"/><linearGradient id="linear-gradient-38" x1="1947.87" y1="2671.96" x2="2117.11" y2="2671.96" gradientTransform="translate(2484.66 -654.59) rotate(45)" xlink:href="#linear-gradient-14"/><linearGradient id="linear-gradient-39" x1="1687.26" y1="1794.57" x2="1594.74" y2="2484.57" xlink:href="#linear-gradient-11"/><linearGradient id="linear-gradient-40" x1="1558.07" y1="2521.78" x2="1530.66" y2="3156.07" xlink:href="#linear-gradient-11"/><linearGradient id="linear-gradient-41" x1="1560.6" y1="2524.95" x2="1533.19" y2="3159.23" xlink:href="#linear-gradient-11"/><linearGradient id="linear-gradient-42" x1="1563.13" y1="2524.68" x2="1535.73" y2="3158.97" xlink:href="#linear-gradient-11"/><linearGradient id="linear-gradient-43" x1="1565.67" y1="2524.42" x2="1538.26" y2="3158.7" xlink:href="#linear-gradient-11"/><linearGradient id="linear-gradient-44" x1="2521.29" y1="2381.27" x2="2955.54" y2="2381.27" xlink:href="#linear-gradient-11"/><linearGradient id="linear-gradient-45" x1="3034.35" y1="2607.58" x2="3160.55" y2="2607.58" xlink:href="#linear-gradient-11"/><linearGradient id="linear-gradient-46" x1="2569.34" y1="2109.81" x2="2744.4" y2="2109.81" gradientTransform="matrix(1, 0, 0, 1, 0, 0)" xlink:href="#linear-gradient-3"/><linearGradient id="linear-gradient-47" x1="2771.87" y1="2120.52" x2="2912.6" y2="2120.52" gradientTransform="matrix(1, 0, 0, 1, 0, 0)" xlink:href="#linear-gradient-3"/><linearGradient id="linear-gradient-48" x1="2933.2" y1="2129.25" x2="3053.34" y2="2129.25" gradientTransform="matrix(1, 0, 0, 1, 0, 0)" xlink:href="#linear-gradient-3"/><linearGradient id="linear-gradient-49" x1="3073.93" y1="2136.29" x2="3166.61" y2="2136.29" gradientTransform="matrix(1, 0, 0, 1, 0, 0)" xlink:href="#linear-gradient-3"/><linearGradient id="linear-gradient-50" x1="2531.58" y1="2396.5" x2="3175.43" y2="2396.5" gradientTransform="matrix(1, 0, 0, 1, 0, 0)" xlink:href="#linear-gradient-14"/><linearGradient id="linear-gradient-51" x1="2472.46" y1="2862.09" x2="2138.75" y2="2986.14" gradientTransform="matrix(1, 0, 0, 1, 0, 0)" xlink:href="#linear-gradient-14"/><linearGradient id="linear-gradient-52" x1="3467.65" y1="2302.1" x2="1002.44" y2="3218.48" gradientTransform="matrix(1, 0, 0, 1, 0, 0)" xlink:href="#linear-gradient-14"/><linearGradient id="linear-gradient-53" x1="3524.03" y1="2205.34" x2="1012.93" y2="3138.79" gradientTransform="matrix(1, 0, 0, 1, 0, 0)" xlink:href="#linear-gradient-14"/><linearGradient id="linear-gradient-54" x1="1539.56" y1="2010.13" x2="1772.39" y2="2010.13" gradientTransform="matrix(1, 0, 0, 1, 0, 0)" xlink:href="#linear-gradient-4"/><linearGradient id="linear-gradient-55" x1="1975.5" y1="2002.23" x2="2229.97" y2="2002.23" gradientTransform="matrix(1, 0, 0, 1, 0, 0)" xlink:href="#linear-gradient-4"/><linearGradient id="linear-gradient-56" x1="1477.93" y1="2073.88" x2="1395.11" y2="2182.53" gradientTransform="matrix(1, 0, 0, 1, 0, 0)" xlink:href="#linear-gradient-14"/><linearGradient id="linear-gradient-57" x1="1361.07" y1="2148.27" x2="1464.05" y2="2148.27" gradientTransform="matrix(1, 0, 0, 1, 0, 0)" xlink:href="#linear-gradient-14"/><linearGradient id="linear-gradient-58" x1="1443.45" y1="2124.25" x2="1529.27" y2="2124.25" gradientTransform="matrix(1, 0, 0, 1, 0, 0)" xlink:href="#linear-gradient-14"/><linearGradient id="linear-gradient-59" x1="1443.45" y1="2168.87" x2="1529.27" y2="2168.87" gradientTransform="matrix(1, 0, 0, 1, 0, 0)" xlink:href="#linear-gradient-14"/><linearGradient id="linear-gradient-60" x1="2615.86" y1="2103.05" x2="2751.02" y2="2208.82" gradientTransform="matrix(1, 0, 0, 1, 0, 0)" xlink:href="#linear-gradient-14"/><linearGradient id="linear-gradient-61" x1="2576.21" y1="2131.11" x2="2706.65" y2="2131.11" gradientTransform="matrix(1, 0, 0, 1, 0, 0)" xlink:href="#linear-gradient-14"/><linearGradient id="linear-gradient-62" x1="2528.15" y1="2110.52" x2="2634.56" y2="2110.52" gradientTransform="matrix(1, 0, 0, 1, 0, 0)" xlink:href="#linear-gradient-14"/><linearGradient id="linear-gradient-63" x1="2528.15" y1="2158.57" x2="2634.56" y2="2158.57" gradientTransform="matrix(1, 0, 0, 1, 0, 0)" xlink:href="#linear-gradient-14"/><linearGradient id="linear-gradient-64" x1="1787.45" y1="1763.45" x2="1816.97" y2="1763.45" gradientTransform="matrix(1, 0, 0, 1, 0, 0)" xlink:href="#linear-gradient-14"/><linearGradient id="linear-gradient-65" x1="1823.17" y1="1763.45" x2="1857.68" y2="1763.45" gradientTransform="matrix(1, 0, 0, 1, 0, 0)" xlink:href="#linear-gradient-14"/><linearGradient id="linear-gradient-66" x1="1865.61" y1="1763.46" x2="1902.72" y2="1763.46" gradientTransform="matrix(1, 0, 0, 1, 0, 0)" xlink:href="#linear-gradient-14"/><linearGradient id="linear-gradient-67" x1="1912.14" y1="1763.41" x2="1955.26" y2="1763.41" gradientTransform="matrix(1, 0, 0, 1, 0, 0)" xlink:href="#linear-gradient-14"/><linearGradient id="linear-gradient-68" x1="1962.64" y1="1763.41" x2="2005.76" y2="1763.41" gradientTransform="matrix(1, 0, 0, 1, 0, 0)" xlink:href="#linear-gradient-14"/><linearGradient id="linear-gradient-69" x1="2015.15" y1="1763.46" x2="2043.12" y2="1763.46" gradientTransform="matrix(1, 0, 0, 1, 0, 0)" xlink:href="#linear-gradient-14"/><linearGradient id="linear-gradient-70" x1="2067.47" y1="1763.46" x2="2101.05" y2="1763.46" gradientTransform="matrix(1, 0, 0, 1, 0, 0)" xlink:href="#linear-gradient-14"/><linearGradient id="linear-gradient-71" x1="2109.79" y1="1763.77" x2="2146.96" y2="1763.77" gradientTransform="matrix(1, 0, 0, 1, 0, 0)" xlink:href="#linear-gradient-14"/><linearGradient id="linear-gradient-72" x1="2155.26" y1="1763.45" x2="2184.79" y2="1763.45" gradientTransform="matrix(1, 0, 0, 1, 0, 0)" xlink:href="#linear-gradient-14"/><linearGradient id="linear-gradient-73" x1="587.14" y1="2045.35" x2="882.41" y2="2045.35" gradientTransform="matrix(1, 0, 0, 1, 0, 0)" xlink:href="#linear-gradient"/><linearGradient id="linear-gradient-74" x1="865.18" y1="2351.67" x2="1149.09" y2="2351.67" gradientTransform="matrix(1, 0, 0, 1, 0, 0)" xlink:href="#linear-gradient"/></defs><g class="cls-1"><g id="Layer_1" data-name="Layer 1"><path class="cls-2" d="M3213.57,2117.88c-165.25,649-862.05,1159.15-1576.85,1050-545.09-83.22-1009.19-512.62-1127-1050a1238.5,1238.5,0,0,1-16.91-437.57c92.77-665.68,706.94-1173,1415.91-1152.36,720.73,21,1281,580,1337,1196.9C3257.87,1858.78,3245.87,1991,3213.57,2117.88Z"/><path class="cls-3" d="M2613.88,1675.69c-41,137.14-232.68,849.22-242.6,789.74,0,0-63,5.7-80.46-129.64-1.76-13.68-3.08-28.8-3.8-45.5-7.9-182.05,3.18-872.93,72.64-771.85s62.45,167,74.2,55.19S2461,1353,2523.25,1408.11q5.31,4.73,10.71,9.64C2593,1472.05,2652.56,1546.4,2613.88,1675.69Z"/><path class="cls-4" d="M2613.88,1675.69c-41,137.14-232.68,849.22-242.6,789.74,0,0-63,5.7-80.46-129.64,7.63-91.27,79.67-180.17,107.73-219.79,42.13-59.48,61.95-69.39,34.69-184.86s-7.43-169.53,69.39-335.57c34.67-75,38-134.75,31.33-177.82C2593,1472.05,2652.56,1546.4,2613.88,1675.69Z"/><path class="cls-5" d="M2935.7,2065.15c-117.51,124.67-441,366.46-539.49,389.07-22.09,5.08-32.87-.89-27.42-21.68,0,0,95.26-971.24,368.12-999.34,36.53-3.76,87.74-1.45,120.33,17.32a111.46,111.46,0,0,1,15.34,10.63c73.1,60.75,27.21,193-5,264-12,26.44-31,48.11-44.78,73.48-11.7,21.55-15.64,50.21,15.35,47.66,28.45-2.37,47-35.78,72.57-45.1,29-10.53,51.88,3.65,70.68,39.28C3021,1915.47,2992.18,2005.25,2935.7,2065.15Z"/><path class="cls-6" d="M2935.7,2065.15c-117.51,124.67-441,366.46-539.49,389.07,12.71-30.19,27.58-63.78,45-100.91,103.29-220.33,300.29-175.77,224.93-337.57s-64.91-321.51,80.9-398.09c86.26-45.33,115.79-110.69,125.55-156.5,73.1,60.75,27.21,193-5,264-12,26.44-31,48.11-44.78,73.48-11.7,21.55-15.64,50.21,15.35,47.66,28.45-2.37,47-35.78,72.57-45.1,29-10.53,51.88,3.65,70.68,39.28C3021,1915.47,2992.18,2005.25,2935.7,2065.15Z"/><path class="cls-7" d="M807,1426.7c31,25.55,58.16,35.36,81.12,37.77,97.23,10.21,137.1-113.13,238.31-96,110,18.65,133.54,176.41,222.54,170.23,56.62-3.93,69.67-68,135-89,28.13-9,57.12-7.09,86.07,2.75,170.73,213.81,248.79,338.1,288.21,413.27,12.41,23.67,28.2,56.21,58.18,108.86,86.08,151.21,117.25,163.11,110.66,192.63-20.37,91.22-345.72,110.89-597.09,69.69-137.3-22.51-213.46-35-299.29-92.2C1000,2057.62,964.61,1945.21,868,1945.22c-72.24,0-124.9,64-150.45,90.94-159.2,167.59-84.81,467-97.88,467.61-16,.73-53-212.34-41.92-471.22,10.43-244.14,56-350.74,80.94-401.21C705.43,1536.76,763.87,1469.38,807,1426.7Z"/><path class="cls-8" d="M1484,1449.77c-65.36,20.92-78.42,85-135,89-89,6.18-112.49-151.58-222.54-170.23-101.21-17.15-141.08,106.19-238.31,96-23-2.41-50.14-12.22-81.12-37.77,68.54-122.73,152.83-272.8,246.66-452.08,13.25-25.32,44.29-84.84,95.71-93.76,95.91-16.65,184.78,151.77,224.86,226.53,74.54,139,140,252.11,195.84,345.13C1541.1,1442.68,1512.11,1440.77,1484,1449.77Z"/><path class="cls-9" d="M1250,1888.2c61.62-116-43.51-232-79.76-344.36-18.13-54.38-18.13-116,10.88-163.12,90.1-150.17,128-337.65,39.31-477.94,68.13,43.06,126.4,153.24,156.74,209.8,74.53,139.05,140,252.11,195.83,345.13,170.71,213.83,248.77,338.13,288.21,413.27,12.4,23.67,28.2,56.22,58.18,108.86,86.07,151.23,117.24,163.12,110.65,192.62-20.38,91.24-345.71,110.89-597.08,69.71-137.32-22.51-213.45-35-299.3-92.22a527.29,527.29,0,0,1-56.54-43.64C1147.53,2045.54,1206.1,1971.29,1250,1888.2Z"/><path class="cls-10" d="M1532.19,1583.89c30.66,24.87,57.58,34.41,80.31,36.76,96.27,9.94,135.75-110.08,236-93.39,109,18.14,132.22,171.66,220.34,165.65,56.06-3.83,69-66.21,133.7-86.56,27.86-8.76,56.56-6.9,85.22,2.67,169.05,208.06,246.34,329,285.37,402.15,12.29,23,27.92,54.7,57.61,105.94,85.23,147.13,116.09,158.72,109.56,187.44-20.16,88.77-342.31,107.9-591.19,67.81-136-21.9-211.36-34-296.34-89.72-129.46-84.8-164.48-194.18-260.16-194.18-71.52,0-123.66,62.33-149,88.5-157.64,163.08-83-344.81-58.28-393.93C1431.64,1691,1489.5,1625.43,1532.19,1583.89Z"/><path class="cls-11" d="M2202.5,1606.35c-64.71,20.35-77.64,82.73-133.7,86.56-88.12,6-111.38-147.51-220.34-165.65-100.22-16.69-139.69,103.33-236,93.39-22.73-2.35-49.65-11.89-80.31-36.76,67.86-119.43,151.32-265.45,244.22-439.91,13.12-24.64,43.85-82.56,94.77-91.24,95-16.2,183,147.69,222.64,220.44,73.8,135.3,138.63,245.33,193.9,335.84C2259.06,1599.45,2230.36,1597.59,2202.5,1606.35Z"/><path class="cls-12" d="M1970.79,2033c61-112.88-43.08-225.75-79-335.1-18-52.91-18-112.87,10.77-158.73,89.22-146.12,126.69-328.56,38.93-465.08,67.45,41.9,125.14,149.12,155.19,204.16,73.79,135.31,138.62,245.33,193.9,335.84,169,208.08,246.31,329,285.36,402.15,12.28,23,27.93,54.71,57.61,105.93,85.22,147.16,116.09,158.73,109.55,187.44-20.17,88.79-342.29,107.91-591.18,67.83-136-21.9-211.35-34-296.35-89.73a522.1,522.1,0,0,1-56-42.46A733,733,0,0,0,1970.79,2033Z"/><path class="cls-3" d="M3145.43,2288c-97.77-63.36-238.46-48.37-355.13-57.87-120.81-9.84-256.37-25-348.39-93.45-226.31-168.42-432.87-174.53-870.09-180.36S1243.29,1748,704.4,1741.66c-62.29-.73-145.62,26.17-185.47,64.08-91.71,87.28-55.11,245.49-33.91,347,35.15,168.35,109,334.51,190.39,491.95a328.94,328.94,0,0,0,28.83,46.19c79.13,105.6,211.11,138.74,375.57,101.74,233.7-52.57,436.13-165.58,680.5-194.65,359.74-42.8,721,87.75,1081.64,91.59,167.14,1.78,314.7-35.66,367.27-173.14C3238,2441.14,3225.78,2340.09,3145.43,2288Z"/><polygon class="cls-13" points="2751.58 593.39 2779.08 542.21 2795.34 597.99 2832.87 553.65 2837.18 611.58 2883.12 576.02 2875.28 633.58 2927.61 608.34 2907.98 663.02 2964.41 649.21 2933.84 698.61 2991.91 696.84 2951.74 738.81 3008.9 749.15 2960.88 781.84 3014.65 803.84 2960.88 825.84 3008.9 858.54 2951.74 868.88 2991.91 910.84 2933.84 909.07 2964.41 958.47 2907.98 944.66 2927.61 999.34 2875.28 974.1 2883.12 1031.67 2837.18 996.1 2832.87 1054.04 2795.34 1009.7 2779.08 1065.47 2751.58 1014.3 2724.08 1065.47 2707.82 1009.7 2670.29 1054.04 2665.98 996.1 2620.05 1031.67 2627.88 974.1 2575.55 999.34 2595.18 944.66 2538.75 958.47 2569.32 909.07 2511.26 910.84 2551.43 868.88 2494.26 858.54 2542.28 825.84 2488.51 803.84 2542.28 781.84 2494.26 749.15 2551.43 738.81 2511.26 696.84 2569.32 698.61 2538.75 649.21 2595.18 663.02 2575.55 608.34 2627.88 633.58 2620.05 576.02 2665.98 611.58 2670.29 553.65 2707.82 597.99 2724.08 542.21 2751.58 593.39"/><polygon class="cls-14" points="2942.11 843.86 2993.66 828.7 2946.26 803.38 2993.54 777.83 2941.91 762.91 2982.84 728.09 2929.24 724.23 2962.04 681.66 2908.81 689.03 2932.04 640.57 2881.5 658.85 2894.15 606.62 2848.52 635.01 2850.03 581.29 2811.3 618.54 2801.61 565.68 2771.47 610.18 2751 560.49 2730.77 610.27 2700.42 565.93 2690.98 618.83 2652.07 581.76 2653.84 635.48 2608.07 607.31 2620.97 659.48 2570.34 641.44 2593.81 689.79 2540.54 682.67 2573.54 725.08 2519.96 729.2 2561.06 763.82 2509.5 778.98 2556.9 804.31 2509.62 829.86 2561.25 844.77 2520.32 879.6 2573.92 883.45 2541.12 926.02 2594.35 918.65 2571.13 967.11 2621.66 948.83 2609.01 1001.06 2654.64 972.67 2653.13 1026.39 2691.86 989.14 2701.55 1042 2731.7 997.51 2752.16 1047.19 2772.39 997.41 2802.75 1041.76 2812.18 988.85 2851.09 1025.92 2849.33 972.21 2895.09 1000.38 2882.2 948.21 2932.82 966.24 2909.36 917.9 2962.62 925.01 2929.62 882.6 2983.2 878.49 2942.11 843.86"/><path class="cls-15" d="M2961.35,803.84c0,107.32-80.61,195.83-184.58,208.27a209.46,209.46,0,0,1-25.19,1.5c-115.85,0-209.77-93.92-209.77-209.77a209.76,209.76,0,0,1,209.77-209.77C2867.43,594.07,2961.35,688,2961.35,803.84Z"/><path class="cls-16" d="M2847.84,927.54c-10.61,29.58-35.56,58.65-71.07,84.57a209.46,209.46,0,0,1-25.19,1.5c-115.85,0-209.77-93.92-209.77-209.77A208.94,208.94,0,0,1,2593.45,666c1.66,15.27,9.49,32.28,28.46,49.77,19.39,17.85,50.45,36.2,98.5,53.62C2835.09,811,2868.41,870.19,2847.84,927.54Z"/><circle class="cls-17" cx="2751.58" cy="803.84" r="156.74"/><path class="cls-18" d="M2894.42,2418.67s113.8-55.57,162.55,0,63.24,236.85,48.67,286l-59.4,1.57Z"/><path class="cls-19" d="M2905.62,2530.73h-.07c-6.06.88-11.62,4.27-17.15,9.13-5.32,3.86-11.74,8.4-11.74,14.21v.13c-20.48,30.45-34,86.73-34,149.74-.1,83.92,23.78,151.75,55.28,159.58l-.07.05c2.13.44,28.51,14.1,111.68.64,2.2-51.07,3.5-340.23,3.5-340.23S2946.54,2519.06,2905.62,2530.73Z"/><path class="cls-20" d="M3071.66,2687.83c0,96-31.08,175.53-68.74,177.54-36.94,2-66.32-71.68-66.25-164.38s29.5-171.75,66.38-177C3040.64,2518.67,3071.66,2591.93,3071.66,2687.83Z"/><path class="cls-21" d="M3042.19,2690c0,68.11-20.72,124.73-46,126.4-24.91,1.64-44.83-51-44.79-117.53s20-122.92,44.89-126.14C3021.54,2569.5,3042.2,2622,3042.19,2690Z"/><path class="cls-22" d="M2521.29,1867.47v987.92h-1016V1867.47a175.14,175.14,0,0,1,1.2-22.18c11.55-87.91,93.63-157,193.39-157H2327.7c99.76,0,181.34,69.07,192.88,157C2521.52,1852.28,2521.29,1860.27,2521.29,1867.47Z"/><path class="cls-23" d="M2336.75,2633.16s113.8-55.57,162.54,0,63.25,236.85,48.68,286l-59.4,1.57Z"/><path class="cls-24" d="M3179.35,2039c-6.09,137.93-4.33,387-18.8,534.9-6.36,65.47-16,111.14-30.77,118.59-6.28,2.34-15.64,5.89-27.61,10.53-3.16-89.74-30.42-162.31-67.82-190.7-12.87-9.79-26.91-14.35-41.57-12.6-13.14,1.56-25.7,8.07-37.24,18.68-40.37,36.85-68.8,122.92-68.88,220,0,16.3.78,32.21,2.3,47.46-104.2,40.64-226.69,88.57-338.46,132.32-.86.35-1.68.7-2.53,1,.58-4.92,1.09-9.83,1.52-14.86,1.16-13.73,1.79-27.81,1.79-42.12,0-39.62-4.68-76.63-13-109.2-21.41-84-67-138.6-119.14-132.9-71,7.72-127.68,124.72-127.83,261.56,0,47.62,6.74,91.8,18.64,129.08.15.51.31,1,.47,1.49-58.5,23-95,37.28-95,37.28l.43-3.71,66.18-569,90.9-781.84,712,219.37C3143.31,1932.13,3181.8,1982.94,3179.35,2039Z"/><path class="cls-25" d="M2290.86,2675.66l-.09,0c-9,1.28-17.19,6.29-25.36,13.49-7.86,5.7-17.35,12.41-17.35,21v.19c-30.26,45-50.18,128.17-50.3,221.3-.15,124,35.14,224.27,81.69,235.83l-.1.08c3.14.65,42.14,20.84,165,.94,3.26-75.48,5.18-502.81,5.18-502.81S2351.34,2658.42,2290.86,2675.66Z"/><path class="cls-26" d="M2536.24,2907.83c0,141.86-45.93,259.42-101.59,262.38-54.59,2.91-98-105.93-97.9-242.92.1-136.84,43.6-253.83,98.09-261.56C2490.4,2657.85,2536.24,2766.12,2536.24,2907.83Z"/><path class="cls-21" d="M2492.7,2911.09c0,100.66-30.63,184.34-67.93,186.8-36.81,2.43-66.25-75.38-66.19-173.7s29.58-181.65,66.34-186.4C2462.17,2733,2492.71,2810.5,2492.7,2911.09Z"/><path class="cls-27" d="M1253.16,2606.35h-.11c-9.79,1.41-18.77,6.88-27.7,14.74-8.58,6.22-18.94,13.55-18.94,22.92v.21c-33.06,49.15-54.81,140-54.94,241.7-.17,135.45,38.38,244.94,89.21,257.57a.7.7,0,0,1-.1.08c3.43.71,46,22.76,180.26,1,3.55-82.43,5.65-549.16,5.65-549.16S1319.21,2587.52,1253.16,2606.35Z"/><path class="cls-28" d="M1521.15,2859.92c0,154.93-50.16,283.33-111,286.56-59.63,3.17-107-115.7-106.93-265.31.11-149.46,47.62-277.23,107.14-285.67C1471.09,2586.89,1521.15,2705.14,1521.15,2859.92Z"/><path class="cls-21" d="M1473.59,2863.47c0,109.94-33.45,201.33-74.18,204-40.21,2.65-72.37-82.33-72.29-189.71s32.3-198.39,72.45-203.58C1440.25,2668.93,1473.61,2753.61,1473.59,2863.47Z"/><path class="cls-29" d="M1286.45,2532.72c-65.69,0-121,53.27-121,119v286.08h202.52V2532.72Z"/><ellipse class="cls-30" cx="1259.91" cy="2671.96" rx="76.4" ry="84.62"/><ellipse class="cls-21" cx="1259.91" cy="2671.96" rx="61.57" ry="68.19"/><path class="cls-31" d="M2469.85,2376.44c-4.37-36-43.09-65.09-92.39-70.32q-5.91-.64-12.05-.82l-701.15-8.62c-61.65-.77-121.4,15.33-166.87,44.93l-160.91,104.2a149.34,149.34,0,0,0-19,14.39c-20,18.57-31.88,41.26-31.88,64.82v227.39h621l456.71-215.25,119.18-56.06Z"/><path class="cls-32" d="M2521.29,1842.77h-1015c11.55-85.81,93.83-154.46,193.59-154.46H2327.7C2427.46,1688.31,2509.74,1757,2521.29,1842.77Z"/><path class="cls-33" d="M2222.41,1715.77H1758.33c-6.47,0-9.38,3.91-9.38,9.79v81.6c0,5.88,2.91,8.15,9.38,8.15h464.08c6.46,0,14-2.27,14-8.15v-81.6C2236.38,1719.68,2228.87,1715.77,2222.41,1715.77Z"/><ellipse class="cls-34" cx="1600.14" cy="1778.11" rx="30.95" ry="28.16"/><ellipse class="cls-35" cx="1685.94" cy="1778.11" rx="30.95" ry="28.16"/><ellipse class="cls-36" cx="2384.01" cy="1778.11" rx="30.95" ry="28.16"/><ellipse class="cls-37" cx="2298.21" cy="1778.11" rx="30.95" ry="28.16"/><path class="cls-38" d="M1948,1890.83v405.05H1576.2c-20,0-36.64-17-36.64-39.05V1931.19c0-22.07,16.6-40.36,36.64-40.36Z"/><path class="cls-39" d="M2452.63,1931.19v325.64c0,22.07-19.05,39.05-42.37,39.05H1975.5V1890.83h434.76C2433.58,1890.83,2452.63,1909.12,2452.63,1931.19Z"/><path class="cls-40" d="M2482.41,2481.26l-119.18,56.24-458.82,12.6-71-89.51,544.06-154.47c49.3,5.23,88,34.32,92.39,70.32Z"/><path class="cls-41" d="M2538.45,2593.19V2753c-24-84-67.08-138.6-119.22-132.9-71,7.72-127.72,124.72-127.87,261.56,0,47.62,6.72,91.8,18.62,129.08l-94.11,35.06-57.81,21.53-265.5-541.37L2282,2476.74l139.2-17.58a81.46,81.46,0,0,1,72,27.79C2514.62,2512,2538.45,2549.62,2538.45,2593.19Z"/><path class="cls-42" d="M1833.4,2460.64H1317.88c-20,20.6-32.33,40.81-32.33,64.38v347.1l624.73,20.74V2537.62A76.86,76.86,0,0,0,1833.4,2460.64Z"/><path class="cls-43" d="M2175.39,2657.41c-2-72.57-61.18-130.74-133.78-131.3l-129-.66-6.06,415.75h276.89Z"/><circle class="cls-44" cx="2032.49" cy="2671.96" r="84.62" transform="translate(-1294.06 2219.79) rotate(-45)"/><circle class="cls-21" cx="2032.49" cy="2671.96" r="68.19" transform="translate(-1294.06 2219.79) rotate(-45)"/><path class="cls-45" d="M1709.58,2587.65H1409.29c-16.15,0-27.63,10.83-27.63,27v257.91h357V2614.64C1738.65,2598.48,1725.74,2587.65,1709.58,2587.65Z"/><rect class="cls-46" x="1395.39" y="2618.54" width="315.8" height="27.46" rx="13.65"/><rect class="cls-47" x="1395.39" y="2680.33" width="315.8" height="27.46" rx="13.65"/><rect class="cls-48" x="1395.39" y="2738.68" width="315.8" height="27.46" rx="13.65"/><rect class="cls-49" x="1395.39" y="2797.03" width="315.8" height="27.46" rx="13.65"/><path class="cls-50" d="M2955.54,2518.35c-40.37,36.85-68.8,122.92-68.88,220,0,16.3.78,32.21,2.3,47.46-104.2,40.64-226.69,88.57-338.46,132.32l-1-13.84L2538.29,2753l-17-908.54S2537,1938,2643.59,1974,2745,2255.7,2772.28,2400.69C2794.67,2519.48,2854.53,2525.72,2955.54,2518.35Z"/><path class="cls-51" d="M3160.55,2573.85c-6.36,65.47-16,111.14-30.77,118.59-6.28,2.34-15.64,5.89-27.61,10.53-3.16-89.74-30.42-162.31-67.82-190.7C3088.4,2510.55,3129.9,2538.59,3160.55,2573.85Z"/><path class="cls-52" d="M2744.4,1980.32c0-21.94-7.86-41.07-20.13-43l-128.78-20.71c-14.43-2.32-26.15,15.44-26.15,39.7v304.41c0,24.26,11.94,43.3,26.37,42.55l128.74-6.74c12.27-.64,20-18.85,20-40.79Z"/><path class="cls-53" d="M2912.6,2003.25c0-19.75-6.57-36.82-16.47-38.41l-103.3-16.59c-11.45-1.84-21,14.15-21,35.74v270.93c0,21.59,9.62,38.6,21.08,38l103.52-5.4c9.9-.52,16.13-16.83,16.13-36.57Z"/><path class="cls-54" d="M3053.34,2022.36c0-17.89-6.86-33.44-15-34.75l-86.87-13.53c-9.28-1.5-18.27,13.21-18.27,32.62v243.5c0,19.41,8.89,34.8,18.18,34.31l85.14-4.4c8.14-.43,16.82-15.34,16.82-33.24Z"/><path class="cls-55" d="M3166.61,2037.91c0-16.4-5.65-30.58-12.48-31.67l-68.73-11.3c-7.7-1.24-11.47,12.21-11.47,29.87v221.56c0,17.66,3.12,31.75,10.82,31.35l69.92-3.67c6.83-.36,11.94-13.94,11.94-30.34Z"/><polygon class="cls-56" points="3174.4 2379.69 2531.58 2441.11 2531.58 2413.75 3175.43 2351.9 3174.4 2379.69"/><path class="cls-57" d="M2277.57,2877.17v114.27a37.11,37.11,0,0,1-15.84,30.07c-12.44,8.77-30.21,21.13-44.56,30.77-12.33,8.3-22.27,14.62-24.37,15-4.41.82-4.87-90.79-5-148.39-.07-22.34-3-39.58.47-44.3v-1.29l44.73-23.28a30.11,30.11,0,0,1,29.58,1.09,30.62,30.62,0,0,1,14.08,19.66A28.85,28.85,0,0,1,2277.57,2877.17Z"/><path class="cls-58" d="M2226.08,2917.61v109a39.54,39.54,0,0,1-9.17,25.63c-6,7.21-14.41,13.85-24.24,16.35-4.17,1.09-8.56,3-13.16,3H1153.85c-25.85,0-46.79-20.88-46.79-45v-109a43.53,43.53,0,0,1,6.35-22.66,48,48,0,0,1,40.44-22.4H2179.51c2.65,0,5.26.91,7.8,1.34a46.62,46.62,0,0,1,35,26A42.38,42.38,0,0,1,2226.08,2917.61Z"/><path class="cls-59" d="M2276.3,2870.78c-12.32,6.78-34.36,18.87-53.86,29.44-15,8.15-28.58,15.41-35.13,18.68a41.18,41.18,0,0,1-3.9,1.8c-5.85,1.91-1076.35-3.09-1076.35-3.09l6.35-22.66a48,48,0,0,1,40.44-22.4H2179.51c2.65,0,5.38,1.62,8.81,2v-1.29l44.73-23.28a30,30,0,0,1,43.25,20.75Z"/><path class="cls-60" d="M1666.49,2045.07c-47.18,25-92.6,54.87-126.93,84.35V1931.19c0-22.07,16.6-40.36,36.64-40.36h195.93C1774.78,1935.45,1757.71,1996.71,1666.49,2045.07Z"/><path class="cls-61" d="M2230,1890.83c-7.68,37.76-34.77,82.6-103.72,119.14-57.56,30.5-106.12,68.13-150.75,103.66v-222.8Z"/><path class="cls-62" d="M1453.43,2031.57h-64.88c-11.16,0-20.62,11.1-20.62,24.74V2240.9c0,13.65,9.46,24.08,20.62,24.08h64.88c11.16,0,20.91-10.43,20.91-24.08V2056.31C1474.34,2042.67,1464.59,2031.57,1453.43,2031.57Z"/><path class="cls-63" d="M1445.63,2031.57h-64.88c-11.16,0-19.68,11.1-19.68,24.74V2240.9c0,13.65,8.52,24.08,19.68,24.08h64.88c11.16,0,18.42-10.43,18.42-24.08V2056.31C1464.05,2042.67,1456.79,2031.57,1445.63,2031.57Z"/><rect class="cls-64" x="1443.45" y="2117.38" width="85.81" height="13.73" rx="5.85"/><rect class="cls-65" x="1443.45" y="2162" width="85.81" height="13.73" rx="5.85"/><rect class="cls-66" x="2586.51" y="2014.4" width="130.44" height="233.42" rx="24.7"/><rect class="cls-67" x="2576.21" y="2014.4" width="130.44" height="233.42" rx="24.7"/><path class="cls-68" d="M2634.56,2110.52a6.86,6.86,0,0,1-6.86,6.86H2535a6.86,6.86,0,0,1-6.87-6.86h0a6.86,6.86,0,0,1,6.87-6.87h92.68a6.86,6.86,0,0,1,6.86,6.87Z"/><path class="cls-69" d="M2634.56,2158.57a6.87,6.87,0,0,1-6.86,6.87H2535a6.87,6.87,0,0,1-6.87-6.87h0a6.86,6.86,0,0,1,6.87-6.86h92.68a6.86,6.86,0,0,1,6.86,6.86Z"/><path class="cls-70" d="M1817,1773.53a11.7,11.7,0,0,1-4.41,9.66q-4.41,3.54-12.28,3.54a28.82,28.82,0,0,1-12.83-2.73v-8.92a53.48,53.48,0,0,0,7.76,2.88,22.87,22.87,0,0,0,5.81.84,8.31,8.31,0,0,0,4.85-1.21,4.16,4.16,0,0,0,1.69-3.6,4,4,0,0,0-.75-2.37,8.22,8.22,0,0,0-2.18-2,55.47,55.47,0,0,0-5.87-3.07,27.59,27.59,0,0,1-6.23-3.75,14,14,0,0,1-3.31-4.18,11.89,11.89,0,0,1-1.24-5.58,11.71,11.71,0,0,1,4.07-9.45q4.08-3.43,11.26-3.44a26.48,26.48,0,0,1,6.74.84,45.89,45.89,0,0,1,6.71,2.36l-3.1,7.46a45.22,45.22,0,0,0-6-2.07,18.9,18.9,0,0,0-4.66-.59,6.15,6.15,0,0,0-4.18,1.27,4.18,4.18,0,0,0-1.46,3.31,4.13,4.13,0,0,0,.59,2.22,6.31,6.31,0,0,0,1.88,1.82,56.67,56.67,0,0,0,6.08,3.18q6.36,3,8.71,6.09A11.87,11.87,0,0,1,1817,1773.53Z"/><path class="cls-71" d="M1844.42,1748.16a9.79,9.79,0,0,0-8.39,4.07q-3,4.08-3,11.35,0,15.15,11.37,15.15a36,36,0,0,0,11.56-2.38v8.05a32.09,32.09,0,0,1-12.46,2.33q-9.88,0-15.12-6t-5.23-17.21a28.12,28.12,0,0,1,2.57-12.37,18.54,18.54,0,0,1,7.39-8.15,21.84,21.84,0,0,1,11.29-2.84,30.45,30.45,0,0,1,13.26,3.2l-3.1,7.8a50.44,50.44,0,0,0-5.11-2.1A15.22,15.22,0,0,0,1844.42,1748.16Z"/><path class="cls-72" d="M1902.72,1786.11h-9.57v-19.55h-17.94v19.55h-9.6v-45.29h9.6v17.75h17.94v-17.75h9.57Z"/><path class="cls-73" d="M1955.26,1763.4q0,11.25-5.57,17.29t-16,6q-10.41,0-16-6t-5.58-17.35q0-11.31,5.59-17.27t16-6q10.44,0,16,6T1955.26,1763.4Zm-33,0q0,7.59,2.88,11.43t8.61,3.84q11.49,0,11.5-15.27t-11.44-15.3q-5.73,0-8.64,3.85T1922.21,1763.4Z"/><path class="cls-74" d="M2005.76,1763.4q0,11.25-5.58,17.29t-16,6q-10.41,0-16-6t-5.57-17.35q0-11.31,5.59-17.27t16-6q10.44,0,16,6T2005.76,1763.4Zm-33.06,0q0,7.59,2.89,11.43t8.61,3.84q11.49,0,11.49-15.27t-11.43-15.3q-5.73,0-8.64,3.85T1972.7,1763.4Z"/><path class="cls-75" d="M2015.15,1786.11v-45.29h9.6v37.36h18.37v7.93Z"/><path class="cls-76" d="M2067.47,1740.82h14.09q9.64,0,14,2.74t4.35,8.72a11,11,0,0,1-1.9,6.66,7.63,7.63,0,0,1-5.07,3.13v.31c2.87.64,5,1.83,6.22,3.59a11.7,11.7,0,0,1,1.9,7,11.54,11.54,0,0,1-4.48,9.67q-4.47,3.46-12.16,3.47h-16.94Zm9.6,17.93h5.58c2.6,0,4.49-.4,5.65-1.21a4.48,4.48,0,0,0,1.75-4,4,4,0,0,0-1.9-3.74q-1.91-1.12-6-1.13h-5Zm0,7.62v11.81h6.26c2.64,0,4.6-.51,5.86-1.52a5.6,5.6,0,0,0,1.89-4.65q0-5.64-8.06-5.64Z"/><path class="cls-77" d="M2147,1740.82v29.3a17,17,0,0,1-2.24,8.8,14.66,14.66,0,0,1-6.49,5.79,23.27,23.27,0,0,1-10,2q-8.74,0-13.57-4.48t-4.83-12.25v-29.18h9.57v27.72q0,5.24,2.11,7.68c1.4,1.64,3.72,2.45,7,2.45s5.41-.82,6.83-2.46,2.12-4.22,2.12-7.73v-27.66Z"/><path class="cls-78" d="M2184.79,1773.53a11.68,11.68,0,0,1-4.42,9.66q-4.41,3.54-12.28,3.54a28.85,28.85,0,0,1-12.83-2.73v-8.92A53.91,53.91,0,0,0,2163,1778a22.94,22.94,0,0,0,5.81.84,8.29,8.29,0,0,0,4.85-1.21,4.14,4.14,0,0,0,1.69-3.6,4,4,0,0,0-.74-2.37,8.44,8.44,0,0,0-2.19-2,55.47,55.47,0,0,0-5.87-3.07,27.82,27.82,0,0,1-6.23-3.75,14.2,14.2,0,0,1-3.31-4.18,11.89,11.89,0,0,1-1.24-5.58,11.74,11.74,0,0,1,4.07-9.45q4.08-3.43,11.27-3.44a26.4,26.4,0,0,1,6.73.84,45.48,45.48,0,0,1,6.71,2.36l-3.1,7.46a44.68,44.68,0,0,0-6-2.07,19,19,0,0,0-4.66-.59,6.17,6.17,0,0,0-4.19,1.27,4.17,4.17,0,0,0-1.45,3.31,4,4,0,0,0,.59,2.22,6.26,6.26,0,0,0,1.87,1.82,58.3,58.3,0,0,0,6.09,3.18q6.34,3,8.7,6.09A11.88,11.88,0,0,1,2184.79,1773.53Z"/><path class="cls-79" d="M835.27,2097.83c-12.14,7.23-24.76,13.6-37.34,20,13-4.25,67.85-24.51,68.75,4.91a20,20,0,0,1-.13,3c-2.58,21.1-40,20.73-54.69,20.72-17.87,0-35.41.25-53-.8-2-.13-4.06-.26-6.09-.42q-3.51-.29-7-.65c-2.92-.3-5.86-.65-8.8-1.06l-1.36-.77c-2.25.35-4.48.67-6.71,1s-4.33.56-6.47.8c-5.71.63-11.36,1.1-17,1.35a229.49,229.49,0,0,1-58.92-4.58c-13.71-2.85-27.46-7.49-38.7-16.1-9.91-7.63-28.39-31.71-17-44.79a16,16,0,0,1,2.54-2.36c14.51-11,40.26,10.88,51.32,18.66,2.69,1.89,13.82,12.07,17.6,10.84,3.45-1.12-.89-5.44-2.49-7.42-12.06-14.74-29.59-24-41.48-38.92-10.18-12.79-20.84-40.11-5.77-53.64a15.61,15.61,0,0,1,5.14-3.17c18-6.44,38.46,30.94,44.48,41.62,6.82,12.08,12.35,25.27,20.28,36.69,3.11,4.48,7.34,10.09,10.88,3.38,4.07-7.71,1-21.46-.47-29.39-2.5-13.44-7.18-26.26-12.29-38.89-8.26-20.49-19-44.92,1.82-61.73,5.28-4.28,12.63-10.35,20.5-10.35h0c16-3.43,34.06-2.06,41.37,13.37,5.78,12.15,2.71,27.47.12,40-3.18,15.38-7.76,30.66-9.28,46.34-.84,8.8-1.81,22.08,4.49,29.41,4.23,4.94,8.67,3.52,11.44-1.92,4.45-8.76,3.17-21.1,3.42-30.55.36-13.33,1-27.13,6.32-39.55,5.83-13.56,26.56-31.72,43.1-27.06a20.22,20.22,0,0,1,9.37,5.85c17,18.1-15,57.48-23.91,72.55-6.08,10.25-14.53,22.24-16.57,34.26-1.2,7,1.86,7.91,7.25,3.9,9.47-7.06,16.56-18.28,23.89-27.36,9.44-11.67,19.28-23.63,31.68-32.31s35.69-14,44-.38a22.4,22.4,0,0,1,2.93,10.51C883.76,2068,853.74,2086.84,835.27,2097.83Z"/><path class="cls-80" d="M803.76,1975.82q-2.06,2.49-4.55,5.12c-26,27.39-26.71,44.51-37.67,89.7-7.07,29.22-12.73,57.57-15.85,74-2.92-.3-5.86-.65-8.8-1.06l-1.36-.77c-2.25.35-4.48.67-6.71,1,1-10,0-26.59-14.52-37.5-21.91-16.43-12.33-50.67-6.85-71.22s0-33.18-11.64-54.4c-6.47-11.8,0-24.58,7-34.88h0c16-3.43,34.06-2.06,41.37,13.37,5.78,12.15,2.71,27.47.12,40-3.18,15.38-7.76,30.66-9.28,46.34-.84,8.8-1.81,22.08,4.49,29.41,4.23,4.94,8.67,3.52,11.44-1.92,4.45-8.76,3.17-21.1,3.42-30.55.36-13.33,1-27.13,6.32-39.55C766.49,1989.31,787.22,1971.15,803.76,1975.82Z"/><path class="cls-80" d="M835.27,2097.83c-12.14,7.23-24.76,13.6-37.34,20,13-4.25,67.85-24.51,68.75,4.91a20,20,0,0,1-.13,3c-6,.56-12.28,0-17.27-3.26-13.35-8.73-14.63,3.09-27.47,7.19s-35.18-1.54-47.25,7.19a76.23,76.23,0,0,1-15.73,8.8c-2-.13-4.06-.26-6.09-.42,2.31-7.46,10.08-28.08,27.29-37,21.23-11,32.87-14.38,39.72-37,6-19.76,30.31-37.95,59.69-39a22.4,22.4,0,0,1,2.93,10.51C883.76,2068,853.74,2086.84,835.27,2097.83Z"/><path class="cls-80" d="M722.35,2144.55c-5.71.63-11.36,1.1-17,1.35-.87-4,5.53-9.33-12.23-13.11-29-6.17-45.58,5.37-56.73-22.09-8.4-20.64-29.15-34.07-45.7-30.27a16,16,0,0,1,2.54-2.36c14.51-11,40.26,10.88,51.32,18.66,2.69,1.89,13.82,12.07,17.6,10.84,3.45-1.12-.89-5.44-2.49-7.42-12.06-14.74-29.59-24-41.48-38.92-10.18-12.79-20.84-40.11-5.77-53.64a15.61,15.61,0,0,1,5.14-3.17c-.74,13,1.2,34.55,19.35,47.22,27.22,19,31.84,34.92,32.87,45.2C670.74,2106.43,713.41,2114.24,722.35,2144.55Z"/><path class="cls-81" d="M1103.76,2401.77c-11.67,7-23.81,13.08-35.91,19.23,12.48-4.09,65.25-23.56,66.12,4.72a19.81,19.81,0,0,1-.13,2.92c-2.48,20.28-38.5,19.93-52.58,19.92-17.19,0-34.06.24-51-.77-2-.12-3.91-.25-5.86-.41-2.25-.18-4.51-.38-6.78-.62-2.81-.29-5.64-.62-8.46-1l-1.31-.74c-2.17.34-4.31.64-6.45.92s-4.16.54-6.23.77c-5.49.61-10.92,1.06-16.32,1.3a220.75,220.75,0,0,1-56.65-4.4c-13.18-2.75-26.41-7.2-37.21-15.49-9.53-7.33-27.3-30.48-16.39-43.06a15.24,15.24,0,0,1,2.44-2.27c14-10.55,38.72,10.46,49.35,17.95,2.59,1.81,13.29,11.6,16.92,10.42,3.32-1.08-.85-5.24-2.39-7.13-11.59-14.18-28.45-23.05-39.89-37.43-9.79-12.3-20-38.56-5.54-51.58a14.89,14.89,0,0,1,4.94-3c17.29-6.19,37,29.75,42.77,40,6.56,11.61,11.87,24.29,19.5,35.28,3,4.3,7.06,9.69,10.46,3.24,3.91-7.41,1-20.63-.46-28.26-2.4-12.92-6.9-25.24-11.81-37.39-7.94-19.71-18.23-41.9,1.75-58.07,5.07-4.12,12.15-8.66,19.71-8.66h0c15.35-6.87,32.75-3.27,39.78,11.57,5.55,11.68,2.6,25.77.11,37.83-3,14.79-7.46,29.16-8.92,44.24-.81,8.46-1.74,21.07,4.32,28.11,4.07,4.75,8.33,3.31,11-1.93,4.28-8.41,3-20.32,3.29-29.41.34-12.82.93-26.11,6.07-38.05,5.61-13,25.54-30.5,41.44-26a19.3,19.3,0,0,1,9,5.62c16.31,17.4-14.4,55.26-23,69.75-5.84,9.86-14,21.38-15.93,33-1.16,6.76,1.79,7.6,7,3.74,9.11-6.79,15.92-17.57,23-26.3,9.08-11.23,18.54-22.73,30.46-31.07s34.32-13.45,42.28-.37a21.54,21.54,0,0,1,2.82,10.11C1150.39,2373.07,1121.52,2391.21,1103.76,2401.77Z"/><path class="cls-80" d="M1073.46,2284.45q-2,2.4-4.37,4.93c-25,26.33-25.68,42.8-36.22,86.25-6.8,28.09-12.24,55.36-15.24,71.13-2.81-.29-5.64-.62-8.46-1l-1.31-.74c-2.17.34-4.31.64-6.45.92,1-9.57,0-25.56-14-36.05-21.06-15.8-11.85-48.73-6.58-68.48s0-30.62-11.2-51c-6.22-11.35,0-25.39,6.7-32.25h0c15.35-6.87,32.75-3.27,39.78,11.57,5.55,11.68,2.6,25.77.11,37.83-3,14.79-7.46,29.16-8.92,44.24-.81,8.46-1.74,21.07,4.32,28.11,4.07,4.75,8.33,3.31,11-1.93,4.28-8.41,3-20.32,3.29-29.41.34-12.82.93-26.11,6.07-38.05C1037.63,2297.45,1057.56,2280,1073.46,2284.45Z"/><path class="cls-80" d="M1103.76,2401.77c-11.67,7-23.81,13.08-35.91,19.23,12.48-4.09,65.25-23.56,66.12,4.72a19.81,19.81,0,0,1-.13,2.92c-5.73.54-11.81,0-16.61-3.13-12.83-8.4-14.07,3-26.41,6.91s-33.83-1.48-45.43,6.91a73.22,73.22,0,0,1-15.12,8.46c-2-.12-3.91-.25-5.86-.41,2.22-7.17,9.69-27,26.24-35.53,20.41-10.54,31.6-13.83,38.19-35.56,5.76-19,29.15-36.49,57.39-37.51a21.54,21.54,0,0,1,2.82,10.11C1150.39,2373.07,1121.52,2391.21,1103.76,2401.77Z"/><path class="cls-80" d="M995.18,2446.69c-5.49.61-10.92,1.06-16.32,1.3-.84-3.87,5.31-9-11.76-12.61-27.88-5.92-43.82,5.17-54.55-21.23-8.07-19.85-28-32.76-43.94-29.11a15.24,15.24,0,0,1,2.44-2.27c14-10.55,38.72,10.46,49.35,17.95,2.59,1.81,13.29,11.6,16.92,10.42,3.32-1.08-.85-5.24-2.39-7.13-11.59-14.18-28.45-23.05-39.89-37.43-9.79-12.3-20-38.56-5.54-51.58a14.89,14.89,0,0,1,4.94-3c-.71,12.47,1.15,33.21,18.6,45.4,26.18,18.27,30.62,33.58,31.61,43.46C945.57,2410,986.59,2417.55,995.18,2446.69Z"/><path class="cls-21" d="M2151,687.65c-35.36-11.73-72.91-16.46-109.92-19-41.56-2.84-80.52-15.9-114.42-40.32-29.35-21.14-57.47-62.15-98.18-57.44-55,6.37-112.63,60.55-144,103.71-24.39,33.54-125,24.39-166.17,47.26s-18.3,50.31,97.57,39.64c63.64-5.86,128.1-.06,191.93-1.35,68.39-1.37,136.75-5.42,205.18-4.2,52.34.93,104.39,1.17,155.65-9.8C2222.33,734.66,2183.3,698.35,2151,687.65Z"/></g></g></svg>