<svg id="Layer_1" data-name="Layer 1" xmlns="http://www.w3.org/2000/svg" xmlns:xlink="http://www.w3.org/1999/xlink" viewBox="0 0 1550.5 1854.45"><defs><style>.cls-1{fill:#fff;}.cls-2{clip-path:url(#clip-path);}.cls-3{fill:#fc4c86;}.cls-4{fill:#49ced9;}.cls-5{fill:#fad141;}.cls-6{fill:#4c4c4c;}.cls-7{fill:#fdf400;}</style><clipPath id="clip-path" transform="translate(195.64 147.33)"><rect id="SVGID" class="cls-1" x="0.44" y="-0.07" width="1046.72" height="1392.07"/></clipPath></defs><rect id="SVGID-2" data-name="SVGID" class="cls-1" x="196.07" y="147.26" width="1046.72" height="1392.07"/><g class="cls-2"><path class="cls-3" d="M-184.86,1103.72c24.5,48,98.47,69.59,163.38,64.3s123.8-31.08,182.68-53.38,123.45-42,187.9-33.87c34.9,4.39,70.75,19.27,83.38,45.44,15.71,32.54-9,67.42-25.81,99.62-26.35,50.5-33.86,107.07-21.34,160.82,11.23,48.19,38.19,94.82,35.35,143.78-3.52,60.5-54.53,115.45-121.14,145.08S153,1711.78,77.23,1704.28c-70.23-7-141-26.77-190.4-67-44.25-36-67.75-85.47-76.92-135.22s-5.12-100.35-1.06-150.52q9.89-122.13,19.78-244.27" transform="translate(195.64 147.33)"/><path class="cls-4" d="M670.08,1518.23c-36.91-48.75-74.24-98.29-93-153.16s-16.94-116.74,21.23-164.86c28.58-36,74.17-60.91,114.54-89s78.31-63.52,82.06-106c2.66-30.06-12.28-59.12-19.06-88.77s-2.58-64.89,28-82.74c29.57-17.23,73.28-10.52,101.8,7.78s45.21,45.52,60.25,72.05,30,54.09,56.34,74.34c29.59,22.74,70,33.63,106.8,48.4,84.09,33.79,152.72,91.18,190.82,159.56s45.42,147.25,20.33,219.31c-14.3,41.07-40,81-81.94,107.63-46.79,29.67-108.42,39.75-168,44.91-140.07,12.14-283.17,1.91-418.25-29.9" transform="translate(195.64 147.33)"/><path class="cls-5" d="M-153,933c69.11,44.69,174.45,50,250.2,12.73S213.55,831.14,193.66,762.2c-14.15-49.06-55-91.65-66-141.22-16.44-74.43,37.08-147.3,41.9-222.77,6-94-63.26-180-136.76-253.87C8.27,119.65-25,92.93-64.1,98.28c-40.61,5.56-60.35,42.08-69.71,73.91C-205.54,415.94-84,674.51-145.67,920" transform="translate(195.64 147.33)"/><path class="cls-3" d="M-56-62.55C-37.73-4.87,21.11,38.29,77.84,77.17S194.72,157.34,217.36,214c6.27,15.69,9.44,32.17,17.52,47.33s22.44,29.44,42.47,33.73c19.71,4.23,40.87-2.09,57.38-11.63s29.75-22.14,45-32.88c53.44-37.58,133.06-50,200.48-31.36,44.45,12.31,84.14,37,131,40.23C764.8,263.09,816,236.73,847.08,202S892.52,125,905,83.57c12.87-42.93,24-89,4.5-130.31-15.35-32.53-48.75-58.46-87.56-74.55s-82.78-23-126.48-25.21C448.58-158.91,215.21-27.36-30.95-46.42" transform="translate(195.64 147.33)"/><path class="cls-4" d="M970.48-73.06c22.71,73.33,12,152.86-29.62,220.75C915.53,189,878,232.27,893.19,276.58c16.13,47,84,70.09,114.89,112.2,18.71,25.52,22.41,56.12,36,83.62s44.1,54.32,81.14,51.41c29.5-2.31,52.18-23.51,59.93-46.2s3.72-46.73-.36-70q-28.7-163.86-57.4-327.72c-6.27-35.79-13.08-72.78-37.27-103.4-23.78-30.11-64-51.74-108-58.16" transform="translate(195.64 147.33)"/><path class="cls-5" d="M1099.28,577.11c-45.61-48.33-95.84-29.58-136.83-145-6.72-18.91-32.34-32.75-56.9-35.3-19.32-2-38.81,6.05-51.16,18s-18.4,27.28-21.32,42.56C820.61,522.59,860.48,586.44,903.3,643s91.19,114.1,98.29,179.82c3,28-1.64,56.54,6.07,83.94s32.93,54.84,68.23,56.91c31.77,1.86,60.46-18,72.45-41.45s10.87-49.57,8.87-74.78c-7.07-89.1-22.76-177.61-38.45-266" transform="translate(195.64 147.33)"/><path class="cls-6" d="M13.84-21.68c40.9,3.6,72.17,33.57,86.83,70.49,14.75,37.18,17.84,78.52,43.13,111A101.9,101.9,0,0,0,185.91,192c19.51,7.89,41,9.7,61.87,9.15,47.42-1.27,94.38-16,141.89-7.76,43.61,7.51,81.72,30.66,117.68,55.27C543,273,580,301.42,623.27,309.86c18.75,3.65,38.58,2.91,55.89-5.81,14.87-7.5,26-20.27,34.18-34.56,9.07-15.88,14.93-33.44,21.42-50.46C743.5,196.12,752,173.09,761,150.3c4.16-10.48,8.92-20.82,15.79-29.84,6.35-8.34,14.38-15.21,22.67-21.56,15.61-12,32.54-22.53,45-38,23.3-29,27.28-66.7,25.86-102.61-.36-9.16-1-18.3-1.8-27.43-.16-1.9-3.14-1.92-3,0C868.61-32.65,871,6.9,854,40.65c-9.3,18.49-23.87,31.93-40.3,44.07-15.37,11.35-31.62,22.23-42.41,38.37-11.88,17.78-18.13,39.4-25.68,59.21-8.14,21.32-15.9,42.84-24.51,64-6.37,15.66-14.25,31.24-26.54,43.12-14.48,14-33.88,20.26-53.84,19.55-44.66-1.6-84.56-30.36-120-54.74-34.84-24-70.28-48-111.51-59.5-21.61-6-43.78-7.75-66.13-6.38-23.43,1.43-46.55,5.62-69.87,8-41.44,4.32-87.09,2.79-118.36-28.51-29.38-29.4-34.64-70.42-47.1-108.16-11.38-34.49-33-65.16-68-78.53a95.59,95.59,0,0,0-25.91-5.84c-1.91-.17-1.89,2.81,0,3Z" transform="translate(195.64 147.33)"/><path class="cls-6" d="M-56.8,154.09C5.45,189,59.26,241.11,89.84,306.2a261.88,261.88,0,0,1,24.88,97.57c2,39-4.15,77.77-12,115.82-15,73-38.56,149-22.37,223.92,8.06,37.31,27.82,69.6,44.18,103.59C140.41,880,152.87,917.48,137,952.84c-14.47,32.23-45.48,54.87-76.4,69.92-38,18.49-80,27.4-121.36,34.79-10.41,1.86-20.84,3.61-31.26,5.36-1.89.31-1.09,3.18.79,2.87,43-7.21,86.58-14.36,127.67-29.58,33.8-12.51,67.39-31.27,89.87-60.17,9.65-12.41,16.88-26.7,19.73-42.23,3.15-17.2,1-34.74-4-51.36-11.13-37-33.75-69.23-48.09-105-30.38-75.67-10.14-156.75,6.56-233,8.35-38.13,16.27-76.7,17.45-115.84,1-35-4.19-69.61-16.48-102.43C76.7,260,27.67,204.89-30.89,166.34q-11.94-7.86-24.41-14.82a1.49,1.49,0,0,0-1.5,2.57Z" transform="translate(195.64 147.33)"/><path class="cls-6" d="M-66.55,1215.86c58.13,12.76,119.42-3.63,170.42-32.18,27.2-15.22,52.17-34,76.6-53.26s48-39.79,74.34-56.2c26.05-16.25,57.39-25.29,86.45-11.12,25.63,12.51,40.88,37.74,38.3,66.36-3,33-24.24,60.81-42.43,87.11-16.8,24.28-31.16,49.38-38.95,78-14.55,53.6-6.4,111.44,21.05,159.57,3.7,6.48,7.74,12.75,12,18.85,1.1,1.55,3.68.06,2.57-1.51-34.08-48.28-48-108.91-35.06-166.9,6.62-29.77,20.21-56.28,37.31-81.31,17.69-25.92,38.32-51.9,44.87-83.33,5.42-26-1.75-51.78-22.33-69.1s-47.86-21.94-73.36-14.3c-28.37,8.5-52.32,28.67-75.24,46.63-25.31,19.83-50,40.46-76.64,58.58-51.08,34.78-112.15,60-175,54.85a181.37,181.37,0,0,1-24.1-3.66c-1.87-.41-2.66,2.46-.79,2.87Z" transform="translate(195.64 147.33)"/><path class="cls-6" d="M732.86,1428.65a168.37,168.37,0,0,1-81.37-92.17c-14.91-41.25-12.56-85-.33-126.69,29.54-100.54,106.1-181,129.83-283.68a323.33,323.33,0,0,0,5.69-35.27c1.49-12.72,3.6-26,11.24-36.67C812.08,834.41,839,829,859.1,843c21.78,15.26,21.69,41.93,30.25,64.65,7.34,19.48,20.53,36.15,35.5,50.36,35,33.2,79.13,54.18,119.86,79.14,21,12.88,41.59,26.9,59.06,44.39a191.07,191.07,0,0,1,38.34,55c18.72,40.62,22.66,86.83,15.59,130.7-8.44,52.27-30.27,101.24-53.69,148.32-5.87,11.78-11.87,23.5-17.88,35.21-.87,1.7,1.69,3.21,2.57,1.5,44.85-87.4,95.32-186.26,67.1-287-12.66-45.19-40.62-82.21-78.16-109.85-41.09-30.25-88.52-50.63-129.22-81.47-18.86-14.29-36.79-31-48.77-51.63-6.45-11.11-10.1-22.93-13.1-35.35-2.77-11.43-5.64-23.26-12.47-33-11.54-16.56-32.08-26.12-52-20.44-22.4,6.39-33.75,26.37-37.14,48.15-2,12.81-3,25.69-5.65,38.41a300.75,300.75,0,0,1-10.67,37.7c-9.15,26-21.28,50.94-34.26,75.26-25.41,47.62-54.61,93.43-74.77,143.67-17.25,43-27.38,89.82-17.89,135.86,8.22,39.89,30.2,76.37,62.49,101.35a178.43,178.43,0,0,0,27.2,17.25c1.7.87,3.2-1.69,1.5-2.57Z" transform="translate(195.64 147.33)"/><path class="cls-6" d="M1111,1001.35c-40.72-1.63-74.79-29.43-87.62-67.54-13.84-41.1-5.75-85.69-17.94-127.18-10.83-36.85-33.09-69.2-57-98.75-26-32.14-55.1-61.62-81.05-93.81-25.25-31.33-49-66.17-58.57-105.81-4.28-17.7-6.35-37.19-1.06-54.91,5.66-19,20.33-31.61,39-37.32,18.92-5.79,39.21-5.71,58.81-5.54,19.26.17,38.71.68,57.67,4.35,17.23,3.34,34.95,9.5,47.31,22.53,13.55,14.27,17,34.37,14.93,53.35-2.3,21.5-10.42,41.93-12.34,63.5-1.77,19.82,2.1,39.78,9.34,58.21C1038,652,1067.29,684.18,1097,713.67c7.71,7.66,15.55,15.2,23.38,22.73,1.39,1.33,3.49-.77,2.11-2.11-32.83-31.56-67.26-63.83-88.8-104.56-10.36-19.59-17.56-41.26-18-63.57-.47-23.18,7.9-44.95,11.65-67.54,2.88-17.38,2.45-35.92-6.19-51.7-8.4-15.35-23.52-24.95-39.73-30.44-17.75-6-36.79-7.74-55.41-8.5-19.93-.83-40.32-1.37-60.15,1.11-17.56,2.2-35.83,7.48-48.26,20.81-11.32,12.14-15.71,28.77-15.88,45-.42,39.36,17.87,76.94,39.42,108.82,24,35.42,53.54,66.41,81.66,98.45,27.84,31.72,55.57,65.21,72.28,104.37,8.82,20.68,13.14,42.2,14.78,64.57,1.62,22,1.63,44.12,6,65.79,3.9,19.32,11.44,38.14,24.41,53.2a100.38,100.38,0,0,0,43.8,29.3,96.28,96.28,0,0,0,27,4.89c1.91.07,1.91-2.9,0-3Z" transform="translate(195.64 147.33)"/><path class="cls-6" d="M1021.36-44.38C1029-.13,1035.41,48.08,1007,86.69c-26.27,35.69-68.09,56-95,91.26-11.63,15.26-20.26,33.7-18.29,53.32,2,20.31,13.93,38.29,27.46,53,15.71,17,34.58,30.75,52.41,45.41a351.65,351.65,0,0,1,47.46,46.65c30.43,36.56,52.48,80.05,61.41,126.91.36,1.88,3.23,1.08,2.87-.79-7.7-40.4-25.12-78.46-49.27-111.65A328.14,328.14,0,0,0,993.61,343c-17.19-15.92-36.31-29.55-53.87-45-17-15-33.7-32.66-40.51-54.76-6.58-21.34,0-42.14,12.52-59.85,25.71-36.45,67.73-56.82,95.16-91.68,14.6-18.57,22.23-40.61,23.85-64.08,1.68-24.41-2.37-48.81-6.53-72.78-.33-1.88-3.2-1.08-2.87.79Z" transform="translate(195.64 147.33)"/><path class="cls-3" d="M1075.86,1112c-2,0-3.58,1.28-3.58,2.85s1.6,2.84,3.58,2.84,3.58-1.27,3.58-2.84S1077.84,1112,1075.86,1112Z" transform="translate(195.64 147.33)"/><path class="cls-3" d="M1075.86,1143.36c-2,0-3.58,1.27-3.58,2.84s1.6,2.84,3.58,2.84,3.58-1.27,3.58-2.84S1077.84,1143.36,1075.86,1143.36Z" transform="translate(195.64 147.33)"/><path class="cls-3" d="M1075.86,1174.69c-2,0-3.58,1.27-3.58,2.84s1.6,2.84,3.58,2.84,3.58-1.27,3.58-2.84S1077.84,1174.69,1075.86,1174.69Z" transform="translate(195.64 147.33)"/><path class="cls-3" d="M1075.86,1206c-2,0-3.58,1.27-3.58,2.84s1.6,2.84,3.58,2.84,3.58-1.27,3.58-2.84S1077.84,1206,1075.86,1206Z" transform="translate(195.64 147.33)"/><path class="cls-3" d="M1075.86,1237.35c-2,0-3.58,1.27-3.58,2.84s1.6,2.84,3.58,2.84,3.58-1.27,3.58-2.84S1077.84,1237.35,1075.86,1237.35Z" transform="translate(195.64 147.33)"/><path class="cls-3" d="M1075.86,1268.68c-2,0-3.58,1.27-3.58,2.84s1.6,2.84,3.58,2.84,3.58-1.27,3.58-2.84S1077.84,1268.68,1075.86,1268.68Z" transform="translate(195.64 147.33)"/><path class="cls-3" d="M1075.86,1300c-2,0-3.58,1.27-3.58,2.84s1.6,2.85,3.58,2.85,3.58-1.28,3.58-2.85S1077.84,1300,1075.86,1300Z" transform="translate(195.64 147.33)"/><path class="cls-3" d="M1075.86,1331.34c-2,0-3.58,1.28-3.58,2.85s1.6,2.84,3.58,2.84,3.58-1.28,3.58-2.84S1077.84,1331.34,1075.86,1331.34Z" transform="translate(195.64 147.33)"/><path class="cls-3" d="M1075.86,1362.68c-2,0-3.58,1.27-3.58,2.84s1.6,2.84,3.58,2.84,3.58-1.27,3.58-2.84S1077.84,1362.68,1075.86,1362.68Z" transform="translate(195.64 147.33)"/><path class="cls-3" d="M1075.86,1394c-2,0-3.58,1.27-3.58,2.84s1.6,2.84,3.58,2.84,3.58-1.27,3.58-2.84S1077.84,1394,1075.86,1394Z" transform="translate(195.64 147.33)"/><path class="cls-3" d="M1075.86,1425.34c-2,0-3.58,1.27-3.58,2.84s1.6,2.84,3.58,2.84,3.58-1.27,3.58-2.84S1077.84,1425.34,1075.86,1425.34Z" transform="translate(195.64 147.33)"/><path class="cls-3" d="M1042.2,1112c-2,0-3.58,1.28-3.58,2.85s1.6,2.84,3.58,2.84,3.58-1.27,3.58-2.84S1044.18,1112,1042.2,1112Z" transform="translate(195.64 147.33)"/><path class="cls-3" d="M1042.2,1143.36c-2,0-3.58,1.27-3.58,2.84s1.6,2.84,3.58,2.84,3.58-1.27,3.58-2.84S1044.18,1143.36,1042.2,1143.36Z" transform="translate(195.64 147.33)"/><path class="cls-3" d="M1042.2,1174.69c-2,0-3.58,1.27-3.58,2.84s1.6,2.84,3.58,2.84,3.58-1.27,3.58-2.84S1044.18,1174.69,1042.2,1174.69Z" transform="translate(195.64 147.33)"/><path class="cls-3" d="M1042.2,1206c-2,0-3.58,1.27-3.58,2.84s1.6,2.84,3.58,2.84,3.58-1.27,3.58-2.84S1044.18,1206,1042.2,1206Z" transform="translate(195.64 147.33)"/><path class="cls-3" d="M1042.2,1237.35c-2,0-3.58,1.27-3.58,2.84s1.6,2.84,3.58,2.84,3.58-1.27,3.58-2.84S1044.18,1237.35,1042.2,1237.35Z" transform="translate(195.64 147.33)"/><path class="cls-3" d="M1042.2,1268.68c-2,0-3.58,1.27-3.58,2.84s1.6,2.84,3.58,2.84,3.58-1.27,3.58-2.84S1044.18,1268.68,1042.2,1268.68Z" transform="translate(195.64 147.33)"/><path class="cls-3" d="M1042.2,1300c-2,0-3.58,1.27-3.58,2.84s1.6,2.85,3.58,2.85,3.58-1.28,3.58-2.85S1044.18,1300,1042.2,1300Z" transform="translate(195.64 147.33)"/><path class="cls-3" d="M1042.2,1331.34c-2,0-3.58,1.28-3.58,2.85s1.6,2.84,3.58,2.84,3.58-1.28,3.58-2.84S1044.18,1331.34,1042.2,1331.34Z" transform="translate(195.64 147.33)"/><path class="cls-3" d="M1042.2,1362.68c-2,0-3.58,1.27-3.58,2.84s1.6,2.84,3.58,2.84,3.58-1.27,3.58-2.84S1044.18,1362.68,1042.2,1362.68Z" transform="translate(195.64 147.33)"/><path class="cls-3" d="M1042.2,1394c-2,0-3.58,1.27-3.58,2.84s1.6,2.84,3.58,2.84,3.58-1.27,3.58-2.84S1044.18,1394,1042.2,1394Z" transform="translate(195.64 147.33)"/><path class="cls-3" d="M1042.2,1425.34c-2,0-3.58,1.27-3.58,2.84s1.6,2.84,3.58,2.84,3.58-1.27,3.58-2.84S1044.18,1425.34,1042.2,1425.34Z" transform="translate(195.64 147.33)"/><path class="cls-3" d="M1008.54,1112c-2,0-3.58,1.28-3.58,2.85s1.6,2.84,3.58,2.84,3.58-1.27,3.58-2.84S1010.52,1112,1008.54,1112Z" transform="translate(195.64 147.33)"/><path class="cls-3" d="M1008.54,1143.36c-2,0-3.58,1.27-3.58,2.84s1.6,2.84,3.58,2.84,3.58-1.27,3.58-2.84S1010.52,1143.36,1008.54,1143.36Z" transform="translate(195.64 147.33)"/><path class="cls-3" d="M1008.54,1174.69c-2,0-3.58,1.27-3.58,2.84s1.6,2.84,3.58,2.84,3.58-1.27,3.58-2.84S1010.52,1174.69,1008.54,1174.69Z" transform="translate(195.64 147.33)"/><path class="cls-3" d="M1008.54,1206c-2,0-3.58,1.27-3.58,2.84s1.6,2.84,3.58,2.84,3.58-1.27,3.58-2.84S1010.52,1206,1008.54,1206Z" transform="translate(195.64 147.33)"/><path class="cls-3" d="M1008.54,1237.35c-2,0-3.58,1.27-3.58,2.84s1.6,2.84,3.58,2.84,3.58-1.27,3.58-2.84S1010.52,1237.35,1008.54,1237.35Z" transform="translate(195.64 147.33)"/><path class="cls-3" d="M1008.54,1268.68c-2,0-3.58,1.27-3.58,2.84s1.6,2.84,3.58,2.84,3.58-1.27,3.58-2.84S1010.52,1268.68,1008.54,1268.68Z" transform="translate(195.64 147.33)"/><path class="cls-3" d="M1008.54,1300c-2,0-3.58,1.27-3.58,2.84s1.6,2.85,3.58,2.85,3.58-1.28,3.58-2.85S1010.52,1300,1008.54,1300Z" transform="translate(195.64 147.33)"/><path class="cls-3" d="M1008.54,1331.34c-2,0-3.58,1.28-3.58,2.85s1.6,2.84,3.58,2.84,3.58-1.28,3.58-2.84S1010.52,1331.34,1008.54,1331.34Z" transform="translate(195.64 147.33)"/><path class="cls-3" d="M1008.54,1362.68c-2,0-3.58,1.27-3.58,2.84s1.6,2.84,3.58,2.84,3.58-1.27,3.58-2.84S1010.52,1362.68,1008.54,1362.68Z" transform="translate(195.64 147.33)"/><path class="cls-3" d="M1008.54,1394c-2,0-3.58,1.27-3.58,2.84s1.6,2.84,3.58,2.84,3.58-1.27,3.58-2.84S1010.52,1394,1008.54,1394Z" transform="translate(195.64 147.33)"/><path class="cls-3" d="M1008.54,1425.34c-2,0-3.58,1.27-3.58,2.84s1.6,2.84,3.58,2.84,3.58-1.27,3.58-2.84S1010.52,1425.34,1008.54,1425.34Z" transform="translate(195.64 147.33)"/><path class="cls-3" d="M974.88,1112c-2,0-3.59,1.28-3.59,2.85s1.61,2.84,3.59,2.84,3.58-1.27,3.58-2.84S976.86,1112,974.88,1112Z" transform="translate(195.64 147.33)"/><path class="cls-3" d="M974.88,1143.36c-2,0-3.59,1.27-3.59,2.84s1.61,2.84,3.59,2.84,3.58-1.27,3.58-2.84S976.86,1143.36,974.88,1143.36Z" transform="translate(195.64 147.33)"/><path class="cls-3" d="M974.88,1174.69c-2,0-3.59,1.27-3.59,2.84s1.61,2.84,3.59,2.84,3.58-1.27,3.58-2.84S976.86,1174.69,974.88,1174.69Z" transform="translate(195.64 147.33)"/><path class="cls-3" d="M974.88,1206c-2,0-3.59,1.27-3.59,2.84s1.61,2.84,3.59,2.84,3.58-1.27,3.58-2.84S976.86,1206,974.88,1206Z" transform="translate(195.64 147.33)"/><path class="cls-3" d="M974.88,1237.35c-2,0-3.59,1.27-3.59,2.84s1.61,2.84,3.59,2.84,3.58-1.27,3.58-2.84S976.86,1237.35,974.88,1237.35Z" transform="translate(195.64 147.33)"/><path class="cls-3" d="M974.88,1268.68c-2,0-3.59,1.27-3.59,2.84s1.61,2.84,3.59,2.84,3.58-1.27,3.58-2.84S976.86,1268.68,974.88,1268.68Z" transform="translate(195.64 147.33)"/><path class="cls-3" d="M974.88,1300c-2,0-3.59,1.27-3.59,2.84s1.61,2.85,3.59,2.85,3.58-1.28,3.58-2.85S976.86,1300,974.88,1300Z" transform="translate(195.64 147.33)"/><path class="cls-3" d="M974.88,1331.34c-2,0-3.59,1.28-3.59,2.85s1.61,2.84,3.59,2.84,3.58-1.28,3.58-2.84S976.86,1331.34,974.88,1331.34Z" transform="translate(195.64 147.33)"/><path class="cls-3" d="M974.88,1362.68c-2,0-3.59,1.27-3.59,2.84s1.61,2.84,3.59,2.84,3.58-1.27,3.58-2.84S976.86,1362.68,974.88,1362.68Z" transform="translate(195.64 147.33)"/><path class="cls-3" d="M974.88,1394c-2,0-3.59,1.27-3.59,2.84s1.61,2.84,3.59,2.84,3.58-1.27,3.58-2.84S976.86,1394,974.88,1394Z" transform="translate(195.64 147.33)"/><path class="cls-3" d="M974.88,1425.34c-2,0-3.59,1.27-3.59,2.84s1.61,2.84,3.59,2.84,3.58-1.27,3.58-2.84S976.86,1425.34,974.88,1425.34Z" transform="translate(195.64 147.33)"/><path class="cls-3" d="M941.22,1112c-2,0-3.59,1.28-3.59,2.85s1.61,2.84,3.59,2.84,3.58-1.27,3.58-2.84S943.2,1112,941.22,1112Z" transform="translate(195.64 147.33)"/><path class="cls-3" d="M941.22,1143.36c-2,0-3.59,1.27-3.59,2.84s1.61,2.84,3.59,2.84,3.58-1.27,3.58-2.84S943.2,1143.36,941.22,1143.36Z" transform="translate(195.64 147.33)"/><path class="cls-3" d="M941.22,1174.69c-2,0-3.59,1.27-3.59,2.84s1.61,2.84,3.59,2.84,3.58-1.27,3.58-2.84S943.2,1174.69,941.22,1174.69Z" transform="translate(195.64 147.33)"/><path class="cls-3" d="M941.22,1206c-2,0-3.59,1.27-3.59,2.84s1.61,2.84,3.59,2.84,3.58-1.27,3.58-2.84S943.2,1206,941.22,1206Z" transform="translate(195.64 147.33)"/><path class="cls-3" d="M941.22,1237.35c-2,0-3.59,1.27-3.59,2.84s1.61,2.84,3.59,2.84,3.58-1.27,3.58-2.84S943.2,1237.35,941.22,1237.35Z" transform="translate(195.64 147.33)"/><path class="cls-3" d="M941.22,1268.68c-2,0-3.59,1.27-3.59,2.84s1.61,2.84,3.59,2.84,3.58-1.27,3.58-2.84S943.2,1268.68,941.22,1268.68Z" transform="translate(195.64 147.33)"/><path class="cls-3" d="M941.22,1300c-2,0-3.59,1.27-3.59,2.84s1.61,2.85,3.59,2.85,3.58-1.28,3.58-2.85S943.2,1300,941.22,1300Z" transform="translate(195.64 147.33)"/><path class="cls-3" d="M941.22,1331.34c-2,0-3.59,1.28-3.59,2.85s1.61,2.84,3.59,2.84,3.58-1.28,3.58-2.84S943.2,1331.34,941.22,1331.34Z" transform="translate(195.64 147.33)"/><path class="cls-3" d="M941.22,1362.68c-2,0-3.59,1.27-3.59,2.84s1.61,2.84,3.59,2.84,3.58-1.27,3.58-2.84S943.2,1362.68,941.22,1362.68Z" transform="translate(195.64 147.33)"/><path class="cls-3" d="M941.22,1394c-2,0-3.59,1.27-3.59,2.84s1.61,2.84,3.59,2.84,3.58-1.27,3.58-2.84S943.2,1394,941.22,1394Z" transform="translate(195.64 147.33)"/><path class="cls-3" d="M941.22,1425.34c-2,0-3.59,1.27-3.59,2.84s1.61,2.84,3.59,2.84,3.58-1.27,3.58-2.84S943.2,1425.34,941.22,1425.34Z" transform="translate(195.64 147.33)"/><path class="cls-3" d="M907.56,1112c-2,0-3.59,1.28-3.59,2.85s1.61,2.84,3.59,2.84,3.58-1.27,3.58-2.84S909.54,1112,907.56,1112Z" transform="translate(195.64 147.33)"/><path class="cls-3" d="M907.56,1143.36c-2,0-3.59,1.27-3.59,2.84s1.61,2.84,3.59,2.84,3.58-1.27,3.58-2.84S909.54,1143.36,907.56,1143.36Z" transform="translate(195.64 147.33)"/><path class="cls-3" d="M907.56,1174.69c-2,0-3.59,1.27-3.59,2.84s1.61,2.84,3.59,2.84,3.58-1.27,3.58-2.84S909.54,1174.69,907.56,1174.69Z" transform="translate(195.64 147.33)"/><path class="cls-3" d="M907.56,1206c-2,0-3.59,1.27-3.59,2.84s1.61,2.84,3.59,2.84,3.58-1.27,3.58-2.84S909.54,1206,907.56,1206Z" transform="translate(195.64 147.33)"/><path class="cls-3" d="M907.56,1237.35c-2,0-3.59,1.27-3.59,2.84s1.61,2.84,3.59,2.84,3.58-1.27,3.58-2.84S909.54,1237.35,907.56,1237.35Z" transform="translate(195.64 147.33)"/><path class="cls-3" d="M907.56,1268.68c-2,0-3.59,1.27-3.59,2.84s1.61,2.84,3.59,2.84,3.58-1.27,3.58-2.84S909.54,1268.68,907.56,1268.68Z" transform="translate(195.64 147.33)"/><path class="cls-3" d="M907.56,1300c-2,0-3.59,1.27-3.59,2.84s1.61,2.85,3.59,2.85,3.58-1.28,3.58-2.85S909.54,1300,907.56,1300Z" transform="translate(195.64 147.33)"/><path class="cls-3" d="M907.56,1331.34c-2,0-3.59,1.28-3.59,2.85s1.61,2.84,3.59,2.84,3.58-1.28,3.58-2.84S909.54,1331.34,907.56,1331.34Z" transform="translate(195.64 147.33)"/><path class="cls-3" d="M907.56,1362.68c-2,0-3.59,1.27-3.59,2.84s1.61,2.84,3.59,2.84,3.58-1.27,3.58-2.84S909.54,1362.68,907.56,1362.68Z" transform="translate(195.64 147.33)"/><path class="cls-3" d="M907.56,1394c-2,0-3.59,1.27-3.59,2.84s1.61,2.84,3.59,2.84,3.58-1.27,3.58-2.84S909.54,1394,907.56,1394Z" transform="translate(195.64 147.33)"/><path class="cls-3" d="M907.56,1425.34c-2,0-3.59,1.27-3.59,2.84s1.61,2.84,3.59,2.84,3.58-1.27,3.58-2.84S909.54,1425.34,907.56,1425.34Z" transform="translate(195.64 147.33)"/><path class="cls-3" d="M45,351.32c-2,0-3.58,1.27-3.58,2.84S43.05,357,45,357s3.59-1.27,3.59-2.84S47,351.32,45,351.32Z" transform="translate(195.64 147.33)"/><path class="cls-3" d="M45,382.65c-2,0-3.58,1.27-3.58,2.84s1.61,2.84,3.58,2.84,3.59-1.27,3.59-2.84S47,382.65,45,382.65Z" transform="translate(195.64 147.33)"/><path class="cls-3" d="M45,414c-2,0-3.58,1.27-3.58,2.84s1.61,2.84,3.58,2.84,3.59-1.27,3.59-2.84S47,414,45,414Z" transform="translate(195.64 147.33)"/><path class="cls-3" d="M45,445.31c-2,0-3.58,1.27-3.58,2.84S43.05,451,45,451s3.59-1.28,3.59-2.85S47,445.31,45,445.31Z" transform="translate(195.64 147.33)"/><path class="cls-3" d="M45,476.64c-2,0-3.58,1.28-3.58,2.85s1.61,2.84,3.58,2.84,3.59-1.27,3.59-2.84S47,476.64,45,476.64Z" transform="translate(195.64 147.33)"/><path class="cls-3" d="M45,508c-2,0-3.58,1.27-3.58,2.84s1.61,2.84,3.58,2.84,3.59-1.27,3.59-2.84S47,508,45,508Z" transform="translate(195.64 147.33)"/><path class="cls-3" d="M45,539.31c-2,0-3.58,1.27-3.58,2.84S43.05,545,45,545s3.59-1.27,3.59-2.84S47,539.31,45,539.31Z" transform="translate(195.64 147.33)"/><path class="cls-3" d="M45,570.64c-2,0-3.58,1.27-3.58,2.84s1.61,2.84,3.58,2.84,3.59-1.27,3.59-2.84S47,570.64,45,570.64Z" transform="translate(195.64 147.33)"/><path class="cls-3" d="M45,602c-2,0-3.58,1.27-3.58,2.84s1.61,2.84,3.58,2.84,3.59-1.27,3.59-2.84S47,602,45,602Z" transform="translate(195.64 147.33)"/><path class="cls-3" d="M45,633.3c-2,0-3.58,1.27-3.58,2.84S43.05,639,45,639s3.59-1.27,3.59-2.84S47,633.3,45,633.3Z" transform="translate(195.64 147.33)"/><path class="cls-3" d="M45,664.63c-2,0-3.58,1.27-3.58,2.84s1.61,2.85,3.58,2.85,3.59-1.28,3.59-2.85S47,664.63,45,664.63Z" transform="translate(195.64 147.33)"/><path class="cls-3" d="M11.36,351.32c-2,0-3.58,1.27-3.58,2.84S9.39,357,11.36,357,15,355.73,15,354.16,13.34,351.32,11.36,351.32Z" transform="translate(195.64 147.33)"/><path class="cls-3" d="M11.36,382.65c-2,0-3.58,1.27-3.58,2.84s1.61,2.84,3.58,2.84S15,387.06,15,385.49,13.34,382.65,11.36,382.65Z" transform="translate(195.64 147.33)"/><path class="cls-3" d="M11.36,414c-2,0-3.58,1.27-3.58,2.84s1.61,2.84,3.58,2.84S15,418.39,15,416.82,13.34,414,11.36,414Z" transform="translate(195.64 147.33)"/><path class="cls-3" d="M11.36,445.31c-2,0-3.58,1.27-3.58,2.84S9.39,451,11.36,451,15,449.72,15,448.15,13.34,445.31,11.36,445.31Z" transform="translate(195.64 147.33)"/><path class="cls-3" d="M11.36,476.64c-2,0-3.58,1.28-3.58,2.85s1.61,2.84,3.58,2.84S15,481.06,15,479.49,13.34,476.64,11.36,476.64Z" transform="translate(195.64 147.33)"/><path class="cls-3" d="M11.36,508c-2,0-3.58,1.27-3.58,2.84s1.61,2.84,3.58,2.84S15,512.39,15,510.82,13.34,508,11.36,508Z" transform="translate(195.64 147.33)"/><path class="cls-3" d="M11.36,539.31c-2,0-3.58,1.27-3.58,2.84S9.39,545,11.36,545,15,543.72,15,542.15,13.34,539.31,11.36,539.31Z" transform="translate(195.64 147.33)"/><path class="cls-3" d="M11.36,570.64c-2,0-3.58,1.27-3.58,2.84s1.61,2.84,3.58,2.84S15,575.05,15,573.48,13.34,570.64,11.36,570.64Z" transform="translate(195.64 147.33)"/><path class="cls-3" d="M11.36,602c-2,0-3.58,1.27-3.58,2.84s1.61,2.84,3.58,2.84S15,606.38,15,604.81,13.34,602,11.36,602Z" transform="translate(195.64 147.33)"/><path class="cls-3" d="M11.36,633.3c-2,0-3.58,1.27-3.58,2.84S9.39,639,11.36,639,15,637.71,15,636.14,13.34,633.3,11.36,633.3Z" transform="translate(195.64 147.33)"/><path class="cls-3" d="M11.36,664.63c-2,0-3.58,1.27-3.58,2.84s1.61,2.85,3.58,2.85S15,669,15,667.47,13.34,664.63,11.36,664.63Z" transform="translate(195.64 147.33)"/><path class="cls-3" d="M-22.3,351.32c-2,0-3.58,1.27-3.58,2.84s1.6,2.84,3.58,2.84,3.59-1.27,3.59-2.84S-20.32,351.32-22.3,351.32Z" transform="translate(195.64 147.33)"/><path class="cls-3" d="M-22.3,382.65c-2,0-3.58,1.27-3.58,2.84s1.6,2.84,3.58,2.84,3.59-1.27,3.59-2.84S-20.32,382.65-22.3,382.65Z" transform="translate(195.64 147.33)"/><path class="cls-3" d="M-22.3,414c-2,0-3.58,1.27-3.58,2.84s1.6,2.84,3.58,2.84,3.59-1.27,3.59-2.84S-20.32,414-22.3,414Z" transform="translate(195.64 147.33)"/><path class="cls-3" d="M-22.3,445.31c-2,0-3.58,1.27-3.58,2.84s1.6,2.85,3.58,2.85,3.59-1.28,3.59-2.85S-20.32,445.31-22.3,445.31Z" transform="translate(195.64 147.33)"/><path class="cls-3" d="M-22.3,476.64c-2,0-3.58,1.28-3.58,2.85s1.6,2.84,3.58,2.84,3.59-1.27,3.59-2.84S-20.32,476.64-22.3,476.64Z" transform="translate(195.64 147.33)"/><path class="cls-3" d="M-22.3,508c-2,0-3.58,1.27-3.58,2.84s1.6,2.84,3.58,2.84,3.59-1.27,3.59-2.84S-20.32,508-22.3,508Z" transform="translate(195.64 147.33)"/><path class="cls-3" d="M-22.3,539.31c-2,0-3.58,1.27-3.58,2.84s1.6,2.84,3.58,2.84,3.59-1.27,3.59-2.84S-20.32,539.31-22.3,539.31Z" transform="translate(195.64 147.33)"/><path class="cls-3" d="M-22.3,570.64c-2,0-3.58,1.27-3.58,2.84s1.6,2.84,3.58,2.84,3.59-1.27,3.59-2.84S-20.32,570.64-22.3,570.64Z" transform="translate(195.64 147.33)"/><path class="cls-3" d="M-22.3,602c-2,0-3.58,1.27-3.58,2.84s1.6,2.84,3.58,2.84,3.59-1.27,3.59-2.84S-20.32,602-22.3,602Z" transform="translate(195.64 147.33)"/><path class="cls-3" d="M-22.3,633.3c-2,0-3.58,1.27-3.58,2.84s1.6,2.84,3.58,2.84,3.59-1.27,3.59-2.84S-20.32,633.3-22.3,633.3Z" transform="translate(195.64 147.33)"/><path class="cls-3" d="M-22.3,664.63c-2,0-3.58,1.27-3.58,2.84s1.6,2.85,3.58,2.85,3.59-1.28,3.59-2.85S-20.32,664.63-22.3,664.63Z" transform="translate(195.64 147.33)"/><path class="cls-3" d="M-56,351.32c-2,0-3.58,1.27-3.58,2.84S-57.94,357-56,357s3.59-1.27,3.59-2.84S-54,351.32-56,351.32Z" transform="translate(195.64 147.33)"/><path class="cls-3" d="M-56,382.65c-2,0-3.58,1.27-3.58,2.84s1.6,2.84,3.58,2.84,3.59-1.27,3.59-2.84S-54,382.65-56,382.65Z" transform="translate(195.64 147.33)"/><path class="cls-3" d="M-56,414c-2,0-3.58,1.27-3.58,2.84s1.6,2.84,3.58,2.84,3.59-1.27,3.59-2.84S-54,414-56,414Z" transform="translate(195.64 147.33)"/><path class="cls-3" d="M-56,445.31c-2,0-3.58,1.27-3.58,2.84S-57.94,451-56,451s3.59-1.28,3.59-2.85S-54,445.31-56,445.31Z" transform="translate(195.64 147.33)"/><path class="cls-3" d="M-56,476.64c-2,0-3.58,1.28-3.58,2.85s1.6,2.84,3.58,2.84,3.59-1.27,3.59-2.84S-54,476.64-56,476.64Z" transform="translate(195.64 147.33)"/><path class="cls-3" d="M-56,508c-2,0-3.58,1.27-3.58,2.84s1.6,2.84,3.58,2.84,3.59-1.27,3.59-2.84S-54,508-56,508Z" transform="translate(195.64 147.33)"/><path class="cls-3" d="M-56,539.31c-2,0-3.58,1.27-3.58,2.84S-57.94,545-56,545s3.59-1.27,3.59-2.84S-54,539.31-56,539.31Z" transform="translate(195.64 147.33)"/><path class="cls-3" d="M-56,570.64c-2,0-3.58,1.27-3.58,2.84s1.6,2.84,3.58,2.84,3.59-1.27,3.59-2.84S-54,570.64-56,570.64Z" transform="translate(195.64 147.33)"/><path class="cls-3" d="M-56,602c-2,0-3.58,1.27-3.58,2.84s1.6,2.84,3.58,2.84,3.59-1.27,3.59-2.84S-54,602-56,602Z" transform="translate(195.64 147.33)"/><path class="cls-3" d="M-56,633.3c-2,0-3.58,1.27-3.58,2.84S-57.94,639-56,639s3.59-1.27,3.59-2.84S-54,633.3-56,633.3Z" transform="translate(195.64 147.33)"/><path class="cls-3" d="M-56,664.63c-2,0-3.58,1.27-3.58,2.84s1.6,2.85,3.58,2.85,3.59-1.28,3.59-2.85S-54,664.63-56,664.63Z" transform="translate(195.64 147.33)"/><path class="cls-3" d="M-89.62,351.32c-2,0-3.58,1.27-3.58,2.84s1.6,2.84,3.58,2.84,3.59-1.27,3.59-2.84S-87.64,351.32-89.62,351.32Z" transform="translate(195.64 147.33)"/><path class="cls-3" d="M-89.62,382.65c-2,0-3.58,1.27-3.58,2.84s1.6,2.84,3.58,2.84,3.59-1.27,3.59-2.84S-87.64,382.65-89.62,382.65Z" transform="translate(195.64 147.33)"/><path class="cls-3" d="M-89.62,414c-2,0-3.58,1.27-3.58,2.84s1.6,2.84,3.58,2.84,3.59-1.27,3.59-2.84S-87.64,414-89.62,414Z" transform="translate(195.64 147.33)"/><path class="cls-3" d="M-89.62,445.31c-2,0-3.58,1.27-3.58,2.84s1.6,2.85,3.58,2.85,3.59-1.28,3.59-2.85S-87.64,445.31-89.62,445.31Z" transform="translate(195.64 147.33)"/><path class="cls-3" d="M-89.62,476.64c-2,0-3.58,1.28-3.58,2.85s1.6,2.84,3.58,2.84,3.59-1.27,3.59-2.84S-87.64,476.64-89.62,476.64Z" transform="translate(195.64 147.33)"/><path class="cls-3" d="M-89.62,508c-2,0-3.58,1.27-3.58,2.84s1.6,2.84,3.58,2.84,3.59-1.27,3.59-2.84S-87.64,508-89.62,508Z" transform="translate(195.64 147.33)"/><path class="cls-3" d="M-89.62,539.31c-2,0-3.58,1.27-3.58,2.84s1.6,2.84,3.58,2.84,3.59-1.27,3.59-2.84S-87.64,539.31-89.62,539.31Z" transform="translate(195.64 147.33)"/><path class="cls-3" d="M-89.62,570.64c-2,0-3.58,1.27-3.58,2.84s1.6,2.84,3.58,2.84,3.59-1.27,3.59-2.84S-87.64,570.64-89.62,570.64Z" transform="translate(195.64 147.33)"/><path class="cls-3" d="M-89.62,602c-2,0-3.58,1.27-3.58,2.84s1.6,2.84,3.58,2.84,3.59-1.27,3.59-2.84S-87.64,602-89.62,602Z" transform="translate(195.64 147.33)"/><path class="cls-3" d="M-89.62,633.3c-2,0-3.58,1.27-3.58,2.84s1.6,2.84,3.58,2.84,3.59-1.27,3.59-2.84S-87.64,633.3-89.62,633.3Z" transform="translate(195.64 147.33)"/><path class="cls-3" d="M-89.62,664.63c-2,0-3.58,1.27-3.58,2.84s1.6,2.85,3.58,2.85S-86,669-86,667.47-87.64,664.63-89.62,664.63Z" transform="translate(195.64 147.33)"/><path class="cls-3" d="M-123.28,351.32c-2,0-3.58,1.27-3.58,2.84s1.6,2.84,3.58,2.84,3.58-1.27,3.58-2.84S-121.3,351.32-123.28,351.32Z" transform="translate(195.64 147.33)"/><path class="cls-3" d="M-123.28,382.65c-2,0-3.58,1.27-3.58,2.84s1.6,2.84,3.58,2.84,3.58-1.27,3.58-2.84S-121.3,382.65-123.28,382.65Z" transform="translate(195.64 147.33)"/><path class="cls-3" d="M-123.28,414c-2,0-3.58,1.27-3.58,2.84s1.6,2.84,3.58,2.84,3.58-1.27,3.58-2.84S-121.3,414-123.28,414Z" transform="translate(195.64 147.33)"/><path class="cls-3" d="M-123.28,445.31c-2,0-3.58,1.27-3.58,2.84s1.6,2.85,3.58,2.85,3.58-1.28,3.58-2.85S-121.3,445.31-123.28,445.31Z" transform="translate(195.64 147.33)"/><path class="cls-3" d="M-123.28,476.64c-2,0-3.58,1.28-3.58,2.85s1.6,2.84,3.58,2.84,3.58-1.27,3.58-2.84S-121.3,476.64-123.28,476.64Z" transform="translate(195.64 147.33)"/><path class="cls-3" d="M-123.28,508c-2,0-3.58,1.27-3.58,2.84s1.6,2.84,3.58,2.84,3.58-1.27,3.58-2.84S-121.3,508-123.28,508Z" transform="translate(195.64 147.33)"/><path class="cls-3" d="M-123.28,539.31c-2,0-3.58,1.27-3.58,2.84s1.6,2.84,3.58,2.84,3.58-1.27,3.58-2.84S-121.3,539.31-123.28,539.31Z" transform="translate(195.64 147.33)"/><path class="cls-3" d="M-123.28,570.64c-2,0-3.58,1.27-3.58,2.84s1.6,2.84,3.58,2.84,3.58-1.27,3.58-2.84S-121.3,570.64-123.28,570.64Z" transform="translate(195.64 147.33)"/><path class="cls-3" d="M-123.28,602c-2,0-3.58,1.27-3.58,2.84s1.6,2.84,3.58,2.84,3.58-1.27,3.58-2.84S-121.3,602-123.28,602Z" transform="translate(195.64 147.33)"/><path class="cls-3" d="M-123.28,633.3c-2,0-3.58,1.27-3.58,2.84s1.6,2.84,3.58,2.84,3.58-1.27,3.58-2.84S-121.3,633.3-123.28,633.3Z" transform="translate(195.64 147.33)"/><path class="cls-3" d="M-123.28,664.63c-2,0-3.58,1.27-3.58,2.84s1.6,2.85,3.58,2.85,3.58-1.28,3.58-2.85S-121.3,664.63-123.28,664.63Z" transform="translate(195.64 147.33)"/><path class="cls-7" d="M232,1427.61V1304.15H206.19v-20.44H50.51v123.46H76.29v20.44ZM55.7,1403.06V1287.82H201v16.33H76.29v98.91Zm25.77,0v-94.8H201v94.8Zm0,20.44v-16.33H206.19v-98.91h20.59V1423.5Z" transform="translate(195.64 147.33)"/><path class="cls-5" d="M247.15,107.75c0-28.65,29.4-52,65.52-52s65.53,23.31,65.53,52-29.4,52-65.53,52S247.15,136.4,247.15,107.75Zm128.44,0c0-27.51-28.23-49.9-62.92-49.9s-62.91,22.39-62.91,49.9,28.23,49.89,62.91,49.89S375.59,135.26,375.59,107.75Z" transform="translate(195.64 147.33)"/><path class="cls-5" d="M205.5,83c0-28.65,29.39-52,65.52-52s65.52,23.31,65.52,52-29.39,52-65.52,52S205.5,111.63,205.5,83Zm128.43,0c0-27.51-28.22-49.89-62.91-49.89S208.11,55.46,208.11,83s28.22,49.9,62.91,49.9S333.93,110.48,333.93,83Z" transform="translate(195.64 147.33)"/><path class="cls-4" d="M599.92,107.75c0-13.27,6.78-20,13.33-26.46S626,68.67,626,56.13,619.81,37.46,613.25,31,599.92,17.78,599.92,4.51s6.78-20,13.33-26.45S626-34.56,626-47.1h2.61c0,13.27-6.78,20-13.33,26.45S602.53-8,602.53,4.51s6.2,18.67,12.76,25.16,13.33,13.19,13.33,26.46-6.78,20-13.33,26.46-12.76,12.62-12.76,25.16,6.2,18.67,12.76,25.16,13.33,13.19,13.33,26.46H626c0-12.54-6.2-18.67-12.76-25.16S599.92,121,599.92,107.75Z" transform="translate(195.64 147.33)"/><path class="cls-4" d="M570,107.75c0-13.27,6.78-20,13.33-26.46s12.76-12.62,12.76-25.16S589.87,37.46,583.31,31,570,17.78,570,4.51s6.78-20,13.33-26.45,12.76-12.62,12.76-25.16h2.61c0,13.27-6.78,20-13.33,26.45S572.59-8,572.59,4.51s6.2,18.67,12.76,25.16,13.33,13.19,13.33,26.46-6.78,20-13.33,26.46-12.76,12.62-12.76,25.16,6.2,18.67,12.76,25.16,13.33,13.19,13.33,26.46h-2.61c0-12.54-6.2-18.67-12.76-25.16S570,121,570,107.75Z" transform="translate(195.64 147.33)"/><path class="cls-4" d="M540,107.75c0-13.27,6.78-20,13.33-26.46s12.76-12.62,12.76-25.16S559.94,37.46,553.37,31,540,17.78,540,4.51s6.78-20,13.33-26.45,12.76-12.62,12.76-25.16h2.61c0,13.27-6.77,20-13.33,26.45S542.65-8,542.65,4.51s6.2,18.67,12.76,25.16,13.33,13.19,13.33,26.46-6.77,20-13.33,26.46-12.76,12.62-12.76,25.16,6.2,18.67,12.76,25.16,13.33,13.19,13.33,26.46h-2.61c0-12.54-6.19-18.67-12.76-25.16S540,121,540,107.75Z" transform="translate(195.64 147.33)"/><path class="cls-4" d="M510.1,107.75c0-13.27,6.78-20,13.33-26.46S536.2,68.67,536.2,56.13,530,37.46,523.43,31,510.1,17.78,510.1,4.51s6.78-20,13.33-26.45S536.2-34.56,536.2-47.1h2.6c0,13.27-6.77,20-13.33,26.45S512.71-8,512.71,4.51s6.2,18.67,12.76,25.16S538.8,42.86,538.8,56.13s-6.77,20-13.33,26.46-12.76,12.62-12.76,25.16,6.2,18.67,12.76,25.16,13.33,13.19,13.33,26.46h-2.6c0-12.54-6.2-18.67-12.77-25.16S510.1,121,510.1,107.75Z" transform="translate(195.64 147.33)"/></g></svg>