<svg xmlns="http://www.w3.org/2000/svg" xmlns:xlink="http://www.w3.org/1999/xlink" viewBox="0 0 3710 2398.41"><defs><style>.cls-1{mask:url(#mask);filter:url(#luminosity-noclip-3);}.cls-2,.cls-4{mix-blend-mode:multiply;}.cls-2{fill:url(#linear-gradient);}.cls-3{mask:url(#mask-2);filter:url(#luminosity-noclip-4);}.cls-4{fill:url(#linear-gradient-2);}.cls-11,.cls-5{isolation:isolate;}.cls-6{mask:url(#mask-3);}.cls-7,.cls-9{opacity:0.71;}.cls-7{fill:url(#linear-gradient-3);}.cls-8{mask:url(#mask-4);}.cls-9{fill:url(#linear-gradient-4);}.cls-10{fill:#f4f7fa;}.cls-11,.cls-12{fill:#97a6b7;}.cls-11{opacity:0.2;}.cls-104,.cls-13,.cls-15{fill:#fff;}.cls-13{mix-blend-mode:soft-light;}.cls-14{opacity:0.28;fill:url(#linear-gradient-5);}.cls-16{fill:url(#linear-gradient-6);}.cls-17{fill:url(#linear-gradient-7);}.cls-18{fill:url(#linear-gradient-8);}.cls-19{fill:url(#linear-gradient-9);}.cls-20{fill:url(#linear-gradient-10);}.cls-21{fill:url(#linear-gradient-11);}.cls-22{fill:url(#linear-gradient-12);}.cls-23{fill:url(#linear-gradient-13);}.cls-24{fill:url(#linear-gradient-14);}.cls-25{fill:url(#linear-gradient-15);}.cls-26{fill:url(#linear-gradient-16);}.cls-27{fill:url(#linear-gradient-17);}.cls-28{fill:url(#linear-gradient-18);}.cls-29{fill:url(#linear-gradient-19);}.cls-30{fill:url(#linear-gradient-20);}.cls-31{fill:url(#linear-gradient-21);}.cls-32{fill:url(#linear-gradient-22);}.cls-33{fill:url(#linear-gradient-23);}.cls-34{fill:url(#linear-gradient-24);}.cls-35{fill:url(#linear-gradient-25);}.cls-36{fill:url(#linear-gradient-26);}.cls-37{fill:url(#linear-gradient-27);}.cls-38{fill:url(#linear-gradient-28);}.cls-39{fill:url(#linear-gradient-29);}.cls-40{fill:url(#linear-gradient-30);}.cls-41{fill:url(#linear-gradient-31);}.cls-42{fill:url(#linear-gradient-32);}.cls-43{fill:url(#linear-gradient-33);}.cls-44{fill:url(#linear-gradient-34);}.cls-45{fill:url(#linear-gradient-35);}.cls-46{fill:url(#linear-gradient-36);}.cls-47{fill:url(#linear-gradient-37);}.cls-48{fill:url(#linear-gradient-38);}.cls-49{fill:url(#linear-gradient-39);}.cls-50{fill:url(#linear-gradient-40);}.cls-100,.cls-101,.cls-102,.cls-103,.cls-104,.cls-105,.cls-106,.cls-107,.cls-119,.cls-123,.cls-126,.cls-130,.cls-131,.cls-132,.cls-134,.cls-51,.cls-59,.cls-60,.cls-63,.cls-64,.cls-65,.cls-66,.cls-67,.cls-93,.cls-94,.cls-95,.cls-96,.cls-97,.cls-98,.cls-99{fill-rule:evenodd;}.cls-51{fill:url(#linear-gradient-41);}.cls-52{fill:url(#linear-gradient-42);}.cls-53{fill:url(#linear-gradient-43);}.cls-54{fill:url(#linear-gradient-44);}.cls-55{fill:url(#linear-gradient-45);}.cls-56{fill:url(#linear-gradient-46);}.cls-57{fill:url(#linear-gradient-47);}.cls-58{fill:url(#linear-gradient-48);}.cls-59{fill:url(#_57);}.cls-60{fill:url(#_57-2);}.cls-61{fill:url(#linear-gradient-49);}.cls-62{fill:url(#linear-gradient-50);}.cls-63{fill:url(#linear-gradient-51);}.cls-64{fill:url(#linear-gradient-52);}.cls-65{fill:url(#linear-gradient-53);}.cls-66{fill:url(#linear-gradient-54);}.cls-67{fill:url(#linear-gradient-55);}.cls-68{fill:url(#linear-gradient-56);}.cls-69{fill:url(#linear-gradient-57);}.cls-70{fill:url(#linear-gradient-58);}.cls-71{fill:url(#linear-gradient-59);}.cls-72{fill:url(#linear-gradient-60);}.cls-73{fill:url(#linear-gradient-61);}.cls-74{fill:url(#linear-gradient-62);}.cls-75{fill:url(#linear-gradient-63);}.cls-76{fill:url(#linear-gradient-64);}.cls-77{fill:url(#linear-gradient-65);}.cls-78{fill:url(#linear-gradient-66);}.cls-79{fill:url(#_57-3);}.cls-80{fill:url(#linear-gradient-67);}.cls-81{fill:url(#linear-gradient-68);}.cls-82{fill:url(#linear-gradient-69);}.cls-83{fill:url(#linear-gradient-70);}.cls-84{fill:url(#linear-gradient-71);}.cls-85{fill:url(#linear-gradient-72);}.cls-86{fill:#91b3fa;}.cls-87{fill:url(#linear-gradient-73);}.cls-88{fill:url(#linear-gradient-74);}.cls-89{fill:url(#linear-gradient-75);}.cls-90{fill:url(#linear-gradient-76);}.cls-91{fill:url(#linear-gradient-77);}.cls-92{fill:url(#linear-gradient-78);}.cls-93{fill:url(#linear-gradient-79);}.cls-94{fill:url(#linear-gradient-80);}.cls-95{fill:url(#linear-gradient-81);}.cls-96{fill:url(#linear-gradient-82);}.cls-97{fill:url(#linear-gradient-83);}.cls-98{fill:url(#_57-4);}.cls-99{fill:url(#linear-gradient-84);}.cls-100{fill:url(#linear-gradient-85);}.cls-101{fill:url(#linear-gradient-86);}.cls-102{fill:url(#linear-gradient-87);}.cls-103{fill:url(#linear-gradient-88);}.cls-105{fill:url(#linear-gradient-89);}.cls-106{fill:url(#linear-gradient-90);}.cls-107{fill:url(#linear-gradient-91);}.cls-108{fill:url(#linear-gradient-92);}.cls-109{fill:url(#linear-gradient-93);}.cls-110{fill:url(#linear-gradient-94);}.cls-111{fill:url(#linear-gradient-95);}.cls-112{fill:url(#linear-gradient-96);}.cls-113{fill:url(#linear-gradient-97);}.cls-114{fill:url(#linear-gradient-98);}.cls-115{fill:url(#linear-gradient-99);}.cls-116{fill:url(#linear-gradient-100);}.cls-117{fill:url(#linear-gradient-101);}.cls-118{fill:url(#linear-gradient-102);}.cls-119{fill:url(#linear-gradient-103);}.cls-120{fill:url(#linear-gradient-104);}.cls-121{fill:url(#linear-gradient-105);}.cls-122{fill:url(#linear-gradient-106);}.cls-123{fill:url(#_57-5);}.cls-124{fill:url(#linear-gradient-107);}.cls-125{fill:url(#linear-gradient-108);}.cls-126{fill:url(#_57-6);}.cls-127{fill:url(#linear-gradient-109);}.cls-128{fill:url(#linear-gradient-110);}.cls-129{fill:url(#linear-gradient-111);}.cls-130{fill:url(#linear-gradient-112);}.cls-131{fill:url(#linear-gradient-113);}.cls-132{fill:url(#linear-gradient-114);}.cls-133{fill:url(#linear-gradient-115);}.cls-134{fill:url(#linear-gradient-116);}.cls-135{fill:url(#linear-gradient-117);}.cls-136{fill:url(#linear-gradient-118);}.cls-137{fill:url(#linear-gradient-119);}.cls-138{fill:url(#linear-gradient-120);}.cls-139{fill:url(#linear-gradient-121);}.cls-140{fill:url(#linear-gradient-122);}.cls-141{fill:url(#linear-gradient-123);}.cls-142{fill:url(#linear-gradient-124);}.cls-143{fill:url(#linear-gradient-125);}.cls-144{fill:url(#linear-gradient-126);}.cls-145{fill:url(#linear-gradient-127);}.cls-146{fill:url(#linear-gradient-128);}.cls-147{fill:url(#linear-gradient-129);}.cls-148{fill:url(#linear-gradient-130);}.cls-149{fill:url(#_57-7);}.cls-150{fill:url(#linear-gradient-131);}.cls-151{fill:url(#linear-gradient-132);}.cls-152{fill:url(#linear-gradient-133);}.cls-153{fill:url(#linear-gradient-134);}.cls-154{fill:url(#linear-gradient-135);}.cls-155{fill:url(#linear-gradient-136);}.cls-156{fill:url(#linear-gradient-137);}.cls-157{fill:url(#linear-gradient-138);}.cls-158{fill:url(#linear-gradient-139);}.cls-159{fill:url(#linear-gradient-140);}.cls-160{filter:url(#luminosity-noclip-2);}.cls-161{filter:url(#luminosity-noclip);}</style><filter id="luminosity-noclip" x="2197.8" y="-8734.41" width="790.51" height="32766" filterUnits="userSpaceOnUse" color-interpolation-filters="sRGB"><feFlood flood-color="#fff" result="bg"/><feBlend in="SourceGraphic" in2="bg"/></filter><mask id="mask" x="2197.8" y="-8734.41" width="790.51" height="32766" maskUnits="userSpaceOnUse"><g class="cls-161"/></mask><linearGradient id="linear-gradient" x1="7097.14" y1="328.08" x2="5670.69" y2="2195.39" gradientTransform="matrix(-1, 0, 0, 1, 9276.22, 0)" gradientUnits="userSpaceOnUse"><stop offset="0" stop-color="#fff"/><stop offset="1"/></linearGradient><filter id="luminosity-noclip-2" x="1382.24" y="-8734.41" width="780.48" height="32766" filterUnits="userSpaceOnUse" color-interpolation-filters="sRGB"><feFlood flood-color="#fff" result="bg"/><feBlend in="SourceGraphic" in2="bg"/></filter><mask id="mask-2" x="1382.24" y="-8734.41" width="780.48" height="32766" maskUnits="userSpaceOnUse"><g class="cls-160"/></mask><linearGradient id="linear-gradient-2" x1="7962.25" y1="353.76" x2="6571.8" y2="1951.12" xlink:href="#linear-gradient"/><filter id="luminosity-noclip-3" x="2197.8" y="267.42" width="790.51" height="1169.15" filterUnits="userSpaceOnUse" color-interpolation-filters="sRGB"><feFlood flood-color="#fff" result="bg"/><feBlend in="SourceGraphic" in2="bg"/></filter><mask id="mask-3" x="2197.8" y="267.42" width="790.51" height="1169.15" maskUnits="userSpaceOnUse"><g class="cls-1"><path class="cls-2" d="M2197.8,323.52c311.07-108.89,468.44-27.83,790.51-16V1436.57c-278.85-23.5-544.45-27.87-790.51-4.06Z"/></g></mask><linearGradient id="linear-gradient-3" x1="7097.14" y1="328.08" x2="5670.69" y2="2195.39" gradientTransform="matrix(-1, 0, 0, 1, 9276.22, 0)" gradientUnits="userSpaceOnUse"><stop offset="0" stop-color="#fff"/><stop offset="1" stop-color="#fff"/></linearGradient><filter id="luminosity-noclip-4" x="1382.24" y="280.81" width="780.48" height="1155.76" filterUnits="userSpaceOnUse" color-interpolation-filters="sRGB"><feFlood flood-color="#fff" result="bg"/><feBlend in="SourceGraphic" in2="bg"/></filter><mask id="mask-4" x="1382.24" y="280.81" width="780.48" height="1155.76" maskUnits="userSpaceOnUse"><g class="cls-3"><path class="cls-4" d="M2162.73,324.45V1436.1l-4.43.47c-258.46-10-515.3-20.37-776.06,0V311.4C1691,301.17,1953.2,240.88,2162.73,324.45Z"/></g></mask><linearGradient id="linear-gradient-4" x1="7962.25" y1="353.76" x2="6571.8" y2="1951.12" xlink:href="#linear-gradient-3"/><linearGradient id="linear-gradient-5" x1="-1181.16" y1="1679.04" x2="2812.67" y2="1804.1" gradientUnits="userSpaceOnUse"><stop offset="0" stop-color="#aa80f9"/><stop offset="1" stop-color="#6165d7"/></linearGradient><linearGradient id="linear-gradient-6" x1="1575.21" y1="607.64" x2="1612.92" y2="607.64" xlink:href="#linear-gradient-5"/><linearGradient id="linear-gradient-7" x1="1760.26" y1="1427.44" x2="1980.34" y2="1427.44" xlink:href="#linear-gradient-5"/><linearGradient id="linear-gradient-8" x1="-1219.68" y1="1983.79" x2="-1194.44" y2="1983.79" gradientTransform="matrix(0.34, 0.94, -1.08, 0.39, 4548.59, 1256.06)" xlink:href="#linear-gradient-5"/><linearGradient id="linear-gradient-9" x1="1295.2" y1="1404.75" x2="1424.19" y2="1404.75" xlink:href="#linear-gradient-5"/><linearGradient id="linear-gradient-10" x1="2111.82" y1="842.23" x2="2311.25" y2="842.23" xlink:href="#linear-gradient-5"/><linearGradient id="linear-gradient-11" x1="993.45" y1="925.54" x2="1319.83" y2="925.54" xlink:href="#linear-gradient-5"/><linearGradient id="linear-gradient-12" x1="1406.04" y1="423.19" x2="1807.96" y2="423.19" xlink:href="#linear-gradient-5"/><linearGradient id="linear-gradient-13" x1="840.01" y1="966.41" x2="1034.39" y2="966.41" xlink:href="#linear-gradient-5"/><linearGradient id="linear-gradient-14" x1="1029.78" y1="1663.52" x2="1432.36" y2="1663.52" xlink:href="#linear-gradient-5"/><linearGradient id="linear-gradient-15" x1="1915.47" y1="1607.36" x2="2181.59" y2="1607.36" xlink:href="#linear-gradient-5"/><linearGradient id="linear-gradient-16" x1="1277.48" y1="1008.2" x2="1891.52" y2="1008.2" xlink:href="#linear-gradient-5"/><linearGradient id="linear-gradient-17" x1="2950.14" y1="487.22" x2="3231.39" y2="487.22" gradientUnits="userSpaceOnUse"><stop offset="0" stop-color="#fcb148"/><stop offset="0.05" stop-color="#fdba46"/><stop offset="0.14" stop-color="#ffc244"/><stop offset="0.32" stop-color="#ffc444"/><stop offset="0.48" stop-color="#fdb946"/><stop offset="0.78" stop-color="#f99c4d"/><stop offset="0.87" stop-color="#f8924f"/><stop offset="1" stop-color="#f8924f"/></linearGradient><linearGradient id="linear-gradient-18" x1="3202.67" y1="641.77" x2="3273.49" y2="641.77" gradientTransform="translate(1402.33 -2101.77) rotate(45)" xlink:href="#linear-gradient-17"/><linearGradient id="linear-gradient-19" x1="2899.39" y1="338.5" x2="2970.21" y2="338.5" gradientTransform="translate(1098.82 -1975.99) rotate(45)" xlink:href="#linear-gradient-17"/><linearGradient id="linear-gradient-20" x1="2899.39" y1="641.77" x2="2970.21" y2="641.77" gradientTransform="translate(1313.38 -1887.25) rotate(45)" xlink:href="#linear-gradient-17"/><linearGradient id="linear-gradient-21" x1="3204.47" y1="336.69" x2="3275.29" y2="336.69" gradientTransform="translate(1187.01 -2192.33) rotate(45)" xlink:href="#linear-gradient-17"/><linearGradient id="linear-gradient-22" x1="3120.37" y1="699.06" x2="3158.19" y2="699.06" xlink:href="#linear-gradient-17"/><linearGradient id="linear-gradient-23" x1="3017.83" y1="280.9" x2="3055.64" y2="280.9" xlink:href="#linear-gradient-17"/><linearGradient id="linear-gradient-24" x1="2835.03" y1="541.25" x2="2922.83" y2="541.25" xlink:href="#linear-gradient-17"/><linearGradient id="linear-gradient-25" x1="3253.19" y1="438.71" x2="3340.99" y2="438.71" xlink:href="#linear-gradient-17"/><linearGradient id="linear-gradient-26" x1="3253.19" y1="541.25" x2="3340.99" y2="541.25" xlink:href="#linear-gradient-17"/><linearGradient id="linear-gradient-27" x1="2835.03" y1="438.71" x2="2922.83" y2="438.71" xlink:href="#linear-gradient-17"/><linearGradient id="linear-gradient-28" x1="3120.37" y1="280.9" x2="3158.19" y2="280.9" xlink:href="#linear-gradient-17"/><linearGradient id="linear-gradient-29" x1="3017.83" y1="699.06" x2="3055.64" y2="699.06" xlink:href="#linear-gradient-17"/><linearGradient id="linear-gradient-30" x1="1303.53" y1="2060.18" x2="1324.85" y2="2060.18" gradientTransform="translate(208.88 234.89) rotate(-18.92)" gradientUnits="userSpaceOnUse"><stop offset="0" stop-color="#ff9085"/><stop offset="1" stop-color="#fb6fbb"/></linearGradient><linearGradient id="linear-gradient-31" x1="1228.08" y1="2015.38" x2="1271.05" y2="2015.38" xlink:href="#linear-gradient-30"/><linearGradient id="linear-gradient-32" x1="1167.57" y1="2073.46" x2="1188.35" y2="2073.46" xlink:href="#linear-gradient-30"/><linearGradient id="linear-gradient-33" x1="1187.86" y1="2147.98" x2="1230.9" y2="2147.98" xlink:href="#linear-gradient-30"/><linearGradient id="linear-gradient-34" x1="1282.54" y1="2141.97" x2="1310.99" y2="2141.97" xlink:href="#linear-gradient-30"/><linearGradient id="linear-gradient-35" x1="1245.99" y1="2035.84" x2="1249.7" y2="2035.84" xlink:href="#linear-gradient-30"/><linearGradient id="linear-gradient-36" x1="-356.81" y1="2912.68" x2="-353.1" y2="2912.68" gradientTransform="matrix(0.63, 0.78, -0.89, 0.72, 4919.03, -52.09)" xlink:href="#linear-gradient-30"/><linearGradient id="linear-gradient-37" x1="1187.18" y1="2068.83" x2="1217.06" y2="2068.83" xlink:href="#linear-gradient-30"/><linearGradient id="linear-gradient-38" x1="1217.18" y1="2120.31" x2="1229.26" y2="2120.31" xlink:href="#linear-gradient-30"/><linearGradient id="linear-gradient-39" x1="1214.34" y1="2077.92" x2="1279.98" y2="2077.92" xlink:href="#linear-gradient-30"/><linearGradient id="linear-gradient-40" x1="1266.27" y1="2121.32" x2="1287.26" y2="2121.32" xlink:href="#linear-gradient-30"/><linearGradient id="linear-gradient-41" x1="1076.91" y1="700.89" x2="1455.34" y2="840.62" gradientUnits="userSpaceOnUse"><stop offset="0" stop-color="#311944"/><stop offset="1" stop-color="#6b3976"/></linearGradient><linearGradient id="linear-gradient-42" x1="-574.15" y1="1625.14" x2="-425.35" y2="1625.14" gradientTransform="matrix(-1, 0, 0, 1, 1680.65, 0)" gradientUnits="userSpaceOnUse"><stop offset="0" stop-color="#ffc444"/><stop offset="1" stop-color="#f36f56"/></linearGradient><linearGradient id="linear-gradient-43" x1="2371.59" y1="862.75" x2="2320.76" y2="1131.84" gradientUnits="userSpaceOnUse"><stop offset="0" stop-color="#e1473d"/><stop offset="1" stop-color="#e9605a"/></linearGradient><linearGradient id="linear-gradient-44" x1="2538.93" y1="1310.06" x2="2271.33" y2="1310.06" gradientTransform="matrix(1, 0, 0, 1, 0, 0)" xlink:href="#linear-gradient-42"/><linearGradient id="linear-gradient-45" x1="2139.82" y1="1182.31" x2="1916.96" y2="1182.31" gradientTransform="matrix(1, 0, 0, 1, 0, 0)" xlink:href="#linear-gradient-42"/><linearGradient id="linear-gradient-46" x1="2229.97" y1="1833.33" x2="2283.72" y2="1833.33" gradientUnits="userSpaceOnUse"><stop offset="0" stop-color="#09005d"/><stop offset="1" stop-color="#1a0f91"/></linearGradient><linearGradient id="linear-gradient-47" x1="2237.22" y1="1746.09" x2="2276.47" y2="1746.09" xlink:href="#linear-gradient-46"/><linearGradient id="linear-gradient-48" x1="-592.03" y1="1659.2" x2="-506.31" y2="1659.2" xlink:href="#linear-gradient-42"/><linearGradient id="_57" x1="2030.91" y1="1566.84" x2="2269.29" y2="1449.28" gradientUnits="userSpaceOnUse"><stop offset="0" stop-color="#2b3582"/><stop offset="0.65" stop-color="#150e42"/></linearGradient><linearGradient id="_57-2" x1="2265.34" y1="1734.63" x2="2231.98" y2="1445.16" xlink:href="#_57"/><linearGradient id="linear-gradient-49" x1="2186.78" y1="1169.56" x2="2050.55" y2="1336.32" gradientTransform="matrix(1, 0, 0, 1, 0, 0)" xlink:href="#linear-gradient-30"/><linearGradient id="linear-gradient-50" x1="2024.37" y1="1042.52" x2="2430.72" y2="1702.52" gradientTransform="matrix(1, 0, 0, 1, 0, 0)" xlink:href="#linear-gradient-30"/><linearGradient id="linear-gradient-51" x1="2957.45" y1="1713.98" x2="2978.1" y2="1633.25" gradientTransform="matrix(0.98, -0.19, 0.25, 1.27, -1125.26, -327.85)" xlink:href="#linear-gradient-42"/><linearGradient id="linear-gradient-52" x1="1594.02" y1="493.41" x2="1867.31" y2="309.02" gradientTransform="matrix(0.97, 0.26, -0.26, 0.97, 1793.71, -80.48)" xlink:href="#linear-gradient-42"/><linearGradient id="linear-gradient-53" x1="2683.54" y1="794.52" x2="2977.39" y2="596.25" gradientTransform="matrix(1, 0, 0, 1, 0, 0)" xlink:href="#linear-gradient-42"/><linearGradient id="linear-gradient-54" x1="1220.03" y1="735.38" x2="1546.5" y2="855.92" xlink:href="#linear-gradient-41"/><linearGradient id="linear-gradient-55" x1="1223.4" y1="726.25" x2="1549.87" y2="846.79" xlink:href="#linear-gradient-41"/><linearGradient id="linear-gradient-56" x1="2109.79" y1="989.93" x2="2516.14" y2="1649.93" gradientTransform="matrix(1, 0, 0, 1, 0, 0)" xlink:href="#linear-gradient-30"/><linearGradient id="linear-gradient-57" x1="171.09" y1="2771.94" x2="-528.64" y2="3332.62" gradientTransform="matrix(0.79, -0.61, 0.61, 0.79, 732.76, 701.21)" xlink:href="#linear-gradient-5"/><linearGradient id="linear-gradient-58" x1="458.87" y1="1408.01" x2="164.56" y2="1790.9" gradientTransform="matrix(-0.94, 0.35, 0.35, 0.94, 2483.46, -351.57)" xlink:href="#linear-gradient-42"/><linearGradient id="linear-gradient-59" x1="2658.4" y1="1154.21" x2="2775.54" y2="1317.44" gradientTransform="matrix(1, 0, 0, 1, 0, 0)" xlink:href="#linear-gradient-42"/><linearGradient id="linear-gradient-60" x1="3072.11" y1="1595.25" x2="2372.39" y2="2155.92" xlink:href="#linear-gradient-5"/><linearGradient id="linear-gradient-61" x1="3180.91" y1="2188.92" x2="3264.98" y2="2188.92" gradientTransform="translate(7.88)" xlink:href="#linear-gradient-46"/><linearGradient id="linear-gradient-62" x1="3223.18" y1="2003.63" x2="3223.18" y2="2202.46" gradientTransform="translate(7.88)" gradientUnits="userSpaceOnUse"><stop offset="0" stop-color="#4042e2"/><stop offset="1" stop-color="#4f52ff"/></linearGradient><linearGradient id="linear-gradient-63" x1="1504.06" y1="1680.65" x2="1404.77" y2="2547.17" gradientTransform="matrix(-1, 0, 0, 1, 4679.37, 0)" xlink:href="#linear-gradient-42"/><linearGradient id="linear-gradient-64" x1="1673.64" y1="2003.62" x2="1673.64" y2="2202.46" gradientTransform="matrix(-1, 0, 0, 1, 4679.37, 0)" xlink:href="#linear-gradient-62"/><linearGradient id="linear-gradient-65" x1="1614.23" y1="2190.11" x2="1732.55" y2="2190.11" gradientTransform="matrix(-1, 0, 0, 1, 4679.37, 0)" xlink:href="#linear-gradient-46"/><linearGradient id="linear-gradient-66" x1="1624.62" y1="1829.83" x2="1537.93" y2="2586.4" gradientTransform="matrix(-1, 0, 0, 1, 4679.37, 0)" xlink:href="#linear-gradient-42"/><linearGradient id="_57-3" x1="3363.09" y1="1581.31" x2="2950.47" y2="1949.08" xlink:href="#_57"/><linearGradient id="linear-gradient-67" x1="3003.43" y1="1509.52" x2="2303.7" y2="2070.2" xlink:href="#linear-gradient-5"/><linearGradient id="linear-gradient-68" x1="3147.51" y1="1083.92" x2="3180.4" y2="1295.21" gradientTransform="matrix(1, 0, 0, 1, 0, 0)" xlink:href="#linear-gradient-42"/><linearGradient id="linear-gradient-69" x1="-858.33" y1="1118.01" x2="-828.43" y2="969.51" gradientTransform="matrix(-0.97, -0.23, -0.23, 0.97, 2530.59, 689.74)" xlink:href="#linear-gradient-42"/><linearGradient id="linear-gradient-70" x1="3119.02" y1="1306.01" x2="3142.06" y2="1014.12" xlink:href="#linear-gradient-41"/><linearGradient id="linear-gradient-71" x1="-906.76" y1="1108.26" x2="-876.86" y2="959.76" gradientTransform="matrix(-0.97, -0.23, -0.23, 0.97, 2530.59, 689.74)" xlink:href="#linear-gradient-42"/><linearGradient id="linear-gradient-72" x1="-2301.93" y1="6535.53" x2="-2344.43" y2="6675.19" gradientTransform="translate(-1206.1 6961.77) rotate(-159.36)" xlink:href="#linear-gradient-42"/><linearGradient id="linear-gradient-73" x1="3121.16" y1="1406.21" x2="3147.31" y2="1351.24" gradientTransform="translate(1889.53 -1816.15) rotate(45)" gradientUnits="userSpaceOnUse"><stop offset="0" stop-color="#fe7062"/><stop offset="1" stop-color="#ff928e"/></linearGradient><linearGradient id="linear-gradient-74" x1="3129.34" y1="1410.05" x2="3155.44" y2="1355.16" gradientTransform="matrix(1, 0, 0, 1, 0, 0)" xlink:href="#linear-gradient-73"/><linearGradient id="linear-gradient-75" x1="3155.41" y1="1278.56" x2="3155.41" y2="1325.65" gradientTransform="matrix(1, 0, 0, 1, 0, 0)" xlink:href="#linear-gradient-73"/><linearGradient id="linear-gradient-76" x1="3134.11" y1="1278.56" x2="3134.11" y2="1325.65" gradientTransform="matrix(1, 0, 0, 1, 0, 0)" xlink:href="#linear-gradient-73"/><linearGradient id="linear-gradient-77" x1="3121.65" y1="1407.48" x2="3150.39" y2="1347.05" gradientTransform="matrix(1, 0, 0, 1, 0, 0)" xlink:href="#linear-gradient-73"/><linearGradient id="linear-gradient-78" x1="3128.27" y1="1441.51" x2="3129.77" y2="1534.2" gradientTransform="matrix(1, 0, 0, 1, 0, 0)" xlink:href="#linear-gradient-73"/><linearGradient id="linear-gradient-79" x1="2759.91" y1="1519.88" x2="2804.76" y2="1588.65" gradientTransform="matrix(1, 0, 0, 1, 0, 0)" xlink:href="#linear-gradient-42"/><linearGradient id="linear-gradient-80" x1="2774.73" y1="1510.21" x2="2819.58" y2="1578.98" gradientTransform="matrix(1, 0, 0, 1, 0, 0)" xlink:href="#linear-gradient-42"/><linearGradient id="linear-gradient-81" x1="2834.24" y1="1742.07" x2="2891.01" y2="1742.07" xlink:href="#linear-gradient-46"/><linearGradient id="linear-gradient-82" x1="2629.91" y1="1836.35" x2="2604.42" y2="1994.51" gradientTransform="matrix(1, 0, 0, 1, 0, 0)" xlink:href="#linear-gradient-42"/><linearGradient id="linear-gradient-83" x1="2822.13" y1="1737.56" x2="2804.06" y2="1849.67" gradientTransform="matrix(1, 0, 0, 1, 0, 0)" xlink:href="#linear-gradient-42"/><linearGradient id="_57-4" x1="2721.77" y1="1734.77" x2="2697.45" y2="1885.65" xlink:href="#_57"/><linearGradient id="linear-gradient-84" x1="2664.14" y1="1692.83" x2="2625.62" y2="1931.83" xlink:href="#linear-gradient-5"/><linearGradient id="linear-gradient-85" x1="2612.35" y1="1526.82" x2="2679.12" y2="1664.36" gradientTransform="matrix(1, 0, 0, 1, 0, 0)" xlink:href="#linear-gradient-42"/><linearGradient id="linear-gradient-86" x1="-1908.5" y1="1236.75" x2="-1868.63" y2="1103.2" gradientTransform="matrix(-0.96, -0.27, -0.27, 0.96, 1107.97, 252.34)" xlink:href="#linear-gradient-42"/><linearGradient id="linear-gradient-87" x1="3523.95" y1="2148.73" x2="3456.91" y2="2020.61" gradientTransform="translate(-1448.74 957.88) rotate(-23.66)" xlink:href="#linear-gradient-41"/><linearGradient id="linear-gradient-88" x1="-1961.94" y1="1220.8" x2="-1922.07" y2="1087.25" gradientTransform="matrix(-0.96, -0.27, -0.27, 0.96, 1107.97, 252.34)" xlink:href="#linear-gradient-42"/><linearGradient id="linear-gradient-89" x1="2532.55" y1="1941.64" x2="2602.5" y2="1941.64" xlink:href="#linear-gradient-46"/><linearGradient id="linear-gradient-90" x1="2475.42" y1="1492.14" x2="2514.29" y2="1625.7" gradientTransform="matrix(1, 0, 0, 1, 0, 0)" xlink:href="#linear-gradient-42"/><linearGradient id="linear-gradient-91" x1="2449.39" y1="1499.72" x2="2488.26" y2="1633.27" gradientTransform="matrix(1, 0, 0, 1, 0, 0)" xlink:href="#linear-gradient-42"/><linearGradient id="linear-gradient-92" x1="1591.71" y1="2268.89" x2="1613.03" y2="2268.89" gradientTransform="translate(208.88 234.89) rotate(-18.92)" xlink:href="#linear-gradient-46"/><linearGradient id="linear-gradient-93" x1="1516.26" y1="2224.1" x2="1559.23" y2="2224.1" gradientTransform="translate(208.88 234.89) rotate(-18.92)" xlink:href="#linear-gradient-46"/><linearGradient id="linear-gradient-94" x1="1455.75" y1="2282.17" x2="1476.53" y2="2282.17" gradientTransform="translate(208.88 234.89) rotate(-18.92)" xlink:href="#linear-gradient-46"/><linearGradient id="linear-gradient-95" x1="1476.04" y1="2356.69" x2="1519.08" y2="2356.69" gradientTransform="translate(208.88 234.89) rotate(-18.92)" xlink:href="#linear-gradient-46"/><linearGradient id="linear-gradient-96" x1="1570.72" y1="2350.69" x2="1599.17" y2="2350.69" gradientTransform="translate(208.88 234.89) rotate(-18.92)" xlink:href="#linear-gradient-46"/><linearGradient id="linear-gradient-97" x1="1534.17" y1="2244.55" x2="1537.88" y2="2244.55" gradientTransform="translate(208.88 234.89) rotate(-18.92)" xlink:href="#linear-gradient-46"/><linearGradient id="linear-gradient-98" x1="-61.96" y1="2738.85" x2="-58.25" y2="2738.85" gradientTransform="matrix(0.63, 0.78, -0.89, 0.72, 4919.03, -52.09)" xlink:href="#linear-gradient-46"/><linearGradient id="linear-gradient-99" x1="1475.36" y1="2277.55" x2="1505.24" y2="2277.55" gradientTransform="translate(208.88 234.89) rotate(-18.92)" xlink:href="#linear-gradient-46"/><linearGradient id="linear-gradient-100" x1="1505.36" y1="2329.02" x2="1517.43" y2="2329.02" gradientTransform="translate(208.88 234.89) rotate(-18.92)" xlink:href="#linear-gradient-46"/><linearGradient id="linear-gradient-101" x1="1502.52" y1="2286.64" x2="1568.16" y2="2286.64" gradientTransform="translate(208.88 234.89) rotate(-18.92)" xlink:href="#linear-gradient-46"/><linearGradient id="linear-gradient-102" x1="1554.45" y1="2330.04" x2="1575.44" y2="2330.04" gradientTransform="translate(208.88 234.89) rotate(-18.92)" xlink:href="#linear-gradient-46"/><linearGradient id="linear-gradient-103" x1="1073.46" y1="1339.54" x2="1269.94" y2="1462.14" xlink:href="#linear-gradient-41"/><linearGradient id="linear-gradient-104" x1="1004.04" y1="1971.4" x2="1033.86" y2="1971.4" xlink:href="#linear-gradient-46"/><linearGradient id="linear-gradient-105" x1="2518.41" y1="1120.66" x2="2623.12" y2="1120.66" gradientTransform="matrix(0.79, 0.62, -0.62, 0.79, -196.28, -600.01)" xlink:href="#linear-gradient-42"/><linearGradient id="linear-gradient-106" x1="150.06" y1="1564" x2="339.79" y2="1564" gradientTransform="matrix(0.89, -0.46, 0.46, 0.89, 380.6, 277.37)" xlink:href="#linear-gradient-42"/><linearGradient id="_57-5" x1="921.03" y1="1784.35" x2="1551.89" y2="1772.42" gradientTransform="translate(59.2 65.46) rotate(-5.2)" xlink:href="#_57"/><linearGradient id="linear-gradient-107" x1="1441.19" y1="1955.55" x2="1512.18" y2="1955.55" xlink:href="#linear-gradient-46"/><linearGradient id="linear-gradient-108" x1="-723.48" y1="1457.31" x2="-615" y2="1457.31" gradientTransform="matrix(0.66, -0.75, 0.75, 0.66, 697.37, 373.57)" xlink:href="#linear-gradient-42"/><linearGradient id="_57-6" x1="1307" y1="1618.14" x2="1208.34" y2="1777.34" xlink:href="#_57"/><linearGradient id="linear-gradient-109" x1="1201.93" y1="1646.62" x2="1073.36" y2="1966.54" xlink:href="#linear-gradient-5"/><linearGradient id="linear-gradient-110" x1="1189.66" y1="1641.69" x2="1061.1" y2="1961.61" xlink:href="#linear-gradient-5"/><linearGradient id="linear-gradient-111" x1="1967.05" y1="1265.6" x2="2038.3" y2="1265.6" gradientTransform="translate(-208.13 -375.6) rotate(25.12)" xlink:href="#linear-gradient-42"/><linearGradient id="linear-gradient-112" x1="1190.1" y1="1584.74" x2="1200.57" y2="1460.37" gradientTransform="matrix(1, 0, 0, 1, 0, 0)" xlink:href="#linear-gradient-42"/><linearGradient id="linear-gradient-113" x1="1291.12" y1="1457.34" x2="1087.33" y2="1390.24" gradientTransform="matrix(1, 0, 0, 1, 0, 0)" xlink:href="#linear-gradient-42"/><linearGradient id="linear-gradient-114" x1="1280.3" y1="1490.2" x2="1076.51" y2="1423.1" gradientTransform="matrix(1, 0, 0, 1, 0, 0)" xlink:href="#linear-gradient-42"/><linearGradient id="linear-gradient-115" x1="1109.72" y1="1609.56" x2="981.15" y2="1929.49" xlink:href="#linear-gradient-5"/><linearGradient id="linear-gradient-116" x1="1076.89" y1="1340.62" x2="1269.29" y2="1460.68" xlink:href="#linear-gradient-41"/><linearGradient id="linear-gradient-117" x1="818.97" y1="1943.9" x2="840.29" y2="1943.9" gradientTransform="translate(208.88 234.89) rotate(-18.92)" xlink:href="#linear-gradient-42"/><linearGradient id="linear-gradient-118" x1="743.52" y1="1899.11" x2="786.49" y2="1899.11" gradientTransform="translate(208.88 234.89) rotate(-18.92)" xlink:href="#linear-gradient-42"/><linearGradient id="linear-gradient-119" x1="683.01" y1="1957.18" x2="703.79" y2="1957.18" gradientTransform="translate(208.88 234.89) rotate(-18.92)" xlink:href="#linear-gradient-42"/><linearGradient id="linear-gradient-120" x1="703.3" y1="2031.7" x2="746.34" y2="2031.7" gradientTransform="translate(208.88 234.89) rotate(-18.92)" xlink:href="#linear-gradient-42"/><linearGradient id="linear-gradient-121" x1="797.98" y1="2025.7" x2="826.43" y2="2025.7" gradientTransform="translate(208.88 234.89) rotate(-18.92)" xlink:href="#linear-gradient-42"/><linearGradient id="linear-gradient-122" x1="761.43" y1="1919.56" x2="765.14" y2="1919.56" gradientTransform="translate(208.88 234.89) rotate(-18.92)" xlink:href="#linear-gradient-42"/><linearGradient id="linear-gradient-123" x1="-632.11" y1="3275.18" x2="-628.4" y2="3275.18" gradientTransform="matrix(0.63, 0.78, -0.89, 0.72, 4919.03, -52.09)" xlink:href="#linear-gradient-42"/><linearGradient id="linear-gradient-124" x1="702.62" y1="1952.56" x2="732.5" y2="1952.56" gradientTransform="translate(208.88 234.89) rotate(-18.92)" xlink:href="#linear-gradient-42"/><linearGradient id="linear-gradient-125" x1="732.62" y1="2004.03" x2="744.7" y2="2004.03" gradientTransform="translate(208.88 234.89) rotate(-18.92)" xlink:href="#linear-gradient-42"/><linearGradient id="linear-gradient-126" x1="729.78" y1="1961.65" x2="795.42" y2="1961.65" gradientTransform="translate(208.88 234.89) rotate(-18.92)" xlink:href="#linear-gradient-42"/><linearGradient id="linear-gradient-127" x1="781.71" y1="2005.05" x2="802.7" y2="2005.05" gradientTransform="translate(208.88 234.89) rotate(-18.92)" xlink:href="#linear-gradient-42"/><linearGradient id="linear-gradient-128" x1="562.75" y1="1248.81" x2="479.03" y2="1757.11" gradientTransform="matrix(1, 0, 0, 1, 0, 0)" xlink:href="#linear-gradient-42"/><linearGradient id="linear-gradient-129" x1="-1452.98" y1="1972.45" x2="-1250.16" y2="1972.45" gradientTransform="matrix(-1, 0, 0, 1, -958.02, 0)" xlink:href="#linear-gradient-42"/><linearGradient id="linear-gradient-130" x1="-1576.06" y1="1987.53" x2="-1458.6" y2="1987.53" gradientTransform="matrix(-1, 0, 0, 1, -958.02, 0)" xlink:href="#linear-gradient-42"/><linearGradient id="_57-7" x1="888.45" y1="1290.56" x2="416.04" y2="1804.83" xlink:href="#_57"/><linearGradient id="linear-gradient-131" x1="350.44" y1="1783.52" x2="840.79" y2="1394.83" xlink:href="#linear-gradient-46"/><linearGradient id="linear-gradient-132" x1="173.38" y1="2091.13" x2="1261.28" y2="2046.6" xlink:href="#linear-gradient-46"/><linearGradient id="linear-gradient-133" x1="174.1" y1="2108.68" x2="1261.99" y2="2064.14" xlink:href="#linear-gradient-46"/><linearGradient id="linear-gradient-134" x1="4919.85" y1="1777.72" x2="5883.68" y2="1717.28" gradientTransform="matrix(-1, 0, 0, 1, -958.02, 0)" xlink:href="#linear-gradient-62"/><linearGradient id="linear-gradient-135" x1="-3600.74" y1="17.37" x2="-3370.8" y2="17.37" gradientTransform="matrix(-0.45, -0.89, -0.89, 0.45, -740.99, -1795.53)" xlink:href="#linear-gradient-42"/><linearGradient id="linear-gradient-136" x1="-1511.02" y1="1422.2" x2="-1070.42" y2="2294.85" gradientTransform="matrix(-1, 0, 0, 1, -958.02, 0)" xlink:href="#linear-gradient-30"/><linearGradient id="linear-gradient-137" x1="657.74" y1="1069.86" x2="535.15" y2="1273.18" gradientTransform="matrix(1, 0, 0, 1, 0, 0)" xlink:href="#linear-gradient-42"/><linearGradient id="linear-gradient-138" x1="-2407.2" y1="-529.88" x2="-2583.65" y2="-299.59" gradientTransform="matrix(-0.6, -0.8, -0.8, 0.6, -961.42, -1538.23)" xlink:href="#linear-gradient-42"/><linearGradient id="linear-gradient-139" x1="-2941.95" y1="328.74" x2="-3126.09" y2="697.02" gradientTransform="matrix(-0.6, -0.8, -0.8, 0.6, -961.42, -1538.23)" xlink:href="#linear-gradient-41"/><linearGradient id="linear-gradient-140" x1="4921.3" y1="1801.13" x2="5885.14" y2="1740.69" gradientTransform="matrix(-1, 0, 0, 1, -958.02, 0)" xlink:href="#linear-gradient-62"/></defs><g class="cls-5"><g id="Layer_1" data-name="Layer 1"><g class="cls-6"><path class="cls-7" d="M2197.8,323.52c311.07-108.89,468.44-27.83,790.51-16V1436.57c-278.85-23.5-544.45-27.87-790.51-4.06Z"/></g><g class="cls-8"><path class="cls-9" d="M2162.73,324.45V1436.1l-4.43.47c-258.46-10-515.3-20.37-776.06,0V311.4C1691,301.17,1953.2,240.88,2162.73,324.45Z"/></g><path class="cls-10" d="M679.62,287.93c-89.91,50.92-226.53,149.6-323.78,319.39C238.46,812.26,154.07,1163.32,309,1324c148.36,153.83,452.55,67.24,483.7,184.57,7.65,28.8,8.77,49.33-40.5,127.85-89.9,143.29-72.49,251.41-61.55,297.64,47.69,201.53,901.77,153.36,901.77,153.36,746.67-42.11,1852.65-216.48,1861.49-494.53.43-13.65,1.26-62.31-48.21-131.33C3089,1019.76,3300,997.09,3315.48,801.84S3065.15,118.45,2220.9,386.37C2143.07,411.07,1917,268,1376.8,193.43,1323.38,186.07,992.73,110.62,679.62,287.93Z"/><path class="cls-11" d="M268,2040l470.22-351.52a14.86,14.86,0,0,1,8.89-3l2238.68-5.22a15,15,0,0,1,8.88,2.91L3479.2,2039.9c11.59,8.54,5.56,26.92-8.84,26.92H276.88C262.54,2066.82,256.47,2048.55,268,2040Z"/><path class="cls-12" d="M439.83,2029.14l392.43-327h1.15l2052.52-4.53.89.74,396.55,330.07h-8.79ZM834.57,1708.5,457.41,2022.78l2808.37-.71L2883.63,1704Z"/><polygon class="cls-12" points="565.74 1931.55 565.74 1925.18 1016.88 1924.8 1139.26 1768.12 761.05 1768.81 761.04 1762.45 1152.32 1761.73 1019.99 1931.16 565.74 1931.55"/><path class="cls-13" d="M1055.44,1886.27v-6.36c81.28-.09,162.07-19.34,176.42-42,2.23-3.51,2.46-6.61.73-9.74-6.66-12.07-44.39-25-111.52-25h-.86v-6.36h.84c61.7,0,107.62,11.08,117.12,28.29,2.85,5.15,2.53,10.76-.92,16.21C1221.61,1866,1140.06,1886.17,1055.44,1886.27Z"/><polygon class="cls-12" points="2701.86 1929.74 2568.54 1759.13 2952.53 1758.42 2952.54 1764.78 2581.56 1765.46 2704.96 1923.37 3155.54 1922.99 3155.55 1929.36 2701.86 1929.74"/><path class="cls-12" d="M2664.83,1883.7c-85.82,0-168.18-20.08-183.78-44.85-3.42-5.41-3.72-11-.88-16.14,9.64-17.5,56.78-28.87,120.11-29v6.36c-69.05.11-107.78,13.39-114.55,25.68-1.72,3.12-1.5,6.2.69,9.68,14.32,22.74,95.94,41.88,178.42,41.88h.6v6.36Z"/><path class="cls-12" d="M1851.41,1895.26c-127.59,0-234.19-18.39-253.76-43.83-3.26-4.24-4.31-8.67-3.12-13.16,8.73-32.78,140-50.68,259.1-50.88h2c118.91,0,248.89,17.51,257.1,50.21,1.13,4.48,0,8.89-3.27,13.11-20,25.68-128,44.42-256.67,44.55Zm2.22-104.69v3.18c-148.72.25-247.1,24.15-253,46.15-.67,2.52,0,5,2,7.65,20.7,26.91,143.43,41.35,248.9,41.35h1.21c106.19-.11,230.48-14.9,251.66-42.1,2.06-2.63,2.75-5.14,2.12-7.65-6.84-27.25-135-45.4-251.09-45.4h-1.85Z"/><rect class="cls-12" x="1689.75" y="1862.09" width="322.69" height="6.36" transform="translate(-33.09 3697.12) rotate(-89.41)"/><ellipse class="cls-14" cx="1857.49" cy="1774.19" rx="570.39" ry="55.43"/><path class="cls-15" d="M2313,1070.39c0,156-48.48,300.79-131.41,419.92a738.15,738.15,0,0,1-749.22,302.55c-158.41-31.38-298.38-113.65-402.59-229a733.64,733.64,0,0,1-181-380c-5.71-36.86,17.2-81.49,17.2-120.11,0-115.18.57-217.77,47.74-314.73C1008.94,552.62,1188.84,405.2,1406,353.87c6.84-1.62,13.88-3.2,13.88-3.2,87.13,28.78,151.55,26.58,195.42,18.41,34.77-6.48,98.64-24.53,175.64-3.36,7.79,2.14,13.58,4.1,17,5.25,73.31,24.89,275.82,131.31,383.5,294.21,38.2,57.79,9.47,129,30.23,196.6,16.21,52.78,85.62,100.37,89.56,157.5C2312.35,1036.17,2313,1053.28,2313,1070.39Z"/><path class="cls-16" d="M1586,745.71a1,1,0,0,1-.65,0c-6.08-2.23-10.6-4-10.08-12.42,5.09-83.41,10.68-169.87,15.94-253,.53-8.38,5.3-11.11,11.53-10.7s10.65,3.51,10.17,11.91c-4.82,83.23-10.46,169.74-16,253.18C1596.41,742.82,1592,744,1586,745.71Z"/><path class="cls-17" d="M1969.34,1563.4c-3.8-.4-5.91-.52-9.11-4.61-64.61-82.56-132.3-166.65-196.75-248.83-5.41-6.9-3.38-11.8,1.54-15.64s10.17-4.62,15.61,2.28c64.62,82,132.31,166.3,196.71,248.7,5.41,6.91,2.59,10.9-1.35,15.85C1974.38,1563.17,1972,1563.68,1969.34,1563.4Z"/><path class="cls-18" d="M1871.43,956.9c-4.62-.34-9.47-2.56-10.43-7.47-1.19-6.07-.56-11.26,6.94-13.85,84.84-29.37,171.68-61,256.57-89.85,7.5-2.55,11.85,1.09,13.77,6.82s.69,11.17-6.8,13.76c-84.92,29.35-171.32,60.75-256.72,90A7.59,7.59,0,0,1,1871.43,956.9Z"/><path class="cls-19" d="M1306.07,1556.65a4.56,4.56,0,0,1-3.38-.6c-5.2-3.26-9.36-6.51-6.63-14.09,33.77-93.72,72.59-188.11,106.61-281.54,2.75-7.57,8.09-8.79,13.84-6.85s9.48,6.24,6.78,13.82C1389.83,1361,1351,1455.45,1316.66,1549,1314.42,1555.1,1311.15,1555.65,1306.07,1556.65Z"/><path class="cls-20" d="M2311.25,1019.28,2111.82,858.91l79.64-193.73A732.08,732.08,0,0,1,2311.25,1019.28Z"/><path class="cls-21" d="M1308.36,953.75a6.2,6.2,0,0,1-1.21-.07c-100.79-8.87-203.39-23.35-303-34.72-9.33-1.07-11.28-5.55-10.6-12s4.29-10.39,13.31-9.52c99.11,9.65,202.36,24.22,301.54,34.41,9.29.95,10.84,5.42,11.38,12S1313.63,953.12,1308.36,953.75Z"/><path class="cls-22" d="M1808,371l-209.3,141.51L1406,353.87a726.22,726.22,0,0,1,170.46-20A734,734,0,0,1,1808,371Z"/><path class="cls-23" d="M1034.39,911.56,848.78,1183.83A741.37,741.37,0,0,1,840,1070.39,733.36,733.36,0,0,1,913.72,749Z"/><path class="cls-24" d="M1432.36,1792.86c-158.4-31.38-298.37-113.65-402.58-229l281.7-29.62Z"/><path class="cls-25" d="M2181.59,1490.31a739.1,739.1,0,0,1-266.12,234.09l33.12-195.25Z"/><polygon class="cls-26" points="1394.75 1307.72 1277.47 936.76 1584.5 708.68 1891.52 939.27 1774.25 1307.72 1394.75 1307.72"/><circle class="cls-27" cx="3090.76" cy="487.22" r="140.62"/><rect class="cls-28" x="3226.59" y="597.1" width="22.98" height="89.35" rx="10.39" transform="translate(494.69 2477.75) rotate(-45)"/><rect class="cls-29" x="2923.31" y="293.82" width="22.98" height="89.35" rx="10.39" transform="translate(620.14 2174.25) rotate(-45)"/><rect class="cls-30" x="2890.12" y="630.28" width="89.35" height="22.98" rx="10.39" transform="translate(405.78 2263.19) rotate(-45)"/><rect class="cls-31" x="3195.21" y="325.2" width="89.35" height="22.98" rx="10.39" transform="translate(710.86 2389.55) rotate(-45)"/><path class="cls-32" d="M3149.64,742.66l.63-.16a10.38,10.38,0,0,0,7.61-12.56l-16.39-66.86a10.4,10.4,0,0,0-12.57-7.62l-.63.16a10.38,10.38,0,0,0-7.61,12.56L3137.07,735A10.4,10.4,0,0,0,3149.64,742.66Z"/><path class="cls-33" d="M3047.1,324.5l.63-.16a10.39,10.39,0,0,0,7.61-12.57L3039,244.92a10.4,10.4,0,0,0-12.57-7.62l-.63.16a10.38,10.38,0,0,0-7.61,12.56l16.39,66.86A10.4,10.4,0,0,0,3047.1,324.5Z"/><path class="cls-34" d="M2848.05,559.85l66.86-16.39a10.4,10.4,0,0,0,7.62-12.57l-.16-.63a10.39,10.39,0,0,0-12.57-7.61L2843,539a10.4,10.4,0,0,0-7.62,12.57l.16.63A10.38,10.38,0,0,0,2848.05,559.85Z"/><path class="cls-35" d="M3266.21,457.31l66.86-16.39a10.4,10.4,0,0,0,7.62-12.57l-.16-.63a10.38,10.38,0,0,0-12.56-7.61l-66.86,16.39a10.4,10.4,0,0,0-7.62,12.57l.16.63A10.38,10.38,0,0,0,3266.21,457.31Z"/><path class="cls-36" d="M3328,559.85a10.38,10.38,0,0,0,12.56-7.61l.16-.63a10.4,10.4,0,0,0-7.62-12.57l-66.86-16.39a10.38,10.38,0,0,0-12.56,7.61l-.16.63a10.4,10.4,0,0,0,7.62,12.57Z"/><path class="cls-37" d="M2909.8,457.31a10.39,10.39,0,0,0,12.57-7.61l.16-.63a10.4,10.4,0,0,0-7.62-12.57l-66.86-16.39a10.38,10.38,0,0,0-12.56,7.61l-.16.63a10.4,10.4,0,0,0,7.62,12.57Z"/><path class="cls-38" d="M3128.92,324.5a10.4,10.4,0,0,0,12.57-7.62L3157.88,250a10.38,10.38,0,0,0-7.61-12.56l-.63-.16a10.4,10.4,0,0,0-12.57,7.62l-16.39,66.85a10.39,10.39,0,0,0,7.61,12.57Z"/><path class="cls-39" d="M3025.75,742.5l.63.16A10.4,10.4,0,0,0,3039,735l16.39-66.86a10.38,10.38,0,0,0-7.61-12.56l-.63-.16a10.4,10.4,0,0,0-12.57,7.62l-16.39,66.86A10.38,10.38,0,0,0,3025.75,742.5Z"/><path class="cls-15" d="M2138.19,1777.31a78.7,78.7,0,0,1-49,100,79.74,79.74,0,0,1-15.06,3.58,78.82,78.82,0,0,1-80.13-41.37,80.22,80.22,0,0,1-4.82-11.16,78.71,78.71,0,0,1,32.41-92.08,77.5,77.5,0,0,1,16.55-7.93,78.77,78.77,0,0,1,98.06,43.84C2136.93,1773.87,2137.59,1775.58,2138.19,1777.31Z"/><path class="cls-40" d="M2136.24,1772.2l-25.73-9.3,1.34-22.35A78.23,78.23,0,0,1,2136.24,1772.2Z"/><path class="cls-41" d="M2062.87,1724.08l-16.26,21.57-25-9.36a77.5,77.5,0,0,1,16.55-7.93A78.49,78.49,0,0,1,2062.87,1724.08Z"/><path class="cls-42" d="M2003.37,1805.57l-9.33,34a80.22,80.22,0,0,1-4.82-11.16,78.43,78.43,0,0,1-3.68-35.06Z"/><path class="cls-43" d="M2074.17,1880.9a78.66,78.66,0,0,1-48.65-9.21l27.46-12.76Z"/><path class="cls-44" d="M2139.45,1824.33a79,79,0,0,1-18.8,32.9l-3.42-20.9Z"/><path class="cls-45" d="M2053.24,1769.68l-.06,0a1.19,1.19,0,0,1-1.45-.81l-7-24.66a1.17,1.17,0,1,1,2.25-.64l7,24.66A1.17,1.17,0,0,1,2053.24,1769.68Z"/><path class="cls-46" d="M2089.18,1780a1.17,1.17,0,0,1-1.08-2l23.67-17.39a1.18,1.18,0,0,1,1.39,1.9l-23.67,17.38A1.3,1.3,0,0,1,2089.18,1780Z"/><path class="cls-47" d="M2030.61,1800.09l-.1,0-26.86,6.57a1.17,1.17,0,0,1-1.42-.86,1.19,1.19,0,0,1,.87-1.41l26.85-6.58a1.17,1.17,0,0,1,.66,2.24Z"/><path class="cls-48" d="M2054.11,1861.09a1,1,0,0,1-.35.06,1.17,1.17,0,0,1-1.2-1.15l-.57-31.7a1.17,1.17,0,0,1,2.34,0l.58,31.7A1.18,1.18,0,0,1,2054.11,1861.09Z"/><polygon class="cls-49" points="2053.55 1833.14 2028.83 1799.69 2051.97 1765.98 2091.02 1778.66 2091.93 1819.98 2053.55 1833.14"/><path class="cls-50" d="M2117.61,1837.44a1.15,1.15,0,0,1-1-.13L2091,1820.1a1.17,1.17,0,1,1,1.31-1.95l25.6,17.21a1.17,1.17,0,0,1,.32,1.63A1.16,1.16,0,0,1,2117.61,1837.44Z"/><path class="cls-51" d="M2558.15,1174.79c-17.53-47.64-57.17-79.58-99.13-84.88a61.37,61.37,0,0,1-33.75-16c-17.63-16.26-42.83-22.47-66.07-13.92l-.18.07c-10.61,3.94-22.49,2.84-31.55-3.94-26.76-20-93.07-24.61-124.25-13.14-40.26,14.81-66.87,86.15-47.65,134.48,25,63,125.47,80.72,135.49,82.48,19.6,3.47,35.69,3.33,58.28,14.78,30.87,15.64,33.83,32.62,59.14,46.85s62.4,19.63,91.75,7.47C2554,1306.74,2577.58,1227.62,2558.15,1174.79Z"/><path class="cls-52" d="M2138.84,1508.11s-30.07,83.5-32.81,117.52,145.88,116.53,145.88,116.53a28,28,0,0,0-1.14-26.82c-11.27-8.92-27.17-23-46.06-40.6-22.85-21.27-45.37-44.47-44-52.2,2.73-15.47,32.8-105.15,32.8-105.15Z"/><path class="cls-15" d="M2204.71,1674.74c-6.42-6-29.81-30.69-35.66-36.58a43.26,43.26,0,0,1-34.09,27.4,574.82,574.82,0,0,0,73.49,52.48c24.23,14.42,43.46,24.12,43.46,24.12a28,28,0,0,0-1.14-26.82C2239.5,1706.42,2223.6,1692.32,2204.71,1674.74Z"/><path class="cls-53" d="M2302.7,1248.49c5-1.57,10.14-.39,11.47.48a3.72,3.72,0,0,1,1.51,1.82,2.86,2.86,0,0,1,0,1.54c-2.53,10.51-4.63,13.92-4.63,13.92a148.26,148.26,0,0,1-18.69,25.32,146.78,146.78,0,0,1-21.87,19.48,62.28,62.28,0,0,1,.53-9c.59-4.53,2.19-13,10.47-28C2288.92,1260.58,2294.26,1251.12,2302.7,1248.49Z"/><path class="cls-54" d="M2516.6,1345.08a49.55,49.55,0,0,0-43.1-11.26,20.38,20.38,0,0,0-2,1.41,264.67,264.67,0,0,1-63-13.69c-56.5-19.76-93.08-54.21-111.74-74.81q-10,14.77-21.1,29.73-2.14,2.91-4.31,5.76a373.52,373.52,0,0,0,194.07,67.25,14.09,14.09,0,0,0,3.66,5.19c11.74,11.15,39.44,11.1,51.23,16.9s18.64-4,18.64-4S2536.74,1362.66,2516.6,1345.08Z"/><path class="cls-55" d="M2138.49,1220.36c-41.28-9.57-69.19-26-87.76-40.29-32.13-24.78-40.59-30.73-62.79-50.28-6.23-10.4-6.66-26-30.39-31.4-27.41-6.22-39.86-.3-39.86-.3s-4.29,11.18,7.89,17.4,31.89,29.29,48.63,32.39c.6.12,1.13.14,1.68.2a285.36,285.36,0,0,0,41.27,47.82c46.06,42.56,68.07,33.92,102.15,66.18,2.7,2.56,8.64,8.36,13.42,6.71C2141.36,1265.81,2140.48,1240.6,2138.49,1220.36Z"/><path class="cls-56" d="M2257.27,1803.35s26.45,5.88,26.45,11.76-17.63,41.14-38.21,47-17.63-8.82-8.81-17.63S2248.45,1800.41,2257.27,1803.35Z"/><path class="cls-57" d="M2247.41,1714.38s27-2.37,28.77,3.24-4.42,44.54-22.27,56.34-19.47-3.09-13.72-14.15S2238.12,1714.23,2247.41,1714.38Z"/><path class="cls-58" d="M2272.68,1504.7s-43.63,136.39-32.7,185.87S2267.32,1805,2267.32,1805s4.72,5.34-10,8.58a5.44,5.44,0,0,1-5.7-2.38c-10.23-15.81-56.31-88.71-63.6-129.91-8.2-46.38,32.81-163.9,32.81-163.9Z"/><path class="cls-59" d="M2148,1440.29l-30.75,83.09s-1.44,1.8,0,3.23,48.44,17.37,57.55,25c2.75,2.31,6,4,9,6a4.39,4.39,0,0,0,3.17,1,4.64,4.64,0,0,0,3-2.48l27.7-102Z"/><path class="cls-60" d="M2194.84,1450.78s-7.71,50.8-8.87,84.89,1.84,31.08,1.84,31.08-1.6,13.64,69.37,11.06c5.76.33,24.94-2.82,26.86-4.74s1.91-3.36,1.91-3.36,17-80.08,5.52-108.86Z"/><path class="cls-61" d="M2158.25,1214.6s-41.21-7.41-60-16.82l-6.07,69s36.44,15.88,66.07,17.79C2158.25,1284.62,2172.21,1228.56,2158.25,1214.6Z"/><path class="cls-62" d="M2151.92,1213.38c-3.75,85-10,227.73-9.74,229.86a3.33,3.33,0,0,0,.6,1.53,3.78,3.78,0,0,0,2.41,1.19c1.31.19,140.68,23.5,147.3,20.72a5.47,5.47,0,0,0,2.28-1.75,5.74,5.74,0,0,0,.78-3.24c-.12-2.39-11.94-81-22.43-150.46a29.93,29.93,0,0,1,.41-3.3c1.84-14.82,4.53-37.26,4.91-41.55.86-9.77-1.36-26.53-20.15-53.15a348.64,348.64,0,0,0-106.37.15Z"/><path class="cls-63" d="M2208.3,1162.62l12.26,44.31c1,3.52-.21,7.16-2.77,8.49-5.85,3-16.65,7.4-26.94,4.77-2.6-.66-4.7-3.4-5.09-6.7l-5.53-46.88Z"/><path class="cls-64" d="M2223.93,1143.43s8.29-15,13.75-6.58-14,21.89-19.26,20.72S2223.93,1143.43,2223.93,1143.43Z"/><path class="cls-65" d="M2165.11,1092.12s-44.78,75.75-8.37,83.29,61.6-15.33,67.79-19.35S2241.29,1059.89,2165.11,1092.12Z"/><path class="cls-66" d="M2239.05,1133.27s-30.9,23.76-34.42-37.13c0,0-16.51,15.18-20-1.35,0,0-28.49,4.62-29.53-7.21s43.58-35.78,71.45-8.34S2239.05,1133.27,2239.05,1133.27Z"/><path class="cls-67" d="M2160.82,1093.94a42.26,42.26,0,0,1,6.52-.44c.53-7.49,11.43-7,25.68-8.19,11.06-.94,19.14-.89,29.35,2.93,5.3,2,10.5,4.13,15.63,6.39a60.05,60.05,0,0,0-11.48-15.39c-27.87-27.44-72.48-3.49-71.45,8.34C2155.35,1090.77,2157.65,1092.73,2160.82,1093.94Z"/><path class="cls-68" d="M2315.68,1250.79c-1.9-4-7.18-8.66-13.36-14.11-7.23-6.37-34.58-30.49-54-21.47-8,3.71-11.55,11.58-13.09,15a44.91,44.91,0,0,0,7.64,48.17,353.36,353.36,0,0,0,30.82,30.23C2267.91,1303.58,2311,1253.19,2315.68,1250.79Z"/><path class="cls-15" d="M2241.55,1696.71a51.38,51.38,0,0,1-21.59,10.94,50.21,50.21,0,0,1-24.26-.54c1.18,6.77,9.75,25,20.89,45.92,13.77,25.83,31.73,53,35,58.17a5.44,5.44,0,0,0,5.7,2.38c14.7-3.24,10-8.58,10-8.58S2252.13,1743,2241.55,1696.71Z"/><path class="cls-69" d="M2873.88,1278.34s0,0,0,0c-30.27-2.07-57.12-12-79-24a10.7,10.7,0,0,0-1.57-.9l.1.28c-8.13-4.84-15.73-9.89-22.62-14.84-4.61,11.65-8.21,23.63-11.81,35.63,24,32.56,49.37,54.76,74.9,69.34a161.21,161.21,0,0,0,29.7,13.69c3.3,1.17,6.61,2.28,9.9,3.24a1.55,1.55,0,0,1,0-.21c91.75,25.08,219.36-53.35,219.36-53.35s-51.61-38.74-77-80.8c-.7.22-1.81.56-3.16,1-37.67,12.16-54.42,31-74.25,41.47C2925.58,1275.62,2905.27,1282.18,2873.88,1278.34Z"/><path class="cls-70" d="M2743,1251q2.4,3.87,5,7.81c4,6.11,8.07,11.89,12.11,17.33q5.72-18.08,11.45-36.15a126.88,126.88,0,0,0-32.89-27.66c-2.83-1.65-10.41-8.72-20.17-9.46-38.85-3-97.82,5.27-97.82,5.27.73,10.58,10.34,10.63,10.34,10.63l31.24-1.74c3.27,8.77,4.91,17.47,10.74,25.89a30.35,30.35,0,0,0,18.93,12.26c7.68,1.58,17.82,3.44,26.31,4.26C2734.27,1260.94,2743,1251,2743,1251Z"/><path class="cls-71" d="M2729.91,1245.44a2.49,2.49,0,0,0,1.3-1.1,2.53,2.53,0,0,0-.9-3.48c-3-1.77-29.61-17.33-38.14-18.69-3.1-.5-5.18-1.43-6-2.69a3.74,3.74,0,0,1-.52-2.36l23.1-3.68,16.06,5.92a2.55,2.55,0,0,0,1.76-4.78l-16.69-6.15a2.54,2.54,0,0,0-1.28-.13l-25.56,4.08a2.55,2.55,0,0,0-2.08,1.92c-.78,3.24-.46,5.86,1,8,1.7,2.54,4.79,4.14,9.46,4.88,6.42,1,28.42,13.38,36.36,18A2.55,2.55,0,0,0,2729.91,1245.44Z"/><path class="cls-72" d="M3273.55,1229.37s11.43-20.67,25.52-8.52c65.7,56.67,231.2,239.63,20.64,381.71l-5.28-20.25s110.39-140.52-50.58-218.46C3263.85,1363.85,3262.62,1253.84,3273.55,1229.37Z"/><path class="cls-73" d="M3272.86,2217.09a7.41,7.41,0,0,0-.19-1.92c-9.58-38-48.72-57.41-48.72-57.41l-18.83,1.47c-10.83,33.46-17.81,49.79-16.07,58.93,0,.25.13.5.19.74C3204.78,2220.29,3236.75,2221.2,3272.86,2217.09Z"/><path class="cls-74" d="M3189.24,2218.9a8.18,8.18,0,0,0,6,6c22.09,4.65,57.21.91,72-1a6.86,6.86,0,0,0,5.68-6.83C3236.75,2221.2,3204.78,2220.29,3189.24,2218.9Z"/><path class="cls-75" d="M3231,1900.89a570.5,570.5,0,0,0-.85,70.84c2,39.9,7.13,58.17,9.39,87.06,2,25.67,2,62.83-8.37,109.35-.7,1.21-2,5-5.55,5.34a54.85,54.85,0,0,1-12.77-.2c-4.25-.62-7.21-5-6.46-9.59-15.38-64.08-17.08-108.65-15.5-138.19a262.94,262.94,0,0,0-1.71-54.62,256.94,256.94,0,0,0-18.77-66.57Z"/><path class="cls-76" d="M3029.26,2218.58c20.11-.57,30.51-2.94,35.89-5.13,0,2,0,4-.07,6.14a4,4,0,0,1-3.79,4l-110.41-.72c-3.52,0-5.58-4.11-4.06-7.34C2961.3,2216.77,2998.17,2219.45,3029.26,2218.58Z"/><path class="cls-77" d="M2946.82,2215.57a6,6,0,0,1,.44-.83c9.75-13.62,34.59-40.76,83.66-52.52l23.55-.75s10.48,18.23,10.68,52c-5.38,2.19-15.78,4.56-35.89,5.13C2998.17,2219.45,2961.3,2216.77,2946.82,2215.57Z"/><path class="cls-78" d="M3124.57,1875.93c-5.17,27-29.34,71.29-34.51,98.29a511.83,511.83,0,0,1-3.25,99.93s-5.63,42.59-32.72,90.41c-.4.72-1.26,4.26-4.32,4.63-4,.48-10.49.91-16.17-.25a7,7,0,0,1-5.28-7l23.49-269.59Z"/><path class="cls-79" d="M3223.72,1607.32s33.37,94.52,12.44,303.82c0,0-60.84,4.18-73.39,0,0,0,.87-91.26-11.79-185-.48-3.54-6.25-3.76-6.21-.2.93,92.33-7.78,154.68-15.08,183.87,0,0-72.23,2.61-89-5.76,0,0,15.56-208.88,40.68-288.41Z"/><path class="cls-80" d="M3292.72,1217.36s-3.09-.82-19.18-2.59c-50-5.5-164.12-13.7-259.11,11.63l8.37,129.76s33.48,180,58.6,259.53c0,0,96.28,16.74,142.32-8.37,0,0,37.67-226,58.6-259.53C3282.32,1347.79,3296.91,1259.22,3292.72,1217.36Z"/><path class="cls-81" d="M3188.57,1103.65l15.84,107.16s-44.27,20.34-75.27-.87l6.68-75.63Z"/><path class="cls-82" d="M3096.69,1055.28c-.23,1,5.22,55.61,8.63,89.4a23.46,23.46,0,0,0,28.37,20.57l12.55-2.75a45.73,45.73,0,0,0,35.61-50.25l-7.5-60.84S3102.4,1030.85,3096.69,1055.28Z"/><path class="cls-83" d="M3187.71,1047.81c3.07-7.22,4.52-17.9-8.38-25.07-13.06-7.26-23.92-1.48-30.31,4a8.45,8.45,0,0,1-10.11.8,5.36,5.36,0,0,0-5.32-.43,7.9,7.9,0,0,1-10.45-4.19c-2.93-7.07-9.25-14.59-22.88-13.44-25,2.09-30.16,29.16-25,45.73s32.11,12.75,46.08,5.83c10.26-5.09,22.31,1.8,28,5.81a8.12,8.12,0,0,1,3.44,6.28l.79,17.18c4,4.28,8,8.68,12.85,11.92a16.53,16.53,0,0,0,10.11,3.09c2.1-9.48,14.08-14.36,19.78-16.16a8.15,8.15,0,0,0,4.93-4.3c2.94-6.19,6.61-19.2-9.46-26.44A8.13,8.13,0,0,1,3187.71,1047.81Z"/><path class="cls-84" d="M3177.05,1123.77s-7.68-29.25,3.33-35.3,26.11-1.11,20.94,19.15C3194.9,1132.82,3177.05,1123.77,3177.05,1123.77Z"/><path class="cls-85" d="M3321.3,1601.78s-13.34,46.89-37.49,42.11-23.18-30.36-22.68-43.15,46.93-21.25,54.51-18.39S3321.3,1601.78,3321.3,1601.78Z"/><path class="cls-86" d="M3097.5,1212c1.27,15.58,2.89,31.06,5.34,46.41,1.14,7.69,2.58,15.35,4,22.9s2.72,15.2,4.24,22.79c3.07,15.16,6.29,30.37,11.69,45,2.74,7.29,5.89,14.6,11,20.87a24.35,24.35,0,0,0,9.76,7.38,17.35,17.35,0,0,0,12.35,0c7.72-2.86,13.7-8.17,19.31-13.58a110.17,110.17,0,0,0,14.55-18.33c8.39-13.19,14.31-27.73,19-42.54A329.63,329.63,0,0,0,3219,1257.5c2.56-15.34,3.94-31.33,5-46.87l-9.2-.48c.69,30.47-1.87,62.13-10,91.62-4.05,14.71-9.71,29-17.7,42a96.72,96.72,0,0,1-14,17.87c-5.38,5.23-11.32,10.35-18.17,12.85a13.83,13.83,0,0,1-10.24,0,21.19,21.19,0,0,1-8.33-6.57c-4.59-5.78-7.56-12.89-10.09-20-4.83-14.43-7.64-29.56-9.95-44.72s-4.2-30.53-5.55-45.71a384.15,384.15,0,0,1-1-46.38Z"/><circle class="cls-87" cx="3137.06" cy="1372.79" r="12.56" transform="translate(-51.89 2620.32) rotate(-45)"/><polygon class="cls-88" points="3139.11 1360.4 3157.04 1364.82 3152.85 1389.71 3133.05 1384.7 3139.11 1360.4"/><ellipse class="cls-89" cx="3155.41" cy="1377.43" rx="8.55" ry="12.84"/><path class="cls-90" d="M3118.6,1405.55l9.52-26.76,18.75-1.36a27.56,27.56,0,0,0,.92,4.7,27.9,27.9,0,0,0,1.83,4.73l-9.51,22.93Z"/><polygon class="cls-91" points="3115.28 1401.41 3124.55 1371.59 3146.87 1376.86 3136.79 1405.45 3115.28 1401.41"/><polygon class="cls-92" points="3115.28 1401.41 3136.79 1405.45 3140.11 1409.79 3118.6 1405.55 3115.28 1401.41"/><path class="cls-93" d="M2755.51,1567.3s87.39-8.24,93,2.16,18,53.59,18,53.59l-19.6,9.59s-13.19-36.29-18.79-36.34-63.18,17.55-63.18,17.55Z"/><path class="cls-94" d="M2846.28,1631s-7.41,12.06,0,17.66,5.82,9.6,20.22,5.2,8-24.8,0-30.79S2846.28,1631,2846.28,1631Z"/><path class="cls-95" d="M2842.4,1745.06s-17.57-20.63-1.15-22.31,63.55,15.53,45.84,33S2842.4,1745.06,2842.4,1745.06Z"/><path class="cls-96" d="M2660.76,1837l-23.3,45.25L2599,1957s-14.47,2.4-15-22.79c-.29-12.82,7.94-42.4,16.12-68.38,7.87-25.08,15.69-46.79,15.69-46.79Z"/><path class="cls-97" d="M2850.07,1732.62l-9.8-2.8a3.78,3.78,0,0,0-4.29,1.73c-3.22,5.52-11.26,19.2-21.09,32.69-12.88,17.66-28.79,35-39.23,33.16v4.79s20.23,34.79,47.82,16.8c10.37-6.77,17.93-20.25,23.45-34.45a228.54,228.54,0,0,0,10.82-39.57A10.8,10.8,0,0,0,2850.07,1732.62Z"/><path class="cls-98" d="M2632.57,1769.5l-21.87,64,46.21,11s50-79.46,60.83-71.06,43.19,40.79,57.58,38.39,34.79-34.79,34.79-34.79l-34.79-48S2644.86,1732.31,2632.57,1769.5Z"/><path class="cls-99" d="M2594.06,1617.53s30.11-20.4,84.09-37.23,86.7-15.64,86.7-15.64l10.47,52.87-42,17.91,42,93.58L2641,1757.81l-20.47-85.18-56.38,16.27-8.4-49.86Z"/><path class="cls-100" d="M2646.73,1540.66l27.45,49.81s-20.37,28-50,24.33l-15.67-47.15Z"/><path class="cls-101" d="M2554.7,1466.69s-55.62,98.1,10.67,122.29c62.56,22.84,83.75-41.2,83.75-41.2s24.73-29.51,14.28-50.16S2569.05,1454,2554.7,1466.69Z"/><path class="cls-102" d="M2585.82,1444.13c-18,7.87-21.39-2-34.14-8.18s-29.21,25-19.48,52.21c8,22.23,35.68,3.66,45.53-3.85a3.23,3.23,0,0,1,4.91,1.26c8.79,20,40.72,23.83,43.86,23.51,3.35-.33,18.88,21.16,20.73,31.37s21.2-14.63,21.2-14.63C2707.1,1446.44,2603.77,1436.27,2585.82,1444.13Z"/><path class="cls-103" d="M2641.72,1556.71l8.73-30.49s20.22-11.07,18.61,5.29S2649.29,1558.14,2641.72,1556.71Z"/><path class="cls-104" d="M2637.46,1882.23l-3.31,6.41-3.29,6.41L2599,1957s-14.47,2.4-15-22.79c-.24-10.92,5.68-34,12.52-56.65.7-2.4,1.44-4.78,2.16-7.13l1.44-4.6C2611,1869,2625,1875.68,2637.46,1882.23Z"/><path class="cls-104" d="M2857.72,1745a257.48,257.48,0,0,1-6.27,26.1c-.79,2.62-1.65,5.28-2.59,8-.62,1.84-1.29,3.69-2,5.52-7.34-11.76-24-17.93-32.13-20.3.89-1.23,1.78-2.45,2.62-3.65q2.19-3.09,4.22-6.12c6.69-9.88,12-18.74,14.42-22.91a3.76,3.76,0,0,1,4.29-1.73l9.79,2.78A10.81,10.81,0,0,1,2857.72,1745Z"/><path class="cls-105" d="M2602.5,1950.11s-58.31-52.74-67.91-31.95,16.72,35.19,34,44.79S2602.42,1975.66,2602.5,1950.11Z"/><path class="cls-106" d="M2559.39,1638.63s-49.79,28.95-55.19,17.08-16.79-43.06-16.79-43.06l-15,2.48s3,80.89,38.39,80.89,65.6-10.64,65.6-10.64Z"/><path class="cls-107" d="M2469.11,1615.13s21.3,3.22,23.1-2.48,4.19-17.1-1.2-18.75-3-13.94-13.2-11.84S2455.62,1596.62,2469.11,1615.13Z"/><path class="cls-15" d="M2478.47,1881.33a78.74,78.74,0,1,1-116.56-41,77.47,77.47,0,0,1,16.55-7.92,78.75,78.75,0,0,1,98.06,43.84C2477.22,1877.89,2477.87,1879.6,2478.47,1881.33Z"/><path class="cls-108" d="M2476.52,1876.22l-25.73-9.3,1.34-22.36A78.24,78.24,0,0,1,2476.52,1876.22Z"/><path class="cls-109" d="M2403.15,1828.1l-16.26,21.57-25-9.37a77.47,77.47,0,0,1,16.55-7.92A78.54,78.54,0,0,1,2403.15,1828.1Z"/><path class="cls-110" d="M2343.66,1909.58l-9.34,34a79.07,79.07,0,0,1-8.5-46.22Z"/><path class="cls-111" d="M2414.45,1984.91a78.6,78.6,0,0,1-48.65-9.2l27.46-12.76Z"/><path class="cls-112" d="M2479.73,1928.35a79,79,0,0,1-18.8,32.9l-3.41-20.9Z"/><path class="cls-113" d="M2393.53,1873.7l-.06,0a1.18,1.18,0,0,1-1.45-.81l-7-24.66a1.17,1.17,0,1,1,2.25-.64l7,24.66A1.18,1.18,0,0,1,2393.53,1873.7Z"/><path class="cls-114" d="M2429.46,1884a1.17,1.17,0,0,1-1.08-2l23.67-17.39a1.17,1.17,0,0,1,1.39,1.89l-23.67,17.39A1.3,1.3,0,0,1,2429.46,1884Z"/><path class="cls-115" d="M2370.89,1904.11a.38.38,0,0,1-.1,0l-26.85,6.58a1.17,1.17,0,0,1-1.42-.86,1.19,1.19,0,0,1,.86-1.42l26.85-6.57a1.17,1.17,0,0,1,.66,2.24Z"/><path class="cls-116" d="M2394.4,1965.11a1.13,1.13,0,0,1-.36.06,1.18,1.18,0,0,1-1.2-1.15l-.57-31.7a1.18,1.18,0,0,1,2.35,0l.57,31.7A1.17,1.17,0,0,1,2394.4,1965.11Z"/><polygon class="cls-117" points="2393.83 1937.16 2369.11 1903.71 2392.26 1870 2431.3 1882.68 2432.21 1924 2393.83 1937.16"/><path class="cls-118" d="M2457.9,1941.46a1.17,1.17,0,0,1-1-.13l-25.6-17.21a1.17,1.17,0,1,1,1.31-1.95l25.6,17.21a1.17,1.17,0,0,1-.27,2.08Z"/><path class="cls-119" d="M1215.27,1353.5c-3-3.66-8.76-10.87-18.06-11.91-7.62-.84-13.88,2.88-16.75,4.89a42.44,42.44,0,0,0-21.42-6.94c-12.27-.45-21.1,4.85-25.86,7.8-20.28,12.56-26,34.6-27.09,39-.61,2.55-7,31.34,10.47,53.57,2.79,3.54,7.38,9.35,15.39,13.54,10.58,5.53,17.21,3,31.4,9.85,7.78,3.74,6.92,5,11.7,6.78,14,5.08,31-2.68,39.4-9.24C1245.51,1436.74,1232.18,1374.47,1215.27,1353.5Z"/><path class="cls-120" d="M1032,1949.29s-20.16-9.66-23.16-5.85-9.52,35.69.84,50,15.93,3.26,14.7-7S1039.2,1951.87,1032,1949.29Z"/><path class="cls-121" d="M1195.14,1874.91c30.76-46.45,26.73-97.56,24-117.29-19-4.13-37.69-7.85-55.31-11.67,2.39,17.92,6,64.13-19.8,111.65-39,71.78-115.22,91.14-119,90.9a2,2,0,0,0-1.23.31c-3.23,2.25,3.46,14.22,4,15,.13.21.5.77,1,.8a.77.77,0,0,0,.3,0s34.33-5,66.25-18.1C1125.52,1934.19,1167.3,1917,1195.14,1874.91Z"/><path class="cls-15" d="M1111.15,1900.59c-36.71,31.94-83.35,48.09-86,47.91a2,2,0,0,0-1.23.31c-3.23,2.25,3.46,14.22,4,15,.13.21.5.77,1,.8a.77.77,0,0,0,.3,0s34.33-5,66.25-18.1c11.33-4.64,30.36-13.33,43.63-20.43-3.78-1-8.26-3.51-14.51-8.26C1117.74,1912.62,1113.09,1904.13,1111.15,1900.59Z"/><path class="cls-122" d="M1412.73,1546.74c-13-7.22-38.17-1.86-51.58,1.81a360.25,360.25,0,0,1-63.43-4.66c-25.42-4.15-41.76-20.57-59.49-27-2.09.45-14.22,12.19-19.14,18.34-4.12,5.14-6.71,13-4.68,18.57,2.48,6.8,11.56,9.53,46.46,13.47,33.37,3.76,92.31-3.41,99.76-4.39,16.2,3.85,52.11,7.23,60.89,9.49,9.88,2.55,13.26-5.93,13.26-5.93S1431,1556.88,1412.73,1546.74Z"/><path class="cls-123" d="M1268.81,1660.87l-114.08,36.49c-.12,47.51-3.22,71.2-8.83,122.82,14.37-.38,60.88,20.79,76.93,12,17.26-9.5,35.89-39.7,39.08-44,20.42-27.31,16-63.81,13-88.15C1274.91,1700,1274.83,1699.39,1268.81,1660.87Z"/><path class="cls-124" d="M1450.72,1938.8s-13.07,24-8.59,27.94,43,13.85,61.15,2.08,5-19.27-7.59-18.41S1454.32,1930.13,1450.72,1938.8Z"/><path class="cls-125" d="M1317.27,1747.82c-29.09-3.35-40.23-6.78-62.17-22.51l-32.84,64.62s123.59,19.77,154,60.91,69,96.7,69,96.7.94,7.14,13.16-1.91a5.48,5.48,0,0,0,2-5.92c-5.25-18.27-30.21-101.72-56.76-134.58C1390.5,1788.83,1346.72,1763.06,1317.27,1747.82Z"/><path class="cls-15" d="M1380.47,1856.51c29.67,40.39,64.83,91,64.83,91s.94,7.14,13.16-1.91a5.48,5.48,0,0,0,2-5.92c-4.62-16.07-24.49-82.57-47.28-120.72a60.91,60.91,0,0,1-32.67,37.52Z"/><path class="cls-126" d="M1349.9,1762.72c-52.15-52.13-142.64-87.3-149.65-118.79l-53,18.27c-3.83,17.58-13.17,70.33,15.34,98.33,10.27,10.08,24.79,16.32,52.44,28.2,18.43,7.91,62.13,27.19,72.79,30.5C1305.91,1802.6,1331.77,1779.34,1349.9,1762.72Z"/><path class="cls-127" d="M1248,1511.19c-1.19,1.56-28.86,26.38-41.24,37.62a247.87,247.87,0,0,0,49.34,29.27c1.41-2.91,2.79-5.4,3.4-6.5a378.28,378.28,0,0,1,20.15-32.76,6.37,6.37,0,0,0-2.24-9.33A219.81,219.81,0,0,1,1248,1511.19Z"/><path class="cls-128" d="M1272.51,1672.73a3.16,3.16,0,0,0,2.57-3.48l-15.5-139.77a42.62,42.62,0,0,0-38.31-35c-11.11-1-22.67-.64-36.42,1.06-19.3,2.39-46.25,23.09-49.71,42.23l-.84,139.59c-1.6,8.85,3.74,16.8,12.7,16C1168.53,1691.33,1255.47,1675.79,1272.51,1672.73Z"/><path class="cls-129" d="M1142,1541.59c-.24-4.62-6.44-17.5-8.66-17.77-38.11-4.6-65.49,37.91-88,66.77-8.14,10.43-20.58,35.65-25.86,52.13,0,.06,3.28-4.71-1.32,2.07s-20.88,44.31-15.4,57.08c.48,1.12,2.25,9.78,9,17.65,2.38,2.77,5.15,5.93,8.13,5.53,3.59-.49,5.7-5.88,7.54-11.79,10.37-33.27,5.36-60.82,4.43-64.74-1.7-7.12-.38-1.7-.36-1.73a170.45,170.45,0,0,1,33.69-45.71c20.55-19.69,42.26-32.14,68-42.85C1138.67,1554.53,1142.34,1547.63,1142,1541.59Z"/><path class="cls-130" d="M1182.68,1449.61l-9.91,48.46a7.79,7.79,0,0,0,5.13,9c8.53,2.9,24.07,6.86,37.8,3.35a7.86,7.86,0,0,0,6-7.55l.26-50.79Z"/><path class="cls-131" d="M1145.89,1440.65c13.8,30.41,46,53.46,80.81,36,24.1-12,24.74-38.57,11-69s-43.31-48-67.85-36.82S1132.09,1410.24,1145.89,1440.65Z"/><path class="cls-132" d="M1157.36,1445.54s-11-16.22-16.34-6.08,18.19,23.48,24.08,21.61S1157.36,1445.54,1157.36,1445.54Z"/><path class="cls-133" d="M1168.62,1517.47c-12.1-16.81-26.92-13.33-43.32-3q-5.88,3-11.45,5.54a6.39,6.39,0,0,0-2.58,9.42c6.06,9.1,10.4,19.24,14.24,29.54a6.33,6.33,0,0,0,8,3.76c8.58-2.9,18.34-6.54,29.75-11.33C1171.68,1547.8,1176.28,1528.1,1168.62,1517.47Z"/><path class="cls-134" d="M1139.09,1435.54s37.66,23.85,35.35-45.86c0,0,20.38,15.58,22.67-3.61,19.79-3,25.26-5.91,25.34-8.36.24-7.43-48.6-28.06-74.7-5-11,9.74-16.66,26.12-15.45,41.23A51.84,51.84,0,0,0,1139.09,1435.54Z"/><path class="cls-15" d="M1642.1,1824.41a78.7,78.7,0,0,1-49,100,79.74,79.74,0,0,1-15.06,3.58,78.82,78.82,0,0,1-80.13-41.37,79.83,79.83,0,0,1-4.82-11.17,78.72,78.72,0,0,1,32.41-92.08,77.47,77.47,0,0,1,16.55-7.92,78.75,78.75,0,0,1,98.06,43.84C1640.84,1821,1641.5,1822.68,1642.1,1824.41Z"/><path class="cls-135" d="M1640.15,1819.3l-25.73-9.3,1.34-22.36A78.33,78.33,0,0,1,1640.15,1819.3Z"/><path class="cls-136" d="M1566.78,1771.18l-16.26,21.57-25-9.37a77.47,77.47,0,0,1,16.55-7.92A78.49,78.49,0,0,1,1566.78,1771.18Z"/><path class="cls-137" d="M1507.28,1852.66l-9.33,34a79.83,79.83,0,0,1-4.82-11.17,78.37,78.37,0,0,1-3.68-35Z"/><path class="cls-138" d="M1578.08,1928a78.66,78.66,0,0,1-48.65-9.21l27.46-12.76Z"/><path class="cls-139" d="M1643.36,1871.43a79,79,0,0,1-18.8,32.9l-3.42-20.9Z"/><path class="cls-140" d="M1557.15,1816.78l-.06,0a1.19,1.19,0,0,1-1.45-.81l-7-24.66a1.17,1.17,0,1,1,2.26-.64l7,24.66A1.17,1.17,0,0,1,1557.15,1816.78Z"/><path class="cls-141" d="M1593.09,1827.12a1.17,1.17,0,0,1-1.08-2l23.67-17.39a1.17,1.17,0,0,1,1.39,1.89L1593.4,1827A1.3,1.3,0,0,1,1593.09,1827.12Z"/><path class="cls-142" d="M1534.52,1847.19l-.1,0-26.86,6.58a1.17,1.17,0,0,1-1.42-.86,1.21,1.21,0,0,1,.86-1.42l26.86-6.57a1.17,1.17,0,0,1,.66,2.24Z"/><path class="cls-143" d="M1558,1908.19a1,1,0,0,1-.35.06,1.17,1.17,0,0,1-1.2-1.15l-.57-31.7a1.17,1.17,0,1,1,2.34,0l.58,31.7A1.18,1.18,0,0,1,1558,1908.19Z"/><polygon class="cls-144" points="1557.46 1880.24 1532.74 1846.79 1555.88 1813.08 1594.93 1825.76 1595.84 1867.08 1557.46 1880.24"/><path class="cls-145" d="M1621.52,1884.54a1.15,1.15,0,0,1-1-.13l-25.6-17.21a1.17,1.17,0,1,1,1.31-2l25.6,17.21a1.18,1.18,0,0,1,.32,1.63A1.16,1.16,0,0,1,1621.52,1884.54Z"/><path class="cls-146" d="M715,1035.35a32.65,32.65,0,0,1,.81,10.14c-2.62,34-26.28,215.62-233.37,250.16l-41.06-40.53s189.86-64.55,246.17-199.33a32.37,32.37,0,0,0,2.16-17.18l-7.75-52.56a90.25,90.25,0,0,1,.12-27.16l2.53-16.09a4,4,0,0,1,7.82-.32Z"/><path class="cls-147" d="M495,1785.21s-108.5,236.48-165.42,334.43c0,0-11.31,61.63,0,81l9.63,4.29-45-1.34s-4-82.9-.87-87.53,9.36-4.33,9.36-4.33S322,1959,377.81,1926.37L431.93,1740Z"/><path class="cls-148" d="M618,1770.13s-70.12,339.2-89.95,405.36L575,2204.94s-23.52-4-41-5.27-33.48-21.27-33.48-21.27l5.63-9s17.58-337.34,13.3-375.65Z"/><path class="cls-149" d="M624.73,1494l2.24-19.46c-30.09,12.66-121.92-4-121.92-4l-1,21.26a143.09,143.09,0,0,0-13.67,9.42,149.82,149.82,0,0,0-41.73,51.63c109.14,48.08,55.51,168.47,54.25,262.57,57.7,13.31,121.65-.26,121.65-.26C672.79,1590.27,624.73,1494,624.73,1494Z"/><path class="cls-150" d="M448.66,1552.88C441.4,1571.75,392.88,1774,392.88,1774c27.64,22.8,82.64,35.15,110,41.48C504.17,1721.35,557.8,1601,448.66,1552.88Z"/><path class="cls-151" d="M329.54,2119.64c22.27-38.33,44.41-80.89,72.89-139.17-3.63,1.24-20.77,7.69-37.39,0a47.45,47.45,0,0,1-19.54-17,386.72,386.72,0,0,0-42.81,148.25s-6.24-.3-9.36,4.33.87,87.53.87,87.53l45,1.34-9.63-4.29C318.23,2181.27,329.54,2119.64,329.54,2119.64Z"/><path class="cls-152" d="M573.15,1982.05a82,82,0,0,1-58.09,0q-2.76,64.23-5.92,129c-1.72,35.09-2.93,58.42-2.93,58.42l-5.63,9s16,20,33.48,21.27,41,5.27,41,5.27l-46.92-29.45C536.8,2146.42,555.23,2064.62,573.15,1982.05Z"/><path class="cls-153" d="M360.44,2209.93c-4.49,12.65-35.07,18.05-56.29,6.86a48.25,48.25,0,0,1-14.58-12L275.14,2129a13.63,13.63,0,0,1,10.36-15.84l17.19-3.85c14.11,16.28,19.69,30.88,22.18,41.22,3.68,15.34,2.75,30.48,12.6,35.65,5.55,2.91,9.85-.06,15.38,4.24S362.73,2203.49,360.44,2209.93Z"/><path class="cls-154" d="M951.05,1295.05s-153,88.48-306.07-14l-61.15,74.41S728.1,1445.38,939.62,1332a27.88,27.88,0,0,1,19.84-2.41l46,11.33a55.48,55.48,0,0,0,49.65-12l12.67-11a8.44,8.44,0,0,0-1-13.45l-3.13-2a56.73,56.73,0,0,0-33.65-9s-59.26-9.42-62.2-10.62C965.3,1281.77,960.61,1283.45,951.05,1295.05Z"/><path class="cls-155" d="M650.66,1275c-27.73-3-121.88-11.23-178.72-12.21l-2.46,261.47L646,1557.92c-21.41-53.55-18.11-83.85-10.58-101.81,3-7.22,12.43-26,7.38-47.61a58.93,58.93,0,0,0-9-20l6.68-1.43a15.47,15.47,0,0,0,12.21-14.18l5.45-89A8.46,8.46,0,0,0,650.66,1275Z"/><path class="cls-156" d="M585.3,1270.09c.51-.41-17.6-76.74-17.6-76.74l-34.6,3.14-13.51,82.13S562.23,1288.58,585.3,1270.09Z"/><path class="cls-157" d="M642.52,1122c.22,2.71,19.08,77.88-49.82,109.78a14,14,0,0,1-12.72-.45c-10-5.66-30-19.06-43.85-42.44-19.28-32.42,18.69-91.16,34.62-101.66S640.35,1095.1,642.52,1122Z"/><path class="cls-158" d="M652.77,1087.22c.93,1.66,13.39,41.6-21.28,42.9s-52.58,5.43-57.16,20.36c-4.18,13.6,12.2,24.74-7.92,37.62a13.38,13.38,0,0,0-6.31,11.77c.91,21.26-3,77.67-70.44,74.62a13.33,13.33,0,0,0-12.88,7.68c-10.56,23.35-47.63,83.44-133.34,28.85-84.7-53.94-55.61-117.63-41.56-139.81a13.08,13.08,0,0,0-1.05-15.32c-6.52-8-13.84-20.74-2.38-28.4,7-4.65,16.09-4.92,24.59-3.54a13.07,13.07,0,0,0,15-14.27,25.64,25.64,0,0,1,5.25-19.62c13.53-17.1,70.87-45.47,115.37-3.33,3.71,3.51,10.64,4.94,15.14,2.52l.21-.11a13.05,13.05,0,0,0,7.42-11.53c-.06-11.95,4-30.35,28.33-35.88,21.56-4.89,37.22,4.76,46.51,13.65a13.15,13.15,0,0,0,19-.7C589,1039.26,617.1,1023.05,652.77,1087.22Z"/><path class="cls-159" d="M599.7,2225.53l-3.9-.19c-73.13-3.22-96.89,1.48-110-4-8.22-3.42,3-33,14.8-43l65.19,8.82c2.45.28,18.27,2.32,27.72,16.39A37.71,37.71,0,0,1,599.7,2225.53Z"/></g></g></svg>